<svg width="33" height="32" viewBox="0 0 33 32" fill="none" xmlns="http://www.w3.org/2000/svg">
<path d="M24.5003 2.66675V8.00008M24.5003 8.00008V13.3334M24.5003 8.00008H19.167M24.5003 8.00008H29.8337M5.83366 13.3334H11.167C12.6398 13.3334 13.8337 12.1395 13.8337 10.6667V5.33341C13.8337 3.86066 12.6398 2.66675 11.167 2.66675H5.83366C4.3609 2.66675 3.16699 3.86066 3.16699 5.33341V10.6667C3.16699 12.1395 4.3609 13.3334 5.83366 13.3334ZM13.8337 24.0001C13.8337 26.9456 11.4458 29.3334 8.50033 29.3334C5.55481 29.3334 3.16699 26.9456 3.16699 24.0001C3.16699 21.0546 5.55481 18.6667 8.50033 18.6667C11.4458 18.6667 13.8337 21.0546 13.8337 24.0001ZM21.8337 29.3334H27.167C28.6397 29.3334 29.8337 28.1395 29.8337 26.6667V21.3334C29.8337 19.8607 28.6397 18.6667 27.167 18.6667H21.8337C20.3609 18.6667 19.167 19.8607 19.167 21.3334V26.6667C19.167 28.1395 20.3609 29.3334 21.8337 29.3334Z" stroke="#19D7C4" stroke-width="1.8" stroke-linecap="round"/>
</svg>
