<svg width="48" height="48" viewBox="0 0 48 48" fill="none" xmlns="http://www.w3.org/2000/svg">
<path d="M24 6H32.4C35.7603 6 37.4405 6 38.7239 6.65396C39.8529 7.2292 40.7708 8.14708 41.346 9.27606C42 10.5595 42 12.2397 42 15.6V32.4C42 35.7603 42 37.4405 41.346 38.7239C40.7708 39.8529 39.8529 40.7708 38.7239 41.346C37.4405 42 35.7603 42 32.4 42H15.6C12.2397 42 10.5595 42 9.27606 41.346C8.14708 40.7708 7.2292 39.8529 6.65396 38.7239C6 37.4405 6 35.7603 6 32.4V24M16 26V34M32 22V34M24 14V34M4 10L10 4M10 4L16 10M10 4L10 16" stroke="#19D7C4" stroke-width="3" stroke-linecap="round" stroke-linejoin="round"/>
</svg>
