<svg width="38" height="36" viewBox="0 0 38 36" fill="none" xmlns="http://www.w3.org/2000/svg">
<path d="M28.6006 1.61038C25.3182 2.75959 24.229 3.12606 22.0303 3.80226C19.5069 4.57998 17.3241 5.26832 16.2683 5.62098C15.088 6.01764 13.3655 6.56985 11.4869 7.15845C7.2218 8.4938 5.98262 8.9032 4.37941 9.50859C4.00757 9.64852 3.26389 9.92832 2.72616 10.1283C1.4667 10.5976 0.887904 10.9009 0.934211 11.0624C0.960672 11.1547 1.24336 11.4149 1.33895 11.429C1.55379 11.4673 1.70596 11.432 3.88888 10.8019C5.99482 10.1939 6.13052 10.1591 6.1251 10.2273C6.10557 10.4783 6.1552 10.7096 6.33644 11.182C6.46867 11.5269 7.00163 13.3132 8.07881 17.0406C9.39525 21.6025 9.67361 22.5297 9.93797 23.2487C10.5577 24.931 10.8721 25.6357 11.4571 26.6455C11.7422 27.1464 11.8781 27.3155 12.3032 27.7096C12.4335 27.8303 12.6425 28.0367 12.7586 28.1657C12.8796 28.2974 13.0363 28.4231 13.1072 28.4527C13.2903 28.5251 13.6277 28.6572 13.8443 28.7449C13.9801 28.7975 14.0482 28.803 14.1196 28.7617C14.2673 28.6819 14.3853 28.5565 14.4583 28.419L14.5208 28.2887L15.3102 28.154C16.8472 27.8838 18.1887 27.5699 20.782 26.8762C22.9346 26.3005 24.7891 25.7438 26.8938 25.0446C27.8546 24.7234 28.8998 24.3778 29.2118 24.2759C32.1394 23.3116 33.1356 22.8678 33.9108 22.1753C34.1688 21.9432 34.2599 21.8255 34.4612 21.4682C34.7492 20.9487 34.8735 20.5261 35.1146 19.2336C35.3185 18.1306 35.3403 17.9745 35.4025 16.9872C35.4648 16.058 35.4759 15.5596 35.4631 14.2234C35.4587 13.6421 35.492 12.2635 35.5426 11.1629C35.6431 8.85793 35.6479 8.12003 35.5845 6.15746C35.5185 4.25813 35.5212 3.65814 35.5819 2.28828L35.6363 1.1284L35.5189 0.704327C35.3777 0.212137 35.3151 0.138588 34.9881 0.0866789C34.8799 0.0719883 34.7391 0.0457067 34.6715 0.0276396C34.4809 -0.0133457 33.4141 0.242627 31.0038 0.921274C29.8173 1.25315 28.7368 1.56298 28.6006 1.61038ZM20.807 5.92156C23.0471 5.34578 23.7348 5.16107 29.8441 3.48002C31.977 2.89338 33.7266 2.42082 33.7354 2.4225C33.7453 2.42793 33.7257 2.6208 33.6968 2.8538C33.6058 3.59568 33.4747 5.0397 33.4027 6.13815C33.2716 8.08986 33.2361 8.41625 32.8962 10.8731C32.7664 11.8134 32.6033 13.146 32.5337 13.8317C32.4678 14.5163 32.3687 15.3895 32.3157 15.7709C32.1973 16.6496 31.9148 18.291 31.807 18.7131C31.7008 19.1264 31.4798 19.5601 31.2789 19.7592L31.123 19.9121L28.5331 20.6755C26.5215 21.2648 25.6515 21.5392 24.6387 21.8963C23.9214 22.1519 22.6509 22.5827 21.815 22.8599C20.2022 23.3889 18.767 23.8837 17.4439 24.363C16.5964 24.6725 15.5385 24.9884 14.9123 25.1263L14.5354 25.2053L14.1694 24.4946C13.6046 23.3957 13.571 23.3222 13.2554 22.5263C12.9393 21.7431 12.2043 19.6735 11.8385 18.5426C11.2196 16.6311 10.8791 15.6759 10.0121 13.407C9.74112 12.6941 9.42384 11.8488 9.30706 11.5286C8.88563 10.3636 8.65934 9.87923 8.41024 9.63444L8.27054 9.49551L10.2189 8.9327C11.2906 8.62127 12.9933 8.11631 14.0051 7.8137C16.4033 7.0928 18.2149 6.58995 20.807 5.92156Z" fill="white"/>
<path d="M33.1003 24.4134C32.8136 24.5455 32.3463 24.8168 31.9504 25.0759C31.7198 25.2295 31.4344 25.5693 31.3264 25.8166C30.8473 26.932 31.0287 28.2906 31.7741 29.1629L31.9248 29.3402L31.8281 29.4096C31.5267 29.6208 31.747 30.1569 32.3981 30.8024C32.798 31.1954 32.947 31.2941 33.3927 31.4701C34.0479 31.7233 34.6254 31.7783 35.1984 31.6431C36.3816 31.3579 37.151 30.355 37.4477 28.7053C37.6384 27.6436 37.6289 26.8557 37.4173 26.1174C37.1609 25.238 36.7467 24.7368 35.9728 24.3887C35.6473 24.2406 34.6527 24.0514 34.2922 24.0716C33.9764 24.0873 33.5341 24.2141 33.1003 24.4134ZM34.9872 26.7851C35.1124 26.7867 35.313 26.8041 35.4322 26.8282L35.6482 26.8702L35.72 27.2075C35.912 28.1095 35.6218 29.129 34.9774 29.8131C34.7836 30.0227 34.7617 30.0331 34.5177 30.0822C33.8893 30.2125 33.5277 30.0832 33.0371 29.5623C32.8346 29.3498 32.6917 29.2285 32.6263 29.2181C32.518 29.2034 32.4933 29.1315 32.4962 28.8227C32.5009 28.4759 33.4063 27.3383 33.9116 27.0395C34.1362 26.9084 34.6734 26.7794 34.9872 26.7851Z" fill="white"/>
<path d="M17.2445 29.5592C17.1654 29.6027 17.0204 29.6775 16.9183 29.7276C15.6749 30.3546 15.271 30.8324 15.1121 31.86C14.9684 32.7667 15.1664 33.4715 15.7197 34.066C15.9122 34.273 16.2432 34.4985 16.3805 34.5132C16.4058 34.5142 16.5521 34.6471 16.7099 34.8057C17.2032 35.2926 17.8914 35.5738 18.6628 35.594C19.5997 35.625 20.4115 35.3797 20.8605 34.943C21.2849 34.5217 21.5405 33.5121 21.5032 32.3952C21.4868 31.9171 21.2261 31.0223 20.9944 30.6352C20.6878 30.1322 20.2204 29.7211 19.7164 29.5161C19.4526 29.4087 18.6777 29.2605 18.3766 29.2554C18.1475 29.2544 17.502 29.427 17.2445 29.5592ZM18.9869 31.9932C19.3709 32.012 19.3858 32.0203 19.4894 32.3817C19.6614 32.9815 19.5746 33.4475 19.2107 33.8764C19.0252 34.1002 18.133 34.2104 17.7009 34.068C17.4525 33.9853 17.187 33.7992 17.0236 33.5923C16.9708 33.5242 16.8894 33.4726 16.8477 33.4721C16.8021 33.4727 16.7724 33.4562 16.7746 33.4348C16.7921 33.3798 17.6171 32.4983 17.7664 32.3806C18.064 32.1413 18.5836 31.9798 18.9869 31.9932Z" fill="white"/>
</svg>
