<svg width="48" height="48" viewBox="0 0 48 48" fill="none" xmlns="http://www.w3.org/2000/svg">
<g clip-path="url(#clip0_12473_4595)">
<path d="M6 43.952C5.46957 43.952 4.96086 43.7413 4.58579 43.3662C4.21071 42.9911 4 42.4824 4 41.952V0H0V41.952C0 43.5433 0.632141 45.0694 1.75736 46.1946C2.88258 47.3199 4.4087 47.952 6 47.952H48V43.952H6Z" fill="#19D7C4"/>
<path d="M14 24H10V38H14V24Z" fill="#19D7C4"/>
<path d="M24 20H20V38H24V20Z" fill="#19D7C4"/>
<path d="M34 26H30V38H34V26Z" fill="#19D7C4"/>
<path d="M44 18H40V38H44V18Z" fill="#19D7C4"/>
<path d="M21.9999 8.82794L31.9999 18.8279L47.4139 3.41394L44.5859 0.585938L31.9999 13.1719L21.9999 3.17194L10.5859 14.5859L13.4139 17.4139L21.9999 8.82794Z" fill="#19D7C4"/>
</g>
<defs>
<clipPath id="clip0_12473_4595">
<rect width="48" height="48" fill="white"/>
</clipPath>
</defs>
</svg>
