<svg width="32" height="32" viewBox="0 0 32 32" fill="none" xmlns="http://www.w3.org/2000/svg">
<path d="M29.3337 13.3334V24.0001C29.3337 26.9456 26.9458 29.3334 24.0003 29.3334H8.00032C5.05481 29.3334 2.66699 26.9456 2.66699 24.0001V8.00008C2.66699 5.05456 5.05481 2.66675 8.00033 2.66675H18.667M6.66699 16.0001H8.00033C9.47308 16.0001 10.667 14.8062 10.667 13.3334V12.0001C10.667 10.5273 11.8609 9.33341 13.3337 9.33341C14.8064 9.33341 16.0003 10.5273 16.0003 12.0001V20.0001C16.0003 21.4728 17.1942 22.6667 18.667 22.6667C20.1398 22.6667 21.3337 21.4728 21.3337 20.0001V18.6667C21.3337 17.194 22.5276 16.0001 24.0003 16.0001H25.3337M29.3337 6.00008C29.3337 7.84103 27.8413 9.33341 26.0003 9.33341C24.1594 9.33341 22.667 7.84103 22.667 6.00008C22.667 4.15913 24.1594 2.66675 26.0003 2.66675C27.8413 2.66675 29.3337 4.15913 29.3337 6.00008Z" stroke="#19D7C4" stroke-width="1.8" stroke-linecap="round"/>
</svg>
