<svg width="28" height="28" viewBox="0 0 28 28" fill="none" xmlns="http://www.w3.org/2000/svg">
<g clip-path="url(#clip0_12598_6945)">
<path d="M27.3105 16.4395C28.2275 17.3577 28.2275 18.8522 27.3105 19.7703L19.8672 26.8018C19.0692 27.5998 18.018 27.9977 16.9645 27.9977C15.9075 27.9977 14.8493 27.5963 14.042 26.7902C13.2627 26.0108 12.8333 24.9748 12.8333 23.8723C12.8333 22.7698 13.2627 21.7338 14.042 20.9545L20.5987 14.7432L21.4013 15.5902L14.8563 21.7898C14.308 22.3382 14.0012 23.0813 14.0012 23.8723C14.0012 24.6633 14.3092 25.4065 14.868 25.9653C16.0242 27.1215 17.9013 27.1192 19.0552 25.9653L26.4985 18.9338C26.95 18.4823 26.95 17.7275 26.4868 17.2643C26.0377 16.8152 25.2537 16.8163 24.8057 17.2643L17.3623 24.2958L16.5597 23.4477L23.9913 16.4267C24.8558 15.5598 26.4192 15.547 27.3117 16.4383L27.3105 16.4395ZM28 2.91667V14.0828C27.636 13.8752 27.2452 13.7165 26.8333 13.6103V3.3635L17.7345 12.4623C16.7417 13.4552 15.4245 14 14.0222 14C14.0012 14 13.9872 14 13.9708 14C12.5755 14 11.2572 13.4552 10.2643 12.4623L1.16667 3.3635V21H11.2023C11.0157 21.3745 10.8663 21.763 10.7567 22.1667H0V2.91667C0 1.309 1.30783 0 2.91667 0H25.0833C26.6922 0 28 1.309 28 2.91667ZM26.5603 1.98683C26.25 1.49567 25.7063 1.16667 25.0833 1.16667H2.91667C2.29367 1.16667 1.75 1.49567 1.43967 1.98683L11.0903 11.6375C11.8673 12.4133 12.8753 12.8613 13.9977 12.8333H14.0175C15.113 12.8333 16.1373 12.4087 16.9097 11.6375L26.5603 1.98683Z" fill="#19D7C4"/>
</g>
<defs>
<clipPath id="clip0_12598_6945">
<rect width="28" height="28" fill="white"/>
</clipPath>
</defs>
</svg>
