<svg width="24" height="24" viewBox="0 0 24 24" fill="none" xmlns="http://www.w3.org/2000/svg">
<g clip-path="url(#clip0_12435_3892)">
<path d="M23.409 14.091C24.195 14.878 24.195 16.159 23.409 16.946L17.029 22.973C16.345 23.657 15.444 23.998 14.541 23.998C13.635 23.998 12.728 23.654 12.036 22.963C11.368 22.295 11 21.407 11 20.462C11 19.517 11.368 18.629 12.036 17.961L17.656 12.637L18.344 13.363L12.734 18.677C12.264 19.147 12.001 19.784 12.001 20.462C12.001 21.14 12.265 21.777 12.744 22.256C13.735 23.247 15.344 23.245 16.333 22.256L22.713 16.229C23.1 15.842 23.1 15.195 22.703 14.798C22.318 14.413 21.646 14.414 21.262 14.798L14.882 20.825L14.194 20.098L20.564 14.08C21.305 13.337 22.645 13.326 23.41 14.09L23.409 14.091ZM24 2.5V12.071C23.688 11.893 23.353 11.757 23 11.666V2.883L15.201 10.682C14.35 11.533 13.221 12 12.019 12C12.001 12 11.989 12 11.975 12C10.779 12 9.649 11.533 8.798 10.682L1 2.883V18H9.602C9.442 18.321 9.314 18.654 9.22 19H0V2.5C0 1.122 1.121 0 2.5 0H21.5C22.879 0 24 1.122 24 2.5ZM22.766 1.703C22.5 1.282 22.034 1 21.5 1H2.5C1.966 1 1.5 1.282 1.234 1.703L9.506 9.975C10.172 10.64 11.036 11.024 11.998 11H12.015C12.954 11 13.832 10.636 14.494 9.975L22.766 1.703Z" fill="#012522"/>
</g>
<defs>
<clipPath id="clip0_12435_3892">
<rect width="24" height="24" fill="white"/>
</clipPath>
</defs>
</svg>
