<svg width="44" height="40" viewBox="0 0 44 40" fill="none" xmlns="http://www.w3.org/2000/svg">
<path d="M26.7735 0.996551C26.6444 0.967859 26.2395 0.885059 25.8692 0.812169C22.3156 0.130227 19.1314 0.220046 15.2114 1.10585C12.3537 1.75535 10.3758 2.76115 7.8717 4.84769C6.30783 6.15117 4.96098 7.49598 4.09397 8.63304C3.36229 9.58843 2.90001 10.3879 1.95312 12.326C0.948969 14.3767 0.729218 14.9254 0.398912 16.1789C0.125964 17.2033 0.0413536 17.7742 0.0079611 18.8049C-0.0345341 20.1575 0.0886066 21.2373 0.485918 22.8992C0.803868 24.2429 1.10322 24.9113 1.8621 25.9653C2.78231 27.2403 3.72753 28.2396 5.07307 29.3661C5.85544 30.0191 6.17766 30.332 6.17207 30.4386C6.16529 30.6072 6.03978 31.4368 5.915 32.1043C5.83599 32.5393 5.65617 33.2534 5.37994 34.2603C4.83749 36.2103 4.81917 36.3466 5.03751 37.283C5.09824 37.5501 5.17212 37.8584 5.19681 37.9611C5.22192 38.0766 5.3097 38.2349 5.41784 38.3658C5.51767 38.4818 5.61209 38.617 5.63183 38.6643C5.83084 39.1167 7.07841 39.3371 8.22147 39.1239C8.86328 39.0042 9.34148 38.8168 11.184 37.9636C13.5691 36.8582 15.5081 36.3073 16.8899 36.3498C17.3553 36.3667 18.6034 36.5416 19.9861 36.784C22.0973 37.1564 22.7719 37.2417 24.0653 37.288C26.8207 37.3873 29.7435 37.0477 31.5951 36.4095C33.0164 35.9223 34.8394 34.9345 35.9797 34.034C36.5444 33.5883 37.0675 33.085 37.7979 32.2791C39.6118 30.2776 41.1818 27.7484 41.9817 25.5392C42.2682 24.7434 42.695 23.1389 42.8309 22.3456C43.2707 19.7669 43.1678 17.0493 42.5371 14.6339C41.8529 11.9993 40.6488 9.40694 39.3854 7.86286C38.6039 6.90224 36.8406 5.30223 35.889 4.68815C35.2147 4.25345 34.3877 3.85817 33.807 3.69167C33.4649 3.59355 33.367 3.61543 33.4009 3.78744C33.4212 3.87648 33.4162 3.8792 33.3613 3.8385C33.0132 3.57224 31.6805 2.80725 30.9671 2.46537C29.716 1.86528 28.1276 1.30993 26.7735 0.996551ZM30.1934 3.65416C31.5567 4.15327 32.8879 4.79298 34.0735 5.51993L34.5935 5.83965L35.0026 6.64772C35.2279 7.09517 35.6716 8.00052 35.9809 8.66344C36.2912 9.32255 36.7129 10.1883 36.9158 10.5836C37.705 12.1123 38.2465 13.5326 38.7289 15.3187C39.208 17.0873 39.4174 19.7814 39.2461 22.0043C39.1298 23.5564 38.6908 25.2323 38.0307 26.6783C37.2565 28.3622 36.0292 30.0451 34.7572 31.1575C33.3962 32.3486 31.41 33.4269 29.7464 33.8736C28.7138 34.1518 26.9663 34.3831 25.2773 34.4688C23.6262 34.553 23.2564 34.5218 20.5739 34.0813C16.4521 33.4071 15.119 33.4993 11.6283 34.7163C11.093 34.8998 10.1201 35.2741 9.46822 35.545C8.8114 35.8185 8.12652 36.0882 7.93806 36.1506L7.59836 36.2613L7.67545 36.0795C8.32029 34.5708 9.05782 31.4907 9.09977 30.1254C9.12698 29.276 8.90627 28.522 8.49735 28.076C8.15376 27.707 7.25401 26.9122 6.29269 26.1288C5.26325 25.2927 4.95637 25.0133 4.48105 24.4651C3.64356 23.4967 3.15162 22.5276 2.82432 21.202C2.39797 19.4527 2.52509 17.5001 3.18341 15.6832C3.59162 14.5644 4.29752 12.9733 4.86557 11.892C5.48262 10.7124 6.21367 9.8318 8.05934 8.03909C9.68609 6.45824 10.8012 5.58784 12.2146 4.79469C13.2569 4.20723 14.1495 3.8224 15.4296 3.40712C17.4725 2.74041 19.1821 2.39424 21.1262 2.26094C23.8972 2.07346 27.2769 2.59316 30.1934 3.65416Z" fill="white"/>
</svg>
