<svg width="44" height="35" viewBox="0 0 44 35" fill="none" xmlns="http://www.w3.org/2000/svg">
<path d="M16.9655 0.66619C16.9183 0.704682 16.7722 0.775719 16.6371 0.826946C16.502 0.878172 16.3455 0.95633 16.284 1.0031C16.2274 1.0526 16.0418 1.15992 15.8787 1.24414C15.3543 1.51935 15.1221 1.76903 14.8315 2.38083C14.6061 2.85741 14.4582 3.32843 13.9605 5.20637C13.1755 8.15704 13.0774 8.52635 12.5066 10.8456C12.2017 12.0898 11.8607 13.4401 11.7573 13.8484C11.4212 15.1432 11.1771 16.1786 11.0519 16.8595L10.9279 17.5151L10.6474 17.35C10.4919 17.2572 10.0042 16.9644 9.56334 16.7038C8.48525 16.0642 7.89374 15.6845 6.5467 14.76C4.4162 13.2944 3.84667 12.9917 2.93556 12.8326C2.54871 12.7605 2.43991 12.7584 2.26414 12.813C1.99883 12.889 1.55232 13.0878 1.46668 13.1665C1.43484 13.2006 1.29977 13.281 1.16906 13.3475C0.637453 13.6123 0.483903 13.9185 0.431998 14.8114C0.342248 16.3269 0.841455 18.4016 2.24352 22.3189C2.91838 24.1935 4.21573 27.2087 5.1053 28.9468C5.54457 29.8112 6.29846 31.0182 6.68516 31.4815C6.79243 31.6089 6.8216 31.6671 6.7903 31.6886C6.76559 31.704 6.65795 31.764 6.55033 31.824C6.29112 31.9649 6.11326 32.1283 5.98216 32.3531C5.74902 32.7445 5.7871 32.9209 6.1842 33.3479C6.5428 33.7278 6.94138 33.9714 7.66031 34.2438C8.25832 34.4718 8.5221 34.521 8.94785 34.4822C9.78296 34.405 10.0301 34.3382 17.6137 32.1678C24.9654 30.0598 26.5639 29.6264 30.9468 28.5277C33.176 27.9718 37.1761 27.0619 40.0875 26.4476C41.9388 26.0541 42.4979 25.8272 42.9578 25.2834C43.207 24.9913 43.327 24.6698 43.4675 23.8972C43.6949 22.6876 43.6797 21.6767 43.3827 19.0737C43.0712 16.3042 42.868 15.1309 42.1259 11.8607C41.7026 9.99299 41.228 8.38138 40.174 5.27146C39.504 3.2831 39.2671 2.63118 39.0248 2.07648C38.5661 1.01372 38.1256 0.565792 37.6202 0.631681C37.5196 0.643831 37.4025 0.627459 37.3509 0.592337C37.214 0.506754 36.8414 0.455516 36.6799 0.501823C36.603 0.523861 36.4646 0.592656 36.3696 0.653209C36.2746 0.71369 36.1131 0.789172 36.0055 0.820037C35.9017 0.849806 35.6985 0.953804 35.5513 1.05014C35.408 1.1453 35.1598 1.29552 35.0044 1.37753C34.3487 1.73205 33.6095 2.65137 32.4745 4.54147C31.8804 5.53155 31.6719 5.84935 31.1583 6.55424C30.4241 7.56372 30.0087 8.16133 29.6724 8.68635C28.8204 10.0251 28.37 10.6744 28.3199 10.6596C28.2661 10.6459 27.9774 10.3501 27.264 9.58919C26.0771 8.32335 25.2384 7.47355 24.0054 6.27916C23.7122 5.99705 23.0034 5.30984 22.432 4.75378C21.8605 4.19771 21.1616 3.51601 20.8745 3.24045C20.5913 2.96377 20.0138 2.37207 19.5936 1.92245C18.5266 0.784471 18.3501 0.647829 17.9903 0.684437C17.9051 0.692213 17.7556 0.664325 17.6677 0.61881C17.4032 0.494902 17.1632 0.513797 16.9655 0.66619ZM18.5611 4.67779C18.8438 4.93793 19.4415 5.49891 19.8946 5.91827C21.5367 7.43643 22.3892 8.34882 25.3628 11.7531C25.5234 11.9359 25.8408 12.2735 26.0778 12.5052C26.311 12.7379 26.6024 13.0288 26.7262 13.1556C27.2481 13.6842 27.9772 14.1951 28.3602 14.2975C28.4504 14.3215 28.6136 14.3829 28.7214 14.4394C29.0413 14.5973 29.1775 14.6082 29.4477 14.5057C29.6175 14.4446 29.7465 14.3576 29.9205 14.1954C30.2499 13.8929 30.9645 13.0471 31.3491 12.5166C31.6965 12.03 31.7179 12.003 32.3356 10.9937C32.8919 10.0893 33.1733 9.69234 33.9482 8.70865C34.2906 8.27761 34.7543 7.67441 34.9788 7.36873C36.1454 5.77751 36.6963 5.08686 36.7656 5.12527C36.7854 5.13622 37.0709 6.04478 37.4016 7.14001C38.0515 9.30473 38.2864 10.2111 38.8465 12.7594C39.549 15.9494 39.7219 16.9151 40.1612 20.1015C40.3802 21.6782 40.4381 22.3441 40.3679 22.5639L40.3323 22.6865L38.5109 23.1838C37.5117 23.4578 36.4031 23.7424 36.0477 23.8235C35.1238 24.026 32.4942 24.6801 29.9493 25.3392C28.7447 25.6513 27.5235 25.964 27.2357 26.0341C26.9479 26.1041 25.9052 26.3573 24.9203 26.594C22.5154 27.1753 21.2229 27.5002 18.5346 28.1961C17.2877 28.5204 15.7375 28.9191 15.0849 29.0813C10.6426 30.2053 8.4334 30.8304 7.78538 31.1536C7.60032 31.2483 7.42126 31.3204 7.39103 31.3166C7.28005 31.3068 6.73056 30.1162 6.32676 29.0127C5.81003 27.5879 4.58527 23.4908 4.12085 21.61C3.97358 21.0238 3.70831 19.9681 3.5318 19.2655C3.35422 18.5591 3.15175 17.6934 3.08601 17.3335C2.96619 16.698 2.81896 15.575 2.8469 15.4838C2.86497 15.4162 3.08033 15.4127 3.38149 15.4761C3.86842 15.5779 4.76281 16.0996 7.16046 17.6841C8.31557 18.4473 9.17432 19.0332 9.97431 19.6028C10.8298 20.2063 11.7737 20.6972 12.1782 20.7435C12.5358 20.7866 12.946 20.4609 13.2196 19.9205C13.3096 19.7408 13.4641 19.322 13.5655 18.9933C13.6657 18.6608 14.0897 17.3533 14.5122 16.0837C15.2934 13.7291 15.6144 12.7008 16.306 10.3095C16.8258 8.50851 16.9839 7.91387 17.2302 6.82795C17.7368 4.61867 17.8831 4.09823 17.9941 4.16626C18.0249 4.18653 18.2812 4.41265 18.5611 4.67779Z" fill="white"/>
</svg>
