<svg width="48" height="48" viewBox="0 0 48 48" fill="none" xmlns="http://www.w3.org/2000/svg">
<path d="M22 9H36.6C38.8402 9 39.9603 9 40.816 9.43597C41.5686 9.81947 42.1805 10.4314 42.564 11.184C43 12.0397 43 13.1598 43 15.4V18C43 19.8638 43 20.7957 42.6955 21.5307C42.2895 22.5108 41.5108 23.2895 40.5307 23.6955C39.7956 24 38.8638 24 37 24M26 39H11.4C9.15979 39 8.03969 39 7.18404 38.564C6.43139 38.1805 5.81947 37.5686 5.43597 36.816C5 35.9603 5 34.8402 5 32.6V30C5 28.1362 5 27.2044 5.30448 26.4693C5.71046 25.4892 6.48915 24.7105 7.46927 24.3045C8.20435 24 9.13623 24 11 24M20.6 29H27.4C27.9601 29 28.2401 29 28.454 28.891C28.6422 28.7951 28.7951 28.6422 28.891 28.454C29 28.2401 29 27.9601 29 27.4V20.6C29 20.0399 29 19.7599 28.891 19.546C28.7951 19.3578 28.6422 19.2049 28.454 19.109C28.2401 19 27.9601 19 27.4 19H20.6C20.0399 19 19.7599 19 19.546 19.109C19.3578 19.2049 19.2049 19.3578 19.109 19.546C19 19.7599 19 20.0399 19 20.6V27.4C19 27.9601 19 28.2401 19.109 28.454C19.2049 28.6422 19.3578 28.7951 19.546 28.891C19.7599 29 20.0399 29 20.6 29ZM35.6 44H42.4C42.9601 44 43.2401 44 43.454 43.891C43.6422 43.7951 43.7951 43.6422 43.891 43.454C44 43.2401 44 42.9601 44 42.4V35.6C44 35.0399 44 34.7599 43.891 34.546C43.7951 34.3578 43.6422 34.2049 43.454 34.109C43.2401 34 42.9601 34 42.4 34H35.6C35.0399 34 34.7599 34 34.546 34.109C34.3578 34.2049 34.2049 34.3578 34.109 34.546C34 34.7599 34 35.0399 34 35.6V42.4C34 42.9601 34 43.2401 34.109 43.454C34.2049 43.6422 34.3578 43.7951 34.546 43.891C34.7599 44 35.0399 44 35.6 44ZM5.6 14H12.4C12.9601 14 13.2401 14 13.454 13.891C13.6422 13.7951 13.7951 13.6422 13.891 13.454C14 13.2401 14 12.9601 14 12.4V5.6C14 5.03995 14 4.75992 13.891 4.54601C13.7951 4.35785 13.6422 4.20487 13.454 4.10899C13.2401 4 12.9601 4 12.4 4H5.6C5.03995 4 4.75992 4 4.54601 4.10899C4.35785 4.20487 4.20487 4.35785 4.10899 4.54601C4 4.75992 4 5.03995 4 5.6V12.4C4 12.9601 4 13.2401 4.10899 13.454C4.20487 13.6422 4.35785 13.7951 4.54601 13.891C4.75992 14 5.03995 14 5.6 14Z" stroke="#19D7C4" stroke-width="3" stroke-linecap="round" stroke-linejoin="round"/>
</svg>
