<svg width="48" height="48" viewBox="0 0 48 48" fill="none" xmlns="http://www.w3.org/2000/svg">
<g clip-path="url(#clip0_12473_4589)">
<path d="M16.5856 8.242C15.8036 7.46 15.8036 6.196 16.5856 5.414C17.3676 4.632 18.6316 4.632 19.4136 5.414L21.9996 8V2C21.9996 0.896 22.8956 0 23.9996 0C25.1036 0 25.9996 0.896 25.9996 2V8L28.5856 5.414C29.3676 4.632 30.6316 4.632 31.4136 5.414C32.1956 6.196 32.1956 7.46 31.4136 8.242L26.8276 12.828C26.0476 13.608 25.0236 13.998 23.9996 13.998C22.9756 13.998 21.9516 13.608 21.1716 12.828L16.5856 8.242ZM21.9996 22V24C18.6916 24 15.9996 26.692 15.9996 30C15.9996 32.72 17.9476 35.02 20.6296 35.466L26.7136 36.48C27.4596 36.604 28.0016 37.244 28.0016 38C28.0016 39.102 27.1056 40 26.0016 40H21.4656C20.7536 40 20.0896 39.616 19.7316 39C19.1776 38.044 17.9536 37.716 16.9996 38.27C16.0416 38.824 15.7156 40.046 16.2696 41.002C17.3396 42.852 19.3296 44 21.4656 44H22.0016V46C22.0016 47.104 22.8976 48 24.0016 48C25.1056 48 26.0016 47.104 26.0016 46V44C29.3096 44 32.0016 41.308 32.0016 38C32.0016 35.28 30.0536 32.98 27.3716 32.534L21.2896 31.52C20.5436 31.396 20.0016 30.756 20.0016 30C20.0016 28.898 20.8996 28 22.0016 28H26.5376C27.2496 28 27.9136 28.384 28.2716 29C28.8196 29.958 30.0436 30.282 31.0036 29.73C31.9596 29.176 32.2876 27.954 31.7316 26.998C30.6636 25.148 28.6716 23.998 26.5356 23.998H25.9996V21.998C25.9996 20.894 25.1036 19.998 23.9996 19.998C22.8956 19.998 21.9996 20.894 21.9996 21.998V22ZM45.9996 44H41.9996V20H42.5836C44.6296 20 46.4836 18.89 47.4176 17.104C48.2936 15.43 48.1796 13.51 47.1116 11.972C46.2156 10.682 45.0636 9.646 43.7756 8.976L38.4936 6.226C37.5096 5.712 36.3036 6.096 35.7956 7.076C35.2856 8.056 35.6656 9.264 36.6456 9.774L41.9276 12.526C42.6416 12.898 43.2996 13.496 43.8256 14.254C44.0396 14.564 44.0556 14.9 43.8716 15.252C43.6816 15.614 43.2456 16.002 42.5816 16.002H5.41562C4.75162 16.002 4.31362 15.614 4.12362 15.252C3.93962 14.902 3.95762 14.566 4.16962 14.256C4.69962 13.496 5.35562 12.898 6.06962 12.526L11.3516 9.776C12.3316 9.266 12.7116 8.058 12.2016 7.078C11.6936 6.098 10.4856 5.716 9.50362 6.228L4.22162 8.978C2.93562 9.648 1.78162 10.684 0.885618 11.974C-0.182382 13.512 -0.296382 15.43 0.579618 17.104C1.51362 18.892 3.36762 20 5.41562 20H5.99962V44H1.99962C0.895619 44 -0.000381532 44.896 -0.000381532 46C-0.000381532 47.104 0.895619 48 1.99962 48H13.9996C15.1036 48 15.9996 47.104 15.9996 46C15.9996 44.896 15.1036 44 13.9996 44H9.99962V20H37.9996V44H33.9996C32.8936 44 31.9996 44.896 31.9996 46C31.9996 47.104 32.8936 48 33.9996 48H45.9996C47.1056 48 47.9996 47.104 47.9996 46C47.9996 44.896 47.1056 44 45.9996 44Z" fill="#19D7C4"/>
</g>
<defs>
<clipPath id="clip0_12473_4589">
<rect width="48" height="48" fill="white"/>
</clipPath>
</defs>
</svg>
