<svg width="57" height="56" viewBox="0 0 57 56" fill="none" xmlns="http://www.w3.org/2000/svg">
<g clip-path="url(#clip0_12272_2690)">
<path d="M37.0271 21L28.3331 56L19.6391 21H37.0271ZM25.9368 0L19.9984 16.3333H36.6678L30.7294 0H25.9368ZM41.6331 16.3333H55.9621C55.7469 15.6676 55.4322 15.0383 55.0288 14.4667L46.7898 2.933C46.1424 2.02608 45.2878 1.28681 44.2972 0.776675C43.3065 0.266536 42.2084 0.000263986 41.0941 0L35.6948 0L41.6331 16.3333ZM41.8314 21L35.3798 47.3667L54.8374 22.8667C55.2749 22.3014 55.622 21.6717 55.8664 21H41.8314ZM14.8348 21H0.799768C1.04815 21.6718 1.39835 22.3013 1.8381 22.8667L21.2864 47.3667L14.8348 21ZM15.0331 16.3333L20.9714 0H15.5721C14.4578 0.000263986 13.3597 0.266536 12.369 0.776675C11.3784 1.28681 10.5238 2.02608 9.87644 2.933L1.63744 14.4667C1.23313 15.0378 0.918393 15.6672 0.704102 16.3333H15.0331Z" fill="#19D7C4"/>
</g>
<defs>
<clipPath id="clip0_12272_2690">
<rect width="56" height="56" fill="white" transform="translate(0.333008)"/>
</clipPath>
</defs>
</svg>
