<svg width="36" height="36" viewBox="0 0 36 36" fill="none" xmlns="http://www.w3.org/2000/svg">
<g clip-path="url(#clip0_12408_3790)">
<path d="M35.0389 14.7C35.6374 13.9328 35.9726 12.9931 35.9948 12.0204C36.0169 11.0476 35.7249 10.0936 35.1619 9.3L29.8654 1.8855C29.4493 1.30248 28.8999 0.827237 28.2631 0.499291C27.6262 0.171344 26.9203 0.000169705 26.2039 0L9.79694 0C9.08062 0.000169705 8.37468 0.171344 7.73783 0.499291C7.10098 0.827237 6.55163 1.30248 6.13544 1.8855L0.838941 9.3C0.277105 10.0943 -0.0138907 11.0485 0.00907448 12.0211C0.0320397 12.9937 0.367744 13.9331 0.966441 14.7L18.0004 36.162L35.0389 14.7ZM10.8799 13.5L15.0799 27.648L3.84344 13.5H10.8799ZM32.1574 13.5L20.9284 27.648L25.1209 13.5H32.1574ZM21.9919 13.5L18.0004 26.9685L14.0089 13.5H21.9919ZM13.9894 10.5L16.1314 3H19.8694L22.0114 10.5H13.9894ZM27.4249 3.6285L32.3329 10.5H25.1329L22.9894 3H26.2039C26.4428 2.99998 26.6782 3.057 26.8906 3.16632C27.103 3.27564 27.2862 3.43409 27.4249 3.6285ZM8.57594 3.6285C8.71472 3.43409 8.89792 3.27564 9.11029 3.16632C9.32267 3.057 9.55808 2.99998 9.79694 3H13.0114L10.8694 10.5H3.66944L8.57594 3.6285Z" fill="#012522"/>
</g>
<defs>
<clipPath id="clip0_12408_3790">
<rect width="36" height="36" fill="white"/>
</clipPath>
</defs>
</svg>
