<svg width="28" height="28" viewBox="0 0 28 28" fill="none" xmlns="http://www.w3.org/2000/svg">
<path d="M17.1588 0H5.25065C3.64182 0 2.33398 1.309 2.33398 2.91667V28H25.6673V8.5085L17.1588 0ZM17.5007 1.9915L23.6758 8.16667H17.5007V1.9915ZM3.50065 26.8333V2.91667C3.50065 1.95183 4.28582 1.16667 5.25065 1.16667H16.334V9.33333H24.5007V26.8333H3.50065ZM7.00065 11.6667H21.0007V12.8333H7.00065V11.6667ZM7.00065 16.3333H21.0007V17.5H7.00065V16.3333ZM19.9331 20.6745L20.9027 21.3243C20.8478 21.406 19.533 23.3345 16.9173 23.3345C15.4543 23.3345 14.5362 22.8305 13.7265 22.386C12.9437 21.9567 12.267 21.5845 11.1143 21.5845H11.0886C9.21032 21.5938 8.06348 23.086 8.05182 23.1L7.11615 22.4035C7.17565 22.323 8.60715 20.4307 11.0805 20.4178H11.112C12.5645 20.4178 13.4792 20.9195 14.2877 21.3628C15.074 21.7945 15.7542 22.1678 16.9173 22.1678C18.8925 22.1678 19.8923 20.7352 19.9331 20.6745Z" fill="#19D7C4"/>
</svg>
