<svg width="30" height="30" viewBox="0 0 30 30" fill="none" xmlns="http://www.w3.org/2000/svg">
<path d="M28.75 14.75C28.75 22.482 22.482 28.75 14.75 28.75M28.75 14.75C28.75 7.01801 22.482 0.75 14.75 0.75M28.75 14.75C28.75 12.4304 22.482 10.55 14.75 10.55C7.01801 10.55 0.75 12.4304 0.75 14.75M28.75 14.75C28.75 17.0696 22.482 18.95 14.75 18.95C7.01801 18.95 0.75 17.0696 0.75 14.75M14.75 28.75C7.01801 28.75 0.75 22.482 0.75 14.75M14.75 28.75C17.8428 28.75 20.35 22.482 20.35 14.75C20.35 7.01801 17.8428 0.75 14.75 0.75M14.75 28.75C11.6572 28.75 9.15 22.482 9.15 14.75C9.15 7.01801 11.6572 0.75 14.75 0.75M0.75 14.75C0.75 7.01801 7.01801 0.75 14.75 0.75" stroke="#19D7C4" stroke-width="1.5"/>
</svg>
