<svg width="40" height="42" viewBox="0 0 40 42" fill="none" xmlns="http://www.w3.org/2000/svg">
<path d="M27.1793 1.15529C27.1645 1.16352 27.0387 1.15242 26.8986 1.13304C26.7584 1.11368 26.4563 1.09362 26.2305 1.08295C25.9211 1.07332 25.7964 1.0875 25.7139 1.1429C25.6155 1.21039 25.5787 1.20816 25.1415 1.10775C22.068 0.405369 18.762 0.397821 15.8872 1.09233C14.2555 1.48582 12.7677 2.07452 11.1674 2.96803C8.31424 4.55924 6.04359 6.65867 4.15192 9.45358C1.52189 13.3433 0.340472 18.0729 0.797964 22.9062C0.911072 24.137 1.37807 26.4556 1.78393 27.8411C2.36115 29.8043 3.32683 31.8206 4.49334 33.4991C4.97892 34.2001 5.84043 35.3169 6.22737 35.7524C8.20331 37.9751 10.3782 39.4893 12.9772 40.4675C13.6835 40.7325 15.2458 41.1472 15.9786 41.2616C19.433 41.8111 22.8213 41.372 26.094 39.9427C27.1505 39.48 28.6189 38.6402 29.6585 37.9022C31.6076 36.5178 33.5562 34.5839 35.0609 32.5437C37.4117 29.352 38.8577 25.9924 39.486 22.2486C40.4756 16.3738 38.6245 10.1172 34.7119 6.11571C32.9263 4.28876 31.3543 3.19716 28.6 1.87476C27.9229 1.5516 27.7581 1.45858 27.7115 1.37448C27.6649 1.29037 27.6078 1.25735 27.4309 1.20662C27.3079 1.17135 27.1941 1.14707 27.1793 1.15529ZM25.6922 3.13406C25.701 3.19066 25.747 3.29125 25.7954 3.35505C25.8398 3.41773 25.9539 3.57111 26.0428 3.69647C26.27 4.00714 26.3826 4.06438 26.6854 4.00973C26.9179 3.9682 26.9458 3.97206 27.3111 4.10592C28.4541 4.51689 29.6254 5.20646 30.8459 6.18895L31.272 6.53165L31.1855 6.76068C31.0593 7.09903 30.7448 7.41246 30.2439 7.69327C29.7607 7.97088 29.3881 8.10948 28.3405 8.425C27.1352 8.78262 26.6471 8.97558 25.9308 9.3694C24.5268 10.1444 23.5758 11.2407 23.1261 12.6056C22.7663 13.7009 22.7631 14.6987 23.1145 16.2309C23.2906 16.9805 23.5214 17.6125 23.7748 18.0347C24.008 18.4262 24.5095 19.086 24.7944 19.3841C25.3219 19.9389 26.123 20.4974 27.14 21.0138C27.4558 21.175 27.9243 21.4134 28.178 21.5444C28.4355 21.6765 28.7793 21.8708 28.9435 21.9803L29.2417 22.174L29.1707 22.3492C29.1316 22.442 28.8861 22.8335 28.6275 23.213C27.9106 24.2765 27.7663 24.6055 27.714 25.2812C27.6807 25.717 27.7215 26.1115 27.8692 26.7281C28.1171 27.7937 28.1648 27.9322 28.6112 28.8425C28.9813 29.5978 29.2017 30.1645 29.2579 30.5052C29.283 30.6497 29.3041 30.997 29.3061 31.2805C29.3126 31.9398 29.3532 32.5382 29.4985 33.9905L29.5192 34.2087L28.9848 34.5922C27.3408 35.7687 25.485 36.668 23.4719 37.26C21.296 37.8969 19.059 38.1377 17.4389 37.9103C15.8265 37.6852 13.9233 37.052 12.328 36.2159C11.0358 35.5416 9.62027 34.5573 8.81331 33.7725C6.78497 31.8052 5.2584 29.162 4.47387 26.2531L4.37038 25.8739L4.77488 25.7402C5.31897 25.555 5.95942 25.1935 6.37459 24.834C6.83649 24.4422 7.63681 23.5523 8.04943 22.984C8.77731 21.9693 9.14617 21.2054 9.39933 20.1919C9.61441 19.3256 9.66451 18.6867 9.6645 16.9307C9.66378 15.9901 9.68024 15.3956 9.7184 15.1319C9.74224 14.9472 9.74937 14.9368 10.0403 14.7206C10.7484 14.1955 11.6405 13.8854 13.6733 13.4571C15.7363 13.025 16.2744 12.7881 17.0175 11.9817C17.6951 11.2439 18.0732 10.6074 18.2981 9.82306C18.6333 8.65419 18.5233 7.64478 17.8939 6.12436C17.5343 5.25976 16.7098 3.88319 16.2987 3.47401C16.2284 3.39976 16.1938 3.41896 16.745 3.25245C19.2886 2.47961 22.0046 2.30968 24.508 2.76536C24.809 2.81838 25.1925 2.90337 25.3666 2.94914C25.6599 3.02909 25.6781 3.03845 25.6922 3.13406ZM32.6662 7.8802C33.6339 8.90252 34.3566 9.8796 35.0132 11.0582C35.6248 12.1616 36.0332 13.1026 36.4189 14.3117C36.6873 15.146 36.8005 15.6653 36.9035 16.5105C37.4351 20.8824 36.437 25.2775 34.03 29.173C33.5254 29.9895 32.8784 30.8817 32.3223 31.5295L32.1089 31.7804L32.137 31.5804C32.1835 31.2442 32.1326 30.5223 32.0298 30.0101C31.8209 28.9973 31.5681 28.3838 30.9269 27.3261C30.3514 26.3871 30.1896 26.066 30.1355 25.7468C30.065 25.3687 30.1267 25.1825 30.4777 24.6548C31.1727 23.6099 31.5019 22.9262 31.6224 22.2449C31.7251 21.6835 31.6513 21.2587 31.3721 20.7667C31.2312 20.5182 31.1142 20.389 30.7036 20.0215C30.0954 19.4726 29.9328 19.3719 28.6681 18.7471C26.5317 17.6935 25.9168 17.2258 25.3924 16.2682C24.8324 15.2463 24.6701 13.8098 25.0061 12.8701C25.2215 12.2785 25.3981 12.0254 25.9029 11.6001C26.5484 11.0611 27.1867 10.7365 28.8152 10.1216C30.263 9.57129 30.8771 9.21478 31.4639 8.57576C31.8039 8.20299 31.9486 8.00316 32.194 7.55339C32.2562 7.43806 32.2249 7.4166 32.6662 7.8802ZM14.8401 4.36658C15.3149 4.96039 15.9955 6.31652 16.374 7.41962C16.6562 8.24956 16.6075 9.13028 16.2394 9.76124C16.027 10.1248 15.8312 10.3141 15.4612 10.516C15.0269 10.7535 14.7263 10.8296 13.1596 11.1127C11.6193 11.3908 10.9488 11.5523 10.3469 11.7792C8.83319 12.3564 7.75087 13.4317 7.48983 14.6177C7.38551 15.1121 7.35661 15.445 7.30692 16.8663C7.23691 18.8228 7.15726 19.42 6.86652 20.0857C6.53168 20.8469 5.87114 21.5979 5.10195 22.0889C4.85676 22.2474 4.17575 22.5473 3.97128 22.5927L3.85202 22.6168L3.82418 21.8432C3.77063 20.4338 3.87543 18.8493 4.10866 17.4265C4.23129 16.6794 4.7171 14.8545 4.98647 14.1328C6.24023 10.7764 8.03374 8.35286 10.8231 6.24401C11.7638 5.53178 12.9871 4.79225 14.0518 4.28611C14.3311 4.15398 14.5646 4.0504 14.5723 4.05261C14.5839 4.05592 14.7013 4.19772 14.8401 4.36658Z" fill="white"/>
</svg>
