<svg width="48" height="48" viewBox="0 0 48 48" fill="none" xmlns="http://www.w3.org/2000/svg">
<path d="M22 7.99997H13.6C10.2397 7.99997 8.55953 7.99997 7.27606 8.65393C6.14708 9.22917 5.2292 10.1471 4.65396 11.276C4 12.5595 4 14.2397 4 17.6V34.4C4 37.7603 4 39.4404 4.65396 40.7239C5.2292 41.8529 6.14708 42.7708 7.27606 43.346C8.55953 44 10.2397 44 13.6 44H30.4C33.7603 44 35.4405 44 36.7239 43.346C37.8529 42.7708 38.7708 41.8529 39.346 40.7239C40 39.4404 40 37.7603 40 34.4V26M15.9999 32H19.349C20.3274 32 20.8166 32 21.2769 31.8894C21.6851 31.7915 22.0753 31.6298 22.4331 31.4105C22.8368 31.1632 23.1827 30.8173 23.8745 30.1255L43 11C44.6569 9.34311 44.6569 6.65682 43 4.99997C41.3431 3.34311 38.6569 3.34311 37 4.99996L17.8745 24.1255C17.1827 24.8173 16.8368 25.1632 16.5894 25.5668C16.3701 25.9247 16.2085 26.3149 16.1105 26.723C15.9999 27.1834 15.9999 27.6726 15.9999 28.6509V32Z" stroke="#19D7C4" stroke-width="3" stroke-linecap="round" stroke-linejoin="round"/>
</svg>
