<svg width="56" height="56" viewBox="0 0 56 56" fill="none" xmlns="http://www.w3.org/2000/svg">
<path d="M38.2249 9.49001C35.4283 7.11986 32.5477 4.66111 29.6323 1.75501L27.9705 0.10498L26.3392 1.75731C21.0908 7.01967 18.6112 15.0996 17.5345 19.9471C16.7104 18.6697 16.0989 17.2672 15.7237 15.7942L14.7379 11.9885L11.8714 14.6826C6.8489 19.3971 3.49995 24.0745 3.49995 31.5647C3.40348 42.681 10.8814 52.4377 21.6408 55.2336C23.2163 55.6168 24.8246 55.8509 26.444 55.9327C26.976 55.9712 28.4995 56.0096 28.7605 55.9933C41.9605 55.5963 52.452 44.7753 52.441 31.5693C52.441 21.5622 45.8527 15.9688 38.2249 9.49001ZM28.4219 51.3021C28.1779 51.3232 27.9561 51.3254 27.7092 51.3231C23.3513 51.1899 19.8845 47.6242 19.8739 43.2642C19.8739 40.3109 21.4578 38.8388 25.0423 35.7877C25.946 35.0191 26.9289 34.183 27.9631 33.2256C28.8691 34.0478 29.7495 34.7932 30.5624 35.4848C34.1632 38.5407 36.0428 40.2759 36.0428 43.2572C36.0347 47.5342 32.6922 51.0627 28.4219 51.3021ZM40.1142 47.1771L40.0676 47.2097C40.4856 45.9362 40.6995 44.6045 40.7011 43.2641C40.7011 37.9887 37.2399 35.0492 33.5786 31.9398C32.2813 30.8405 30.942 29.7038 29.6051 28.3668L27.9561 26.7201L26.3093 28.3668C24.8001 29.8738 23.3234 31.1315 22.0214 32.2402C18.3693 35.3474 15.2132 38.0328 15.2132 43.2641C15.2182 44.6621 15.4543 46.0496 15.912 47.3704C10.9974 43.5965 8.12891 37.7426 8.15834 31.5461C8.12006 27.459 9.70195 23.5229 12.5581 20.5991C13.05 21.5972 13.6332 22.5476 14.3003 23.4384C15.2959 24.7819 16.9949 25.4053 18.6232 25.0245C20.2786 24.6559 21.5656 23.3535 21.9143 21.6939C22.8896 16.3406 24.9989 11.2581 28.1006 6.78725C30.5578 9.11639 32.9918 11.1777 35.1882 13.0434C42.4831 19.2389 47.7656 23.7155 47.7656 31.5601C47.7772 37.6717 44.9494 43.4419 40.112 47.1771H40.1142Z" fill="#19D7C4"/>
</svg>
