<svg width="36" height="36" viewBox="0 0 36 36" fill="none" xmlns="http://www.w3.org/2000/svg">
<g clip-path="url(#clip0_12409_3792)">
<path d="M33.945 17.406L27.75 15.351L21.5565 17.4045C20.3265 17.811 19.5 18.954 19.5 20.2485V26.115C19.794 32.1495 25.23 34.6845 27.684 35.976C30.2445 34.884 35.6955 32.859 36 26.115V20.2485C36 18.954 35.1735 17.811 33.945 17.4045V17.406ZM33 26.1165C33 29.991 29.364 32.004 27.8175 32.685C26.4435 31.9485 22.5 29.5365 22.5 26.1165V20.2545L27.75 18.513L33 20.25V26.1165ZM18.0015 32.382C16.782 31.092 14.697 28.6305 13.1595 25.5H16.5V22.5H11.955C11.5185 21.072 11.25 19.56 11.25 18C11.25 16.44 11.52 14.9295 11.958 13.5H32.2935C32.3175 13.575 32.3475 13.6485 32.37 13.7235L34.8885 14.559C35.1765 14.6535 35.4495 14.7735 35.7135 14.9055C34.242 6.453 26.868 0 18 0C8.0745 0 0 8.0745 0 18C0 25.9155 5.0715 32.82 12.621 35.1825C14.3565 35.7255 16.167 36 18 36C19.2075 36 20.385 35.8755 21.5265 35.649C19.5765 33.933 19.437 33.843 18.0015 32.382ZM18.0015 3.6195C19.2225 4.911 21.309 7.3695 22.845 10.5H13.1655C14.703 7.3755 16.7835 4.9125 18.0015 3.6195ZM30.9735 10.5H26.1345C24.948 7.6755 23.3085 5.274 21.8955 3.522C25.7595 4.5645 29.01 7.113 30.9735 10.5ZM14.0835 3.537C12.6735 5.2875 11.0475 7.6875 9.867 10.5H5.0295C6.9915 7.1205 10.2285 4.5825 14.0835 3.537ZM3.6915 13.5H8.8545C8.4855 14.934 8.25 16.437 8.25 18C8.25 19.563 8.4855 21.066 8.8545 22.5H3.6885C3.2445 21.072 3 19.5615 3 18C3 16.4385 3.243 14.922 3.6915 13.5ZM5.0025 25.5H9.867C11.0445 28.305 12.6645 30.702 14.073 32.451C13.8885 32.4015 13.698 32.376 13.5165 32.3175C9.813 31.1595 6.834 28.683 5.0025 25.5Z" fill="#012522"/>
</g>
<defs>
<clipPath id="clip0_12409_3792">
<rect width="36" height="36" fill="white"/>
</clipPath>
</defs>
</svg>
