<svg width="24" height="24" viewBox="0 0 24 24" fill="none" xmlns="http://www.w3.org/2000/svg">
<path d="M15.4941 6.74951C16.8134 7.47999 17.8445 8.70023 18.3164 10.2104L19.5664 14.2104C20.7736 18.074 17.8866 21.9995 13.8389 21.9995H10.1611C6.11345 21.9994 3.22731 18.0739 4.43457 14.2104L5.68457 10.2104C6.15652 8.70023 7.18756 7.47999 8.50684 6.74951H15.4941ZM12 8.74951C11.586 8.74962 11.2502 9.08557 11.25 9.49951V10.3462C10.1442 10.6338 9.25022 11.5425 9.25 12.7495C9.25 14.2211 10.5785 15.2494 12 15.2495C12.7873 15.2495 13.2497 15.7883 13.25 16.2495C13.25 16.7109 12.7876 17.2495 12 17.2495C11.2126 17.2494 10.75 16.7108 10.75 16.2495C10.7498 15.8355 10.4141 15.4995 10 15.4995C9.58603 15.4996 9.25024 15.8356 9.25 16.2495C9.25 17.4565 10.1443 18.364 11.25 18.6519V19.4995C11.25 19.9137 11.5859 20.2494 12 20.2495C12.4142 20.2495 12.75 19.9137 12.75 19.4995V18.6519C13.8559 18.3641 14.75 17.4566 14.75 16.2495C14.7497 14.7781 13.4214 13.7495 12 13.7495C11.2126 13.7494 10.75 13.2108 10.75 12.7495C10.7503 12.2883 11.2128 11.7496 12 11.7495C12.7873 11.7495 13.2497 12.2883 13.25 12.7495C13.25 13.1637 13.5859 13.4994 14 13.4995C14.4142 13.4995 14.75 13.1637 14.75 12.7495C14.7498 11.5425 13.8558 10.6338 12.75 10.3462V9.49951C12.7498 9.0855 12.4141 8.74951 12 8.74951ZM13.2529 2.10986C15.1982 1.48235 16.7644 3.67936 15.6025 5.24951H8.39844C7.23629 3.67939 8.80183 1.48252 10.7471 2.10986L11.6748 2.40869C11.886 2.47683 12.114 2.47682 12.3252 2.40869L13.2529 2.10986Z" fill="#28303F"/>
</svg>
