<svg width="24" height="24" viewBox="0 0 24 24" fill="none" xmlns="http://www.w3.org/2000/svg">
<path d="M4 16C5.10457 16 6 16.8954 6 18V20C6 21.1046 5.10457 22 4 22C2.89549 21.9999 2 21.1045 2 20V18C2 16.8955 2.89549 16.0001 4 16ZM12 12C13.1046 12 14 12.8954 14 14V20C14 21.1046 13.1046 22 12 22C10.8955 21.9999 10 21.1045 10 20V14C10 12.8955 10.8955 12.0001 12 12ZM20 8C21.1046 8 22 8.89543 22 10V20C22 21.1046 21.1046 22 20 22C18.8955 21.9999 18 21.1045 18 20V10C18 8.89547 18.8955 8.00007 20 8ZM21 1.25C21.9665 1.25 22.75 2.0335 22.75 3V5C22.75 5.41421 22.4142 5.75 22 5.75C21.5858 5.74996 21.25 5.41419 21.25 5V3.76074C17.367 6.87125 14.3558 8.89198 11.4404 10.2441C8.45886 11.627 5.61306 12.2946 2.09473 12.7441C1.68402 12.7964 1.30834 12.5055 1.25586 12.0947C1.20358 11.684 1.49452 11.3083 1.90527 11.2559C5.32877 10.8184 8.01226 10.1812 10.8096 8.88379C13.5186 7.6273 16.3679 5.73607 20.1123 2.75H19C18.5858 2.74996 18.25 2.41419 18.25 2C18.25 1.58581 18.5858 1.25004 19 1.25H21Z" fill="#012522"/>
</svg>
