<svg width="27" height="28" viewBox="0 0 27 28" fill="none" xmlns="http://www.w3.org/2000/svg">
<path d="M25.5 22L14.583 26.852C13.8935 27.1585 13.1065 27.1585 12.417 26.852L1.5 22M25.5 15.3334L14.583 20.1853C13.8935 20.4918 13.1065 20.4918 12.417 20.1853L1.5 15.3334M2.55181 8.52592L12.3074 13.4037C13.0582 13.7791 13.9418 13.7791 14.6926 13.4037L24.4482 8.52593C25.4309 8.03456 25.4309 6.63215 24.4482 6.14078L14.6926 1.26297C13.9418 0.887603 13.0582 0.887603 12.3074 1.26297L2.55181 6.14078C1.56908 6.63215 1.56907 8.03456 2.55181 8.52592Z" stroke="#19D7C4" stroke-width="1.5" stroke-linecap="round" stroke-linejoin="round"/>
</svg>
