<svg width="32" height="32" viewBox="0 0 32 32" fill="none" xmlns="http://www.w3.org/2000/svg">
<path d="M12 2V6H20V2H22V6H24C25.0605 6.00119 26.0773 6.42296 26.8271 7.17285C27.577 7.92274 27.9988 8.9395 28 10V14H30V16H28V21H30V23H28V26C27.9988 27.0605 27.577 28.0773 26.8271 28.8271C26.0773 29.577 25.0605 29.9988 24 30H8C6.9395 29.9988 5.92274 29.577 5.17285 28.8271C4.42296 28.0773 4.00119 27.0605 4 26V23H2V21H4V16H2V14H4V10C4.00119 8.9395 4.42296 7.92274 5.17285 7.17285C5.92274 6.42296 6.9395 6.00119 8 6H10V2H12ZM8 8C7.46975 8.00061 6.96185 8.21197 6.58691 8.58691C6.21197 8.96185 6.00061 9.46975 6 10V26C6.00061 26.5302 6.21197 27.0381 6.58691 27.4131C6.96185 27.788 7.46975 27.9994 8 28H24C24.5302 27.9994 25.0381 27.788 25.4131 27.4131C25.788 27.0381 25.9994 26.5302 26 26V10C25.9994 9.46975 25.788 8.96185 25.4131 8.58691C25.0381 8.21197 24.5302 8.00061 24 8H8ZM21.833 21.8711C21.1949 22.8338 20.3284 23.624 19.3105 24.1699C18.2927 24.7159 17.1551 25.001 16 25C14.8449 25.001 13.7073 24.7159 12.6895 24.1699C11.6716 23.624 10.8051 22.8338 10.167 21.8711L11.833 20.7637C12.2892 21.4512 12.9087 22.0151 13.6357 22.4053C14.3628 22.7954 15.1749 23 16 23C16.8251 23 17.6372 22.7954 18.3643 22.4053C19.0913 22.0151 19.7108 21.4512 20.167 20.7637L21.833 21.8711ZM12 14C12.2634 13.9974 12.5247 14.0479 12.7686 14.1475C13.0123 14.247 13.2338 14.3939 13.4199 14.5801C13.6062 14.7663 13.7539 14.9876 13.8535 15.2314C13.9531 15.4752 14.0026 15.7367 14 16C14 16.3956 13.8828 16.7824 13.6631 17.1113C13.4434 17.4401 13.131 17.6963 12.7656 17.8477C12.4002 17.999 11.9973 18.0391 11.6094 17.9619C11.2216 17.8847 10.8656 17.6937 10.5859 17.4141C10.3063 17.1344 10.1153 16.7785 10.0381 16.3906C9.96092 16.0027 10.001 15.5998 10.1523 15.2344C10.3037 14.8691 10.5599 14.5566 10.8887 14.3369C11.2176 14.1172 11.6044 14 12 14ZM20 14C20.2634 13.9974 20.5247 14.0479 20.7686 14.1475C21.0123 14.247 21.2338 14.3939 21.4199 14.5801C21.6061 14.7663 21.7539 14.9876 21.8535 15.2314C21.9531 15.4752 22.0026 15.7367 22 16C22 16.3956 21.8828 16.7824 21.6631 17.1113C21.4434 17.4401 21.131 17.6963 20.7656 17.8477C20.4002 17.999 19.9973 18.0391 19.6094 17.9619C19.2216 17.8847 18.8656 17.6937 18.5859 17.4141C18.3063 17.1344 18.1153 16.7785 18.0381 16.3906C17.9609 16.0027 18.001 15.5998 18.1523 15.2344C18.3037 14.8691 18.5599 14.5566 18.8887 14.3369C19.2176 14.1172 19.6044 14 20 14Z" fill="#19D7C4"/>
</svg>
