<svg width="48" height="48" viewBox="0 0 48 48" fill="none" xmlns="http://www.w3.org/2000/svg">
<path d="M27.4879 5.26716L42.544 15.0536C43.076 15.3994 43.342 15.5723 43.5347 15.8029C43.7053 16.0071 43.8335 16.2432 43.9117 16.4975C44 16.7848 44 17.1021 44 17.7366V32.4C44 35.7603 44 37.4405 43.346 38.7239C42.7708 39.8529 41.8529 40.7708 40.7239 41.346C39.4405 42 37.7603 42 34.4 42H13.6C10.2397 42 8.55953 42 7.27606 41.346C6.14708 40.7708 5.2292 39.8529 4.65396 38.7239C4 37.4405 4 35.7603 4 32.4V17.7366C4 17.1021 4 16.7848 4.08834 16.4975C4.16654 16.2432 4.29469 16.0071 4.4653 15.8029C4.65802 15.5723 4.92403 15.3994 5.45604 15.0536L20.5121 5.26716M27.4879 5.26716C26.2254 4.44654 25.5942 4.03623 24.9141 3.87659C24.3129 3.73547 23.6871 3.73547 23.0859 3.87659C22.4058 4.03623 21.7746 4.44654 20.5121 5.26716M27.4879 5.26716L39.8723 13.317C41.248 14.2112 41.9358 14.6583 42.1741 15.2253C42.3822 15.7208 42.3822 16.2792 42.1741 16.7747C41.9358 17.3417 41.248 17.7888 39.8723 18.683L27.4879 26.7329C26.2255 27.5535 25.5942 27.9638 24.9141 28.1234C24.3129 28.2645 23.6871 28.2645 23.0859 28.1234C22.4058 27.9638 21.7746 27.5535 20.5121 26.7329L8.12772 18.683C6.75203 17.7888 6.06418 17.3417 5.82595 16.7747C5.61776 16.2792 5.61776 15.7208 5.82595 15.2253C6.06418 14.6583 6.75203 14.2112 8.12772 13.317L20.5121 5.26716M43 38L29.7144 26M18.2856 26L5 38" stroke="#19D7C4" stroke-width="3" stroke-linecap="round" stroke-linejoin="round"/>
</svg>
