<svg width="24" height="24" viewBox="0 0 24 24" fill="none" xmlns="http://www.w3.org/2000/svg">
<g clip-path="url(#clip0_12435_3868)">
<path d="M9 12C12.309 12 15 9.309 15 6C15 2.691 12.309 0 9 0C5.691 0 3 2.691 3 6C3 9.309 5.691 12 9 12ZM9 1C11.757 1 14 3.243 14 6C14 8.757 11.757 11 9 11C6.243 11 4 8.757 4 6C4 3.243 6.243 1 9 1ZM21.5 11H15.5C14.121 11 13 12.122 13 13.5V21.5C13 22.878 14.121 24 15.5 24H21.5C22.879 24 24 22.878 24 21.5V13.5C24 12.122 22.879 11 21.5 11ZM23 21.5C23 22.327 22.327 23 21.5 23H15.5C14.673 23 14 22.327 14 21.5V13.5C14 12.673 14.673 12 15.5 12H21.5C22.327 12 23 12.673 23 13.5V21.5ZM21 14.497C21 14.773 20.776 14.997 20.5 14.997H16.5C16.224 14.997 16 14.773 16 14.497C16 14.221 16.224 13.997 16.5 13.997H20.5C20.776 13.997 21 14.221 21 14.497ZM21 17.5C21 17.776 20.776 18 20.5 18H16.5C16.224 18 16 17.776 16 17.5C16 17.224 16.224 17 16.5 17H20.5C20.776 17 21 17.224 21 17.5ZM21 20.497C21 20.773 20.776 20.997 20.5 20.997H16.5C16.224 20.997 16 20.773 16 20.497C16 20.221 16.224 19.997 16.5 19.997H20.5C20.776 19.997 21 20.221 21 20.497ZM10.992 14.719C10.943 14.991 10.681 15.172 10.413 15.124C9.948 15.042 9.473 15 9 15C4.589 15 1 18.589 1 23V23.5C1 23.776 0.776 24 0.5 24C0.224 24 0 23.776 0 23.5V23C0 18.038 4.037 14 9 14C9.531 14 10.065 14.047 10.587 14.14C10.859 14.188 11.041 14.448 10.992 14.72V14.719Z" fill="#012522"/>
</g>
<defs>
<clipPath id="clip0_12435_3868">
<rect width="24" height="24" fill="white"/>
</clipPath>
</defs>
</svg>
