<svg width="33" height="32" viewBox="0 0 33 32" fill="none" xmlns="http://www.w3.org/2000/svg">
<path d="M28.9473 16.1055L23.5 13.3818V7.00002C23.5 6.81431 23.4483 6.63225 23.3507 6.47426C23.2531 6.31628 23.1134 6.18859 22.9473 6.10552L16.9473 3.10552C16.8084 3.03613 16.6553 3 16.5 3C16.3447 3 16.1916 3.03613 16.0527 3.10552L10.0527 6.10552C9.8866 6.18859 9.74691 6.31628 9.64929 6.47426C9.55167 6.63225 9.49998 6.81431 9.5 7.00002V13.3818L4.0527 16.1055C3.8866 16.1886 3.74691 16.3163 3.64929 16.4743C3.55167 16.6323 3.49998 16.8143 3.5 17V24C3.49998 24.1857 3.55167 24.3678 3.64929 24.5258C3.74691 24.6838 3.8866 24.8115 4.0527 24.8945L10.0527 27.8945C10.1916 27.9639 10.3447 28 10.5 28C10.6553 28 10.8084 27.9639 10.9473 27.8945L16.5 25.1182L22.0527 27.8945C22.1916 27.9639 22.3447 28 22.5 28C22.6553 28 22.8084 27.9639 22.9473 27.8945L28.9473 24.8945C29.1134 24.8115 29.2531 24.6838 29.3507 24.5258C29.4483 24.3678 29.5 24.1857 29.5 24V17C29.5 16.8143 29.4483 16.6323 29.3507 16.4743C29.2531 16.3163 29.1134 16.1886 28.9473 16.1055ZM21.5 13.3818L17.5 15.3818V10.6182L21.5 8.61822V13.3818ZM16.5 5.11822L20.2637 7.00002L16.5 8.88182L12.7363 7.00002L16.5 5.11822ZM11.5 8.61822L15.5 10.6182V15.3818L11.5 13.3818V8.61822ZM9.5 25.3818L5.5 23.3818V18.6182L9.5 20.6182V25.3818ZM10.5 18.8818L6.7363 17L10.5 15.1182L14.2637 17L10.5 18.8818ZM11.5 20.6182L15.5 18.6182V23.3818L11.5 25.3818V20.6182ZM21.5 25.3818L17.5 23.3818V18.6182L21.5 20.6182V25.3818ZM22.5 18.8818L18.7363 17L22.5 15.1182L26.2637 17L22.5 18.8818ZM27.5 23.3818L23.5 25.3818V20.6182L27.5 18.6182V23.3818Z" fill="#19D7C4"/>
</svg>
