<svg width="40" height="40" viewBox="0 0 40 40" fill="none" xmlns="http://www.w3.org/2000/svg">
<path d="M29.1673 15.8334L20.0007 20L10.834 15.8334" stroke="#19D7C4" stroke-width="1.5" stroke-linecap="round" stroke-linejoin="round"/>
<path d="M28.83 14.0277L20.83 10.3786C20.3028 10.1381 19.6972 10.1381 19.17 10.3786L11.17 14.0277C10.4573 14.3528 10 15.064 10 15.8474V25.8193C10 26.6026 10.4573 27.3139 11.17 27.6389L19.17 31.2881C19.6972 31.5285 20.3028 31.5285 20.83 31.2881L28.83 27.6389C29.5427 27.3139 30 26.6026 30 25.8193V15.8474C30 15.064 29.5427 14.3528 28.83 14.0277Z" stroke="#19D7C4" stroke-width="1.5" stroke-linecap="round" stroke-linejoin="round"/>
<path d="M20 20V30" stroke="#19D7C4" stroke-width="1.5" stroke-linecap="round" stroke-linejoin="round"/>
<path d="M20 3.33337V5.00004" stroke="#19D7C4" stroke-width="1.5" stroke-linecap="round" stroke-linejoin="round"/>
<path d="M20 35V36.6667" stroke="#19D7C4" stroke-width="1.5" stroke-linecap="round" stroke-linejoin="round"/>
<path d="M33.4512 6.54822L32.2727 7.72673" stroke="#19D7C4" stroke-width="1.5" stroke-linecap="round" stroke-linejoin="round"/>
<path d="M7.72656 32.2732L6.54805 33.4517" stroke="#19D7C4" stroke-width="1.5" stroke-linecap="round" stroke-linejoin="round"/>
<path d="M36.666 20L34.9993 20" stroke="#19D7C4" stroke-width="1.5" stroke-linecap="round" stroke-linejoin="round"/>
<path d="M5 20L3.33333 20" stroke="#19D7C4" stroke-width="1.5" stroke-linecap="round" stroke-linejoin="round"/>
<path d="M33.4512 33.4517L32.2727 32.2731" stroke="#19D7C4" stroke-width="1.5" stroke-linecap="round" stroke-linejoin="round"/>
<path d="M7.72656 7.72668L6.54805 6.54817" stroke="#19D7C4" stroke-width="1.5" stroke-linecap="round" stroke-linejoin="round"/>
</svg>
