<svg width="21" height="30" viewBox="0 0 21 30" fill="none" xmlns="http://www.w3.org/2000/svg">
<path d="M10.3333 17.6667C11.8061 17.6667 13 16.4728 13 15.0001C13 13.5273 11.8061 12.3334 10.3333 12.3334C8.86057 12.3334 7.66667 13.5273 7.66667 15.0001C7.66667 16.4728 8.86057 17.6667 10.3333 17.6667ZM10.3333 17.6667V28.3334M3.66667 7.00008H17C18.4728 7.00008 19.6667 5.80617 19.6667 4.33341C19.6667 2.86066 18.4728 1.66675 17 1.66675H3.66667C2.19391 1.66675 1 2.86066 1 4.33341C1 5.80617 2.19391 7.00008 3.66667 7.00008ZM3.65596 7.00008H17.0107L19.2961 14.1043C19.9586 15.7773 19.7239 17.6416 18.6635 19.1292L11.6025 27.7015C11.0019 28.5441 9.66481 28.5441 9.06418 27.7015L2.00318 19.1292C0.942767 17.6416 0.708072 15.7773 1.3706 14.1043L3.65596 7.00008Z" stroke="#19D7C4" stroke-width="1.8"/>
</svg>
