<svg width="24" height="24" viewBox="0 0 24 24" fill="none" xmlns="http://www.w3.org/2000/svg">
<g clip-path="url(#clip0_12435_3888)">
<path d="M16 16C16 16.552 15.552 17 15 17C14.448 17 14 16.552 14 16C14 15.448 14.448 15 15 15C15.552 15 16 15.448 16 16ZM11 15C10.448 15 10 15.448 10 16C10 16.552 10.448 17 11 17C11.552 17 12 16.552 12 16C12 15.448 11.552 15 11 15ZM19 15C18.448 15 18 15.448 18 16C18 16.552 18.448 17 19 17C19.552 17 20 16.552 20 16C20 15.448 19.552 15 19 15ZM15 19C14.448 19 14 19.448 14 20C14 20.552 14.448 21 15 21C15.552 21 16 20.552 16 20C16 19.448 15.552 19 15 19ZM11 19C10.448 19 10 19.448 10 20C10 20.552 10.448 21 11 21C11.552 21 12 20.552 12 20C12 19.448 11.552 19 11 19ZM19 19C18.448 19 18 19.448 18 20C18 20.552 18.448 21 19 21C19.552 21 20 20.552 20 20C20 19.448 19.552 19 19 19ZM20 7.5V10.5C20 11.879 18.878 13 17.5 13H12.5C11.122 13 10 11.879 10 10.5V7.5C10 6.121 11.122 5 12.5 5H17.5C18.878 5 20 6.121 20 7.5ZM16.408 12C16.201 11.419 15.651 11 15 11C14.349 11 13.799 11.419 13.592 12H16.408ZM19 7.5C19 6.673 18.327 6 17.5 6H12.5C11.673 6 11 6.673 11 7.5V10.5C10.998 11.346 11.706 12.027 12.551 12C12.783 10.86 13.793 10 15 10C16.207 10 17.217 10.86 17.449 12C18.293 12.027 19.001 11.346 19 10.5V7.5ZM16.5 8C16.5 8.827 15.827 9.5 15 9.5C14.173 9.5 13.5 8.827 13.5 8C13.5 7.173 14.173 6.5 15 6.5C15.827 6.5 16.5 7.173 16.5 8ZM15.5 8C15.5 7.725 15.276 7.5 15 7.5C14.724 7.5 14.5 7.725 14.5 8C14.5 8.275 14.724 8.5 15 8.5C15.276 8.5 15.5 8.275 15.5 8ZM24 6.5V19.5C24 21.981 21.981 24 19.5 24H4.5C2.019 24 0 21.981 0 19.5V3.5C0 1.57 1.57 0 3.5 0C4.891 0 6.085 0.822 6.649 2H19.5C21.981 2 24 4.019 24 6.5ZM1 16.5C1 17.879 2.122 19 3.5 19C4.878 19 6 17.879 6 16.5V3.5C6 2.121 4.878 1 3.5 1C2.122 1 1 2.121 1 3.5V16.5ZM23 6.5C23 4.57 21.43 3 19.5 3H6.949C6.973 3.165 7 3.329 7 3.5V16.5C7 18.43 5.43 20 3.5 20C2.52 20 1.636 19.593 1 18.942V19.5C1 21.43 2.57 23 4.5 23H19.5C21.43 23 23 21.43 23 19.5V6.5Z" fill="#012522"/>
</g>
<defs>
<clipPath id="clip0_12435_3888">
<rect width="24" height="24" fill="white"/>
</clipPath>
</defs>
</svg>
