<svg width="40" height="40" viewBox="0 0 40 40" fill="none" xmlns="http://www.w3.org/2000/svg">
<path d="M21.25 19.5834C21.25 20.2737 20.6904 20.8334 20 20.8334C19.3096 20.8334 18.75 20.2737 18.75 19.5834C18.75 18.893 19.3096 18.3334 20 18.3334C20.6904 18.3334 21.25 18.893 21.25 19.5834Z" fill="#19D7C4"/>
<path d="M26.25 19.5834C26.25 20.2737 25.6904 20.8334 25 20.8334C24.3096 20.8334 23.75 20.2737 23.75 19.5834C23.75 18.893 24.3096 18.3334 25 18.3334C25.6904 18.3334 26.25 18.893 26.25 19.5834Z" fill="#19D7C4"/>
<path d="M16.25 19.5834C16.25 20.2737 15.6904 20.8334 15 20.8334C14.3096 20.8334 13.75 20.2737 13.75 19.5834C13.75 18.893 14.3096 18.3334 15 18.3334C15.6904 18.3334 16.25 18.893 16.25 19.5834Z" fill="#19D7C4"/>
<path d="M21.25 25C21.25 25.6904 20.6904 26.25 20 26.25C19.3096 26.25 18.75 25.6904 18.75 25C18.75 24.3096 19.3096 23.75 20 23.75C20.6904 23.75 21.25 24.3096 21.25 25Z" fill="#19D7C4"/>
<path d="M16.25 25C16.25 25.6904 15.6904 26.25 15 26.25C14.3096 26.25 13.75 25.6904 13.75 25C13.75 24.3096 14.3096 23.75 15 23.75C15.6904 23.75 16.25 24.3096 16.25 25Z" fill="#19D7C4"/>
<path d="M26.25 25C26.25 25.6904 25.6904 26.25 25 26.25C24.3096 26.25 23.75 25.6904 23.75 25C23.75 24.3096 24.3096 23.75 25 23.75C25.6904 23.75 26.25 24.3096 26.25 25Z" fill="#19D7C4"/>
<path d="M21.25 30.4166C21.25 31.107 20.6904 31.6666 20 31.6666C19.3096 31.6666 18.75 31.107 18.75 30.4166C18.75 29.7263 19.3096 29.1666 20 29.1666C20.6904 29.1666 21.25 29.7263 21.25 30.4166Z" fill="#19D7C4"/>
<path d="M16.25 30.4166C16.25 31.107 15.6904 31.6666 15 31.6666C14.3096 31.6666 13.75 31.107 13.75 30.4166C13.75 29.7263 14.3096 29.1666 15 29.1666C15.6904 29.1666 16.25 29.7263 16.25 30.4166Z" fill="#19D7C4"/>
<path d="M26.25 30.4166C26.25 31.107 25.6904 31.6666 25 31.6666C24.3096 31.6666 23.75 31.107 23.75 30.4166C23.75 29.7263 24.3096 29.1666 25 29.1666C25.6904 29.1666 26.25 29.7263 26.25 30.4166Z" fill="#19D7C4"/>
<path d="M27.0711 6.26231C25.2614 4.45266 22.7614 3.33337 20 3.33337C17.2386 3.33337 14.7386 4.45266 12.9289 6.26231M16.4645 9.79784C17.3693 8.89302 18.6193 8.33337 20 8.33337C21.3807 8.33337 22.6307 8.89302 23.5355 9.79784M16.6667 36.6667H23.3333C27.0152 36.6667 30 33.6819 30 30V20C30 16.3181 27.0152 13.3334 23.3333 13.3334H16.6667C12.9848 13.3334 10 16.3181 10 20V30C10 33.6819 12.9848 36.6667 16.6667 36.6667Z" stroke="#19D7C4" stroke-width="1.5" stroke-linecap="round"/>
</svg>
