<svg width="57" height="56" viewBox="0 0 57 56" fill="none" xmlns="http://www.w3.org/2000/svg">
<g clip-path="url(#clip0_12271_2709)">
<path d="M42.6674 19.8335C42.6674 21.3806 42.0529 22.8643 40.9589 23.9583C39.8649 25.0522 38.3812 25.6668 36.8341 25.6668C35.287 25.6668 33.8033 25.0522 32.7093 23.9583C31.6154 22.8643 31.0008 21.3806 31.0008 19.8335C31.0008 18.2864 31.6154 16.8027 32.7093 15.7087C33.8033 14.6147 35.287 14.0001 36.8341 14.0001C38.3812 14.0001 39.8649 14.6147 40.9589 15.7087C42.0529 16.8027 42.6674 18.2864 42.6674 19.8335ZM42.6534 35.8541C42.5253 39.5615 41.5997 43.1977 39.9398 46.5151C38.4103 49.4075 36.1138 51.8227 33.3022 53.4959C30.4906 55.169 27.2724 56.0355 24.0008 56.0001H21.6674V43.1668C21.657 41.0041 20.7932 38.9329 19.264 37.4036C17.7347 35.8743 15.6635 35.0106 13.5008 35.0001H0.66744V32.6668C0.632117 29.3952 1.49856 26.177 3.17172 23.3654C4.84487 20.5537 7.2601 18.2572 10.1524 16.7278C13.4699 15.0679 17.1061 14.1423 20.8134 14.0141C24.2128 9.62337 28.5782 6.07506 33.5709 3.64465C38.5637 1.21425 44.0494 -0.0328585 49.6021 0.000150296C50.5261 -0.00568821 51.4421 0.17091 52.2977 0.519821C53.1533 0.868731 53.9316 1.38309 54.588 2.03341C55.2443 2.68372 55.7659 3.45721 56.1228 4.30951C56.4796 5.16181 56.6647 6.07617 56.6674 7.00015C56.707 12.5633 55.4631 18.0607 53.0326 23.065C50.6021 28.0693 47.0504 32.4457 42.6534 35.8541ZM5.53011 30.3335H10.8081C12.5409 26.4741 14.5765 22.758 16.8958 19.2198C15.2849 19.5946 13.7239 20.1585 12.2454 20.8998C10.4673 21.8388 8.93375 23.1811 7.76762 24.8193C6.60149 26.4574 5.8352 28.3459 5.53011 30.3335ZM37.4478 39.7718C33.9096 42.0911 30.1935 44.1266 26.3341 45.8595V51.1375C28.3217 50.8324 30.2102 50.0661 31.8483 48.9C33.4865 47.7338 34.8288 46.2003 35.7678 44.4221C36.5091 42.9437 37.073 41.3827 37.4478 39.7718ZM52.0008 6.93482C51.9838 6.32737 51.7304 5.75053 51.2947 5.32698C50.8589 4.90342 50.2751 4.66658 49.6674 4.66682C37.6274 5.00982 29.4841 9.62282 21.6254 20.5848C19.4324 23.7423 17.504 27.0755 15.8598 30.5505C18.4076 31.025 20.752 32.2598 22.5846 34.0923C24.4171 35.9249 25.6519 38.2693 26.1264 40.8171C29.6014 39.1729 32.9346 37.2445 36.0921 35.0515C47.0448 27.1835 51.6578 19.0401 52.0008 6.93482ZM14.9521 41.7178C16.2559 43.035 16.9872 44.8135 16.9872 46.6668C16.9872 48.5202 16.2559 50.2986 14.9521 51.6158C12.8358 53.7298 6.50077 55.0341 3.87344 55.4985L0.592773 56.0748L1.16911 52.7941C1.63577 50.1668 2.93777 43.8318 5.05177 41.7155C6.38585 40.443 8.15879 39.7333 10.0024 39.7338C11.846 39.7342 13.6186 40.4447 14.9521 41.7178ZM12.3341 46.6668C12.3349 46.3603 12.2749 46.0566 12.1576 45.7735C12.0402 45.4903 11.8679 45.2332 11.6504 45.0171C11.2129 44.5797 10.6195 44.334 10.0008 44.334C9.38206 44.334 8.78867 44.5797 8.35111 45.0171C7.46151 46.6231 6.83671 48.3619 6.50077 50.1668C8.30632 49.8294 10.0459 49.2039 11.6528 48.3141C11.8695 48.0981 12.0413 47.8414 12.1582 47.5586C12.2752 47.2759 12.3349 46.9728 12.3341 46.6668Z" fill="#19D7C4"/>
</g>
<defs>
<clipPath id="clip0_12271_2709">
<rect width="56" height="56" fill="white" transform="translate(0.666992)"/>
</clipPath>
</defs>
</svg>
