<svg width="48" height="48" viewBox="0 0 48 48" fill="none" xmlns="http://www.w3.org/2000/svg">
<g clip-path="url(#clip0_12473_4530)">
<path d="M48 40H44V44H40V40H28V36H44V30H40V26H44V14H40V10H44V6C44 4.898 43.102 4 42 4H6C4.898 4 4 4.898 4 6V15.34C2.478 15.904 1.136 16.64 0 17.508V6C0 5.966 0 5.93 0.002 5.896C0.058 2.636 2.726 0 6 0H42C45.308 0 48 2.692 48 6V40ZM24 25V41C24 44.99 18.84 48 12 48C5.16 48 0 44.99 0 41V25C0 21.01 5.16 18 12 18C18.84 18 24 21.01 24 25ZM20 41V38.304C17.908 39.37 15.13 40 12 40C8.87 40 6.092 39.37 4 38.304V41C4 42.058 7.038 44 12 44C16.962 44 20 42.058 20 41ZM20 33V30.304C17.908 31.37 15.13 32 12 32C8.87 32 6.092 31.37 4 30.304V33C4 34.058 7.038 36 12 36C16.962 36 20 34.058 20 33ZM20 25C20 23.942 16.962 22 12 22C7.038 22 4 23.942 4 25C4 26.058 7.038 28 12 28C16.962 28 20 26.058 20 25ZM28 25.236V30.378C31.58 28.3 34 24.432 34 20.002C34 13.384 28.618 8.002 22 8.002C17.564 8.002 13.694 10.426 11.616 14.014C11.746 14.014 11.87 14.002 12 14.002C13.518 14.002 14.96 14.138 16.324 14.374C17.774 12.912 19.782 12.002 22 12.002C26.412 12.002 30 15.59 30 20.002C30 22.012 29.23 23.83 28 25.238V25.236Z" fill="#19D7C4"/>
</g>
<defs>
<clipPath id="clip0_12473_4530">
<rect width="48" height="48" fill="white"/>
</clipPath>
</defs>
</svg>
