<svg width="48" height="48" viewBox="0 0 48 48" fill="none" xmlns="http://www.w3.org/2000/svg">
<path d="M12 12H12.02M12 36H12.02M10.4 20H37.6C39.8402 20 40.9603 20 41.816 19.564C42.5686 19.1805 43.1805 18.5686 43.564 17.816C44 16.9603 44 15.8402 44 13.6V10.4C44 8.15979 44 7.03968 43.564 6.18404C43.1805 5.43139 42.5686 4.81947 41.816 4.43597C40.9603 4 39.8402 4 37.6 4H10.4C8.15979 4 7.03968 4 6.18404 4.43597C5.43139 4.81947 4.81947 5.43139 4.43597 6.18404C4 7.03968 4 8.15979 4 10.4V13.6C4 15.8402 4 16.9603 4.43597 17.816C4.81947 18.5686 5.43139 19.1805 6.18404 19.564C7.03968 20 8.15979 20 10.4 20ZM10.4 44H37.6C39.8402 44 40.9603 44 41.816 43.564C42.5686 43.1805 43.1805 42.5686 43.564 41.816C44 40.9603 44 39.8402 44 37.6V34.4C44 32.1598 44 31.0397 43.564 30.184C43.1805 29.4314 42.5686 28.8195 41.816 28.436C40.9603 28 39.8402 28 37.6 28H10.4C8.15979 28 7.03968 28 6.18404 28.436C5.43139 28.8195 4.81947 29.4314 4.43597 30.184C4 31.0397 4 32.1598 4 34.4V37.6C4 39.8402 4 40.9603 4.43597 41.816C4.81947 42.5686 5.43139 43.1805 6.18404 43.564C7.03968 44 8.15979 44 10.4 44Z" stroke="#19D7C4" stroke-width="3" stroke-linecap="round" stroke-linejoin="round"/>
</svg>
