<svg width="36" height="36" viewBox="0 0 36 36" fill="none" xmlns="http://www.w3.org/2000/svg">
<path d="M18 9C13.035 9 9 13.035 9 18C9 22.965 13.035 27 18 27C22.965 27 27 22.965 27 18C27 17.19 26.88 16.425 26.685 15.675L29.04 13.32C29.655 14.76 30 16.335 30 18C30 24.615 24.615 30 18 30C11.385 30 6 24.615 6 18C6 11.385 11.385 6 18 6C19.665 6 21.24 6.345 22.68 6.96L20.325 9.315C19.59 9.12 18.81 9 18 9ZM32.4 13.845C32.79 15.165 33 16.56 33 18C33 26.265 26.265 33 18 33C9.735 33 3 26.265 3 18C3 9.735 9.735 3 18 3C19.44 3 20.835 3.21 22.155 3.6L24.51 1.245C22.485 0.45 20.295 0 18 0C8.07 0 0 8.07 0 18C0 27.93 8.07 36 18 36C27.93 36 36 27.93 36 18C36 15.705 35.55 13.5 34.755 11.49L32.4 13.845ZM17.595 12.045C14.475 12.255 12 14.835 12 18C12 21.165 14.685 24 18 24C21.315 24 23.745 21.525 23.955 18.405L22.245 20.115C20.49 21.87 17.64 21.87 15.885 20.115C14.13 18.36 14.13 15.51 15.885 13.755L17.595 12.045ZM16.935 16.95L19.05 19.065L27.615 10.5H31.5L36 6H30V0L25.5 4.5V8.385L16.935 16.95Z" fill="#012522"/>
</svg>
