<svg width="33" height="32" viewBox="0 0 33 32" fill="none" xmlns="http://www.w3.org/2000/svg">
<path d="M21.8333 5.33341H23.1667C26.1122 5.33341 28.5 7.72123 28.5 10.6667V24.0001C28.5 26.9456 26.1122 29.3334 23.1667 29.3334H9.83333C6.88781 29.3334 4.5 26.9456 4.5 24.0001V10.6667C4.5 7.72123 6.88781 5.33341 9.83333 5.33341H11.1667M21.8333 5.33341C21.8333 6.80617 20.6394 8.00008 19.1667 8.00008H13.8333C12.3606 8.00008 11.1667 6.80617 11.1667 5.33341M21.8333 5.33341C21.8333 3.86066 20.6394 2.66675 19.1667 2.66675H13.8333C12.3606 2.66675 11.1667 3.86066 11.1667 5.33341M16.5 13.3334H21.8333M16.5 18.6667H21.8333M16.5 24.0001H21.8333" stroke="#19D7C4" stroke-width="1.8" stroke-linecap="round"/>
<path d="M13.1667 13.3333C13.1667 14.0697 12.5697 14.6667 11.8333 14.6667C11.097 14.6667 10.5 14.0697 10.5 13.3333C10.5 12.597 11.097 12 11.8333 12C12.5697 12 13.1667 12.597 13.1667 13.3333Z" fill="#19D7C4"/>
<path d="M13.1667 18.6666C13.1667 19.403 12.5697 19.9999 11.8333 19.9999C11.097 19.9999 10.5 19.403 10.5 18.6666C10.5 17.9302 11.097 17.3333 11.8333 17.3333C12.5697 17.3333 13.1667 17.9302 13.1667 18.6666Z" fill="#19D7C4"/>
<path d="M13.1667 24.0001C13.1667 24.7365 12.5697 25.3334 11.8333 25.3334C11.097 25.3334 10.5 24.7365 10.5 24.0001C10.5 23.2637 11.097 22.6667 11.8333 22.6667C12.5697 22.6667 13.1667 23.2637 13.1667 24.0001Z" fill="#19D7C4"/>
</svg>
