<svg width="40" height="40" viewBox="0 0 40 40" fill="none" xmlns="http://www.w3.org/2000/svg">
<path d="M20.0007 36.6666C29.2054 36.6666 36.6673 29.2047 36.6673 20C36.6673 10.7952 29.2054 3.33329 20.0007 3.33329C10.7959 3.33329 3.33398 10.7952 3.33398 20" stroke="#19D7C4" stroke-width="1.5" stroke-linecap="round"/>
<path d="M20.0007 36.6666C10.7959 36.6666 3.33398 29.2047 3.33398 20" stroke="#19D7C4" stroke-width="1.5" stroke-linecap="round" stroke-linejoin="round" stroke-dasharray="0.5 3"/>
<path d="M22.5 20C22.5 21.3807 21.3807 22.5 20 22.5C18.6193 22.5 17.5 21.3807 17.5 20C17.5 18.6193 18.6193 17.5 20 17.5C21.3807 17.5 22.5 18.6193 22.5 20Z" stroke="#19D7C4" stroke-width="1.5"/>
<path d="M20 22.5L20 26.6666M10 20L17.5 20" stroke="#19D7C4" stroke-width="1.5" stroke-linecap="round" stroke-linejoin="round"/>
</svg>
