<svg width="48" height="48" viewBox="0 0 48 48" fill="none" xmlns="http://www.w3.org/2000/svg">
<path d="M35.414 24.118C36.374 25.748 36.076 27.834 34.87 29.29L28.384 35.84L31.192 38.648L37.854 31.918H46V35.698C46 37.694 45.254 39.62 43.906 41.094L37.924 47.918H18V35.334C18 33.642 18.714 32.03 19.966 30.892L28.6 23.052C30.634 21.206 33.936 21.61 35.414 24.118ZM43 3.916H42V27.916H48V8.916C48 6.16 45.758 3.916 43 3.916ZM32.844 18C34.886 18.31 36.686 19.374 38 20.936V3.916H33C30.242 3.916 28 6.16 28 8.916V18.744C29.494 18.038 31.162 17.742 32.844 18ZM24 8.916C24 6.688 24.844 4.672 26.192 3.098L17 0L3.654 4.426C1.468 5.15 0 7.18 0 9.478V20.354C0 30.286 9.402 36.74 14 39.304V35.332C14 32.52 15.194 29.822 17.278 27.93L24 21.824V8.916Z" fill="#19D7C4"/>
</svg>
