<svg width="33" height="32" viewBox="0 0 33 32" fill="none" xmlns="http://www.w3.org/2000/svg">
<ellipse cx="13.8333" cy="23.3334" rx="9.33333" ry="4.66667" stroke="#19D7C4" stroke-width="1.8" stroke-linejoin="round"/>
<circle cx="13.8333" cy="9.33333" r="5.33333" stroke="#19D7C4" stroke-width="1.8" stroke-linejoin="round"/>
<path d="M21.084 5.95288C23.4316 6.24094 25.25 8.24128 25.25 10.6667C25.25 13.2899 23.1231 15.4165 20.5 15.4167C20.0582 15.4167 19.6305 15.3548 19.2246 15.2419C19.6602 14.8442 20.0505 14.3984 20.3896 13.9138C20.4262 13.915 20.4632 13.9167 20.5 13.9167C22.2947 13.9165 23.75 12.4615 23.75 10.6667C23.75 9.27598 22.8758 8.08965 21.6475 7.62573C21.5204 7.04173 21.3309 6.48161 21.084 5.95288Z" fill="#19D7C4"/>
<path d="M22.0225 17.9753C23.7096 18.1055 25.2399 18.4487 26.4453 18.9509C27.2232 19.2751 27.902 19.6806 28.3975 20.1687C28.8954 20.6594 29.2499 21.2786 29.25 21.9998C29.25 22.7211 28.8956 23.341 28.3975 23.8318C27.9019 24.3199 27.2233 24.7254 26.4453 25.0496C26.0984 25.1941 25.7239 25.3242 25.3271 25.4412C25.6023 24.8802 25.7715 24.292 25.8184 23.6833C25.8347 23.6767 25.852 23.6715 25.8682 23.6648C26.5375 23.3859 27.0307 23.0727 27.3447 22.7634C27.656 22.4568 27.75 22.1987 27.75 21.9998C27.7499 21.8009 27.6558 21.5436 27.3447 21.2371C27.0307 20.9277 26.5376 20.6146 25.8682 20.3357C25.4358 20.1556 24.9443 19.9958 24.4053 19.8621C23.7824 19.1551 22.9747 18.519 22.0225 17.9753Z" fill="#19D7C4"/>
</svg>
