<svg width="36" height="45" viewBox="0 0 36 45" fill="none" xmlns="http://www.w3.org/2000/svg">
<path d="M17.1843 0.669639C16.7839 0.826067 16.4154 1.00662 16.0365 1.22348C15.5577 1.49809 15.5511 1.50415 15.5775 1.59643C15.6227 1.75408 15.7183 1.76828 16.271 1.69303C17.6142 1.51592 18.7148 1.56652 20.4019 1.87755C22.6001 2.28752 25.6894 3.32416 27.7651 4.35183C28.9195 4.92378 30.0895 5.78257 30.6578 6.47265C31.8971 7.99395 32.5642 9.75433 32.6656 11.7767C32.7815 14.1112 31.7947 16.3291 29.9111 17.9885C29.322 18.5029 28.8042 18.8594 28.2638 19.1225C27.9124 19.2899 26.9226 19.6694 26.883 19.6475C26.8693 19.6431 26.751 19.419 26.6194 19.1489C25.585 17.0652 23.9985 15.0734 22.3044 13.7365C20.9935 12.7059 19.5593 11.9854 17.9666 11.5682C17.6798 11.4965 16.2285 11.2385 15.8581 11.1949C15.0542 11.105 14.1042 11.1153 13.2818 11.2221C12.6885 11.3007 11.5415 11.6254 11.0698 11.8522C10.8798 11.9442 10.6485 12.052 10.5558 12.0911C10.464 12.1341 10.2696 12.2398 10.1241 12.3273C9.97858 12.4148 9.67602 12.5931 9.45144 12.7241C9.22684 12.8551 8.90283 13.0894 8.72667 13.244C8.00198 13.8804 7.68781 14.5406 7.64259 15.5148C7.60101 16.3423 8.04712 17.4044 8.84744 18.3817C9.16982 18.7803 10.2951 19.9182 10.6948 20.253C12.5249 21.788 15.4463 22.9935 18.1003 23.3102C19.9055 23.525 22.5015 23.3923 24.7829 22.9753L25.273 22.8847L25.3635 23.2873C25.8485 25.4869 25.5021 27.4712 24.3011 29.3344C23.4754 30.6198 21.9438 32.041 20.7312 32.6592C20.2447 32.9069 19.1544 33.2986 18.6073 33.4222C17.9772 33.5613 17.2652 33.6905 17.2026 33.6752C17.1663 33.6647 17.1167 33.4917 17.003 32.9793C16.4395 30.3611 15.0583 28.1273 12.9485 26.4145C11.1911 24.9876 9.33367 24.1262 7.17399 23.7343C5.61718 23.4567 4.81448 23.458 3.81747 23.7398C3.38685 23.8632 2.52018 24.2366 2.19507 24.438C2.08964 24.5056 1.82334 24.6652 1.60258 24.7951C0.610851 25.3708 0.163653 26.0025 0.0278166 27.0235C-0.0982117 27.9626 0.201605 28.9211 0.976288 30.0555C1.56502 30.9187 2.91851 32.2866 3.8917 33.0104C5.4483 34.1578 8.07404 35.319 10.3614 35.8657C11.6611 36.1755 13.2794 36.4064 14.5822 36.4655C14.9789 36.4849 15.1438 36.5084 15.157 36.5546C15.1845 36.6507 14.9609 37.8009 14.8377 38.1982C14.2099 40.2175 12.855 41.8627 11.1859 42.6159C9.86785 43.2145 7.82376 43.6175 6.49126 43.5418C6.00498 43.5148 5.22735 43.3425 5.10143 43.2371C5.04039 43.1839 4.97884 43.1724 4.89041 43.1978C4.59819 43.2816 4.5999 43.3601 4.89467 43.6335C5.24168 43.9584 5.47315 44.1126 5.86506 44.2749C6.76046 44.6548 7.93739 44.725 9.61525 44.5103C10.4057 44.4085 11.9048 43.9911 12.5441 43.6954C14.0928 42.9725 15.1578 42.0429 15.9643 40.7048C16.5973 39.662 17.0235 38.3039 17.1929 36.8197C17.2147 36.6053 17.2525 36.4322 17.2689 36.4317C18.5831 36.3128 20.3014 35.8909 21.3827 35.4102C23.6922 34.3943 25.7799 32.5473 26.8934 30.5385C27.4211 29.5924 27.7043 28.7372 27.9366 27.4139C28.2273 25.7577 28.2011 24.1714 27.8595 22.5883L27.7805 22.2114L28.3693 21.9718C30.9111 20.9392 32.8342 19.2144 34.0149 16.9034C34.4553 16.0447 34.6914 15.2863 34.9165 13.9816C35.2952 11.8341 35.1851 9.86827 34.5784 7.96998C34.2274 6.87635 33.8106 6.018 33.2279 5.19053C31.6984 3.02003 29.4167 1.47718 26.66 0.744682C24.2677 0.107411 21.6665 -0.141221 19.7403 0.0782051C18.8816 0.174626 17.7973 0.427296 17.1843 0.669639ZM14.3217 14.4859C14.8876 14.4277 15.6123 14.4155 16.2496 14.4615C16.8151 14.5033 17.8862 14.7122 18.4533 14.8907C19.6614 15.2725 21.3211 16.3446 22.2337 17.3355C22.771 17.9179 23.4548 18.8661 23.9133 19.6668C24.3178 20.3664 24.2908 20.2867 24.1188 20.3111C22.5927 20.5323 21.7664 20.6111 20.6852 20.6424C18.5479 20.706 17.2384 20.5072 15.5499 19.872C13.4689 19.0872 11.6765 17.7411 10.8609 16.3479L10.7167 16.1064L10.8643 15.9392C11.1838 15.573 11.6324 15.2653 12.2052 15.0137C12.6375 14.8232 13.7481 14.5463 14.3217 14.4859ZM5.41662 26.864C6.56428 26.7596 8.06944 27.0021 9.30997 27.4828C10.4296 27.9191 12.1565 29.051 12.8759 29.8184C13.4803 30.4606 14.1225 31.4666 14.4832 32.3327C14.6771 32.8056 14.9057 33.5015 14.9268 33.6911L14.9451 33.8565L14.3468 33.8449C13.1654 33.8175 11.9351 33.6626 10.9101 33.4114C8.45574 32.8044 6.03756 31.5837 4.53184 30.1928C3.90327 29.6115 3.4132 29.0197 3.10112 28.4684C2.83145 27.9923 2.83091 28.0049 3.14928 27.7222C3.29806 27.588 3.53581 27.4158 3.67312 27.3431C4.06795 27.1384 4.89303 26.9101 5.41662 26.864Z" fill="white"/>
</svg>
