<svg width="48" height="49" viewBox="0 0 48 49" fill="none" xmlns="http://www.w3.org/2000/svg">
<path d="M44 20.5V36.5C44 40.9183 40.4183 44.5 36 44.5H12C7.58172 44.5 4 40.9183 4 36.5V12.5C4 8.08172 7.58172 4.5 12 4.5H28M10 24.5H12C14.2091 24.5 16 22.7091 16 20.5V18.5C16 16.2909 17.7909 14.5 20 14.5C22.2091 14.5 24 16.2909 24 18.5V30.5C24 32.7091 25.7909 34.5 28 34.5C30.2091 34.5 32 32.7091 32 30.5V28.5C32 26.2909 33.7909 24.5 36 24.5H38M44 9.5C44 12.2614 41.7614 14.5 39 14.5C36.2386 14.5 34 12.2614 34 9.5C34 6.73858 36.2386 4.5 39 4.5C41.7614 4.5 44 6.73858 44 9.5Z" stroke="#19D7C4" stroke-width="2.8" stroke-linecap="round"/>
</svg>
