<svg width="48" height="48" viewBox="0 0 48 48" fill="none" xmlns="http://www.w3.org/2000/svg">
<path d="M28.2526 6H33.9032C35.1179 6 36.2746 6.526 37.0816 7.44534L42.9258 14.103C44.2821 15.648 44.3628 17.951 43.1181 19.5895L27.3707 40.3193C25.6684 42.5602 22.3316 42.5602 20.6293 40.3193L4.88191 19.5895C3.63721 17.951 3.71792 15.648 5.07419 14.103L10.9184 7.44534C11.7254 6.526 12.8821 6 14.0968 6H20.2199M28.2526 6L32.5053 16.7657M28.2526 6H20.2199M32.5053 16.7657H43.1369M32.5053 16.7657L24 41.5268L15.4947 16.7657M32.5053 16.7657H15.4947M20.2199 6L15.4947 16.7657M4.86313 16.7657H15.4947" stroke="#19D7C4" stroke-width="2.8" stroke-linecap="round" stroke-linejoin="round"/>
</svg>
