<svg width="48" height="48" viewBox="0 0 48 48" fill="none" xmlns="http://www.w3.org/2000/svg">
<path d="M32 16H16M32 16C36.4183 16 40 19.5817 40 24V36C40 40.4183 36.4183 44 32 44H16C11.5817 44 8 40.4183 8 36V24C8 19.5817 11.5817 16 16 16M32 16V12C32 7.58172 28.4183 4 24 4C19.5817 4 16 7.58172 16 12V16M28 30C28 32.2091 26.2091 34 24 34C21.7909 34 20 32.2091 20 30C20 27.7909 21.7909 26 24 26C26.2091 26 28 27.7909 28 30Z" stroke="#19D7C4" stroke-width="2.8" stroke-linecap="round" stroke-linejoin="round"/>
</svg>
