<svg width="48" height="48" viewBox="0 0 48 48" fill="none" xmlns="http://www.w3.org/2000/svg">
<path d="M18 3V9H30V3H33V9H36C37.5908 9.00179 39.1154 9.63493 40.2402 10.7598C41.3651 11.8846 41.9982 13.4092 42 15V21H45V24H42V31.5H45V34.5H42V39C41.9982 40.5908 41.3651 42.1154 40.2402 43.2402C39.1154 44.3651 37.5908 44.9982 36 45H12C10.4092 44.9982 8.8846 44.3651 7.75977 43.2402C6.63493 42.1154 6.00179 40.5908 6 39V34.5H3V31.5H6V24H3V21H6V15C6.00179 13.4092 6.63493 11.8846 7.75977 10.7598C8.8846 9.63493 10.4092 9.00179 12 9H15V3H18ZM12 12C11.2046 12.0009 10.4423 12.3175 9.87988 12.8799C9.31747 13.4423 9.00091 14.2046 9 15V39C9.00091 39.7954 9.31747 40.5577 9.87988 41.1201C10.4423 41.6825 11.2046 41.9991 12 42H36C36.7954 41.9991 37.5577 41.6825 38.1201 41.1201C38.6825 40.5577 38.9991 39.7954 39 39V15C38.9991 14.2046 38.6825 13.4423 38.1201 12.8799C37.5577 12.3175 36.7954 12.0009 36 12H12ZM32.749 32.8066C31.7919 34.2508 30.4925 35.4359 28.9658 36.2549C27.439 37.0738 25.7326 37.5015 24 37.5C22.2674 37.5015 20.561 37.0738 19.0342 36.2549C17.5075 35.4359 16.2081 34.2508 15.251 32.8066L17.749 31.1455C18.4333 32.1768 19.3626 33.0232 20.4531 33.6084C21.5437 34.1936 22.7623 34.5 24 34.5C25.2377 34.5 26.4563 34.1936 27.5469 33.6084C28.6374 33.0232 29.5667 32.1768 30.251 31.1455L32.749 32.8066ZM18 21C18.395 20.9961 18.7867 21.0714 19.1523 21.2207C19.518 21.3701 19.8505 21.5908 20.1299 21.8701C20.4092 22.1495 20.6299 22.4819 20.7793 22.8477C20.9287 23.2133 21.0039 23.605 21 24C21 24.5933 20.8238 25.1736 20.4941 25.667C20.1646 26.1601 19.6963 26.5444 19.1484 26.7715C18.6003 26.9985 17.9969 27.0581 17.415 26.9424C16.8331 26.8266 16.2985 26.5407 15.8789 26.1211C15.4594 25.7015 15.1734 25.1669 15.0576 24.585C14.942 24.0033 15.0016 23.4005 15.2285 22.8525C15.4555 22.3045 15.8398 21.8355 16.333 21.5059C16.8264 21.1762 17.4067 21 18 21ZM30 21C30.395 20.9961 30.7867 21.0714 31.1523 21.2207C31.518 21.3701 31.8505 21.5908 32.1299 21.8701C32.4092 22.1495 32.6299 22.4819 32.7793 22.8477C32.9287 23.2133 33.0039 23.605 33 24C33 24.5933 32.8238 25.1736 32.4941 25.667C32.1646 26.1601 31.6963 26.5444 31.1484 26.7715C30.6003 26.9985 29.9969 27.0581 29.415 26.9424C28.8331 26.8266 28.2985 26.5407 27.8789 26.1211C27.4594 25.7015 27.1734 25.1669 27.0576 24.585C26.942 24.0033 27.0016 23.4005 27.2285 22.8525C27.4555 22.3045 27.8398 21.8355 28.333 21.5059C28.8264 21.1762 29.4067 21 30 21Z" fill="#19D7C4"/>
</svg>
