<svg width="40" height="40" viewBox="0 0 40 40" fill="none" xmlns="http://www.w3.org/2000/svg">
<path d="M30.4598 6.07376C30.1323 5.82015 29.6613 5.88005 29.4077 6.20755C29.1541 6.53505 29.214 7.00613 29.5415 7.25974L30.0007 6.66675L30.4598 6.07376ZM34.8703 12.5659L34.2002 12.9027V12.9027L34.8703 12.5659ZM36.6662 19.929L37.4162 19.9204L36.6662 19.929ZM35.0404 27.3294L35.718 27.6508L35.0404 27.3294ZM29.8355 32.7508C29.5137 33.0117 29.4644 33.484 29.7252 33.8057C29.986 34.1275 30.4583 34.1769 30.7801 33.916L30.3078 33.3334L29.8355 32.7508ZM26.3419 26.0858C26.0211 26.3477 25.9733 26.8202 26.2353 27.1411C26.4973 27.4619 26.9697 27.5097 27.2906 27.2477L26.8163 26.6667L26.3419 26.0858ZM30.0001 19.9667L30.7501 19.9583V19.9583L30.0001 19.9667ZM27.1292 12.7425C26.8029 12.4874 26.3315 12.5452 26.0764 12.8715C25.8213 13.1979 25.8791 13.6692 26.2054 13.9243L26.6673 13.3334L27.1292 12.7425ZM10.4598 7.25974C10.7873 7.00613 10.8472 6.53505 10.5936 6.20755C10.34 5.88005 9.86895 5.82015 9.54145 6.07376L10.0007 6.66675L10.4598 7.25974ZM5.13098 12.5659L5.8011 12.9027V12.9027L5.13098 12.5659ZM3.33509 19.929L2.58514 19.9204L3.33509 19.929ZM4.96093 27.3294L4.2833 27.6508H4.2833L4.96093 27.3294ZM9.22119 33.916C9.54295 34.1769 10.0153 34.1275 10.2761 33.8057C10.5369 33.484 10.4876 33.0117 10.1658 32.7508L9.69349 33.3334L9.22119 33.916ZM12.7107 27.2477C13.0316 27.5097 13.504 27.4619 13.766 27.1411C14.028 26.8202 13.9802 26.3477 13.6594 26.0858L13.185 26.6667L12.7107 27.2477ZM10.0012 19.9667L9.25122 19.9583V19.9583L10.0012 19.9667ZM13.7959 13.9243C14.1222 13.6692 14.18 13.1979 13.9249 12.8715C13.6698 12.5452 13.1984 12.4874 12.8721 12.7425L13.334 13.3334L13.7959 13.9243ZM19.2507 33.3334C19.2507 33.7476 19.5864 34.0834 20.0007 34.0834C20.4149 34.0834 20.7507 33.7476 20.7507 33.3334H20.0007H19.2507ZM23.334 20.0001H24.084C24.084 17.7449 22.2558 15.9167 20.0007 15.9167V16.6667V17.4167C21.4274 17.4167 22.584 18.5733 22.584 20.0001H23.334ZM20.0007 16.6667V15.9167C17.7455 15.9167 15.9173 17.7449 15.9173 20.0001H16.6673H17.4173C17.4173 18.5733 18.5739 17.4167 20.0007 17.4167V16.6667ZM16.6673 20.0001H15.9173C15.9173 22.2552 17.7455 24.0834 20.0007 24.0834V23.3334V22.5834C18.5739 22.5834 17.4173 21.4268 17.4173 20.0001H16.6673ZM20.0007 23.3334V24.0834C22.2558 24.0834 24.084 22.2552 24.084 20.0001H23.334H22.584C22.584 21.4268 21.4274 22.5834 20.0007 22.5834V23.3334ZM30.0007 6.66675L29.5415 7.25974C31.5071 8.7819 33.0981 10.7099 34.2002 12.9027L34.8703 12.5659L35.5404 12.2291C34.3366 9.83384 32.6005 7.73145 30.4598 6.07376L30.0007 6.66675ZM34.8703 12.5659L34.2002 12.9027C35.3023 15.0955 35.8882 17.4986 35.9163 19.9376L36.6662 19.929L37.4162 19.9204C37.3854 17.252 36.7444 14.6245 35.5404 12.2291L34.8703 12.5659ZM36.6662 19.929L35.9163 19.9376C35.9444 22.3767 35.4139 24.7919 34.3627 27.008L35.0404 27.3294L35.718 27.6508C36.8665 25.2296 37.4469 22.5888 37.4162 19.9204L36.6662 19.929ZM35.0404 27.3294L34.3627 27.008C33.3115 29.2241 31.7655 31.1863 29.8355 32.7508L30.3078 33.3334L30.7801 33.916C32.8822 32.2119 34.5695 30.072 35.718 27.6508L35.0404 27.3294ZM26.8163 26.6667L27.2906 27.2477C28.3858 26.3535 29.265 25.2377 29.8638 23.9777L29.1864 23.6558L28.5089 23.3339C28.0073 24.3895 27.2683 25.3295 26.3419 26.0858L26.8163 26.6667ZM29.1864 23.6558L29.8638 23.9777C30.4626 22.7177 30.7656 21.3454 30.7501 19.9583L30.0001 19.9667L29.2502 19.9751C29.2631 21.1319 29.0105 22.2785 28.5089 23.3339L29.1864 23.6558ZM30.0001 19.9667L30.7501 19.9583C30.7346 18.5713 30.401 17.2057 29.7743 15.9584L29.1041 16.2951L28.434 16.6318C28.9591 17.677 29.2373 18.8182 29.2502 19.9751L30.0001 19.9667ZM29.1041 16.2951L29.7743 15.9584C29.1477 14.7112 28.2439 13.6139 27.1292 12.7425L26.6673 13.3334L26.2054 13.9243C27.1487 14.6617 27.9088 15.5865 28.434 16.6318L29.1041 16.2951ZM10.0007 6.66675L9.54145 6.07376C7.40077 7.73145 5.66473 9.83384 4.46086 12.2291L5.13098 12.5659L5.8011 12.9027C6.9032 10.7099 8.49419 8.7819 10.4598 7.25974L10.0007 6.66675ZM5.13098 12.5659L4.46086 12.2291C3.25694 14.6245 2.61588 17.252 2.58514 19.9204L3.33509 19.929L4.08504 19.9376C4.11314 17.4986 4.69905 15.0955 5.8011 12.9027L5.13098 12.5659ZM3.33509 19.929L2.58514 19.9204C2.55441 22.5888 3.13479 25.2296 4.2833 27.6508L4.96093 27.3294L5.63855 27.008C4.58736 24.7919 4.05695 22.3767 4.08504 19.9376L3.33509 19.929ZM4.96093 27.3294L4.2833 27.6508C5.43177 30.072 7.11907 32.2119 9.22119 33.916L9.69349 33.3334L10.1658 32.7508C8.23585 31.1863 6.68979 29.2241 5.63855 27.008L4.96093 27.3294ZM13.185 26.6667L13.6594 26.0858C12.733 25.3295 11.994 24.3895 11.4924 23.3339L10.8149 23.6558L10.1375 23.9777C10.7363 25.2377 11.6155 26.3535 12.7107 27.2477L13.185 26.6667ZM10.8149 23.6558L11.4924 23.3339C10.9908 22.2785 10.7382 21.1319 10.7511 19.9751L10.0012 19.9667L9.25122 19.9583C9.23572 21.3454 9.53875 22.7177 10.1375 23.9777L10.8149 23.6558ZM10.0012 19.9667L10.7511 19.9751C10.764 18.8182 11.0422 17.677 11.5673 16.6318L10.8972 16.2951L10.227 15.9584C9.60032 17.2057 9.26671 18.5713 9.25122 19.9583L10.0012 19.9667ZM10.8972 16.2951L11.5673 16.6318C12.0926 15.5865 12.8526 14.6617 13.7959 13.9243L13.334 13.3334L12.8721 12.7425C11.7574 13.6139 10.8536 14.7112 10.227 15.9584L10.8972 16.2951ZM20.0007 23.3334H19.2507V33.3334H20.0007H20.7507V23.3334H20.0007Z" fill="#19D7C4"/>
</svg>
