<svg width="48" height="48" viewBox="0 0 48 48" fill="none" xmlns="http://www.w3.org/2000/svg">
<path d="M13.9996 12V6C13.9996 4.89544 14.895 4 15.9996 4H39.9996C41.1042 4 41.9996 4.89544 41.9996 6V34C41.9996 35.1046 41.1042 36 39.9996 36H33.9996V41.9982C33.9996 43.1038 33.0998 44 31.986 44H8.01332C6.90118 44 6 43.1108 6 41.9982L6.0052 14.0017C6.0054 12.8962 6.90528 12 8.01884 12H13.9996ZM10.0048 16L10.0004 40H29.9996V16H10.0048ZM17.9996 12H33.9996V32H37.9996V8H17.9996V12ZM14 22H26V26H14V22ZM14 30H26V34H14V30Z" fill="#19D7C4"/>
</svg>
