<svg width="48" height="48" viewBox="0 0 48 48" fill="none" xmlns="http://www.w3.org/2000/svg">
<path d="M2 29C2 24.3432 4.44858 20.2582 8.12852 17.9624C9.12938 10.088 15.8537 4 24 4C32.1462 4 38.8706 10.088 39.8714 17.9624C43.5514 20.2582 46 24.3432 46 29C46 35.8432 40.7124 41.4514 34 41.9622L14 42C7.28756 41.4514 2 35.8432 2 29ZM33.6966 37.9736C38.3634 37.6186 42 33.7122 42 29C42 25.854 40.3768 22.9924 37.7542 21.3562L36.1428 20.3508L35.9034 18.4668C35.147 12.5161 30.0576 8 24 8C17.9423 8 12.8529 12.5161 12.0966 18.4668L11.8571 20.3508L10.2458 21.3562C7.62312 22.9924 6 25.854 6 29C6 33.7122 9.63666 37.6186 14.3034 37.9736L14.65 38H33.35L33.6966 37.9736ZM26 24H32L24 34L16 24H22V16H26V24Z" fill="#19D7C4"/>
</svg>
