<svg width="48" height="48" viewBox="0 0 48 48" fill="none" xmlns="http://www.w3.org/2000/svg">
<g clip-path="url(#clip0_12605_7943)">
<mask id="mask0_12605_7943" style="mask-type:luminance" maskUnits="userSpaceOnUse" x="0" y="0" width="48" height="48">
<path d="M48 0H0V48H48V0Z" fill="white"/>
</mask>
<g mask="url(#mask0_12605_7943)">
<path d="M12.0145 14.5945C12.0048 14.3975 12 14.1993 12 14C12 7.37258 17.3725 2 24 2C26.6992 2 29.1954 2.89354 31.2012 4.40014L28.7988 7.5984C27.462 6.59424 25.8032 6 24 6C23.4478 6 22.9084 6.05596 22.3876 6.16254C18.7422 6.90852 16 10.134 16 14C16 18.0662 19.0336 21.4238 22.961 21.9332C25.0078 19.1169 28.11 17.4177 31.392 17.0661C32.7592 16.9197 34.1584 17.0076 35.527 17.345C36.6012 17.6096 37.656 18.0281 38.66 18.6078C44.3996 21.9216 46.366 29.2606 43.0524 35C39.7386 40.7396 32.3996 42.7062 26.66 39.3924C25.656 38.8128 24.7664 38.1086 24 37.3108C23.2338 38.1086 22.344 38.8128 21.3398 39.3926C15.6004 42.7062 8.2613 40.7398 4.94758 35.0002C1.63388 29.2608 3.60038 21.9216 9.3399 18.6079C10.3439 18.0283 11.3984 17.6099 12.4725 17.3452C12.2256 16.4929 12.0706 15.6016 12.0191 14.6826L12.0145 14.5945ZM14.2996 21.0656C13.2872 21.1978 12.2828 21.5276 11.3399 22.072C7.51356 24.2812 6.20256 29.174 8.4117 33.0002C10.6208 36.8266 15.5136 38.1376 19.3399 35.9284C20.6042 35.1986 21.5898 34.18 22.2674 33.0048C23.4858 30.8914 23.7064 28.2782 22.7298 25.9338C21.9614 25.8528 21.2144 25.6994 20.4962 25.4804C20.4056 25.4528 20.3154 25.424 20.2256 25.3944C17.8248 24.5994 15.7599 23.067 14.2996 21.0656ZM26.3086 33.8686C26.9294 34.6792 27.7172 35.384 28.66 35.9284C32.4864 38.1374 37.379 36.8264 39.5882 33C40.5872 31.27 40.8664 29.3218 40.5186 27.5022C40.0976 25.2976 38.7562 23.2818 36.66 22.0714C35.3956 21.3416 34.0208 20.9972 32.6644 20.998C30.225 20.9996 27.8518 22.1152 26.3096 24.1332C26.5322 24.633 26.7176 25.1414 26.8672 25.6554C26.9548 25.957 27.0302 26.2604 27.0934 26.565C27.1204 26.6956 27.1452 26.8262 27.1678 26.9572C27.5742 29.3134 27.2594 31.7222 26.3086 33.8686ZM37.1548 14C37.732 14.668 38.212 15.4274 38.5732 16.2562L39.0662 17.3876C39.4272 18.2158 40.5728 18.2158 40.9336 17.3876L41.4268 16.2562C42.3058 14.2389 43.889 12.6328 45.8646 11.7542L47.3838 11.0784C48.2054 10.7131 48.2054 9.51762 47.3838 9.15224L45.9496 8.51428C43.9232 7.61302 42.3116 5.94746 41.4476 3.86166L40.9412 2.63906C40.5884 1.78698 39.4116 1.78698 39.0586 2.63906L38.5522 3.86166C38.393 4.24638 38.2082 4.6168 38 4.97076C37.0798 6.53586 35.703 7.77926 34.0504 8.51428L32.616 9.15224C31.7946 9.51762 31.7946 10.7131 32.616 11.0784L34.1354 11.7542C35.2992 12.2718 36.327 13.042 37.1548 14Z" fill="#19D7C4"/>
</g>
</g>
<defs>
<clipPath id="clip0_12605_7943">
<rect width="48" height="48" fill="white"/>
</clipPath>
</defs>
</svg>
