<svg width="40" height="40" viewBox="0 0 40 40" fill="none" xmlns="http://www.w3.org/2000/svg">
<ellipse cx="20" cy="27.4999" rx="10" ry="4.16667" stroke="#19D7C4" stroke-width="1.5" stroke-linejoin="round"/>
<circle cx="20" cy="13.3333" r="5" stroke="#19D7C4" stroke-width="1.5" stroke-linejoin="round"/>
<path d="M9.80957 22.6648C8.99144 23.2096 8.30967 23.8208 7.79199 24.4822C7.14569 24.6256 6.55997 24.8033 6.05176 25.0066C5.35025 25.2872 4.83173 25.6029 4.50195 25.9148C4.17442 26.2248 4.08214 26.4793 4.08203 26.6667C4.08216 26.8542 4.17403 27.1095 4.50195 27.4197C4.83178 27.7316 5.35013 28.0472 6.05176 28.3279C6.28716 28.422 6.53973 28.5093 6.80664 28.5916C6.96655 29.2084 7.26107 29.7996 7.6709 30.3582C6.87171 30.1917 6.13779 29.9779 5.49414 29.7205C4.68799 29.398 3.98515 28.9951 3.47168 28.5095C2.95666 28.0225 2.58217 27.3995 2.58203 26.6667C2.58214 25.9342 2.95687 25.312 3.47168 24.825C3.98508 24.3394 4.6881 23.9365 5.49414 23.614C6.67831 23.1403 8.16627 22.8088 9.80957 22.6648Z" fill="#19D7C4"/>
<path d="M30.1895 22.6648C31.8329 22.8088 33.3207 23.1404 34.5049 23.614C35.311 23.9365 36.0139 24.3394 36.5273 24.825C37.0422 25.312 37.4169 25.9341 37.417 26.6667C37.4169 27.3994 37.0423 28.0225 36.5273 28.5095C36.0139 28.995 35.3109 29.398 34.5049 29.7205C33.8612 29.9779 33.1274 30.1917 32.3281 30.3582C32.7379 29.7997 33.0315 29.2083 33.1914 28.5916C33.4587 28.5092 33.7116 28.4221 33.9473 28.3279C34.6486 28.0473 35.1662 27.7315 35.4961 27.4197C35.8241 27.1095 35.9169 26.8543 35.917 26.6667C35.9169 26.4792 35.8241 26.225 35.4961 25.9148C35.1662 25.6029 34.649 25.2873 33.9473 25.0066C33.439 24.8033 32.8535 24.6256 32.207 24.4822C31.6893 23.8208 31.0076 23.2096 30.1895 22.6648Z" fill="#19D7C4"/>
<path d="M28.332 10.917C30.5871 10.917 32.4158 12.745 32.416 15C32.4158 17.255 30.5871 19.084 28.332 19.084C27.6495 19.0839 27.0068 18.9144 26.4414 18.6182C26.7617 18.2282 27.0468 17.8087 27.293 17.3643C27.6111 17.5044 27.9622 17.5839 28.332 17.584C29.7587 17.584 30.9158 16.4266 30.916 15C30.9158 13.5734 29.7587 12.417 28.332 12.417C28.3151 12.417 28.2981 12.4186 28.2812 12.4189C28.2254 11.9078 28.1235 11.4108 27.9795 10.9316C28.0957 10.9217 28.2133 10.917 28.332 10.917Z" fill="#19D7C4"/>
<path d="M11.665 10.917C11.7837 10.917 11.9015 10.9227 12.0176 10.9326C11.8738 11.4114 11.7726 11.9082 11.7168 12.4189C11.6997 12.4186 11.6822 12.417 11.665 12.417C10.2387 12.4173 9.08221 13.5736 9.08203 15C9.08221 16.4264 10.2387 17.5836 11.665 17.584C12.0352 17.584 12.3867 17.5036 12.7051 17.3633C12.9513 17.808 13.2362 18.228 13.5566 18.6182C12.991 18.9145 12.3478 19.084 11.665 19.084C9.41028 19.0836 7.58221 17.2548 7.58203 15C7.58221 12.7452 9.41028 10.9173 11.665 10.917Z" fill="#19D7C4"/>
</svg>
