<svg width="40" height="40" viewBox="0 0 40 40" fill="none" xmlns="http://www.w3.org/2000/svg">
<path d="M30.932 32.5813C29.2763 28.1529 25.0067 24.9999 20.0007 24.9999C14.9946 24.9999 10.725 28.1529 9.06926 32.5813M30.932 32.5813C34.4459 29.5256 36.6673 25.0222 36.6673 19.9999C36.6673 10.7952 29.2054 3.33325 20.0007 3.33325C10.7959 3.33325 3.33398 10.7952 3.33398 19.9999C3.33398 25.0222 5.5554 29.5256 9.06926 32.5813M30.932 32.5813C28.0058 35.126 24.1831 36.6666 20.0007 36.6666C15.8182 36.6666 11.9955 35.126 9.06926 32.5813" stroke="#19D7C4" stroke-width="1.5" stroke-linejoin="round"/>
<circle cx="5" cy="5" r="5" transform="matrix(1 0 0 -1 15 20)" stroke="#19D7C4" stroke-width="1.5" stroke-linejoin="round"/>
</svg>
