<svg width="104" height="91" viewBox="0 0 104 91" fill="none" xmlns="http://www.w3.org/2000/svg">
<path d="M96.4896 38.813C96.8941 38.9121 97.2795 38.8888 97.6011 38.7458C97.9227 38.6028 98.1674 38.346 98.3068 38.0051C98.8026 36.7852 99.5881 35.8189 100.098 34.6283C100.151 34.491 100.052 34.2468 100.048 34.0613C100.044 33.8758 100.064 33.8053 100.131 33.7924C100.989 33.5775 100.928 32.6007 101.234 31.9244C100.494 31.1684 101.392 31.5687 101.455 31.3831C101.88 30.2856 102.206 29.1219 102.432 27.9032C102.61 26.695 102.776 25.4963 102.929 24.2811C103.087 22.6199 103.033 20.873 102.769 19.0813C102.471 16.996 101.893 14.8694 101.052 12.7673C100.405 11.191 99.6608 9.63176 98.8271 8.10176C97.9861 6.43578 96.9612 4.83246 95.7818 3.33767C95.0656 2.32272 94.2074 1.4104 93.2561 0.652802C92.9185 0.366559 92.5312 0.194395 92.1668 0.168495C91.8024 0.142596 91.4857 0.264731 91.276 0.512072C90.514 1.02231 89.8831 1.70081 89.409 2.51986C89.2869 2.70319 89.232 2.94091 89.2511 3.20381C89.2703 3.4667 89.3626 3.7433 89.5167 3.99961C89.6709 4.25592 89.8801 4.48076 90.1187 4.64648C90.3574 4.81221 90.615 4.9116 90.8599 4.93244C90.9777 4.95943 91.174 4.96411 91.1952 5.01459C91.7926 6.39759 92.774 7.63497 93.4388 9.01796C94.1036 10.4009 94.7275 11.7088 95.3484 13.073C96.7757 16.3367 97.5042 19.6788 97.4687 22.7999C97.4823 23.7063 97.2521 24.5246 97.1785 25.4064C97.1414 25.8408 97.132 26.3339 97.8437 26.4653C97.9426 26.4806 98.0609 26.7365 98.1728 26.8762C98.0533 26.8792 97.9392 26.8981 97.8329 26.9326C97.657 27.0735 97.2636 27.1592 97.2957 27.2954C97.5085 28.1501 96.8828 28.3544 96.6976 28.8804C96.5458 29.4565 96.5002 30.0905 96.5629 30.7554C96.6493 31.3779 96.5191 31.938 96.197 32.3299C96.0915 32.4144 96.1762 32.6163 95.9074 32.6293C95.6655 32.6514 95.4554 32.748 95.2985 32.9091C95.1417 33.0703 95.0439 33.2902 95.015 33.5463C94.951 33.6598 94.9361 33.8088 94.9729 33.967C95.0097 34.1251 95.0958 34.2821 95.2161 34.4104C95.3083 34.5254 95.2993 34.6945 95.3379 34.8389C95.2131 34.7029 95.0714 34.5872 94.9209 34.4984C94.6127 34.3541 94.3457 34.7298 94.5104 34.8272C94.9005 35.0139 95.2978 35.3296 94.7529 35.3344C94.0117 35.3344 93.7983 35.5728 93.8641 36.316C93.8593 36.5784 93.7972 36.8169 93.6824 37.0146C93.6217 37.0901 93.5465 37.1504 93.4595 37.193C93.0054 36.626 93.1683 37.0216 92.979 37.2541C92.4619 38.0966 91.8189 38.8246 91.0657 39.4204C90.6172 39.5865 90.2889 39.9398 90.1352 40.422C90.0733 40.7413 89.45 40.7684 89.1407 40.9351C88.8315 41.1018 88.6833 41.3014 89.0805 41.7252C89.0805 41.7252 88.9416 42.0927 88.8069 42.0927C88.292 42.0869 87.7137 41.9296 87.6294 42.6176C87.6294 42.6176 87.3239 42.6329 87.2391 42.539C86.8807 42.1516 86.8498 42.2573 86.8157 42.6353C86.8053 42.7786 86.423 42.734 86.2384 42.8279C84.91 43.4583 83.4758 43.9108 81.9583 44.1784C81.7041 44.3054 81.396 44.3372 81.0691 44.2701C80.5508 44.0916 80.7373 43.6995 80.586 43.4025C80.4297 43.1337 80.1978 42.9088 79.9386 42.7744C79.6298 42.6171 79.4336 42.5044 79.4121 42.117C79.3772 41.8598 79.3301 41.6004 79.271 41.3398L78.7121 41.4232C78.6591 41.1662 78.5357 40.9073 78.3585 40.6812C78.2861 40.5908 78.3256 40.6401 78.423 40.6295L78.4352 40.8491C78.351 40.8197 78.267 40.7832 78.1841 40.7399C78.1841 40.7399 78.1725 40.6413 78.3519 40.673C78.5313 40.7046 78.6275 40.4522 78.5486 40.3536C77.8376 39.5741 77.3497 38.5081 76.3418 38.0068C76.1091 37.8965 75.9338 37.4973 75.7297 37.2426C74.6697 35.6905 73.1702 34.7197 71.8527 33.4953C70.2773 32.0892 68.5811 30.8913 66.8226 29.943C66.3989 29.7023 66.0068 28.7079 65.4561 29.2704C64.9621 28.978 64.4871 28.6975 63.9668 28.3723C63.4718 28.0334 62.9656 27.7267 62.4519 27.4543C61.9049 27.2592 61.3579 27.1023 60.8149 26.9848C60.2607 26.8217 59.7051 26.6327 59.1537 26.5212C58.6024 26.4097 57.9206 26.3757 57.2917 26.1914C56.6629 26.0072 56.2821 26.5414 55.5252 26.2573C55.0311 26.073 54.5711 26.7247 54.0035 26.7611C53.319 26.7663 52.6698 26.8777 52.0741 27.0924C51.811 27.2086 51.5635 27.164 51.5806 27.582C51.5977 27.9999 51.2756 27.8262 51.0047 27.8004C50.7338 27.7746 50.5336 27.9214 50.8788 28.4004L50.8327 28.3428C50.9101 28.3201 50.9912 28.3048 51.0752 28.297C51.0752 28.297 51.1739 28.4203 51.1855 28.5189C51.0889 28.5094 50.9882 28.4743 50.8919 28.4168C50.2367 28.1996 50.1884 28.7644 49.9201 29.0062C49.3521 29.5557 48.9413 30.2705 48.7136 31.1056C48.5975 31.4414 48.1614 31.7502 48.6682 32.3829C48.6299 32.5676 48.5361 32.7177 48.3981 32.815C48.0009 33.0522 47.8446 33.3258 48.4255 33.8587C48.8461 34.2638 48.1619 34.4071 48.5969 35.0704C49.0056 35.7582 49.4501 36.4297 49.9274 37.0802C50.8685 38.2554 51.8097 39.4306 52.7508 40.6057C52.9796 40.6363 53.2153 40.716 53.4444 40.8401C53.6734 40.9643 53.8913 41.1305 54.0852 41.329C54.2791 41.5276 54.4453 41.7545 54.5741 41.9968C54.7029 42.239 54.7918 42.4916 54.8355 42.74C54.8882 42.8057 54.9935 42.9372 55.0725 43.0358C55.1615 42.9916 55.2386 42.9299 55.3012 42.8527C55.4664 42.6456 55.5993 42.4078 55.6968 42.1447C55.7378 42.1118 55.4269 41.8077 55.2411 41.6598C55.5117 41.3487 56.2679 41.6198 56.6525 42.1481C56.7058 42.2265 56.7654 42.3009 56.8302 42.37C56.9157 42.4768 57.0013 42.5837 57.0869 42.6905C56.9872 42.7704 56.8582 42.8737 56.7271 42.8303C56.5961 42.7868 56.4564 42.5884 56.3108 42.5027C56.2596 42.4841 56.209 42.4787 56.1635 42.4869C56.118 42.4951 56.079 42.5167 56.05 42.5497C56.0074 42.6648 55.9691 42.8573 56.0363 42.9653C56.2244 43.2364 56.4316 43.4951 56.655 43.7378C56.938 44.0912 57.4761 43.6332 57.6656 44.3987C57.8551 45.1642 58.5396 44.8049 58.9045 45.2005C59.2695 45.5961 59.6658 45.5621 60.0965 45.4869C60.273 45.4669 60.6247 45.9541 60.9247 46.1725C61.835 46.7923 61.8409 46.7876 61.9299 45.853C61.9566 45.7356 62.0001 45.6281 62.0592 45.5337C62.1518 45.6146 62.2405 45.7013 62.3247 45.7931C62.4428 45.9441 62.5482 46.104 62.639 46.2698C63.0657 47.1151 63.2347 47.29 63.7521 47.0105C64.1566 46.7945 64.3293 46.9259 64.6833 47.3439C64.7932 47.4532 64.9186 47.5394 65.0488 47.595C65.1789 47.6507 65.3097 47.6741 65.4299 47.6632C65.7589 47.5211 65.9273 47.5751 66.2601 47.9425C66.4575 48.1891 67.0724 48.452 67.123 48.371C67.5001 47.7722 68.0676 48.5048 68.5377 48.5869C69.7224 48.7441 70.9204 48.9178 72.1037 49.0492C72.7217 49.1938 73.3215 49.2124 73.8708 49.1042C74.4937 48.8482 74.7376 49.3812 74.8258 49.7558C75.0948 50.5364 75.3163 51.319 75.4887 52.098C75.5816 52.9196 75.8154 53.7655 76.1786 54.594C76.5066 55.316 76.2558 56.2048 76.1575 56.9714C76.0591 57.7381 75.7502 58.2418 75.6725 58.938C75.5684 59.4698 75.4355 59.9859 75.2745 60.4843C75.1863 60.9777 75.003 61.4173 74.7339 61.7805C74.5395 62.0306 74.7731 62.7068 74.8128 63.2011C74.8169 63.3128 74.8148 63.4226 74.8065 63.5298C73.9552 63.2 74.0895 64.185 73.5941 64.4199C73.0686 64.6179 72.6963 65.0504 72.5469 65.6363C72.4866 66.4264 71.5479 66.2879 71.5901 67.1579C71.605 67.5371 71.0028 67.7227 70.681 67.9939C70.2001 68.3791 69.7587 68.8135 69.2442 69.1446C68.7297 69.4757 68.5114 70.0687 67.6803 69.9924C67.0645 69.9326 66.946 70.9986 66.0653 70.6923C65.3322 71.3874 64.2225 71.4802 63.3724 71.9452C62.0218 72.6627 60.3396 72.7015 58.8713 73.176C57.3117 73.5465 55.683 73.7638 54.0011 73.8256C52.7046 73.9737 51.219 73.6932 50.0751 74.2721C48.4747 73.8002 47.0455 74.095 45.5443 73.9754C43.822 73.844 42.0843 73.6575 40.3678 73.5215C39.4942 73.4523 38.6084 73.1635 37.7362 73.1201C35.8095 72.9295 33.8568 72.6105 31.8887 72.1649C30.6637 71.9455 29.4111 71.5593 28.1948 71.3868C26.9786 71.2143 25.5532 70.8047 24.2607 70.6932C23.1938 70.563 22.0028 70.0735 20.8897 69.9938C19.9548 69.9341 18.9908 69.7404 18.0218 69.4175C17.0893 69.1243 16.1598 68.8996 15.2403 68.745C14.2863 68.5514 13.2995 68.2086 12.3563 68.1007C11.4753 67.8964 10.6086 67.8026 9.77432 67.8215C9.7274 67.8591 9.60523 67.7546 9.52326 67.7123C9.536 67.6129 9.57083 67.5252 9.62535 67.4552C9.95376 67.1922 10.288 66.9245 10.6165 66.6614C10.9348 66.475 11.1775 66.188 11.3234 65.8255C11.3978 65.5096 12.0152 65.4873 12.3113 65.3041C12.6074 65.1209 12.8977 64.8344 13.1968 64.5949L15.0734 63.0919C15.3824 62.7972 15.7153 62.5306 16.0704 62.2935C16.3343 62.0822 16.8154 62.142 17.0859 61.9389C17.3564 61.7357 17.4846 61.0665 17.8032 61.0676C18.3004 61.0876 18.3896 60.598 18.8019 60.632C19.3651 60.6261 18.9342 59.5953 19.7051 59.8007C20.0712 59.8852 20.3561 59.2794 20.7189 59.0833C21.7044 58.6312 21.8969 57.4653 22.445 56.6352C22.5154 56.5789 22.4461 56.3241 22.3591 56.1914C21.8672 55.3849 21.5173 55.2605 20.7262 55.3544C19.9003 55.4287 19.1596 55.7091 18.5545 56.1765C18.0666 56.4947 17.5404 56.7583 16.9812 56.9644C16.4565 57.2227 16.2345 57.9671 15.3889 57.7406C15.3142 57.7194 15.2481 57.8533 15.1719 57.9143C13.6913 58.9382 12.2114 59.975 10.7052 60.979C10.179 61.3195 9.54671 61.5156 9.01389 61.8479C8.5509 62.3188 8.02494 62.7174 7.4445 63.0374C6.43717 63.3181 5.87438 64.2139 4.95932 64.5016C3.41786 64.9808 2.43355 66.2277 1.19628 67.1107C0.533594 67.6414 -0.205322 68.2332 0.840294 69.6349C0.958761 69.7829 0.84636 70.0752 0.908335 70.3088C0.989344 70.521 1.08925 70.7303 1.2064 70.9334C1.25424 70.7832 1.31389 70.6408 1.38487 70.5072C1.38487 70.5072 1.6345 70.5906 1.66885 70.6575C1.76673 70.8758 1.78549 71.1036 1.88337 71.322C2.12148 71.8597 2.81904 72.1778 2.83072 72.8294C2.46873 72.3774 2.05398 71.9677 1.66339 71.5521C1.63048 71.511 1.51846 71.4793 1.51332 71.4969C1.50817 71.5145 1.42522 71.6754 1.45885 71.7294C2.08755 72.6827 2.73384 73.6219 3.35596 74.567C3.83771 75.3007 4.26597 76.0638 4.78363 76.7823C5.40906 77.4536 5.9745 78.1838 6.46622 78.9553C7.06736 80.2949 8.20289 81.22 8.8877 82.4116C10.1564 84.6328 11.9002 86.4736 13.4153 88.4975C13.593 88.7194 13.5668 89.1315 13.7468 89.2841C13.9268 89.4367 14.1936 89.2771 14.4345 89.3134C14.4697 89.2852 14.5924 89.5107 14.6714 89.6093C15.1321 90.1845 15.1565 89.9626 15.1249 89.5024C15.1047 89.2488 14.8974 88.6054 15.5367 89.3075C15.6749 89.48 15.9927 89.4683 16.131 89.6409C16.6246 90.2572 16.9011 90.4943 16.9996 89.6197C17.0587 89.1406 17.5719 89.3367 17.9117 89.9413C18.2515 90.5459 18.3935 90.675 18.8503 90.1878C18.9 90.1391 18.9699 90.1163 19.0488 90.1232C19.4362 90.1501 19.4538 90.136 19.2834 89.9353C19.1193 89.7863 18.9819 89.6042 18.885 89.4073C18.7881 89.2104 18.735 89.0055 18.7311 88.8129C17.9981 88.739 18.3751 88.2482 18.248 87.9453C18.1973 87.7805 18.122 87.6173 18.0252 87.4628C16.6412 85.4823 15.4661 83.402 14.022 81.4426C12.8265 79.925 11.6889 78.3642 10.614 76.7666C9.82144 75.5299 8.96263 74.329 8.04399 73.173C7.97818 73.0908 7.97687 72.957 7.94625 72.8466C8.05183 72.8565 8.16057 72.8829 8.26913 72.9252C8.46527 73.0379 8.73392 73.133 8.84724 73.2985C9.36849 74.0816 10.2759 74.6498 10.43 75.6594C10.4591 75.852 10.7525 76.0621 10.9105 76.2593C12.0667 77.7275 13.1462 79.252 14.1406 80.8215C14.7911 81.9462 15.7186 82.876 16.3054 83.9572C17.147 85.3149 18.0829 86.6242 19.1013 87.869C19.4834 88.5799 19.9154 89.2721 20.3922 89.9376C20.8815 90.4764 20.7566 90.2123 20.9972 89.9117C21.4431 89.3387 20.9255 88.6202 20.7532 88.1647C20.2932 87.2832 19.7526 86.4307 19.1421 85.6242C18.5872 84.7871 18.0441 83.9407 17.4767 83.1001C16.9094 82.2595 16.1191 81.7054 15.9365 80.7321C15.919 80.6382 15.7719 80.5267 15.693 80.428C14.2233 78.4487 12.7601 76.4776 11.3088 74.4971C11.1042 74.1965 10.9339 73.8786 10.8031 73.5531C10.7461 73.4099 10.6713 72.9438 11.0195 73.2584C11.9683 74.1307 12.7287 73.3734 13.672 73.9263C14.0899 74.1716 14.6202 74.1246 15.1289 74.3512C15.3302 74.4462 15.5648 74.2584 15.8351 74.1633L15.7824 74.2055C15.732 74.1093 15.6915 74.0103 15.6619 73.9108C15.6619 73.9108 15.7498 73.8404 15.8428 73.8604C15.8778 73.9853 15.8825 74.1073 15.8563 74.2137C17.0369 74.8726 18.2675 75.1403 19.3532 74.9743L19.3063 75.0118C19.2507 74.9185 19.208 74.8204 19.1799 74.7218C19.1799 74.7218 19.2679 74.6514 19.3609 74.6714C19.3813 74.7794 19.3787 74.8831 19.3532 74.9743C19.8947 75.3499 20.4692 75.6586 20.9304 75.2489C20.9866 75.2219 21.0529 75.2124 21.1236 75.2214C21.1944 75.2304 21.2677 75.2575 21.3375 75.3005C21.8225 75.5799 22.3255 75.7617 22.8145 75.8344C23.3035 75.9072 23.768 75.8692 24.1786 75.7229C24.2431 75.6713 24.4057 75.6219 24.4379 75.6501C24.7604 76.0528 25.2309 75.8109 25.3859 75.9565C26.3406 76.824 27.1293 76.2463 28.0319 76.6161C28.915 76.8597 29.7896 77.0048 30.6408 77.0491C31.1665 77.1406 31.693 77.2451 32.218 77.3237C32.743 77.4023 33.1297 77.4164 33.5924 77.4774C34.2222 77.5666 34.9944 77.9058 35.4297 77.6921C35.865 77.4784 36.0994 78.0595 36.4282 78.0255C36.7585 77.9937 37.1102 78.0266 37.4688 78.1228C38.3642 78.3705 39.242 78.4488 40.0603 78.3539C40.945 78.3372 41.8635 78.4392 42.7968 78.6578C43.3195 78.7835 43.8317 78.8278 44.3171 78.7891C45.0177 78.653 45.7961 78.7185 46.5879 78.9803C47.5667 79.1768 48.5283 79.2614 49.4562 79.2325C51.1251 79.2642 52.7652 79.1979 54.3699 79.0337C55.4619 78.955 56.5394 78.834 57.654 78.8315C58.7108 78.7917 59.7277 78.6367 60.691 78.3687C61.2353 78.243 61.8581 78.54 62.4114 78.2453C63.3285 77.8957 64.3116 77.6689 65.3446 77.5688C66.2903 77.3914 67.2061 77.1166 68.1569 76.9217C68.8527 76.6744 69.505 76.3506 70.1061 75.9541C70.4286 75.8038 70.8124 75.7662 71.1348 75.6159C72.7193 74.9625 74.2002 74.1375 75.5612 73.15C76.3001 72.5582 77.4712 72.4701 77.9746 71.6083C78.516 70.9233 79.1043 70.2855 79.7368 69.6979C80.2766 69.0498 80.7111 68.2702 81.2325 67.6233C82.3 66.1852 83.0904 64.4969 83.5762 62.6169C84.0105 60.9651 84.2931 59.227 84.4209 57.4216C84.4267 56.9797 84.3827 56.5216 84.29 56.0562C84.263 55.9024 84.1051 55.7052 84.1228 55.5831C84.3816 54.1259 84.2617 52.4983 83.774 50.8446C83.55 50.1202 83.3326 49.404 83.1262 48.6656C83.1076 48.5651 83.108 48.4682 83.1274 48.3808C83.1467 48.2934 83.1847 48.2173 83.2389 48.1572C83.9162 47.5707 84.8334 47.3089 85.8557 47.4103C86.1326 47.4314 86.3327 47.2846 85.858 46.788C85.779 46.6894 85.8185 46.7387 85.9225 46.7364L85.9405 46.9512C85.8562 46.9269 85.7716 46.8901 85.6894 46.8421C85.6894 46.8421 85.6844 46.7517 85.858 46.788C86.6814 46.7814 87.488 46.721 88.2735 46.607C88.3243 46.6002 88.3697 46.5812 88.407 46.5513C88.4443 46.5215 88.4727 46.4813 88.4905 46.4333C88.5113 46.1468 88.5007 45.8451 88.5025 45.5469C88.7726 45.6678 88.9435 46.0974 89.3261 45.818C91.1381 44.4747 93.154 43.4942 94.7641 41.9349C94.9752 41.7659 95.2955 41.5768 95.287 41.3138C95.268 40.0881 95.9589 39.845 96.8752 39.6911C97.3667 39.6078 96.889 39.1675 96.4999 38.7778C96.4275 38.6874 96.467 38.7367 96.5644 38.7261L96.5766 38.9456C96.4924 38.9163 96.4084 38.8798 96.3255 38.8365C96.3255 38.8365 96.3168 38.7895 96.4896 38.813ZM81.6147 50.4561L81.348 50.5078C81.3501 50.3461 81.3857 50.1981 81.4526 50.0734C81.4526 50.0734 81.26 50.0253 81.252 49.9912C81.1339 49.6619 81.0397 49.3313 80.9705 49.0027C80.9244 48.9452 81.0652 48.8325 81.1699 48.843C81.2746 48.8536 81.4035 48.8583 81.4686 48.9275C81.5465 49.0427 81.6064 49.1666 81.6448 49.2921C81.6831 49.4175 81.6992 49.542 81.6919 49.6582C81.6847 49.7745 81.6544 49.8802 81.6027 49.9692C81.551 50.0582 81.479 50.1287 81.3909 50.1767L81.641 50.489C81.7152 50.4649 81.7946 50.4511 81.8776 50.4479C81.8776 50.4479 81.9763 50.5712 81.9938 50.6651C81.9286 50.6557 81.8615 50.6325 81.7964 50.5966C81.7314 50.5607 81.6696 50.513 81.6147 50.4561ZM99.4008 30.1282L99.279 29.6997C99.3537 29.7208 99.4701 29.722 99.4906 29.7596C99.5788 29.9414 99.6585 30.1252 99.7294 30.3102C99.635 30.2644 99.5398 30.2057 99.6416 29.6116C99.4103 29.5271 99.3121 29.5248 99.2785 29.4708C99.1762 29.3295 99.0839 29.1821 99.0029 29.0305C99.0557 28.9883 99.1437 28.9178 99.1832 28.9671C99.3214 29.1397 99.4354 29.3181 99.4008 30.1282ZM76.5026 43.8806L76.4087 43.9558C76.3532 43.8624 76.3105 43.7644 76.2824 43.6658C76.2824 43.6658 76.3703 43.5954 76.4567 43.6071C76.5431 43.6188 76.4851 43.7867 76.0264 44.5722C76.0698 44.411 76.1291 44.2597 76.2035 44.1202C76.265 44.0571 76.3337 44.0021 76.4087 43.9558C76.4349 44.0967 76.5314 44.2892 76.4873 44.3784C76.4433 44.4677 76.266 44.4747 76.5026 43.8806ZM62.4299 41.7297C62.6911 41.9117 62.8177 41.9856 62.9267 42.0737C63.0094 42.1646 63.0864 42.2608 63.1571 42.3613C63.034 42.3519 62.8707 42.3883 62.7748 42.3167C62.679 42.2451 62.606 42.0338 63.3398 42.6736L63.2626 42.2767C63.3571 42.3225 63.4925 42.3354 63.5452 42.4012C63.6322 42.5461 63.7044 42.6968 63.76 42.8496C63.6348 42.8015 63.5352 42.7734 62.4299 41.7297ZM60.1348 33.5995L60.162 34.0903C60.2871 34.2464 60.5042 34.5176 60.5174 34.534C61.0727 34.3861 61.5643 34.8557 62.0949 35.1456C63.3053 35.966 64.4883 36.8569 65.6364 37.8128C66.0249 38.0816 66.4744 38.2342 66.7477 38.7437C66.853 38.8752 66.853 38.8752 66.9823 38.5559C67.0077 38.5102 67.0453 38.4754 67.092 38.4544C67.1387 38.4334 67.1932 38.4267 67.2512 38.4349C67.6115 38.5241 67.8778 38.6885 67.9562 38.1132C68.0345 37.5379 68.565 38.4888 68.8691 38.3397C68.963 38.2645 69.1061 37.9745 69.2843 38.4254C69.3916 38.7036 69.474 38.9748 69.5631 39.2542C69.4759 39.2296 69.3543 39.246 69.3024 39.1932C68.5513 38.3514 68.6167 39.4187 68.2102 39.38C68.2892 39.4786 68.3476 39.6476 68.4538 39.684C68.718 39.8096 69.0431 39.819 69.2377 40.0139C69.6466 40.4283 69.9749 40.9343 70.3434 41.3945C70.712 41.8547 71.2244 42.0378 71.309 42.3477C71.4928 43.0099 72.2554 42.8443 72.3572 43.4642C72.3862 43.6567 72.5682 43.9561 72.4993 44.0383C72.2829 44.333 72.0628 44.0101 71.8588 43.7554C71.5297 43.3445 71.2007 42.9336 70.8716 42.5227C70.7378 42.3978 70.596 42.2853 70.4487 42.187C70.4797 42.3371 70.5359 42.4888 70.6144 42.6343C70.904 42.9958 71.1936 43.3574 71.4766 43.7108C71.5699 43.8664 71.645 44.0289 71.6994 44.1933L71.2379 44.2661L71.4973 44.7463C71.3748 44.7422 71.2464 44.7124 71.1188 44.6583C70.8721 44.5186 70.6365 44.3566 70.3892 44.204C70.1079 44.056 69.8221 43.9368 69.5364 43.8483C67.599 43.4845 65.7181 42.374 63.8077 41.503C62.398 40.8037 61.0263 39.9126 59.7345 38.857C57.9517 37.4988 56.3422 35.829 55.0093 33.9545C54.7329 33.6093 54.3963 33.2853 54.4504 32.8239C54.4666 32.676 54.3446 32.4635 54.2796 32.2862C54.3915 32.4259 54.5495 32.6232 54.6901 32.6184C55.3315 32.6982 55.96 32.6536 56.6043 32.785C57.174 32.9745 57.7434 33.2035 58.3084 33.4705C58.9211 33.6947 59.5061 33.8602 60.1576 34.1208C60.1423 33.772 60.1478 33.4297 60.1742 33.0959C60.7606 32.6262 61.0213 32.6872 61.3332 33.3411C61.3727 33.3904 61.2561 33.4973 61.2055 33.5783C60.6724 32.9127 60.5144 33.3764 60.2176 33.5467C60.1765 33.5796 60.0755 33.5256 60.0001 33.4915C59.9815 33.4348 59.9762 33.3785 59.9849 33.3283C60.0745 33.1757 60.161 33.0794 60.1348 33.5995ZM53.5633 40.3462C53.3521 40.1066 53.1521 39.8568 52.9644 39.5984C52.9118 39.5326 52.9801 39.3295 53.0519 39.299C53.1647 39.2616 53.2976 39.2682 53.4327 39.3177C53.6505 39.9215 53.9872 40.5066 54.4157 41.0259C54.4157 41.0259 54.428 41.1374 54.425 41.1938C54.4221 41.2501 54.2149 41.1598 54.1564 41.0987C53.9589 40.8522 53.7549 40.5974 51.69 38.4878C51.407 38.1344 51.1239 37.7811 50.8409 37.4277C50.7751 37.3455 50.768 37.2164 50.7315 37.1107C50.8245 37.1307 50.9468 37.1271 50.9994 37.1929C51.5654 37.8996 52.1314 38.6064 52.6974 39.3131C52.7369 39.3624 52.7119 39.4634 52.7162 39.5409C52.6159 39.4998 52.4856 39.4693 52.4139 39.3918C52.2063 39.0724 51.9628 38.7684 53.5633 40.3462ZM72.4526 42.6458C72.084 42.1856 71.7155 41.7254 71.3403 41.257C71.22 41.0597 71.12 40.8541 71.043 40.6454C71.262 40.6925 71.4829 40.7592 71.7033 40.8449C71.9548 40.9697 72.2014 41.1205 72.4388 41.2945C72.4388 41.2945 72.4869 41.4988 72.451 41.5141C72.0516 41.7125 72.2886 42.0083 72.5584 42.3453C73.0125 42.9123 73.4667 43.4793 73.9142 44.0382C73.98 44.1203 73.9689 44.2507 73.9871 44.3575C73.8861 44.3035 73.7557 44.273 73.6899 44.1908C73.2753 43.6731 72.8672 43.1636 72.675 41.5774L72.5632 41.4377C72.6408 41.413 72.7245 41.4003 72.8122 41.4001C72.8122 41.4001 72.9043 41.5152 72.9218 41.6091C72.9393 41.703 72.7673 41.5845 72.4526 42.6458ZM78.9088 42.8708C79.0446 43.2206 79.1943 43.5998 79.3191 43.972C79.3789 44.1669 79.4642 44.4897 79.4049 44.5238C79.3231 44.5611 79.229 44.5764 79.1285 44.5687C79.028 44.561 78.9231 44.5306 78.8205 44.4792C78.5214 44.3082 78.2553 44.044 78.0685 43.7326C77.4808 42.1934 76.2348 41.1545 75.2675 39.8384C74.9779 39.4769 74.2686 39.1681 74.2235 38.9075C74.0606 37.9589 73.3351 37.6901 72.7953 37.1242C71.5213 35.7767 70.1571 34.5365 68.7248 33.4239C68.6524 33.3335 68.6102 33.1245 68.546 32.9602C68.7239 32.966 68.9898 32.9014 69.0622 32.9918C69.3035 33.3633 69.599 33.7015 69.9314 33.9865C70.2638 34.2715 70.6264 34.4977 70.9981 34.6518C71.1026 34.6997 71.2034 34.7689 71.2938 34.8547C71.3841 34.9406 71.4618 35.0411 71.5219 35.1496C71.8683 35.7624 72.4819 35.8915 72.9002 36.3658C73.0187 36.5137 73.2185 36.5829 73.3487 36.7215C73.4789 36.86 75.2059 38.6198 75.3413 38.7407C75.6763 39.0389 76.1832 39.0107 76.3398 39.735C76.4381 40.1824 77.0769 40.6555 77.2631 41.1403C77.3095 41.3347 77.4013 41.529 77.5293 41.7036C77.6573 41.8781 77.8169 42.0269 77.9921 42.1347C78.3166 42.3635 78.6301 42.6181 78.9286 42.8954L78.9088 42.8708ZM59.6151 40.1262C59.7393 40.3774 59.8489 40.5864 59.9592 40.8083C59.713 40.7727 59.461 40.6972 59.2118 40.5841C58.8768 40.3493 58.5481 40.0993 58.2269 39.8351C57.2725 39.2392 56.3909 38.4508 55.6488 37.5295C55.4921 37.2564 55.2707 37.0179 55.0168 36.8486C54.1831 36.5046 54.0606 36.0632 54.3389 35.4491C54.4151 35.3881 54.2272 35.0934 54.1557 34.9079C54.3022 35.0107 54.4408 35.1312 54.5676 35.266C55.0151 35.8248 55.4692 36.3918 55.9168 36.9506C56.3798 37.4429 56.8706 37.9028 57.3835 38.3253C58.1554 38.9886 58.8776 39.5298 59.6151 40.1262ZM53.7221 37.3594C54.3276 38.1154 54.4198 38.2305 54.1692 38.3502C53.4804 38.6321 54.0659 37.7045 53.6229 37.6682C53.6229 37.6682 53.5439 37.5695 53.489 37.5731C52.9288 37.5226 52.9938 37.0389 53.0899 36.8945C53.3035 36.5481 53.4317 37.0929 53.6095 37.2068C53.7874 37.3206 53.6826 37.3101 53.7221 37.3594ZM3.5861 74.4096C3.51325 74.0903 2.89466 73.8708 2.98242 73.3554C3.25885 73.7005 3.59392 73.9987 3.88135 74.3215C4.05453 74.5198 4.21937 74.7256 4.37497 74.9379C4.37497 74.9379 4.34695 75.0952 4.31391 75.1621C4.28088 75.229 4.19675 75.148 4.16384 75.107C3.9883 74.9238 3.82376 74.7184 3.58024 74.4143L3.5861 74.4096ZM92.5396 2.08991C92.4636 1.93494 92.4103 1.85628 92.4213 1.83397C92.4323 1.81166 92.5444 1.73534 92.5679 1.71655C92.7727 1.77041 92.9787 1.85003 93.1813 1.95367C93.2274 2.01119 93.3195 2.12624 93.3692 2.24834C93.2988 2.3047 93.1991 2.38454 93.0666 2.31528C92.8898 2.25991 92.7131 2.18431 92.5396 2.08991ZM59.0725 42.4896C58.7695 42.3276 58.4738 42.1867 58.1826 42.0153C58.1748 41.9161 58.1907 41.8245 58.229 41.7488C58.2935 41.6972 58.4167 41.5985 58.462 41.6431C58.6885 41.8417 58.9018 42.0597 59.0984 42.2935C59.0984 42.2935 59.0763 42.4461 59.0725 42.4896ZM95.9329 33.3102L96.4611 33.2245C96.4791 33.4393 96.5732 33.8091 96.483 33.8408C96.3929 33.8726 96.0327 33.7834 95.8035 33.7376L95.9329 33.3102ZM4.59897 73.7873L4.70747 74.3074C4.56321 74.2098 4.42954 74.0878 4.31389 73.9481C4.22154 73.7736 4.15159 73.593 4.10654 73.4128C4.27335 73.549 4.40798 73.657 4.59897 73.7873ZM54.708 39.1192L54.505 38.6613L55.2028 38.7634C55.1902 38.8679 55.2047 39.0182 55.1512 39.0476C55.0234 39.1044 54.8833 39.1395 54.7343 39.1521L54.708 39.1192ZM67.6396 32.7419C67.476 32.6464 67.3176 32.5333 67.1676 32.405C67.1149 32.3392 67.1136 32.2054 67.083 32.095L67.7909 32.3779L67.6396 32.7419ZM57.7371 43.3702C57.6371 43.1131 57.5947 43.0122 57.5524 42.9112L58.2239 42.9804C58.2106 43.072 58.2251 43.2223 58.165 43.2434C58.0324 43.3045 57.889 43.3471 57.7371 43.3702ZM78.6548 49.5488L78.4518 49.091L79.1496 49.193C79.1304 49.2893 79.1574 49.4431 79.1039 49.4725C78.9615 49.5144 78.8112 49.5399 78.6548 49.5488ZM93.5988 38.9294C93.7123 38.987 93.8741 39.0327 93.9018 39.0914C93.9592 39.2768 93.9861 39.4611 93.981 39.635C93.981 39.635 93.7591 39.6104 93.642 39.5963L93.5988 38.9294ZM94.7535 39.7582C94.6476 39.5058 94.5994 39.4096 94.5504 39.3004L95.2483 39.4025C95.2416 39.5023 95.256 39.6525 95.2025 39.6819C95.0403 39.7048 94.8697 39.7056 94.6943 39.6843L94.7535 39.7582ZM57.9736 32.2953C57.9409 32.1462 57.8649 31.9912 57.9008 31.976C58.013 31.9163 58.1333 31.8695 58.2605 31.8362C58.2905 31.9337 58.3657 32.0757 58.3364 32.0992C58.2113 32.149 58.0779 32.1836 57.9379 32.2026L57.9736 32.2953ZM65.3955 36.5624C65.4458 36.6974 65.4976 36.8583 65.5429 37.0109C65.4484 36.9651 65.3123 36.9393 65.2589 36.8607C65.1711 36.7099 65.1006 36.553 65.0493 36.3946L65.3955 36.5624ZM90.2604 44.773L89.8414 44.8388C89.8248 44.7131 89.835 44.5944 89.8711 44.4913C89.9239 44.449 90.0403 44.4502 90.1319 44.4443L90.2604 44.773ZM79.1661 68.0238L79.4588 68.221C79.4001 68.268 79.4219 68.4394 79.356 68.4652C79.2429 68.4692 79.1246 68.455 79.0045 68.423L79.1661 68.0238ZM49.4735 30.7803L49.4828 30.9482C49.402 30.9074 49.3232 30.8573 49.2479 30.7991C49.2479 30.7991 49.2421 30.6958 49.2327 30.6359L49.4735 30.7803ZM2.87605 71.66L2.79362 71.3888C2.79362 71.3888 2.9298 71.4146 2.94955 71.4393C2.98992 71.5255 3.02154 71.6134 3.04371 71.7011L2.87605 71.66ZM52.6633 34.1742L52.6276 33.9735C52.7092 34.0105 52.7886 34.061 52.8625 34.1226C52.8625 34.1226 52.8741 34.2212 52.8711 34.2775L52.6633 34.1742ZM62.129 34.2146L62.1197 34.0467C62.2004 34.0875 62.2793 34.1375 62.3546 34.1958C62.3546 34.1958 62.3603 34.2991 62.3698 34.359L62.129 34.2146ZM66.5952 31.474C66.6282 31.5151 66.7314 31.4998 66.7453 31.5291C66.7875 31.6134 66.8211 31.6998 66.8453 31.7862C66.816 31.8097 66.7099 31.7733 66.696 31.744C66.6515 31.6556 66.6176 31.5646 66.5952 31.474ZM67.1581 37.309L67.1627 37.1705C67.2434 37.2113 67.3223 37.2613 67.3976 37.3195C67.3976 37.3195 67.4033 37.4229 67.4062 37.4745C67.409 37.5262 67.2108 37.3747 67.1581 37.309ZM58.9322 44.1532L58.7579 44.1039C58.7766 44.0307 58.8014 43.9613 58.8321 43.8961C58.8321 43.8961 58.931 43.9114 58.9808 43.9255L58.9322 44.1532ZM72.6018 39.7072L72.6053 39.8798C72.5245 39.839 72.4457 39.7889 72.3704 39.7307C72.3704 39.7307 72.3646 39.6274 72.3552 39.5675L72.6018 39.7072ZM66.5113 47.2827L66.3495 47.2369C66.3625 47.1591 66.3852 47.0866 66.4171 47.0209C66.4171 47.0209 66.5167 47.049 66.5665 47.0631L66.5113 47.2827ZM76.8045 44.9067C76.8045 44.9067 76.7718 44.7576 76.7959 44.7518C76.8697 44.7354 76.9472 44.7275 77.0274 44.7283C77.0274 44.7283 77.0477 44.8738 77.0301 44.8879C76.959 44.9047 76.8833 44.9111 76.8045 44.9067ZM74.9517 48.6028L74.7195 48.6134C74.7195 48.6134 74.6926 48.4596 74.7168 48.4537C74.7861 48.4327 74.8623 48.4263 74.9423 48.4349L74.9517 48.6028ZM75.2361 49.643L75.2326 49.4704C75.3117 49.513 75.3886 49.5647 75.4616 49.6242C75.4616 49.6242 75.4732 49.7228 75.4827 49.7827L75.2361 49.643ZM75.5858 50.5364L75.5034 50.2652C75.5034 50.2652 75.6395 50.2911 75.6593 50.3157C75.698 50.4022 75.7295 50.4899 75.7535 50.5775L75.5858 50.5364ZM97.8521 33.5672L97.8487 33.3946C97.9278 33.4372 98.0047 33.4888 98.0777 33.5484C98.0777 33.5484 98.0893 33.647 98.0922 33.6987L97.8521 33.5672ZM93.2349 37.6697L93.4612 37.6638C93.4612 37.6638 93.4939 37.8129 93.4698 37.8188C93.3987 37.8356 93.3229 37.8419 93.2442 37.8376L93.2349 37.6697ZM94.3188 37.6649L94.157 37.6192C94.17 37.5414 94.1927 37.4689 94.2246 37.4031C94.2246 37.4031 94.3242 37.4313 94.3798 37.4407L94.3188 37.6649ZM96.7074 36.6691L96.625 36.3979C96.625 36.3979 96.7612 36.4238 96.7809 36.4484C96.8213 36.5346 96.8529 36.6225 96.8751 36.7102L96.7074 36.6691ZM91.9268 42.0221L91.8737 41.7274C91.9066 41.7685 92.0099 41.7532 92.0238 41.7825C92.0694 41.8661 92.1033 41.953 92.1238 42.0396L91.9268 42.0221ZM87.5316 46.0412L87.4498 45.7829C87.4498 45.7829 87.5853 45.7958 87.5992 45.8252C87.6437 45.9136 87.6776 46.0045 87.6999 46.0952L87.5316 46.0412ZM82.8784 50.712C82.8784 50.712 82.8522 50.5711 82.8764 50.5652C82.9431 50.5415 83.0172 50.5324 83.0954 50.5382C83.0954 50.5382 83.1282 50.6873 83.104 50.6932C83.0376 50.7034 82.9679 50.705 82.896 50.6979L82.8784 50.712ZM79.7684 52.9465C79.7684 52.9465 79.9046 52.9723 79.9243 52.9969C79.9647 53.0831 79.9963 53.171 80.0185 53.2587C80.0185 53.2587 79.8889 53.2411 79.8691 53.2165C79.8331 53.122 79.8053 53.0268 79.786 52.9324L79.7684 52.9465Z" fill="#FAC515"/>
</svg>
