<svg width="85" height="107" viewBox="0 0 85 107" fill="none" xmlns="http://www.w3.org/2000/svg">
<g clip-path="url(#clip0_13092_8793)">
<path d="M66.2552 29.9674C66.5716 29.9028 66.8499 29.7527 67.0579 29.5344C67.2659 29.316 67.3951 29.0385 67.4306 28.7338C67.5553 27.6446 67.9424 26.6466 68.083 25.5747C68.0954 25.4528 67.9746 25.3031 67.9352 25.1649C67.8957 25.0266 67.897 24.9665 67.9434 24.9338C68.5309 24.4768 68.2951 23.762 68.3867 23.1476C67.6951 22.833 68.4328 22.8254 68.4428 22.664C68.5394 21.6913 68.5509 20.7026 68.4773 19.7073C68.371 18.7363 68.2579 17.7764 68.1319 16.8087C67.922 15.5034 67.5399 14.2064 66.9948 12.948C66.3671 11.4802 65.5257 10.0776 64.4967 8.78377C63.7121 7.81964 62.8605 6.90129 61.9485 6.03595C61.0045 5.07073 59.9378 4.21596 58.779 3.49608C58.0543 2.97817 57.2455 2.58641 56.3987 2.34317C56.0948 2.24377 55.7768 2.24735 55.5042 2.35322C55.2317 2.4591 55.0232 2.66003 54.9177 2.91845C54.4585 3.56483 54.1285 4.29284 53.9411 5.07275C53.8874 5.25282 53.8938 5.45071 53.9594 5.6421C54.025 5.83348 54.147 6.01002 54.3104 6.15C54.4738 6.28999 54.6715 6.38731 54.8791 6.43002C55.0868 6.47272 55.2953 6.45895 55.4792 6.39038C55.571 6.37015 55.7159 6.30615 55.7414 6.33688C56.4511 7.17281 57.4141 7.76699 58.1732 8.57973C58.9324 9.39247 59.6468 10.1627 60.37 10.9764C62.0577 12.9431 63.2478 15.2092 63.8338 17.5718C64.0215 18.2497 64.013 18.9451 64.1319 19.6344C64.1898 19.9743 64.2796 20.3489 64.8278 20.203C64.9033 20.1805 65.0404 20.3325 65.1499 20.3992C65.0628 20.4426 64.9828 20.4961 64.9115 20.5586C64.81 20.7252 64.5381 20.9251 64.5883 21.0167C64.9121 21.5871 64.493 21.9562 64.4602 22.416C64.4617 22.9021 64.5526 23.3952 64.7289 23.8744C64.9144 24.3134 64.9287 24.78 64.7691 25.1859C64.7082 25.2859 64.81 25.4088 64.6153 25.511C64.4421 25.6109 64.3068 25.7559 64.2233 25.9312C64.1398 26.1065 64.1111 26.3058 64.1401 26.5086C64.1154 26.6161 64.1336 26.7335 64.1917 26.8399C64.2497 26.9463 64.3437 27.0349 64.4572 27.0901C64.5474 27.145 64.5739 27.2754 64.6306 27.3709C64.5123 27.3114 64.3856 27.273 64.2577 27.258C64.0032 27.2553 63.8809 27.6301 64.0209 27.6468C64.3438 27.6531 64.6974 27.7543 64.2984 27.9453C63.7544 28.2003 63.6445 28.4532 63.8385 28.9903C63.8864 29.1895 63.8876 29.3905 63.8421 29.5788C63.8124 29.6566 63.769 29.7279 63.7135 29.7899C63.269 29.5192 63.4661 29.7611 63.3728 30.0012C63.1585 30.8136 62.8293 31.583 62.3933 32.2908C62.0966 32.5702 61.925 32.9492 61.9067 33.3652C61.9239 33.627 61.4717 33.8618 61.2774 34.0938C61.0831 34.3257 61.0135 34.527 61.3881 34.7095C61.3881 34.7095 61.3583 35.034 61.2594 35.0804C60.8803 35.2531 60.425 35.3337 60.498 35.8808C60.498 35.8808 60.2768 35.9974 60.1962 35.9558C59.8571 35.7874 59.8552 35.8776 59.9043 36.174C59.9247 36.2855 59.6354 36.3834 59.5183 36.5177C58.6669 37.4494 57.7029 38.2837 56.6416 39.0072C56.4799 39.1904 56.26 39.3203 56.0069 39.3822C55.5915 39.4261 55.6515 39.0667 55.4822 38.895C55.3148 38.7464 55.1005 38.6568 54.8839 38.6448C54.6263 38.6326 54.4603 38.6152 54.3685 38.3309C54.2924 38.1492 54.207 37.9701 54.1125 37.7941L53.7186 38.0492C53.6293 37.8739 53.488 37.7214 53.3136 37.6121C53.2427 37.569 53.2814 37.5925 53.3508 37.551L53.4028 37.7122C53.3353 37.719 53.2664 37.7204 53.1971 37.7163C53.1971 37.7163 53.1693 37.6461 53.3071 37.6082C53.445 37.5703 53.4662 37.3471 53.3889 37.3001C52.7142 36.9576 52.147 36.3227 51.3089 36.292C51.1165 36.289 50.9095 36.0487 50.7098 35.9271C49.6274 35.123 48.3364 34.9078 47.1293 34.4391C45.6972 33.9222 44.2173 33.6037 42.7407 33.4946C42.3825 33.4591 41.8997 32.8452 41.6058 33.4582C41.1859 33.408 40.7822 33.3601 40.3365 33.2943C39.9067 33.2094 39.475 33.1526 39.0446 33.1242C38.6048 33.1655 38.1726 33.2355 37.751 33.3338C37.3122 33.4016 36.8673 33.4505 36.4408 33.5562C36.0143 33.662 35.5072 33.8709 35.0095 33.9485C34.5117 34.0261 34.337 34.5594 33.7258 34.6059C33.3269 34.6371 33.1171 35.2861 32.7076 35.5088C32.2062 35.7482 31.7516 36.0555 31.3564 36.4221C31.1861 36.6001 30.9957 36.6517 31.0902 36.9606C31.1847 37.2694 30.9143 37.2494 30.7104 37.3232C30.5064 37.397 30.3883 37.5763 30.7356 37.8183L30.6905 37.7908C30.7428 37.7471 30.7993 37.7076 30.8595 37.6729C30.8595 37.6729 30.9561 37.7318 30.9839 37.8021C30.9112 37.8281 30.8304 37.8363 30.7485 37.8261C30.225 37.888 30.3003 38.3299 30.1507 38.6044C29.8416 39.2136 29.6803 39.8932 29.6769 40.6004C29.6575 40.8932 29.3979 41.2758 29.894 41.5779C29.9021 41.7301 29.8627 41.8754 29.7805 41.9962C29.5355 42.3115 29.4744 42.5713 30.0053 42.7728C30.3934 42.9331 29.9193 43.2764 30.3687 43.6262C30.8036 44.0036 31.2615 44.3563 31.7394 44.682C32.6606 45.2432 33.5819 45.8044 34.5031 46.3655C34.677 46.3098 34.8656 46.2887 35.0581 46.3034C35.2506 46.3181 35.4431 46.3683 35.6244 46.4511C35.8056 46.5339 35.9721 46.6477 36.1142 46.7857C36.2562 46.9238 36.371 47.0835 36.4518 47.2555C36.5033 47.2869 36.6064 47.3497 36.6837 47.3968C36.7404 47.3329 36.7849 47.2598 36.8156 47.1801C36.8963 46.9674 36.9472 46.7426 36.9672 46.5109C36.9908 46.472 36.703 46.35 36.5376 46.3026C36.6752 45.9751 37.2834 45.9192 37.6693 46.1847C37.7238 46.2254 37.7821 46.2609 37.8433 46.2906C37.927 46.3416 38.0108 46.3927 38.0945 46.4437C38.037 46.5381 37.9626 46.6603 37.8579 46.6727C37.7532 46.6851 37.6118 46.5837 37.4881 46.5693C37.4469 46.5729 37.4087 46.5862 37.3769 46.608C37.3451 46.6299 37.3207 46.6595 37.3059 46.6944C37.2972 46.7957 37.3068 46.9539 37.3773 47.0121C37.5685 47.1515 37.7713 47.275 37.9829 47.3809C38.2599 47.5497 38.5651 47.0197 38.8543 47.5309C39.1435 48.0422 39.5754 47.5361 39.9209 47.7085C40.2663 47.8808 40.5505 47.7188 40.8519 47.514C40.9776 47.4383 41.3312 47.6842 41.5942 47.7454C42.384 47.899 42.3873 47.8934 42.2694 47.159C42.266 47.0614 42.2768 46.9655 42.3017 46.874C42.3855 46.9031 42.4677 46.9379 42.5474 46.9781C42.6637 47.0511 42.7725 47.1353 42.8716 47.2289C43.3506 47.7186 43.5089 47.7922 43.8339 47.4037C44.0884 47.1019 44.2409 47.1415 44.5827 47.3344C44.6848 47.3789 44.7938 47.4007 44.9002 47.3978C45.0066 47.3949 45.1072 47.3675 45.1933 47.318C45.4069 47.0978 45.5411 47.0805 45.8574 47.2427C46.0507 47.3605 46.5536 47.3469 46.5748 47.2685C46.7342 46.6878 47.2944 47.0442 47.6555 46.9444C48.556 46.6552 49.4693 46.3738 50.3636 46.0656C50.8456 45.9619 51.2895 45.7696 51.6715 45.4991C52.0784 45.092 52.362 45.4095 52.5001 45.6612C52.8507 46.1565 53.1667 46.6696 53.446 47.1969C53.6753 47.7837 54.0128 48.3403 54.4418 48.8392C54.8242 49.2701 54.8144 50.0256 54.8925 50.6368C54.9707 51.248 54.8428 51.7336 54.9222 52.2846C54.9501 52.7209 54.9538 53.1553 54.9333 53.586C54.9653 53.9879 54.917 54.382 54.7907 54.7481C54.6971 55.0033 55.0011 55.4322 55.1272 55.7907C55.1521 55.8734 55.1721 55.9568 55.1871 56.0404C54.4975 56.0849 54.7893 56.7805 54.4717 57.1278C54.1248 57.4578 53.9364 57.9115 53.9416 58.4041C54.0523 59.0199 53.3361 59.2386 53.5377 59.8792C53.623 60.1596 53.2174 60.5065 53.0344 60.8215C52.7569 61.277 52.5181 61.756 52.2054 62.1824C51.8927 62.6087 51.8488 63.1303 51.2238 63.3588C50.7601 63.5257 50.8822 64.3692 50.1757 64.4415C49.7739 65.2172 48.9776 65.6689 48.4448 66.3115C47.5942 67.3165 46.3671 67.9245 45.3825 68.7869C44.3104 69.6025 43.1575 70.3265 41.9351 70.9517C41.0126 71.5092 39.8672 71.8092 39.1411 72.6387C37.8739 72.8339 36.8827 73.5476 35.7574 73.974C34.4674 74.4677 33.1554 74.925 31.8689 75.4131C31.2141 75.6616 30.5073 75.7489 29.8586 76.0163C28.407 76.5356 26.9112 76.9672 25.3793 77.3088C24.4371 77.565 23.442 77.7051 22.5154 77.9937C21.5889 78.2822 20.4623 78.4642 19.4918 78.8249C18.6832 79.0939 17.7131 79.1351 16.8804 79.458C16.1825 79.7347 15.437 79.9205 14.6624 80.0107C13.9205 80.1107 13.1941 80.2613 12.4889 80.4612C11.7507 80.6437 10.9592 80.7251 10.2458 80.9683C9.55906 81.1175 8.90455 81.3451 8.29587 81.6463C8.2688 81.6907 8.15864 81.6541 8.09018 81.6505C8.08004 81.5713 8.08841 81.4932 8.1147 81.4217C8.30417 81.1107 8.49703 80.7941 8.6865 80.483C8.88357 80.2331 9.00543 79.9335 9.04149 79.6102C9.03412 79.3468 9.4829 79.1176 9.66431 78.8778C9.84571 78.6379 10.0027 78.3223 10.1752 78.039L11.2579 76.2616C11.4269 75.9334 11.619 75.618 11.8331 75.3173C11.9853 75.0674 12.3502 74.9469 12.5089 74.7009C12.6676 74.4548 12.6305 73.9068 12.8645 73.798C13.2334 73.642 13.2029 73.2426 13.5121 73.1264C13.9244 72.9281 13.406 72.3001 14.0121 72.1896C14.2974 72.1273 14.3877 71.573 14.6155 71.3005C15.2502 70.621 15.1629 69.6768 15.4024 68.8632C15.443 68.7965 15.3422 68.6285 15.2523 68.5585C14.7331 68.1204 14.4518 68.1471 13.8896 68.49C13.298 68.8301 12.8093 69.2961 12.4568 69.8562C12.1612 70.2637 11.8266 70.6432 11.4566 70.9908C11.1221 71.3659 11.1051 72.0028 10.44 72.1232C10.3811 72.133 10.3588 72.2565 10.3148 72.3287C9.42888 73.6091 8.54599 74.8991 7.63734 76.1733C7.31786 76.6108 6.89224 76.976 6.56632 77.4095C6.31882 77.9234 6.01094 78.4045 5.64765 78.8452C4.96333 79.4031 4.72593 80.2714 4.1107 80.8029C3.07325 81.694 2.5953 82.9717 1.86031 84.0623C1.47799 84.6899 1.05168 85.3898 2.09403 86.0857C2.20999 86.1563 2.18481 86.4151 2.27612 86.5697C2.37717 86.7016 2.49156 86.8249 2.61737 86.9375C2.62303 86.8079 2.63888 86.6801 2.66479 86.5552C2.66479 86.5552 2.86436 86.532 2.90269 86.5706C3.01735 86.7014 3.07579 86.8665 3.19045 86.9972C3.47067 87.3202 4.04505 87.3198 4.1814 87.8065C3.82707 87.5906 3.4423 87.4248 3.07412 87.2462C3.04191 87.2266 2.95348 87.2413 2.95315 87.2563C2.95283 87.2713 2.92349 87.421 2.95876 87.4501C3.60715 87.9517 4.2657 88.4366 4.90765 88.9342C5.40514 89.321 5.86912 89.7483 6.38997 90.1113C6.98067 90.4017 7.53889 90.757 8.0511 91.1688C8.75501 91.9708 9.76988 92.2767 10.5062 92.9385C11.873 94.1747 13.5139 94.9609 15.0228 95.9638C15.1967 96.0698 15.2584 96.3891 15.4204 96.4421C15.5824 96.4951 15.7469 96.2831 15.9309 96.2276C15.9512 96.1943 16.0855 96.3218 16.1628 96.3689C16.6138 96.6436 16.5882 96.4681 16.4747 96.1324C16.4101 95.9484 16.1319 95.5352 16.7387 95.8439C16.874 95.9263 17.105 95.8081 17.2403 95.8905C17.7235 96.1848 17.973 96.2682 17.8737 95.5757C17.8232 95.1946 18.2383 95.1657 18.6063 95.5041C18.9743 95.8425 19.1038 95.8909 19.3435 95.3668C19.3704 95.313 19.4173 95.2718 19.4766 95.2498C19.7662 95.1368 19.7763 95.1202 19.6119 95.0276C19.4622 94.9719 19.3257 94.882 19.2159 94.7671C19.1062 94.6522 19.0271 94.5161 18.9864 94.3725C18.4339 94.569 18.6144 94.0697 18.4617 93.8853C18.3922 93.7786 18.3049 93.6816 18.2036 93.5986C16.7993 92.5833 15.5288 91.421 14.0847 90.4423C12.9096 89.7108 11.7686 88.9268 10.6663 88.0936C9.84207 87.435 8.97622 86.8261 8.07525 86.2716C8.01083 86.2323 7.98362 86.132 7.9395 86.0594C8.01894 86.0305 8.10394 86.0131 8.19191 86.0076C8.35797 86.0249 8.57381 86.0041 8.68945 86.0898C9.22559 86.5001 10.0031 86.6158 10.3141 87.3231C10.3732 87.4581 10.6298 87.5154 10.7844 87.6096C11.921 88.3174 13.0123 89.0941 14.05 89.9338C14.7479 90.557 15.6111 90.938 16.2538 91.5504C17.1378 92.2832 18.0814 92.9473 19.073 93.5342C19.4929 93.9381 19.9458 94.3108 20.4262 94.6479C20.891 94.8853 20.7475 94.7294 20.8652 94.4202C21.0801 93.8353 20.5593 93.4724 20.3435 93.1886C19.833 92.6831 19.269 92.2271 18.6628 91.8298C18.0913 91.3903 17.5267 90.9397 16.9455 90.5019C16.3642 90.0641 15.6755 89.9187 15.3506 89.2486C15.3193 89.1839 15.1895 89.1505 15.1122 89.1035C13.6453 88.1185 12.1849 87.1376 10.7312 86.1455C10.5222 85.9895 10.3348 85.8087 10.1749 85.6086C10.105 85.5204 9.95869 85.1951 10.276 85.3122C11.1435 85.6427 11.553 84.8107 12.3539 84.9026C12.7087 84.9435 13.0887 84.7257 13.5065 84.7213C13.6729 84.7236 13.8083 84.5015 13.988 84.3368L13.9576 84.3868C13.9017 84.3316 13.8526 84.271 13.8114 84.2063C13.8114 84.2063 13.8621 84.123 13.9343 84.1061C13.9844 84.1881 14.0118 84.2784 14.0135 84.3675C15.0092 84.4576 15.965 84.2357 16.7293 83.7372L16.7022 83.7816C16.6431 83.7304 16.5925 83.6713 16.5526 83.6067C16.5526 83.6067 16.6033 83.5234 16.6755 83.5064C16.7117 83.5808 16.7301 83.6597 16.7293 83.7372C17.2004 83.8338 17.6826 83.8686 17.9408 83.4013C17.9768 83.3616 18.0235 83.3318 18.0772 83.3142C18.1309 83.2966 18.19 83.2918 18.2497 83.3002C18.6605 83.3437 19.0653 83.3076 19.4385 83.1941C19.8117 83.0806 20.1452 82.8922 20.4178 82.6408C20.4551 82.5797 20.5648 82.4866 20.5939 82.4968C20.9096 82.689 21.2075 82.345 21.3498 82.4013C22.2207 82.7261 22.6863 82.0198 23.4213 81.9877C24.1173 81.8673 24.7877 81.6757 25.4211 81.4162C25.8249 81.3042 26.2318 81.2018 26.6326 81.0804C27.0334 80.9589 27.3199 80.8365 27.6716 80.7232C28.1513 80.5737 28.7846 80.5635 29.0622 80.2528C29.3398 79.9421 29.6258 80.2991 29.8605 80.1603C30.0966 80.0227 30.3613 79.9265 30.6433 79.8756C31.3491 79.7541 32.0088 79.511 32.5908 79.158C33.2369 78.8411 33.931 78.6019 34.6589 78.4454C35.0672 78.3603 35.4519 78.2174 35.8005 78.0213C36.2881 77.6777 36.8723 77.4592 37.5048 77.384C38.2618 77.1952 38.9841 76.928 39.6596 76.5871C40.8907 76.0368 42.0815 75.4225 43.2271 74.7468C44.0132 74.3118 44.7803 73.85 45.598 73.4647C46.3659 73.0711 47.0819 72.6045 47.7363 72.0713C48.1112 71.7894 48.6266 71.7987 48.9749 71.3864C49.5795 70.8077 50.2566 70.2986 50.9952 69.8679C51.6545 69.4089 52.2728 68.8869 52.9325 68.413C53.3947 67.9874 53.8099 67.5192 54.1734 67.0137C54.3806 66.7896 54.6549 66.6292 54.8621 66.4051C55.897 65.368 56.8222 64.2372 57.6275 63.0253C58.0538 62.3254 58.8961 61.8561 59.0966 61.0339C59.3596 60.3319 59.6663 59.6492 60.0154 58.9891C60.2845 58.3153 60.4505 57.5788 60.7064 56.9122C61.2079 55.462 61.457 53.9187 61.4448 52.3358C61.4398 50.9425 61.3064 49.5364 61.0461 48.1328C60.9637 47.7981 60.8416 47.4682 60.6822 47.1496C60.6323 47.0431 60.4777 46.9489 60.4667 46.8509C60.3709 45.6645 59.9638 44.4801 59.2815 43.4025C58.9751 42.9341 58.6751 42.4696 58.3788 41.9845C58.3454 41.9152 58.3267 41.8421 58.3238 41.7696C58.3208 41.6972 58.3338 41.6268 58.3618 41.5629C58.7439 40.8882 59.3658 40.3755 60.136 40.1001C60.3434 40.0208 60.4615 39.8414 60.0156 39.6308C59.9383 39.5837 59.977 39.6072 60.0529 39.5697L60.1082 39.7253C60.0415 39.736 59.9723 39.7374 59.9025 39.7294C59.9025 39.7294 59.8811 39.6631 60.0156 39.6308C60.6188 39.3425 61.1989 39.0195 61.7531 38.6634C61.789 38.6408 61.8186 38.6109 61.8402 38.5755C61.8617 38.5402 61.8747 38.5002 61.8783 38.4579C61.8374 38.235 61.7705 38.0114 61.7133 37.7862C61.9353 37.7844 62.1449 38.0492 62.371 37.7071C63.4376 36.0721 64.7249 34.6402 65.601 32.912C65.7228 32.712 65.9208 32.4595 65.863 32.2644C65.6086 31.3479 66.0681 30.9271 66.7105 30.496C67.0549 30.2641 66.6179 30.0969 66.2559 29.9373C66.185 29.8941 66.2237 29.9177 66.2931 29.8762L66.3451 30.0373C66.2775 30.0442 66.2087 30.0456 66.1394 30.0415C66.1394 30.0415 66.1238 30.0091 66.2552 29.9674ZM57.6204 43.8529L57.4349 43.9836C57.4047 43.8611 57.4018 43.7374 57.4264 43.6205C57.4264 43.6205 57.2756 43.6505 57.2631 43.6276C57.1118 43.4203 56.9778 43.2037 56.8626 42.98C56.8175 42.9526 56.8987 42.8193 56.9776 42.7912C57.0566 42.7631 57.1521 42.7223 57.2134 42.7521C57.2933 42.812 57.3615 42.8847 57.4143 42.966C57.467 43.0472 57.5032 43.1355 57.5207 43.2255C57.5382 43.3155 57.5366 43.4055 57.5162 43.4903C57.4957 43.5751 57.4567 43.653 57.4014 43.7195L57.6462 43.8686C57.696 43.825 57.7515 43.7873 57.8118 43.7563C57.8118 43.7563 57.9085 43.8151 57.9397 43.8798C57.89 43.8952 57.8362 43.9008 57.7814 43.8962C57.7266 43.8915 57.6719 43.8768 57.6204 43.8529ZM66.6889 22.4257L66.5155 22.1449C66.5745 22.1351 66.6602 22.0959 66.6825 22.1172C66.783 22.2237 66.8775 22.3347 66.9658 22.4497C66.8875 22.4477 66.8062 22.4362 66.7644 21.9538C66.578 21.9698 66.5055 22.0018 66.4703 21.9727C66.3675 21.9015 66.2708 21.8222 66.1817 21.7359C66.2121 21.6859 66.2629 21.6026 66.3015 21.6262C66.4368 21.7086 66.5555 21.8037 66.6889 22.4257ZM52.5788 40.66L52.5246 40.7489C52.4656 40.6977 52.415 40.6385 52.375 40.574C52.375 40.574 52.4258 40.4907 52.4915 40.4698C52.5572 40.4489 52.5475 40.5953 52.3649 41.3446C52.3651 41.2083 52.3789 41.074 52.4062 40.9433C52.439 40.8746 52.4786 40.8096 52.5246 40.7489C52.5715 40.846 52.68 40.9578 52.6652 41.0401C52.6504 41.1225 52.5217 41.1888 52.5788 40.66ZM41.8278 43.8819C42.0552 43.9291 42.1626 43.9412 42.2599 43.97C42.3384 44.01 42.4139 44.056 42.4854 44.1073C42.3933 44.1426 42.2805 44.2262 42.1961 44.2053C42.1117 44.1843 42.0167 44.0503 42.6808 44.2796L42.5463 44.0073C42.6246 44.0093 42.7266 43.9724 42.7781 44.0038C42.8704 44.083 42.9529 44.1717 43.0237 44.2677C42.9224 44.2745 42.8438 44.2875 41.8278 43.8819ZM38.5489 38.5491L38.6651 38.9093C38.7875 38.9838 39.0001 39.1133 39.013 39.1212C39.3916 38.8187 39.8445 39.0032 40.2908 39.039C41.3401 39.2403 42.3831 39.5042 43.4132 39.8291C43.7512 39.8978 44.111 39.8581 44.4115 40.1478C44.5146 40.2105 44.5146 40.2105 44.5469 39.9256C44.5565 39.8824 44.5773 39.8434 44.6074 39.8115C44.6376 39.7796 44.6763 39.7558 44.7205 39.742C45.0024 39.6852 45.2302 39.7173 45.1748 39.2572C45.1195 38.797 45.6954 39.3306 45.8894 39.1136C45.9435 39.0248 45.9917 38.7571 46.2109 39.0353C46.3442 39.2079 46.4579 39.3838 46.578 39.5636C46.5093 39.575 46.4232 39.6292 46.3748 39.6073C45.6584 39.2319 45.9156 40.013 45.6097 40.1237C45.687 40.1708 45.763 40.278 45.8481 40.2689C46.0667 40.2726 46.3072 40.1678 46.4882 40.2476C46.8696 40.419 47.2097 40.6871 47.5705 40.9068C47.9313 41.1266 48.3433 41.0882 48.4662 41.2925C48.7309 41.7279 49.2581 41.3408 49.4544 41.7726C49.5135 41.9076 49.7058 42.0704 49.6713 42.156C49.5703 42.4524 49.3455 42.285 49.1457 42.1634C48.8236 41.9672 48.5015 41.7709 48.1794 41.5747C48.0568 41.5267 47.9306 41.4907 47.8032 41.4674C47.8554 41.5698 47.9264 41.6647 48.0125 41.7472C48.296 41.9199 48.5794 42.0926 48.8564 42.2613C48.9555 42.3463 49.0424 42.4429 49.1146 42.548L48.7902 42.7616L49.0747 43.034C48.984 43.073 48.8839 43.0947 48.7796 43.0979C48.5712 43.0776 48.3665 43.0366 48.155 43.0068C47.9196 42.9921 47.6864 43.0007 47.4593 43.0324C45.966 43.425 44.3677 43.2358 42.7946 43.2371C41.6228 43.1955 40.4413 42.9964 39.2861 42.6459C37.7112 42.2365 36.2024 41.5328 34.8565 40.5798C34.5859 40.415 34.2754 40.2867 34.2245 39.9207C34.2075 39.8037 34.0762 39.6857 33.9938 39.5745C34.1033 39.6412 34.2579 39.7354 34.3602 39.6835C34.8467 39.5229 35.2992 39.273 35.7979 39.1503C36.2532 39.097 36.716 39.0736 37.1831 39.0803C37.6768 39.0383 38.1386 38.9617 38.6679 38.9338C38.5883 38.6764 38.5252 38.4167 38.4791 38.1562C38.8174 37.6008 39.0207 37.557 39.3779 37.9422C39.4165 37.9657 39.3519 38.0863 39.3307 38.1647C38.8088 37.8468 38.7838 38.2504 38.5993 38.4808C38.5756 38.5197 38.4909 38.5137 38.4289 38.5141C38.4041 38.4777 38.3892 38.4371 38.3858 38.3964C38.4215 38.2506 38.4662 38.1484 38.5489 38.5491ZM35.0486 45.8905C34.8466 45.7828 34.6507 45.6635 34.4623 45.5334C34.4108 45.502 34.4211 45.3256 34.4678 45.2779C34.5433 45.211 34.6421 45.1702 34.751 45.161C35.0293 45.5408 35.3911 45.8655 35.8075 46.1091C35.8075 46.1091 35.8384 46.1889 35.8473 46.2324C35.8561 46.2758 35.6864 46.279 35.6314 46.2532C35.4382 46.1355 35.2385 46.0138 33.3091 45.1356C33.0321 44.9669 32.7551 44.7981 32.4781 44.6294C32.4136 44.5901 32.3831 44.4954 32.3355 44.4283C32.4077 44.4114 32.4968 44.3666 32.5483 44.398C33.1024 44.7355 33.6564 45.073 34.2104 45.4105C34.2491 45.434 34.2505 45.5187 34.2689 45.5755C34.1872 45.5791 34.0856 45.6009 34.0178 45.5673C33.8028 45.3982 33.5644 45.253 35.0486 45.8905ZM49.364 41.1235C49.0032 40.9038 48.6425 40.684 48.2753 40.4603C48.1482 40.3531 48.0345 40.2327 47.9371 40.102C48.107 40.0622 48.2823 40.0364 48.4609 40.0251C48.6699 40.0326 48.8805 40.0613 49.0889 40.1106C49.0889 40.1106 49.1643 40.2479 49.1409 40.2718C48.8867 40.5586 49.1186 40.6999 49.3827 40.8608C49.8272 41.1316 50.2718 41.4023 50.7098 41.6692C50.7743 41.7084 50.7916 41.8104 50.8259 41.8846C50.7412 41.8787 50.6396 41.9005 50.5751 41.8613C50.1693 41.6141 49.7699 41.3708 49.3178 40.2424L49.2082 40.1757C49.2604 40.1304 49.3193 40.0921 49.3837 40.0617C49.3837 40.0617 49.4739 40.1167 49.5051 40.1814C49.5363 40.2461 49.3869 40.216 49.364 41.1235ZM54.1469 39.0717C54.3152 39.2884 54.4994 39.5225 54.664 39.7598C54.7461 39.886 54.872 40.0998 54.8351 40.1458C54.7824 40.202 54.7164 40.2459 54.6411 40.2747C54.5658 40.3035 54.4829 40.3167 54.3975 40.3133C54.1444 40.2874 53.8973 40.18 53.6991 40.0098C52.9659 39.0529 51.8477 38.6992 50.8796 38.041C50.5961 37.8683 50.0149 37.8798 49.9307 37.6991C49.6251 37.0408 49.0399 37.0879 48.5328 36.8475C47.3334 36.2711 46.0889 35.8065 44.8195 35.4614C44.7486 35.4183 44.6766 35.2754 44.5972 35.1738C44.729 35.1169 44.9115 34.9768 44.9824 35.02C45.2323 35.2167 45.5155 35.3697 45.8154 35.47C46.1152 35.5703 46.4258 35.6158 46.7288 35.604C46.8149 35.6041 46.9025 35.6215 46.9856 35.6551C47.0687 35.6887 47.1455 35.7376 47.2109 35.7986C47.5853 36.1409 48.061 36.0271 48.461 36.2403C48.577 36.3109 48.7373 36.2943 48.86 36.3539C48.9827 36.4134 50.5954 37.1444 50.7185 37.1889C51.0229 37.2982 51.3893 37.1026 51.6463 37.5942C51.8062 37.8972 52.3679 38.0337 52.5996 38.3348C52.6718 38.4652 52.7773 38.5799 52.9054 38.6673C53.0336 38.7548 53.1799 38.8118 53.3297 38.8328C53.6128 38.8934 53.8928 38.9773 54.1662 39.0834L54.1469 39.0717ZM39.4473 43.6428C39.5878 43.7892 39.7092 43.9089 39.8337 44.038C39.646 44.096 39.4462 44.1258 39.2411 44.1264C38.9492 44.0648 38.6589 43.9896 38.3713 43.9012C37.554 43.7808 36.7523 43.4904 36.0269 43.0519C35.8584 42.9002 35.6491 42.7967 35.4295 42.7566C34.7501 42.7844 34.5736 42.4941 34.6575 41.936C34.7015 41.8638 34.5058 41.7065 34.4169 41.5914C34.5446 41.6184 34.67 41.6615 34.7894 41.7193C35.2275 41.9862 35.672 42.257 36.1101 42.5238C36.5465 42.7352 36.9969 42.9127 37.4563 43.0544C38.1529 43.2883 38.7891 43.4474 39.4473 43.6428ZM34.5794 43.5867C35.1721 43.9477 35.2623 44.0026 35.1018 44.179C34.6516 44.6282 34.8994 43.7283 34.5671 43.8533C34.5671 43.8533 34.4898 43.8062 34.4502 43.8278C34.0291 43.9826 33.982 43.5959 34.0242 43.4541C34.113 43.1198 34.314 43.4859 34.4668 43.5105C34.6197 43.535 34.5408 43.5631 34.5794 43.5867ZM5.04572 88.7366C4.92962 88.5211 4.43255 88.5687 4.39589 88.1503C4.66646 88.3152 4.97088 88.4244 5.24516 88.5687C5.41114 88.6583 5.57249 88.7566 5.72833 88.863C5.72833 88.863 5.73861 88.9911 5.72749 89.0528C5.71637 89.1146 5.63873 89.0825 5.60652 89.0629C5.44176 88.9854 5.2807 88.8873 5.04234 88.7421L5.04572 88.7366ZM56.1547 3.67189C56.0685 3.58133 56.0139 3.54046 56.0176 3.51987C56.0213 3.49929 56.0887 3.40323 56.1022 3.38101C56.2631 3.3511 56.4299 3.34019 56.5989 3.34852C56.644 3.37599 56.7342 3.43093 56.7946 3.50579C56.754 3.57244 56.6965 3.66687 56.5857 3.66029C56.4451 3.67941 56.3005 3.68331 56.1547 3.67189ZM39.5126 45.6092C39.2584 45.5915 39.0137 45.5871 38.7663 45.5583C38.7411 45.4862 38.7349 45.4117 38.7482 45.3416C38.7854 45.2805 38.8564 45.1638 38.8985 45.1818C39.1036 45.2535 39.3029 45.3442 39.4931 45.4527C39.4931 45.4527 39.5068 45.5752 39.5126 45.6092ZM64.7676 26.015L65.1384 25.7687C65.1938 25.9243 65.3353 26.1704 65.2754 26.2253C65.2155 26.2802 64.9336 26.337 64.7564 26.3813L64.7676 26.015ZM5.66711 87.9194L5.84874 88.2738C5.72373 88.2499 5.60169 88.2041 5.48941 88.1387C5.38741 88.039 5.30065 87.9271 5.23224 87.8068C5.38138 87.852 5.50138 87.887 5.66711 87.9194ZM35.6481 44.5727L35.4093 44.2978L35.9415 44.1346C35.9528 44.2176 35.9929 44.3258 35.9594 44.3663C35.8767 44.453 35.7807 44.5277 35.6739 44.5884L35.6481 44.5727ZM43.8891 35.3212C43.7504 35.3056 43.612 35.2749 43.4766 35.2299C43.4251 35.1985 43.3979 35.0981 43.3538 35.0256L43.9288 34.9951L43.8891 35.3212ZM38.7051 46.7318C38.5813 46.5726 38.5304 46.5112 38.4795 46.4497L38.9859 46.2708C38.9941 46.3443 39.0342 46.4525 38.9943 46.4891C38.909 46.5807 38.812 46.6621 38.7051 46.7318ZM55.27 44.188L55.0312 43.9131L55.5634 43.7498C55.5682 43.8289 55.6181 43.9355 55.5846 43.976C55.4883 44.0566 55.383 44.1275 55.27 44.188ZM64.1563 31.0496C64.2508 31.0539 64.3786 31.0327 64.4104 31.0674C64.4889 31.1872 64.5448 31.3167 64.5752 31.4495C64.5752 31.4495 64.4075 31.5072 64.3187 31.537L64.1563 31.0496ZM65.1663 31.2765C65.0391 31.1228 64.9848 31.0669 64.9275 31.0015L65.4597 30.8383C65.4744 30.9158 65.5144 31.024 65.4809 31.0645C65.3663 31.1375 65.2413 31.1968 65.1083 31.2412L65.1663 31.2765ZM36.7069 38.3104C36.6536 38.2094 36.5675 38.1189 36.5908 38.095C36.6615 38.0115 36.7406 37.9348 36.8275 37.866C36.8685 37.9291 36.9516 38.0102 36.9347 38.038C36.8527 38.1185 36.7615 38.1905 36.6625 38.2529L36.7069 38.3104ZM42.9912 38.9704C43.0547 39.0547 43.1242 39.158 43.1873 39.2574C43.1091 39.2554 43.004 39.2828 42.9494 39.2419C42.8555 39.1586 42.7729 39.0647 42.7042 38.9631L42.9912 38.9704ZM62.8518 36.5987L62.5572 36.7924C62.5204 36.7035 62.5045 36.6105 62.5108 36.5205C62.5413 36.4705 62.627 36.4313 62.693 36.3954L62.8518 36.5987ZM59.2682 57.9247L59.5217 57.9725C59.4879 58.0281 59.5374 58.1497 59.4941 58.1918C59.4119 58.2337 59.3223 58.2637 59.2278 58.2809L59.2682 57.9247ZM30.1708 40.094L30.2106 40.2172C30.1433 40.2143 30.0756 40.2037 30.0089 40.1858C30.0089 40.1858 29.9844 40.1099 29.9658 40.0681L30.1708 40.094ZM3.98536 86.9103L3.87167 86.7344C3.87167 86.7344 3.97669 86.707 3.99602 86.7188C4.04256 86.7698 4.083 86.8251 4.11648 86.8835L3.98536 86.9103ZM33.1776 41.5524L33.1121 41.4135C33.1792 41.4133 33.2474 41.424 33.3137 41.4449C33.3137 41.4449 33.3416 41.5152 33.3505 41.5587L33.1776 41.5524ZM40.1332 38.3261L40.0935 38.2029C40.1608 38.2058 40.2285 38.2164 40.2951 38.2344C40.2951 38.2344 40.3196 38.3102 40.3383 38.352L40.1332 38.3261ZM42.874 34.7257C42.9062 34.7453 42.979 34.6983 42.995 34.7156C43.0424 34.7646 43.084 34.818 43.1188 34.8748C43.1019 34.9026 43.0168 34.9117 43.0009 34.8944C42.9509 34.8431 42.9082 34.7863 42.874 34.7257ZM44.4314 38.9261L44.4075 38.8203C44.4748 38.8232 44.5425 38.8338 44.6092 38.8517C44.6092 38.8517 44.6337 38.9275 44.6459 38.9654C44.6581 39.0034 44.4829 38.9575 44.4314 38.9261ZM39.7358 46.9103L39.5982 46.9332C39.5976 46.8716 39.6022 46.8107 39.6119 46.7511C39.6119 46.7511 39.6875 46.7286 39.7268 46.7221L39.7358 46.9103ZM48.8973 38.8592L48.9336 38.988C48.8664 38.985 48.7987 38.9745 48.732 38.9565C48.732 38.9565 48.7075 38.8807 48.6888 38.8389L48.8973 38.8592ZM45.9124 46.6594L45.7847 46.6806C45.779 46.6176 45.7814 46.5551 45.792 46.4946C45.792 46.4946 45.8706 46.4816 45.9099 46.4751L45.9124 46.6594ZM53.0016 41.3288C53.0016 41.3288 52.9483 41.2278 52.9649 41.2151C53.0159 41.1774 53.0712 41.1448 53.1302 41.1178C53.1302 41.1178 53.1737 41.2204 53.1635 41.2371C53.1146 41.2742 53.0603 41.305 53.0016 41.3288ZM52.3664 44.7497L52.1981 44.8375C52.1981 44.8375 52.1482 44.7309 52.1648 44.7182C52.2115 44.6785 52.2663 44.6475 52.3267 44.6264L52.3664 44.7497ZM52.7792 45.4351L52.7428 45.3064C52.8092 45.3112 52.8758 45.3237 52.9411 45.3434C52.9411 45.3434 52.9689 45.4136 52.9876 45.4555L52.7792 45.4351ZM53.2111 45.9876L53.0974 45.8117C53.0974 45.8117 53.2024 45.7843 53.2217 45.7961C53.2671 45.8479 53.3074 45.9031 53.3422 45.9609L53.2111 45.9876ZM66.2266 25.5482L66.1902 25.4194C66.2567 25.4243 66.3232 25.4367 66.3885 25.4564C66.3885 25.4564 66.4164 25.5267 66.4286 25.5646L66.2266 25.5482ZM63.6421 30.2262L63.8071 30.1439C63.8071 30.1439 63.8604 30.2449 63.8438 30.2576C63.7949 30.2948 63.7405 30.3256 63.6819 30.3494L63.6421 30.2262ZM64.4367 29.8497L64.309 29.8709C64.3033 29.8078 64.3057 29.7454 64.3163 29.6849C64.3163 29.6849 64.3949 29.6719 64.4376 29.6598L64.4367 29.8497ZM65.9947 28.278L65.881 28.1021C65.881 28.1021 65.9861 28.0747 66.0054 28.0865C66.0519 28.1375 66.0924 28.1928 66.1258 28.2512L65.9947 28.278ZM63.5355 33.9538L63.4387 33.7501C63.471 33.7697 63.5438 33.7227 63.5597 33.74C63.6096 33.7872 63.6515 33.8411 63.6835 33.8992L63.5355 33.9538ZM61.0976 38.4926L60.987 38.3262C60.987 38.3262 61.0889 38.2893 61.1049 38.3066C61.1549 38.3579 61.1976 38.4147 61.2318 38.4753L61.0976 38.4926ZM58.5982 43.6108C58.5982 43.6108 58.5513 43.5137 58.5679 43.501C58.6123 43.4602 58.6648 43.4278 58.7234 43.4053C58.7234 43.4053 58.7767 43.5063 58.7601 43.519C58.7133 43.5496 58.6625 43.5747 58.6083 43.5941L58.5982 43.6108ZM56.7536 46.3635C56.7536 46.3635 56.8587 46.3361 56.878 46.3478C56.9245 46.3989 56.965 46.4542 56.9984 46.5126C56.9984 46.5126 56.8999 46.5439 56.8805 46.5322C56.8356 46.4734 56.7965 46.4113 56.7638 46.3468L56.7536 46.3635Z" fill="#FAC515"/>
<path d="M34.6783 46.8611L35.0556 46.9233C34.9255 46.7802 34.7879 46.643 34.6434 46.5123C34.5726 46.4692 34.4581 46.4832 34.3605 46.4694L34.6783 46.8611Z" fill="#FAC515"/>
<path d="M33.4232 46.3552L33.7648 46.4034C33.7305 46.3292 33.7003 46.2194 33.6454 46.1936C33.527 46.149 33.4044 46.1205 33.2817 46.1091L33.4232 46.3552Z" fill="#FAC515"/>
<path d="M47.0121 41.0695C47.116 41.1577 47.2254 41.2396 47.3397 41.3148C47.3719 41.3344 47.4484 41.2668 47.5111 41.2364C47.4253 41.1454 47.3321 41.0606 47.2326 40.983C47.2038 40.9578 47.1174 41.0271 47.0121 41.0695Z" fill="#FAC515"/>
<path d="M48.2295 42.8851L48.1354 42.706C48.1084 42.7504 48.0129 42.7912 48.019 42.8102C48.0616 42.8731 48.1119 42.9319 48.1686 42.9851L48.2295 42.8851Z" fill="#FAC515"/>
</g>
<defs>
<clipPath id="clip0_13092_8793">
<rect width="101.954" height="37" fill="white" transform="matrix(-0.520218 0.854033 0.854033 0.520218 53.0391 0)"/>
</clipPath>
</defs>
</svg>
