<svg width="205" height="56" viewBox="0 0 205 56" fill="none" xmlns="http://www.w3.org/2000/svg">
<g clip-path="url(#clip0_12107_707)">
<path fill-rule="evenodd" clip-rule="evenodd" d="M118.824 0.0441992C118.751 0.107618 113.913 0.234456 108.086 0.329584C102.222 0.424713 97.3112 0.519841 97.0913 0.519841C96.9081 0.519841 96.395 0.488132 95.9919 0.456422C95.5887 0.393003 92.4735 0.488132 89.0285 0.614969C85.6201 0.773517 80.6726 0.932064 78.0338 1.02719C75.4317 1.09061 72.1333 1.21745 70.704 1.31258C69.3112 1.40771 66.8191 1.56625 65.2066 1.66138C63.5941 1.7248 61.2851 1.88335 60.0757 1.97848C58.8664 2.07361 57.547 2.10531 57.1438 2.10531C55.6045 2.0419 54.9083 2.0419 54.3951 2.07361C53.9187 2.10531 53.9187 2.13702 54.3951 2.42241C54.725 2.61267 54.7617 2.7395 54.5051 2.7395C54.2852 2.7395 53.9554 2.61267 53.8454 2.42241C53.7354 2.26386 53.259 2.13702 52.7826 2.16873C52.1229 2.23215 51.9763 2.3907 52.0862 2.89805C52.184 3.29971 52.0619 3.32084 51.7198 2.96147C51.1333 2.32728 49.9606 2.26386 49.3376 2.80292C49.0444 3.0566 48.7878 3.0566 48.3847 2.77121C48.0548 2.51754 47.7983 2.51754 47.6518 2.70779C47.505 2.89805 47.1386 2.92976 46.8088 2.83463C46.4056 2.70779 46.2957 2.7395 46.4789 2.99318C46.6255 3.21515 46.5522 3.37369 46.369 3.37369C46.1491 3.37369 45.9658 3.24686 45.9658 3.08831C45.9658 2.70779 44.4633 2.7395 43.8768 3.12002C43.6203 3.31027 43.1805 3.31027 42.7773 3.15173C42.4109 2.99318 41.971 2.86634 41.7512 2.89805C39.5156 3.15173 36.0339 3.46882 35.2643 3.46882C34.678 3.46882 34.2381 3.56395 34.2381 3.65908C34.2381 3.84934 31.7827 4.03959 29.767 4.00788C28.9607 4.00788 28.7408 4.13472 28.7408 4.70549V5.4031L28.0078 4.70549C27.4215 4.16643 26.9816 4.03959 26.2486 4.19814C25.6988 4.32498 25.1125 4.51523 24.9292 4.64207C24.7826 4.80062 24.0497 4.83233 23.39 4.7372C22.5837 4.61036 22.144 4.67378 22.144 4.92746C22.144 5.11771 21.8875 5.27626 21.5942 5.27626C21.301 5.27626 21.0445 5.11771 21.0445 4.92746C21.0445 4.67378 20.8612 4.67378 20.4947 4.95917C20.2015 5.18113 20.0549 5.49823 20.2015 5.68848C20.3848 5.94216 20.4947 5.94216 20.568 5.68848C20.678 5.43481 21.0078 5.4031 21.5942 5.59336C22.1073 5.7519 22.5837 5.7519 22.6936 5.62507C22.9502 5.24455 26.1753 5.27626 26.1753 5.65677C26.1753 5.78361 26.4319 5.91045 26.7251 5.91045C27.0183 5.91045 27.2748 5.7519 27.2748 5.56165C27.2748 5.37139 27.6046 5.30797 28.0078 5.43481C28.4476 5.56165 29.3271 5.68848 30.0235 5.7519C31.013 5.81532 31.3062 5.72019 31.3062 5.33968C31.3062 4.92746 31.3794 4.89575 31.5994 5.21284C31.9292 5.65677 33.1386 5.4031 33.5785 4.83233C33.7616 4.61036 33.8717 4.61036 33.8717 4.89575C33.8717 5.18113 34.7512 5.27626 37.3533 5.24455C39.2957 5.21284 40.725 5.08601 40.6151 4.92746C40.3951 4.61036 41.5313 4.70549 42.2277 5.0543C42.4841 5.21284 42.6674 5.14942 42.6674 4.92746C42.6674 4.70549 43.1439 4.61036 43.9501 4.70549C44.6465 4.76891 45.2329 4.7372 45.2329 4.61036C45.2329 4.48353 45.4894 4.29327 45.8192 4.19814C46.1124 4.10301 46.2957 4.13472 46.1858 4.29327C46.0757 4.45182 46.1858 4.7372 46.4789 4.92746C46.882 5.21284 47.0286 5.14942 47.2119 4.57865C47.3585 4.03959 47.505 3.94446 47.725 4.26156C47.9815 4.54694 48.2748 4.57865 49.0077 4.35669C49.7041 4.13472 49.9973 4.13472 49.9973 4.35669C49.9973 4.54694 50.3271 4.61036 50.7302 4.48353C51.0967 4.3884 52.0129 4.42011 52.7459 4.61036C53.7354 4.83233 54.1385 4.80062 54.5417 4.48353C54.9083 4.13472 55.1281 4.13472 55.4946 4.42011C55.8611 4.7372 55.9344 4.67378 55.7511 4.22985C55.4579 3.56395 55.9711 3.53224 56.7407 4.16643C57.437 4.76891 58.0234 4.76891 58.8664 4.10301C59.2328 3.81763 59.526 3.7225 59.526 3.91275C59.526 4.32498 65.4998 4.29327 65.8296 3.84934C66.0128 3.65908 66.1229 3.65908 66.1229 3.91275C66.1229 4.13472 66.306 4.32498 66.526 4.32498C66.7092 4.32498 66.7825 4.19814 66.6725 4.00788C66.5626 3.81763 66.7092 3.78592 67.0024 3.88105C67.3323 3.97617 67.5888 4.19814 67.5888 4.35669C67.5888 4.48353 67.8454 4.54694 68.1752 4.42011C68.5051 4.32498 68.9082 4.42011 69.1281 4.67378C69.3846 4.99088 69.4213 4.92746 69.238 4.3884C69.0181 3.69079 69.5312 3.4054 69.9709 4.00788C70.1175 4.19814 70.3375 4.26156 70.5207 4.16643C70.9605 3.91275 78.0704 3.88105 78.5102 4.13472C78.7301 4.22985 79.1699 4.22985 79.4997 4.10301C79.9762 3.97617 80.0861 4.03959 79.9762 4.35669C79.8663 4.64207 79.3898 4.76891 78.5835 4.70549C77.9238 4.64207 77.2641 4.7372 77.1542 4.89575C77.0443 5.0543 76.4945 5.27626 75.9447 5.4031C75.1751 5.56165 74.9186 5.49823 74.9186 5.11771C74.9186 4.80062 74.5888 4.64207 73.9291 4.67378L72.9029 4.70549L73.8191 4.95917C74.6621 5.18113 74.6621 5.21284 73.9291 5.24455C73.4893 5.27626 73.0129 5.43481 72.9029 5.59336C72.7564 5.78361 72.4265 5.81532 72.06 5.62507C71.7301 5.49823 71.1805 5.43481 70.8871 5.52994C70.4107 5.68848 70.4107 5.62507 70.8506 5.18113C71.2537 4.70549 71.2537 4.64207 70.7772 4.64207C70.4474 4.64207 70.1175 4.89575 70.0076 5.21284C69.8244 5.65677 69.4945 5.7519 68.5416 5.65677C67.8819 5.59336 67.1857 5.68848 67.0758 5.87874C66.8925 6.10071 66.5626 6.10071 65.9029 5.84703C65.3166 5.62507 64.8767 5.59336 64.7301 5.78361C64.5835 5.94216 62.6778 6.069 60.4423 6.069C58.2067 6.069 55.8245 6.19584 55.1281 6.38609C53.6988 6.76661 52.0496 6.35438 52.3795 5.68848C52.4527 5.46652 52.3795 5.27626 52.1962 5.27626C51.9763 5.27626 51.8297 5.49823 51.8297 5.7519C51.8297 6.069 51.4632 6.22755 50.6569 6.19584C49.9973 6.19584 41.8244 6.25925 32.5523 6.32267L15.6204 6.44951L14.2277 7.36909C13.4948 7.87644 12.7617 8.28866 12.6518 8.28866C12.5419 8.28866 12.4686 8.38379 12.5419 8.51063C12.5785 8.66918 12.4686 8.7643 12.2487 8.7643C12.0654 8.7643 11.8822 8.92285 11.8822 9.11311C11.8822 9.27166 12.0288 9.36678 12.212 9.27166C12.3953 9.14482 12.4686 9.36678 12.3587 9.68388C12.2487 10.001 12.3587 10.5717 12.5785 10.9205C12.8718 11.3962 12.8718 11.5864 12.5419 11.6816C12.212 11.7767 12.2487 11.967 12.6885 12.3475C13.4214 12.9817 13.8612 13.0451 13.4948 12.4743C13.3482 12.2841 13.3848 12.2206 13.568 12.3475C14.411 13.0451 13.2382 15.4233 12.0288 15.4233C11.3691 15.4233 11.0026 16.6283 11.4791 17.1356C11.699 17.3576 11.7723 17.643 11.6257 17.7698C11.4791 17.8649 11.3325 18.2454 11.2592 18.5942C11.1492 19.3236 12.4319 20.0846 12.8351 19.5138C12.9817 19.2601 13.165 19.2918 13.3848 19.5772C13.8612 20.2114 13.788 20.4968 13.165 20.4968C12.9083 20.4968 12.5052 20.6871 12.3587 20.9407C12.212 21.1944 11.7356 21.4164 11.3325 21.5115C10.7461 21.6066 10.5995 21.8603 10.5628 22.9701C10.5628 23.6995 10.7094 24.3019 10.9293 24.3019C11.1126 24.3019 11.1492 24.3971 11.0393 24.4922C10.6728 24.8093 11.4791 25.8874 12.0654 25.8874C13.165 25.8874 12.4686 26.7119 11.3691 26.7753C11.1859 26.7753 10.9293 26.9338 10.7827 27.1241C10.4895 27.5997 11.2225 30.8341 11.7723 31.3097C12.0288 31.5317 13.7513 31.6903 16.0236 31.7537C18.1492 31.7854 20.0549 31.9439 20.2749 32.0391C20.4947 32.1659 20.678 32.1342 20.678 31.9439C20.678 31.7537 21.1177 31.6903 21.7407 31.7854C22.3272 31.9122 22.9136 31.8171 23.0235 31.6268C23.1701 31.4366 23.0235 31.278 22.6936 31.278C22.3639 31.278 22.2172 31.1195 22.3272 30.9609C22.767 30.3585 23.5366 30.6438 24.013 31.5634C24.3796 32.2927 24.5994 32.4196 24.9659 32.1659C25.2958 31.9439 25.4424 31.9439 25.4424 32.1659C25.4424 32.3562 26.2486 32.4513 27.5681 32.4196C28.7041 32.3562 29.9503 32.4196 30.3167 32.5147C30.9764 32.7367 30.9764 32.7684 30.39 33.1806C30.0602 33.4343 29.4005 33.7831 28.9607 33.9733C28.3742 34.227 28.1911 34.6075 28.1544 35.6539C28.1177 36.3833 28.2276 37.0809 28.3742 37.1443C28.5209 37.2394 28.5575 37.6516 28.4476 38.1273L28.2643 38.9517L30.1701 38.7615C31.9292 38.5712 32.0758 38.6029 31.8559 39.1737C31.5627 40.0298 32.9188 40.2518 33.7251 39.4908C34.0915 39.142 34.1649 38.8883 33.9449 38.8883C33.6884 38.8883 33.5052 38.7615 33.5052 38.6029C33.5052 38.4444 33.7983 38.3492 34.1649 38.4127C34.4947 38.4761 34.9711 38.5395 35.2276 38.5395C35.4476 38.5712 35.924 38.7932 36.2172 39.0786C36.5471 39.3322 36.8036 39.4274 36.8036 39.2371C36.8036 38.8566 37.6098 38.92 37.9397 39.3322C38.0863 39.4591 38.6361 39.3322 39.2224 39.0151C39.7721 38.6663 40.1386 38.6029 39.992 38.7932C39.7721 39.0786 39.9187 39.2054 40.3586 39.2371C40.725 39.2371 42.191 39.2688 43.5836 39.3322C46.4056 39.4274 47.4318 39.681 47.4318 40.3469C47.4318 40.9494 47.7983 40.9177 48.3847 40.2201C48.7878 39.7762 48.8611 39.7762 48.8611 40.1567C48.8611 40.9494 48.0548 41.5836 46.9921 41.647C45.7093 41.7422 45.8926 41.7104 38.8192 42.2495C30.8665 42.852 19.7251 44.0252 18.479 44.4057C18.1858 44.5009 17.013 44.6277 15.9136 44.7228C13.3482 44.9448 7.30108 46.0229 4.91888 46.6888C3.67281 47.0376 3.12308 47.3547 3.23302 47.6401C3.34297 47.8938 3.23302 47.9889 2.93984 47.8938C2.64664 47.7987 2.3168 47.8938 2.1702 48.0523C2.06025 48.2426 1.8037 48.3377 1.62046 48.2426C1.10738 47.9572 -0.358586 50.3037 0.0812032 50.6842C0.301098 50.8745 0.374396 51.4453 0.264449 51.9209C0.154501 52.46 0.2278 52.8405 0.447694 52.8405C0.630939 52.8405 0.887482 53.0941 0.960781 53.4112C1.07073 53.7283 1.36392 54.0137 1.65712 54.0454C1.9503 54.0771 3.34297 54.2991 4.73564 54.5211C6.16496 54.743 7.37437 54.8382 7.41102 54.6796C7.48432 54.5211 7.96076 54.6162 8.40054 54.8699C8.95028 55.187 9.35342 55.2504 9.50001 55.0601C9.60996 54.8699 9.90315 54.743 10.0864 54.743C10.3063 54.743 10.3796 54.8382 10.3063 54.965C10.1963 55.1236 10.966 55.2504 11.9555 55.3138C13.3848 55.3772 13.8979 55.2821 14.2644 54.8382C14.5209 54.5211 14.8874 54.3625 15.034 54.5211C15.1806 54.6479 15.1073 54.743 14.8874 54.743C14.6308 54.743 14.4477 54.9333 14.4477 55.1553C14.4477 55.4724 15.4738 55.5992 18.7722 55.6309C21.1177 55.6626 23.4634 55.7577 23.9398 55.8529C25.1492 56.0431 26.5785 55.6943 26.3219 55.2504C26.212 55.0601 26.3586 55.1553 26.6517 55.4724C27.1282 55.9797 27.678 56.0431 30.28 55.9797C31.9292 55.948 33.6151 55.7894 33.9449 55.6309C34.3114 55.4724 34.6413 55.5041 34.7879 55.6943C35.0078 55.9797 38.0129 55.8529 38.6726 55.5041C38.8559 55.4089 39.0025 55.4406 39.0025 55.5992C39.0025 55.726 40.4685 55.8846 42.2643 55.8846C45.3061 55.948 45.5627 55.8846 45.7826 55.2504C46.0025 54.6796 46.0759 54.6479 46.2224 55.1553C46.2957 55.4724 46.6622 55.6626 46.9921 55.6309C47.8349 55.5041 48.2381 54.965 47.6883 54.6796C46.7354 54.1723 47.9083 54.0454 48.9344 54.5528C49.5208 54.8699 50.2538 55.0284 50.5469 54.9333C50.9135 54.8382 50.9867 54.9333 50.8768 55.3138C50.7669 55.5992 51.0234 55.3138 51.4266 54.6796C51.9763 53.8235 52.3795 53.5381 52.8192 53.6966C53.1856 53.8235 53.3324 53.76 53.1491 53.5381C52.8925 53.1893 53.5522 52.6502 53.9187 52.9356C54.2119 53.221 53.1491 54.2674 52.5626 54.2674C52.2694 54.2674 51.9763 54.5845 51.903 54.965C51.8297 55.3772 51.9763 55.6943 52.1962 55.6943C52.4527 55.6943 52.5626 55.4724 52.416 55.2187C52.2694 54.8382 52.3428 54.8065 52.8925 55.0601C53.4056 55.2821 53.6621 55.2504 53.7721 54.965C53.882 54.6796 54.0653 54.6796 54.4318 54.9333C55.1281 55.3772 57.4736 55.5041 57.1438 55.0601C57.0338 54.9016 57.1072 54.743 57.3637 54.743C57.6569 54.743 57.6569 54.6162 57.2905 54.2357C56.8506 53.7918 56.7773 53.8235 56.4842 54.4894C56.2642 54.9333 56.081 55.0601 55.9711 54.8065C55.8611 54.5211 55.6412 54.4894 55.348 54.7113C55.0182 54.965 54.8716 54.9016 54.8716 54.4894C54.8716 53.8552 56.2642 52.7136 56.5574 53.0941C56.6673 53.2527 57.0705 53.4429 57.437 53.5698C57.7669 53.6649 58.0601 53.982 58.0601 54.2674C58.0601 54.5211 58.2432 54.743 58.4265 54.743C58.6464 54.743 58.793 54.4577 58.793 54.1088C58.793 53.6966 58.9763 53.5381 59.3428 53.6649C59.7092 53.7918 59.7826 53.982 59.5626 54.2357C59.3428 54.4894 59.4894 54.5845 60.1124 54.6162C60.5889 54.6479 60.9919 54.5211 60.9919 54.3625C60.9919 54.1723 61.2484 54.204 61.5417 54.4259C61.9815 54.743 62.0182 54.9016 61.6883 55.0918C61.4317 55.2187 61.9081 55.2821 62.7511 55.2821C64.0705 55.2187 64.2537 55.1235 64.0705 54.6162C63.8873 54.1406 63.9605 54.0454 64.4369 54.204C64.7668 54.3308 65.0234 54.2674 65.0234 54.1088C65.0234 53.9186 64.8768 53.7918 64.6569 53.7918C64.4736 53.7918 64.2904 53.5698 64.2904 53.3161C64.2904 52.5868 64.7301 52.7453 65.9396 53.9503C66.9292 54.9333 67.9553 55.5041 67.4422 54.7747C67.149 54.3625 68.2851 54.0771 68.9815 54.3625C69.8244 54.7113 71.1071 54.5845 71.8035 54.1088C72.7929 53.4112 71.9866 53.1576 70.704 53.7918C69.6778 54.2991 69.4213 54.3308 69.4213 53.9503C69.4213 53.5698 69.238 53.5698 68.4317 53.8235C67.2956 54.1723 66.4893 54.0137 66.4893 53.3795C66.4893 53.0624 66.7825 52.9673 67.4056 53.0941C67.9186 53.1576 68.3218 53.0941 68.3218 52.9039C68.3218 52.7136 68.7982 52.5868 69.4213 52.6185C70.0076 52.6502 70.5207 52.7453 70.5207 52.8405C70.5207 53.0624 72.4265 52.9673 73.1961 52.6819C73.5626 52.5551 74.0756 52.6185 74.4055 52.8722C74.9186 53.221 75.0652 53.221 75.4317 52.7453C75.7981 52.3648 76.0181 52.3331 76.3112 52.5868C76.6411 52.8722 76.971 52.8722 77.6307 52.5868C78.217 52.3648 78.6568 52.3331 78.7668 52.5234C78.9134 52.7136 78.84 52.8405 78.6568 52.8405C78.2537 52.8405 78.3269 54.2991 78.7301 54.6479C78.9134 54.7747 78.95 54.743 78.84 54.5528C78.6935 54.3308 78.9134 54.1088 79.3532 54.0137C79.9028 53.8869 80.0494 53.9503 79.9028 54.2674C79.7562 54.6162 79.9028 54.6479 80.5259 54.4576C80.9657 54.3308 81.5521 54.2674 81.8453 54.3625C82.285 54.4894 82.285 54.4577 81.8453 54.0137C81.5521 53.76 81.2956 53.6649 81.2222 53.8235C81.149 53.982 80.9291 54.1088 80.7458 54.1088C80.526 54.1088 80.4893 53.9503 80.6359 53.7283C80.7825 53.5381 80.7458 53.4747 80.4893 53.6015C79.8663 53.9186 79.6463 53.3161 80.1961 52.6502C80.6726 52.1111 80.8192 52.1112 81.662 52.5234C82.285 52.7771 82.505 53.0624 82.285 53.2527C82.0652 53.4429 82.1019 53.7283 82.4316 53.982C83.0546 54.5211 84.8138 54.0454 84.8138 53.3478C84.8138 53.1259 85.0704 52.8088 85.3636 52.7136C85.6935 52.6185 85.9133 52.6819 85.8767 52.9356C85.7667 53.6966 85.9133 54.1088 86.3165 54.1088C86.4998 54.1088 86.573 53.9186 86.4264 53.6966C86.2798 53.5064 86.4631 53.5381 86.8662 53.8235C87.2327 54.0771 87.7825 54.2674 88.039 54.2357C88.2589 54.204 88.7354 54.1723 89.0285 54.1406C89.3217 54.1406 89.5782 53.8869 89.5782 53.6332C89.5782 52.999 90.1647 53.0307 90.4579 53.6649C90.641 54.1088 90.7144 54.1088 91.264 53.6649C91.8872 53.0941 92.6933 52.9673 92.3269 53.4747C92.2169 53.6332 92.4369 53.7918 92.8401 53.7918C93.2431 53.7918 93.6462 53.6649 93.7563 53.5381C93.9395 53.2527 95.4788 53.2527 96.0284 53.5381C96.2117 53.6332 97.3112 53.7283 98.484 53.76C99.9865 53.7918 100.646 53.6649 100.793 53.3478C100.903 53.0941 101.269 52.9673 101.599 53.0307C101.929 53.0941 102.735 53.0307 103.322 52.8722C104.03 52.6819 104.091 52.5657 103.505 52.5234C102.992 52.4917 102.222 52.46 101.782 52.4282C101.196 52.4282 100.939 52.238 100.939 51.8575C100.939 51.5087 101.196 51.255 101.526 51.255C101.819 51.255 101.966 51.3818 101.856 51.5721C101.599 51.9209 102.515 52.016 102.882 51.6672C103.102 51.477 106.107 51.4135 106.987 51.5721C107.683 51.6989 108.233 51.5721 108.782 51.0647C109.332 50.6208 109.405 50.6208 109.589 51.0647C109.845 51.6038 110.688 51.7623 110.908 51.2867C110.981 51.1282 111.311 51.1599 111.678 51.4135C112.264 51.7623 112.264 51.8575 111.751 52.3014C111.458 52.5868 111.201 52.9039 111.201 53.0624C111.238 53.1893 111.604 52.9039 112.081 52.3965C112.814 51.6355 113.034 51.5721 113.693 51.8575C114.316 52.1429 114.426 52.1429 114.316 51.7941C114.17 51.5404 114.426 51.3818 114.939 51.3501C115.416 51.3184 115.599 51.3818 115.416 51.5087C114.646 51.9843 114.976 52.3648 116.185 52.3965C116.992 52.3965 117.468 52.238 117.615 51.9209C117.725 51.5721 118.311 51.3818 119.337 51.3184C120.217 51.2867 120.986 51.0964 121.023 50.9379C121.17 50.5574 122.196 50.5257 122.196 50.8745C122.196 51.255 120.4 51.9526 119.997 51.7306C119.814 51.6355 119.484 51.8575 119.264 52.2063C118.934 52.7771 118.971 52.8405 119.814 52.8405C120.363 52.8405 120.693 52.7136 120.547 52.5551C120.437 52.3648 120.657 52.0794 121.06 51.8892C121.536 51.6672 121.866 51.6672 122.013 51.8892C122.123 52.0477 122.416 52.2063 122.636 52.2063C122.892 52.2063 122.856 52.0477 122.599 51.7623C122.123 51.255 122.672 50.7476 123.295 51.0964C123.515 51.2233 123.625 51.1282 123.589 50.9062C123.479 50.494 126.154 50.272 126.447 50.6842C126.557 50.8428 126.998 50.7794 127.437 50.5574C128.756 49.9232 129.562 49.9866 129.306 50.6842C129.123 51.2233 129.196 51.255 129.855 50.9696C130.295 50.7476 130.626 50.6842 130.626 50.8111C130.626 50.9062 130.846 50.8745 131.101 50.6842C131.395 50.4623 131.688 50.494 132.018 50.8111C132.457 51.2233 132.311 51.3818 131.651 51.2867C131.468 51.2867 131.358 51.477 131.358 51.7306C131.358 52.3014 132.311 52.3648 132.567 51.7941C132.677 51.5721 132.787 51.6355 132.787 51.9526C132.824 52.5551 133.483 52.6502 134.913 52.3331L135.756 52.1429L135.023 51.255C134.07 50.0817 134.107 49.8915 135.279 50.1452C136.16 50.3354 136.195 50.3037 135.72 49.7964C135.243 49.289 135.279 49.289 136.122 49.7012C136.782 50.0183 138.542 50.1452 142.537 50.1452C147.924 50.1452 148.033 50.1452 148.436 50.9062L148.877 51.6355L149.133 50.9379C149.28 50.5574 149.462 50.3354 149.572 50.4305C149.719 50.5257 150.013 50.3671 150.306 50.05C150.598 49.7646 150.708 49.7012 150.563 49.9549C150.343 50.3037 150.453 50.3671 151.002 50.1452C151.369 50.0183 152.064 49.9232 152.505 49.9232C152.945 49.9549 153.422 49.8281 153.531 49.6695C153.897 49.1622 154.447 49.289 154.227 49.8281C154.081 50.0817 154.191 50.3037 154.411 50.3037C154.631 50.3037 154.813 50.1769 154.813 50.0183C154.813 49.8598 155.217 49.7647 155.73 49.8281C156.243 49.8598 156.646 49.7646 156.646 49.5744C156.646 49.4158 156.903 49.4793 157.27 49.7012C157.672 50.0183 157.892 50.05 158.002 49.7964C158.075 49.5744 158.442 49.4793 158.808 49.5744C159.138 49.6378 159.652 49.4793 159.907 49.2256C160.201 48.9402 160.567 48.7182 160.788 48.7182C161.008 48.7182 160.861 48.9085 160.494 49.1622C159.835 49.5744 159.835 49.6061 160.678 49.511C161.191 49.4476 161.924 49.289 162.29 49.1622C162.803 49.0036 162.913 49.0353 162.729 49.289C162.327 49.8598 163.683 49.7646 164.672 49.1305C165.186 48.8451 165.441 48.7817 165.295 48.9719C165.111 49.2256 165.442 49.3207 166.358 49.289C167.128 49.2573 167.823 49.0353 168.007 48.7499C168.19 48.4646 168.374 48.4011 168.374 48.5914C168.374 48.8134 169.071 48.9402 170.06 48.9085C172.515 48.8768 171.196 48.2109 168.484 48.1158C167.311 48.084 165.772 47.9255 165.076 47.767C164.379 47.6084 162.144 47.4499 160.127 47.4499C158.112 47.4181 155.84 47.2596 155.107 47.1011C154.044 46.8791 153.457 46.9108 152.615 47.2913C151.699 47.7035 151.552 47.7035 151.735 47.2913C151.919 46.9425 151.699 46.8791 150.708 47.0059C149.242 47.1962 149.499 47.2279 145.469 46.8791C143.672 46.7523 141.656 46.7205 140.997 46.8474C140.337 46.9742 139.751 46.9742 139.641 46.8791C139.384 46.6571 136.929 46.6571 136.672 46.8791C136.562 46.9742 135.866 46.9425 135.096 46.8474C134.364 46.7205 132.861 46.7205 131.798 46.8157C130.736 46.9425 129.819 46.9425 129.709 46.8791C129.562 46.7523 124.908 46.6888 124.211 46.8157C124.029 46.8474 123.699 46.8474 123.479 46.8157C123.149 46.7523 120.4 46.8157 115.782 46.9742C113.913 47.0376 101.966 47.3547 92.6933 47.5767C89.8714 47.6401 87.5625 47.7035 87.5625 47.7352C87.5625 47.8621 77.7406 48.084 71.6934 48.1158C68.2485 48.1475 65.3166 48.2426 65.2066 48.3694C65.1333 48.4963 63.7772 48.5597 62.238 48.4963C60.1857 48.4011 59.3061 48.4963 59.1229 48.7817C58.9396 49.0036 58.793 49.0353 58.793 48.8451C58.793 48.6548 57.8401 48.5597 56.1543 48.6231C54.6883 48.6548 50.8036 48.7182 47.505 48.7182C42.9239 48.7182 41.6046 48.8134 41.8244 49.1305C42.0077 49.4158 41.9345 49.4158 41.5313 49.1622C41.2381 48.9719 38.8192 48.8451 35.3376 48.8768C32.2224 48.9085 29.3271 48.8134 28.924 48.6865C28.3742 48.4963 28.5575 48.4329 29.657 48.4011C30.7564 48.4011 30.9764 48.306 30.5733 48.084C30.2434 47.8938 30.2068 47.767 30.4632 47.767C30.6832 47.767 31.013 47.8938 31.123 48.084C31.2329 48.2426 31.746 48.4011 32.2591 48.4011C32.9188 48.4011 33.1386 48.2109 33.1753 47.6718C33.1753 47.0059 33.212 47.0059 33.5052 47.6084C33.7251 48.0206 33.835 48.084 33.835 47.767C33.8717 47.3547 33.9449 47.3547 34.2015 47.7352C34.4947 48.1158 34.8611 48.1475 35.924 47.8938C37.3167 47.6084 37.9397 46.9742 37.0967 46.7205C36.8402 46.6571 36.9135 46.6254 37.28 46.6571C38.0129 46.784 38.123 46.3083 37.4633 46.0546C37.2068 45.9595 37.6465 45.9278 38.4528 45.9595C39.6255 46.0229 39.9554 46.1498 40.0287 46.6888C40.102 47.1962 40.3219 47.323 40.8716 47.2279C41.6779 47.0376 41.7512 46.784 41.1282 46.2449C40.5784 45.7693 40.9082 45.4839 41.6779 45.7375C42.0077 45.8327 42.2277 46.2132 42.191 46.5937C42.1543 47.0693 42.3009 47.2596 42.6674 47.1645C42.9606 47.0693 43.5836 47.0059 44.0234 47.0059C44.5365 46.9742 44.903 46.7205 45.0496 46.2449C45.1595 45.8644 45.4894 45.5473 45.746 45.5473C46.0392 45.5473 46.5156 45.3253 46.8088 45.0716C47.2852 44.6911 47.3585 44.7546 47.5784 45.6424L47.8349 46.6571L48.2748 45.8644C48.6045 45.2936 49.0444 45.0716 49.7407 45.0716C50.2905 45.1034 50.7302 45.0082 50.7302 44.8814C50.7302 44.7546 51.0967 44.7228 51.4998 44.818C52.0496 44.9448 52.4894 44.818 52.7826 44.4375C53.0757 44.0887 53.2957 43.9935 53.2957 44.1838C53.2957 44.374 53.5522 44.6277 53.8454 44.7228C54.2119 44.8497 54.3951 44.7546 54.3218 44.4375C54.2486 44.2155 54.3951 44.0252 54.5784 44.0569C54.7982 44.0886 54.9083 44.2155 54.8349 44.3423C54.725 44.6911 55.0548 44.6594 55.8611 44.2789C56.6673 43.8984 58.4265 44.374 58.4265 44.9448C58.4265 45.1985 58.2799 45.2302 57.95 44.9448C57.5836 44.6911 57.437 44.7228 57.437 45.0399C57.437 45.2936 57.7668 45.579 58.1333 45.6424C58.7563 45.801 58.9396 45.5473 58.793 44.6277C58.7563 44.3423 58.9396 44.2472 59.3061 44.374C59.5993 44.4692 59.9658 44.4375 60.1124 44.2472C60.2223 44.0569 60.882 43.9935 61.5783 44.0569C62.2747 44.1521 62.861 44.0569 62.9711 43.835C63.081 43.613 63.3375 43.6764 63.6673 44.0252C64.2171 44.6277 64.8401 44.818 64.4736 44.2789C64.3637 44.0887 64.4369 43.9618 64.6569 43.9618C64.8768 43.9618 65.0234 44.2155 64.9501 44.5009C64.8768 44.9131 65.17 45.0716 66.2328 45.1351C67.0758 45.1985 67.5522 45.1351 67.4422 44.9448C67.2956 44.7863 67.3689 44.5326 67.5888 44.4375C67.8087 44.3106 67.9186 44.3423 67.8819 44.5009C67.8087 44.6277 67.9553 44.7863 68.1385 44.8497C68.3584 44.8814 68.5051 44.6594 68.5416 44.3106C68.5783 43.9935 68.6882 43.5813 68.8348 43.3593C69.2013 42.852 69.7877 43.2325 69.5312 43.8033C69.4213 44.0887 69.5679 44.2789 69.9344 44.2789C70.2641 44.2789 70.5207 44.0569 70.5207 43.7716C70.5207 43.5179 70.704 43.391 70.9238 43.5179C71.1438 43.613 71.4736 43.5496 71.6202 43.3276C71.8035 43.1057 72.3898 42.8837 72.9762 42.8203C73.8191 42.7251 74.039 42.852 74.0756 43.3593C74.1857 44.5643 74.8819 44.4692 75.3951 43.2008C75.4317 43.0422 75.9447 42.9154 76.4945 42.9154C77.0443 42.9154 77.374 42.8203 77.2641 42.6617C77.1542 42.5032 77.2641 42.3763 77.4841 42.3763C77.7406 42.3763 77.8139 42.5983 77.7039 42.8837C77.594 43.1691 77.4841 43.4228 77.4841 43.4862C77.4841 43.5496 77.0809 43.5496 76.5679 43.4545C75.9082 43.3593 75.7249 43.4228 75.8715 43.7716C76.2013 44.5326 77.374 44.6911 78.6202 44.1521C79.3898 43.835 79.9762 43.7399 80.3793 43.9618C80.8557 44.1521 81.1123 44.0569 81.4422 43.613C81.8086 43.1057 81.772 43.0105 81.3321 43.0105C81.039 43.0105 80.7825 42.8837 80.7825 42.7251C80.7825 42.3129 81.8086 42.0275 82.0652 42.4081C82.2118 42.5666 82.4316 42.63 82.6516 42.5349C82.9814 42.3446 88.3322 41.9324 89.8714 41.9641C90.3113 41.9958 90.6777 41.869 90.6777 41.7422C90.6777 41.2348 92.1804 41.1714 93.2431 41.647C94.5991 42.2178 94.5991 42.2812 93.3531 42.3129C92.7667 42.3129 91.9237 42.4081 91.4107 42.4715C90.8976 42.5349 90.3113 42.4715 90.0913 42.3129C89.8348 42.1544 89.5782 42.2178 89.4683 42.5032C89.3217 42.8203 89.6516 42.9788 90.6044 43.074C91.3374 43.1691 91.9971 43.1057 92.0703 42.9788C92.1437 42.852 92.4002 42.7886 92.6933 42.8837C92.95 42.9788 93.5363 42.8837 93.9761 42.6934C94.5259 42.4398 94.8924 42.4398 95.2221 42.6934C95.5887 42.9471 95.7719 42.9154 95.9552 42.5349C96.0651 42.2812 95.9919 42.0592 95.8086 42.0592C95.5887 42.0592 95.4421 41.9324 95.4421 41.7739C95.4421 41.6153 96.1018 41.4251 96.9446 41.3616C98.264 41.2665 98.484 41.3299 98.7772 41.9958C98.9604 42.4081 99.2903 42.63 99.4735 42.5349C99.7667 42.3763 99.73 42.1861 99.4369 41.869C98.8871 41.2982 99.2536 40.9494 100.426 40.9494C101.343 40.9177 101.599 41.2348 100.939 41.5836C100.756 41.6787 100.573 41.9641 100.61 42.1544C100.61 42.4398 100.683 42.4398 100.793 42.1544C100.903 41.9324 101.233 41.869 101.562 41.9641C101.929 42.091 102.076 42.0275 101.892 41.8056C101.562 41.3616 102.295 41.0128 103.871 40.886C104.568 40.8543 105.85 40.7275 106.693 40.6323C107.536 40.5689 108.343 40.6323 108.453 40.7909C108.562 40.9494 108.892 41.0128 109.185 40.886C109.589 40.7592 109.662 40.8543 109.515 41.2348C109.222 41.9007 109.955 41.9007 110.395 41.2348C110.688 40.7592 110.761 40.7592 110.945 41.2348C111.238 41.869 111.934 41.9007 111.934 41.2665C111.934 41.0128 111.788 40.7909 111.568 40.7909C111.384 40.7909 111.201 40.6323 111.201 40.4421C111.201 40.2835 111.384 40.2201 111.568 40.3152C111.788 40.4104 111.934 40.3152 111.934 40.0933C111.934 39.7445 112.007 39.7445 112.264 40.0933C112.411 40.3469 112.887 40.4738 113.253 40.4104C113.767 40.3469 113.95 40.4738 113.877 40.9494C113.84 41.5202 113.877 41.5202 114.28 41.0445C114.61 40.664 114.866 40.6006 115.343 40.8226C115.746 41.0445 115.966 41.0445 115.966 40.8226C115.966 40.664 116.295 40.6006 116.699 40.6957C117.248 40.8226 117.395 40.7592 117.248 40.4104C117.065 40.0298 117.358 39.9347 118.678 39.9347C120.547 39.9347 120.51 39.903 119.96 40.886C119.74 41.3088 119.789 41.3616 120.107 41.0445C120.4 40.7274 120.767 40.6006 120.913 40.7274C121.096 40.8543 121.096 40.664 120.95 40.3469C120.767 39.8713 120.803 39.8079 121.206 40.0933C121.5 40.3152 121.866 40.3469 122.013 40.2201C122.196 40.0933 122.196 40.1884 122.049 40.3786C121.719 40.886 123.149 40.9494 123.479 40.4738C123.589 40.2835 123.515 40.1567 123.259 40.1567C122.966 40.1567 122.966 40.0298 123.332 39.6493C123.735 39.2054 123.809 39.2054 124.102 39.6493C124.284 39.9347 124.761 40.1567 125.128 40.1567C125.53 40.1567 125.861 40.2835 125.861 40.4738C125.861 40.6323 126.044 40.7909 126.227 40.7909C126.484 40.7909 126.484 40.6006 126.227 40.1567C126.007 39.8079 125.897 39.4908 125.934 39.4908C126.191 39.3957 128.389 39.2054 130.442 39.0786C131.835 39.0151 132.751 39.1103 132.897 39.3322C133.338 39.903 133.228 40.1567 132.641 39.9664C132.347 39.8396 132.202 39.6176 132.347 39.4274C132.494 39.2371 132.384 39.2054 132.055 39.3957C131.395 39.7762 129.782 39.7762 129.49 39.3957C129.343 39.2371 129.086 39.3957 128.866 39.7127C128.536 40.2835 128.646 40.3152 130.918 40.2835C133.154 40.2518 133.374 40.1884 133.301 39.6176C133.228 39.0786 133.558 38.9517 135.463 38.6346C136.672 38.4444 137.845 38.3492 138.028 38.4444C138.212 38.5395 138.578 38.4761 138.871 38.2541C139.238 38.0004 139.568 38.0004 140.118 38.2541C140.557 38.4444 140.887 38.4761 140.887 38.2858C140.887 38.1273 141.656 37.9053 142.647 37.7785C143.599 37.6516 144.552 37.4297 144.772 37.2711C145.029 37.1126 145.469 37.2394 146.018 37.6833C146.678 38.2224 146.97 38.2858 147.521 38.0004C147.887 37.7785 148.51 37.6199 148.84 37.6199C149.242 37.6199 148.987 37.8736 148.216 38.2224C147.337 38.6346 146.75 38.7298 146.311 38.5395C145.871 38.3175 145.394 38.381 144.808 38.7298C144.332 38.9834 143.819 39.1103 143.636 38.9834C143.489 38.8249 143.452 38.8883 143.599 39.1103C143.709 39.3005 143.562 39.5225 143.196 39.6176C142.647 39.7445 142.647 39.7762 143.306 39.8079C143.709 39.8079 144.258 39.6493 144.515 39.4274C144.918 39.1103 144.992 39.1103 144.772 39.4274C144.405 39.9981 144.845 39.9347 145.541 39.3639C145.981 38.9834 146.201 38.9517 146.605 39.2371C147.007 39.5225 147.3 39.4908 147.814 39.0786C148.216 38.7615 148.803 38.5712 149.207 38.6346C149.572 38.698 149.829 38.5712 149.793 38.3175C149.646 37.7785 150.306 37.8419 150.563 38.4444C150.708 38.7615 150.635 38.8566 150.343 38.698C150.086 38.5712 150.049 38.6029 150.196 38.8566C150.416 39.142 150.708 39.1103 151.369 38.7615C152.395 38.159 153.238 38.1273 153.457 38.6346C153.567 38.8566 153.677 38.6663 153.677 38.159C153.714 37.6199 153.897 37.3028 154.264 37.3028C154.556 37.3028 154.813 37.176 154.813 36.9857C154.813 36.8272 155.804 36.7003 157.123 36.7638C158.808 36.8272 159.395 36.954 159.395 37.3028C159.395 37.5565 159.688 37.8102 160.017 37.8736C160.531 37.9687 160.604 37.8419 160.421 37.4297C160.237 37.0174 160.311 36.9223 160.788 37.0809C161.191 37.2077 161.41 37.1126 161.41 36.8589C161.41 36.5735 161.703 36.4784 162.327 36.5735C163.096 36.7321 163.133 36.7955 162.693 37.2077C162.4 37.4614 162.144 37.6833 162.144 37.7468C162.144 37.7785 163.39 37.7785 164.929 37.7468C166.871 37.7151 167.86 37.5882 168.227 37.2394C168.74 36.7955 168.704 36.7321 167.823 36.6052C167.201 36.4784 166.798 36.5735 166.651 36.8589C166.395 37.4931 164.709 37.4297 164.709 36.7955C164.709 36.5418 164.562 36.415 164.342 36.5101C164.159 36.6052 163.975 36.5418 163.975 36.3833C163.975 36.0345 164.379 35.9393 165.002 36.0979C165.148 36.1613 165.221 36.2881 165.148 36.415C165.039 36.7955 166.102 36.7321 166.358 36.3515C166.798 35.7174 168.63 36.0027 169.29 36.7955C169.84 37.4297 170.096 37.5248 170.682 37.2394C171.049 37.0809 171.709 36.9857 172.075 37.0809C172.515 37.176 172.772 37.0809 172.772 36.8272C172.772 36.4784 172.992 36.4467 173.798 36.7003C174.75 36.9857 176.767 36.9223 178.453 36.5735C178.855 36.4784 179.734 36.3833 180.395 36.3833C181.055 36.3515 181.531 36.2247 181.421 36.0662C181.311 35.9393 181.604 35.8759 182.044 35.9393C183.29 36.1296 183.913 35.6222 183.437 34.8295C183.07 34.227 183.143 34.1002 184.133 33.6562C184.756 33.3709 185.415 33.244 185.562 33.3391C185.745 33.4343 186.002 33.3074 186.076 33.1172C186.222 32.8001 186.296 32.8001 186.296 33.1172C186.331 33.3709 186.515 33.4343 186.808 33.2757C187.028 33.1489 187.761 33.022 188.348 32.9903C188.971 32.9903 190.254 32.8635 191.206 32.7367C192.599 32.5464 192.928 32.3879 192.782 32.0073C192.636 31.6903 192.709 31.5951 193.001 31.6903C193.258 31.7854 193.735 31.9439 194.065 32.0708C194.394 32.1659 194.908 32.0708 195.164 31.8171C195.458 31.5951 196.227 31.4366 196.886 31.4683C197.803 31.5317 198.06 31.4366 197.913 31.1195C197.73 30.7073 198.279 30.6438 199.012 31.0561C199.269 31.1829 199.526 30.9926 199.635 30.6121C199.782 30.1365 199.708 30.0097 199.343 30.1365C199.012 30.2316 198.902 30.1365 199.012 29.8511C199.233 29.3755 201.394 28.0437 202.934 27.4412C203.484 27.2192 203.923 26.9338 203.923 26.807C203.923 26.6484 204.217 26.6167 204.583 26.7119C205.132 26.8704 205.132 26.8387 204.62 26.4582C204.327 26.2362 203.96 25.7923 203.813 25.4752C203.666 25.1581 203.374 24.9996 203.191 25.0947C202.971 25.2215 202.604 25.1898 202.347 25.0313C201.908 24.7142 201.468 24.7459 195.677 25.063C194.065 25.1264 190.766 25.2849 188.348 25.3801C185.929 25.4752 182.96 25.6337 181.751 25.7289C180.541 25.824 177.829 25.9508 175.704 26.0143C170.756 26.1411 160.567 26.5216 157.013 26.7119C155.51 26.7753 153.494 26.8387 152.505 26.8387C151.515 26.8387 150.453 26.9655 150.086 27.1558C149.609 27.3778 149.28 27.3778 149.133 27.1558C149.023 26.9972 148.436 26.8387 147.851 26.8387C147.264 26.8387 146.678 26.9972 146.568 27.1558C146.421 27.3778 146.128 27.3778 145.651 27.1558C144.808 26.7753 143.416 26.7119 144.075 27.0924C144.332 27.2192 143.086 27.3143 141.327 27.2826C139.568 27.2509 137.918 27.3461 137.698 27.5363C137.369 27.7583 137.039 27.7266 136.599 27.4412C136.085 27.0607 136.013 27.0607 136.305 27.4412C136.526 27.7583 136.452 27.8217 136.085 27.6314C135.5 27.2826 134.364 27.2826 133.448 27.6314C133.081 27.7583 132.714 27.79 132.604 27.6949C132.457 27.5997 131.982 27.6631 131.468 27.8217C130.955 27.9802 130.405 28.012 130.185 27.9168C129.672 27.6314 125.787 27.5046 125.311 27.7266C124.871 27.9485 120.767 27.8534 120.327 27.5997C120.144 27.5046 119.997 27.5997 119.997 27.7583C119.997 27.9485 119.814 28.1071 119.594 28.1071C119.411 28.1071 119.301 27.9802 119.447 27.8217C119.557 27.6314 118.788 27.568 117.541 27.6631C116.369 27.7583 114.023 27.8534 112.301 27.8851C110.285 27.9168 109.002 28.1071 108.672 28.3608C108.269 28.7096 108.086 28.7096 107.903 28.3925C107.719 28.2022 107.353 28.1071 106.987 28.2022C106.657 28.329 106.473 28.2973 106.62 28.1071C106.767 27.9168 106.364 27.79 105.74 27.79C105.154 27.79 104.568 27.6632 104.458 27.5363C104.384 27.4095 104.861 27.3461 105.557 27.4095C106.254 27.4729 106.803 27.4095 106.803 27.2192C106.803 27.029 106.473 26.9655 106.07 27.0607C105.008 27.3143 105.117 26.3314 106.254 25.6972C106.987 25.2849 107.28 25.2532 107.719 25.5703C108.086 25.824 108.269 25.8557 108.269 25.6337C108.269 25.4435 108.526 25.3484 108.819 25.4435C109.112 25.5703 109.589 25.5069 109.845 25.3167C110.102 25.1264 110.908 25.0947 111.751 25.2215C112.85 25.3801 113.217 25.5703 113.18 26.0143C113.144 26.2996 113.217 26.4899 113.327 26.3948C113.437 26.2996 113.767 26.3948 114.06 26.6167C114.5 26.9021 114.646 26.9021 114.756 26.585C114.939 26.1728 115.966 26.046 115.966 26.4582C115.966 26.9655 117.908 26.807 118.788 26.2045C119.301 25.8557 119.557 25.5703 119.337 25.5703C119.154 25.5703 118.898 25.3484 118.788 25.1264C118.641 24.7776 118.751 24.7142 119.154 24.841C119.557 24.9678 119.667 24.9044 119.484 24.6825C119.301 24.4288 119.484 24.3019 119.96 24.3019C120.4 24.3019 120.767 24.4288 120.767 24.619C120.803 24.7776 120.877 25.063 120.913 25.2532C120.95 25.4118 121.023 25.6655 121.06 25.7923C121.096 26.0143 122.562 24.619 122.562 24.3019C122.562 24.1751 122.819 24.08 123.112 24.08C123.405 24.08 123.515 24.2385 123.405 24.3971C123.259 24.5873 123.405 24.6508 123.772 24.5239C124.102 24.4288 124.468 24.4605 124.578 24.619C124.725 24.8093 125.091 24.8093 125.53 24.5873C125.934 24.4288 126.447 24.3337 126.704 24.4288C127.033 24.5239 127.033 24.5873 126.704 24.5873C126.447 24.619 126.227 24.7459 126.227 24.8727C126.227 25.3166 128.793 24.9996 129.38 24.4605C129.929 24.0166 130.002 24.0166 130.442 24.4922C130.771 24.9361 131.138 24.9678 132.311 24.7459C133.081 24.619 133.96 24.4922 134.217 24.5239C134.584 24.5556 134.584 24.4605 134.254 24.1117C133.923 23.7629 133.923 23.6678 134.254 23.6678C134.51 23.6678 134.584 23.5092 134.474 23.3507C134.364 23.1604 134.364 23.0336 134.547 23.0019C134.694 23.0019 135.463 22.9384 136.232 22.875C137.002 22.8116 138.028 22.6848 138.578 22.5896C139.384 22.3994 139.458 22.4311 138.981 22.8433C138.615 23.1287 138.102 23.2238 137.588 23.1287C136.929 22.9701 136.819 23.0336 137.039 23.3824C137.296 23.7312 137.259 23.7629 136.819 23.4458C136.452 23.1921 136.122 23.1604 135.756 23.4141C135.316 23.6678 135.316 23.6995 135.83 23.5409C136.195 23.4458 136.562 23.5409 136.709 23.6995C136.819 23.8897 137.331 23.9531 137.808 23.858C138.395 23.7312 138.762 23.7946 138.907 24.08C139.128 24.619 142.023 24.6825 142.426 24.1434C142.61 23.9531 142.72 24.0166 142.72 24.3019C142.72 24.7142 142.757 24.7142 143.086 24.3019C143.379 23.9214 143.452 23.9214 143.452 24.2702C143.452 24.619 143.562 24.619 144.003 24.3019C144.295 24.1117 144.845 24.0166 145.249 24.1434C145.944 24.3337 146.458 23.9214 146.64 23.0653C146.678 22.8433 146.897 22.4628 147.117 22.2725C147.447 22.0189 147.521 22.2091 147.411 23.0019C147.337 23.6995 147.484 24.1434 147.814 24.2385C148.106 24.3019 148.216 24.2385 148.106 24.08C147.996 23.9214 148.51 23.8263 149.242 23.8897C150.306 23.9531 150.453 23.9214 149.866 23.6995C149.242 23.4458 149.207 23.3824 149.793 23.3824C150.453 23.3507 150.708 22.7165 150.049 22.7165C149.866 22.7165 149.682 22.5896 149.682 22.4628C149.682 22.3043 149.939 22.1774 150.233 22.1774C150.526 22.1774 150.782 22.3677 150.782 22.6213C150.782 22.8433 150.965 23.0336 151.185 23.0336C151.369 23.0336 151.479 23.1604 151.332 23.319C151.075 23.7312 153.457 23.6043 153.787 23.2238C153.934 23.0336 154.374 23.0336 154.923 23.2555C155.437 23.4775 155.949 23.5409 156.096 23.4141C156.243 23.2872 157.27 23.1604 158.406 23.1604C159.578 23.1287 161.153 23.0336 161.96 22.9384C162.766 22.8433 164.489 22.6848 165.808 22.5896C167.128 22.4628 169.106 22.2091 170.206 22.0189C171.306 21.8286 172.442 21.6701 172.699 21.6701C172.955 21.6701 173.102 21.4798 172.992 21.2261C172.882 21.0042 172.955 20.8139 173.139 20.8139C173.358 20.8139 173.504 20.9407 173.504 21.0993C173.504 21.2895 173.835 21.3847 174.238 21.353C174.64 21.3213 174.97 21.2261 174.97 21.0993C174.97 20.9725 175.484 20.9407 176.106 21.0359C176.95 21.131 177.169 21.0676 176.987 20.7822C176.803 20.5285 176.84 20.4651 177.097 20.6236C177.573 20.8773 179.002 20.3066 179.002 19.8626C179.002 19.6724 178.709 19.5138 178.378 19.5138C178.013 19.4821 178.306 19.3553 179.002 19.2284C179.699 19.0699 180.651 18.8796 181.127 18.7528C181.897 18.5308 182.154 18.9113 181.971 19.926C181.897 20.3066 182.448 20.2114 183.29 19.7041C183.839 19.387 184.133 19.3553 184.206 19.5772C184.279 19.7992 184.683 19.8626 185.085 19.7358C185.599 19.6089 185.782 19.2601 185.782 18.5308C185.782 17.6747 186.039 17.421 187.797 16.5014C188.898 15.9306 189.96 15.3916 190.107 15.3599C190.803 15.1062 189.814 14.1549 188.421 13.711C187.212 13.3305 185.305 13.2353 179.479 13.2988C175.374 13.3305 172.038 13.267 172.038 13.1402C172.038 12.95 172.735 12.4743 173.139 12.3792C173.248 12.3792 173.578 12.2841 173.871 12.1572C174.165 12.0621 174.677 11.9035 174.97 11.8401C175.411 11.6816 175.411 11.6499 174.934 11.6499C174.604 11.6182 174.238 11.3645 174.128 11.0157C173.871 10.1278 172.002 9.96926 164.342 10.1912C157.672 10.4132 155.986 10.2864 157.05 9.68388C157.379 9.49362 157.415 9.30336 157.195 9.14482C156.829 8.95456 156.793 8.73259 156.976 7.87644C156.976 7.7496 158.259 6.98857 159.762 6.22755C161.557 5.30797 162.474 4.67378 162.327 4.3884C162.217 4.13472 162.144 3.84934 162.144 3.75421C162.144 3.18344 159.762 2.67609 157.452 2.77121C155.033 2.86634 153.347 2.58096 152.945 2.07361C152.578 1.53454 148.73 1.15403 142.829 1.09061C139.531 1.02719 136.856 0.932064 136.856 0.836936C136.856 0.741808 134.913 0.646679 132.531 0.58326C125.201 0.424713 119.85 0.202746 119.374 0.0759085C119.154 -0.0192199 118.898 -0.0192198 118.824 0.0441992ZM103.212 3.37369C103.981 3.37369 104.604 3.50053 104.604 3.69079C104.604 3.84934 104.494 4.00788 104.348 4.03959C101.856 4.29327 89.4316 4.48352 87.306 4.26156C86.9762 4.22985 86.7562 4.10301 86.8662 3.94446C86.9762 3.78592 87.2327 3.75421 87.416 3.84934C87.5992 3.94446 88.3322 3.91275 89.0285 3.7225C89.9814 3.50053 90.3113 3.53224 90.3113 3.78592C90.3113 4.00788 90.4944 3.91275 90.7144 3.59566C90.9708 3.21515 91.264 3.12002 91.5206 3.31027C91.7771 3.46882 92.6201 3.59566 93.4264 3.53224C94.2327 3.50053 95.0755 3.59566 95.2588 3.7225C95.6986 4.00788 97.4944 3.91275 97.8975 3.59566C98.3007 3.24686 98.8138 3.34198 98.5207 3.7225C98.1908 4.19814 99.8399 3.75421 100.573 3.18344C100.903 2.89805 101.196 2.83463 101.453 3.0566C101.672 3.24686 102.442 3.37369 103.212 3.37369ZM96.9081 3.18344C96.9081 3.27857 96.7615 3.43711 96.5415 3.53224C96.3583 3.62737 96.175 3.56395 96.175 3.4054C96.175 3.21515 96.3583 3.0566 96.5415 3.0566C96.7615 3.0566 96.9081 3.12002 96.9081 3.18344ZM82.285 4.48353C82.4683 4.35669 82.6149 4.42011 82.6149 4.61036C82.6149 4.92746 80.4893 5.43481 80.1594 5.18113C80.0494 5.086 80.3793 4.67378 80.8192 4.22985C81.6253 3.53224 81.6987 3.53224 81.8086 4.0713C81.882 4.3884 82.1019 4.57865 82.285 4.48353ZM85.107 4.70549C84.8505 5.33968 84.0809 5.37139 84.0442 4.7372C84.0442 4.42011 83.9343 4.32498 83.8244 4.54694C83.751 4.76891 83.5311 4.95917 83.3479 4.95917C82.9447 4.95917 82.5782 4.00788 82.8348 3.65908C83.0913 3.27857 85.2537 4.26156 85.107 4.70549ZM106.803 3.65908C106.803 4.10301 106.144 4.3884 105.704 4.16643C105.484 4.03959 105.411 3.81763 105.521 3.65908C105.814 3.27857 106.803 3.27857 106.803 3.65908ZM149.829 10.1912C149.682 10.4449 149.536 10.6669 149.462 10.6669C149.389 10.6669 149.317 10.4449 149.317 10.1912C149.317 9.93755 149.462 9.71559 149.682 9.71559C149.866 9.71559 149.939 9.93755 149.829 10.1912ZM15.1806 19.2284C15.1806 19.5455 15.034 19.926 14.8141 20.0212C14.5943 20.148 14.4477 19.7992 14.4477 19.2284C14.4477 18.6577 14.5943 18.3089 14.8141 18.4357C15.034 18.5308 15.1806 18.9113 15.1806 19.2284ZM36.0706 19.1967C36.0706 19.3553 35.814 19.5455 35.5575 19.6407C35.191 19.7675 35.0811 19.6724 35.2276 19.3553C35.4476 18.8796 36.0706 18.7528 36.0706 19.1967ZM26.9083 19.5138C26.9083 20.0212 25.9921 20.1163 25.5157 19.6724C25.1125 19.2918 25.2224 19.2284 25.9921 19.2284C26.5051 19.2284 26.9083 19.3553 26.9083 19.5138ZM30.7564 19.5455C30.6465 19.7041 30.3533 19.8626 30.1701 19.8626C29.9503 19.8626 29.9136 19.7041 30.0235 19.5455C30.1334 19.3553 30.4267 19.2284 30.6098 19.2284C30.8298 19.2284 30.8665 19.3553 30.7564 19.5455ZM172.405 20.1797C172.405 20.3383 172.222 20.4968 172.002 20.4968C171.818 20.4968 171.746 20.3383 171.855 20.1797C171.965 19.9895 172.148 19.8626 172.258 19.8626C172.332 19.8626 172.405 19.9895 172.405 20.1797ZM161.373 21.7652C161.081 22.0189 159.944 21.9872 159.944 21.7018C159.944 21.5749 160.127 21.4481 160.311 21.4481C160.531 21.4481 160.641 21.353 160.641 21.1944C160.494 20.5285 160.751 20.4017 161.118 20.9725C161.373 21.3213 161.483 21.6701 161.373 21.7652ZM170.756 21.131C170.39 21.4798 169.95 21.7652 169.73 21.7652C169.546 21.7652 169.766 21.4798 170.243 21.131C171.379 20.3383 171.599 20.3383 170.756 21.131ZM165.258 21.4481C165.368 21.6066 165.331 21.7652 165.111 21.7652C164.929 21.7652 164.636 21.6066 164.526 21.4481C164.416 21.2578 164.452 21.131 164.672 21.131C164.856 21.131 165.148 21.2578 165.258 21.4481ZM157.123 21.8286C157.05 21.9872 156.463 22.0823 155.877 22.0823C155.253 22.0823 154.85 21.9554 154.997 21.7652C155.107 21.6066 155.693 21.5115 156.243 21.5432C156.829 21.5749 157.233 21.7018 157.123 21.8286ZM152.725 22.3043C152.578 22.5896 152.358 22.6213 151.844 22.3677C150.965 21.9554 150.965 21.9237 152.029 21.9237C152.541 21.9237 152.835 22.0823 152.725 22.3043ZM146.311 22.4628C146.238 22.6531 145.761 22.8433 145.284 22.875C144.515 22.9384 144.478 22.9067 145.102 22.4945C145.944 21.9872 146.495 21.9554 146.311 22.4628ZM148.95 22.5262C148.95 22.5896 148.693 22.7165 148.4 22.8433C148.106 22.9384 147.851 22.875 147.851 22.7165C147.851 22.5262 148.106 22.3994 148.4 22.3994C148.693 22.3994 148.95 22.4628 148.95 22.5262ZM142.537 23.0336C143.012 23.0336 143.122 23.1287 142.829 23.3824C142.573 23.6043 142.096 23.5726 141.217 23.1921C140.264 22.8433 140.19 22.7482 140.887 22.875C141.401 22.9384 142.133 23.0336 142.537 23.0336ZM32.1857 24.3337C31.7093 24.4922 31.6727 24.5873 32.0392 24.5873C32.369 24.619 32.2224 24.8093 31.6727 25.0313C30.8665 25.4118 30.7199 25.3801 30.3167 24.8093C29.9503 24.2385 29.9868 24.1117 30.6832 23.9531C31.123 23.858 31.8193 23.858 32.1857 23.9531C32.6744 24.0377 32.6744 24.1645 32.1857 24.3337ZM131.725 24.1434C131.725 24.4288 131.505 24.5239 131.175 24.4288C130.881 24.3019 130.736 24.1117 130.846 23.9531C131.138 23.5092 131.725 23.636 131.725 24.1434ZM17.9293 24.5556C17.8193 24.6508 17.5261 24.5556 17.2696 24.3337C16.9398 24.0166 16.9765 23.9848 17.4895 24.1751C17.856 24.2702 18.0393 24.4605 17.9293 24.5556ZM25.3691 24.5239C25.4424 24.7776 25.1859 24.9361 24.746 24.9361C23.9764 24.9361 23.4634 24.5239 23.8664 24.1751C24.233 23.858 25.1859 24.08 25.3691 24.5239ZM29.3271 24.4605C29.6936 24.7142 29.8402 24.9361 29.5837 24.9361C28.8873 24.9361 28.0078 24.5873 28.0078 24.2702C28.0078 23.858 28.5209 23.9214 29.3271 24.4605ZM35.1177 24.4605C35.2276 24.7142 35.1544 24.9361 34.9711 24.9361C34.7512 24.9361 34.6046 24.7142 34.6046 24.4605C34.6046 24.2068 34.678 23.9848 34.7512 23.9848C34.8246 23.9848 34.9711 24.2068 35.1177 24.4605ZM40.835 24.3019C40.835 24.4605 40.6884 24.619 40.4685 24.619C40.2852 24.619 40.102 24.4605 40.102 24.3019C40.102 24.1117 40.2852 23.9848 40.4685 23.9848C40.6884 23.9848 40.835 24.1117 40.835 24.3019ZM15.0707 24.4922C14.9607 24.5873 14.6308 24.619 14.3743 24.5239C14.0812 24.4288 14.1911 24.3337 14.5943 24.3337C14.9974 24.3019 15.2173 24.3971 15.0707 24.4922ZM44.4998 24.619C44.4998 24.7776 44.2066 24.9361 43.8768 24.9361C43.3271 24.9361 43.2904 24.8727 43.7669 24.619C44.4633 24.2385 44.4998 24.2385 44.4998 24.619ZM117.798 25.9508C117.798 26.5533 117.725 26.585 117.432 26.2045C117.138 25.824 117.065 25.824 117.065 26.1728C117.065 26.4899 116.882 26.4899 116.149 26.0777C115.636 25.7923 115.013 25.6337 114.793 25.7606C114.536 25.8874 114.5 25.8557 114.646 25.6337C114.793 25.4118 115.562 25.2532 116.369 25.2532C117.615 25.2532 117.798 25.3484 117.798 25.9508ZM100.939 26.9021C100.939 27.029 100.573 27.2826 100.17 27.5046C99.5468 27.79 99.4369 27.7583 99.6567 27.4412C99.8766 27.1558 99.7667 27.1241 99.3635 27.2509C98.5572 27.5363 97.7509 27.7266 98.1175 27.568C98.264 27.4729 98.3741 27.1875 98.3741 26.9021C98.3741 26.4265 98.3007 26.4265 98.0075 26.8387C97.7509 27.1875 97.641 27.2192 97.641 26.9021C97.641 26.6484 97.9709 26.3948 98.3741 26.2996C98.7772 26.2045 99.107 25.9825 99.107 25.824C99.107 25.5069 100.903 26.5533 100.939 26.9021ZM102.039 26.046C102.405 26.4265 102.405 26.5216 101.892 26.5216C101.562 26.5216 101.306 26.2996 101.306 26.046C101.306 25.7923 101.379 25.5703 101.453 25.5703C101.526 25.5703 101.782 25.7923 102.039 26.046ZM86.7929 27.2826C86.4997 27.9168 86.0233 27.9168 85.2537 27.2826C84.7039 26.807 84.7406 26.7753 85.4368 26.9655C85.8767 27.0924 86.3165 27.029 86.4631 26.8387C86.8296 26.3314 87.0861 26.6484 86.7929 27.2826ZM97.2745 26.9021C97.2745 27.0607 96.8347 27.0607 96.3216 26.9655C95.552 26.807 95.4054 26.8387 95.6253 27.1558C95.8086 27.4412 95.7719 27.5046 95.4788 27.3461C95.2588 27.2192 95.1489 26.9655 95.2588 26.807C95.5154 26.4582 97.2745 26.5533 97.2745 26.9021ZM71.5102 27.2509C71.5835 27.3461 71.2904 27.5046 70.8506 27.6314C70.3375 27.79 69.9343 27.7266 69.861 27.5046C69.7877 27.3143 69.5679 27.2192 69.3846 27.3461C69.2013 27.4412 69.0547 27.3461 69.0547 27.1558C69.0547 26.807 71.1071 26.9021 71.5102 27.2509ZM80.5992 27.1558C80.7458 27.3461 81.0023 27.3778 81.2222 27.2826C81.4787 27.1558 81.5154 27.2192 81.3688 27.4412C81.149 27.7266 80.9657 27.7266 80.5992 27.4729C80.3427 27.2826 79.8296 27.2509 79.4997 27.3778C79.0233 27.5046 78.9134 27.4729 79.0967 27.2192C79.4264 26.7436 80.306 26.7119 80.5992 27.1558ZM82.7615 27.3143C82.505 27.8217 81.8819 27.9802 81.8819 27.5046C81.8819 27.2509 82.1384 27.0924 82.8715 26.8704C82.9081 26.8387 82.8715 27.0607 82.7615 27.3143ZM84.2641 27.1241C84.1541 27.2826 84.3741 27.5046 84.7039 27.568C85.107 27.6632 84.9971 27.7266 84.3741 27.7583C83.3845 27.79 83.0913 27.5046 83.6044 27.0607C83.971 26.7436 84.5206 26.807 84.2641 27.1241ZM89.505 27.2826C89.4316 27.4412 88.8453 27.6314 88.1489 27.6631C86.8662 27.7583 86.9762 27.3461 88.2955 27.0607C89.2484 26.8704 89.6516 26.9338 89.505 27.2826ZM93.2431 27.1558C92.95 27.3143 92.4369 27.4412 92.1437 27.4412C91.7771 27.4412 91.8505 27.3461 92.3269 27.1558C93.3165 26.7753 93.9029 26.7753 93.2431 27.1558ZM12.9817 30.3585C12.9817 30.7073 11.9922 30.739 11.7356 30.3902C11.6623 30.2633 11.8822 30.1048 12.2853 30.1048C12.6518 30.0731 12.9817 30.1682 12.9817 30.3585ZM14.4477 30.1999C14.4477 30.4536 13.7513 30.6121 13.568 30.3902C13.4581 30.2316 13.6047 30.1048 13.8979 30.1048C14.1911 30.1048 14.4477 30.1682 14.4477 30.1999ZM26.0654 30.1999C25.9555 30.295 25.6256 30.3267 25.3691 30.2316C25.0758 30.1365 25.1859 30.0414 25.5889 30.0414C25.9921 30.0096 26.212 30.1048 26.0654 30.1999ZM28.1177 31.0244C28.4843 31.5317 28.6308 31.9122 28.4476 31.9122C28.1544 31.9122 27.2748 30.5487 27.2748 30.1048C27.2748 29.8828 27.3114 29.9145 28.1177 31.0244ZM194.651 30.8341C194.541 30.9292 194.212 30.9609 193.955 30.8658C193.662 30.7707 193.772 30.6755 194.175 30.6755C194.578 30.6438 194.798 30.739 194.651 30.8341ZM27.1648 31.6585C27.0549 31.9122 26.945 31.8171 26.945 31.4683C26.9083 31.1195 27.0183 30.9292 27.1282 31.0561C27.2382 31.1512 27.2748 31.4366 27.1648 31.6585ZM40.3951 31.5634C40.7617 31.7537 40.6884 31.8805 40.0654 32.0073C39.1125 32.2293 38.8192 32.1025 39.1858 31.6268C39.4422 31.2146 39.7355 31.1829 40.3951 31.5634ZM50.5469 31.5951C50.6569 31.7854 50.5103 31.8171 50.2171 31.722C49.5574 31.5 49.4475 31.278 49.9606 31.278C50.1805 31.278 50.437 31.4049 50.5469 31.5951ZM30.9397 31.9122C30.9397 32.0708 30.8665 32.2293 30.7931 32.2293C30.6832 32.2293 30.4999 32.0708 30.39 31.9122C30.28 31.722 30.3533 31.5951 30.5366 31.5951C30.7564 31.5951 30.9397 31.722 30.9397 31.9122ZM34.5679 31.6903C34.4947 31.722 34.1282 31.9756 33.7983 32.1976C33.2487 32.5781 33.1386 32.5464 33.1386 32.1025C33.1386 31.7854 33.4319 31.5951 33.9449 31.5951C34.3847 31.5951 34.6413 31.6268 34.5679 31.6903ZM37.5366 31.9122C37.5366 32.0708 37.3899 32.2293 37.1701 32.2293C36.9868 32.2293 36.8036 32.0708 36.8036 31.9122C36.8036 31.722 36.9868 31.5951 37.1701 31.5951C37.3899 31.5951 37.5366 31.722 37.5366 31.9122ZM170.023 36.0345C170.133 36.2247 169.986 36.2564 169.693 36.1613C169.034 35.9393 168.924 35.7174 169.436 35.7174C169.656 35.7174 169.913 35.8442 170.023 36.0345ZM175.631 36.3833C175.741 36.7321 175.666 36.7321 175.374 36.3515C175.007 35.9393 174.97 35.9393 174.97 36.3515C174.97 36.6686 174.86 36.7003 174.677 36.4784C174.53 36.2881 174.165 36.0345 173.871 35.9393C173.578 35.8442 173.798 35.7808 174.385 35.8442C175.007 35.8759 175.557 36.1296 175.631 36.3833ZM152.248 37.7468C152.248 37.8102 151.991 37.9687 151.662 38.0639C151.369 38.159 151.222 38.1273 151.332 37.937C151.552 37.6199 152.248 37.4931 152.248 37.7468ZM60.1124 39.5225C61.4684 39.2371 61.7616 39.6176 60.6621 40.1567C59.8558 40.5055 58.3166 40.1567 57.8768 39.4908C57.6569 39.2371 57.7669 39.2054 58.2432 39.4274C58.6097 39.6176 59.416 39.6493 60.1124 39.5225ZM62.9711 39.7762C62.7878 39.903 62.5312 40.125 62.4213 40.2518C62.3114 40.4104 62.0914 40.3152 61.9815 40.0933C61.8715 39.8079 62.0914 39.6493 62.5312 39.6176C62.9344 39.5859 63.1176 39.6493 62.9711 39.7762ZM50.4737 40.4104C50.3637 40.6323 50.1439 40.7275 50.0338 40.5689C49.9239 40.4421 49.6674 40.2201 49.4842 40.0933C49.3376 39.9664 49.5208 39.903 49.9239 39.9347C50.3637 39.9664 50.5836 40.125 50.4737 40.4104ZM74.9186 43.2008C74.9186 43.4545 74.7353 43.5813 74.5521 43.4862C74.3323 43.3593 74.2589 43.1374 74.3688 42.9788C74.6987 42.5349 74.9186 42.63 74.9186 43.2008ZM67.2223 43.6764C67.2223 43.8033 67.0391 44.0252 66.8558 44.1204C66.6359 44.2472 66.5993 44.4692 66.7092 44.6594C66.8558 44.8814 66.7825 44.9131 66.5626 44.7863C65.9396 44.4692 66.0128 43.4228 66.6725 43.4228C66.9657 43.4228 67.2223 43.5496 67.2223 43.6764ZM34.6046 46.6888C34.6046 46.9425 34.4214 47.0693 34.2381 46.9742C34.0183 46.8474 33.9449 46.6254 34.0549 46.4669C34.3847 46.0229 34.6046 46.1181 34.6046 46.6888ZM22.144 48.084C22.6204 48.3377 22.6204 48.4011 22.0706 48.4011C21.7407 48.4011 21.3377 48.2426 21.2278 48.084C20.9346 47.6718 21.411 47.6718 22.144 48.084ZM163.06 48.084C162.949 48.2426 162.656 48.4011 162.474 48.4011C162.254 48.4011 162.217 48.2426 162.327 48.084C162.437 47.8938 162.729 47.767 162.913 47.767C163.133 47.767 163.17 47.8938 163.06 48.084ZM18.8456 48.4011C18.8456 48.5597 18.6623 48.7182 18.4423 48.7182C18.2591 48.7182 18.1858 48.5597 18.2958 48.4011C18.4058 48.2109 18.5889 48.084 18.699 48.084C18.7722 48.084 18.8456 48.2109 18.8456 48.4011ZM17.2696 48.5914C17.1596 48.6865 16.8299 48.7182 16.5733 48.6231C16.2801 48.528 16.39 48.4328 16.7932 48.4328C17.1963 48.4011 17.4162 48.4963 17.2696 48.5914ZM113.657 51.1282C113.547 51.2233 113.217 51.255 112.96 51.1599C112.667 51.0647 112.777 50.9696 113.18 50.9696C113.583 50.9379 113.803 51.033 113.657 51.1282ZM116.845 51.4135C116.699 51.6672 116.479 51.7941 116.295 51.6989C115.892 51.5087 116.222 50.9379 116.699 50.9379C116.882 50.9379 116.955 51.1599 116.845 51.4135ZM100.573 51.9209C100.573 52.1111 100.426 52.1429 100.206 52.0477C99.8766 51.8892 99.6934 52.2697 99.7667 52.8722C99.8033 52.999 99.4735 53.1576 99.107 53.2527C98.7038 53.3478 98.4473 53.2844 98.5572 53.1576C98.9604 52.5868 97.9342 52.4917 97.4577 53.0307C96.7982 53.8235 96.3583 53.4112 96.9813 52.5551C97.2379 52.1746 97.6777 51.9526 98.0075 52.0477C98.3374 52.1429 98.9237 52.016 99.2903 51.7623C100.023 51.2867 100.573 51.3818 100.573 51.9209ZM90.6777 52.2063C90.6777 52.3648 91.0442 52.5234 91.5206 52.5234C92.2536 52.5551 92.2536 52.5868 91.6672 52.8722C90.8243 53.3161 89.5415 52.9356 89.8348 52.3331C90.0546 51.8258 90.6777 51.7306 90.6777 52.2063ZM94.7824 52.3331C95.3322 52.3331 95.6253 52.4917 95.4788 52.6185C95.0023 53.0307 92.7667 52.7453 92.5834 52.238C92.4369 51.8892 92.5834 51.8575 93.0965 52.0477C93.4996 52.1746 94.2327 52.3014 94.7824 52.3331ZM87.3793 52.6502C87.3793 52.7453 87.2327 52.9039 87.0127 52.999C86.8296 53.0941 86.6463 53.0307 86.6463 52.8722C86.6463 52.6819 86.8296 52.5234 87.0127 52.5234C87.2327 52.5234 87.3793 52.5868 87.3793 52.6502ZM6.01836 53.4747C6.01836 53.6332 5.76181 53.6966 5.46862 53.6015C5.17542 53.4747 4.91888 53.3478 4.91888 53.2844C4.91888 53.221 5.17542 53.1576 5.46862 53.1576C5.76181 53.1576 6.01836 53.2844 6.01836 53.4747ZM62.0914 53.5381C62.0914 53.7918 62.2013 53.8235 62.3846 53.6332C62.7878 53.1259 63.5574 53.1259 63.3375 53.6332C63.1909 53.9186 62.7144 54.0454 61.7982 53.982C60.259 53.8552 59.7092 53.1576 61.1385 53.1576C61.6517 53.1576 62.0914 53.3478 62.0914 53.5381ZM11.0759 54.2674C10.966 54.3625 10.7461 54.204 10.6361 53.8869C10.4162 53.4429 10.4529 53.4112 10.8194 53.6966C11.0759 53.9186 11.1859 54.1723 11.0759 54.2674ZM19.945 53.7918C19.945 54.1723 18.8456 54.8382 18.6256 54.6479C18.2225 54.3308 18.7355 53.5698 19.3587 53.5698C19.6884 53.5698 19.945 53.6966 19.945 53.7918ZM44.7198 54.6479C44.5365 55.187 44.3532 55.3772 44.1701 55.1236C43.6936 54.4577 42.3009 54.3942 42.3009 54.9967C42.3009 55.4406 42.2277 55.4724 41.971 55.0601C41.7145 54.743 41.8244 54.4894 42.3376 54.1723C42.9973 53.7918 43.1805 53.7918 43.8402 54.3308C44.28 54.6479 44.4998 54.7113 44.3532 54.4894C44.2066 54.2991 44.2066 53.9503 44.3167 53.76C44.7564 53.1893 44.9763 53.7283 44.7198 54.6479ZM50.9502 53.9503C50.1072 54.5211 49.6307 54.5528 49.6307 54.0771C49.6307 53.9186 49.7773 53.8235 49.9239 53.9186C50.0705 53.982 50.437 53.9503 50.7302 53.76C51.5732 53.3161 51.7198 53.4429 50.9502 53.9503ZM9.31677 54.1088C9.31677 54.2674 9.06022 54.3308 8.76704 54.2357C8.47384 54.1088 8.2173 53.982 8.2173 53.9186C8.2173 53.8552 8.47384 53.7918 8.76704 53.7918C9.06022 53.7918 9.31677 53.9186 9.31677 54.1088ZM15.0707 53.982C14.9607 54.0771 14.6308 54.1088 14.3743 54.0137C14.0812 53.9186 14.1911 53.8235 14.5943 53.8235C14.9974 53.7918 15.2173 53.8869 15.0707 53.982ZM17.3796 54.1088C17.7828 54.3308 17.7828 54.4259 17.4529 54.4259C17.1963 54.4259 17.0864 54.5845 17.233 54.7747C17.3429 54.965 17.0497 54.8699 16.5 54.5845C15.9869 54.2674 15.5472 53.982 15.5472 53.9186C15.5472 53.6649 16.8299 53.8235 17.3796 54.1088ZM21.411 54.1088C21.411 54.2674 21.1544 54.3308 20.8612 54.2357C20.568 54.1088 20.3115 53.982 20.3115 53.9186C20.3115 53.8552 20.568 53.7918 20.8612 53.7918C21.1544 53.7918 21.411 53.9186 21.411 54.1088ZM35.3376 54.2991C35.3376 54.3625 35.0811 54.4259 34.7879 54.4259C34.4947 54.4259 34.2381 54.2991 34.2381 54.1088C34.2381 53.9503 34.4947 53.8869 34.7879 53.982C35.0811 54.1088 35.3376 54.2357 35.3376 54.2991ZM38.526 54.2991C38.4161 54.3942 38.0863 54.4259 37.8298 54.3308C37.5366 54.2357 37.6465 54.1406 38.0496 54.1406C38.4528 54.1088 38.6726 54.204 38.526 54.2991Z" fill="#FAC515"/>
<path fill-rule="evenodd" clip-rule="evenodd" d="M135.426 24.2701C135.133 24.4287 135.059 24.7141 135.206 24.936C135.426 25.2214 135.573 25.1897 135.83 24.8092C136.269 24.1433 136.085 23.9213 135.426 24.2701Z" fill="#FAC515"/>
<path fill-rule="evenodd" clip-rule="evenodd" d="M124.359 25.792C124.041 26.1514 124.114 26.1831 124.578 25.8871C124.981 25.6334 125.385 25.3798 125.458 25.3481C125.532 25.2846 125.458 25.2529 125.238 25.2529C125.018 25.2529 124.615 25.5066 124.359 25.792Z" fill="#FAC515"/>
<path fill-rule="evenodd" clip-rule="evenodd" d="M109.735 26.2044C109.735 26.5215 109.992 26.585 111.018 26.585C112.044 26.585 112.301 26.5215 112.301 26.141C112.301 25.8556 112.191 25.8556 111.898 26.1093C111.604 26.363 111.165 26.363 110.615 26.2044C110.065 26.0142 109.735 26.0142 109.735 26.2044Z" fill="#FAC515"/>
<path fill-rule="evenodd" clip-rule="evenodd" d="M157.489 37.7464C157.562 37.9367 157.892 38.1269 158.222 38.1904C158.626 38.2538 158.771 38.1587 158.661 37.8416C158.406 37.3342 157.305 37.2391 157.489 37.7464Z" fill="#FAC515"/>
<path fill-rule="evenodd" clip-rule="evenodd" d="M136.709 39.2368C136.819 39.3954 137.149 39.5222 137.478 39.5222C138.175 39.5222 137.808 39.11 137.039 39.0149C136.746 38.9832 136.562 39.0783 136.709 39.2368Z" fill="#FAC515"/>
<path fill-rule="evenodd" clip-rule="evenodd" d="M140.814 39.1107C141.254 39.1741 141.511 39.396 141.401 39.5863C141.254 39.7448 141.547 39.7131 142.023 39.5229C143.342 38.9204 143.342 38.8887 141.584 38.9204C140.704 38.9521 140.338 39.0472 140.814 39.1107Z" fill="#FAC515"/>
<path d="M148.583 39.5229C148.785 39.5229 148.95 39.3809 148.95 39.2058C148.95 39.0306 148.785 38.8887 148.583 38.8887C148.38 38.8887 148.217 39.0306 148.217 39.2058C148.217 39.3809 148.38 39.5229 148.583 39.5229Z" fill="#FAC515"/>
<path fill-rule="evenodd" clip-rule="evenodd" d="M35.1177 39.5539C35.6674 39.8393 35.704 39.9661 35.3009 40.1881C34.9711 40.3783 35.7407 40.4417 37.2799 40.3466C38.636 40.2832 39.7355 40.3149 39.7355 40.4417C39.7355 40.7271 41.1648 40.8223 42.5941 40.632C43.8769 40.4417 44.2066 39.9661 43.0706 39.9661C42.6674 39.9661 42.4475 40.0929 42.5208 40.2198C42.6307 40.3466 42.5208 40.4735 42.3375 40.4735C42.1177 40.4735 41.9344 40.3149 41.9344 40.1247C41.9344 39.9661 41.7878 39.871 41.6046 39.9978C41.4213 40.0929 41.1648 40.0295 41.0182 39.871C40.9082 39.6807 39.7722 39.649 38.3062 39.7441C36.6202 39.871 35.7407 39.8076 35.5574 39.5539C35.4109 39.3636 35.081 39.2051 34.8612 39.2051C34.6046 39.2051 34.7146 39.3636 35.1177 39.5539Z" fill="#FAC515"/>
<path fill-rule="evenodd" clip-rule="evenodd" d="M33.6889 39.8396C33.5789 39.9981 33.6522 40.1567 33.8354 40.1567C34.0554 40.1567 34.2387 39.9981 34.2387 39.8396C34.2387 39.6493 34.1653 39.5225 34.0921 39.5225C33.982 39.5225 33.7989 39.6493 33.6889 39.8396Z" fill="#FAC515"/>
<path fill-rule="evenodd" clip-rule="evenodd" d="M136.305 39.8394C136.416 39.998 136.819 40.1565 137.149 40.1565C137.698 40.1565 137.698 40.0931 137.222 39.8394C136.489 39.4272 136.013 39.4272 136.305 39.8394Z" fill="#FAC515"/>
<path fill-rule="evenodd" clip-rule="evenodd" d="M44.3533 40.3466C44.0235 41.1076 44.0967 41.2345 44.6098 40.8222C44.903 40.632 45.2328 40.5686 45.3794 40.6954C45.9658 41.2028 46.6988 41.0125 46.6988 40.3783C46.6988 39.871 46.5888 39.8075 46.2591 40.0929C46.0024 40.3149 45.6359 40.3466 45.1962 40.1564C44.7564 39.9344 44.4999 39.9978 44.3533 40.3466Z" fill="#FAC515"/>
<path fill-rule="evenodd" clip-rule="evenodd" d="M135.39 40.1569C135.39 40.3155 135.573 40.474 135.793 40.474C135.975 40.474 136.05 40.3155 135.94 40.1569C135.83 39.9667 135.646 39.8398 135.536 39.8398C135.463 39.8398 135.39 39.9667 135.39 40.1569Z" fill="#FAC515"/>
<path fill-rule="evenodd" clip-rule="evenodd" d="M118.165 40.7907C118.165 40.9493 118.421 41.0127 118.714 40.9176C119.007 40.7907 119.264 40.6639 119.264 40.6005C119.264 40.537 119.007 40.4736 118.714 40.4736C118.421 40.4736 118.165 40.6005 118.165 40.7907Z" fill="#FAC515"/>
<path fill-rule="evenodd" clip-rule="evenodd" d="M106.803 42.0593C106.803 42.2178 106.986 42.3764 107.206 42.3764C107.39 42.3764 107.463 42.2178 107.353 42.0593C107.243 41.869 107.06 41.7422 106.95 41.7422C106.877 41.7422 106.803 41.869 106.803 42.0593Z" fill="#FAC515"/>
<path fill-rule="evenodd" clip-rule="evenodd" d="M96.725 42.6931C96.8349 42.8516 97.0182 43.0102 97.1281 43.0102C97.2014 43.0102 97.2747 42.8516 97.2747 42.6931C97.2747 42.5028 97.0915 42.376 96.8716 42.376C96.6883 42.376 96.6151 42.5028 96.725 42.6931Z" fill="#FAC515"/>
<path fill-rule="evenodd" clip-rule="evenodd" d="M84.8139 43.0105C85.107 43.169 85.5469 43.3275 85.7301 43.3275C85.95 43.3275 85.8401 43.169 85.5469 43.0105C85.2536 42.8519 84.8506 42.6934 84.6306 42.6934C84.4475 42.6934 84.5207 42.8519 84.8139 43.0105Z" fill="#FAC515"/>
<path d="M83.7146 43.6449C83.917 43.6449 84.0811 43.503 84.0811 43.3278C84.0811 43.1527 83.917 43.0107 83.7146 43.0107C83.5121 43.0107 83.3481 43.1527 83.3481 43.3278C83.3481 43.503 83.5121 43.6449 83.7146 43.6449Z" fill="#FAC515"/>
<path fill-rule="evenodd" clip-rule="evenodd" d="M72.1703 44.279C72.0604 44.4693 72.2069 44.501 72.5001 44.4058C73.1598 44.1839 73.2697 43.9619 72.7566 43.9619C72.5368 43.9619 72.2802 44.0888 72.1703 44.279Z" fill="#FAC515"/>
<path fill-rule="evenodd" clip-rule="evenodd" d="M60.6621 44.8813C60.3322 45.0716 60.5155 45.135 61.2851 45.1033C61.9081 45.0716 62.5311 44.9447 62.6777 44.8179C63.0442 44.5008 61.2851 44.5325 60.6621 44.8813Z" fill="#FAC515"/>
<path fill-rule="evenodd" clip-rule="evenodd" d="M63.1909 45.2302C63.1909 45.3887 63.3742 45.5473 63.5941 45.5473C63.7773 45.5473 63.8506 45.3887 63.7407 45.2302C63.6307 45.0399 63.4475 44.9131 63.3375 44.9131C63.2643 44.9131 63.1909 45.0399 63.1909 45.2302Z" fill="#FAC515"/>
<path fill-rule="evenodd" clip-rule="evenodd" d="M50.9869 45.6744C50.767 46.1818 51.0601 46.5623 51.5 46.3086C51.9398 46.0866 51.9031 45.2305 51.5 45.2305C51.3168 45.2305 51.0968 45.4207 50.9869 45.6744Z" fill="#FAC515"/>
<path fill-rule="evenodd" clip-rule="evenodd" d="M53.2957 45.5471C52.8192 45.8008 52.8559 45.8642 53.4057 45.8642C53.7354 45.8642 54.0287 45.7057 54.0287 45.5471C54.0287 45.1666 53.992 45.1666 53.2957 45.5471Z" fill="#FAC515"/>
<path fill-rule="evenodd" clip-rule="evenodd" d="M38.3798 46.7206C38.1231 46.784 37.9033 46.9743 37.9033 47.1328C37.9033 47.5451 38.9661 47.767 39.2226 47.3865C39.4059 47.1645 39.296 47.1328 39.0028 47.2914C38.6363 47.4816 38.5629 47.4182 38.7462 47.0377C38.8562 46.7206 38.9294 46.4986 38.8928 46.5304C38.8562 46.5304 38.5996 46.6255 38.3798 46.7206Z" fill="#FAC515"/>
<path fill-rule="evenodd" clip-rule="evenodd" d="M124.945 51.6357C124.981 52.2064 125.237 52.365 126.081 52.4284C126.813 52.4601 126.887 52.4284 126.337 52.3016C125.861 52.2382 125.494 52.0479 125.494 51.8894C125.494 51.7308 125.787 51.6674 126.154 51.7942C126.668 51.9528 126.63 51.8893 126.044 51.4771C125.055 50.7795 124.871 50.8112 124.945 51.6357Z" fill="#FAC515"/>
<path fill-rule="evenodd" clip-rule="evenodd" d="M128.024 51.2229C128.426 51.4448 128.389 51.54 127.84 51.6351C127.29 51.7619 127.327 51.8254 128.17 52.0473C128.719 52.1742 129.306 52.2059 129.416 52.1107C129.71 51.8571 128.573 50.9375 127.987 50.9375C127.62 50.9375 127.62 51.0009 128.024 51.2229Z" fill="#FAC515"/>
<path fill-rule="evenodd" clip-rule="evenodd" d="M139.604 51.2549C139.494 51.4134 139.641 51.572 139.935 51.572C140.265 51.572 140.52 51.7622 140.52 51.9525C140.52 52.2379 140.63 52.2696 140.814 52.0159C140.96 51.8256 141.327 51.572 141.62 51.4451C141.913 51.35 141.803 51.3183 141.364 51.3817C140.887 51.4451 140.52 51.3817 140.52 51.2231C140.52 50.8426 139.898 50.8743 139.604 51.2549Z" fill="#FAC515"/>
<path fill-rule="evenodd" clip-rule="evenodd" d="M144.845 51.1603C145.102 51.2555 145.432 51.2238 145.541 51.1286C145.688 51.0335 145.469 50.9384 145.065 50.9701C144.662 50.9701 144.552 51.0652 144.845 51.1603Z" fill="#FAC515"/>
<path fill-rule="evenodd" clip-rule="evenodd" d="M113.327 52.7455C113.547 52.8089 113.987 52.8089 114.243 52.7455C114.463 52.6503 114.28 52.5869 113.767 52.5869C113.254 52.5869 113.071 52.6503 113.327 52.7455Z" fill="#FAC515"/>
<path fill-rule="evenodd" clip-rule="evenodd" d="M77.1174 53.4748C76.641 53.7285 76.6777 53.7919 77.2274 53.7919C77.5572 53.7919 77.8505 53.6334 77.8505 53.4748C77.8505 53.0943 77.8138 53.0943 77.1174 53.4748Z" fill="#FAC515"/>
<path fill-rule="evenodd" clip-rule="evenodd" d="M73.2327 53.9503C73.3793 54.2991 73.196 54.4259 72.5363 54.4259C71.2537 54.4259 71.0704 54.965 72.3897 54.9967C73.0494 54.9967 73.819 54.743 74.4421 54.2356L75.395 53.4746H74.1856C73.306 53.4746 73.0494 53.6014 73.2327 53.9503Z" fill="#FAC515"/>
<path fill-rule="evenodd" clip-rule="evenodd" d="M75.6519 53.9185C75.6519 54.1722 75.3586 54.4576 75.0288 54.521C74.6623 54.6161 74.9555 54.6796 75.6519 54.7113C76.5314 54.7113 76.7513 54.6479 76.4215 54.4576C76.1649 54.2991 76.055 54.0137 76.1649 53.8234C76.3115 53.6332 76.2382 53.4746 76.055 53.4746C75.835 53.4746 75.6519 53.6649 75.6519 53.9185Z" fill="#FAC515"/>
<path fill-rule="evenodd" clip-rule="evenodd" d="M48.5678 55.3772C48.238 55.5357 48.4212 55.5991 49.0442 55.5991C50.107 55.5991 50.2171 55.5357 49.5207 55.282C49.2275 55.1869 48.7877 55.2186 48.5678 55.3772Z" fill="#FAC515"/>
</g>
<defs>
<clipPath id="clip0_12107_707">
<rect width="205" height="56" fill="white"/>
</clipPath>
</defs>
</svg>
