<svg width="195" height="100" viewBox="0 0 195 100" fill="none" xmlns="http://www.w3.org/2000/svg">
<g clip-path="url(#clip0_12649_8077)">
<path fill-rule="evenodd" clip-rule="evenodd" d="M110.051 96.592C110.108 96.5051 115.219 94.6061 121.395 92.3731C127.61 90.1266 132.809 88.2305 133.044 88.1497C133.239 88.0823 133.796 87.9235 134.235 87.8053C134.685 87.7169 137.972 86.4813 141.6 85.0945C145.179 83.6911 150.397 81.7216 153.177 80.6612C155.927 79.6443 159.399 78.3114 160.891 77.6958C162.343 77.0936 164.946 76.0272 166.632 75.3442C168.329 74.6913 170.737 73.6922 171.994 73.1575C173.251 72.6228 174.646 72.1076 175.075 71.9593C176.735 71.4532 177.477 71.1971 178.013 70.9784C178.51 70.7733 178.5 70.7433 177.899 70.6487C177.486 70.5902 177.405 70.4838 177.679 70.3894C177.913 70.3086 178.306 70.3072 178.485 70.4465C178.654 70.556 179.203 70.5007 179.7 70.2955C180.382 69.9929 180.486 69.7891 180.203 69.35C179.968 69.0063 180.091 68.9414 180.573 69.1553C181.405 69.539 182.674 69.1677 183.162 68.429C183.391 68.0814 183.665 67.987 184.187 68.1086C184.621 68.227 184.895 68.1327 184.989 67.8989C185.083 67.6651 185.463 67.5004 185.845 67.469C186.316 67.4406 186.423 67.3702 186.145 67.1978C185.916 67.0419 185.943 66.8651 186.138 66.7978C186.372 66.7169 186.608 66.7693 186.66 66.9192C186.784 67.2789 188.374 66.6963 188.875 66.121C189.086 65.8468 189.554 65.6851 190.036 65.6866C190.478 65.7017 190.988 65.6599 191.211 65.549C193.51 64.487 197.115 62.9069 197.934 62.6238C198.559 62.4082 198.996 62.1565 198.965 62.0665C198.903 61.8867 201.457 60.8038 203.614 60.0925C204.473 59.796 204.665 59.5952 204.479 59.0557L204.252 58.3963L205.26 58.7861C206.06 59.08 206.57 59.0381 207.299 58.6187C207.843 58.2966 208.406 57.9011 208.56 57.7138C208.664 57.5101 209.434 57.2105 210.168 57.0578C211.068 56.8812 211.516 56.6595 211.433 56.4197C211.371 56.2399 211.593 55.9957 211.905 55.8878C212.217 55.78 212.542 55.8355 212.604 56.0154C212.687 56.2551 212.882 56.1877 213.179 55.7832C213.419 55.4656 213.472 55.1119 213.254 54.986C212.976 54.8136 212.859 54.854 212.863 55.1208C212.829 55.401 212.488 55.5523 211.801 55.5881C211.203 55.6269 210.696 55.8022 210.62 55.9625C210.471 56.4165 207.025 57.5726 206.901 57.213C206.86 57.0931 206.545 57.0676 206.233 57.1754C205.921 57.2832 205.699 57.5274 205.761 57.7072C205.823 57.8871 205.493 58.0683 205.022 58.0967C204.512 58.1386 203.534 58.3421 202.771 58.5383C201.697 58.8423 201.415 59.04 201.54 59.3997C201.674 59.7894 201.607 59.8463 201.269 59.6274C200.773 59.3291 199.567 60.0137 199.285 60.715C199.162 60.9921 199.045 61.0326 198.952 60.7628C198.859 60.4931 197.891 60.7266 195.13 61.7136C193.071 62.4579 191.59 63.1035 191.759 63.2129C192.097 63.4318 190.856 63.7597 190 63.6861C189.675 63.6306 189.501 63.7579 189.573 63.9677C189.646 64.1775 189.169 64.4427 188.279 64.6493C187.517 64.8455 186.903 65.0911 186.944 65.211C186.986 65.3308 186.774 65.605 186.454 65.8163C186.173 66.014 185.967 66.0514 186.033 65.8611C186.098 65.6708 185.888 65.4415 185.513 65.3695C184.991 65.248 184.856 65.3618 184.847 65.9688C184.866 66.5322 184.741 66.676 184.404 66.4572C184.037 66.2818 183.714 66.3597 183.006 66.839C182.337 67.305 182.025 67.4128 181.952 67.203C181.89 67.0231 181.518 67.0845 181.13 67.3526C180.771 67.5773 179.785 67.8843 178.942 67.974C177.815 68.1282 177.396 68.3064 177.07 68.7544C176.794 69.2189 176.56 69.2998 176.076 69.1648C175.582 68.9999 175.525 69.0867 175.865 69.439C176.395 69.9606 175.859 70.1793 174.832 69.8628C173.893 69.5495 173.269 69.7651 172.588 70.7046C172.291 71.1091 172.01 71.3068 171.948 71.127C171.813 70.7373 165.461 72.9644 165.254 73.5052C165.121 73.7525 165.004 73.7929 164.921 73.5532C164.849 73.3434 164.592 73.2309 164.358 73.3118C164.162 73.3792 164.126 73.526 164.305 73.6654C164.484 73.8048 164.338 73.8887 163.995 73.9066C163.613 73.938 163.267 73.8225 163.215 73.6726C163.174 73.5528 162.88 73.5872 162.57 73.8284C162.25 74.0396 161.789 74.0979 161.472 73.9391C161.095 73.7337 161.077 73.8071 161.448 74.2492C161.91 74.8277 161.457 75.2862 160.792 74.8785C160.573 74.7525 160.318 74.7735 160.154 74.9308C159.769 75.3323 152.206 77.9771 151.655 77.8991C151.39 77.8901 150.921 78.0518 150.611 78.293C150.145 78.5881 150.007 78.5686 150.021 78.2284C150.045 77.9183 150.511 77.6231 151.391 77.3865C152.114 77.2039 152.786 76.8713 152.851 76.681C152.916 76.4908 153.429 76.0787 153.974 75.7567C154.741 75.3237 155.035 75.2894 155.16 75.649C155.263 75.9488 155.666 75.9773 156.358 75.7047L157.441 75.2974L156.382 75.3945C155.412 75.4948 155.402 75.4648 156.172 75.1652C156.63 74.9735 157.086 74.6484 157.151 74.4581C157.245 74.2244 157.586 74.0731 158.039 74.1181C158.432 74.1167 159.038 73.9745 159.319 73.7767C159.775 73.4516 159.795 73.5116 159.472 74.093C159.198 74.6908 159.218 74.7508 159.726 74.5755C160.077 74.4542 160.346 74.0931 160.359 73.753C160.41 73.266 160.73 73.0547 161.776 72.7942C162.499 72.6115 163.21 72.2655 163.265 72.0453C163.388 71.7681 163.739 71.6468 164.524 71.6439C165.221 71.6381 165.7 71.5063 165.794 71.2725C165.899 71.0688 167.887 70.248 170.268 69.4258C172.649 68.6036 175.145 67.6076 175.825 67.1717C177.223 66.2863 179.114 66.0695 178.98 66.8202C178.975 67.057 179.115 67.2099 179.31 67.1425C179.544 67.0616 179.628 66.7978 179.545 66.5581C179.442 66.2583 179.78 65.9737 180.649 65.7071C181.352 65.4645 190.036 62.3988 199.892 58.9288L217.885 52.5818L219.068 51.2004C219.683 50.4513 220.329 49.792 220.446 49.7516C220.563 49.7112 220.611 49.5943 220.491 49.5014C220.4 49.365 220.486 49.2346 220.721 49.1538C220.916 49.0864 221.059 48.8691 220.997 48.6893C220.945 48.5394 220.758 48.5034 220.594 48.6607C220.44 48.848 220.29 48.6651 220.303 48.325C220.317 47.9848 220.014 47.4858 219.666 47.2369C219.198 46.8951 219.136 46.7154 219.456 46.5041C219.776 46.2929 219.675 46.1264 219.083 45.9285C218.095 45.5986 217.606 45.7004 218.182 46.1052C218.401 46.2311 218.382 46.3046 218.146 46.252C217.02 45.9026 217.493 43.2233 218.781 42.7785C219.484 42.5359 219.481 41.2621 218.808 40.9578C218.501 40.8289 218.33 40.5861 218.445 40.4123C218.57 40.2685 218.602 39.8549 218.566 39.4982C218.445 38.7683 216.831 38.5208 216.588 39.2086C216.514 39.5023 216.309 39.5397 215.981 39.3508C215.267 38.9266 215.252 38.6299 215.915 38.4007C216.189 38.3064 216.556 37.9782 216.629 37.6846C216.703 37.3909 217.138 37.0058 217.536 36.7677C218.13 36.4621 218.203 36.1684 217.88 35.1059C217.642 34.4164 217.289 33.9009 217.055 33.9818C216.86 34.0492 216.789 33.9727 216.875 33.8424C217.162 33.4078 215.952 32.6853 215.327 32.901C214.156 33.3053 214.629 32.2699 215.779 31.8056C215.974 31.7382 216.196 31.494 216.29 31.2602C216.447 30.7028 214.61 27.9151 213.87 27.6678C213.524 27.5523 211.638 28.0358 209.197 28.8116C206.922 29.5634 204.841 30.1144 204.575 30.1053C204.3 30.0663 204.115 30.1637 204.177 30.3436C204.239 30.5234 203.791 30.745 203.097 30.8843C202.431 30.9801 201.837 31.2856 201.782 31.5059C201.688 31.7396 201.896 31.8356 202.247 31.7143C202.599 31.5931 202.807 31.6889 202.741 31.8793C202.469 32.6104 201.557 32.6238 200.749 31.9298C200.121 31.3752 199.845 31.3361 199.537 31.7107C199.258 32.0419 199.102 32.0958 199.03 31.886C198.968 31.7061 198.078 31.9127 196.683 32.4279C195.494 32.9057 194.146 33.304 193.724 33.3489C192.949 33.3817 192.939 33.3517 193.429 32.7464C193.697 32.3853 194.286 31.813 194.693 31.4715C195.234 31.016 195.305 30.589 195.003 29.5864C194.804 28.8834 194.459 28.2645 194.282 28.2584C194.095 28.2225 193.921 27.8463 193.883 27.3563L193.809 26.5096L191.842 27.3903C190.03 28.2171 189.864 28.2411 189.911 27.6206C189.944 26.7036 188.427 26.9925 187.817 28.0084C187.541 28.4728 187.545 28.7396 187.78 28.6587C188.053 28.5644 188.289 28.6168 188.341 28.7667C188.393 28.9166 188.112 29.1144 187.701 29.1891C187.329 29.2505 186.8 29.3658 186.527 29.4602C186.283 29.5111 185.703 29.4765 185.297 29.3145C184.863 29.1961 184.559 29.2005 184.621 29.3803C184.745 29.74 183.866 29.9766 183.38 29.7083C183.182 29.6422 182.638 29.9644 182.117 30.4798C181.645 31.0116 181.276 31.2064 181.37 30.9726C181.511 30.6219 181.313 30.556 180.834 30.6878C180.444 30.8225 178.872 31.3317 177.368 31.784C174.331 32.7318 173.156 32.8695 172.938 32.2401C172.742 31.6706 172.362 31.8354 171.965 32.7104C171.68 33.2782 171.602 33.3052 171.478 32.9456C171.219 32.1963 171.871 31.3003 172.982 30.8495C174.318 30.2877 174.133 30.3852 181.491 27.2742C189.765 23.7799 201.249 18.5734 202.452 17.7555C202.733 17.5577 203.941 17.0065 205.081 16.5122C207.741 15.3589 213.83 12.1159 216.15 10.6103C217.363 9.82237 217.845 9.32046 217.635 9.09112C217.435 8.89175 217.521 8.76143 217.865 8.74349C218.208 8.72555 218.528 8.51435 218.633 8.31062C218.688 8.0903 218.93 7.90606 219.156 7.92856C219.796 8.00963 220.591 5.25249 219.999 5.05456C219.702 4.95556 219.438 4.44297 219.4 3.95298C219.341 3.40297 219.139 3.07026 218.905 3.15113C218.709 3.21853 218.353 3.07316 218.172 2.80038C217.951 2.54108 217.546 2.37914 217.223 2.45701C216.9 2.53487 215.345 2.83722 213.789 3.13956C212.194 3.45548 210.875 3.81028 210.887 3.97368C210.861 4.15045 210.323 4.23578 209.771 4.15772C209.082 4.06016 208.632 4.1485 208.538 4.38229C208.483 4.60251 208.212 4.83029 208.017 4.89768C207.783 4.97855 207.674 4.91552 207.71 4.76871C207.776 4.57836 206.915 4.74155 205.84 5.04555C204.297 5.51127 203.782 5.78987 203.536 6.34426C203.366 6.73833 203.028 7.02305 202.82 6.92704C202.622 6.8611 202.669 6.74423 202.903 6.66338C203.177 6.569 203.31 6.32177 203.237 6.11193C203.134 5.81219 201.999 6.06971 198.476 7.25281C195.967 8.08547 193.438 8.85825 192.899 8.94348C191.549 9.20847 190.141 10.0638 190.559 10.3891C190.738 10.5285 190.551 10.4924 190.135 10.3005C189.462 9.99622 188.856 10.1385 186.105 11.1554C184.359 11.7919 182.615 12.5618 182.315 12.8329C181.976 13.1176 181.615 13.2089 181.397 13.083C181.069 12.8942 177.91 14.1192 177.321 14.6915C177.157 14.8489 176.99 14.8729 176.939 14.723C176.897 14.6031 175.284 14.9923 173.371 15.6528C170.111 16.7116 169.858 16.8659 169.831 17.5462C169.783 18.1666 169.715 18.2236 169.393 17.7979C169.212 17.5251 168.759 17.4801 168.418 17.6313C167.562 18.0612 167.308 18.719 167.987 18.7866C169.168 18.9157 167.96 19.467 166.701 19.3647C165.973 19.2807 165.141 19.4004 164.86 19.5981C164.5 19.8228 164.391 19.7599 164.384 19.3598C164.408 19.0496 164.228 19.4137 164.005 20.1615C163.699 21.1728 163.363 21.5909 162.843 21.6028C162.411 21.6176 162.276 21.7316 162.543 21.8739C162.931 22.1093 162.404 22.8615 161.92 22.7265C161.515 22.5645 162.305 21.1846 162.93 20.9689C163.242 20.8611 163.451 20.4535 163.405 20.0669C163.348 19.6503 163.089 19.4045 162.855 19.4854C162.581 19.5797 162.537 19.8299 162.776 20.0158C163.056 20.3215 162.988 20.3785 162.32 20.3409C161.701 20.3198 161.438 20.4441 161.414 20.7543C161.39 21.0645 161.195 21.1319 160.722 21.0269C159.835 20.8634 157.296 21.606 157.792 21.9044C157.961 22.0138 157.934 22.1907 157.661 22.285C157.349 22.3929 157.39 22.5127 157.905 22.7376C158.518 22.9954 158.586 22.9385 158.681 22.2013C158.77 21.7008 158.924 21.5136 159.124 21.7128C159.334 21.9422 159.578 21.8913 159.818 21.5737C160.087 21.2126 160.264 21.2186 160.398 21.6082C160.605 22.2077 159.494 23.799 159.058 23.5471C158.889 23.4376 158.398 23.4061 157.966 23.421C157.583 23.4524 157.168 23.2605 157.075 22.9907C156.992 22.7509 156.724 22.6085 156.529 22.6759C156.295 22.7568 156.232 23.0804 156.346 23.4102C156.48 23.7998 156.337 24.017 155.905 24.032C155.473 24.0468 155.333 23.894 155.484 23.5733C155.636 23.2526 155.449 23.2166 154.775 23.4158C154.257 23.5611 153.869 23.8292 153.921 23.9791C153.983 24.1589 153.699 24.2232 153.314 24.1214C152.743 23.9834 152.652 23.8469 152.941 23.5458C153.173 23.3315 152.645 23.4468 151.747 23.7568C150.362 24.302 150.198 24.4593 150.559 24.8715C150.909 25.2537 150.862 25.3706 150.303 25.3959C149.91 25.3973 149.658 25.5516 149.709 25.7016C149.772 25.8813 149.969 25.9473 150.203 25.8664C150.399 25.799 150.666 25.9414 150.749 26.1812C150.987 26.8706 150.467 26.8825 148.785 26.1883C147.411 25.6231 146.131 25.4609 146.916 25.9617C147.363 26.2435 146.246 26.9311 145.411 26.9174C144.399 26.8977 143.074 27.4893 142.488 28.1951C141.662 29.2184 142.603 29.1616 143.762 28.0904C144.69 27.2334 144.953 27.1091 145.077 27.4688C145.201 27.8285 145.396 27.7611 146.172 27.2247C147.269 26.4772 148.179 26.3306 148.386 26.93C148.49 27.2298 148.208 27.4275 147.503 27.5368C146.936 27.6654 146.527 27.8738 146.59 28.0535C146.652 28.2334 146.186 28.5285 145.512 28.7277C144.877 28.9133 144.299 29.0122 144.268 28.9222C144.196 28.7124 142.197 29.5032 141.47 30.056C141.121 30.3107 140.554 30.4394 140.12 30.3209C139.46 30.1799 139.304 30.2338 139.068 30.8183C138.802 31.3127 138.578 31.4236 138.183 31.2916C137.739 31.1431 137.387 31.2644 136.778 31.7768C136.226 32.2023 135.768 32.394 135.589 32.2546C135.37 32.1287 135.407 31.9818 135.602 31.9144C136.032 31.7662 135.478 30.4144 134.934 30.233C134.698 30.1805 134.669 30.2239 134.848 30.3633C135.077 30.5192 134.915 30.8099 134.478 31.0616C133.934 31.3836 133.757 31.3776 133.809 31.0239C133.852 30.6403 133.685 30.6642 133.084 31.0733C132.657 31.3549 132.053 31.6305 131.709 31.6484C131.2 31.6902 131.21 31.7201 131.823 31.9781C132.218 32.1101 132.523 32.1056 132.549 31.9287C132.575 31.752 132.768 31.5512 132.963 31.4838C133.197 31.403 133.288 31.5393 133.204 31.8031C133.11 32.0368 133.17 32.0832 133.402 31.869C133.962 31.3402 134.393 31.8288 134.025 32.6604C133.693 33.3452 133.537 33.399 132.505 33.3194C131.758 33.3087 131.431 33.1199 131.603 32.8592C131.775 32.5985 131.643 32.3422 131.209 32.2237C130.369 31.9433 128.651 33.0399 128.879 33.6993C128.951 33.909 128.781 34.3031 128.5 34.501C128.18 34.7122 127.925 34.7331 127.881 34.4798C127.75 33.72 127.459 33.3843 127.03 33.5326C126.835 33.6 126.819 33.8067 127.047 33.9626C127.265 34.0885 127.06 34.126 126.537 34.0044C126.064 33.8995 125.417 33.9218 125.154 34.0461C124.93 34.157 124.433 34.3622 124.131 34.5C123.818 34.6078 123.628 34.9419 123.711 35.1817C123.918 35.7812 123.283 35.9669 122.764 35.4753C122.424 35.123 122.345 35.15 121.905 35.7718C121.427 36.5405 120.61 36.9568 120.835 36.3425C120.9 36.1522 120.614 36.0832 120.185 36.2314C119.755 36.3797 119.368 36.6479 119.292 36.8082C119.19 37.1454 117.55 37.7115 116.872 37.6438C116.645 37.6214 115.443 37.9358 114.184 38.3372C112.573 38.8597 111.912 39.2223 111.859 39.5759C111.825 39.8562 111.476 40.1108 111.104 40.1722C110.732 40.2336 109.894 40.5901 109.321 40.9555C108.628 41.396 108.601 41.5283 109.239 41.3526C109.796 41.1939 110.626 40.9408 111.105 40.8091C111.73 40.5935 112.065 40.6789 112.189 41.0386C112.303 41.3683 112.113 41.7024 111.761 41.8237C111.449 41.9316 111.252 41.8656 111.307 41.6453C111.466 41.2212 110.459 41.4683 110.183 41.9328C110.01 42.1935 106.83 43.3587 105.842 43.5323C105.058 43.6686 104.514 43.9906 104.094 44.6724C103.654 45.2941 103.576 45.3211 103.236 44.9689C102.786 44.5537 101.837 44.7139 101.758 45.2443C101.731 45.4211 101.37 45.5124 100.897 45.4075C100.158 45.2934 100.127 45.2035 100.529 44.5952C100.748 44.2176 100.918 43.8234 100.866 43.6736C100.786 43.5672 100.488 43.9717 100.146 44.6266C99.6142 45.6155 99.4006 45.7563 98.6048 45.7291C97.848 45.6885 97.731 45.7289 97.9619 46.0182C98.2008 46.2041 97.9794 46.4483 97.4432 46.667C96.9461 46.8722 96.7303 46.8796 96.884 46.6923C97.5485 45.9597 97.0731 45.7213 95.7745 46.1362C94.9157 46.4327 94.4599 46.7578 94.4073 47.1114C94.4041 47.4815 93.8416 47.877 92.7693 48.3144C91.8428 48.6678 91.0852 49.1307 91.0979 49.2941C91.0659 49.7076 89.9832 50.115 89.8694 49.7853C89.7452 49.4257 91.4303 48.1058 91.9321 48.1674C92.1583 48.1899 92.4372 47.8587 92.5576 47.4481C92.7227 46.7873 92.6629 46.7408 91.765 47.0509C91.1796 47.253 90.8696 47.4943 91.0775 47.5902C91.2567 47.7297 91.1157 48.0803 90.7483 48.4083C90.3133 48.7934 89.962 48.9147 89.7334 48.7588C89.5646 48.6494 89.2005 48.6073 88.9663 48.6882C88.6931 48.7825 88.7839 48.9189 89.1503 49.0944C89.8233 49.3987 89.4033 50.0805 88.6259 49.9799C88.3506 49.9407 88.2645 50.071 88.3751 50.2677C88.6273 50.6167 85.8501 51.8105 85.4039 51.5285C85.235 51.419 84.7861 51.6411 84.3903 52.0126C83.1925 53.0972 82.3129 53.3338 82.3588 52.5799C82.3775 52.0032 82.2896 52 81.6803 52.5123C81.2845 52.8838 80.9527 53.0655 80.9112 52.9455C80.8802 52.8556 80.6564 52.9664 80.4462 53.2403C80.2056 53.5582 79.8835 53.6358 79.4288 53.4574C78.826 53.2294 78.9295 53.026 79.6643 52.8729C79.8589 52.8057 79.9139 52.5854 79.8311 52.3457C79.6448 51.8062 78.6087 52.0968 78.5227 52.7303C78.4781 52.9806 78.3403 52.9611 78.2368 52.6613C78.0007 52.1055 77.2673 52.2581 75.8476 53.0838L75.0126 53.5733L76.0824 54.1433C77.4808 54.9017 77.5034 55.0951 76.1723 55.2863C75.1724 55.4303 75.1446 55.4735 75.8166 55.7781C76.4899 56.0824 76.4518 56.0956 75.4188 56.0162C74.6129 55.959 72.6971 56.4862 68.4419 57.9555C62.7043 59.9366 62.5872 59.9771 61.9101 59.4058L61.2024 58.8786L61.1578 59.632C61.1255 60.0457 61.0033 60.3228 60.8552 60.2733C60.6676 60.2373 60.4063 60.4954 60.198 60.9027C59.9795 61.2801 59.8831 61.3805 59.9555 61.0871C60.0758 60.6766 59.938 60.657 59.4251 61.0689C59.0759 61.3237 58.3664 61.6693 57.8968 61.8315C57.4182 61.9632 56.9518 62.2584 56.8865 62.4487C56.6627 63.0627 56.036 63.1449 56.0942 62.5545C56.1666 62.2612 55.9771 62.0918 55.743 62.1726C55.5088 62.2535 55.3556 62.4405 55.4073 62.5904C55.4591 62.7403 55.06 62.9787 54.4934 63.1072C53.9359 63.2662 53.5381 63.5043 53.6002 63.684C53.652 63.834 53.3576 63.8684 52.8946 63.7935C52.3623 63.6419 52.1178 63.6928 52.0835 63.9729C52.0783 64.2095 51.7187 64.4343 51.297 64.4793C50.9251 64.5406 50.4297 64.8794 50.2402 65.2132C50.0203 65.5911 49.7034 65.9354 49.4679 66.0167C49.2338 66.0975 49.3282 65.8636 49.6361 65.4889C50.2039 64.8567 50.1936 64.8268 49.3262 65.2269C48.8011 65.4753 48.0715 65.895 47.7235 66.1493C47.2281 66.4881 47.1007 66.4986 47.2139 66.1911C47.4564 65.5035 46.0432 66.0922 45.1965 67.0553C44.7425 67.514 44.4909 67.668 44.584 67.4346C44.6972 67.1271 44.3137 67.159 43.3493 67.5255C42.5389 67.8388 41.8708 68.3044 41.768 68.6418C41.6664 68.9787 41.4911 69.1064 41.429 68.9265C41.3566 68.7167 40.5733 68.853 39.5301 69.2468C36.9255 70.1796 38.5476 70.324 41.4672 69.4165C42.7272 69.0151 44.4178 68.599 45.2114 68.4927C46.0051 68.3865 48.4376 67.7142 50.5856 66.9725C52.7426 66.2614 55.2146 65.5755 56.0464 65.456C57.2514 65.2748 57.8658 65.0291 58.6387 64.3597C59.4802 63.633 59.6367 63.579 59.5766 64.0358C59.4944 64.4332 59.7492 64.4123 60.7628 63.9282C62.262 63.2092 61.978 63.2737 66.3852 62.121C68.3405 61.58 70.4975 60.8688 71.1585 60.5063C71.8195 60.144 72.4443 59.9282 72.5924 59.9777C72.9385 60.0931 75.5534 59.1902 75.7546 58.8859C75.8406 58.7555 76.5928 58.5293 77.4433 58.3363C78.2647 58.1869 79.8655 57.6342 80.967 57.1531C82.0568 56.6427 83.0328 56.3057 83.1706 56.3252C83.3685 56.391 88.3468 54.7392 89.0473 54.3631C89.2316 54.2659 89.5828 54.1447 89.8278 54.0936C90.1998 54.0322 93.1069 52.9614 97.9737 51.1133C99.9438 50.3659 112.566 45.6722 122.37 42.0522C125.355 40.9545 127.793 40.0454 127.783 40.0154C127.741 39.8955 138.131 36.0735 144.561 33.8194C148.22 32.5225 151.312 31.3543 151.388 31.194C151.424 31.0471 152.848 30.4885 154.508 29.9823C156.725 29.3175 157.631 28.904 157.733 28.5669C157.856 28.2897 158.002 28.2058 158.064 28.3856C158.126 28.5655 159.172 28.305 160.947 27.625C162.498 27.0559 166.615 25.5673 170.128 24.3542C175.008 22.6693 176.382 22.0942 176.044 21.8753C175.756 21.673 175.834 21.6461 176.346 21.7375C176.72 21.8095 179.338 21.0398 183.036 19.7294C186.344 18.5537 189.459 17.5788 189.93 17.5505C190.577 17.5281 190.403 17.6554 189.242 18.0898C188.071 18.4942 187.868 18.665 188.369 18.7266C188.783 18.785 188.863 18.8914 188.59 18.9857C188.356 19.0666 187.963 19.0681 187.784 18.9287C187.615 18.8192 187.017 18.8581 186.47 19.0468C185.768 19.2895 185.596 19.5501 185.733 20.0732C185.95 20.7026 185.911 20.7161 185.402 20.2544C185.033 19.9457 184.895 19.9261 184.999 20.2258C185.094 20.629 185.016 20.6559 184.619 20.3906C184.182 20.1387 183.782 20.2435 182.732 20.8742C181.342 21.6562 180.886 22.4848 181.866 22.4146C182.16 22.3802 182.092 22.437 181.692 22.5419C180.87 22.6915 180.908 23.1816 181.693 23.1788C181.997 23.1744 181.539 23.3661 180.67 23.6326C179.4 24.004 179.008 24.0053 178.754 23.5228C178.51 23.0702 178.234 23.0312 177.68 23.3232C176.883 23.7996 176.888 24.0663 177.727 24.3468C178.468 24.5941 178.21 24.9852 177.308 25.0286C176.925 25.0599 176.567 24.7811 176.482 24.4079C176.365 23.9449 176.147 23.8189 175.788 24.0436C175.507 24.2414 174.864 24.5305 174.395 24.6922C173.859 24.9109 173.552 25.2855 173.551 25.789C173.558 26.1891 173.31 26.6101 173.037 26.7045C172.724 26.8123 172.289 27.1974 172.06 27.545C171.677 28.0799 171.578 28.0468 171.054 27.2885L170.449 26.4237L170.24 27.3348C170.075 27.9956 169.679 28.3672 168.937 28.6233C168.341 28.7954 167.904 29.0471 167.945 29.167C167.987 29.2868 167.606 29.4517 167.146 29.51C166.519 29.5923 166.092 29.8739 165.904 30.3414C165.706 30.7789 165.502 30.9498 165.44 30.7699C165.378 30.5901 165.022 30.4446 164.679 30.4626C164.247 30.4774 164.083 30.6347 164.265 30.9075C164.415 31.0904 164.321 31.3242 164.115 31.3616C163.871 31.4125 163.712 31.333 163.749 31.1862C163.752 30.816 163.411 30.9673 162.677 31.6235C161.942 32.2797 159.913 32.4771 159.727 31.9375C159.644 31.6977 159.79 31.6139 160.234 31.7623C160.708 31.8674 160.853 31.7835 160.75 31.4838C160.667 31.244 160.223 31.0955 159.812 31.1703C159.096 31.2495 158.984 31.5568 159.44 32.3721C159.572 32.6284 159.408 32.7857 158.976 32.8006C158.633 32.8184 158.253 32.9832 158.159 33.217C158.104 33.4373 157.422 33.7398 156.66 33.936C155.887 34.1021 155.293 34.4077 155.249 34.658C155.204 34.9082 154.91 34.9426 154.445 34.7342C153.663 34.3669 152.937 34.4162 153.503 34.791C153.683 34.9303 153.646 35.0772 153.412 35.1581C153.177 35.239 152.938 35.0531 152.923 34.7563C152.867 34.3398 152.503 34.2978 151.35 34.6286C150.432 34.8787 149.945 35.1139 150.124 35.2533C150.332 35.3492 150.337 35.616 150.134 35.7867C149.941 35.9876 149.813 35.998 149.801 35.8346C149.837 35.6878 149.629 35.5918 149.413 35.5993C149.169 35.6502 149.085 35.914 149.16 36.2571C149.225 36.5703 149.242 37.0004 149.158 37.2641C148.933 37.8785 148.185 37.7344 148.272 37.1006C148.296 36.7904 148.077 36.6645 147.687 36.7993C147.336 36.9206 147.135 37.2248 147.228 37.4945C147.311 37.7343 147.157 37.9216 146.881 37.8825C146.616 37.8735 146.286 38.0547 146.202 38.3185C146.079 38.5957 145.527 39.0211 144.923 39.2967C144.056 39.6967 143.781 39.6576 143.576 39.1916C143.066 38.093 142.355 38.439 142.223 39.8266C142.235 39.99 141.73 40.2986 141.145 40.5008C140.559 40.703 140.239 40.9141 140.408 41.0236C140.577 41.133 140.501 41.2934 140.267 41.3743C139.993 41.4686 139.843 41.2857 139.867 40.9755C139.891 40.6653 139.925 40.3851 139.904 40.3252C139.884 40.2652 140.313 40.1169 140.891 40.0182C141.624 39.8655 141.799 39.7381 141.529 39.4623C140.929 38.8643 139.628 39.1458 138.477 40.1136C137.761 40.6964 137.167 41.0019 136.665 40.9404C136.096 40.9357 135.854 41.1201 135.647 41.661C135.422 42.2753 135.492 42.3518 135.961 42.19C136.273 42.0822 136.588 42.1077 136.64 42.2576C136.774 42.6473 135.774 43.2944 135.377 43.029C135.169 42.9331 134.914 42.9541 134.711 43.1248C134.422 43.426 128.857 45.7835 127.207 46.3196C126.728 46.4515 126.379 46.7061 126.421 46.8259C126.586 47.3055 125.007 47.9181 123.719 47.8594C122.089 47.8186 122.068 47.7586 123.385 47.2704C124.009 47.0548 124.876 46.6548 125.402 46.4062C125.928 46.1575 126.573 46.0018 126.859 46.0708C127.184 46.1263 127.437 45.972 127.461 45.6618C127.513 45.3082 127.11 45.2797 126.064 45.5401C125.252 45.7198 124.57 46.0223 124.534 46.1692C124.497 46.3161 124.245 46.4703 123.901 46.4882C123.597 46.4927 123.003 46.7983 122.597 47.1399C122.094 47.5818 121.704 47.7166 121.27 47.5981C120.797 47.4931 120.612 47.5905 120.541 48.0176C120.507 48.2978 120.657 48.4807 120.852 48.4133C121.086 48.3324 121.284 48.3984 121.336 48.5482C121.388 48.6981 120.747 49.1205 119.87 49.4905C118.496 50.0656 118.241 50.0866 117.711 49.565C117.381 49.2427 116.958 49.1542 116.793 49.3115C116.533 49.5693 116.634 49.7356 117.05 49.9275C117.822 50.2648 117.545 50.7293 116.296 51.1606C115.33 51.5276 114.954 51.3222 115.543 50.7498C115.707 50.5925 115.809 50.2554 115.708 50.089C115.614 49.8192 115.536 49.8462 115.512 50.1564C115.468 50.4067 115.137 50.5879 114.755 50.6193C114.323 50.6342 114.188 50.7481 114.455 50.8904C114.951 51.1888 114.284 51.7881 112.647 52.4875C111.916 52.7736 110.591 53.3652 109.724 53.7652C108.847 54.1351 107.968 54.3717 107.799 54.2623C107.63 54.1529 107.258 54.2142 106.987 54.4419C106.599 54.7101 106.49 54.6471 106.522 54.2335C106.617 53.4963 105.836 53.7658 105.585 54.557C105.428 55.1144 105.35 55.1414 105 54.7592C104.48 54.2676 103.728 54.4937 103.935 55.0932C104.018 55.333 104.247 55.4888 104.481 55.4079C104.676 55.3405 104.923 55.423 104.985 55.6028C105.037 55.7527 104.862 55.8801 104.636 55.8576C104.371 55.8485 104.246 55.9924 104.318 56.2021C104.432 56.5318 104.354 56.5588 103.967 56.3234C103.728 56.1376 103.179 56.1929 102.809 56.3876C102.284 56.6363 102.047 56.5838 101.97 56.1072C101.823 55.5543 101.784 55.5677 101.509 56.1656C101.282 56.6466 101.03 56.8009 100.45 56.7663C99.9479 56.7048 99.7138 56.7856 99.7862 56.9954C99.838 57.1453 99.5073 57.3265 99.0468 57.3849C98.42 57.4671 98.2845 57.581 98.5545 57.8568C98.8739 58.1491 98.5927 58.3468 97.1873 58.8321C95.1966 59.5195 95.246 59.536 95.5106 58.4046C95.6069 57.9241 95.5375 57.8922 95.3027 58.3087C95.094 58.7163 94.7449 58.9709 94.5474 58.905C94.3108 58.8524 94.3729 59.0323 94.6325 59.2781C94.983 59.6603 94.9646 59.7337 94.4421 59.6122C94.0574 59.5103 93.6567 59.6151 93.5419 59.7889C93.3881 59.9761 93.3571 59.8862 93.4511 59.6525C93.6369 59.0516 92.0938 59.5173 91.8977 60.0882C91.8422 60.3087 91.9625 60.4013 92.2354 60.3071C92.5477 60.1992 92.5891 60.3192 92.3229 60.8137C92.0388 61.3814 91.9599 61.4086 91.5033 61.0967C91.2155 60.8941 90.6353 60.8596 90.2446 60.9945C89.8158 61.1425 89.4219 61.1444 89.3598 60.9645C89.3081 60.8147 89.0616 60.732 88.867 60.7992C88.5934 60.8937 88.6555 61.0736 89.074 61.3987C89.4219 61.6475 89.6425 61.9069 89.603 61.9205C89.3605 62.1048 87.0812 63.0932 84.9365 63.9679C83.4735 64.5402 82.4664 64.7872 82.2388 64.6311C81.5829 64.2536 81.6172 63.9734 82.3041 63.9376C82.6585 63.9493 82.8862 64.1056 82.793 64.339C82.6986 64.5729 82.826 64.5624 83.1151 64.2613C83.6934 63.6591 85.4112 63.0659 85.8471 63.318C86.0554 63.4138 86.2773 63.1694 86.4079 62.789C86.5728 62.1281 86.4454 62.1386 84.0355 63.0043C81.665 63.8563 81.4516 63.9971 81.7155 64.5098C81.969 64.9925 81.6592 65.2337 79.7331 66.2342C78.5075 66.8587 77.289 67.3801 77.0632 67.3573C76.8362 67.3351 76.4675 67.5295 76.2269 67.8474C75.9191 68.2221 75.5679 68.3434 74.8997 68.3057C74.3693 68.2875 74.0078 68.3788 74.0699 68.5587C74.1216 68.7085 73.3746 69.2013 72.3611 69.6854C71.3884 70.1555 70.4453 70.7159 70.263 70.9467C70.0411 71.191 69.5314 71.2328 68.8012 71.0153C67.9229 70.7483 67.5904 70.796 67.0969 71.2683C66.78 71.6125 66.1675 71.9918 65.8163 72.113C65.3875 72.2611 65.577 71.9273 66.2839 71.3142C67.0859 70.6012 67.6797 70.2954 68.21 70.3136C68.7508 70.3618 69.2378 70.1265 69.7487 69.581C70.1724 69.1664 70.6781 68.8576 70.9142 68.9103C71.1225 69.0061 71.1413 68.9325 70.9123 68.7767C70.7331 68.6374 70.8172 68.3735 71.1755 68.1491C71.7194 67.8271 71.7091 67.7971 70.9963 68.0097C70.5675 68.1577 70.0339 68.5098 69.8328 68.814C69.5075 69.2618 69.4285 69.289 69.5592 68.9085C69.7636 68.2341 69.316 68.4557 68.7604 69.2514C68.4164 69.7728 68.1926 69.8836 67.6693 69.7623C67.1473 69.6406 66.8459 69.7782 66.4333 70.3568C66.108 70.8046 65.5453 71.2002 65.0945 71.2888C64.6844 71.3633 64.4522 71.5776 64.5732 71.8043C64.9056 72.2597 64.1825 72.4423 63.7123 71.9673C63.4536 71.7211 63.5001 71.6044 63.8637 71.6467C64.1786 71.6721 64.2077 71.6285 63.9684 71.4427C63.6411 71.2538 63.3397 71.3914 62.7498 71.9641C61.8534 72.911 60.9667 73.2507 60.567 72.8521C60.3775 72.6827 60.3225 72.903 60.4881 73.3825C60.6246 73.9057 60.5334 74.2726 60.1427 74.4075C59.831 74.5152 59.5988 74.7295 59.6609 74.9094C59.7126 75.0592 58.6991 75.5434 57.2736 75.9684C55.4574 76.5285 54.7912 76.6243 54.6774 76.2946C54.5946 76.0548 54.2001 75.9227 53.8282 75.984C53.2499 76.083 53.2137 76.2297 53.5429 76.5521C53.8735 76.8742 53.8256 76.9913 53.2661 77.0167C52.7959 77.0449 52.5928 77.2156 52.6756 77.4555C52.7687 77.7252 52.488 77.9228 51.7927 78.0622C50.9215 78.1953 50.8614 78.149 51.1951 77.5976C51.4254 77.2497 51.6252 76.946 51.6045 76.886C51.5941 76.856 50.2669 77.3143 48.6383 77.9101C46.5796 78.6545 45.5674 79.1383 45.2906 79.6029C44.8896 80.2109 44.9485 80.2577 45.9277 80.0538C46.6321 79.9448 47.0298 79.7068 47.0932 79.383C47.1598 78.689 48.976 78.129 49.183 78.7285C49.2658 78.9683 49.4637 79.0341 49.6668 78.8634C49.8304 78.7063 50.0471 78.6985 50.0988 78.8483C50.2127 79.178 49.8136 79.4165 49.0989 79.4955C48.9217 79.4896 48.8027 79.3966 48.8389 79.2498C48.8318 78.8498 47.7199 79.3007 47.5719 79.7545C47.3092 80.516 45.2654 80.9199 44.303 80.4135C43.5106 80.0161 43.2073 80.0203 42.6757 80.5058C42.3368 80.7905 41.6654 81.123 41.2437 81.1679C40.7444 81.2397 40.5018 81.424 40.5846 81.6639C40.6985 81.9936 40.4747 82.1044 39.533 82.1612C38.4257 82.2416 36.2984 83.0432 34.6167 83.9929C34.219 84.2308 33.3135 84.6441 32.6098 84.8871C31.9177 85.1597 31.4514 85.4549 31.6202 85.5642C31.7787 85.6438 31.4876 85.8113 30.9987 85.9131C29.6094 86.1915 29.1107 86.9005 29.8772 87.4744C30.4645 87.9091 30.4282 88.0557 29.5182 88.8397C28.9484 89.3382 28.2874 89.7007 28.0999 89.6649C27.8741 89.6421 27.6419 89.8565 27.6251 90.0636C27.5734 90.4169 27.4945 90.4441 27.391 90.1444C27.27 89.9178 27.0533 89.9255 26.7933 90.1831C26.6006 90.3838 25.8607 90.7735 25.2462 91.0192C24.5833 91.2481 23.258 91.8399 22.2853 92.3099C20.8636 93.0021 20.5642 93.2732 20.8449 93.5789C21.1036 93.8249 21.0571 93.9417 20.7143 93.9594C20.4096 93.9639 19.8502 93.9894 19.4575 93.9907C19.0753 94.0221 18.5591 94.3009 18.3697 94.6348C18.1291 94.9527 17.3613 95.3855 16.6486 95.598C15.6519 95.8751 15.4093 96.0595 15.6693 96.3052C15.9986 96.6276 15.434 96.8897 14.5194 96.7693C14.2044 96.7439 13.9929 97.0183 14 97.4184C13.9987 97.922 14.119 98.0146 14.467 97.7603C14.7885 97.5487 14.9366 97.5981 14.9127 97.9083C14.8324 98.4392 12.9652 100.493 11.5216 101.629C11.0087 102.041 10.6336 102.472 10.675 102.592C10.7268 102.742 10.424 102.88 10.0036 102.924C9.36655 102.977 9.37691 103.007 10.047 103.178C10.4312 103.28 10.9667 103.565 11.2267 103.81C11.4868 104.056 11.8502 104.098 12.0139 103.941C12.2066 103.741 12.6076 103.636 12.9329 103.691C13.5047 103.829 13.9626 103.637 20.0269 101.208C21.724 100.555 25.1856 99.1919 27.73 98.2127C30.2758 97.233 33.3862 95.9914 34.6429 95.4567C35.9009 94.9217 38.7481 93.8045 40.9911 92.9628C46.219 91.0236 56.9479 86.9165 60.6714 85.4295C62.2515 84.8168 64.3775 84.0156 65.4311 83.6518C66.486 83.2876 67.5758 82.7771 67.9044 82.4624C68.3397 82.0772 68.6908 81.956 68.9198 82.1117C69.0887 82.2212 69.7652 82.1553 70.3887 81.94C71.0135 81.7243 71.5865 81.3588 71.6518 81.1684C71.7359 80.9045 72.0477 80.7969 72.6278 80.8314C73.6504 80.8809 75.1535 80.4289 74.3269 80.3118C74.012 80.2864 75.3081 79.7383 77.1928 79.121C79.0763 78.5042 80.8025 77.8075 80.9746 77.5468C81.2533 77.2157 81.6149 77.1244 82.1763 77.2325C82.8477 77.4032 82.9253 77.3764 82.4893 77.1244C82.1504 76.906 82.2086 76.8188 82.6614 76.8638C83.3987 76.9782 84.6089 76.5604 85.471 75.8937C85.8203 75.6388 86.2006 75.474 86.3487 75.5234C86.5363 75.5594 87.022 75.3246 87.5174 74.9857C88.0116 74.6474 88.5879 74.4148 88.8531 74.424C89.4921 74.5052 93.6716 73.1963 94.1069 72.8111C94.5027 72.4397 98.9054 71.0201 99.4566 71.0982C99.6828 71.1207 99.8079 70.9768 99.7561 70.8269C99.6941 70.6471 99.8375 70.4298 100.072 70.3489C100.267 70.2815 100.425 70.3611 100.321 70.5648C100.266 70.7851 101.107 70.562 102.403 70.0138C103.621 69.4926 106.088 68.54 107.912 67.8765C110.049 67.1053 111.353 66.4536 111.622 66.0925C111.937 65.6146 112.132 65.5472 112.431 65.7795C112.688 65.892 113.11 65.8471 113.469 65.6224C113.779 65.3813 113.984 65.3438 113.89 65.5775C113.796 65.8113 114.267 65.7829 114.931 65.5538C115.555 65.3381 116.221 65.2423 116.38 65.3218C116.499 65.4147 116.013 65.6499 115.25 65.8461C114.488 66.0422 113.923 66.3043 113.985 66.4842C114.047 66.664 114.419 66.6027 114.817 66.3645C115.867 65.7339 116.07 66.7034 115.067 67.7207C114.421 68.38 114.119 68.5178 113.547 68.3798C113.074 68.2748 112.869 68.3122 112.941 68.522C113.003 68.7018 112.761 68.886 112.418 68.904C112.064 68.892 111.577 69.1271 111.366 69.4013C111.155 69.6755 110.306 70.002 109.367 70.1921C108.144 70.4466 107.692 70.4016 107.586 69.9684C107.532 69.6852 107.392 69.5323 107.306 69.6627C107.22 69.7931 106.837 69.8244 106.453 69.7225C105.891 69.6144 105.735 69.6683 105.721 70.0085C105.661 70.4656 104.609 70.9628 104.474 70.5732C104.309 70.0937 102.292 70.9579 101.552 71.8508C101.119 72.3692 100.939 72.7333 101.173 72.6525C101.368 72.5851 101.714 72.7005 101.903 72.8699C102.173 73.1457 102.077 73.246 101.606 73.2745C101.135 73.3028 101.039 73.4032 101.307 73.5456C101.585 73.718 101.431 73.9053 100.923 74.0806C100.455 74.2423 100.023 74.2572 99.961 74.0774C99.8702 73.9409 99.699 73.6981 99.5979 73.5318C99.507 73.3954 99.3463 73.1825 99.2658 73.0761C99.1543 72.8798 98.0483 74.7378 98.1518 75.0375C98.1932 75.1574 97.9509 75.3417 97.6387 75.4495C97.3264 75.5573 97.1579 75.4478 97.2229 75.2576C97.317 75.0239 97.1401 75.0178 96.7911 75.2725C96.471 75.4837 96.0699 75.5886 95.9012 75.4792C95.6825 75.3534 95.2932 75.4878 94.8973 75.8593C94.5189 76.1577 94.0041 76.436 93.6995 76.4406C93.3172 76.472 93.2966 76.4121 93.6478 76.2908C93.911 76.1664 94.1037 75.9656 94.0623 75.8457C93.9175 75.4261 91.2876 76.6695 90.8387 77.3949C90.3983 78.0166 90.3207 78.0434 89.6972 77.7555C89.2011 77.4572 88.8001 77.5621 87.6229 78.2033C86.8449 78.6062 85.9497 79.0494 85.6658 79.1139C85.2648 79.2189 85.2958 79.3088 85.7609 79.5172C86.2272 79.7252 86.2583 79.8151 85.9057 79.9368C85.6335 80.0308 85.6063 80.208 85.7751 80.3174C85.9543 80.4568 85.9957 80.5767 85.8113 80.6739C85.6548 80.7279 84.8561 81.0709 84.0573 81.4138C83.2585 81.7567 82.2068 82.2539 81.6526 82.546C80.8557 83.0224 80.7664 83.0197 81.1396 82.4547C81.4371 82.0501 81.952 81.7717 82.5302 81.6727C83.2844 81.58 83.3807 81.4796 83.0327 81.2307C82.6453 80.9955 82.6744 80.9519 83.2462 81.09C83.7196 81.1949 84.0812 81.1036 84.389 80.7289C84.7745 80.3274 84.7642 80.2974 84.2688 80.6363C83.9104 80.8606 83.4887 80.9056 83.2805 80.8097C83.1013 80.6704 82.5347 80.7989 82.058 81.0641C81.4746 81.3997 81.0633 81.4747 80.8149 81.2585C80.4035 80.8303 77.2996 81.8349 77.0468 82.4925C76.9129 82.7401 76.7751 82.7205 76.682 82.4508C76.5474 82.0611 76.5079 82.0747 76.2913 82.5857C76.1038 83.053 76.0261 83.0798 75.9123 82.7501C75.7985 82.4204 75.6814 82.4608 75.3153 82.9227C75.0656 83.2101 74.5114 83.5021 74.0398 83.5308C73.2372 83.6066 72.8246 84.1853 72.9093 85.0617C72.9423 85.2852 72.8323 85.7257 72.6603 85.9864C72.3919 86.3474 72.2509 86.1949 72.1092 85.405C71.9604 84.7184 71.659 84.3529 71.2768 84.3842C70.9444 84.4319 70.848 84.5323 71.0168 84.6417C71.1856 84.7512 70.6695 85.03 69.8688 85.2394C68.7155 85.5705 68.5693 85.6545 69.2666 85.6486C70.0136 85.659 70.0725 85.7058 69.4477 85.9215C68.7556 86.194 68.6903 86.8875 69.3927 86.6449C69.5874 86.5777 69.8248 86.63 69.8662 86.7499C69.9179 86.8997 69.6858 87.1141 69.3727 87.2222C69.061 87.3298 68.7253 87.2444 68.6425 87.0047C68.57 86.7949 68.3132 86.6822 68.0791 86.7631C67.8831 86.8307 67.7247 86.7513 67.8294 86.5473C67.9685 86.0632 65.4726 87.0593 65.2456 87.5402C65.1511 87.7741 64.6828 87.9357 64.0251 87.9281C63.4054 87.9072 62.8389 88.0358 62.7237 88.2097C62.6086 88.3837 61.5569 88.8809 60.3468 89.2988C59.1089 89.7598 57.4615 90.4292 56.6336 90.8158C55.8058 91.2022 54.0225 91.9856 52.6488 92.5607C51.2841 93.166 49.2597 94.1334 48.1511 94.7175C47.0412 95.302 45.8828 95.8697 45.6092 95.9641C45.3369 96.0582 45.2425 96.2921 45.4424 96.4915C45.6319 96.6608 45.6164 96.8675 45.4204 96.9351C45.1862 97.016 44.9896 96.9497 44.9379 96.7998C44.8758 96.62 44.4922 96.6518 44.0738 96.8298C43.6553 97.0078 43.3352 97.2191 43.3765 97.3389C43.4179 97.4588 42.8811 97.6778 42.1871 97.8167C41.2577 98.037 41.0442 98.1778 41.3321 98.3803C41.6108 98.5525 41.5921 98.626 41.2668 98.5707C40.6762 98.5062 39.3406 99.5711 39.4855 99.9908C39.5476 100.171 39.9111 100.213 40.2636 100.091C40.6633 99.9866 40.393 100.214 39.6925 100.59C39.0024 100.996 38.0503 101.526 37.584 101.821C36.837 102.314 36.4392 102.049 36.3027 101.023C36.2574 100.636 35.7018 100.928 34.9703 101.718C34.4885 102.219 34.1858 102.357 34.0357 102.174C33.8857 101.991 33.4349 102.08 33.0474 102.348C32.5417 102.657 32.4608 103.054 32.6988 103.743C32.9783 104.552 32.7875 104.887 31.2145 106.403C30.2288 107.347 29.2735 108.247 29.1274 108.331C28.4683 108.827 29.8324 109.362 31.461 109.27C32.8729 109.185 34.9349 108.573 41.1201 106.37C45.482 104.831 49.0555 103.664 49.0969 103.784C49.159 103.964 48.5724 104.67 48.1733 104.908C48.0562 104.948 47.7361 105.16 47.4657 105.387C47.1837 105.585 46.6896 105.924 46.3986 106.091C45.9807 106.403 45.991 106.433 46.4988 106.258C46.8603 106.166 47.3338 106.271 47.5647 106.561C48.1281 107.305 50.17 106.768 58.2567 103.741C65.2885 101.078 67.1254 100.578 66.1895 101.539C65.9004 101.84 65.9244 102.033 66.2102 102.102C66.663 102.147 66.7736 102.343 66.8584 103.22C66.8998 103.34 65.7815 104.531 64.4291 105.803C62.8167 107.333 62.0476 108.269 62.2973 108.485C62.4972 108.684 62.6679 108.927 62.699 109.017C62.8853 109.557 65.5882 109.16 68.0169 108.221C70.5626 107.241 72.4512 106.891 73.0456 107.222C73.6122 107.597 77.8351 106.542 84.1406 104.431C87.6746 103.278 90.5547 102.384 90.5858 102.474C90.6168 102.564 92.717 101.94 95.275 101.124C103.135 98.5775 108.906 96.8196 109.455 96.7643C109.72 96.7733 109.993 96.679 110.051 96.592ZM125.593 87.703C124.773 87.9861 124.068 88.0953 124.006 87.9155C123.955 87.7656 124.02 87.5753 124.166 87.4914C126.737 86.3351 139.908 81.586 142.245 81.0141C142.607 80.9227 142.882 80.9617 142.817 81.152C142.751 81.3424 142.489 81.4667 142.262 81.4441C142.036 81.4216 141.266 81.7212 140.586 82.1571C139.644 82.7174 139.282 82.8087 139.199 82.5689C139.127 82.3591 138.963 82.5164 138.832 82.897C138.683 83.351 138.402 83.5487 138.066 83.4633C137.741 83.4078 136.802 83.5979 135.964 83.9544C135.116 84.2809 134.187 84.5009 133.95 84.4484C133.389 84.3404 131.507 85.0908 131.181 85.5388C130.865 86.0168 130.288 86.1156 130.476 85.6481C130.672 85.0772 129.06 86.1033 128.466 86.9124C128.208 87.3034 127.916 87.4712 127.57 87.3558C127.274 87.2568 126.413 87.42 125.593 87.703ZM132.369 85.5645C132.338 85.4746 132.443 85.2708 132.646 85.1C132.81 84.9427 133.026 84.9353 133.078 85.0851C133.14 85.265 132.996 85.4822 132.801 85.5496C132.567 85.6305 132.39 85.6245 132.369 85.5645ZM147.52 78.9577C147.367 79.145 147.19 79.1389 147.128 78.9591C147.024 78.6594 149.123 77.3981 149.557 77.5165C149.705 77.566 149.488 78.0769 149.165 78.6583C148.534 79.6142 148.455 79.6412 148.162 79.1721C147.981 78.8993 147.684 78.8004 147.52 78.9577ZM144.442 79.7857C144.508 79.0919 145.318 78.7789 145.564 79.3649C145.667 79.6646 145.816 79.7141 145.86 79.4639C145.866 79.2271 146.038 78.9663 146.233 78.899C146.663 78.7507 147.363 79.5151 147.204 79.9392C147.055 80.3932 144.431 80.2593 144.442 79.7857ZM121.675 88.7541C121.53 88.3345 122.139 87.8221 122.68 87.8702C122.956 87.9093 123.106 88.0921 123.041 88.2824C122.853 88.7499 121.799 89.1138 121.675 88.7541ZM73.7149 98.4035C73.7886 98.1096 73.8713 97.8462 73.9503 97.819C74.0279 97.7922 74.1779 97.9752 74.2607 98.215C74.3435 98.4548 74.2608 98.7182 74.0266 98.799C73.8306 98.8667 73.6806 98.6837 73.7149 98.4035ZM214.182 40.341C214.079 40.0412 214.111 39.6277 214.314 39.4568C214.507 39.2561 214.777 39.5319 214.963 40.0714C215.149 40.6109 215.107 40.9945 214.832 40.9555C214.566 40.9465 214.286 40.6407 214.182 40.341ZM191.942 48.0537C191.891 47.9038 192.102 47.6297 192.344 47.4453C192.693 47.1907 192.841 47.2402 192.788 47.5938C192.709 48.1243 192.087 48.4733 191.942 48.0537ZM201.598 44.3844C201.432 43.9047 202.377 43.4779 203.029 43.7223C203.583 43.9337 203.487 44.0341 202.667 44.3172C202.12 44.5058 201.65 44.5342 201.598 44.3844ZM197.489 45.7696C197.554 45.5793 197.815 45.3216 198.01 45.2542C198.244 45.1734 198.335 45.3097 198.269 45.5001C198.214 45.7203 197.943 45.9481 197.748 46.0154C197.514 46.0963 197.434 45.9899 197.489 45.7696ZM46.4087 97.2648C46.3569 97.1149 46.4999 96.8979 46.734 96.817C46.93 96.7494 47.0593 96.8724 46.994 97.0627C46.939 97.2829 46.7858 97.4701 46.6687 97.5105C46.5898 97.5378 46.4708 97.4446 46.4087 97.2648ZM57.6413 91.709C57.8703 91.3615 59.0908 90.9736 59.1839 91.2434C59.2253 91.3634 59.072 91.5504 58.876 91.6181C58.6419 91.699 58.5559 91.8293 58.6077 91.9792C58.9815 92.5546 58.7493 92.7689 58.1723 92.3643C57.7862 92.1286 57.5553 91.8393 57.6413 91.709ZM47.8542 95.7593C48.131 95.2947 48.5061 94.8632 48.7403 94.7824C48.9363 94.7147 48.7953 95.0653 48.4014 95.5704C47.45 96.7375 47.2159 96.8183 47.8542 95.7593ZM53.6067 93.4376C53.4379 93.3282 53.4256 93.1646 53.6597 93.0838C53.8544 93.0166 54.2179 93.0588 54.3867 93.1682C54.5659 93.3077 54.5691 93.4407 54.335 93.5216C54.139 93.5892 53.7859 93.577 53.6067 93.4376ZM62.1481 90.0858C62.174 89.9091 62.7677 89.6034 63.3925 89.3877C64.0568 89.1583 64.527 89.1302 64.4326 89.364C64.3672 89.5544 63.7748 89.8596 63.1778 90.0322C62.544 90.2175 62.0724 90.246 62.1481 90.0858ZM66.6769 88.0188C66.7403 87.6951 66.9641 87.5842 67.594 87.635C68.6651 87.7014 68.6755 87.7313 67.543 88.1224C66.9971 88.3109 66.6323 88.269 66.6769 88.0188ZM73.4571 85.51C73.4726 85.3033 73.9183 84.9482 74.4157 84.7429C75.2145 84.4 75.2643 84.4164 74.7345 85.0354C74.003 85.8246 73.4268 86.0572 73.4571 85.51ZM70.6255 86.4206C70.6048 86.3607 70.837 86.1463 71.1074 85.9188C71.3894 85.7208 71.6823 85.6867 71.7341 85.8365C71.7962 86.0164 71.5653 86.2303 71.2522 86.3384C70.9405 86.446 70.6462 86.4805 70.6255 86.4206ZM77.2906 83.5824C76.7842 83.7573 76.6361 83.7078 76.865 83.3604C77.0662 83.0562 77.5843 82.9108 78.645 82.9471C79.773 82.9266 79.8829 82.9893 79.0997 83.1256C78.5318 83.2546 77.7207 83.4339 77.2906 83.5824ZM194.404 41.7693C194.859 41.4443 194.867 41.3409 194.477 41.4757C194.115 41.567 194.209 41.3332 194.722 40.9212C195.457 40.265 195.623 40.2411 196.239 40.6323C196.816 41.0371 196.818 41.1704 196.128 41.5765C195.691 41.8281 194.949 42.0842 194.528 42.1291C193.98 42.2288 193.938 42.1089 194.404 41.7693ZM88.4444 78.5571C88.3512 78.2873 88.5543 78.1166 88.9366 78.0852C89.291 78.0971 89.5083 78.2232 89.443 78.4136C89.2761 78.9408 88.61 79.0367 88.4444 78.5571ZM209.516 36.3164C209.602 36.186 209.945 36.1681 210.291 36.2835C210.746 36.462 210.717 36.5055 210.109 36.5143C209.687 36.5592 209.43 36.4467 209.516 36.3164ZM201.602 39.0825C201.441 38.8697 201.663 38.6255 202.131 38.4637C202.951 38.1807 203.632 38.3816 203.316 38.8596C203.03 39.2941 201.942 39.4347 201.602 39.0825ZM197.407 40.5981C196.934 40.4931 196.705 40.3373 196.978 40.2429C197.72 39.9868 198.771 39.993 198.874 40.2928C199.009 40.6824 198.442 40.8112 197.407 40.5981ZM191.239 42.7278C191.039 42.5284 191.045 42.2917 191.24 42.2243C191.474 42.1434 191.703 42.2992 191.786 42.539C191.869 42.7788 191.863 43.0157 191.785 43.0426C191.707 43.0696 191.478 42.9136 191.239 42.7278ZM185.201 44.9803C185.15 44.8304 185.254 44.6267 185.488 44.5458C185.684 44.4784 185.931 44.5608 185.982 44.7107C186.044 44.8905 185.891 45.0779 185.695 45.1453C185.461 45.2262 185.264 45.1601 185.201 44.9803ZM212.582 35.325C212.668 35.1947 213.009 35.0434 213.313 35.0389C213.656 35.021 213.57 35.1513 213.141 35.2996C212.722 35.4779 212.456 35.4688 212.582 35.325ZM181.195 46.0284C181.143 45.8785 181.403 45.6209 181.755 45.4995C182.34 45.2974 182.4 45.3438 181.975 45.7589C181.358 46.3746 181.319 46.3881 181.195 46.0284ZM102.688 71.7267C102.492 71.1572 102.559 71.1003 102.996 71.3521C103.432 71.604 103.51 71.577 103.397 71.2473C103.293 70.9476 103.488 70.8802 104.403 71.0002C105.043 71.0813 105.759 71.0021 105.951 70.8013C106.183 70.587 106.233 70.6035 106.149 70.8673C106.065 71.131 105.297 71.5639 104.438 71.8605C103.111 72.3187 102.885 72.2962 102.688 71.7267ZM120.334 64.6274C120.293 64.5074 120.6 64.1329 120.957 63.7748C121.528 63.2759 121.655 63.2654 121.525 63.646C121.383 63.9967 121.511 63.9862 121.899 63.7181C122.665 63.1518 123.461 62.6754 123.123 62.9601C122.998 63.1039 122.974 63.4141 123.067 63.6839C123.222 64.1335 123.3 64.1065 123.478 63.609C123.637 63.1849 123.744 63.1146 123.847 63.4143C123.93 63.6541 123.662 64.0151 123.263 64.2534C122.865 64.4915 122.586 64.8227 122.638 64.9725C122.741 65.2722 120.487 64.9436 120.334 64.6274ZM119.443 65.8409C118.928 65.6161 118.897 65.5262 119.444 65.3375C119.795 65.2162 120.141 65.3317 120.223 65.5714C120.306 65.8112 120.301 66.048 120.222 66.0749C120.144 66.1019 119.799 65.9864 119.443 65.8409ZM135.278 59.065C135.383 58.3577 135.891 58.1825 136.917 58.4989C137.658 58.7463 137.629 58.7897 136.826 58.866C136.316 58.9078 135.868 59.1295 135.774 59.3633C135.549 59.9776 135.173 59.7723 135.278 59.065ZM124.238 63.2795C124.186 63.1296 124.654 62.9678 125.232 62.8691C126.104 62.7359 126.249 62.652 125.912 62.4332C125.623 62.2308 125.642 62.1574 126.006 62.1994C126.281 62.2384 126.481 62.4378 126.416 62.6281C126.256 63.0522 124.352 63.6092 124.238 63.2795ZM151.566 53.4744C151.457 53.4113 151.717 53.1537 152.145 52.8721C152.639 52.5335 153.089 52.4451 153.24 52.628C153.38 52.7809 153.645 52.79 153.799 52.6026C153.963 52.4453 154.15 52.4813 154.213 52.6612C154.326 52.9909 152.109 53.6558 151.566 53.4744ZM141.916 56.907C141.698 56.781 141.414 56.8454 141.211 57.0162C140.979 57.2304 140.92 57.184 141.003 56.9202C141.144 56.5696 141.34 56.5022 141.813 56.6072C142.148 56.6928 142.705 56.534 143.015 56.2928C143.481 55.9977 143.608 55.9872 143.496 56.2944C143.3 56.8653 142.373 57.2187 141.916 56.907ZM139.561 57.5524C139.669 56.9784 140.281 56.5995 140.436 57.049C140.519 57.2888 140.297 57.533 139.589 58.0124C139.561 58.0558 139.527 57.8325 139.561 57.5524ZM138.023 58.2848C138.088 58.0945 137.782 57.9655 137.41 58.0269C136.949 58.0852 137.046 57.9848 137.699 57.7257C138.743 57.3318 139.148 57.4938 138.746 58.1021C138.459 58.5366 137.853 58.6789 138.023 58.2848ZM132.389 60.0624C132.416 59.8855 132.978 59.4901 133.709 59.204C135.045 58.6423 135.062 59.0724 133.75 59.8273C132.797 60.3577 132.347 60.446 132.389 60.0624ZM128.449 61.5571C128.709 61.2994 129.215 60.9908 129.527 60.8829C129.917 60.7481 129.87 60.865 129.425 61.2201C128.495 61.9437 127.87 62.1594 128.449 61.5571ZM212.892 29.0117C212.778 28.682 213.822 28.2881 214.209 28.5234C214.328 28.6164 214.146 28.8471 213.716 28.9954C213.336 29.1601 212.954 29.1915 212.892 29.0117ZM211.382 29.7007C211.299 29.4609 211.989 29.055 212.257 29.1973C212.426 29.3068 212.311 29.4806 211.999 29.5884C211.687 29.6963 211.393 29.7307 211.382 29.7007ZM199.008 33.9734C199.094 33.8431 199.435 33.6918 199.739 33.6874C200.083 33.6694 199.996 33.7998 199.567 33.948C199.148 34.1264 198.883 34.1172 199.008 33.9734ZM196.553 33.9489C195.997 33.6042 195.717 33.2984 195.912 33.231C196.224 33.1232 197.606 34.0885 197.751 34.5081C197.823 34.7179 197.774 34.7015 196.553 33.9489ZM19.2364 95.3755C19.3224 95.2451 19.6633 95.0939 19.9679 95.0893C20.3107 95.0716 20.2247 95.202 19.7959 95.3501C19.3761 95.5285 19.1109 95.5194 19.2364 95.3755ZM197.361 32.9991C197.395 32.7188 197.543 32.7683 197.657 33.098C197.81 33.4142 197.755 33.6345 197.597 33.555C197.448 33.5056 197.316 33.2492 197.361 32.9991ZM183.3 37.9547C182.847 37.9096 182.884 37.7628 183.506 37.4138C184.449 36.8536 184.803 36.8655 184.567 37.45C184.429 37.934 184.127 38.0718 183.3 37.9547ZM172.477 41.6583C172.298 41.5189 172.443 41.435 172.787 41.4171C173.562 41.3843 173.751 41.5537 173.205 41.7424C172.97 41.8233 172.656 41.7977 172.477 41.6583ZM193.257 34.1475C193.206 33.9976 193.232 33.8209 193.31 33.7939C193.427 33.7535 193.674 33.8359 193.843 33.9454C194.022 34.0847 193.985 34.2316 193.79 34.299C193.556 34.3799 193.319 34.3273 193.257 34.1475ZM189.465 35.6917C189.533 35.6348 189.841 35.2603 190.119 34.9291C190.581 34.3673 190.708 34.3568 190.853 34.7764C190.957 35.0761 190.706 35.3639 190.16 35.5525C189.692 35.7142 189.408 35.7787 189.465 35.6917ZM186.231 36.5737C186.179 36.4238 186.284 36.22 186.518 36.1392C186.713 36.0718 186.96 36.1542 187.012 36.3041C187.074 36.4839 186.92 36.6712 186.725 36.7386C186.491 36.8195 186.293 36.7535 186.231 36.5737ZM43.7713 81.4021C43.5922 81.2628 43.7384 81.1788 44.0811 81.161C44.856 81.1283 45.0455 81.2977 44.4996 81.4861C44.2655 81.567 43.9505 81.5416 43.7713 81.4021ZM37.6844 83.1349C37.4535 82.8456 37.5325 82.8183 37.9684 83.0705C38.4936 83.3252 38.5331 83.3116 38.3985 82.9219C38.295 82.6222 38.4018 82.5518 38.6689 82.6944C38.8875 82.8202 39.3596 82.9255 39.7037 82.9074C40.0465 82.8896 39.8331 83.0304 39.1876 83.1862C38.5143 83.3851 37.8462 83.3474 37.6844 83.1349ZM62.1445 73.2466C62.1238 73.1867 62.3457 72.9424 62.6658 72.7311C62.9465 72.5336 63.1134 72.5095 63.0584 72.7298C62.9278 73.1104 62.2273 73.4864 62.1445 73.2466ZM159.701 37.683C158.35 38.4514 157.913 38.1996 158.909 37.2856C159.653 36.6594 161.407 36.423 162.093 36.8907C162.41 37.0496 162.303 37.1201 161.723 37.0854C161.27 37.0404 160.401 37.307 159.701 37.683ZM156.573 38.4945C156.727 38.3072 156.928 38.003 157.004 37.8427C157.069 37.6524 157.334 37.6615 157.524 37.8308C157.734 38.0601 157.552 38.2909 157.094 38.4826C156.675 38.6609 156.459 38.6684 156.573 38.4945ZM169.678 33.2988C169.722 33.0486 169.925 32.8778 170.094 32.9872C170.253 33.0667 170.598 33.1822 170.835 33.2346C171.033 33.3007 170.858 33.428 170.418 33.5463C169.94 33.678 169.654 33.609 169.678 33.2988ZM142.73 39.6514C142.647 39.4116 142.801 39.2244 143.027 39.2469C143.303 39.286 143.453 39.4687 143.388 39.6591C143.182 40.2 142.916 40.191 142.73 39.6514ZM150.772 36.3714C150.731 36.2514 150.854 35.9743 151.018 35.8169C151.211 35.6161 151.177 35.3929 150.998 35.2535C150.769 35.0976 150.837 35.0406 151.113 35.0796C151.88 35.1502 152.143 36.1663 151.441 36.4089C151.128 36.5167 150.814 36.4912 150.772 36.3714ZM184.531 21.528C184.448 21.2882 184.602 21.1009 184.828 21.1234C185.104 21.1624 185.254 21.3453 185.189 21.5356C184.983 22.0765 184.717 22.0674 184.531 21.528ZM197.348 15.6265C196.757 15.5619 196.737 15.502 197.322 15.2998C197.674 15.1785 198.155 15.18 198.324 15.2895C198.77 15.5713 198.263 15.7466 197.348 15.6265ZM47.2546 67.4518C47.3213 67.261 47.5813 67.0036 47.776 66.9364C48.0101 66.8555 48.1013 66.9917 48.036 67.1821C47.981 67.4023 47.7106 67.6298 47.5146 67.6974C47.2805 67.7783 47.1997 67.672 47.2546 67.4518ZM200.757 14.1137C200.706 13.9638 200.849 13.7465 201.083 13.6657C201.279 13.5983 201.408 13.7211 201.343 13.9115C201.288 14.1317 201.134 14.319 201.017 14.3595C200.939 14.3864 200.82 14.2935 200.757 14.1137ZM202.374 13.3542C202.46 13.2239 202.801 13.0726 203.105 13.0681C203.449 13.0502 203.363 13.1806 202.933 13.3289C202.514 13.5071 202.249 13.498 202.374 13.3542ZM98.8819 46.405C98.968 46.2746 99.3089 46.1234 99.6133 46.1189C99.9566 46.1011 99.8706 46.2314 99.4411 46.3797C99.0221 46.5579 98.7568 46.5489 98.8819 46.405ZM95.3926 47.308C95.466 47.0142 95.6588 46.8134 95.8851 46.836C96.3765 46.8675 96.2115 47.5284 95.704 47.7036C95.5089 47.771 95.3583 47.5881 95.3926 47.308ZM112.559 40.8439C112.497 40.6641 112.643 40.5801 112.908 40.5892C113.311 40.6177 113.382 40.1907 113.107 39.6481C113.027 39.5417 113.326 39.2705 113.686 39.0458C114.084 38.8077 114.378 38.7733 114.302 38.9335C114.059 39.6214 115.183 39.3338 115.515 38.6491C115.959 37.6572 116.562 37.8851 116.178 38.9235C116.028 39.3775 115.632 39.7491 115.25 39.7805C114.868 39.8118 114.285 40.1474 113.977 40.522C113.351 41.2411 112.735 41.3534 112.559 40.8439ZM123.005 36.9349C122.954 36.785 122.512 36.7699 122.004 36.9451C121.213 37.1847 121.203 37.1548 121.734 36.6694C122.487 35.9397 123.978 35.8276 123.862 36.505C123.793 37.0654 123.161 37.3845 123.005 36.9349ZM118.592 38.3246C118.007 38.5268 117.642 38.4847 117.757 38.3109C118.13 37.7461 120.605 37.1937 120.965 37.6058C121.235 37.8816 121.089 37.9654 120.481 37.9744C120.01 38.0027 119.188 38.1524 118.592 38.3246ZM126.374 35.3022C126.343 35.2123 126.447 35.0085 126.65 34.8377C126.814 34.6804 127.03 34.673 127.082 34.8228C127.144 35.0027 127.001 35.2199 126.806 35.2873C126.571 35.3681 126.395 35.3621 126.374 35.3022ZM212.764 4.60041C212.712 4.45058 212.965 4.29631 213.308 4.27837C213.662 4.2904 213.977 4.316 213.997 4.37592C214.018 4.43585 213.765 4.59013 213.453 4.69796C213.141 4.80579 212.826 4.78028 212.764 4.60041ZM153.019 25.1627C152.936 24.9229 152.808 24.9333 152.675 25.1806C152.411 25.8084 151.592 26.0915 151.66 25.5311C151.723 25.2074 152.19 24.9123 153.186 24.6353C154.867 24.1891 155.68 24.6462 154.158 25.1719C153.611 25.3606 153.081 25.3426 153.019 25.1627ZM207.118 5.71116C207.204 5.58083 207.49 5.64978 207.711 5.90908C208.09 6.24789 208.061 6.29133 207.578 6.15635C207.232 6.04086 207.032 5.84149 207.118 5.71116ZM197.827 9.42254C197.703 9.06287 198.657 8.02908 198.953 8.12807C199.486 8.27957 199.188 9.18756 198.524 9.41673C198.173 9.538 197.858 9.51252 197.827 9.42254ZM171.159 17.7248C171.179 17.1478 171.312 16.9007 171.59 17.073C172.314 17.5272 173.819 17.075 173.622 16.5055C173.477 16.0859 173.545 16.0289 173.953 16.3243C174.329 16.5297 174.295 16.8098 173.852 17.2983C173.274 17.9006 173.078 17.968 172.2 17.7011C171.628 17.5631 171.373 17.584 171.602 17.7398C171.82 17.8658 171.934 18.1955 171.879 18.4159C171.596 19.117 171.186 18.6884 171.159 17.7248ZM164.751 20.6756C165.463 19.826 165.96 19.6209 166.115 20.0705C166.167 20.2203 166.042 20.3641 165.854 20.3281C165.678 20.3221 165.297 20.4869 165.047 20.7746C164.294 21.5042 164.097 21.4383 164.751 20.6756ZM209.044 5.2141C208.992 5.06419 209.245 4.90991 209.588 4.89197C209.942 4.90409 210.256 4.9296 210.277 4.98953C210.298 5.04946 210.045 5.20373 209.733 5.31156C209.421 5.41939 209.106 5.39389 209.044 5.2141ZM202.957 7.45011C203.043 7.31975 203.384 7.16848 203.688 7.16403C204.031 7.14611 203.945 7.27642 203.516 7.42471C203.097 7.60291 202.832 7.59391 202.957 7.45011ZM200.456 8.17939C199.954 8.11783 199.923 8.02794 200.274 7.90663C200.548 7.81225 200.613 7.62191 200.395 7.49604C200.216 7.35658 200.559 7.33865 201.238 7.40627C201.888 7.51729 202.449 7.62533 202.47 7.68526C202.553 7.92507 201.135 8.24691 200.456 8.17939ZM196.162 9.66205C196.11 9.51214 196.363 9.35783 196.706 9.3399C197.06 9.35203 197.375 9.37755 197.395 9.43748C197.416 9.49741 197.163 9.65167 196.851 9.75949C196.539 9.86731 196.224 9.84184 196.162 9.66205ZM181.266 14.604C181.246 14.5441 181.498 14.3898 181.811 14.282C182.123 14.1742 182.438 14.1996 182.5 14.3795C182.551 14.5293 182.299 14.6836 181.955 14.7016C181.602 14.6895 181.287 14.6639 181.266 14.604ZM177.87 15.7766C177.956 15.6463 178.297 15.495 178.602 15.4906C178.945 15.4727 178.859 15.603 178.43 15.7512C178.01 15.9296 177.745 15.9204 177.87 15.7766Z" fill="#FAC515"/>
<path fill-rule="evenodd" clip-rule="evenodd" d="M84.4609 79.7985C84.7209 79.5409 84.7067 79.2439 84.4777 79.0882C84.1505 78.8993 84.0043 78.9833 83.8549 79.4374C83.6039 80.2285 83.8724 80.3707 84.4609 79.7985Z" fill="#FAC515"/>
<path fill-rule="evenodd" clip-rule="evenodd" d="M95.7532 74.2896C95.9739 73.8332 95.886 73.83 95.488 74.2806C95.142 74.6685 94.7946 75.0567 94.7274 75.1134C94.6692 75.2007 94.7584 75.2034 94.9926 75.1226C95.2267 75.0418 95.5727 74.6539 95.7532 74.2896Z" fill="#FAC515"/>
<path fill-rule="evenodd" clip-rule="evenodd" d="M111.194 68.5218C111.09 68.2221 110.796 68.2564 109.703 68.6338C108.61 69.0112 108.358 69.1656 108.482 69.5253C108.575 69.795 108.692 69.7546 108.922 69.4069C109.151 69.0593 109.62 68.8976 110.257 68.8453C110.904 68.8229 111.256 68.7016 111.194 68.5218Z" fill="#FAC515"/>
<path fill-rule="evenodd" clip-rule="evenodd" d="M56.5621 75.1745C56.4224 75.0214 56.0091 74.9629 55.6372 75.0242C55.1864 75.1128 55.0622 75.2562 55.2827 75.5156C55.7206 75.9012 56.9237 75.5864 56.5621 75.1745Z" fill="#FAC515"/>
<path fill-rule="evenodd" clip-rule="evenodd" d="M78.2089 66.1232C78.0401 66.0138 77.6475 66.0152 77.2963 66.1364C76.5544 66.3926 77.0796 66.6473 77.9301 66.4543C78.2522 66.3766 78.4171 66.219 78.2089 66.1232Z" fill="#FAC515"/>
<path fill-rule="evenodd" clip-rule="evenodd" d="M73.8778 67.7522C73.3888 67.8539 73.0428 67.7387 73.0977 67.5184C73.2025 67.3145 72.9011 67.4521 72.4555 67.8072C71.2473 68.8618 71.2577 68.8917 73.1204 68.215C74.0466 67.8617 74.4062 67.6369 73.8778 67.7522Z" fill="#FAC515"/>
<path d="M65.4686 70.2198C65.2528 70.2943 65.1243 70.4889 65.1814 70.6544C65.2386 70.82 65.4598 70.8938 65.6756 70.8193C65.8913 70.7448 66.0186 70.5507 65.9614 70.3851C65.9043 70.2196 65.6843 70.1453 65.4686 70.2198Z" fill="#FAC515"/>
<path fill-rule="evenodd" clip-rule="evenodd" d="M186.314 28.4609C185.635 28.3933 185.555 28.2869 185.912 27.9289C186.201 27.6278 185.361 27.8509 183.752 28.5069C182.329 29.0655 181.147 29.4399 181.106 29.3201C181.013 29.0503 179.459 29.486 177.999 30.1915C176.695 30.8431 176.499 31.414 177.709 30.9962C178.138 30.8479 178.331 30.6472 178.212 30.5542C178.053 30.4747 178.129 30.3144 178.324 30.247C178.558 30.1661 178.805 30.2486 178.867 30.4284C178.919 30.5783 179.106 30.6143 179.26 30.4271C179.424 30.2698 179.718 30.2354 179.926 30.3313C180.105 30.4707 181.325 30.0828 182.856 29.4538C184.61 28.7138 185.568 28.4503 185.846 28.6227C186.064 28.7486 186.467 28.7771 186.701 28.6963C186.974 28.6019 186.805 28.4926 186.314 28.4609Z" fill="#FAC515"/>
<path fill-rule="evenodd" clip-rule="evenodd" d="M187.742 27.6652C187.808 27.475 187.678 27.352 187.483 27.4194C187.248 27.5003 187.105 27.7176 187.157 27.8674C187.219 28.0473 187.338 28.1402 187.416 28.1132C187.534 28.0728 187.687 27.8855 187.742 27.6652Z" fill="#FAC515"/>
<path fill-rule="evenodd" clip-rule="evenodd" d="M78.4432 65.4051C78.273 65.2961 77.7925 65.2943 77.4413 65.4156C76.8559 65.6177 76.8766 65.6776 77.4672 65.7421C78.3817 65.8624 78.8894 65.6871 78.4432 65.4051Z" fill="#FAC515"/>
<path fill-rule="evenodd" clip-rule="evenodd" d="M176.218 31.1083C176.321 30.2676 176.201 30.1746 175.789 30.753C175.539 31.0406 175.209 31.2219 175.011 31.1559C174.221 30.892 173.502 31.3415 173.709 31.9409C173.875 32.4204 174.013 32.44 174.271 32.049C174.472 31.7447 174.852 31.58 175.382 31.598C175.923 31.6461 176.176 31.4919 176.218 31.1083Z" fill="#FAC515"/>
<path fill-rule="evenodd" clip-rule="evenodd" d="M79.313 64.7685C79.2612 64.6186 79.0148 64.536 78.7807 64.6169C78.586 64.6841 78.5588 64.8611 78.7276 64.9706C78.9068 65.11 79.1442 65.1623 79.2613 65.1219C79.3389 65.0951 79.3751 64.9483 79.313 64.7685Z" fill="#FAC515"/>
<path fill-rule="evenodd" clip-rule="evenodd" d="M97.4536 57.8343C97.4018 57.6844 97.1079 57.7188 96.8267 57.9165C96.5559 58.1443 96.3239 58.3585 96.3446 58.4185C96.3653 58.4785 96.6594 58.444 96.9716 58.3362C97.2839 58.2284 97.5157 58.0141 97.4536 57.8343Z" fill="#FAC515"/>
<path fill-rule="evenodd" clip-rule="evenodd" d="M109.141 52.4568C109.089 52.3069 108.842 52.2244 108.608 52.3053C108.413 52.3727 108.387 52.5496 108.555 52.659C108.735 52.7984 108.971 52.8509 109.088 52.8104C109.166 52.7835 109.203 52.6366 109.141 52.4568Z" fill="#FAC515"/>
<path fill-rule="evenodd" clip-rule="evenodd" d="M119.67 48.1512C119.501 48.0418 119.254 47.9593 119.137 47.9997C119.059 48.0267 119.033 48.2035 119.085 48.3533C119.147 48.5332 119.383 48.5857 119.617 48.5048C119.813 48.4374 119.849 48.2906 119.67 48.1512Z" fill="#FAC515"/>
<path fill-rule="evenodd" clip-rule="evenodd" d="M132.252 43.4705C131.888 43.4285 131.367 43.4405 131.172 43.5079C130.938 43.5888 131.107 43.6981 131.471 43.7401C131.835 43.7822 132.316 43.7838 132.55 43.7029C132.745 43.6355 132.616 43.5126 132.252 43.4705Z" fill="#FAC515"/>
<path d="M133.216 42.4666C133 42.541 132.872 42.7355 132.929 42.9011C132.986 43.0666 133.207 43.1405 133.423 43.0661C133.638 42.9916 133.767 42.7971 133.709 42.6316C133.652 42.466 133.431 42.3921 133.216 42.4666Z" fill="#FAC515"/>
<path fill-rule="evenodd" clip-rule="evenodd" d="M145.305 37.6214C145.36 37.4011 145.194 37.4251 144.913 37.6229C144.282 38.0752 144.238 38.3255 144.784 38.1368C145.018 38.056 145.25 37.8416 145.305 37.6214Z" fill="#FAC515"/>
<path fill-rule="evenodd" clip-rule="evenodd" d="M157.366 32.8199C157.656 32.5187 157.44 32.5261 156.63 32.8392C155.977 33.0982 155.355 33.4473 155.24 33.6211C154.953 34.0556 156.817 33.3787 157.366 32.8199Z" fill="#FAC515"/>
<path fill-rule="evenodd" clip-rule="evenodd" d="M154.559 33.42C154.507 33.2702 154.26 33.1877 154.026 33.2686C153.831 33.3359 153.805 33.5128 153.973 33.6222C154.153 33.7616 154.389 33.8141 154.506 33.7737C154.584 33.7467 154.621 33.5999 154.559 33.42Z" fill="#FAC515"/>
<path fill-rule="evenodd" clip-rule="evenodd" d="M167.413 28.5119C167.481 27.9514 167.045 27.6995 166.659 28.1011C166.263 28.4727 166.582 29.2684 167.011 29.1202C167.206 29.0528 167.378 28.7921 167.413 28.5119Z" fill="#FAC515"/>
<path fill-rule="evenodd" clip-rule="evenodd" d="M164.995 29.4813C165.42 29.0663 165.36 29.0199 164.775 29.2221C164.423 29.3433 164.163 29.601 164.215 29.7509C164.339 30.1106 164.378 30.0971 164.995 29.4813Z" fill="#FAC515"/>
<path fill-rule="evenodd" clip-rule="evenodd" d="M180.5 22.8863C180.753 22.732 180.925 22.4712 180.873 22.3214C180.739 21.9317 179.534 22.1128 179.385 22.5668C179.262 22.8441 179.39 22.8336 179.65 22.5759C179.979 22.2613 180.077 22.2942 180.006 22.7213C179.993 23.0615 179.987 23.2983 180.016 23.2547C180.055 23.2413 180.297 23.057 180.5 22.8863Z" fill="#FAC515"/>
<path fill-rule="evenodd" clip-rule="evenodd" d="M86.6919 50.0768C86.4675 49.5505 86.1421 49.4951 85.2231 49.7453C84.4327 49.9847 84.3641 50.0419 84.9922 49.9592C85.5193 49.8443 85.972 49.8893 86.0238 50.0391C86.0755 50.189 85.7845 50.3566 85.3524 50.3716C84.7535 50.4106 84.8137 50.457 85.573 50.6309C86.8543 50.9265 87.0399 50.8289 86.6919 50.0768Z" fill="#FAC515"/>
<path fill-rule="evenodd" clip-rule="evenodd" d="M83.5479 51.5993C83.0466 51.5377 83.055 51.434 83.6093 51.142C84.1533 50.8201 84.0931 50.7737 83.1236 50.8737C82.4968 50.9558 81.8617 51.1416 81.7757 51.272C81.5454 51.6198 83.0557 52.0712 83.6805 51.8555C84.0711 51.7206 84.0504 51.6607 83.5479 51.5993Z" fill="#FAC515"/>
<path fill-rule="evenodd" clip-rule="evenodd" d="M71.203 55.8279C71.2683 55.6376 71.06 55.5418 70.747 55.6499C70.3958 55.7711 70.0614 55.6854 69.9993 55.5055C69.9062 55.2357 69.7788 55.2462 69.6656 55.5536C69.5725 55.7871 69.2646 56.1617 68.9929 56.3898C68.7122 56.5873 68.8396 56.5768 69.2872 56.3552C69.7743 56.12 70.1856 56.045 70.2374 56.1949C70.3616 56.5546 71.0142 56.2957 71.203 55.8279Z" fill="#FAC515"/>
<path fill-rule="evenodd" clip-rule="evenodd" d="M65.6529 57.8449C65.3482 57.8494 65.0074 58.0006 64.9214 58.131C64.7959 58.2749 65.061 58.284 65.4808 58.1055C65.9096 57.9574 65.9956 57.8271 65.6529 57.8449Z" fill="#FAC515"/>
<path fill-rule="evenodd" clip-rule="evenodd" d="M98.705 44.755C98.45 44.776 97.9816 44.9377 97.7291 45.0919C97.5259 45.2628 97.7418 45.2554 98.2884 45.0666C98.8349 44.8779 99.0093 44.7506 98.705 44.755Z" fill="#FAC515"/>
<path fill-rule="evenodd" clip-rule="evenodd" d="M137.034 30.7488C137.459 30.3338 137.399 30.2873 136.814 30.4895C136.462 30.6108 136.202 30.8685 136.254 31.0184C136.378 31.3781 136.417 31.3646 137.034 30.7488Z" fill="#FAC515"/>
<path fill-rule="evenodd" clip-rule="evenodd" d="M141.017 28.8706C140.747 28.5948 140.901 28.4076 141.604 28.1649C142.97 27.6932 142.989 27.1162 141.573 27.5715C140.871 27.8141 140.134 28.337 139.636 29.0457L138.869 30.1155L140.157 29.6707C141.094 29.3472 141.326 29.133 141.017 28.8706Z" fill="#FAC515"/>
<path fill-rule="evenodd" clip-rule="evenodd" d="M138.451 29.7902C138.368 29.5504 138.587 29.1727 138.918 28.9915C139.277 28.7669 138.944 28.8147 138.192 29.0408C137.255 29.3643 137.042 29.5051 137.455 29.5636C137.78 29.6191 137.99 29.8484 137.935 30.0687C137.841 30.3024 137.971 30.4254 138.166 30.358C138.4 30.2771 138.533 30.0299 138.451 29.7902Z" fill="#FAC515"/>
<path fill-rule="evenodd" clip-rule="evenodd" d="M166.823 18.4508C167.122 18.1796 166.907 18.1871 166.243 18.4162C165.111 18.8071 165.014 18.9075 165.839 18.8912C166.182 18.8733 166.64 18.6816 166.823 18.4508Z" fill="#FAC515"/>
</g>
<defs>
<clipPath id="clip0_12649_8077">
<rect width="231" height="56" fill="white" transform="translate(236.627 52.9334) rotate(160.951)"/>
</clipPath>
</defs>
</svg>
