<svg width="185" height="125" viewBox="0 0 185 125" fill="none" xmlns="http://www.w3.org/2000/svg">
<g clip-path="url(#clip0_12649_8043)">
<path fill-rule="evenodd" clip-rule="evenodd" d="M72.5127 15.3845C72.466 15.4776 67.6157 17.9688 61.7481 20.9178C55.8434 23.8848 50.9049 26.3835 50.682 26.4915C50.4961 26.5816 49.962 26.8052 49.5394 26.9747C49.1029 27.1157 45.9855 28.7321 42.5474 30.539C39.1602 32.3565 34.2123 34.9303 31.5779 36.3125C28.967 37.6482 25.6776 39.3831 24.2696 40.171C22.8988 40.941 20.4408 42.3082 18.8471 43.1862C17.2396 44.0356 14.9673 45.3129 13.7825 45.9927C12.5976 46.6726 11.2735 47.3495 10.8646 47.5476C9.27608 48.2469 8.57004 48.589 8.06354 48.8697C7.59423 49.1323 7.60806 49.1608 8.21564 49.1835C8.63309 49.1927 8.72559 49.2888 8.46537 49.4149C8.24246 49.5229 7.85267 49.5709 7.65812 49.4537C7.47753 49.365 6.93909 49.485 6.46978 49.7476C5.82847 50.1289 5.74896 50.3436 6.08165 50.7462C6.35598 51.0595 6.24135 51.1386 5.73775 50.9833C4.86649 50.7007 3.64966 51.2199 3.25295 52.0111C3.06628 52.3835 2.80605 52.5096 2.27285 52.4508C1.82775 52.3846 1.56765 52.5107 1.50196 52.7539C1.43616 52.9972 1.07844 53.2058 0.702467 53.2823C0.238284 53.3662 0.140657 53.4488 0.437118 53.587C0.682559 53.7147 0.677306 53.8935 0.491591 53.9835C0.268559 54.0915 0.0274132 54.0674 -0.0417257 53.9248C-0.207659 53.5823 -1.71749 54.3492 -2.14627 54.9798C-2.32341 55.277 -2.76935 55.4931 -3.24736 55.5486C-3.68805 55.586 -4.18942 55.688 -4.3985 55.8245C-6.5549 57.1513 -9.9472 59.1475 -10.7276 59.5257C-11.3222 59.8138 -11.7268 60.1155 -11.6853 60.2011C-11.6023 60.3724 -14.0093 61.7501 -16.0671 62.712C-16.8847 63.1082 -17.0525 63.3304 -16.8036 63.8441L-16.4994 64.4719L-17.5468 64.2042C-18.3765 64.0072 -18.8778 64.1092 -19.5519 64.6121C-20.0541 64.9964 -20.5658 65.4557 -20.6963 65.6599C-20.7758 65.8746 -21.5052 66.2633 -22.2157 66.5018C-23.0886 66.7839 -23.5069 67.057 -23.3962 67.2853C-23.3133 67.4565 -23.5042 67.7253 -23.8017 67.8694C-24.099 68.0134 -24.4282 67.9968 -24.5112 67.8256C-24.6218 67.5973 -24.8076 67.6873 -25.0549 68.1243C-25.2554 68.4681 -25.2657 68.8255 -25.0341 68.9247C-24.7377 69.0629 -24.6262 69.0089 -24.6624 68.7445C-24.6616 68.4623 -24.3409 68.2716 -23.6634 68.1547C-23.0739 68.0453 -22.5908 67.8112 -22.5346 67.643C-22.4404 67.1745 -19.1562 65.6183 -18.9902 65.9607C-18.9349 66.0749 -18.6194 66.0629 -18.3221 65.9189C-18.0248 65.7748 -17.8339 65.5061 -17.9168 65.3349C-17.9998 65.1637 -17.6929 64.9445 -17.2288 64.8605C-16.7275 64.7586 -15.7803 64.4406 -15.0465 64.1554C-14.0154 63.7263 -13.7596 63.4966 -13.9255 63.1542C-14.1053 62.7832 -14.0448 62.7187 -13.6835 62.896C-13.1555 63.1334 -12.0397 62.3109 -11.8425 61.5811C-11.7536 61.2913 -11.642 61.2372 -11.5176 61.4941C-11.3932 61.7509 -10.4598 61.4043 -7.83491 60.0972C-5.87914 59.1142 -4.48505 58.2977 -4.66564 58.2091C-5.02695 58.0318 -3.83337 57.5591 -2.9751 57.5308C-2.64586 57.5475 -2.48767 57.4003 -2.58446 57.2006C-2.68126 57.0008 -2.23961 56.6811 -1.38051 56.3705C-0.646685 56.0854 -0.065927 55.7688 -0.121238 55.6546C-0.176545 55.5405 0.000590189 55.2432 0.293593 54.9955C0.549403 54.7659 0.749067 54.7044 0.706753 54.9011C0.664313 55.0978 0.900339 55.3005 1.2806 55.3277C1.81379 55.3865 1.93478 55.2574 1.87172 54.6537C1.7853 54.0965 1.89247 53.9389 2.25378 54.1162C2.63832 54.247 2.94957 54.1314 3.59601 53.5715C4.20538 53.0295 4.50268 52.8855 4.59947 53.0852C4.68243 53.2564 5.04458 53.1514 5.39802 52.8392C5.72821 52.5735 6.67111 52.1519 7.49731 51.9629C8.59756 51.6764 8.99248 51.4498 9.26308 50.9663C9.48265 50.4723 9.70556 50.3643 10.2017 50.4411C10.7116 50.5463 10.7582 50.4532 10.3788 50.1438C9.79115 49.6886 10.2976 49.4079 11.3546 49.6005C12.3235 49.8005 12.9181 49.5124 13.4825 48.4989C13.7296 48.062 13.9855 47.8324 14.0684 48.0036C14.2482 48.3745 20.2922 45.4106 20.4329 44.8491C20.5358 44.5878 20.6474 44.5337 20.758 44.762C20.8548 44.9618 21.1235 45.043 21.3465 44.9349C21.5324 44.8449 21.5513 44.6947 21.3569 44.5775C21.1625 44.4603 21.2973 44.3597 21.6361 44.3013C22.012 44.2248 22.3689 44.2985 22.4381 44.4412C22.4934 44.5554 22.7813 44.4863 23.0604 44.2101C23.3534 43.9624 23.8037 43.85 24.1373 43.9702C24.5357 44.1295 24.5452 44.0544 24.1243 43.6593C23.5971 43.1396 23.993 42.6307 24.7016 42.9568C24.9332 43.0559 25.1839 43.0049 25.3283 42.8293C25.6636 42.3849 32.8596 38.8627 33.4161 38.8749C33.6807 38.8525 34.1266 38.6364 34.4058 38.3601C34.8336 38.0119 34.9727 38.015 34.9995 38.3543C35.0125 38.6651 34.5847 39.0134 33.7394 39.3525C33.0428 39.6196 32.4153 40.0294 32.373 40.2261C32.3307 40.4228 31.8699 40.8927 31.3677 41.277C30.6565 41.7978 30.3687 41.8668 30.2028 41.5243C30.0645 41.239 29.6609 41.2584 29.0057 41.6111L27.979 42.1438L29.0187 41.9219C29.9703 41.7075 29.9841 41.736 29.2546 42.1247C28.8225 42.3694 28.4085 42.7461 28.3662 42.9428C28.3005 43.1861 27.9799 43.3767 27.5252 43.3856C27.1354 43.4335 26.5504 43.6466 26.2944 43.8763C25.8804 44.2531 25.8528 44.196 26.1053 43.5803C26.3066 42.9542 26.2789 42.8972 25.7958 43.1313C25.4613 43.2934 25.2374 43.6837 25.2643 44.0231C25.272 44.5126 24.979 44.7603 23.9713 45.1429C23.2746 45.41 22.6101 45.8378 22.5816 46.063C22.4925 46.3528 22.1581 46.5149 21.3785 46.6108C20.6871 46.6991 20.2272 46.8867 20.1615 47.13C20.082 47.3447 18.2048 48.3953 15.9379 49.4937C13.6709 50.5923 11.3105 51.877 10.6873 52.3904C9.40385 53.4351 7.55178 53.8745 7.59589 53.1132C7.57336 52.8774 7.41613 52.7422 7.23029 52.8323C7.00726 52.9403 6.95541 53.2121 7.06602 53.4404C7.2043 53.7258 6.90176 54.0486 6.07032 54.4162C5.40147 54.7403 -2.85853 58.8133 -12.2333 63.4265L-29.3477 71.8606L-30.3589 73.3724C-30.8809 74.1891 -31.4445 74.9203 -31.556 74.9743C-31.6675 75.0283 -31.7004 75.15 -31.5707 75.2281C-31.4644 75.3528 -31.5344 75.4924 -31.7574 75.6005C-31.9432 75.6905 -32.0599 75.9232 -31.9769 76.0944C-31.9078 76.2371 -31.7177 76.2507 -31.5733 76.075C-31.4428 75.8708 -31.2717 76.0346 -31.2449 76.374C-31.2181 76.7134 -30.8577 77.1729 -30.4827 77.3788C-29.9779 77.6628 -29.8949 77.8339 -30.1879 78.0817C-30.4809 78.3294 -30.3608 78.4826 -29.7489 78.6089C-28.7291 78.8195 -28.2555 78.6604 -28.876 78.3268C-29.1075 78.2277 -29.0982 78.1526 -28.857 78.1767C-27.698 78.3903 -27.8502 81.1068 -29.0766 81.701C-29.7455 82.0252 -29.5917 83.2897 -28.8874 83.5121C-28.5676 83.6038 -28.3688 83.8246 -28.4621 84.0108C-28.5693 84.1684 -28.5521 84.5828 -28.4743 84.9327C-28.2677 85.6432 -26.6352 85.6977 -26.4752 84.9859C-26.4372 84.6856 -26.2375 84.6241 -25.8902 84.7729C-25.1305 85.1095 -25.0803 85.4023 -25.7121 85.7084C-25.9723 85.8345 -26.2981 86.2039 -26.3361 86.5041C-26.3742 86.8045 -26.7605 87.2384 -27.1278 87.522C-27.681 87.8957 -27.719 88.1961 -27.2722 89.2128C-26.9541 89.8692 -26.5428 90.3393 -26.3198 90.2312C-26.134 90.1412 -26.0553 90.2089 -26.1253 90.3485C-26.3587 90.8139 -25.071 91.3879 -24.4763 91.0998C-23.3614 90.5595 -23.708 91.6437 -24.7953 92.241C-24.9811 92.331 -25.1721 92.5997 -25.2378 92.843C-25.3277 93.4151 -23.174 95.9656 -22.4092 96.1235C-22.0522 96.1972 -20.2363 95.4935 -17.9045 94.434C-15.7352 93.4181 -13.7336 92.6243 -13.469 92.6019C-13.1908 92.608 -13.0188 92.4894 -13.1018 92.3181C-13.1847 92.147 -12.7664 91.8738 -12.0932 91.6533C-11.4432 91.4792 -10.8901 91.1055 -10.8616 90.8802C-10.7959 90.637 -11.0137 90.5663 -11.3482 90.7284C-11.6825 90.8905 -11.9004 90.8199 -11.858 90.6231C-11.6748 89.8649 -10.7699 89.7435 -9.88578 90.3369C-9.19608 90.8131 -8.91784 90.8193 -8.65679 90.4109C-8.41911 90.0491 -8.27046 89.977 -8.17365 90.1768C-8.09067 90.3481 -7.23158 90.0374 -5.90746 89.3606C-4.78313 88.7453 -3.49179 88.19 -3.07877 88.0956C-2.31299 87.9712 -2.29917 87.9997 -2.71401 88.6588C-2.93786 89.0492 -3.45473 89.6872 -3.81773 90.0745C-4.30181 90.591 -4.3216 91.0234 -3.90249 91.9831C-3.62162 92.6575 -3.20596 93.2313 -3.02967 93.2163C-2.83943 93.2298 -2.62261 93.5828 -2.52663 94.0648L-2.35297 94.8968L-0.503378 93.7892C1.19752 92.7535 1.35999 92.71 1.38587 93.3318C1.46189 94.2462 2.93384 93.7797 3.41961 92.6986C3.63906 92.2047 3.60282 91.9404 3.37979 92.0484C3.11969 92.1745 2.87855 92.1504 2.80939 92.0077C2.74028 91.865 2.99605 91.6353 3.39542 91.5124C3.75756 91.4073 4.26834 91.2303 4.52844 91.1042C4.76529 91.0247 5.34523 90.9904 5.76698 91.1031C6.21206 91.1693 6.51367 91.1289 6.43069 90.9576C6.26476 90.6152 7.11003 90.2761 7.62426 90.485C7.82824 90.5271 8.33042 90.1428 8.78673 89.5693C9.19203 88.9853 9.53606 88.7481 9.4704 88.9914C9.37182 89.3563 9.57576 89.3984 10.0356 89.2108C10.4072 89.0308 11.9076 88.3389 13.3475 87.7117C16.2506 86.4107 17.4018 86.1346 17.6922 86.7339C17.9549 87.2761 18.3128 87.0675 18.6032 86.1516C18.8184 85.554 18.8927 85.518 19.0587 85.8604C19.4043 86.5738 18.8633 87.5407 17.8132 88.12C16.554 88.8359 16.7259 88.7173 9.78829 92.6781C1.98653 97.1281 -8.79977 103.658 -9.8974 104.613C-10.1532 104.843 -11.2872 105.533 -12.3606 106.159C-14.8652 107.619 -20.5272 111.561 -22.6525 113.331C-23.7639 114.257 -24.1831 114.813 -23.9472 115.015C-23.725 115.19 -23.7951 115.329 -24.1338 115.388C-24.4726 115.446 -24.7656 115.694 -24.8452 115.909C-24.8737 116.134 -25.0924 116.345 -25.3196 116.35C-25.9644 116.345 -26.4277 119.177 -25.8158 119.304C-25.5098 119.367 -25.1866 119.844 -25.0907 120.326C-24.9671 120.866 -24.7269 121.172 -24.5039 121.064C-24.3181 120.974 -23.9473 121.076 -23.7347 121.325C-23.485 121.557 -23.0632 121.669 -22.752 121.554C-22.4409 121.438 -20.9319 120.954 -19.4228 120.469C-17.8767 119.967 -16.6088 119.458 -16.6408 119.297C-16.6355 119.119 -16.1109 118.97 -15.5543 118.982C-14.8586 118.998 -14.4222 118.857 -14.3565 118.613C-14.3279 118.388 -14.086 118.13 -13.9002 118.04C-13.6772 117.932 -13.5613 117.981 -13.5804 118.132C-13.6227 118.328 -12.7869 118.064 -11.7559 117.635C-10.2789 116.99 -9.80003 116.652 -9.62192 116.072C-9.5001 115.661 -9.19758 115.338 -8.97977 115.409C-8.77583 115.451 -8.80875 115.573 -9.03165 115.681C-9.29188 115.807 -9.39461 116.068 -9.2978 116.268C-9.15952 116.553 -8.0637 116.163 -4.70514 114.571C-2.31285 113.447 0.107221 112.38 0.631868 112.231C1.94117 111.808 3.23847 110.792 2.78467 110.519C2.59024 110.401 2.7804 110.415 3.21597 110.556C3.92032 110.779 4.50548 110.566 7.11641 109.23C8.77501 108.391 10.4154 107.42 10.6807 107.115C10.9833 106.793 11.3316 106.659 11.5632 106.758C11.9107 106.907 14.9027 105.316 15.4196 104.678C15.5639 104.502 15.7264 104.459 15.7955 104.602C15.8508 104.716 17.4066 104.138 19.2276 103.256C22.3398 101.818 22.5724 101.635 22.5187 100.956C22.4929 100.334 22.5534 100.27 22.9233 100.654C23.1359 100.904 23.5905 100.895 23.9112 100.704C24.7105 100.176 24.8843 99.4927 24.2024 99.506C23.0149 99.5177 24.1488 98.8272 25.4106 98.7797C26.1436 98.7768 26.956 98.5593 27.2118 98.3297C27.542 98.064 27.6577 98.1136 27.7122 98.51C27.7252 98.8209 27.8608 98.438 27.9932 97.6691C28.1772 96.6286 28.4617 96.1737 28.9767 96.1002C29.4036 96.0344 29.5247 95.9051 29.2421 95.7955C28.8298 95.6077 29.2636 94.7984 29.7598 94.8751C30.1815 94.9879 29.5601 96.4518 28.9654 96.74C28.6681 96.884 28.5091 97.3135 28.6008 97.6919C28.7061 98.0989 28.993 98.3122 29.2161 98.2041C29.4762 98.0781 29.4909 97.8244 29.2316 97.6681C28.917 97.3977 28.9776 97.3331 29.6456 97.2913C30.2627 97.2389 30.509 97.0843 30.4961 96.7734C30.4831 96.4626 30.6689 96.3725 31.1512 96.4208C32.0508 96.4781 34.4847 95.4398 33.9566 95.2023C33.776 95.1137 33.7812 94.9349 34.0413 94.8088C34.3386 94.6648 34.2833 94.5507 33.7458 94.3883C33.1062 94.205 33.0458 94.2695 33.0388 95.0128C33.0094 95.5204 32.8788 95.7245 32.6568 95.5503C32.4209 95.3475 32.184 95.427 31.9835 95.7708C31.7596 96.1612 31.5834 96.1761 31.4036 95.8052C31.127 95.2345 32.0414 93.5228 32.5047 93.7212C32.6853 93.8099 33.1771 93.7829 33.6041 93.717C33.9801 93.6405 34.4156 93.7818 34.5401 94.0387C34.6507 94.267 34.9332 94.3767 35.119 94.2866C35.3421 94.1785 35.3663 93.8498 35.2142 93.5358C35.0344 93.1648 35.1511 92.9322 35.5781 92.8662C36.005 92.8003 36.1623 92.9354 36.0499 93.2718C35.9376 93.6081 36.1278 93.6217 36.7734 93.3441C37.2703 93.1385 37.6238 92.8263 37.5546 92.6836C37.4717 92.5124 37.7456 92.4149 38.1398 92.4705C38.724 92.5398 38.8303 92.6645 38.5788 92.9977C38.3739 93.238 38.8847 93.061 39.7395 92.6467C41.0498 91.9414 41.194 91.7657 40.7871 91.3992C40.3938 91.0612 40.4266 90.9396 40.9789 90.8482C41.3687 90.8002 41.6012 90.617 41.5321 90.4743C41.4491 90.3032 41.2452 90.2611 41.0222 90.3692C40.8363 90.4592 40.5537 90.3495 40.443 90.1212C40.125 89.4649 40.6401 89.3914 42.392 89.8815C43.8241 90.2799 45.1136 90.2893 44.2752 89.8851C43.7981 89.6582 44.8258 88.8431 45.6564 88.7577C46.6632 88.6574 47.9087 87.913 48.4074 87.1428C49.1065 86.0288 48.1783 86.1968 47.1542 87.3977C46.3348 88.3585 46.0885 88.5131 45.9226 88.1707C45.7567 87.8283 45.5708 87.9183 44.8639 88.5428C43.8639 89.415 42.9771 89.6684 42.7005 89.0977C42.5622 88.8124 42.8181 88.5827 43.5053 88.3906C44.0532 88.1957 44.4343 87.9404 44.3514 87.7693C44.2684 87.598 44.6962 87.2498 45.3418 86.9722C45.9503 86.7126 46.5121 86.546 46.5536 86.6317C46.6503 86.8314 48.5414 85.8094 49.1974 85.1744C49.5138 84.8802 50.0616 84.6851 50.5067 84.7514C51.1791 84.8131 51.3278 84.7411 51.492 84.1329C51.6977 83.6104 51.9069 83.4738 52.3148 83.5581C52.7737 83.6528 53.1082 83.4908 53.6527 82.9098C54.1505 82.4219 54.5826 82.1772 54.7772 82.2944C55.0088 82.3936 54.9897 82.5438 54.8039 82.6339C54.3952 82.8319 55.1055 84.1085 55.6664 84.2243C55.9076 84.2484 55.9308 84.2019 55.7364 84.0847C55.491 83.957 55.6172 83.6491 56.0217 83.3474C56.5238 82.9632 56.7001 82.9483 56.6897 83.3057C56.6931 83.6916 56.8556 83.6481 57.4044 83.1707C57.7952 82.8404 58.3621 82.4953 58.7009 82.4368C59.2022 82.3349 59.1883 82.3064 58.5488 82.1229C58.1408 82.0386 57.8393 82.0791 57.8341 82.2579C57.8289 82.4365 57.6612 82.6587 57.4753 82.7487C57.2524 82.8567 57.1461 82.7321 57.198 82.4603C57.2637 82.2171 57.1988 82.1781 56.994 82.4182C56.5005 83.0097 56.0148 82.5756 56.2819 81.7062C56.5299 80.9869 56.6786 80.915 57.7131 80.8718C58.4555 80.794 58.8029 80.9426 58.6629 81.222C58.5229 81.5011 58.6845 81.74 59.1295 81.8062C59.9964 81.9852 61.5728 80.6927 61.2686 80.065C61.1719 79.8653 61.2938 79.4538 61.5496 79.2241C61.8426 78.9764 62.0932 78.9255 62.1667 79.1717C62.387 79.9106 62.7154 80.2095 63.1243 80.0114C63.3101 79.9214 63.3014 79.7142 63.056 79.5865C62.8244 79.4873 63.0241 79.4258 63.5573 79.4846C64.0395 79.5327 64.68 79.4338 64.9263 79.2792C65.1355 79.1426 65.6048 78.88 65.8883 78.7074C66.1856 78.5633 66.3351 78.209 66.2244 77.9807C65.9479 77.41 66.5564 77.1503 67.1303 77.577C67.5096 77.8865 67.5839 77.8504 67.9478 77.1808C68.3308 76.361 69.0929 75.8507 68.9427 76.4874C68.9002 76.6841 69.1924 76.7187 69.6013 76.5206C70.01 76.3226 70.3634 76.0103 70.4197 75.8421C70.4811 75.4952 72.0419 74.7389 72.7238 74.7256C72.9511 74.7212 74.1075 74.2665 75.3106 73.7187C76.8481 73.009 77.4618 72.5707 77.4721 72.2133C77.473 71.9309 77.7893 71.6367 78.1515 71.5317C78.5136 71.4267 79.3036 70.9734 79.829 70.5427C80.4646 70.0232 80.4758 69.8887 79.8628 70.1387C79.3286 70.3623 78.5344 70.712 78.0746 70.8995C77.48 71.1876 77.1368 71.1425 76.9709 70.8001C76.8188 70.4862 76.9684 70.1318 77.3029 69.9697C77.6002 69.8257 77.8041 69.8677 77.7755 70.0931C77.6675 70.533 78.6381 70.1684 78.8576 69.6744C78.9977 69.3951 82.0175 67.8613 82.9785 67.5718C83.74 67.3438 84.2421 66.9596 84.5783 66.2328C84.9422 65.5632 85.0166 65.5272 85.3958 65.8367C85.8912 66.1957 86.8151 65.9241 86.8306 65.3881C86.8359 65.2094 87.1842 65.0759 87.6663 65.124C88.4131 65.1498 88.4546 65.2354 88.1279 65.887C87.955 66.2879 87.8331 66.6994 87.9022 66.842C87.9947 66.9382 88.242 66.5013 88.5038 65.8105C88.9152 64.7656 89.1106 64.6004 89.904 64.5331C90.6603 64.4838 90.7717 64.4298 90.5082 64.1699C90.2489 64.0136 90.4398 63.7449 90.9463 63.4642C91.4156 63.2016 91.629 63.1686 91.4986 63.3728C90.9256 64.179 91.4259 64.3594 92.6662 63.7936C93.4838 63.3974 93.8978 63.0206 93.9082 62.6633C93.8676 62.2954 94.3792 61.836 95.3922 61.2747C96.2702 60.814 96.9677 60.2645 96.9357 60.1039C96.9185 59.6894 97.9453 59.1566 98.0974 59.4705C98.2633 59.8129 96.7464 61.3232 96.2409 61.3214C96.0136 61.3259 95.7759 61.6878 95.705 62.1097C95.6194 62.7855 95.6842 62.8245 96.539 62.4103C97.0964 62.1402 97.3756 61.8639 97.1578 61.7933C96.9634 61.6761 97.0618 61.3112 97.3878 60.9419C97.7741 60.5081 98.1086 60.346 98.354 60.4737C98.5346 60.5624 98.9011 60.561 99.1241 60.4529C99.3842 60.3269 99.2778 60.2022 98.8933 60.0714C98.1889 59.849 98.5252 59.1222 99.3091 59.13C99.5871 59.1363 99.657 58.9967 99.5239 58.8145C99.2322 58.4978 101.848 56.9834 102.325 57.2105C102.506 57.2993 102.925 57.0256 103.274 56.6098C104.335 55.391 105.18 55.0518 105.224 55.8058C105.274 56.3807 105.361 56.3734 105.906 55.7926C106.255 55.3767 106.563 55.1571 106.618 55.2713C106.659 55.3568 106.869 55.2203 107.045 54.9234C107.246 54.5793 107.557 54.464 108.029 54.5874C108.655 54.7423 108.576 54.9565 107.865 55.1956C107.679 55.2854 107.651 55.5107 107.762 55.7389C108.01 56.2526 109.005 55.8412 109.015 55.202C109.03 54.9482 109.169 54.9512 109.307 55.2366C109.608 55.7606 110.318 55.5221 111.63 54.534L112.401 53.949L111.271 53.5099C109.793 52.9224 109.747 52.7331 111.046 52.3855C112.022 52.124 112.045 52.0779 111.341 51.855C110.637 51.6326 110.673 51.615 111.708 51.5715C112.515 51.5328 114.355 50.7823 118.406 48.8192C123.868 46.1723 123.98 46.1183 124.72 46.6053L125.485 47.045L125.44 46.2916C125.423 45.8769 125.512 45.5874 125.665 45.6189C125.855 45.6324 126.084 45.3452 126.243 44.9161C126.415 44.5154 126.499 44.4043 126.462 44.7043C126.391 45.1262 126.53 45.1292 126.99 44.6595C127.307 44.3651 127.971 43.9378 128.418 43.7212C128.877 43.5337 129.305 43.1854 129.348 42.9886C129.497 42.3525 130.11 42.1966 130.122 42.7897C130.085 43.0895 130.293 43.2353 130.516 43.1273C130.739 43.0193 130.869 42.8154 130.8 42.6726C130.73 42.53 131.099 42.246 131.646 42.0512C132.181 41.8273 132.547 41.5438 132.464 41.3726C132.395 41.2299 132.683 41.1608 133.152 41.1803C133.699 41.2679 133.935 41.1884 133.936 40.9061C133.913 40.6706 134.244 40.4048 134.657 40.3101C135.019 40.2051 135.471 39.8101 135.62 39.4562C135.793 39.0549 136.067 38.6755 136.291 38.5669C136.514 38.4589 136.448 38.7023 136.187 39.1109C135.698 39.8058 135.712 39.8344 136.526 39.3343C137.018 39.0254 137.692 38.5223 138.008 38.2285C138.459 37.8334 138.585 37.8079 138.509 38.1266C138.349 38.8381 139.683 38.0862 140.409 37.0295C140.806 36.5202 141.038 36.3375 140.973 36.5803C140.897 36.899 141.274 36.822 142.188 36.3438C142.956 35.9366 143.564 35.3952 143.626 35.0479C143.687 34.7014 143.846 34.5538 143.929 34.7251C144.026 34.9248 144.787 34.6967 145.776 34.1821C148.252 32.9472 146.624 32.9961 143.833 34.2431C142.629 34.7909 141 35.4044 140.224 35.604C139.449 35.8035 137.113 36.7592 135.068 37.7502C133.011 38.7119 130.637 39.6858 129.826 39.903C128.651 40.2257 128.07 40.5424 127.381 41.2987C126.632 42.1199 126.483 42.1921 126.488 41.7314C126.523 41.3271 126.272 41.378 125.323 41.9788C123.92 42.8704 124.194 42.7727 119.955 44.4394C118.077 45.2083 116.02 46.17 115.406 46.6082C114.793 47.0464 114.198 47.3346 114.045 47.303C113.688 47.2295 111.198 48.4358 111.035 48.7618C110.965 48.9014 110.244 49.2151 109.423 49.5076C108.625 49.7532 107.101 50.4917 106.064 51.0999C105.042 51.7359 104.113 52.1861 103.974 52.1831C103.77 52.1412 99.0223 54.3711 98.3713 54.8276C98.1998 54.9459 97.8655 55.1079 97.6282 55.1877C97.2661 55.2927 94.5064 56.7004 89.8928 59.1121C88.0251 60.0876 76.048 66.2437 66.7423 70.9997C63.9083 72.4434 61.5947 73.6349 61.6085 73.6635C61.6638 73.7776 51.8007 78.8036 45.6824 81.8037C42.2029 83.525 39.2713 85.0512 39.215 85.2194C39.1961 85.3696 37.8486 86.093 36.2601 86.7922C34.1374 87.715 33.287 88.2329 33.2257 88.5798C33.1366 88.8695 33.0018 88.9701 32.9188 88.7989C32.8358 88.6277 31.8281 89.0103 30.1462 89.8957C28.6735 90.6446 24.7618 92.6105 21.4169 94.2314C16.7714 96.4824 15.4751 97.2164 15.8363 97.3937C16.1466 97.5604 16.0723 97.5964 15.5529 97.5663C15.1726 97.5391 12.6644 98.6136 9.14767 100.353C6.0026 101.912 3.02514 103.249 2.56105 103.333C1.92059 103.432 2.07879 103.285 3.17983 102.716C4.29474 102.176 4.47631 101.982 3.97075 101.98C3.55333 101.971 3.46084 101.875 3.72094 101.749C3.94397 101.641 4.33375 101.593 4.52814 101.71C4.70876 101.799 5.2982 101.69 5.81853 101.437C6.4875 101.113 6.62747 100.834 6.42958 100.331C6.1392 99.7317 6.17639 99.7137 6.73642 100.112C7.1392 100.375 7.27829 100.378 7.14006 100.092C6.99746 99.7034 7.07173 99.6674 7.49788 99.8838C7.96114 100.082 8.34652 99.9307 9.31373 99.1801C10.6015 98.239 10.9567 97.3621 9.99126 97.548C9.70351 97.617 9.76395 97.5525 10.1495 97.4009C10.948 97.1549 10.8522 96.6728 10.0726 96.7686C9.77099 96.8091 10.2031 96.5645 11.0345 96.1968C12.2514 95.6776 12.6412 95.6298 12.9506 96.0788C13.2461 96.4994 13.5245 96.5054 14.0404 96.1497C14.775 95.5823 14.7388 95.318 13.872 95.139C13.107 94.9812 13.3171 94.5623 14.2081 94.4123C14.5841 94.3359 14.973 94.5703 15.1018 94.9307C15.272 95.3767 15.5036 95.4759 15.8338 95.2103C16.0896 94.9805 16.6937 94.6173 17.1397 94.4012C17.6462 94.1206 17.9072 93.7122 17.8485 93.2121C17.794 92.8157 17.9902 92.3683 18.2504 92.2422C18.5477 92.0981 18.9341 91.6642 19.1207 91.2919C19.4379 90.7153 19.5399 90.7365 20.1501 91.4274L20.8526 92.2145L20.953 91.285C21.0385 90.6093 21.3877 90.1933 22.0938 89.8512C22.6652 89.6097 23.0696 89.3079 23.0143 89.1938C22.959 89.0797 23.3168 88.871 23.7671 88.7586C24.3799 88.6025 24.7705 88.2723 24.9019 87.7859C25.0471 87.3279 25.2286 87.1342 25.3116 87.3054C25.3945 87.4766 25.7653 87.5788 26.104 87.5204C26.5311 87.4545 26.6754 87.2788 26.4628 87.0295C26.2917 86.8657 26.3574 86.6224 26.557 86.5609C26.7938 86.4814 26.9607 86.5416 26.9416 86.6917C26.9822 87.0596 27.3029 86.869 27.9546 86.1304C28.6061 85.3918 30.5974 84.9554 30.8463 85.4691C30.957 85.6974 30.8221 85.798 30.3632 85.7032C29.881 85.6549 29.7462 85.7555 29.8845 86.0409C29.9951 86.2692 30.4539 86.364 30.8532 86.2409C31.5542 86.0775 31.6294 85.7592 31.0797 85.0036C30.9181 84.7648 31.0625 84.5892 31.4894 84.5232C31.8282 84.4648 32.1861 84.2562 32.2518 84.0129C32.2802 83.7876 32.9215 83.4064 33.6552 83.1213C34.4029 82.8648 34.956 82.491 34.9708 82.2373C34.9855 81.9835 35.2732 81.9145 35.7598 82.0663C36.58 82.3384 37.2948 82.2035 36.688 81.8984C36.4936 81.7813 36.5126 81.6311 36.7356 81.523C36.9586 81.4149 37.2179 81.5712 37.268 81.8641C37.3735 82.271 37.7399 82.2696 38.8453 81.8045C39.7277 81.4474 40.1832 81.1562 39.9887 81.039C39.7709 80.9684 39.7347 80.704 39.9161 80.5104C40.0838 80.2882 40.2091 80.2627 40.241 80.4234C40.2221 80.5735 40.4399 80.6442 40.6534 80.6112C40.8901 80.5318 40.9421 80.2599 40.827 79.928C40.7259 79.6246 40.6576 79.1997 40.7095 78.9279C40.8599 78.2913 41.6205 78.3456 41.6093 78.9853C41.6223 79.2961 41.8538 79.3952 42.2255 79.2151C42.5599 79.0531 42.7233 78.7272 42.5989 78.4705C42.4883 78.2422 42.6188 78.0379 42.897 78.0441C43.1615 78.0216 43.4684 77.8025 43.5202 77.5307C43.6093 77.2409 44.1071 76.753 44.674 76.4079C45.4873 75.908 45.7655 75.9142 46.0239 76.3527C46.661 77.383 47.3256 76.9553 47.2928 75.5617C47.2608 75.4009 47.7257 75.0348 48.2832 74.7646C48.8408 74.4945 49.1336 74.2469 48.953 74.1581C48.7725 74.0695 48.8286 73.9013 49.0516 73.7932C49.3117 73.6672 49.4829 73.8309 49.4958 74.1418C49.5088 74.4527 49.5079 74.735 49.5356 74.792C49.5632 74.8491 49.1544 75.0472 48.5927 75.2137C47.8822 75.4522 47.7241 75.5994 48.0248 75.8413C48.6912 76.364 49.9494 75.9304 50.9781 74.833C51.6202 74.1695 52.1733 73.7958 52.6789 73.7974C53.245 73.7345 53.4637 73.5228 53.6046 72.9612C53.7549 72.3247 53.6764 72.257 53.2303 72.4731C52.933 72.6172 52.6176 72.6291 52.5484 72.4864C52.3687 72.1154 53.2848 71.3544 53.711 71.5708C53.9287 71.6414 54.1793 71.5904 54.3608 71.3968C54.6123 71.0634 59.8585 68.0633 61.4332 67.3355C61.8931 67.1478 62.2093 66.8537 62.154 66.7396C61.9328 66.283 63.4289 65.4875 64.714 65.3933C66.338 65.2407 66.3656 65.2977 65.1159 65.9385C64.5213 66.2267 63.708 66.7265 63.2154 67.0357C62.7228 67.3449 62.1005 67.5759 61.8083 67.5413C61.4791 67.5247 61.2465 67.7078 61.2595 68.0187C61.2492 68.3761 61.6528 68.3566 62.6605 67.9741C63.4452 67.6995 64.0866 67.3183 64.1055 67.1681C64.1246 67.0179 64.357 66.8348 64.6958 66.7764C64.9975 66.7359 65.5506 66.3622 65.9136 65.9748C66.3605 65.4764 66.7322 65.2963 67.1771 65.3625C67.6594 65.4107 67.8315 65.2922 67.8514 64.8597C67.8522 64.5774 67.6811 64.4136 67.4953 64.5036C67.2722 64.6117 67.0683 64.5696 66.9992 64.427C66.93 64.2843 67.5161 63.7889 68.3431 63.3176C69.6395 62.5837 69.8902 62.5327 70.4779 62.9879C70.8435 63.2689 71.2748 63.3065 71.4191 63.1309C71.6473 62.8441 71.5271 62.6909 71.0916 62.5496C70.2851 62.3061 70.5047 61.8121 71.6939 61.2359C72.6093 60.7571 73.0076 60.9164 72.4908 61.5545C72.3464 61.7301 72.2851 62.0769 72.4052 62.2302C72.5296 62.4871 72.604 62.451 72.591 62.1402C72.6057 61.8864 72.9125 61.6673 73.2885 61.5908C73.7155 61.5248 73.8364 61.3957 73.5538 61.286C73.0257 61.0486 73.617 60.3745 75.1598 59.486C75.852 59.1153 77.0974 58.3709 77.9107 57.871C78.7378 57.3998 79.583 57.0607 79.7638 57.1493C79.9443 57.238 80.3065 57.1329 80.5485 56.8748C80.9021 56.5625 81.0178 56.6121 81.0351 57.0266C81.0282 57.7699 81.7714 57.4097 81.9269 56.5944C82.017 56.0223 82.0912 55.9863 82.4845 56.3243C83.0583 56.7509 83.7783 56.4373 83.5017 55.8665C83.3911 55.6382 83.1457 55.5106 82.9227 55.6186C82.7368 55.7087 82.4818 55.656 82.3989 55.4849C82.3297 55.3421 82.4879 55.195 82.7152 55.1906C82.9798 55.1682 83.0869 55.0104 82.9901 54.8108C82.838 54.4969 82.9123 54.4609 83.3246 54.6487C83.5839 54.8049 84.1223 54.6849 84.4663 54.4479C84.9589 54.1386 85.2001 54.1627 85.3331 54.6268C85.5449 55.1584 85.582 55.1404 85.7834 54.5142C85.952 54.0097 86.1844 53.8266 86.7644 53.7923C87.27 53.7939 87.4929 53.6859 87.3961 53.4862C87.327 53.3434 87.6338 53.1243 88.0842 53.0118C88.6969 52.8559 88.8179 52.7268 88.5171 52.4849C88.1653 52.2325 88.4212 52.0028 89.7591 51.3545C91.6545 50.4361 91.6034 50.4256 91.4747 51.5803C91.436 52.0688 91.5086 52.0923 91.6925 51.6509C91.8515 51.2215 92.1679 50.9272 92.3718 50.9693C92.613 50.9935 92.53 50.8222 92.2431 50.6089C91.8498 50.2709 91.8594 50.1959 92.3926 50.2546C92.7866 50.3103 93.1721 50.1587 93.2655 49.9726C93.396 49.7684 93.4375 49.854 93.3718 50.0972C93.2586 50.7159 94.7356 50.0706 94.8627 49.4805C94.8917 49.255 94.7613 49.1773 94.5014 49.3032C94.2041 49.4473 94.1488 49.3331 94.3545 48.8106C94.5693 48.2132 94.6445 48.1768 95.1348 48.4324C95.4446 48.5995 96.0248 48.565 96.3967 48.3848C96.805 48.187 97.1959 48.1384 97.2789 48.3097C97.348 48.4523 97.6025 48.5053 97.7878 48.4154C98.0483 48.2892 97.9653 48.118 97.5113 47.8447C97.1363 47.6388 96.8865 47.4075 96.9241 47.3893C97.1431 47.1775 99.2892 45.9261 101.315 44.8035C102.7 44.0618 103.671 43.6972 103.915 43.8253C104.611 44.1223 104.611 44.4047 103.933 44.5216C103.579 44.552 103.335 44.4238 103.4 44.181C103.466 43.9376 103.34 43.963 103.089 44.2963C102.586 44.9628 100.951 45.7553 100.488 45.5567C100.27 45.4862 100.078 45.7551 99.9938 46.1484C99.9084 46.8241 100.034 46.7986 102.324 45.6535C104.577 44.5267 104.772 44.3616 104.449 43.8837C104.14 43.4345 104.419 43.1582 106.213 41.9366C107.356 41.1713 108.505 40.5092 108.731 40.505C108.96 40.5002 109.303 40.2635 109.504 39.9193C109.765 39.5108 110.099 39.3488 110.767 39.307C111.296 39.2623 111.644 39.1288 111.561 38.9575C111.492 38.8149 112.176 38.237 113.125 37.6363C114.035 37.0542 114.905 36.3861 115.059 36.1353C115.25 35.8665 115.751 35.7645 116.502 35.894C117.406 36.0551 117.73 35.9683 118.164 35.4408C118.438 35.0615 119.001 34.6124 119.336 34.4503C119.744 34.2525 119.595 34.6064 118.966 35.299C118.254 36.102 117.701 36.4759 117.172 36.5207C116.629 36.5369 116.174 36.8283 115.731 37.4304C115.359 37.8923 114.894 38.2589 114.653 38.2345C114.435 38.1641 114.425 38.2393 114.671 38.3669C114.865 38.4841 114.813 38.7561 114.484 39.0213C113.982 39.4055 113.996 39.434 114.678 39.1385C115.087 38.9407 115.575 38.5279 115.738 38.202C116.008 37.7188 116.084 37.6824 115.999 38.0758C115.876 38.7696 116.294 38.4965 116.751 37.6406C117.031 37.0822 117.24 36.9456 117.774 37.004C118.307 37.063 118.59 36.8907 118.931 36.2673C119.201 35.7841 119.713 35.3246 120.15 35.1833C120.548 35.0607 120.754 34.8204 120.607 34.6097C120.223 34.1968 120.919 33.9298 121.442 34.3458C121.728 34.5596 121.696 34.681 121.33 34.682C121.014 34.6942 120.99 34.7409 121.25 34.897C121.597 35.0458 121.88 34.8735 122.398 34.2349C123.176 33.1885 124.016 32.7461 124.461 33.0946C124.669 33.2404 124.697 33.0151 124.476 32.5586C124.279 32.0552 124.326 31.6801 124.697 31.4998C124.994 31.356 125.199 31.1157 125.116 30.9444C125.047 30.8018 125.996 30.2009 127.361 29.61C129.099 28.8387 129.749 28.6646 129.901 28.9785C130.011 29.2068 130.419 29.2913 130.781 29.1863C131.343 29.0195 131.362 28.8696 130.997 28.5884C130.63 28.3078 130.664 28.1858 131.217 28.0943C131.68 28.0106 131.862 27.817 131.751 27.5887C131.626 27.3319 131.882 27.1025 132.556 26.8816C133.405 26.6463 133.47 26.6851 133.204 27.2721C133.017 27.6448 132.854 27.9701 132.882 28.0273C132.896 28.0558 134.159 27.4435 135.706 26.6589C137.662 25.6758 138.61 25.0756 138.829 24.5815C139.156 23.9302 139.092 23.8907 138.143 24.2092C137.457 24.4009 137.09 24.6843 137.066 25.0133C137.082 25.7103 135.345 26.4816 135.068 25.9108C134.957 25.6825 134.753 25.6406 134.572 25.8342C134.428 26.0096 134.214 26.043 134.145 25.9003C133.992 25.5864 134.36 25.3023 135.061 25.1392C135.237 25.1241 135.367 25.2024 135.348 25.3524C135.402 25.7488 136.453 25.1693 136.546 24.7012C136.717 23.9139 138.698 23.2707 139.714 23.6595C140.548 23.9602 140.849 23.9202 141.319 23.3751C141.622 23.0522 142.249 22.6425 142.662 22.548C143.15 22.4175 143.369 22.2057 143.258 21.9774C143.106 21.6635 143.315 21.527 144.243 21.359C145.333 21.1479 147.351 20.0999 148.908 18.9577C149.275 18.6743 150.125 18.1567 150.795 17.8321C151.45 17.4794 151.878 17.1311 151.697 17.0424C151.531 16.9822 151.8 16.7814 152.273 16.6224C153.62 16.1814 154.031 15.4183 153.202 14.9392C152.567 14.5772 152.586 14.4273 153.396 13.5411C153.903 12.9785 154.517 12.5402 154.707 12.5536C154.934 12.5495 155.139 12.3091 155.131 12.1015C155.141 11.7445 155.216 11.7081 155.354 11.9935C155.501 12.2042 155.715 12.1708 155.943 11.8843C156.111 11.6621 156.799 11.1875 157.38 10.8707C158.011 10.5649 159.257 9.8203 160.167 9.23833C161.497 8.38258 161.762 8.07793 161.447 7.80764C161.161 7.59397 161.194 7.47249 161.532 7.41435C161.834 7.37371 162.386 7.28211 162.776 7.23429C163.152 7.15785 163.631 6.81983 163.78 6.46591C163.981 6.12171 164.692 5.60103 165.375 5.30551C166.332 4.91231 166.551 4.7005 166.263 4.48735C165.898 4.20622 166.428 3.87904 167.35 3.89023C167.666 3.87812 167.843 3.58065 167.789 3.18422C167.731 2.68401 167.6 2.60631 167.285 2.90004C166.991 3.14825 166.838 3.11668 166.825 2.80583C166.841 2.26921 168.452 0.0087809 169.751 -1.29012C170.212 -1.75994 170.533 -2.2328 170.478 -2.34691C170.408 -2.48964 170.693 -2.66259 171.105 -2.75654C171.731 -2.88394 171.717 -2.91246 171.032 -3.00305C170.638 -3.05901 170.073 -3.27826 169.785 -3.49141C169.498 -3.70456 169.132 -3.70338 168.988 -3.52799C168.821 -3.30587 168.435 -3.15417 168.105 -3.17059C167.521 -3.23992 167.089 -2.99537 161.356 0.135374C159.748 0.984936 156.472 2.74839 154.062 4.02221C151.65 5.29655 148.708 6.89799 147.524 7.57774C146.338 8.258 143.643 9.70469 141.516 10.8062C136.555 13.3512 126.388 18.7005 122.867 20.6182C121.37 21.4137 119.354 22.4611 118.351 22.9472C117.347 23.4338 116.325 24.0698 116.036 24.4213C115.65 24.8553 115.315 25.0173 115.069 24.8898C114.889 24.801 114.225 24.9466 113.631 25.2343C113.036 25.5225 112.511 25.9534 112.468 26.1501C112.416 26.4221 112.119 26.5659 111.539 26.6004C110.518 26.6724 109.079 27.2993 109.914 27.3176C110.229 27.3055 109.007 28.0034 107.209 28.8396C105.412 29.6751 103.78 30.5715 103.64 30.8507C103.403 31.2125 103.055 31.346 102.484 31.3052C101.798 31.2152 101.724 31.251 102.186 31.4496C102.549 31.6264 102.501 31.7198 102.046 31.7288C101.301 31.7025 100.149 32.2608 99.3715 33.025C99.0549 33.3194 98.6968 33.5281 98.5439 33.4966C98.3534 33.4831 97.8989 33.7738 97.4471 34.169C96.9965 34.5634 96.4518 34.8627 96.1874 34.885C95.5433 34.88 91.5483 36.675 91.1617 37.109C90.8127 37.5247 86.6092 39.4559 86.0526 39.4437C85.8253 39.4481 85.7181 39.6057 85.7873 39.7485C85.8702 39.9196 85.7536 40.1524 85.5305 40.2605C85.3447 40.3505 85.1779 40.2903 85.2574 40.0757C85.2859 39.8504 84.4778 40.1715 83.2557 40.8694C82.1081 41.5313 79.7709 42.7695 78.0381 43.6444C76.0079 44.6634 74.7901 45.4649 74.5663 45.8553C74.3096 46.3673 74.1238 46.4573 73.7997 46.262C73.5309 46.1808 73.1178 46.2753 72.7876 46.541C72.5084 46.8172 72.3088 46.8787 72.3745 46.6355C72.4401 46.3922 71.9761 46.4762 71.3443 46.7823C70.7497 47.0704 70.0997 47.2445 69.9329 47.1843C69.8033 47.1062 70.2587 46.8151 70.9926 46.5299C71.7264 46.2448 72.2561 45.9177 72.1731 45.7464C72.0902 45.5752 71.728 45.6802 71.3608 45.9639C70.3937 46.7144 70.0765 45.7758 70.952 44.6468C71.5155 43.9157 71.799 43.7431 72.3832 43.8123C72.8655 43.8605 73.0652 43.799 72.9683 43.5992C72.8854 43.4281 73.104 43.2165 73.4428 43.158C73.7955 43.128 74.251 42.8368 74.4281 42.5396C74.6053 42.2423 75.4091 41.8176 76.3192 41.5175C77.5032 41.12 77.9579 41.111 78.1143 41.5286C78.2015 41.8034 78.3589 41.9386 78.4289 41.799C78.4988 41.6593 78.8748 41.5829 79.2689 41.6385C79.8392 41.6793 79.9879 41.6073 79.9612 41.2678C79.9673 40.8068 80.9525 40.1885 81.1323 40.5595C81.3535 41.016 83.2541 39.9189 83.8833 38.9445C84.2515 38.3785 84.3871 37.9956 84.1642 38.1036C83.9784 38.1937 83.6215 38.12 83.4131 37.9743C83.1124 37.7324 83.1962 37.6214 83.6603 37.5374C84.1244 37.4534 84.2083 37.3423 83.9257 37.2326C83.6292 37.0944 83.7597 36.8901 84.2429 36.656C84.6888 36.4399 85.1158 36.374 85.1988 36.5452C85.3051 36.6699 85.5038 36.8908 85.624 37.0439C85.7303 37.1686 85.9152 37.3609 86.0077 37.457C86.1417 37.6388 87.0197 35.6628 86.8814 35.3775C86.8261 35.2634 87.0449 35.0517 87.3422 34.9076C87.6395 34.7635 87.8198 34.8523 87.7778 35.0489C87.7121 35.2921 87.8884 35.2772 88.2047 34.9829C88.4976 34.7353 88.8834 34.5836 89.064 34.6723C89.296 34.7713 89.6666 34.5917 90.0157 34.1759C90.356 33.8348 90.8343 33.4974 91.1362 33.4568C91.512 33.3803 91.5397 33.4374 91.2053 33.5994C90.9587 33.7541 90.7911 33.9763 90.8464 34.0905C91.04 34.4899 93.504 32.9437 93.8637 32.1703C94.2274 31.5008 94.3013 31.465 94.9545 31.677C95.4825 31.9144 95.8682 31.7627 96.9611 30.9865C97.686 30.4943 98.5223 29.9481 98.7966 29.8504C99.1823 29.6987 99.1409 29.6132 98.6544 29.4613C98.1667 29.31 98.1252 29.2244 98.4608 29.0618C98.7201 28.9362 98.726 28.7571 98.5455 28.6684C98.351 28.5512 98.2957 28.4371 98.4673 28.3188C98.6163 28.2465 99.3688 27.8113 100.121 27.3762C100.874 26.9411 101.859 26.3228 102.375 25.9671C103.11 25.3996 103.199 25.3918 102.895 25.9969C102.648 26.434 102.169 26.7714 101.607 26.9383C100.869 27.1196 100.785 27.2307 101.16 27.4366C101.573 27.6243 101.549 27.671 100.965 27.6017C100.482 27.5536 100.134 27.6871 99.873 28.0956C99.5378 28.54 99.5516 28.5685 100.003 28.1733C100.333 27.9081 100.746 27.8135 100.964 27.884C101.159 28.0011 101.706 27.8064 102.148 27.4866C102.687 27.0842 103.087 26.961 103.359 27.1463C103.818 27.5227 106.781 26.1575 106.955 25.4745C107.058 25.2128 107.197 25.216 107.322 25.4727C107.502 25.8437 107.539 25.8255 107.694 25.2925C107.825 24.8062 107.898 24.7704 108.051 25.0843C108.203 25.3982 108.314 25.3442 108.623 24.8422C108.837 24.5272 109.353 24.1716 109.817 24.0873C110.605 23.9169 110.947 23.2934 110.759 22.4332C110.699 22.2152 110.756 21.7648 110.896 21.4855C111.12 21.0953 111.278 21.2301 111.512 21.9975C111.741 22.6617 112.084 22.989 112.46 22.9125C112.784 22.8258 112.868 22.7147 112.688 22.6261C112.507 22.5373 112.986 22.1993 113.757 21.8965C114.862 21.4311 114.998 21.3304 114.306 21.4189C113.563 21.4971 113.499 21.4576 114.094 21.1694C114.749 20.8168 114.732 20.1205 114.063 20.4445C113.877 20.5343 113.636 20.5105 113.58 20.3964C113.511 20.2538 113.716 20.0134 114.014 19.8689C114.311 19.7251 114.655 19.7702 114.765 19.9984C114.862 20.1982 115.13 20.2796 115.353 20.1716C115.54 20.0812 115.707 20.1413 115.627 20.3562C115.546 20.8534 117.906 19.5686 118.075 19.0642C118.141 18.8208 118.587 18.6048 119.241 18.5344C119.858 18.4818 120.406 18.287 120.499 18.1007C120.593 17.9143 121.578 17.2959 122.731 16.7376C123.905 16.1332 125.462 15.2733 126.238 14.7914C127.014 14.3096 128.692 13.3204 129.988 12.5867C131.271 11.8239 133.167 10.6235 134.198 9.91222C135.231 9.20029 136.314 8.49938 136.575 8.37316C136.834 8.24755 136.9 8.00408 136.678 7.82978C136.47 7.6841 136.461 7.47704 136.647 7.38662C136.87 7.27861 137.073 7.32111 137.142 7.46384C137.225 7.635 137.602 7.55805 137.997 7.3317C138.391 7.10535 138.684 6.85765 138.629 6.74355C138.573 6.62944 139.081 6.34838 139.753 6.12822C140.65 5.79934 140.845 5.63428 140.535 5.46725C140.238 5.32936 140.248 5.2541 140.578 5.27052C141.172 5.26459 142.372 4.04892 142.178 3.64936C142.095 3.4782 141.729 3.47929 141.394 3.64191C141.009 3.79301 141.251 3.53508 141.902 3.07863C142.539 2.59375 143.421 1.95463 143.849 1.60629C144.533 1.02846 144.959 1.24466 145.216 2.24761C145.307 2.62653 145.824 2.27022 146.457 1.39984C146.876 0.844443 147.16 0.67149 147.331 0.835379C147.502 0.999357 147.939 0.857986 148.292 0.546054C148.757 0.179418 148.791 -0.224284 148.473 -0.880591C148.099 -1.65101 148.249 -2.00553 149.631 -3.69721C150.498 -4.75155 151.34 -5.75847 151.475 -5.8592C152.071 -6.42976 150.653 -6.79978 149.047 -6.51476C147.655 -6.2631 145.68 -5.41185 139.799 -2.49173C135.651 -0.44613 132.24 1.13574 132.185 1.02164C132.102 0.850472 132.601 0.080138 132.969 -0.203874C133.08 -0.257881 133.373 -0.505482 133.615 -0.763497C133.871 -0.993502 134.322 -1.38806 134.591 -1.58893C134.969 -1.9482 134.955 -1.97673 134.472 -1.7425C134.124 -1.60901 133.641 -1.65709 133.378 -1.91697C132.73 -2.58979 130.766 -1.81433 123.095 2.1495C116.428 5.62671 114.663 6.34091 115.479 5.27622C115.73 4.94299 115.684 4.75417 115.392 4.71951C114.937 4.72852 114.804 4.54637 114.616 3.6861C114.56 3.57195 115.53 2.2566 116.722 0.833253C118.142 -0.876605 118.794 -1.89759 118.521 -2.0822C118.299 -2.25648 118.1 -2.47749 118.059 -2.5631C117.81 -3.07674 115.173 -2.36276 112.873 -1.1424C110.461 0.131965 108.627 0.703459 107.998 0.444712C107.391 0.139821 103.323 1.68824 97.3115 4.53056C93.939 6.0943 91.1851 7.32306 91.1436 7.23746C91.1021 7.15185 89.0908 8.02077 86.6474 9.13426C79.1447 12.5937 73.6225 15.0229 73.0841 15.1429C72.8196 15.1653 72.5595 15.2914 72.5127 15.3845ZM58.1328 26.0523C58.9132 25.6742 59.6003 25.4822 59.6833 25.6534C59.7524 25.7961 59.7101 25.9927 59.5753 26.0933C57.1587 27.5462 44.6431 33.8223 42.3909 34.667C42.0426 34.8005 41.7642 34.7945 41.8065 34.5978C41.849 34.401 42.0953 34.2465 42.3226 34.242C42.5499 34.2376 43.2793 33.8489 43.9025 33.3355C44.772 32.6675 45.1203 32.534 45.2309 32.7623C45.3277 32.962 45.4719 32.7864 45.5567 32.393C45.6509 31.9245 45.9067 31.6949 46.2499 31.74C46.5791 31.7566 47.4892 31.4565 48.2792 31.0033C49.083 30.5785 49.9791 30.25 50.2203 30.2741C50.7907 30.3148 52.5703 29.3468 52.8408 28.8634C53.0975 28.3513 53.6593 28.1848 53.528 28.6713C53.4009 29.2614 54.8796 28.0516 55.3741 27.1777C55.584 26.7589 55.8538 26.5577 56.2107 26.6314C56.5166 26.6945 57.3524 26.4305 58.1328 26.0523ZM51.6577 28.9786C51.6991 29.0642 51.6196 29.2789 51.4381 29.4726C51.2937 29.6482 51.0802 29.6812 51.0111 29.5385C50.9281 29.3673 51.0448 29.1346 51.2307 29.0445C51.4537 28.9365 51.63 28.9215 51.6577 28.9786ZM37.3961 37.334C37.5266 37.1298 37.703 37.1148 37.7859 37.286C37.9242 37.5714 35.99 39.0724 35.5449 39.0062C35.3918 38.9747 35.5466 38.4416 35.799 37.826C36.3123 36.802 36.3867 36.766 36.7332 37.1971C36.9459 37.4464 37.2519 37.5095 37.3961 37.334ZM40.3545 36.1471C40.371 36.8438 39.6044 37.2505 39.2906 36.6978C39.1523 36.4125 38.9994 36.3809 38.9847 36.6346C39.0072 36.8704 38.8671 37.1497 38.6814 37.2397C38.2725 37.4378 37.486 36.7619 37.5941 36.3219C37.6883 35.8534 40.3097 35.6755 40.3545 36.1471ZM61.8993 24.5443C62.0929 24.9438 61.5483 25.5248 61.0056 25.5412C60.7274 25.535 60.5562 25.3713 60.5985 25.1746C60.7299 24.6882 61.7333 24.2019 61.8993 24.5443ZM108.378 9.28084C108.34 9.58136 108.289 9.85274 108.213 9.88915C108.14 9.92496 107.969 9.76098 107.858 9.53267C107.748 9.3044 107.799 9.03306 108.022 8.92504C108.208 8.83463 108.379 8.99857 108.378 9.28084ZM-24.2212 83.5765C-24.0829 83.8619 -24.0656 84.2764 -24.2472 84.4701C-24.4148 84.6922 -24.7155 84.4504 -24.9644 83.9367C-25.2133 83.4231 -25.2167 83.0372 -24.9385 83.0433C-24.674 83.0208 -24.3595 83.2912 -24.2212 83.5765ZM-3.05156 73.2832C-2.9824 73.4259 -3.15968 73.7232 -3.37827 73.9349C-3.69465 74.2291 -3.84758 74.1975 -3.83721 73.8401C-3.82162 73.304 -3.24513 72.8837 -3.05156 73.2832ZM-12.2043 78.0707C-11.983 78.5273 -12.8706 79.0631 -13.5473 78.8977C-14.1221 78.7533 -14.0383 78.6423 -13.2578 78.264C-12.7376 78.012 -12.2734 77.928 -12.2043 78.0707ZM-8.28831 76.2083C-8.3306 76.4051 -8.55877 76.6918 -8.74461 76.7818C-8.96752 76.8898 -9.07383 76.7652 -9.03154 76.5685C-9.00302 76.3433 -8.76094 76.085 -8.57523 75.995C-8.3522 75.8869 -8.25967 75.9831 -8.28831 76.2083ZM135.627 7.17635C135.696 7.31907 135.58 7.55152 135.357 7.65953C135.17 7.74995 135.027 7.64312 135.069 7.44639C135.098 7.22122 135.228 7.0172 135.339 6.9632C135.415 6.92679 135.544 7.00518 135.627 7.17635ZM125.131 14.0239C124.945 14.396 123.779 14.9258 123.655 14.6689C123.6 14.5547 123.73 14.3508 123.916 14.2604C124.139 14.1524 124.209 14.0128 124.14 13.8701C123.701 13.343 123.906 13.1027 124.527 13.4361C124.938 13.6244 125.201 13.8843 125.131 14.0239ZM134.37 8.84254C134.15 9.33666 133.829 9.80952 133.606 9.91753C133.419 10.008 133.518 9.6431 133.849 9.09498C134.655 7.82334 134.878 7.71533 134.37 8.84254ZM128.933 11.8295C129.113 11.9181 129.145 12.079 128.922 12.187C128.737 12.2768 128.371 12.2779 128.19 12.1893C127.996 12.0721 127.977 11.9404 128.2 11.8323C128.386 11.7419 128.738 11.7122 128.933 11.8295ZM120.849 16.1696C120.844 16.3481 120.291 16.722 119.696 17.0102C119.063 17.3166 118.6 17.4003 118.666 17.1569C118.708 16.9602 119.26 16.5869 119.833 16.3448C120.44 16.0857 120.905 16.0015 120.849 16.1696ZM116.597 18.7586C116.572 19.0875 116.363 19.2241 115.732 19.2483C114.66 19.3093 114.646 19.2808 115.724 18.7583C116.244 18.5065 116.611 18.5048 116.597 18.7586ZM110.161 22.053C110.171 22.2601 109.77 22.6655 109.301 22.9283C108.548 23.3634 108.497 23.353 108.949 22.6756C109.582 21.8053 110.127 21.506 110.161 22.053ZM112.865 20.8133C112.893 20.8704 112.688 21.1108 112.446 21.3687C112.19 21.5987 111.903 21.6673 111.834 21.5246C111.751 21.3534 111.955 21.1137 112.253 20.9692C112.55 20.8254 112.838 20.7563 112.865 20.8133ZM106.583 24.4212C107.066 24.1875 107.218 24.2191 107.032 24.5912C106.869 24.9171 106.371 25.1228 105.314 25.2125C104.196 25.3664 104.08 25.3173 104.841 25.0891C105.39 24.8938 106.174 24.6196 106.583 24.4212ZM-4.75092 79.815C-5.16494 80.1917 -5.16053 80.2953 -4.78898 80.1152C-4.44067 79.9817 -4.50633 80.2249 -4.96692 80.6948C-5.61861 81.4334 -5.78108 81.4769 -6.43886 81.1614C-7.05932 80.8278 -7.07755 80.6957 -6.44055 80.2108C-6.03608 79.9091 -5.32991 79.5669 -4.91689 79.4725C-4.38447 79.3085 -4.32917 79.4226 -4.75092 79.815ZM96.1036 30.7326C96.228 30.9894 96.0466 31.183 95.6707 31.2595C95.3174 31.2897 95.0867 31.1901 95.129 30.9934C95.2322 30.4501 95.8823 30.276 96.1036 30.7326ZM-19.1108 87.0199C-19.1809 87.1596 -19.5197 87.218 -19.8766 87.1444C-20.3493 87.0211 -20.326 86.9745 -19.7228 86.8936C-19.3097 86.7991 -19.0408 86.8803 -19.1108 87.0199ZM-11.5804 83.3357C-11.3955 83.528 -11.5865 83.7967 -12.0325 84.0128C-12.8129 84.391 -13.5129 84.2721 -13.2562 83.7601C-13.0228 83.2947 -11.9598 83.0262 -11.5804 83.3357ZM-7.59442 81.3337C-7.11211 81.3819 -6.8667 81.5096 -7.1268 81.6356C-7.83296 81.9778 -8.87695 82.0961 -9.01523 81.8108C-9.19497 81.4398 -8.647 81.2447 -7.59442 81.3337ZM-1.72244 78.4884C-1.50036 78.6627 -1.47785 78.8983 -1.66369 78.9884C-1.88673 79.0965 -2.13214 78.9688 -2.24277 78.7405C-2.3534 78.5122 -2.37582 78.2764 -2.30156 78.2404C-2.22718 78.2043 -1.98172 78.3321 -1.72244 78.4884ZM4.00599 75.5363C4.07515 75.679 3.99562 75.8937 3.77259 76.0018C3.58675 76.0918 3.3318 76.0392 3.26264 75.8965C3.1797 75.7253 3.3102 75.5211 3.49604 75.431C3.71907 75.323 3.92305 75.3651 4.00599 75.5363ZM-22.0373 88.3675C-22.1074 88.5072 -22.428 88.6978 -22.7296 88.7382C-23.0684 88.7967 -22.9984 88.6571 -22.5895 88.459C-22.1946 88.2323 -21.9301 88.2099 -22.0373 88.3675ZM7.86056 74.0209C7.92972 74.1636 7.70155 74.4503 7.36706 74.6124C6.80967 74.8825 6.74482 74.8434 7.11733 74.381C7.65757 73.6964 7.69464 73.6785 7.86056 74.0209ZM82.7693 39.2024C83.032 39.7446 82.9714 39.8091 82.5082 39.6108C82.045 39.4124 81.9706 39.4485 82.1227 39.7624C82.261 40.0477 82.0752 40.1378 81.1522 40.127C80.5074 40.1223 79.8065 40.2857 79.6389 40.5079C79.434 40.7481 79.3829 40.7376 79.4348 40.4658C79.4868 40.194 80.1981 39.6731 81.0157 39.2769C82.2792 38.6646 82.5066 38.6603 82.7693 39.2024ZM66.0886 48.3424C66.144 48.4566 65.883 48.8649 65.5709 49.2628C65.0636 49.8257 64.9383 49.8512 65.023 49.4578C65.1215 49.0929 64.9963 49.1184 64.6427 49.4307C63.9495 50.0837 63.2149 50.6511 63.5174 50.3283C63.6246 50.1707 63.6117 49.8598 63.4872 49.6029C63.2798 49.175 63.2055 49.211 63.0879 49.726C62.9798 50.166 62.8822 50.2485 62.7439 49.9632C62.6332 49.7348 62.8571 49.3446 63.2245 49.0608C63.5918 48.7771 63.8295 48.4152 63.7603 48.2726C63.6221 47.9872 65.8993 48.0465 66.0886 48.3424ZM66.8302 47.0317C67.3678 47.194 67.4093 47.2796 66.889 47.5318C66.5545 47.6938 66.1976 47.6201 66.087 47.3919C65.9763 47.1636 65.9538 46.9278 66.0282 46.8918C66.1026 46.8557 66.4595 46.9295 66.8302 47.0317ZM51.9093 55.6361C51.8886 56.3508 51.4055 56.585 50.3485 56.3924C49.5836 56.2346 49.6069 56.188 50.3959 56.017C50.8973 55.9151 51.3156 55.642 51.3813 55.3987C51.5317 54.762 51.9301 54.9213 51.9093 55.6361ZM62.3722 50.1433C62.4414 50.286 61.9954 50.5021 61.4336 50.6685C60.584 50.9041 60.4492 51.0046 60.8105 51.1819C61.1208 51.3487 61.1113 51.4238 60.7449 51.4252C60.4665 51.4191 60.2444 51.2448 60.2867 51.0481C60.3949 50.6081 62.2201 49.8294 62.3722 50.1433ZM36.3981 63.1171C36.514 63.1667 36.2858 63.4534 35.8951 63.7836C35.444 64.1785 35.0074 64.3196 34.8364 64.1558C34.679 64.0206 34.4146 64.043 34.2841 64.2472C34.1398 64.4229 33.9496 64.4093 33.8667 64.2381C33.7146 63.9242 35.8372 63.0013 36.3981 63.1171ZM45.5733 58.5654C45.8049 58.6646 46.0789 58.5671 46.2604 58.3734C46.4652 58.1332 46.53 58.1722 46.4782 58.4441C46.3797 58.8089 46.1939 58.899 45.7116 58.8508C45.3685 58.8055 44.8343 59.0291 44.5552 59.3054C44.1274 59.6536 44.0021 59.6791 44.0773 59.3608C44.2043 58.7707 45.0824 58.31 45.5733 58.5654ZM47.8351 57.6456C47.7962 58.2282 47.2335 58.677 47.0262 58.249C46.9155 58.0207 47.1065 57.752 47.7531 57.192C47.7763 57.1455 47.836 57.3633 47.8351 57.6456ZM49.2759 56.736C49.2334 56.9327 49.5533 57.0244 49.9154 56.9194C50.3657 56.807 50.2819 56.9181 49.6639 57.2527C48.6743 57.7675 48.2525 57.6547 48.5793 57.0031C48.8127 56.5376 49.3977 56.3246 49.2759 56.736ZM54.6595 54.3034C54.6543 54.4822 54.1426 54.9415 53.4503 55.3122C52.191 56.0282 52.1229 55.6031 53.3362 54.698C54.2195 54.0586 54.656 53.9175 54.6595 54.3034ZM58.3949 52.3525C58.1667 52.6392 57.7017 53.0055 57.4044 53.1496C57.0327 53.3297 57.0656 53.208 57.4658 52.8027C58.3033 51.974 58.8979 51.6859 58.3949 52.3525ZM-21.5975 94.6732C-21.4454 94.9871 -22.435 95.5018 -22.8473 95.314C-22.9769 95.2358 -22.8231 94.9851 -22.4143 94.787C-22.0565 94.5784 -21.6805 94.5019 -21.5975 94.6732ZM-20.1801 93.8101C-20.0695 94.0384 -20.7065 94.5232 -20.9891 94.4136C-21.1697 94.3249 -21.0764 94.1387 -20.7791 93.9947C-20.4818 93.8506 -20.1939 93.7816 -20.1801 93.8101ZM-8.39919 88.1014C-8.46917 88.241 -8.78983 88.4316 -9.09141 88.4721C-9.43029 88.5306 -9.36018 88.391 -8.95144 88.1929C-8.55643 87.9662 -8.29201 87.9438 -8.39919 88.1014ZM-5.95847 87.8349C-5.36557 88.1114 -5.051 88.3817 -5.23684 88.4718C-5.53413 88.6159 -7.02072 87.8211 -7.21429 87.4216C-7.3111 87.2218 -7.26008 87.2323 -5.95847 87.8349ZM162.832 5.83314C162.762 5.97272 162.441 6.16327 162.139 6.20391C161.801 6.26214 161.871 6.12246 162.279 5.92464C162.675 5.69768 162.939 5.67534 162.832 5.83314ZM-6.64822 88.8738C-6.64905 89.1561 -6.80197 89.1245 -6.95407 88.8106C-7.14337 88.5148 -7.1149 88.2895 -6.94811 88.3497C-6.79506 88.3812 -6.63353 88.6201 -6.64822 88.8738ZM6.72645 82.2872C7.18111 82.2783 7.16214 82.4284 6.58566 82.8487C5.7162 83.5167 5.36349 83.5467 5.52773 82.9385C5.60808 82.4415 5.89168 82.2689 6.72645 82.2872ZM17.0347 77.3273C17.2291 77.4446 17.0943 77.5451 16.7556 77.6036C15.9898 77.728 15.7815 77.5822 16.3018 77.3301C16.5249 77.222 16.8403 77.2102 17.0347 77.3273ZM-2.70972 87.2472C-2.64056 87.39 -2.64571 87.5686 -2.72009 87.6046C-2.83155 87.6586 -3.0865 87.6061 -3.26712 87.5173C-3.46164 87.4002 -3.44259 87.25 -3.25675 87.1599C-3.03384 87.0519 -2.79266 87.0761 -2.70972 87.2472ZM0.872737 85.2647C0.812299 85.3292 0.551207 85.7375 0.313528 86.0994C-0.0779412 86.7119 -0.203343 86.7375 -0.396914 86.338C-0.535192 86.0526 -0.320757 85.7373 0.199443 85.4852C0.645383 85.2691 0.919432 85.1715 0.872737 85.2647ZM3.97988 84.0057C4.04904 84.1484 3.96938 84.3631 3.74647 84.4711C3.56063 84.5612 3.30568 84.5086 3.23652 84.3659C3.15358 84.1947 3.28408 83.9905 3.46992 83.9004C3.69283 83.7924 3.89694 83.8345 3.97988 84.0057ZM140.125 22.6148C140.319 22.732 140.184 22.8327 139.846 22.891C139.08 23.0152 138.872 22.8696 139.392 22.6177C139.615 22.5097 139.93 22.4976 140.125 22.6148ZM145.964 20.1732C146.227 20.433 146.152 20.4695 145.689 20.2708C145.138 20.0801 145.1 20.0983 145.28 20.4692C145.418 20.7546 145.32 20.8371 145.038 20.7272C144.806 20.6282 144.325 20.5796 143.985 20.6383C143.647 20.6966 143.842 20.5315 144.465 20.3003C145.11 20.023 145.778 19.9813 145.964 20.1732ZM122.847 32.8897C122.875 32.9468 122.684 33.2156 122.391 33.4633C122.135 33.6927 121.973 33.7364 122.001 33.5111C122.086 33.1178 122.737 32.6614 122.847 32.8897ZM30.1915 79.7611C31.442 78.8379 31.9052 79.0363 31.0254 80.0617C30.3599 80.7718 28.6469 81.2142 27.9106 80.8311C27.577 80.7108 27.6747 80.6282 28.2545 80.594C28.7091 80.585 29.5406 80.2174 30.1915 79.7611ZM33.2009 78.5847C33.0703 78.7889 32.9069 79.1147 32.8508 79.2829C32.8085 79.4796 32.5439 79.502 32.3357 79.3563C32.0997 79.1535 32.2535 78.9027 32.6857 78.6581C33.0807 78.4315 33.2942 78.3985 33.2009 78.5847ZM20.8045 85.2963C20.7897 85.5501 20.6083 85.7438 20.4276 85.6551C20.2608 85.595 19.9039 85.5213 19.6628 85.4972C19.4588 85.455 19.617 85.3079 20.0396 85.1384C20.4993 84.9508 20.7915 84.9855 20.8045 85.2963ZM46.8096 75.7958C46.9203 76.0241 46.7897 76.2283 46.5624 76.2327C46.2842 76.2266 46.113 76.0629 46.1553 75.8662C46.2962 75.3046 46.5607 75.2821 46.8096 75.7958ZM39.2126 80.0056C39.268 80.1198 39.1789 80.4095 39.0346 80.5852C38.8669 80.8074 38.9266 81.0252 39.121 81.1423C39.3664 81.2701 39.3059 81.3346 39.0277 81.3285C38.2576 81.3493 37.8756 80.3717 38.5445 80.0475C38.8418 79.9034 39.1574 79.8915 39.2126 80.0056ZM7.45032 98.744C7.56095 98.9723 7.4304 99.1765 7.20309 99.181C6.92489 99.1749 6.7537 99.0111 6.79616 98.8144C6.93691 98.2529 7.20145 98.2305 7.45032 98.744ZM-4.57699 106.122C-3.98323 106.117 -3.95558 106.174 -4.5131 106.444C-4.84759 106.606 -5.32545 106.661 -5.50606 106.573C-5.98311 106.346 -5.49997 106.112 -4.57699 106.122ZM138.319 36.8796C138.275 37.0769 138.048 37.3634 137.862 37.4532C137.639 37.5612 137.533 37.4368 137.575 37.24C137.604 37.0149 137.845 36.7569 138.032 36.6665C138.255 36.5585 138.347 36.6544 138.319 36.8796ZM-7.78345 108.029C-7.71429 108.171 -7.83101 108.404 -8.05405 108.512C-8.23989 108.602 -8.38326 108.495 -8.34097 108.299C-8.31233 108.074 -8.18196 107.869 -8.07038 107.815C-7.99612 107.779 -7.86639 107.857 -7.78345 108.029ZM-9.29852 108.974C-9.36862 109.114 -9.68916 109.304 -9.99086 109.345C-10.3296 109.403 -10.2597 109.264 -9.85081 109.066C-9.45588 108.839 -9.19134 108.817 -9.29852 108.974ZM89.5488 63.8948C89.4787 64.0345 89.1582 64.225 88.8565 64.2655C88.5177 64.3239 88.5877 64.1843 88.9965 63.9862C89.3915 63.7596 89.656 63.7371 89.5488 63.8948ZM92.9065 62.5848C92.8685 62.8852 92.7008 63.1074 92.4735 63.1118C91.9818 63.1387 92.0673 62.463 92.5505 62.2288C92.7362 62.1389 92.9074 62.3026 92.9065 62.5848ZM76.627 71.0372C76.7099 71.2084 76.5752 71.309 76.3106 71.3314C75.907 71.3508 75.8871 71.7833 76.2242 72.2895C76.3166 72.3856 76.0514 72.6904 75.7212 72.956C75.3538 73.2398 75.066 73.3087 75.1222 73.1406C75.2821 72.4288 74.2 72.8475 73.9519 73.5667C73.6288 74.6042 73.0029 74.4493 73.2614 73.3728C73.3557 72.9043 73.7048 72.4884 74.0808 72.4119C74.4568 72.3355 74.996 71.9332 75.2571 71.5248C75.7929 70.7366 76.3919 70.552 76.627 71.0372ZM66.7171 76.1563C66.7862 76.299 67.2271 76.2616 67.7102 76.0275C68.4673 75.6959 68.4811 75.7244 68.011 76.2694C67.3497 77.083 65.883 77.3709 65.9177 76.6846C65.9194 76.1201 66.5097 75.7283 66.7171 76.1563ZM70.9348 74.2535C71.4923 73.9834 71.8587 73.982 71.7654 74.1682C71.462 74.7732 69.0705 75.6149 68.6635 75.2484C68.3627 75.0066 68.4975 74.906 69.1008 74.825C69.5649 74.7412 70.3636 74.4951 70.9348 74.2535ZM63.5659 78.1766C63.6074 78.2622 63.5279 78.4769 63.3464 78.6706C63.2021 78.8461 62.9886 78.8791 62.9195 78.7365C62.8365 78.5652 62.9533 78.3326 63.139 78.2426C63.362 78.1345 63.5383 78.1195 63.5659 78.1766ZM-18.5784 118.897C-18.5093 119.04 -18.7418 119.223 -19.0806 119.282C-19.4332 119.312 -19.7487 119.323 -19.7763 119.266C-19.804 119.209 -19.5715 119.026 -19.2741 118.882C-18.9768 118.738 -18.6614 118.726 -18.5784 118.897ZM38.31 91.4015C38.4207 91.6298 38.5459 91.6043 38.6488 91.343C38.8364 90.6883 39.6169 90.3102 39.6151 90.8748C39.5909 91.2036 39.163 91.5518 38.2063 91.945C36.5902 92.5872 35.7284 92.2296 37.1778 91.5273C37.6982 91.2751 38.227 91.2302 38.31 91.4015ZM-13.1041 117.126C-13.1741 117.265 -13.4662 117.231 -13.716 116.999C-14.1326 116.708 -14.1093 116.661 -13.6132 116.738C-13.2562 116.812 -13.0341 116.986 -13.1041 117.126ZM-4.31782 112.339C-4.15189 112.682 -4.97643 113.821 -5.28245 113.758C-5.82947 113.671 -5.64112 112.734 -5.00921 112.428C-4.67485 112.266 -4.35933 112.254 -4.31782 112.339ZM21.1783 100.936C21.2275 101.511 21.1246 101.773 20.8283 101.634C20.0548 101.269 18.6148 101.896 18.8775 102.439C19.0711 102.838 19.0107 102.903 18.5707 102.658C18.1723 102.498 18.1732 102.216 18.5552 101.679C19.0583 101.012 19.2441 100.922 20.1481 101.083C20.7323 101.152 20.9829 101.101 20.7375 100.974C20.5059 100.874 20.3538 100.561 20.3824 100.335C20.5794 99.6056 21.0374 99.9826 21.1783 100.936ZM27.192 97.2469C26.5861 98.1748 26.1168 98.4375 25.9094 98.0094C25.8402 97.8667 25.9474 97.7091 26.1375 97.7227C26.3138 97.7077 26.6717 97.4991 26.886 97.1838C27.5472 96.3701 27.7512 96.4122 27.192 97.2469ZM-14.9571 117.847C-14.888 117.99 -15.1205 118.173 -15.4593 118.232C-15.8119 118.261 -16.1274 118.273 -16.155 118.216C-16.1826 118.159 -15.9502 117.976 -15.6528 117.832C-15.3555 117.688 -15.0401 117.676 -14.9571 117.847ZM-9.17766 114.906C-9.24777 115.045 -9.56843 115.236 -9.87 115.276C-10.2088 115.335 -10.1388 115.195 -9.72991 114.997C-9.33499 114.771 -9.07049 114.748 -9.17766 114.906ZM-6.78109 113.885C-6.27541 113.887 -6.23394 113.973 -6.56843 114.135C-6.82865 114.261 -6.87095 114.458 -6.63936 114.557C-6.44492 114.674 -6.78368 114.732 -7.46553 114.746C-8.12414 114.712 -8.69453 114.672 -8.72218 114.615C-8.83281 114.386 -7.46289 113.899 -6.78109 113.885ZM-2.69299 111.904C-2.62383 112.047 -2.85641 112.23 -3.19518 112.289C-3.54781 112.319 -3.8632 112.331 -3.89085 112.273C-3.9185 112.216 -3.68604 112.033 -3.38875 111.889C-3.09145 111.745 -2.77594 111.733 -2.69299 111.904ZM11.5122 105.232C11.5398 105.29 11.3074 105.473 11.0101 105.617C10.7128 105.761 10.3973 105.773 10.3143 105.601C10.2452 105.459 10.4777 105.276 10.8165 105.217C11.1691 105.187 11.4845 105.175 11.5122 105.232ZM14.7455 103.666C14.6755 103.805 14.3548 103.996 14.0532 104.036C13.7145 104.095 13.7845 103.955 14.1932 103.757C14.5882 103.53 14.8526 103.508 14.7455 103.666Z" fill="#FAC515"/>
<path fill-rule="evenodd" clip-rule="evenodd" d="M99.9116 29.028C99.684 29.3146 99.7333 29.6078 99.9791 29.7353C100.326 29.8841 100.462 29.7834 100.556 29.3147C100.712 28.4994 100.428 28.3901 99.9116 29.028Z" fill="#FAC515"/>
<path fill-rule="evenodd" clip-rule="evenodd" d="M89.3532 35.8359C89.1881 36.3152 89.2758 36.308 89.6176 35.8134C89.9152 35.3873 90.2141 34.9606 90.2742 34.8963C90.3216 34.8028 90.2326 34.8106 90.0097 34.9187C89.7868 35.0267 89.4892 35.4528 89.3532 35.8359Z" fill="#FAC515"/>
<path fill-rule="evenodd" clip-rule="evenodd" d="M74.7048 43.3924C74.8431 43.6778 75.1309 43.6089 76.1715 43.1046C77.2121 42.6004 77.4446 42.4172 77.2787 42.0748C77.1542 41.8179 77.0426 41.872 76.856 42.2444C76.6693 42.6167 76.2234 42.8328 75.5967 42.9603C74.9564 43.0592 74.6219 43.2213 74.7048 43.3924Z" fill="#FAC515"/>
<path fill-rule="evenodd" clip-rule="evenodd" d="M128.162 30.3141C128.319 30.4495 128.736 30.4586 129.098 30.3538C129.535 30.2124 129.641 30.0552 129.392 29.8238C128.911 29.4928 127.754 29.9479 128.162 30.3141Z" fill="#FAC515"/>
<path fill-rule="evenodd" clip-rule="evenodd" d="M107.74 41.8662C107.92 41.9549 108.31 41.907 108.644 41.7449C109.351 41.4027 108.799 41.212 107.977 41.5044C107.667 41.6197 107.522 41.7957 107.74 41.8662Z" fill="#FAC515"/>
<path fill-rule="evenodd" clip-rule="evenodd" d="M111.847 39.7357C112.32 39.5767 112.677 39.6502 112.649 39.8754C112.569 40.0903 112.852 39.918 113.252 39.5126C114.327 38.3223 114.313 38.2937 112.544 39.1864C111.666 39.647 111.336 39.9128 111.847 39.7357Z" fill="#FAC515"/>
<path d="M119.905 36.2891C120.11 36.1895 120.215 35.981 120.139 35.8235C120.062 35.6658 119.834 35.6188 119.628 35.7183C119.423 35.8178 119.32 36.0256 119.396 36.1833C119.472 36.3409 119.7 36.3886 119.905 36.2891Z" fill="#FAC515"/>
<path fill-rule="evenodd" clip-rule="evenodd" d="M4.85882 92.0711C5.54067 92.0578 5.63315 92.1539 5.32121 92.5517C5.06967 92.885 5.87774 92.5639 7.39713 91.722C8.74462 90.9985 9.87335 90.4868 9.92865 90.6009C10.0531 90.8578 11.544 90.2411 12.9104 89.3675C14.1282 88.566 14.2552 87.9759 13.1032 88.5342C12.6943 88.7323 12.5267 88.9544 12.6563 89.0326C12.823 89.0927 12.7669 89.2609 12.5811 89.351C12.3582 89.459 12.1032 89.4063 12.0202 89.2352C11.9511 89.0924 11.761 89.0789 11.6304 89.283C11.486 89.4587 11.1983 89.5277 10.9805 89.457C10.786 89.3399 9.62017 89.8695 8.17504 90.6755C6.52076 91.6181 5.60123 91.9932 5.30476 91.855C5.07313 91.7558 4.66953 91.7752 4.44662 91.8832C4.18639 92.0093 4.36709 92.0979 4.85882 92.0711Z" fill="#FAC515"/>
<path fill-rule="evenodd" clip-rule="evenodd" d="M3.5344 93.0304C3.49206 93.227 3.63549 93.3338 3.82133 93.2437C4.04436 93.1356 4.16104 92.9029 4.09192 92.7602C4.00894 92.589 3.87926 92.5109 3.805 92.5469C3.69342 92.6009 3.563 92.805 3.5344 93.0304Z" fill="#FAC515"/>
<path fill-rule="evenodd" clip-rule="evenodd" d="M107.593 42.607C107.774 42.6951 108.252 42.6399 108.586 42.4779C109.143 42.2078 109.116 42.1508 108.522 42.1567C107.599 42.1456 107.116 42.3798 107.593 42.607Z" fill="#FAC515"/>
<path fill-rule="evenodd" clip-rule="evenodd" d="M14.5708 88.2462C14.5681 89.0931 14.6977 89.1713 15.0383 88.5482C15.2526 88.2329 15.5594 88.0138 15.7634 88.0559C16.5792 88.2244 17.2396 87.6929 16.9631 87.1222C16.7418 86.6657 16.6026 86.6626 16.3927 87.0814C16.2292 87.4073 15.8714 87.6159 15.3425 87.6609C14.7998 87.6772 14.5673 87.8603 14.5708 88.2462Z" fill="#FAC515"/>
<path fill-rule="evenodd" clip-rule="evenodd" d="M106.804 43.3422C106.873 43.485 107.128 43.5378 107.351 43.4298C107.536 43.34 107.542 43.1609 107.362 43.0722C107.167 42.9551 106.925 42.9313 106.814 42.9853C106.74 43.0211 106.721 43.1711 106.804 43.3422Z" fill="#FAC515"/>
<path fill-rule="evenodd" clip-rule="evenodd" d="M89.6129 52.3768C89.682 52.5195 89.9698 52.4505 90.2256 52.2209C90.4676 51.9626 90.6725 51.7224 90.6449 51.6654C90.6172 51.6082 90.3293 51.6773 90.032 51.8213C89.7347 51.9654 89.5299 52.2056 89.6129 52.3768Z" fill="#FAC515"/>
<path fill-rule="evenodd" clip-rule="evenodd" d="M78.6441 59.1012C78.7133 59.2438 78.9683 59.2965 79.1913 59.1884C79.377 59.0984 79.3822 58.9196 79.2017 58.831C79.0071 58.7138 78.7661 58.6897 78.6545 58.7438C78.5803 58.7797 78.5612 58.9299 78.6441 59.1012Z" fill="#FAC515"/>
<path fill-rule="evenodd" clip-rule="evenodd" d="M68.7004 64.6238C68.881 64.7124 69.136 64.7651 69.2474 64.711C69.3218 64.675 69.3269 64.4963 69.2578 64.3537C69.1748 64.1824 68.9338 64.1583 68.7108 64.2664C68.5249 64.3564 68.506 64.5065 68.7004 64.6238Z" fill="#FAC515"/>
<path fill-rule="evenodd" clip-rule="evenodd" d="M56.7613 70.7622C57.1277 70.7608 57.6429 70.6873 57.8286 70.5973C58.0516 70.4892 57.8711 70.4006 57.5047 70.402C57.1381 70.4034 56.6602 70.4588 56.4372 70.5669C56.2515 70.6569 56.3949 70.7635 56.7613 70.7622Z" fill="#FAC515"/>
<path d="M55.9235 71.8733C56.1287 71.7739 56.2333 71.5655 56.1569 71.4079C56.0805 71.2503 55.8522 71.2032 55.6469 71.3026C55.4417 71.4021 55.3373 71.6105 55.4137 71.768C55.4901 71.9257 55.7182 71.9728 55.9235 71.8733Z" fill="#FAC515"/>
<path fill-rule="evenodd" clip-rule="evenodd" d="M44.4936 78.1167C44.4652 78.3419 44.6276 78.2984 44.8834 78.0687C45.4556 77.5449 45.4703 77.2911 44.9499 77.5432C44.727 77.6512 44.5221 77.8915 44.4936 78.1167Z" fill="#FAC515"/>
<path fill-rule="evenodd" clip-rule="evenodd" d="M33.0849 84.3134C32.8334 84.6467 33.0469 84.6137 33.8135 84.207C34.4314 83.8724 35.0079 83.452 35.1012 83.2659C35.3346 82.8004 33.5646 83.6934 33.0849 84.3134Z" fill="#FAC515"/>
<path fill-rule="evenodd" clip-rule="evenodd" d="M35.8023 83.3847C35.8715 83.5274 36.1265 83.58 36.3495 83.472C36.5352 83.382 36.5404 83.2032 36.3599 83.1146C36.1653 82.9974 35.9243 82.9733 35.8127 83.0273C35.7384 83.0633 35.7194 83.2135 35.8023 83.3847Z" fill="#FAC515"/>
<path fill-rule="evenodd" clip-rule="evenodd" d="M23.621 89.7813C23.6192 90.346 24.0824 90.5443 24.4179 90.0999C24.767 89.684 24.3565 88.9316 23.9477 89.1297C23.7619 89.2197 23.6218 89.499 23.621 89.7813Z" fill="#FAC515"/>
<path fill-rule="evenodd" clip-rule="evenodd" d="M25.9062 88.5323C25.5337 88.9947 25.5985 89.0337 26.1561 88.7636C26.4904 88.6015 26.7187 88.3148 26.6496 88.172C26.4836 87.8296 26.4464 87.8477 25.9062 88.5323Z" fill="#FAC515"/>
<path fill-rule="evenodd" clip-rule="evenodd" d="M11.292 96.9177C11.0594 97.1008 10.9195 97.3801 10.9886 97.5227C11.1684 97.8938 12.3429 97.5712 12.4371 97.1028C12.5261 96.813 12.4008 96.8384 12.1727 97.1252C11.884 97.4765 11.7819 97.4555 11.8018 97.023C11.7751 96.6836 11.7526 96.4478 11.7293 96.4944C11.6922 96.5124 11.4734 96.7241 11.292 96.9177Z" fill="#FAC515"/>
<path fill-rule="evenodd" clip-rule="evenodd" d="M101.217 58.8047C101.502 59.3007 101.832 59.3172 102.715 58.9598C103.471 58.6285 103.533 58.5635 102.919 58.7201C102.409 58.8966 101.954 58.9056 101.885 58.763C101.816 58.6202 102.085 58.4194 102.512 58.3533C103.102 58.2436 103.037 58.2046 102.263 58.1219C100.955 57.9802 100.783 58.0991 101.217 58.8047Z" fill="#FAC515"/>
<path fill-rule="evenodd" clip-rule="evenodd" d="M104.159 56.9204C104.664 56.9223 104.668 57.0262 104.152 57.3818C103.65 57.766 103.715 57.8049 104.666 57.5907C105.279 57.4349 105.887 57.1752 105.957 57.0355C106.145 56.6629 104.592 56.3936 103.997 56.6818C103.625 56.862 103.653 56.9191 104.159 56.9204Z" fill="#FAC515"/>
<path fill-rule="evenodd" clip-rule="evenodd" d="M115.917 51.2591C115.874 51.4557 116.092 51.5262 116.39 51.3818C116.725 51.2198 117.067 51.2653 117.15 51.4366C117.274 51.6934 117.4 51.6679 117.476 51.3492C117.54 51.1064 117.802 50.6979 118.045 50.4393C118.3 50.2099 118.175 50.2354 117.756 50.5085C117.301 50.7997 116.901 50.9229 116.832 50.7802C116.666 50.4378 116.049 50.7721 115.917 51.2591Z" fill="#FAC515"/>
<path fill-rule="evenodd" clip-rule="evenodd" d="M121.189 48.5986C121.491 48.558 121.811 48.3675 121.881 48.2278C121.989 48.07 121.724 48.0925 121.329 48.3194C120.921 48.5172 120.851 48.6568 121.189 48.5986Z" fill="#FAC515"/>
<path fill-rule="evenodd" clip-rule="evenodd" d="M89.9203 65.5122C90.171 65.4612 90.6169 65.2451 90.8493 65.062C91.0309 64.8682 90.8174 64.9012 90.297 65.1534C89.7767 65.4055 89.6187 65.5525 89.9203 65.5122Z" fill="#FAC515"/>
<path fill-rule="evenodd" clip-rule="evenodd" d="M53.5195 83.961C53.147 84.4234 53.2118 84.4624 53.7692 84.1923C54.1037 84.0302 54.332 83.7435 54.2629 83.6008C54.0969 83.2583 54.0597 83.2764 53.5195 83.961Z" fill="#FAC515"/>
<path fill-rule="evenodd" clip-rule="evenodd" d="M49.7879 86.2978C50.0887 86.5396 49.9581 86.7438 49.2892 87.068C47.9886 87.6982 48.0378 88.2734 49.3894 87.6537C50.0584 87.3295 50.7282 86.723 51.1387 85.9603L51.7731 84.8072L50.5468 85.4015C49.6549 85.8336 49.45 86.0738 49.7879 86.2978Z" fill="#FAC515"/>
<path fill-rule="evenodd" clip-rule="evenodd" d="M52.2265 85.0806C52.3372 85.3089 52.1642 85.7099 51.8575 85.929C51.5273 86.1947 51.8523 86.1078 52.5723 85.7941C53.4641 85.3619 53.6595 85.1968 53.2421 85.1876C52.9127 85.1711 52.6768 84.9682 52.7053 84.743C52.771 84.4998 52.6276 84.3931 52.4417 84.4831C52.2187 84.5912 52.116 84.8524 52.2265 85.0806Z" fill="#FAC515"/>
<path fill-rule="evenodd" clip-rule="evenodd" d="M25.3986 99.7016C25.1332 100.006 25.3467 99.9734 25.9785 99.6672C27.0562 99.145 27.1401 99.0339 26.3233 99.1477C25.9846 99.2062 25.5525 99.4508 25.3986 99.7016Z" fill="#FAC515"/>
</g>
<defs>
<clipPath id="clip0_12649_8043">
<rect width="231" height="56" fill="white" transform="translate(-48 73.7321) rotate(-25.8534)"/>
</clipPath>
</defs>
</svg>
