<svg width="130" height="126" viewBox="0 0 130 126" fill="none" xmlns="http://www.w3.org/2000/svg">
<path fill-rule="evenodd" clip-rule="evenodd" d="M97.5837 38.5365C96.503 38.454 95.2664 38.4737 94.8991 38.6384C94.5224 38.7547 94.2734 38.7491 94.3525 38.6355C94.4324 38.5219 93.7816 38.4877 92.9076 38.5926C92.0047 38.6777 91.162 38.6776 91.0203 38.5781C90.8793 38.4788 90.5026 38.5951 90.18 38.8763C89.8291 39.1374 89.4845 39.1487 89.2887 38.8846C89.1141 38.5921 88.8533 38.663 88.5957 39.0322C88.378 39.3446 88.1462 39.4354 88.0357 39.2309C87.9535 39.0463 87.7335 39.0605 87.5549 39.316C87.3372 39.6284 87.1163 39.6425 86.9127 39.3302C86.7459 39.0859 86.5282 38.9752 86.4287 39.1171C86.3497 39.2307 85.4248 39.4691 84.4145 39.6479C83.4051 39.8266 82.517 40.1332 82.4943 40.2866C82.4912 40.4115 82.3157 40.5421 82.0667 40.5364C81.8662 40.5222 81.4872 40.7635 81.2687 41.0759C81.0713 41.3598 80.7792 41.5358 80.6101 41.4165C80.4683 41.3171 80.188 41.4164 80.0298 41.6436C79.8716 41.8708 79.668 41.9815 79.5544 41.902C78.8981 41.2715 78.5536 41.2828 78.3272 41.97C78.2108 42.4385 78.0354 42.5691 77.9449 42.3362C77.7441 41.8989 76.5984 42.1515 76.703 42.6058C76.7087 42.7791 76.5361 42.7847 76.2815 42.6058C75.8007 42.2678 75.5772 42.4069 74.884 43.4007C74.6859 43.6847 74.4143 43.8323 74.2729 43.7329C74.1315 43.6335 74.0239 43.7272 73.9899 43.9572C73.956 44.1872 73.8231 44.1361 73.6562 43.8918C73.3225 43.4034 72.9632 43.6163 72.4821 44.5476C72.4 44.7862 72.2275 44.7918 72.1455 44.6072C72.0634 44.4226 71.3704 44.5702 70.5952 44.9564C69.7522 45.3793 69.274 45.7627 69.3928 46.0154C69.5031 46.2199 69.0476 46.4498 68.3941 46.5406C67.7407 46.6314 67.0335 46.9806 66.8156 47.2929C66.5977 47.6053 66.1988 47.875 65.9979 47.8608C65.749 47.8551 65.4378 48.0595 65.2878 48.335C65.1181 48.6388 64.2891 49.2833 63.3951 49.8398C62.4927 50.348 61.5873 50.9811 61.3723 51.1686C61.1573 51.3559 60.9621 51.5149 60.9338 51.495C60.8772 51.4553 60.1841 52.0259 58.8826 53.227C58.2461 53.8375 56.4665 55.4219 54.9218 56.7904C50.395 60.8024 50.2678 60.9245 49.897 61.6373C49.716 62.0178 49.4614 62.2619 49.3199 62.1625C49.0936 62.0035 47.7752 63.1079 46.5756 64.4652C46.27 64.8428 45.9956 65.1154 45.9673 65.0956C45.939 65.0757 45.7042 65.2915 45.4581 65.584C43.7887 67.3728 42.6628 68.4432 41.6301 69.1984C40.9766 69.7123 40.3117 70.303 40.1533 70.5301C39.9665 70.7374 38.7386 72.0748 37.4231 73.4774C33.3801 77.7025 30.791 82.0189 32.0583 82.3168C32.344 82.3907 32.7005 82.3027 32.8589 82.0755C33.0173 81.8483 33.3908 81.8569 33.7019 82.0755C34.0131 82.2948 34.4911 82.3341 34.7344 82.1667C35.006 82.0189 35.255 82.0252 35.3369 82.2099C35.4189 82.3939 35.5519 82.445 35.6793 82.3231C35.7584 82.2099 36.1121 81.8231 36.3979 81.4741C36.7317 81.1163 37.1589 80.8663 37.3682 80.9292C37.6058 81.0118 37.9453 80.827 38.1434 80.5432C38.3216 80.2877 38.7969 80.0291 39.1901 80.0094C39.5749 79.941 40.0813 79.5778 40.302 79.1407C40.6019 78.5895 40.8537 78.4703 41.0687 78.7061C41.2837 78.9417 41.4393 78.8395 41.5242 78.4761C41.6176 78.1608 42.1183 77.6242 42.7011 77.2722C43.7903 76.5567 43.9855 76.3976 44.3024 75.9433C44.4015 75.8014 44.5825 75.844 44.6645 76.0286C44.755 76.2615 45.0464 76.0855 45.3633 75.6311C45.6604 75.2052 46.2432 74.8531 46.6845 74.8248C47.171 74.7719 47.2305 74.6867 46.8627 74.5693C46.1018 74.3306 46.2009 74.1886 47.3805 73.7061C47.9124 73.4874 48.382 73.479 48.464 73.6636C48.546 73.8482 48.6988 73.8709 48.8176 73.7005C48.9166 73.5586 48.9619 73.2519 48.8516 73.0474C48.7696 72.8628 48.7866 72.5362 48.8857 72.3943C49.0045 72.2239 49.1289 72.2267 49.2308 72.3829C49.2845 72.5476 49.6693 72.0564 50.1164 71.355C50.6257 70.4436 51.0953 70.0119 51.6243 69.9183C52.0571 69.8417 52.6117 69.4698 52.8889 69.0722C53.1464 68.7031 54.0546 67.945 54.892 67.3487C55.7379 66.8008 56.3348 66.2472 56.25 66.1875C56.1369 66.1079 56.349 66.0455 56.6941 66.0342C57.1921 66.0456 57.2712 65.9321 57.0676 65.6196C56.864 65.3072 56.9433 65.1936 57.4355 65.0318C57.9362 64.9183 58.0353 64.7763 57.891 64.3788C57.727 64.0096 57.7864 63.9244 58.1004 64.0182C58.6237 64.1744 60.1431 62.2379 59.8659 61.7891C59.7839 61.6046 59.8517 61.5676 60.0498 61.7068C60.2393 61.7977 60.5476 61.7182 60.7061 61.4911C60.8646 61.2639 61.3851 61.122 61.8433 61.1902C62.4167 61.2546 62.577 61.0852 62.3243 60.682C62.0924 60.3497 62.0867 60.1764 62.2848 60.3156C62.4743 60.4065 62.8024 60.2987 63.0288 60.0346C63.2862 59.6655 63.3315 59.7819 63.1928 60.4038C63.0768 60.8723 63.1644 61.2302 63.3935 61.2643C63.9197 61.2956 64.4544 60.5289 64.0868 60.2704C63.9453 60.171 63.9623 59.8445 64.1604 59.5605C64.3981 59.2197 64.5027 59.251 64.4857 59.5776C64.4602 59.8559 64.8704 59.5095 65.4335 58.7627C66.8567 56.8432 67.2188 56.5053 67.479 56.8575C67.6091 57.0336 67.4761 57.4056 67.2498 57.6697C66.9074 57.9791 66.9329 58.124 67.2695 58.0644C67.6062 58.0048 67.9315 57.5987 68.1692 56.8348C68.5994 55.6138 69.9942 54.5207 69.9346 55.4521C69.8779 56.2586 70.9812 55.7646 71.1737 54.8844C71.352 54.2057 71.3238 54.1858 70.9078 54.7821C70.5429 55.2449 70.3505 55.2789 70.0818 54.8785C69.8499 54.5462 69.9008 54.4127 70.1582 54.4667C70.3958 54.5491 70.7354 54.3646 70.9533 54.0523C71.1711 53.7399 71.587 53.5667 71.8727 53.6406C72.1782 53.6861 72.5148 53.6265 72.6535 53.4277C72.7723 53.2574 73.2447 53.124 73.6945 53.1439C74.6224 53.2037 75.4174 52.366 74.6367 52.1558C74.2746 52.0705 74.2406 51.8774 74.5462 51.4998C74.7725 51.2357 75.1205 51.0994 75.3185 51.2386C75.5165 51.3778 75.8051 51.3267 75.9635 51.0996C76.1022 50.9008 76.866 50.5913 77.6552 50.4267C78.4243 50.2906 79.1996 49.9045 79.3696 49.6006C79.52 49.3252 80.213 48.7545 80.9116 48.357C81.6101 47.9595 82.2523 47.5223 82.3713 47.352C82.4708 47.21 82.9117 47.1816 83.2821 47.3152C83.882 47.4828 83.9979 47.4373 83.8256 47.0199C83.6533 46.6024 83.7207 46.5655 84.1169 46.8439C84.3997 47.0427 84.756 46.9547 85.0136 46.5855C85.2313 46.2732 85.4835 46.1539 85.565 46.3386C85.7748 46.8242 87.5455 46.0378 87.7037 45.3875C87.7773 45.1007 88.165 44.9077 88.6435 44.9475C89.1016 45.0157 89.5942 44.8539 89.7524 44.6268C89.9106 44.3996 90.9913 44.059 92.1339 43.9314C93.2968 43.7753 94.3094 43.4716 94.3635 43.2132C94.4175 42.9548 94.9578 42.7844 95.571 42.7505C96.6353 42.7364 97.2971 42.6939 100.61 42.3564L102.194 42.2005L101.911 41.1554C101.552 39.6758 99.9738 38.7356 97.5837 38.5365ZM72.4387 51.9226C72.3793 52.0078 72.167 52.0702 71.938 52.0362C71.7371 52.0219 71.6353 51.8657 71.7343 51.7237C71.8532 51.5534 72.0936 51.5108 72.235 51.6102C72.4047 51.7295 72.4783 51.8658 72.4387 51.9226ZM62.6724 59.2763C62.5734 59.4183 62.333 59.4608 62.1632 59.3416C62.0218 59.2421 62.0643 59.0604 62.2482 58.9781C62.4519 58.8674 62.6725 58.8532 62.7574 58.9128C62.8139 58.9526 62.7913 59.106 62.6724 59.2763ZM35.8407 81.125C35.8661 81.2696 35.5973 81.2924 35.1985 81.1391C34.7714 80.9654 34.6328 80.7413 34.7912 80.5141C35.0487 80.1446 35.7389 80.5456 35.8407 81.125Z" fill="#FAC515"/>
<path fill-rule="evenodd" clip-rule="evenodd" d="M40.9623 10.6278C40.586 11.1673 39.1801 11.0678 38.7813 10.4912C38.5409 10.1106 38.2664 10.3832 37.2224 12.0614C35.0351 15.5597 33.9428 18.9389 30.9708 31.6608C30.7188 32.6263 30.4386 33.5719 30.3 33.7707C30.1811 33.941 30.0424 34.9861 30.0281 36.034C29.994 37.1102 29.8185 38.0871 29.595 38.2262C29.1565 38.5527 28.6724 41.3016 29.0118 41.5402C29.1249 41.6197 28.941 42.1252 28.5845 42.6362C28.228 43.1474 27.8375 44.3116 27.7213 45.2033C27.5854 46.1234 27.3335 47.0889 27.1553 47.3444C26.9572 47.6284 26.8185 48.2503 26.8269 48.7217C26.8552 49.1647 26.7165 49.7866 26.5382 50.0421C26.3401 50.3261 26.3231 50.6527 26.4928 50.772C26.6342 50.8714 26.6399 51.0446 26.4758 51.0986C26.224 51.2178 25.1175 54.3755 24.7807 56.1276C24.6192 56.9028 23.2042 61.4094 22.1062 64.6154C21.7666 65.6462 21.3761 66.8104 21.2996 67.2222C21.1948 67.6141 20.8637 68.6932 20.4789 69.6075C18.4725 74.841 17.9715 77.4933 18.8765 78.5527C19.4366 79.2005 19.6629 78.9362 19.8724 77.3061C20.0226 76.1844 20.0622 76.1276 20.2487 76.7666C20.4071 77.3857 20.5683 77.4568 21.2898 77.329C21.7706 77.2439 22.1667 77.0991 22.1978 76.9941C22.2007 76.8691 22.4015 76.8833 22.5995 77.0226C22.7693 77.1418 23.1737 77.0454 23.4765 76.7926C23.8273 76.5314 24.3931 76.5059 24.9616 76.7786C25.8244 77.1735 26.0366 77.1111 26.9306 76.1314C27.4908 75.5096 28.2207 75.0071 28.546 75.0241C29.0439 75.0356 29.0835 74.9788 28.8941 74.4648C28.7668 74.1637 28.9451 73.4851 29.2733 72.954C30.6032 70.9266 30.7249 70.6313 30.2808 69.9383L29.8283 69.1971L30.4194 69.7395C31.0022 70.2337 31.1577 70.1315 32.0348 69.0553C32.646 68.3001 32.7677 68.0047 32.3885 68.2461C31.8821 68.6095 31.885 68.4846 32.3462 67.5815C32.6377 66.9824 33.0706 66.4827 33.2714 66.4969C33.5203 66.5026 33.5459 66.2243 33.4016 65.8267C33.1942 65.3988 33.3046 65.3212 33.7326 65.5939C34.0721 65.8325 34.4539 65.8893 34.5728 65.7189C34.6718 65.577 34.6181 65.4123 34.4455 65.4179C34.2729 65.4236 34.2363 64.9323 34.3834 64.3586C34.5928 63.5749 34.7315 63.3762 34.9181 63.592C35.3396 64.0152 35.8376 63.1803 35.4756 62.672C35.3088 62.4277 35.1644 62.4533 35.139 62.7316C35.1333 62.9815 34.9777 63.0837 34.8362 62.9843C34.5251 62.7656 34.7656 62.2999 36.3925 59.8465C36.899 59.06 37.1141 58.4494 36.9161 58.3103C36.2938 57.8729 36.4778 57.3674 37.3406 56.916C38.0196 56.5469 38.2063 56.3396 38.13 55.9051C38.0706 55.5672 38.1867 55.0987 38.3848 54.8147C38.563 54.5591 38.6026 54.0792 38.4754 53.7781C38.3198 53.4572 38.5406 52.5968 39.0301 51.7138C39.4518 50.8675 39.7913 49.8367 39.7349 49.3738C39.6868 48.9592 39.7916 48.5673 39.9358 48.5418C40.0999 48.4879 40.2527 48.0875 40.2641 47.5877C40.2557 47.1163 40.3944 46.4943 40.5924 46.2104C40.7905 45.9265 40.8358 45.6197 40.6661 45.5005C40.5247 45.401 40.5615 45.0461 40.7793 44.7337C40.9972 44.4214 41.0623 44.0863 40.8926 43.967C40.7512 43.8676 40.8729 43.1491 41.1502 42.3285C41.4361 41.5561 41.6258 40.8008 41.572 40.636C41.4561 40.2583 42.1044 36.1862 42.3223 35.8738C42.4412 35.7035 42.4044 35.2121 42.2517 34.7663C42.099 34.3204 42.0822 33.8007 42.2208 33.602C42.5376 33.1476 42.7783 31.8357 42.8606 30.3277C42.8861 29.6263 43.0078 28.9079 43.1663 28.6807C43.2767 28.462 43.3022 27.7606 43.1637 27.1131C43.0251 26.4656 43.0507 25.7642 43.229 25.5086C43.3874 25.2815 43.3281 24.9436 43.1018 24.7845C42.7058 24.5061 42.7199 24.3046 43.3764 23.2425C43.5462 22.9387 43.6029 22.1322 43.5238 21.3995C43.4447 20.6668 43.5183 19.9569 43.6937 19.8263C43.8691 19.6957 43.8919 18.6961 43.7449 17.5772C43.598 16.4583 43.4115 14.973 43.3692 14.3085C43.2985 13.6241 43.1119 12.9851 42.9139 12.846C42.764 12.6983 42.6452 12.4455 42.7075 12.2354C42.7782 12.0735 42.436 11.5367 42.0344 11.0851C41.4263 10.4461 41.1603 10.3439 40.9623 10.6278Z" fill="#FAC515"/>
<path fill-rule="evenodd" clip-rule="evenodd" d="M105.758 81.1749C105.678 81.2881 105.327 81.1261 105.019 80.7826C104.626 80.3793 104.188 80.2826 103.82 80.4477C103.452 80.612 103.242 80.5499 103.249 80.2999C103.291 79.6947 98.174 78.5098 96.8724 78.8646C96.4965 78.981 96.018 78.9411 95.848 78.8219C95.6789 78.7025 95.1323 78.6996 94.6318 78.8131C94.1596 78.9466 93.5566 78.9039 93.3303 78.7448C93.1047 78.5858 92.8275 78.5602 92.7085 78.7305C92.609 78.8725 92.3122 78.8753 92.0859 78.7162C91.8314 78.5373 91.4382 78.5571 91.1947 78.7246C90.9229 78.8723 90.4734 78.8523 90.1907 78.6535C89.908 78.4546 89.5344 78.4461 89.3958 78.6449C88.9996 79.2127 87.6761 79.2978 86.5076 78.8575C85.9759 78.6529 85.0392 78.5448 84.4621 78.647C83.8849 78.7491 82.7932 78.7433 82.0297 78.6296C81.274 78.5642 80.584 78.5868 80.5049 78.7004C80.4055 78.8424 80.1768 78.8083 79.9786 78.6691C79.5542 78.3708 77.186 78.8646 77.0818 79.2565C77.0106 79.4184 76.7255 79.3445 76.3856 79.1059C76.0747 78.8872 75.7975 78.8616 75.803 79.0348C75.7889 79.2365 74.9885 79.4778 73.99 79.5798C72.9912 79.6819 72.066 79.9201 71.9472 80.0907C71.8085 80.2896 71.52 80.3407 71.3503 80.2212C70.9543 79.9429 66.9344 80.6293 66.6572 81.0271C66.5779 81.141 65.7717 81.2087 64.8721 81.1686C63.9923 81.101 63.1861 81.1686 63.1069 81.2826C62.9682 81.4807 61.8197 81.8588 60.5297 82.1363C60.1732 82.2244 59.8055 82.3895 59.6867 82.5593C59.5678 82.7299 59.135 82.8069 58.6767 82.7385C58.1986 82.6984 57.8111 82.8918 57.7375 83.1788C57.6638 83.4649 57.4885 83.5962 57.3471 83.4964C57.2056 83.3973 56.5691 83.5844 55.9496 83.8682C54.8151 84.4673 54.6397 84.5978 54.1785 85.0774C54.0795 85.2197 53.7542 85.2024 53.5279 85.0436C53.0188 84.6859 52.566 85.2142 53.0554 85.6002C53.2053 85.748 53.0044 85.7338 52.5292 85.5687C51.9493 85.373 51.5448 85.4689 51.16 85.9602C50.232 87.1701 50.0764 87.2723 49.6238 86.9539C49.3409 86.755 49.109 86.8462 49.0354 87.1332C48.9618 87.4201 48.7835 87.6756 48.6393 87.7008C48.4667 87.7063 48.0564 88.053 47.7311 88.4587C47.3972 88.8172 46.9587 89.1434 46.7579 89.1293C46.2119 89.1261 44.172 92.0506 44.0246 93.0475C43.869 93.9964 44.4856 94.6835 44.9015 94.0868C45.3655 93.4822 47.6144 93.1591 48.2651 93.6159C48.7459 93.9539 48.8704 93.9571 48.6979 93.5396C48.4434 92.9374 48.8196 92.8211 53.2582 91.836C54.5482 91.5585 56.8878 91.0444 58.5341 90.6788C62.2316 89.8494 77.7796 87.3219 83.2451 86.678C84.3196 86.5868 85.188 86.3085 85.2021 86.1072C85.2162 85.906 85.5788 85.9909 85.9743 86.2692C86.3988 86.5671 86.7324 86.6332 86.7387 86.3832C86.7723 86.1528 87.0214 86.1583 87.3605 86.3973C87.7003 86.6355 87.969 86.6127 87.983 86.4115C88.0167 86.1811 88.1248 86.0876 88.2658 86.1874C88.4075 86.2865 88.7834 86.1701 89.0865 85.9178C89.3888 85.6646 89.8218 85.5884 90.0764 85.7668C90.3309 85.9461 90.6676 85.8863 90.8258 85.6591C90.9848 85.4319 91.2644 85.3329 91.4625 85.472C91.6324 85.5915 92.1869 85.6426 92.6959 85.5774C93.3577 85.5349 93.5676 85.597 93.4736 85.9123C93.3185 86.4374 94.5661 86.3415 94.942 85.8022C95.0806 85.6033 95.3382 85.6568 95.4855 85.9296C95.7173 86.2621 95.9295 86.2 96.2459 85.7456C96.5552 85.3423 96.7103 85.4225 96.7103 85.987C96.7103 86.5506 97.0627 86.7708 97.7683 86.6458L98.7777 86.4673L97.8952 86.1002C97.2702 85.7881 97.1402 85.612 97.4402 85.4838C97.672 85.3934 98.0541 85.45 98.2805 85.6096C98.5068 85.7684 98.8545 85.6324 99.0722 85.3195C99.2899 85.0074 99.5812 84.8313 99.723 84.9311C99.8647 85.0302 100.937 85.0648 102.136 84.9767C103.316 84.917 104.906 84.9343 105.593 85.0365C107.78 85.3462 108.263 85.1363 108.145 84.0373C108.08 83.5263 107.85 83.0687 107.593 83.0153C107.336 82.961 107.197 82.737 107.239 82.5546C107.364 82.1348 105.995 80.8337 105.758 81.1749Z" fill="#FAC515"/>
</svg>
