<svg width="137" height="134" viewBox="0 0 137 134" fill="none" xmlns="http://www.w3.org/2000/svg">
<g clip-path="url(#clip0_12088_12924)">
<path fill-rule="evenodd" clip-rule="evenodd" d="M98.3853 9.17593C97.897 9.15266 97.0482 8.9902 96.4867 8.82451C95.9253 8.65885 95.034 8.51101 94.4885 8.53135C93.9431 8.55168 93.2816 8.44439 93.0221 8.31835C92.7338 8.17825 92.4465 8.18149 92.3903 8.2966C92.32 8.44055 91.631 8.46237 90.869 8.34185C90.0641 8.23609 89.1591 8.18878 88.8435 8.24963C88.5141 8.33916 87.5237 8.32124 86.6324 8.24523C85.7128 8.15505 84.9522 8.1777 84.8819 8.32164C84.8115 8.46557 83.5489 8.56536 82.0555 8.55314C80.5484 8.56959 79.1999 8.69898 79.0007 8.88729C78.8153 9.04693 78.5288 9.12168 78.3269 9.02366C78.1538 8.93967 77.7097 9.04475 77.353 9.26341C76.9821 9.51089 76.6376 9.55773 76.5357 9.40131C76.4197 9.27371 76.104 9.26277 75.7893 9.39513C75.4745 9.5275 75.1164 9.603 75.0008 9.54705C74.7413 9.42099 73.4092 9.73622 71.3618 10.3458C70.6747 10.5825 69.9863 10.676 69.842 10.606C69.7268 10.5499 69.5112 10.5524 69.3833 10.6683C69.2979 10.7695 68.3957 11.0085 67.4071 11.2054C65.0997 11.6891 63.0678 12.413 63.0135 12.7429C62.9857 12.8722 62.728 12.961 62.3836 12.936C61.7943 12.8996 57.7291 14.2043 57.588 14.4923C57.5459 14.5786 56.2865 15.0364 54.7836 15.5541C52.78 16.2204 51.8655 16.703 51.3548 17.3817C50.915 17.9881 50.3581 18.3235 49.7839 18.3298C49.3106 18.3492 48.953 18.4964 48.9543 18.6396C48.9557 18.7827 48.6712 19.0723 48.2994 19.2482C47.9277 19.4241 47.4862 19.8156 47.3593 20.0748C47.2184 20.3627 46.9903 20.5371 46.8172 20.4531C46.673 20.383 46.402 20.5722 46.2469 20.8889C46.106 21.1769 45.7497 21.4672 45.4626 21.4703C44.7307 21.507 42.4728 24.224 41.3023 26.5424C40.0467 28.9619 39.1443 32.3371 39.4553 33.3791C39.5887 33.8359 39.5355 34.309 39.3503 34.4685C39.1799 34.6709 39.1704 35.2009 39.3326 35.6717C39.5096 36.1853 39.5846 36.5424 39.4981 36.5004C39.4116 36.4584 39.4008 36.8452 39.463 37.3743C39.5721 38.3183 40.1382 38.9851 40.1303 38.126C40.0995 37.8972 40.2604 38.2248 40.4246 38.9104C40.753 40.2815 40.7825 40.3671 41.5287 41.9055C41.8217 42.5467 42.4608 43.356 42.9377 43.6944C43.4146 44.0329 44.0665 44.6701 44.4152 45.1246C44.9678 45.8918 44.955 46.0638 44.249 47.3604C43.8255 48.1526 43.3423 48.7021 43.1693 48.618C42.9962 48.534 42.3555 49.1139 41.7308 49.8797C41.1061 50.6455 40.4371 51.2829 40.2506 51.2993C40.05 51.3445 39.836 51.49 39.7656 51.634C39.681 51.8068 39.8111 51.9056 40.0694 51.8884C40.3706 51.8565 40.3289 52.0145 39.9163 52.42C39.1192 53.1734 36.6789 57.9401 36.9962 58.0942C37.1404 58.1642 37.0444 58.6521 36.7765 59.1992C36.5088 59.7463 36.4281 60.3487 36.6018 60.5043C36.805 60.7455 36.748 60.7891 36.4596 60.6491C36.1859 60.5518 36.1007 60.653 36.161 60.9674C36.2354 61.253 36.1977 61.8405 36.0869 62.2856C35.8384 63.3767 36.4034 65.5043 37.4106 67.3119C37.8773 68.1087 38.2407 68.6059 38.21 68.3771C38.1932 68.1195 38.3214 68.0036 38.4655 68.0736C38.6386 68.1576 38.7265 68.3428 38.6419 68.5157C38.5715 68.6598 38.8048 69.058 39.2239 69.3684C39.6002 69.6935 40.1078 70.2607 40.3413 70.6594C40.7933 71.4135 43.0187 72.993 45.5432 74.3254C46.1201 74.6058 46.5258 75.0165 46.4554 75.1606C46.3708 75.333 45.7005 75.8274 44.9296 76.3083C42.5311 77.7812 37.3857 81.876 37.3754 82.334C37.3492 82.6065 37.1641 82.7664 36.9199 82.7545C36.7186 82.7281 36.3764 82.9894 36.1502 83.3785C35.9382 83.7389 35.5409 84.2587 35.2705 84.5194C35.0003 84.7806 34.3882 85.3742 33.9045 85.8522C33.3919 86.3162 33.0087 86.8073 33.067 86.9065C33.0824 87.0208 32.8275 87.3963 32.5 87.7005C31.5036 88.642 29.0025 93.0232 29.1512 93.5943C29.2397 93.8511 29.1154 94.3964 28.9181 94.7996C28.2128 96.168 27.6614 98.6798 27.706 100.412C27.7039 103.333 29.4183 107.124 31.4277 108.634C31.6732 108.789 32.0354 109.143 32.2239 109.342C33.0937 110.263 35.7357 111.866 37.2334 112.38C38.1263 112.671 39.467 113.286 40.2036 113.751C41.0118 114.214 41.5161 114.423 41.5142 114.209C41.4982 114.023 41.9583 114.103 42.5351 114.383C43.126 114.635 43.9759 114.941 44.4362 115.022C44.8963 115.102 45.6012 115.266 46.0473 115.376C46.4934 115.486 47.5868 115.732 48.4783 115.879C49.3986 116.041 50.5208 116.301 50.9957 116.424C52.6224 116.894 53.7771 115.993 52.6496 115.161C52.3605 114.949 52.3593 114.806 52.6316 114.76C52.8758 114.772 53.2096 115.183 53.4302 115.753L53.7842 116.781L55.5235 117.019C56.5009 117.138 57.4059 117.185 57.5777 117.126C57.7065 117.081 58.1524 117.191 58.4986 117.359C59.71 117.947 62.9675 117.783 62.7752 117.155C62.702 117.012 62.8885 116.996 63.1769 117.136C63.4365 117.262 63.5244 117.447 63.3533 117.578C62.8535 117.87 64.0206 118.33 64.8946 118.148C65.2959 118.058 65.9425 118.122 66.2598 118.276C66.8655 118.571 68.2882 118.727 70.6147 118.787C71.2036 118.823 72.0655 118.886 72.5694 119.024C73.0583 119.118 73.5031 119.085 73.5595 118.97C73.8413 118.394 73.7482 117.636 73.3444 117.44C73.1138 117.328 73.0977 117.142 73.2547 117.04C73.4258 116.909 73.7706 116.934 74.0302 117.06C74.2898 117.186 74.8211 117.195 75.2363 117.075C75.7804 116.912 75.9535 116.996 75.9996 117.339C76.0163 117.596 75.9452 117.669 75.8285 117.47C75.7119 117.271 75.4247 117.274 75.2114 117.491C74.5424 118.128 74.3894 118.66 74.8508 118.884C75.0815 118.996 75.3821 118.892 75.4949 118.662C75.6076 118.432 75.8506 118.3 76.0236 118.384C76.1677 118.454 76.1549 118.626 75.9409 118.772C75.7268 118.917 75.7416 118.96 75.9999 118.943C76.2581 118.926 76.5433 118.708 76.656 118.477C76.7688 118.247 77.113 118.2 77.4303 118.355C77.9494 118.606 78.0206 118.534 78.0006 117.919C77.9632 116.974 78.5971 117.21 78.8215 118.21C78.9569 118.882 78.9998 118.867 79.1229 118.178C79.2464 117.561 79.3752 117.517 79.9808 117.811C80.3846 118.007 80.773 118.089 80.8435 117.944C80.8999 117.83 81.4736 117.751 82.0913 117.802C83.8144 117.855 85.6646 117.648 85.6052 117.406C85.5467 117.306 84.9965 116.825 84.404 116.359C82.1773 114.636 79.8546 113.402 77.6952 112.781C76.4859 112.408 75.4206 112.104 75.3342 112.062C75.2905 112.005 74.7298 111.911 74.126 111.832C73.5363 111.724 72.5155 111.549 71.9111 111.398C71.2926 111.276 68.7322 110.745 66.2295 110.243C56.118 108.22 47.6388 105.707 43.8579 103.586C41.6787 102.35 39.8096 100.48 39.2793 99.0108C38.8221 97.6839 38.6629 95.9672 39.0378 96.1492C39.2397 96.2472 39.3672 96.0597 39.3781 95.6733C39.3895 95.3579 39.6124 94.6106 39.8802 94.0638C40.1903 93.4302 40.242 92.8136 40.0664 92.4435C39.8766 92.1017 39.815 91.6443 39.8996 91.4715C40.0124 91.2411 40.0989 91.2833 40.1451 91.6263C40.1771 91.9981 40.3348 91.9677 40.6892 91.463C40.9729 91.1016 41.0421 90.8144 40.8844 90.8448C40.6979 90.8611 40.653 90.6612 40.7658 90.4308C40.9068 90.143 41.1221 90.1408 41.4119 90.424C41.7599 90.8066 41.774 90.7778 41.6534 90.1493C41.5187 89.549 41.5469 89.4915 41.8508 89.7461C42.0533 89.9156 42.325 89.798 42.4942 89.4527C42.6492 89.1357 42.8618 88.8469 42.9908 88.8028C43.1484 88.7724 43.8032 88.1638 44.4856 87.426C45.4954 86.3838 45.7075 86.0234 45.5037 85.7107C45.3286 85.4117 45.4138 85.3104 45.8593 85.3487C46.1611 85.3882 46.561 85.155 46.7019 84.8667C46.8429 84.5789 47.3132 84.2016 47.7855 84.0389C48.3007 83.8611 48.5711 83.6004 48.5531 83.1999C48.5184 82.5415 49.2148 81.7746 49.4772 82.1873C49.579 82.3435 49.8072 82.1694 49.9904 81.7949C50.1736 81.4205 50.5433 81.0297 50.8439 80.9265C51.1444 80.823 51.2726 80.707 51.1283 80.6367C51.013 80.5808 51.4705 80.3753 52.1582 80.2104C52.8457 80.045 53.4174 79.7527 53.3725 79.5527C53.3564 79.3664 53.5993 79.2351 53.8723 79.2606C54.1741 79.3001 54.3882 79.1547 54.3863 78.9401C54.3535 78.4963 56.1139 77.89 57.1059 78.0507C57.5084 78.1037 57.9097 78.0136 57.9801 77.8694C58.0646 77.6966 58.2229 77.7377 58.3249 77.8943C58.4416 78.0936 58.7581 78.1759 59.0304 78.1298C59.3029 78.0842 59.8918 78.1204 60.3809 78.2155C61.5031 78.4753 62.6336 78.062 62.6705 77.4026C62.7108 77.1014 62.7673 76.9864 62.8404 77.1289C62.8994 77.3001 63.2307 77.4252 63.5896 77.4213C64.0632 77.4017 64.3087 77.5566 64.4709 78.0274C64.6774 78.6267 64.778 78.6397 65.5341 78.116C66.0193 77.7815 66.2339 77.7072 66.0494 77.9386C65.7649 78.2281 65.838 78.3705 66.4422 78.5211L67.2197 78.756L66.6376 77.9033C65.8819 76.895 63.5463 75.832 62.9472 76.2543C62.719 76.4283 62.3749 76.475 62.173 76.377C61.3079 75.9572 63.8034 75.672 66.0458 75.9765C67.4255 76.1479 68.4602 76.2223 68.287 76.1384C68.1426 76.0681 68.2851 75.9233 68.5428 75.8348C68.9722 75.6868 69.1161 75.7568 69.1491 76.2004C69.2131 76.9445 68.3263 77.2975 67.7617 76.7741C67.5008 76.5049 67.2418 76.4503 67.1572 76.6232C67.0868 76.7673 67.2335 77.1234 67.5085 77.3639C67.7837 77.6043 67.9021 78.0183 67.7752 78.2774C67.592 78.6519 67.6786 78.6941 68.1658 78.5741C68.6956 78.4392 68.7518 78.3243 68.5621 77.9824C68.3868 77.6122 68.4287 77.5256 68.7736 77.5504C69.0039 77.5909 69.4767 77.4998 69.7914 77.3675C70.3356 77.2042 70.4506 77.2601 70.6426 77.8165C70.8048 78.2873 71.0648 78.4851 71.7258 78.5206C72.9473 78.6503 73.1286 78.0612 71.9477 77.7019C71.2135 77.4521 71.1122 77.3676 71.5269 77.1767C71.7987 77.0591 72.0253 76.7416 72.0376 76.4982C72.0636 76.2257 72.4346 75.9785 72.8795 75.9447C73.7831 75.8491 74.117 76.2603 73.3441 76.5266C72.5712 76.7929 72.5598 77.1082 73.2789 77.2435C73.6384 77.3111 73.87 77.4947 73.7856 77.6675C73.4613 78.3299 74.3969 78.606 75.5275 78.1927C76.5288 77.8235 76.6283 77.6934 76.2245 77.4974C75.9651 77.3716 75.7353 77.4027 75.7517 77.5885C75.7814 77.7458 75.3954 77.879 74.9358 77.8694C74.1602 77.8496 74.1167 77.7927 74.4561 77.2448C74.6685 76.8843 74.6658 76.5982 74.4355 76.5577C73.716 76.3508 74.2289 75.9585 75.1481 75.9771C76.3834 76.0065 76.5999 76.1473 75.6539 76.3297C74.7077 76.5117 75.1842 76.7786 76.404 76.6936C76.992 76.6588 77.1632 76.5277 76.9038 76.4019C76.658 76.2471 76.8009 76.1739 77.2751 76.2259C77.6918 76.2501 78.0928 76.1595 78.1636 76.0157C78.2339 75.8717 78.6223 75.9534 79.0266 76.221C79.4455 76.4597 80.0495 76.6109 80.3651 76.55C80.8521 76.4301 80.8525 76.5017 80.4835 76.964C80.1852 77.2821 80.1016 77.5982 80.2461 77.6684C80.3904 77.7383 80.6041 77.5926 80.7453 77.3047C80.8723 77.0456 81.0148 76.9725 81.0591 77.1009C81.2502 77.5858 82.5114 77.3427 82.7931 76.7667C82.9485 76.4501 82.9598 76.1348 82.7867 76.0508C82.6424 75.981 82.5003 76.1256 82.4742 76.3977C82.4478 76.6703 82.2633 76.9017 82.0339 76.9326C81.7758 76.9495 81.7589 76.6922 81.9704 76.2602C82.3791 75.4251 84.1581 75.2912 84.223 76.1067C84.2705 76.5928 84.3848 76.506 84.9081 75.6551C85.0498 75.4388 85.3074 75.3499 85.4811 75.5059C85.6688 75.6327 85.9255 75.4723 86.0809 75.1557C86.2356 74.8387 86.5645 74.6776 86.7953 74.7897C87.0548 74.9159 87.4128 74.8401 87.6125 74.6518C87.8404 74.4774 88.2562 74.4301 88.5448 74.5698C88.862 74.7242 89.1913 74.6347 89.3183 74.3756C89.4452 74.116 89.8317 73.9831 90.1912 74.0507C90.5507 74.1184 90.9236 74.0858 90.9943 73.9416C91.0934 73.8116 91.235 73.5953 91.3341 73.4653C91.6173 73.0327 92.1482 72.9697 91.9509 73.3729C91.5983 74.0927 92.9993 73.4186 93.6373 72.5521C93.9494 72.1336 94.3623 71.7281 94.6057 71.6679C95.7071 71.2407 95.526 68.6939 94.3437 68.1197C94.1418 68.0217 93.9379 67.7086 93.8634 67.4231C93.6998 66.8092 91.2177 65.3901 91.0063 65.822C90.9218 65.9949 90.7632 65.9533 90.6614 65.7972C90.5448 65.5978 90.2278 65.5157 89.9555 65.5613C89.6833 65.6074 88.9939 65.5576 88.4471 65.4348C87.8856 65.2692 87.3402 65.2894 87.2699 65.4335C87.1994 65.5771 86.9121 65.5805 86.6238 65.4402C86.3352 65.3006 85.9469 65.2188 85.7751 65.278C85.5891 65.3659 85.3451 65.354 85.2588 65.3122C84.4082 64.9348 79.6165 65.3165 75.5316 66.0774C74.5568 66.2457 73.2371 66.3892 72.6194 66.3384C71.9876 66.3169 71.4865 66.4655 71.5025 66.6514C71.5186 66.8377 71.3335 66.9971 71.1037 67.0282C70.8027 67.0602 70.8022 66.9886 71.0731 66.7994C71.3302 66.6389 71.3147 66.5246 71.0128 66.4852C70.7395 66.4593 70.4545 66.6772 70.3569 66.9507C70.2157 67.2386 69.758 67.4441 69.2983 67.4346C68.8393 67.4254 68.3948 67.5307 68.3386 67.6456C68.2825 67.7609 67.6375 67.9113 66.9206 67.9905C66.2034 68.0699 65.5164 68.3069 65.4036 68.5372C65.2908 68.7676 64.9468 68.8142 64.6295 68.6604C64.3122 68.5061 63.9963 68.4954 63.9398 68.6103C63.8694 68.7544 62.8818 69.0945 61.7789 69.3788C59.9026 69.8577 59.4859 69.8335 57.3542 69.0836C56.0584 68.6684 54.7484 68.2818 54.4472 68.3138C54.16 68.3167 53.6704 68.1504 53.3813 67.9387C53.1063 67.6982 52.0814 67.0937 51.1578 66.5738C50.1766 66.0262 48.9324 64.9945 48.2356 64.1573C47.5536 63.3628 46.7274 62.4983 46.38 62.1871C46.0037 61.8618 45.7825 61.2199 45.7914 60.6183C45.8291 60.0308 45.5931 59.346 45.3322 59.0768C45.0572 58.8363 44.9688 58.5796 45.1694 58.5344C45.7858 58.4417 45.9819 57.8954 45.4345 57.7009C44.757 57.4076 45.6188 55.8659 46.4942 55.8276C46.9819 55.7793 47.053 55.707 46.8344 55.3513C46.6017 55.0245 46.7145 54.7942 47.4116 54.0992C47.8954 53.6213 48.2926 53.1014 48.2477 52.9014C48.2317 52.7154 48.3881 52.5419 48.6175 52.5107C48.8469 52.4796 48.9885 52.2632 48.9576 52.0344C48.941 51.7768 49.0422 51.8616 49.2179 52.232C49.4814 52.7876 49.5532 52.7869 49.7505 52.3837C49.8774 52.1246 49.8607 51.867 49.6876 51.7829C49.2261 51.5589 49.7227 50.909 50.6096 50.5556C51.096 50.3641 51.4382 50.1026 51.365 49.9602C51.3349 49.803 51.6073 49.7571 52.0098 49.8099C52.3982 49.8916 52.7852 49.8301 52.8557 49.6861C52.9262 49.5421 53.2428 49.6246 53.5754 49.893C53.8793 50.1474 53.9946 50.2034 53.8639 50.033C53.4575 49.5506 53.6984 49.2043 54.2175 49.4564C54.4483 49.5684 54.5938 49.7816 54.5233 49.9256C54.3683 50.2423 55.19 50.6056 55.561 50.3581C55.718 50.2561 55.6596 50.1566 55.3866 50.1309C55.1136 50.1053 55.011 49.8773 55.1378 49.6181C55.2506 49.3878 55.4646 49.2422 55.6088 49.3122C55.7242 49.3682 55.8959 49.3091 55.9664 49.1651C56.1215 48.8483 54.8839 48.5326 54.0527 48.6992C53.5368 48.8051 53.5509 48.7763 54.1796 48.44C55.6086 47.7084 55.795 47.692 55.9874 48.32C56.1355 48.8195 56.2368 48.9044 56.5938 48.6856C56.9218 48.4529 57.1103 48.6513 57.4194 49.4785C57.6989 50.2201 57.8874 50.4185 57.9995 50.1166C58.292 49.154 58.5921 48.9788 59.2125 49.3156C59.6354 49.5211 59.5693 49.6077 59.0138 49.5756C57.9506 49.487 58.1302 50.287 59.3268 50.8324C61.4754 51.8398 61.7194 51.8515 62.3017 51.1721C62.6146 50.8249 62.8723 50.7362 62.8453 50.9369C62.833 51.1806 62.9505 51.4513 63.1236 51.5353C63.6714 51.8015 63.1445 50.6902 62.3181 49.8259C61.7387 49.2593 61.7086 49.1022 62.1554 49.2834C62.4866 49.4087 63.0631 49.6171 63.4519 49.7704C63.9416 49.9368 64.0878 50.2216 63.9636 50.7672C63.8125 51.5135 64.1908 52.0535 64.4726 51.4776C64.5571 51.3048 64.8732 51.3156 65.1903 51.4698C65.5078 51.6237 65.8659 51.5482 65.9788 51.3179C66.2181 50.8284 66.9815 51.0921 67.0583 51.6642C67.1214 52.2649 67.697 52.4017 67.7348 51.8141C67.7864 51.1978 69.0061 51.1128 69.5567 51.6653C69.8468 52.0202 69.8335 52.1205 69.4178 52.168C69.0734 52.2148 69.1748 52.2996 69.7217 52.4224C70.6705 52.5983 71.5449 52.4167 70.9966 52.1507C70.7947 52.0527 70.7211 51.8387 70.7915 51.6948C70.8901 51.4932 71.0633 51.5772 71.3246 51.9181C71.5864 52.2588 72.0762 52.4253 72.9085 52.4018C74.2584 52.4156 74.8861 52.0079 74.2935 51.5417C74.0043 51.3301 74.1473 51.2569 74.7932 51.2499C75.6114 51.2553 75.6265 51.2979 75.1853 51.7612C74.8587 52.137 74.86 52.2802 75.162 52.3198C75.4347 52.3455 75.7198 52.1276 75.818 51.8544C75.9733 51.5376 76.145 51.4784 76.362 51.6909C76.5654 51.9321 76.7942 51.8293 77.0345 51.4114C77.2035 51.0659 77.3464 50.9927 77.3483 51.2075C77.3072 51.4371 77.511 51.75 77.7421 51.8619C78.088 52.03 78.1592 51.9576 78.0546 51.5149C77.9796 51.1576 78.0636 50.9132 78.2788 50.9109C78.4652 50.8946 78.6251 51.0789 78.5982 51.2797C78.5717 51.5521 78.7005 51.5078 78.8558 51.191C79.0961 50.773 79.1966 50.7863 79.4017 51.2423C79.6069 51.6983 80.1382 51.7068 82.5593 51.1361C85.9694 50.3683 99.3517 45.8539 99.5774 45.3932C99.6619 45.2204 100.234 44.9993 100.893 44.8919C101.811 44.6956 102.025 44.5501 101.92 44.1072C101.816 43.6645 101.887 43.6638 102.221 44.0037C102.468 44.3018 102.64 44.3142 102.595 44.1142C102.593 43.8994 102.763 43.6256 103.049 43.4792C103.434 43.2029 103.491 43.2309 103.308 43.6052C103.168 43.9647 103.24 43.964 103.668 43.6729C103.939 43.4836 104.18 43.1374 104.178 42.9226C104.133 42.7226 104.503 42.3319 104.959 42.0549C105.416 41.7778 105.814 41.3295 105.826 41.0859C105.853 40.8134 106.037 40.5823 106.224 40.566C106.898 40.5013 107.242 38.9223 106.87 37.4944C106.453 35.8664 104.886 34.0362 103.242 33.2381C101.252 32.2718 98.1442 31.5469 97.919 32.0075C97.7779 32.2956 97.5477 32.2552 97.0853 31.8878C96.7376 31.5767 96.1615 31.3681 95.8313 31.3861C94.3388 31.4454 91.8249 31.2581 91.4786 31.0901C91.2479 30.9781 90.5736 31.0428 89.9437 31.2359C89.3137 31.4289 88.4955 31.4235 88.1492 31.2555C87.7742 31.0735 86.5969 31.0721 85.5791 31.2551C84.533 31.424 83.2708 31.5955 82.7825 31.5722C82.2804 31.5776 81.7925 31.626 81.6637 31.6703C81.5349 31.7147 80.5312 31.8689 79.47 31.9951C78.38 32.1072 77.4774 32.3464 77.5076 32.5036C77.5377 32.6608 77.0078 32.7955 76.376 32.7737C75.7588 32.7948 74.9275 32.9615 74.5707 33.1802C74.1998 33.4276 73.6689 33.4908 73.3807 33.3507C73.0924 33.2106 72.6904 33.2294 72.5054 33.3889C72.3058 33.5774 71.1742 33.8475 69.9984 33.9892C68.8084 34.1598 67.8769 34.3849 67.9212 34.5132C68.0538 34.8985 66.9113 35.5554 66.4787 35.3454C66.248 35.2333 66.0045 35.2933 65.9634 35.5228C65.9077 35.7096 65.4924 35.8287 65.0324 35.7478C64.5723 35.6669 64.328 35.6553 64.4869 35.7682C64.8191 35.9649 62.8721 36.5878 62.053 36.5109C61.5071 36.4595 60.0947 37.4488 59.9559 37.9515C59.9281 38.0808 59.7261 37.9827 59.5379 37.7843C59.2482 37.501 59.1336 37.5166 59.0792 37.8465C59.04 38.291 57.1515 39.0133 56.6613 38.7752C56.517 38.7053 56.39 38.9645 56.3215 39.3232C56.2686 39.7963 56.0973 39.9271 55.7802 39.773C55.5207 39.6469 55.2202 39.7505 55.0932 40.0097C54.9522 40.2977 54.7228 40.3288 54.5343 40.1304C54.3312 39.8892 54.0159 39.9499 53.7455 40.2107C53.0772 40.9197 52.4433 40.6831 50.9651 39.1814C48.9807 37.2556 48.3114 36.2892 47.9126 35.062C47.7349 34.4768 47.4862 33.964 47.3419 33.894C47.1978 33.824 47.1811 33.5664 47.2938 33.336C47.4207 33.0769 47.3571 32.4045 47.1653 31.8482C46.9147 31.1206 46.953 30.6046 47.2791 30.1571C47.5342 29.782 47.6738 29.3509 47.543 29.1805C47.4263 28.9813 47.5243 28.7081 47.8383 28.5041C48.1376 28.2574 48.3765 27.6963 48.4847 26.9648C48.6191 25.9609 48.7466 25.7734 49.4765 25.5219C50.0776 25.3148 50.234 25.1412 50.0167 24.9288C49.7993 24.7164 49.9269 24.5289 50.5698 24.1638C51.0266 23.8867 51.5674 23.3652 51.8082 23.0189C52.0343 22.6299 52.5618 22.2087 53.0054 22.032C53.4485 21.8554 53.6911 21.6521 53.5179 21.5681C53.3735 21.4981 53.3278 21.2266 53.4406 20.9962C53.5676 20.737 53.8111 20.6771 53.9706 20.8616C54.1592 21.0599 54.2881 21.0155 54.3136 20.6715C54.3538 20.3704 54.5397 20.2824 54.828 20.4225C55.0879 20.5485 55.589 20.3998 55.9303 20.0668C56.2719 19.7336 56.6867 19.5428 56.8594 19.627C57.0326 19.711 57.3902 19.5638 57.6606 19.3031C57.9311 19.0424 60.0328 18.1028 62.3219 17.2185C64.611 16.3342 66.5273 15.4825 66.54 15.3105C66.5816 15.1526 66.6967 15.2087 66.8137 15.4078C66.959 15.6211 67.3039 15.6459 67.6036 15.4708C67.9183 15.3385 68.9777 14.9975 69.952 14.7576C70.9689 14.503 71.8556 14.1497 71.9405 13.9768C72.0538 13.8181 72.2543 13.7729 72.4279 13.9286C72.6157 14.0554 73.1612 14.0351 73.6623 13.8864C74.1205 13.7525 74.6518 13.761 74.7395 13.9462C74.8706 14.1165 74.9273 14.0731 74.9108 13.8154C74.8802 13.5866 74.6915 13.3882 74.4909 13.4333C74.2758 13.4357 74.389 13.2769 74.7458 13.0583C75.1167 12.8108 75.4753 12.7352 75.5621 12.8489C75.6065 12.9772 76.0231 13.0013 76.4242 12.911C76.8257 12.8206 77.4721 12.8851 77.8472 13.0672C78.2218 13.2493 78.5663 13.2025 78.707 12.9146C78.8198 12.6842 78.7608 12.5131 78.5456 12.5153C78.3593 12.5317 78.2291 12.4329 78.3135 12.2601C78.5533 11.7706 79.2884 12.0919 79.4091 12.7206C79.5288 13.2779 79.5576 13.2919 79.812 12.8452C80.1783 12.0966 81.1234 11.8427 82.2605 12.1453C82.8074 12.2681 83.3099 12.2626 83.3661 12.1475C83.493 11.8883 84.9576 11.8865 85.8503 12.1775C86.1093 12.2319 86.6104 12.0832 86.9955 11.8069C87.6656 11.3127 89.63 11.0191 89.4185 11.451C89.3623 11.5661 89.7529 11.9343 90.287 12.2291C91.0088 12.6507 91.2386 12.6912 91.2783 12.3185C91.3048 12.046 91.143 11.6469 90.9119 11.4632C90.608 11.2088 90.751 11.1356 91.5121 11.1846C92.0722 11.2071 92.7926 11.4856 93.1252 11.7541C93.4578 12.0225 93.7027 12.1058 93.6867 11.9197C93.6693 11.5906 95.1434 11.0588 95.2325 11.3872C95.2618 11.4729 95.8954 11.6377 96.6145 11.773C98.2966 12.0553 98.4551 12.0965 98.8909 12.6646C99.3122 13.1898 100.894 13.4588 100.558 12.9041C100.413 12.6908 100.712 12.4441 101.442 12.1926C102.086 11.9708 102.485 11.6657 102.412 11.4517C102.19 10.8097 99.3332 9.20848 98.3853 9.17593ZM96.7592 37.0753C96.6304 37.1197 96.3568 37.0225 96.1973 36.838C96.0086 36.6397 96.1374 36.5953 96.4545 36.7494C96.7861 36.8745 96.9168 37.045 96.7592 37.0753ZM94.4704 36.4274C94.4865 36.6134 94.8044 36.8391 95.164 36.9067C95.5235 36.9744 95.7551 37.1579 95.6843 37.302C95.614 37.4459 95.2691 37.4211 94.9511 37.1955C94.5906 36.9845 94.0995 36.6749 93.8113 36.5348C93.5367 36.3661 93.4631 36.152 93.6198 36.0502C94.0199 35.8166 94.4375 35.9839 94.4704 36.4274ZM91.7692 36.1849C91.5979 36.3158 91.2242 36.2769 90.9647 36.1508C90.5463 35.912 90.5604 35.8832 91.0784 35.992C91.3658 36.0606 91.6956 35.9709 91.7801 35.7982C91.8646 35.6254 91.9934 35.581 92.0236 35.7382C92.0679 35.8666 91.9693 36.0682 91.7692 36.1849ZM96.3281 38.6123C96.3168 38.9275 96.5347 39.2115 96.8083 39.3088C97.1537 39.4053 97.2282 39.6908 97.0323 40.2371C96.7939 40.8698 96.5797 41.0154 95.9903 40.9072C95.5728 40.8117 94.4705 41.1675 93.5423 41.6788C92.5995 42.219 91.4981 42.6463 91.0961 42.6651C90.6945 42.6838 89.8357 42.9796 89.193 43.3447C88.5503 43.7097 87.9779 43.9308 87.8765 43.846C87.7755 43.7612 87.0734 43.9551 86.2726 44.2789C85.4714 44.6028 84.4686 44.8285 84.0223 44.719C83.5623 44.638 83.1607 44.6567 83.0899 44.8008C83.0196 44.9447 82.1018 45.0693 81.0827 45.1092C80.0352 45.1349 78.8013 45.2487 78.3431 45.3826C77.6702 45.5905 73.9681 45.7886 73.3783 45.6805C73.292 45.6384 72.588 45.6176 71.8128 45.5974C71.0512 45.5485 70.2901 45.4995 70.0887 45.4731C69.9306 45.4318 69.3842 45.3807 68.91 45.3286C68.4217 45.3053 67.1426 45.1474 66.064 44.9444C64.9712 44.7703 63.936 44.6241 63.7067 44.6553C63.0466 44.6911 60.0237 43.7934 60.1223 43.5918C60.3196 43.1887 70.6947 39.4949 72.2287 39.2776C74.1072 39.0135 76.2546 38.3456 76.4236 38.0001C76.5081 37.8273 76.6379 37.8545 76.7685 38.0249C76.987 38.3806 78.5648 38.2201 78.4469 37.8777C78.4026 37.7493 78.7616 37.7453 79.2363 37.869C80.3588 38.1287 81.3053 38.0181 81.1436 37.619C81.1134 37.4618 80.7831 37.408 80.4533 37.4977C80.1093 37.5444 79.7068 37.4915 79.5332 37.3358C78.9539 36.7694 81.5249 36.9131 82.2052 37.4927C82.5812 37.818 82.8978 37.9005 82.9965 37.6989C83.0809 37.5261 83.3824 37.4941 83.6995 37.6482C83.9878 37.7883 84.4903 37.7828 84.805 37.6504C85.1198 37.518 85.5355 37.4706 85.7374 37.5686C86.3144 37.8486 87.2431 37.3372 86.8661 36.9403C86.7062 36.756 87.0525 36.924 87.6305 37.3474C88.6561 38.0235 88.6991 38.0087 88.535 37.323C88.3709 36.6375 88.3846 36.6088 88.8502 37.2623C89.2134 37.7596 89.5021 37.8996 90.1623 37.8637C90.5926 37.8591 91.1239 37.8676 91.2966 37.8799C91.4839 37.9351 92.3464 38.0689 93.1947 38.2315C94.0435 38.3939 94.7036 38.358 94.6584 38.1581C94.5995 37.987 94.7868 38.0421 95.1193 38.3106C95.5821 38.6778 95.7256 38.6763 95.7653 38.3035C95.7918 38.0311 95.9338 37.8864 96.107 37.9704C96.2513 38.0403 96.3542 38.3401 96.3281 38.6123ZM94.3824 37.7745C94.3258 37.8897 93.9672 37.8935 93.6209 37.7255C93.0736 37.5311 93.0439 37.4456 93.4888 37.412C94.1773 37.3185 94.5373 37.4578 94.3824 37.7745ZM41.1444 35.9812C41.3162 35.922 41.4758 36.1064 41.5072 36.4068C41.6157 37.2791 41.3742 37.5539 41.0812 36.9127C40.9196 36.5135 40.7754 36.4434 40.6626 36.6738C40.5781 36.8466 40.3922 36.9345 40.2192 36.8505C40.075 36.7805 40.1159 36.5509 40.3152 36.3625C40.6426 36.0582 40.424 35.7026 39.7331 35.5097C39.6178 35.4537 39.6735 35.2669 39.9157 35.0638C40.2432 34.7595 40.3009 34.7875 40.565 35.4147C40.7118 35.7711 40.9727 36.0403 41.1444 35.9812ZM41.8775 39.2238C41.4779 41.0612 41.4498 41.1188 41.1709 40.4488C41.0388 40.1352 41.0503 39.82 41.1503 39.7616C41.2502 39.7033 41.4033 39.1718 41.5128 38.5834C41.6082 38.0239 41.8055 37.6207 41.9497 37.6908C42.0651 37.7468 42.0427 38.4487 41.8775 39.2238ZM43.7834 41.9667C43.5438 42.4562 43.2868 42.6166 42.9407 42.4486C42.5657 42.2665 42.5363 42.1809 42.9092 42.1481C43.1816 42.1022 43.4232 41.8275 43.4346 41.5123C43.489 41.1823 43.6453 41.0088 43.8184 41.0928C43.9915 41.1768 43.9807 41.5636 43.7834 41.9667ZM60.8827 49.8415C60.7699 50.0719 60.5122 50.1606 60.2815 50.0486C59.8777 49.8525 59.932 49.5227 60.3906 49.3886C60.8337 49.212 61.08 49.4384 60.8827 49.8415ZM44.4916 42.4888C44.2641 42.7348 44.1668 43.0795 44.2687 43.2359C44.3848 43.3635 44.3418 43.3783 44.154 43.2515C43.7637 42.955 44.2255 41.6468 44.6581 41.8569C44.8023 41.9269 44.7332 42.214 44.4916 42.4888ZM47.2087 44.4495C47.0818 44.7087 46.6249 44.9858 46.2231 45.0045C45.6495 45.0824 45.4476 44.9844 45.2995 44.4848C45.1815 44.1424 44.9783 43.9012 44.8924 43.9307C44.7636 43.9751 44.7764 43.8031 44.8892 43.5728C45.016 43.3136 45.389 43.2809 45.7928 43.477C46.2542 43.701 46.3709 43.9002 46.1139 44.0606C45.8999 44.2061 46.1012 44.2325 46.5306 44.0846C47.4899 43.802 47.5187 43.816 47.2087 44.4495ZM83.7409 70.4555C83.67 70.5993 83.4554 70.6736 83.2823 70.5896C83.1383 70.5192 83.1511 70.3474 83.3083 70.2454C83.4791 70.1148 83.6796 70.0694 83.7664 70.1115C83.824 70.1396 83.8254 70.2827 83.7409 70.4555ZM81.3316 70.7826C81.1325 70.9711 81.0882 70.8427 81.2434 70.5257C81.3695 70.1951 81.5404 70.0645 81.5705 70.2216C81.6148 70.35 81.5171 70.6231 81.3316 70.7826ZM70.9613 76.5815C69.8001 76.7661 69.467 76.4258 70.5698 76.1421C71.0996 76.0071 71.588 76.0303 71.6182 76.1878C71.6626 76.3162 71.3625 76.4914 70.9613 76.5815ZM60.6863 77.0808C60.7024 77.2667 60.5166 77.355 60.257 77.2288C59.9974 77.1027 59.9525 76.9027 60.1095 76.8008C60.2806 76.6701 60.4811 76.6246 60.5389 76.6527C60.5966 76.6809 60.6844 76.8661 60.6863 77.0808ZM46.8619 72.5069C46.8779 72.6928 46.7498 72.8088 46.6055 72.7385C46.4324 72.6545 46.3587 72.4405 46.4293 72.2968C46.5138 72.1239 46.6278 72.0367 46.6855 72.0648C46.772 72.1066 46.8599 72.2919 46.8619 72.5069ZM71.9732 118.2C71.9892 118.385 71.8611 118.501 71.7169 118.432C71.5437 118.347 71.4702 118.134 71.5406 117.989C71.6251 117.817 71.7391 117.729 71.7968 117.757C71.8833 117.799 71.9712 117.984 71.9732 118.2ZM70.0908 118.034C69.964 118.293 68.9008 118.204 68.7975 117.905C68.7533 117.776 68.8681 117.761 69.07 117.859C69.2718 117.957 69.4148 117.884 69.3846 117.727C69.3686 117.541 69.5402 117.481 69.771 117.593C70.0017 117.705 70.1473 117.919 70.0908 118.034ZM65.306 117.599C65.1509 117.916 64.5467 117.765 64.5004 117.422C64.4844 117.236 64.6702 117.148 64.9009 117.26C65.1604 117.386 65.3343 117.542 65.306 117.599ZM55.8341 114.854C55.7053 114.898 55.4316 114.801 55.2719 114.616C55.0834 114.418 55.2122 114.373 55.5295 114.528C55.8609 114.653 55.9917 114.823 55.8341 114.854ZM44.9304 112.553C44.8599 112.697 44.7318 112.813 44.6741 112.785C44.5876 112.743 44.5139 112.529 44.4979 112.343C44.4958 112.128 44.6098 112.041 44.7541 112.111C44.9272 112.195 45.0151 112.38 44.9304 112.553ZM52.5735 116.264C52.4165 116.366 52.1442 116.412 51.971 116.328C51.8269 116.258 51.782 116.058 51.8524 115.914C51.9371 115.741 52.1953 115.724 52.4549 115.85C52.6856 115.962 52.7446 116.133 52.5735 116.264ZM34.3218 107.972C34.2937 108.03 33.9481 107.933 33.5443 107.737C33.1406 107.541 32.8797 107.272 32.9502 107.128C33.0065 107.013 33.352 107.109 33.7135 107.392C34.0891 107.645 34.35 107.915 34.3218 107.972ZM40.4665 111.099C40.4825 111.284 40.2389 111.344 39.8929 111.176C39.5468 111.008 39.4442 110.78 39.6013 110.678C39.7724 110.548 40.0306 110.53 40.1747 110.6C40.319 110.671 40.4645 110.884 40.4665 111.099ZM41.9253 112.056C41.7702 112.373 41.6555 112.389 41.6817 112.116C41.7086 111.915 41.563 111.702 41.3624 111.747C41.176 111.764 41.1029 111.621 41.1734 111.477C41.2579 111.304 41.5304 111.259 41.7611 111.371C41.9917 111.482 42.0808 111.811 41.9253 112.056ZM44.9923 114.615C44.9218 114.758 44.5623 114.691 44.1585 114.495C43.7547 114.299 43.4797 114.058 43.5502 113.914C43.6066 113.799 43.9661 113.867 44.3699 114.063C44.7737 114.259 45.0487 114.499 44.9923 114.615Z" fill="#FAC515"/>
</g>
<defs>
<clipPath id="clip0_12088_12924">
<rect width="100" height="107" fill="white" transform="translate(0 93.2092) rotate(-67.9859)"/>
</clipPath>
</defs>
</svg>
