<svg width="137" height="66" viewBox="0 0 137 66" fill="none" xmlns="http://www.w3.org/2000/svg">
<g clip-path="url(#clip0_12108_706)">
<path fill-rule="evenodd" clip-rule="evenodd" d="M4.69932 0.156567C4.69932 0.335012 3.98549 0.468835 3.09327 0.424224C2.0672 0.379612 1.21962 0.602669 0.728897 1.09339C-0.16333 1.98562 -0.252563 4.43922 0.550441 5.86679C0.86272 6.40212 0.951932 6.93748 0.818098 7.11593C0.684264 7.24976 0.773487 7.38358 1.04115 7.38358C1.26421 7.38358 1.6211 7.11595 1.71032 6.80367C1.88877 6.49139 1.97798 6.536 1.97798 7.02672C2.02259 7.42823 1.79954 7.82973 1.53187 7.91895C1.21959 8.00817 1.21962 8.45428 1.62112 9.30189C1.9334 9.97106 2.42413 10.4618 2.73641 10.3279C3.04869 10.1941 3.40554 10.4171 3.53938 10.774C3.67321 11.1755 3.58403 11.3094 3.36098 11.1755C2.73642 10.8187 2.78103 11.0863 3.58403 12.5585C3.94092 13.2723 4.2532 13.5846 4.2532 13.2723C4.2532 13.0046 4.6547 12.7369 5.19003 12.7369C5.81459 12.7369 5.99301 12.9154 5.72535 13.2723C5.5469 13.5846 5.32384 14.343 5.27923 14.9675C5.1454 15.949 5.23465 15.9044 5.8146 14.6107C6.17149 13.8523 6.52835 13.1831 6.61757 13.1831C6.92985 13.1831 6.79601 14.7445 6.43912 14.9675C5.63611 15.5028 6.66221 17.7781 8.08977 18.6257C8.93738 19.1164 9.60656 19.6071 9.60656 19.741C9.60656 19.8302 9.42812 19.7855 9.16045 19.6517C8.93739 19.5179 8.71434 19.6517 8.71434 19.964C8.71434 20.3655 9.20506 20.5885 10.0527 20.5439C11.0787 20.5439 11.391 20.3209 11.391 19.6963C11.391 18.4472 11.8817 19.1164 12.1048 20.6778C12.2386 21.4362 12.1048 22.1499 11.8371 22.3284C11.6141 22.4622 11.391 22.373 11.391 22.0607C11.391 21.7038 11.2126 21.7038 10.7218 22.1053C10.1419 22.5961 10.0527 22.5515 10.3203 21.8377C10.4988 21.2131 10.4542 21.1239 10.1419 21.6146C9.78499 22.1053 9.69577 22.1053 9.47271 21.6146C9.33887 21.2131 9.20505 21.1685 9.20505 21.5254C9.16044 21.7931 9.60653 22.373 10.1865 22.7745C10.7218 23.1314 11.1233 23.6221 11.0341 23.756C10.9449 23.9344 11.0787 24.1575 11.3464 24.2467C11.614 24.3359 11.9709 23.979 12.194 23.4883C12.5955 22.3284 13.3985 22.8637 13.8 24.5589C14.023 25.6296 13.9785 25.7189 13.6216 25.0943C13.0862 24.2467 11.6587 24.0236 11.9263 24.8713C12.0602 25.1835 12.5955 25.7189 13.2201 25.9865C13.8 26.2988 14.0231 26.5665 13.7108 26.5665C13.2647 26.5665 13.3093 26.7449 13.8446 27.2802C14.6476 28.1278 14.9599 27.9494 15.0937 26.6111C15.1383 25.9865 15.4507 25.6742 16.0752 25.6742C16.789 25.6742 16.8336 25.7635 16.2983 26.1203C15.7629 26.4772 15.7183 26.5665 16.2536 26.5665C16.6997 26.5665 16.6105 26.8788 15.8968 27.5925C15.0045 28.6186 14.9599 28.7078 15.7183 29.2877C16.209 29.6892 16.3429 29.7339 16.1198 29.377C15.6737 28.6186 18.0827 28.7971 18.8857 29.5555C19.198 29.8677 19.8672 30.1354 20.3579 30.1354C20.804 30.1354 21.2055 30.3138 21.2055 30.5815C21.2055 30.8491 20.804 30.8491 20.0456 30.5815C18.4842 29.9569 18.4396 30.0016 18.618 31.3399C18.7073 32.0983 19.0196 32.589 19.4211 32.589C19.778 32.589 20.1348 33.0351 20.224 33.6151C20.3579 34.3289 20.5809 34.5965 21.0271 34.418C21.3839 34.2842 21.607 34.3289 21.4732 34.5073C21.3393 34.7304 21.6516 35.2211 22.1423 35.6672C23.0346 36.4256 23.0792 36.4256 22.7669 35.5333C22.3654 34.2396 23.0345 34.3735 24.0606 35.801C24.5513 36.4256 24.6406 36.8271 24.3283 36.604C23.9268 36.381 23.8375 36.4256 24.0606 36.7379C24.239 37.0501 24.7298 37.2732 25.1313 37.2732C25.8004 37.2732 25.8005 37.3624 25.2205 37.7639C24.7298 38.1208 24.819 38.1654 25.6666 37.8978C26.2912 37.7193 27.3619 37.5855 28.1203 37.6301C28.8341 37.6301 29.5924 37.4071 29.7709 37.1394C30.0385 36.7379 30.1278 36.7379 30.1278 37.1394C30.1278 37.4071 29.8155 37.9424 29.4586 38.2993C28.9679 38.8346 28.9232 39.0576 29.3694 39.2361C29.637 39.3699 29.5032 39.4145 29.0125 39.2807C28.5218 39.1915 27.8526 39.2361 27.4957 39.4592C27.005 39.7714 27.0942 39.9499 27.8526 40.3514C28.3433 40.6637 28.7894 40.7529 28.7894 40.5744C28.7894 40.396 29.1463 40.7083 29.637 41.199C30.0831 41.7343 30.5739 42.0466 30.7523 41.8682C30.8861 41.7343 31.02 41.8682 31.02 42.1804C31.02 42.5819 31.3323 42.4481 31.9568 41.8236C32.8937 40.7975 33.8305 40.8867 33.6074 41.9574C33.5182 42.3143 33.6075 42.5374 33.7413 42.4927C33.8751 42.4481 34.3212 42.7604 34.7673 43.1619C35.1688 43.5634 35.7934 43.8311 36.1057 43.6972C36.4625 43.5634 36.864 43.6526 36.9979 43.8757C37.1317 44.0987 36.9087 44.2772 36.4626 44.2325C36.0611 44.2325 35.7488 44.411 35.7934 44.7233C35.8826 45.0802 35.6149 45.1694 35.1688 44.991C34.6781 44.7679 34.5443 44.8571 34.7673 45.2586C34.9904 45.5709 35.5257 45.7048 36.0165 45.6155C36.5518 45.4817 36.8195 45.5709 36.6856 45.8832C36.5072 46.5078 38.6931 48.426 39.6746 48.426C40.0761 48.426 40.3884 48.6491 40.3884 48.9167C40.3884 49.1398 40.6114 49.229 40.8345 49.0952C41.1022 48.9614 41.2806 49.006 41.2806 49.2736C41.2806 49.4967 41.7267 49.8536 42.3066 50.032C42.842 50.2105 43.3773 50.4335 43.5112 50.612C43.9573 51.1473 47.1247 52.441 47.9723 52.441C48.4184 52.441 49.0876 52.7087 49.3999 53.021C50.1582 53.7348 52.478 54.7608 52.7457 54.4932C52.8795 54.4039 53.3703 54.7163 53.861 55.207L54.7978 56.1438L55.6008 55.0731C56.1808 54.3147 56.2254 53.9132 55.8685 53.6902C55.5116 53.4671 55.6008 53.3333 56.1362 53.3333C56.5377 53.3333 56.8946 53.5117 56.8946 53.7794C56.8946 54.0024 57.1176 54.2255 57.3853 54.2255C57.6084 54.2255 57.6976 54.0024 57.5638 53.7794C57.4299 53.5117 57.5191 53.3333 57.7422 53.3333C58.0098 53.3333 58.2329 53.5117 58.2329 53.7794C58.2329 54.0024 58.5452 54.2255 58.9467 54.2255C59.5713 54.2255 59.5712 54.3147 59.0805 54.9393C58.6344 55.5192 58.456 55.5192 58.2329 55.0285C57.8314 54.0471 56.3146 54.3594 56.1808 55.4746C56.0469 56.0992 56.2254 56.4561 56.6269 56.4561C56.9838 56.4561 57.3407 56.6345 57.4299 56.813C57.5191 57.036 58.0991 57.3483 58.8128 57.5267C60.0173 57.7944 60.285 57.4375 60.062 55.6531C59.9728 55.207 60.1512 55.1623 60.865 55.5192C61.9802 56.1438 62.3818 56.1438 62.0249 55.5638C61.8911 55.2962 61.9356 55.1177 62.1587 55.1177C62.4264 55.1177 62.7386 55.43 62.8725 55.8315C63.0063 56.1884 63.3632 56.3669 63.6309 56.1884C63.9878 55.9653 64.0324 56.0546 63.8093 56.5007C63.5863 56.8576 63.8093 56.7684 64.3447 56.3223C64.9395 55.8167 65.2072 56.0546 65.1477 57.036C65.0585 57.8836 65.1477 58.7312 65.2815 58.9543C65.7276 59.5342 66.8429 59.7127 66.486 59.1327C66.3522 58.9097 66.5306 58.6866 66.8875 58.6866C67.289 58.6866 67.4674 58.4189 67.3336 58.0621C67.1998 57.7052 67.3336 57.3037 67.6459 57.0806C68.0474 56.8576 68.092 56.9914 67.9136 57.4821C67.7351 57.9283 67.8689 58.2405 68.1366 58.2405C68.4489 58.2405 68.2704 58.5528 67.7797 58.9543C67.2444 59.4004 67.3782 59.564 68.1812 59.445C69.2965 59.2666 69.9211 60.0696 69.0734 60.6049C68.8504 60.6942 68.9396 60.6941 69.2519 60.6495C69.5196 60.5603 69.8764 60.6495 69.9657 60.828C70.0549 61.0064 70.0549 60.8726 69.9657 60.5603C69.9211 60.2034 69.8319 59.5343 69.8319 59.0881C69.8319 58.5082 69.6534 58.2851 69.2965 58.5082C68.9842 58.6866 68.9396 58.642 69.118 58.3298C69.2965 58.0175 69.2073 57.7944 68.9396 57.7944C68.672 57.7944 68.5828 57.5713 68.7166 57.3483C68.895 57.0806 69.2519 57.1698 69.6534 57.5713C70.0549 57.9282 70.5456 58.1513 70.7687 58.0175C70.9918 57.839 71.1702 57.9282 71.1702 58.1959C71.1702 58.419 70.9025 58.7313 70.6348 58.8205C70.1887 58.9989 70.1887 59.0881 70.6348 59.0881C70.9025 59.1328 71.1702 59.3558 71.1702 59.6235C71.1702 59.8465 70.9471 59.9358 70.6348 59.7573C70.3226 59.5343 70.2779 59.6235 70.4564 59.9804C70.6794 60.2926 71.081 60.4265 71.4379 60.2926C71.8394 60.1588 72.0624 60.3819 72.0624 60.9172C72.0624 61.4079 72.2855 61.8094 72.5532 61.8094C72.8208 61.8094 72.9546 61.5418 72.8208 61.2295C72.687 60.8726 72.7762 60.3373 73.0439 59.9804C73.4008 59.4896 73.4454 59.5343 73.2223 60.1142C73.0439 60.6942 73.2223 60.9172 73.7576 60.9172C74.3376 60.9172 74.3822 61.0064 73.9361 61.3187C73.4454 61.631 73.4454 61.7202 73.9807 61.9433C74.4714 62.1217 74.7837 61.8094 74.9622 60.8726C75.1852 59.9804 75.4975 59.5789 75.9882 59.6681C76.4343 59.7127 77.2373 59.4896 77.8173 59.1773C78.4418 58.8204 78.7541 58.7759 78.5757 59.0881C78.3972 59.3558 78.4418 59.5789 78.7095 59.5789C78.9772 59.5789 79.0218 59.9358 78.8879 60.3373C78.6649 60.8726 78.7987 61.0064 79.2895 60.828C79.6463 60.6495 80.2263 60.7388 80.5832 61.0064C81.0739 61.3633 81.0293 61.4079 80.4493 61.1848C80.0032 61.051 79.6464 61.1403 79.6464 61.3633C79.6464 62.1663 78.888 61.8095 78.3972 60.7834C78.0403 60.025 77.9065 59.9804 77.9065 60.5603C77.8619 61.0064 77.6388 61.3633 77.3711 61.3633C77.1481 61.3633 77.0589 61.1403 77.1927 60.9172C77.3266 60.6495 77.2373 60.4711 77.0143 60.4711C76.7466 60.4711 76.5236 60.7833 76.5236 61.1848C76.5236 61.5417 76.3005 61.7202 76.0775 61.5864C75.8098 61.4079 75.7652 61.0511 75.899 60.7834C76.1221 60.3819 76.0775 60.3818 75.6759 60.7387C74.7391 61.5864 75.6313 62.7909 77.0143 62.6124C77.6835 62.4786 78.1741 62.5678 78.0403 62.7909C77.9065 62.9693 77.9957 63.1478 78.2634 63.1478C78.4864 63.1478 78.8434 62.9247 78.9772 62.7016C79.111 62.434 79.5571 62.2555 79.914 62.2555C80.2709 62.2555 80.4494 62.4786 80.3155 62.7016C80.1371 62.9693 79.7802 63.0139 79.5125 62.8801C79.111 62.657 79.111 62.7017 79.4679 63.1032C79.7356 63.4154 81.4308 63.8169 83.2599 63.9954C85.8919 64.3077 86.6949 64.2185 87.3195 63.7277C87.8548 63.237 88.1225 63.237 88.3902 63.6385C88.5686 63.9954 88.524 64.0846 88.2117 63.8615C87.8994 63.6831 87.6764 63.7723 87.6764 63.9954C87.6764 64.2631 87.8102 64.4861 88.0333 64.5307C90.0854 64.7538 91.2899 64.62 91.4237 64.1738C91.6468 63.6385 93.4759 63.9062 93.4759 64.4415C93.4759 65.0214 95.3941 64.8876 96.0187 64.2184C96.8663 63.3708 97.3571 63.7723 96.5987 64.7092C96.1526 65.2445 96.1525 65.3783 96.7325 65.3783C97.134 65.3783 97.5801 65.1553 97.714 64.9322C97.8924 64.6645 98.2493 64.62 98.5169 64.7984C98.8738 64.9769 98.8292 64.843 98.4723 64.3969C98.1154 63.9062 98.0708 63.5939 98.3385 63.4154C98.6508 63.1924 98.6508 62.7463 98.3831 62.0325C98.1601 61.4079 98.0708 60.9172 98.2047 60.9172C98.7846 60.9172 100.168 61.8986 100.168 62.3001C100.168 62.5678 99.9891 62.657 99.7661 62.5232C99.543 62.3894 99.2307 62.5678 99.0969 62.9693C98.8738 63.5046 99.0523 63.5939 99.8553 63.3262C100.48 63.1478 100.554 63.3411 100.078 63.9062C99.0969 64.9769 99.0523 65.423 99.9445 65.1107C100.301 64.9322 100.524 64.6645 100.391 64.4861C100.123 64.04 102.666 63.5493 103.603 63.9062C104.272 64.1739 104.272 64.2184 103.469 64.5307C102.889 64.7538 103.29 64.843 104.584 64.843C106.101 64.7984 106.369 64.6645 105.878 64.3076C105.432 63.9954 105.342 63.5047 105.521 62.9247C105.699 62.434 105.744 61.8094 105.61 61.5864C105.476 61.3187 105.521 61.2741 105.744 61.4526C105.922 61.631 106.369 61.4526 106.681 61.0064C107.216 60.3373 107.261 60.3373 107.082 61.3187C106.949 61.9433 106.636 62.5678 106.369 62.7462C106.012 62.9693 106.101 63.1924 106.681 63.5047C108.153 64.2631 111.588 64.3523 111.097 63.5939C110.919 63.3262 111.142 63.2816 111.543 63.4601C111.99 63.5939 112.48 63.46 112.703 63.1032C112.971 62.657 113.105 62.6571 113.105 63.014C113.105 63.4155 113.64 63.5493 114.666 63.4601C116.228 63.3708 116.897 62.7016 115.469 62.7016C114.755 62.657 114.755 62.6124 115.514 62.2109C116.183 61.8094 116.228 61.631 115.737 61.3187C115.291 61.051 115.38 60.9172 116.094 60.9172C116.629 60.9172 117.298 60.5603 117.521 60.1142C117.789 59.7127 118.012 59.5789 118.012 59.8912C118.012 60.1588 117.789 60.5603 117.521 60.7387C117.254 60.8726 117.12 61.4079 117.254 61.854C117.388 62.3001 117.254 62.7463 116.941 62.8801C116.674 62.9693 116.986 63.1032 117.655 63.1032C118.324 63.1478 119.127 62.8355 119.529 62.4786C119.975 62.0325 120.287 61.9432 120.466 62.3001C120.689 62.6124 121.09 62.434 121.626 61.854C122.518 60.8726 122.741 60.248 122.027 60.6941C121.804 60.828 121.581 60.7387 121.581 60.5157C121.581 60.248 121.759 60.025 121.982 60.025C122.206 60.025 122.473 59.6235 122.607 59.1327C122.741 58.642 123.187 58.2405 123.589 58.2405C124.035 58.2405 124.168 58.4636 123.99 58.7759C123.767 59.1328 123.901 59.1774 124.436 58.9989C124.882 58.8205 125.105 58.8651 124.927 59.1327C124.793 59.4004 124.258 59.5789 123.767 59.5789C122.741 59.5789 122.607 60.6941 123.633 61.0956C124.659 61.4972 124.838 61.4525 124.57 60.7387C124.392 60.248 124.525 60.1588 125.016 60.3373C125.507 60.5157 125.641 60.4265 125.418 60.1142C125.239 59.8019 125.328 59.5789 125.551 59.5789C125.819 59.5789 126.042 59.9803 126.042 60.5157C126.042 61.0064 125.864 61.2741 125.596 61.1403C125.373 61.0064 125.15 61.0956 125.15 61.3187C125.15 62.1217 125.998 61.854 126.488 60.9172C126.89 60.1588 127.336 60.025 129.165 60.1588C131.262 60.3373 131.306 60.2927 131.529 58.9989C131.708 57.7944 131.663 57.7498 131.128 58.4636C130.771 58.9097 130.369 59.1774 130.236 58.9989C130.057 58.8205 130.146 58.419 130.414 58.1067C130.726 57.7498 130.816 57.3929 130.726 57.2591C130.593 57.1253 131.039 56.9022 131.752 56.7684C132.466 56.6345 133.358 56.233 133.671 55.9207C134.028 55.6085 134.92 55.1177 135.634 54.8947C137.775 54.1363 137.284 51.9949 134.964 51.9949C134.34 51.9949 133.626 51.8611 133.448 51.6381C133.269 51.4596 132.555 51.3258 131.842 51.3258C131.172 51.3258 130.682 51.4596 130.816 51.6381C130.905 51.8611 130.682 51.9949 130.28 51.9949C129.879 51.9949 129.656 51.8165 129.789 51.6381C129.923 51.415 129.745 51.2366 129.388 51.2366C129.031 51.2366 128.719 51.4596 128.719 51.7273C128.719 51.9949 128.496 51.9503 128.183 51.6381C127.514 50.9689 126.756 50.9243 127.157 51.5488C127.291 51.7719 127.247 51.9949 126.979 51.9949C126.756 51.9949 126.399 51.7719 126.265 51.5488C126.087 51.2365 125.774 51.1919 125.462 51.4596C125.15 51.7273 124.035 51.8165 122.964 51.7273C121.804 51.5934 120.733 51.7719 120.332 52.0842C119.752 52.5303 119.707 52.5303 119.975 52.0842C120.153 51.7719 120.064 51.5488 119.618 51.5488C119.261 51.5488 118.815 51.7719 118.681 51.9949C118.503 52.2626 118.191 52.3518 117.967 52.218C117.744 52.0395 117.388 52.0841 117.12 52.218C116.897 52.3518 115.291 52.5303 113.551 52.6195C111.767 52.7087 110.116 53.021 109.67 53.3779C109.179 53.7794 109.045 53.824 109.268 53.4225C109.447 53.1549 109.358 52.8872 109.134 52.8872C108.867 52.8872 108.644 53.0656 108.644 53.3333C108.644 53.5563 108.331 53.601 107.885 53.4671C107.395 53.2887 107.261 53.3333 107.484 53.6902C107.662 54.0025 107.573 54.2255 107.305 54.2255C107.038 54.2255 106.725 53.9579 106.592 53.6456C106.324 52.9318 101.863 53.1549 101.595 53.8686C101.506 54.0917 101.194 54.047 100.881 53.824C100.212 53.244 92.8513 52.3964 90.8884 52.6641C90.0408 52.7533 89.5501 52.6641 89.6839 52.441C89.8624 52.1734 89.6839 51.9949 89.3716 51.9949C87.1857 51.9057 83.4829 51.3704 81.2078 50.7904C79.7356 50.4336 77.6389 49.9428 76.5236 49.7198C75.4083 49.4521 74.1146 49.0952 73.6238 48.8721C73.1331 48.6491 71.7055 48.3368 70.4118 48.203C69.0734 48.0245 68.0028 47.6676 67.869 47.2661C67.7351 46.9092 67.2444 46.6416 66.7983 46.6416C66.3522 46.6416 65.7722 46.4185 65.5491 46.1955C65.2815 45.9278 64.5677 45.6601 63.9877 45.5709C63.4078 45.5263 62.0249 45.0356 60.9096 44.5003C59.7943 43.9649 58.456 43.5188 57.876 43.5188C57.2961 43.5188 56.9392 43.3403 57.073 43.1173C57.4299 42.5819 53.7718 40.8867 52.0319 40.7529C51.3182 40.7083 50.7382 40.4406 50.7828 40.1729C50.8274 39.9499 50.2921 39.7715 49.6229 39.8161C48.7307 39.8607 48.4184 39.7268 48.5522 39.3253C48.7307 38.9238 48.1953 38.5669 47.0354 38.21C45.9648 37.8977 45.3848 37.4963 45.5633 37.184C45.7417 36.8717 45.6971 36.8271 45.3848 37.0055C44.6711 37.4516 41.4144 35.6672 40.5668 34.3734C40.1207 33.7043 39.4069 33.2582 38.7377 33.2582C38.024 33.2582 37.7563 33.0797 37.9794 32.7228C38.1578 32.4106 38.1132 32.3659 37.8009 32.5444C37.1317 32.9459 35.3473 31.7414 35.838 31.2507C36.0164 31.0276 35.9272 31.0276 35.6595 31.1615C35.3919 31.2953 34.7673 31.0276 34.232 30.5815C33.6967 30.0908 33.1614 29.6893 33.0275 29.6893C32.8937 29.6893 32.403 29.3324 31.9122 28.8863C31.4215 28.4848 30.6631 27.8156 30.217 27.4141C29.7709 27.0126 29.0571 26.7449 28.6556 26.8341C28.2095 26.8787 27.9864 26.7449 28.1203 26.5665C28.2541 26.3434 27.6295 25.6742 26.6927 25.0051C25.7558 24.3805 25.0421 23.7114 25.0867 23.5329C25.1313 23.3545 24.5513 22.8637 23.7483 22.4622C22.9453 22.0607 22.4992 21.7038 22.7223 21.6592C23.3468 21.6592 21.9639 20.2317 20.8486 19.8302C20.2687 19.6071 19.9564 19.2056 20.0902 18.9825C20.2241 18.7149 20.0456 18.4026 19.6887 18.2688C19.2872 18.1349 18.9749 17.8226 18.9749 17.5996C18.9749 16.8858 17.3689 15.5474 16.0752 15.2352C14.9153 14.9229 14.9153 14.8783 15.6737 14.2983C16.209 13.9117 16.1942 13.7333 15.6291 13.763C15.0938 13.8076 14.7814 13.6292 14.8707 13.2723C15.0491 12.4247 12.8632 9.92645 12.5955 10.6402C12.4171 11.0417 12.3278 11.0417 12.3278 10.5956C12.2832 10.2834 12.1048 10.1495 11.8371 10.2833C11.6141 10.4172 11.391 10.2387 11.391 9.83721C11.391 9.43571 11.2126 9.25726 10.9449 9.39109C10.7218 9.52493 10.4988 9.43569 10.4988 9.21264C10.4988 8.94497 10.7218 8.72192 10.9449 8.72192C11.2126 8.72192 11.391 8.54348 11.391 8.27581C11.391 8.05275 11.0787 7.96352 10.7218 8.09735C10.3203 8.2758 10.008 7.96352 9.78497 7.20513C9.65113 6.58057 9.33885 6.04524 9.1158 6.04524C8.89274 6.04524 8.71434 5.73296 8.71434 5.37607C8.71434 5.01918 8.53589 4.7069 8.26822 4.7069C8.04517 4.7069 7.82211 4.43922 7.82211 4.08233C7.82211 3.41316 5.4577 2.65479 4.74392 3.1009C4.52086 3.27935 4.16398 3.19012 4.03015 2.92245C3.8517 2.65478 3.89629 2.47632 4.11935 2.52094C5.5023 2.74399 6.39455 2.38714 6.26071 1.67336C6.17149 1.27186 6.08226 0.781115 6.08226 0.647281C6.03765 0.201167 4.69932 -0.244935 4.69932 0.156567ZM2.24569 1.58411C2.37953 1.80716 2.33491 2.03022 2.06724 2.03022C1.84418 2.03022 1.4873 1.80716 1.35347 1.58411C1.21963 1.31644 1.2642 1.13799 1.53187 1.13799C1.75493 1.13799 2.11186 1.31644 2.24569 1.58411ZM1.88878 4.92996C1.88878 5.28685 1.71032 5.46531 1.48727 5.33147C1.26421 5.19764 1.21963 4.88536 1.35347 4.6623C1.75497 4.08235 1.88878 4.17157 1.88878 4.92996ZM4.387 4.92996C4.25317 5.33146 4.03011 5.55451 3.94089 5.42067C3.80706 5.28684 3.8517 5.01917 4.03015 4.7515C4.43165 4.03772 4.69928 4.17157 4.387 4.92996ZM5.9038 6.2237C5.9038 6.75903 5.36849 6.80364 4.2532 6.49136C4.11937 6.44674 4.43165 6.2683 4.92237 6.04524C5.4131 5.82219 5.81459 5.64373 5.8592 5.64373C5.8592 5.59912 5.9038 5.86681 5.9038 6.2237ZM10.0527 10.6848C10.0527 10.8187 9.87423 11.0417 9.60656 11.1755C9.38351 11.3094 9.16045 11.2201 9.16045 10.9971C9.16045 10.7294 9.38351 10.5064 9.60656 10.5064C9.87423 10.5064 10.0527 10.5956 10.0527 10.6848ZM11.391 11.6217C11.391 11.9786 11.3018 12.2908 11.2126 12.2908C11.1233 12.2908 10.9449 11.9786 10.7664 11.6217C10.6326 11.2648 10.7218 10.9525 10.9449 10.9525C11.2126 10.9525 11.391 11.2648 11.391 11.6217ZM5.01157 12.1124C4.87774 12.2462 4.47623 12.2909 4.16395 12.157C3.80706 12.0232 3.94088 11.8893 4.43161 11.8893C4.92233 11.8447 5.19002 11.9785 5.01157 12.1124ZM7.86671 13.0493C8.44666 13.763 8.40203 13.8076 7.73286 13.2277C7.28674 12.9154 6.92988 12.5585 6.92988 12.4693C6.92988 12.1124 7.28676 12.3355 7.86671 13.0493ZM10.4988 12.96C10.4988 13.3615 10.7664 13.4954 11.3018 13.3169C11.8817 13.1385 11.9263 13.1831 11.5694 13.5846C10.9895 14.2091 9.60656 13.763 9.60656 12.9154C9.60656 12.5585 9.82962 12.2908 10.0527 12.2908C10.3203 12.2908 10.4988 12.6031 10.4988 12.96ZM11.0787 14.6553C11.8371 14.4322 11.9709 14.5214 11.5248 14.9675C10.9003 15.6367 9.60655 15.2352 9.65117 14.4322C9.65117 14.0307 9.74039 14.0307 9.87422 14.3429C10.0081 14.6552 10.5434 14.7445 11.0787 14.6553ZM8.62508 16.6182C8.58047 17.555 8.49126 18.0457 8.35743 17.7334C8.2682 17.4658 8.00051 17.1981 7.77746 17.1981C7.50979 17.1981 7.46521 17.4212 7.64365 17.7334C7.8221 18.0457 7.77748 18.0903 7.4652 17.9118C6.92986 17.5996 7.24215 16.3059 7.86671 16.3059C8.08977 16.3059 8.26822 15.9936 8.26822 15.6367C8.26822 15.2798 8.35745 14.9675 8.49128 14.9675C8.5805 14.9675 8.66969 15.7259 8.62508 16.6182ZM9.78497 18.358C9.9188 18.7149 9.87423 18.8933 9.60656 18.7595C9.3389 18.6256 9.16045 18.3134 9.16045 18.0457C9.16045 17.4211 9.47269 17.555 9.78497 18.358ZM16.5213 18.5364C16.3875 18.7595 15.8967 18.9825 15.4952 18.9825C14.8261 18.9825 14.8261 18.8933 15.406 18.5364C16.2983 17.9565 16.8782 17.9565 16.5213 18.5364ZM17.5028 19.741C17.1012 20.0978 15.406 20.2316 15.406 19.9194C15.406 19.6963 15.8968 19.5179 16.5213 19.5179C17.1459 19.5179 17.592 19.6071 17.5028 19.741ZM14.1123 22.2392C13.5324 22.8191 12.9524 22.373 13.3985 21.7038C13.5324 21.4361 13.8892 21.3469 14.1569 21.4808C14.4246 21.6592 14.4246 21.9269 14.1123 22.2392ZM17.3689 22.0607C17.5027 22.2838 17.3243 22.5515 16.9674 22.6853C16.5659 22.8637 16.4321 22.7299 16.6105 22.2838C16.8782 21.57 17.0566 21.5254 17.3689 22.0607ZM16.0752 24.7374C16.209 25.0051 15.9414 25.1389 15.4506 25.0943C14.9599 25.0943 14.6922 24.8713 14.7815 24.6928C15.0937 24.2021 15.7629 24.2467 16.0752 24.7374ZM18.0827 27.0572C18.0827 27.2802 17.9043 27.4587 17.7258 27.4587C17.5028 27.4587 17.3243 27.1464 17.3243 26.7895C17.3243 26.4326 17.5028 26.2542 17.7258 26.388C17.9043 26.5218 18.0827 26.7895 18.0827 27.0572ZM25.4436 26.6557C25.622 26.7895 25.5328 27.0572 25.3097 27.191C25.0867 27.3249 24.6406 27.1464 24.3729 26.8341C23.9268 26.3434 23.9714 26.2096 24.5067 26.2988C24.9082 26.3434 25.3098 26.5219 25.4436 26.6557ZM24.1053 31.0276C24.2391 31.2507 24.1499 31.4737 23.9268 31.4737C23.6591 31.4737 23.4361 31.2507 23.4361 31.0276C23.4361 30.7599 23.5253 30.5815 23.6145 30.5815C23.7483 30.5815 23.9714 30.7599 24.1053 31.0276ZM22.3208 31.563C22.41 31.6522 22.2761 32.009 22.0531 32.3659C21.6962 32.8567 21.5177 32.9013 21.3839 32.4998C21.2501 32.1875 20.8932 32.0536 20.5809 32.1875C20.2687 32.3213 19.7333 32.0537 19.3764 31.6522C18.8411 30.983 18.9303 30.9384 20.4917 31.1615C21.3839 31.2953 22.2316 31.4737 22.3208 31.563ZM23.6145 33.0797C23.8375 33.7043 23.793 33.7489 23.213 33.2582C22.4546 32.6336 22.3654 32.3659 22.9453 32.3659C23.1684 32.3659 23.4806 32.6782 23.6145 33.0797ZM25.6666 34.6411C25.6666 34.8195 25.3544 34.9088 24.9975 34.775C24.6406 34.5965 24.3283 34.3288 24.3283 34.1058C24.3283 33.9273 24.6406 33.8381 24.9975 33.9719C25.3544 34.1504 25.6666 34.418 25.6666 34.6411ZM36.8195 34.775C36.8195 34.9088 36.641 35.1318 36.3734 35.2657C36.1503 35.3995 35.9273 35.3103 35.9273 35.0872C35.9273 34.8195 36.1503 34.5965 36.3734 34.5965C36.641 34.5965 36.8195 34.6857 36.8195 34.775ZM27.7188 36.2918C27.6295 36.6933 27.228 37.1394 26.7819 37.2286C26.202 37.3178 26.0681 37.184 26.2466 36.6486C26.425 36.2471 26.2912 35.9348 25.9789 35.9348C25.622 35.9348 25.6666 35.801 26.0681 35.5333C26.9603 34.9534 27.8526 35.3995 27.7188 36.2918ZM31.4215 38.9238C31.1092 39.3699 30.7969 39.7714 30.7523 39.8607C30.7077 39.9053 30.5739 39.593 30.44 39.0576C30.2616 38.3885 30.44 38.1654 31.1092 38.1654C31.9122 38.1654 31.9568 38.2547 31.4215 38.9238ZM60.9542 45.1694C61.5342 45.8832 61.4895 45.9278 60.8204 45.3478C60.3742 45.0355 60.0174 44.6787 60.0174 44.5895C60.0174 44.2326 60.3743 44.4556 60.9542 45.1694ZM39.0054 46.3739C38.8716 46.5077 38.5147 46.1509 38.2024 45.6155C37.6225 44.6787 37.6671 44.6787 38.4255 45.3925C38.8716 45.8386 39.1392 46.2847 39.0054 46.3739ZM46.4555 47.623C46.634 47.9353 46.634 48.0692 46.4109 47.8907C46.2325 47.7123 45.7417 47.8015 45.3402 48.1138C44.7157 48.6045 44.7156 48.5599 45.251 47.8461C45.9648 46.9539 46.054 46.9093 46.4555 47.623ZM47.8385 49.5859C47.7046 49.7197 47.3031 49.7644 46.9908 49.6306C46.6339 49.4967 46.7678 49.3628 47.2585 49.3628C47.7492 49.3182 48.0169 49.4521 47.8385 49.5859ZM50.2029 50.1659C50.2029 50.3889 49.8906 50.7012 49.4891 50.835C48.8645 51.0581 48.8199 51.0135 49.3107 50.4335C49.9352 49.6751 50.2029 49.5859 50.2029 50.1659ZM48.6415 51.5488C48.7753 51.7719 48.6861 51.9949 48.463 51.9949C48.1954 51.9949 47.9723 51.7719 47.9723 51.5488C47.9723 51.2811 48.0615 51.1027 48.1507 51.1027C48.2846 51.1027 48.5077 51.2811 48.6415 51.5488ZM52.0319 52.798C51.7197 52.8872 51.2289 52.7534 51.0059 52.5303C50.649 52.1734 50.8274 52.1288 51.5858 52.3072C52.1658 52.4857 52.3888 52.6641 52.0319 52.798ZM53.9948 53.3333C54.1287 53.5563 54.0394 53.7794 53.8164 53.7794C53.5487 53.7794 53.3257 53.5563 53.3257 53.3333C53.3257 53.0656 53.4149 52.8872 53.5041 52.8872C53.6379 52.8872 53.861 53.0656 53.9948 53.3333ZM63.8093 54.627C63.9432 54.8501 63.8093 55.2069 63.5416 55.3854C63.2294 55.5638 63.1401 55.5193 63.3186 55.207C63.4524 54.9839 63.3186 54.627 63.0509 54.5378C62.6494 54.3594 62.6048 54.2701 63.0063 54.2701C63.274 54.2255 63.6309 54.4039 63.8093 54.627ZM59.5713 56.7237C59.5713 56.8129 59.259 56.9022 58.9021 56.9022C58.5452 56.9022 58.2329 56.7237 58.2329 56.4561C58.2329 56.233 58.5452 56.1438 58.9021 56.2776C59.259 56.4561 59.5713 56.6345 59.5713 56.7237ZM126.934 58.419C126.934 58.5082 126.622 58.7312 126.221 58.8651C125.864 58.9989 125.685 58.9543 125.819 58.6866C126.087 58.2405 126.934 58.0621 126.934 58.419ZM129.656 59.445C130.236 60.1588 130.191 60.2034 129.522 59.6235C129.076 59.3112 128.719 58.9543 128.719 58.8651C128.719 58.5082 129.076 58.7313 129.656 59.445ZM112.079 59.8465C111.945 59.9803 111.543 60.025 111.231 59.8912C110.874 59.7573 111.008 59.6235 111.499 59.6235C111.99 59.5788 112.257 59.7127 112.079 59.8465ZM114.666 60.828C114.577 60.9172 114.086 60.8726 113.506 60.6941C112.793 60.4711 112.703 60.2926 113.105 60.025C113.596 59.7127 115.023 60.4711 114.666 60.828ZM116.451 60.025C116.585 60.248 116.54 60.4711 116.272 60.4711C116.049 60.4711 115.692 60.248 115.558 60.025C115.425 59.7573 115.469 59.5789 115.737 59.5789C115.96 59.5789 116.317 59.7573 116.451 60.025ZM119.35 60.1142C119.35 59.8466 119.663 59.5789 120.064 59.5789C120.689 59.5789 120.689 59.6235 120.064 60.2926C119.306 61.0064 118.458 60.7834 118.458 59.8912C118.458 59.5789 118.637 59.6235 118.904 60.025C119.172 60.4711 119.35 60.5157 119.35 60.1142ZM82.9476 61.1848C83.0814 61.4971 83.0368 61.7648 82.8584 61.7648C82.0554 61.631 81.6985 61.854 82.2338 62.2109C82.6799 62.4786 82.6799 62.657 82.1446 63.1032C81.6539 63.5047 81.4308 63.5047 81.1631 63.1032C80.9847 62.7909 81.0293 62.7017 81.3416 62.8801C81.6538 63.0585 81.7431 62.657 81.5646 61.5864C81.3416 60.2926 81.4308 60.0696 82.0107 60.2926C82.3676 60.4265 82.8137 60.828 82.9476 61.1848ZM93.0298 61.854C93.0298 62.7016 93.119 62.7463 93.7881 62.2109C94.4573 61.631 94.4573 61.6756 93.922 62.5232C93.5354 63.1478 93.0595 63.1775 92.4944 62.6124C92.0483 62.1663 91.7807 61.5864 91.9145 61.3633C92.4052 60.6049 93.0298 60.8726 93.0298 61.854ZM96.5987 61.3633C96.5987 61.5864 96.2864 61.6756 95.9295 61.5418C95.5726 61.3633 95.2603 61.1849 95.2603 61.0956C95.2603 61.0064 95.5726 60.9172 95.9295 60.9172C96.2864 60.9172 96.5987 61.0956 96.5987 61.3633ZM110.428 61.3633C110.428 61.5864 110.205 61.8094 109.937 61.8094C109.714 61.8094 109.625 61.5864 109.759 61.3633C109.893 61.0956 110.116 60.9172 110.25 60.9172C110.339 60.9172 110.428 61.0956 110.428 61.3633ZM112.57 61.5864C112.48 61.854 112.168 61.9433 111.811 61.8987C111.499 61.8095 111.365 61.9433 111.543 62.2109C111.677 62.5232 111.454 62.7016 110.919 62.7016C110.384 62.7016 109.982 62.9247 109.982 63.237C109.982 63.5047 109.848 63.5939 109.67 63.4154C109.491 63.237 109.937 62.6124 110.651 62.0325C111.99 60.9618 112.882 60.7387 112.57 61.5864ZM119.172 61.4079C119.529 62.0325 118.681 62.8801 118.057 62.5232C117.566 62.2109 117.878 60.9172 118.458 60.9172C118.681 60.9172 118.994 61.1402 119.172 61.4079ZM87.0072 62.6124C86.8734 62.7463 86.5165 62.6124 86.2042 62.3001C85.8027 61.854 85.8473 61.8094 86.4719 62.0771C86.918 62.2109 87.1411 62.4786 87.0072 62.6124ZM88.5686 62.2555C88.5686 62.4786 88.4794 62.7016 88.3902 62.7016C88.2563 62.7016 88.0333 62.4786 87.8995 62.2555C87.7656 61.9879 87.8548 61.8094 88.0779 61.8094C88.3455 61.8094 88.5686 61.9879 88.5686 62.2555ZM103.781 62.1217C103.29 62.3448 103.29 62.434 103.781 62.7909C104.316 63.1478 104.316 63.1924 103.781 63.0586C102.8 62.7909 102.666 61.8094 103.603 61.854C104.138 61.854 104.227 61.9433 103.781 62.1217ZM89.6839 62.7016C89.2824 63.3262 90.0854 63.237 90.7545 62.5678C91.2007 62.1217 91.2453 62.1663 91.0223 62.7909C90.6208 63.7724 89.5947 64.1292 89.327 63.3708C89.1932 63.0585 89.1932 62.657 89.327 62.5232C89.7731 62.0771 89.9962 62.2109 89.6839 62.7016ZM108.867 63.1478C109.001 63.3708 108.911 63.5939 108.688 63.5939C108.421 63.5939 108.198 63.3708 108.198 63.1478C108.198 62.8801 108.287 62.7016 108.376 62.7016C108.51 62.7016 108.733 62.8801 108.867 63.1478ZM94.8142 63.5939C94.8142 63.8169 94.725 64.04 94.6358 64.04C94.5019 64.04 94.2789 63.8169 94.1451 63.5939C94.0112 63.3262 94.1004 63.1478 94.3235 63.1478C94.5911 63.1478 94.8142 63.3262 94.8142 63.5939Z" fill="#19D7C4"/>
<path fill-rule="evenodd" clip-rule="evenodd" d="M48.6417 1.94113C47.9279 2.29802 46.8572 3.0118 46.3218 3.50253C45.7419 3.99325 45.2958 4.26093 45.2958 4.1271C45.2958 3.94865 44.8943 4.17171 44.4036 4.57321C43.9129 5.01933 43.5114 5.6885 43.5114 6.13461C43.5114 6.62533 43.2883 6.80376 42.8422 6.66992C41.8161 6.26842 41.1469 6.89296 41.7715 7.65135C42.2176 8.18669 42.2176 8.32055 41.6822 8.18672C41.3254 8.0975 40.9239 7.87445 40.79 7.69601C40.3439 7.07145 40.4778 13.3616 40.9239 14.2539C41.2808 14.8784 41.2362 15.0122 40.8347 14.7446C40.3886 14.4769 40.3439 14.6999 40.567 15.6814C40.7454 16.3952 41.1023 17.2428 41.37 17.5105C41.9053 18.1351 42.7976 18.3135 42.4407 17.6889C42.3068 17.5105 42.6637 17.332 43.199 17.3766C43.7344 17.4213 44.3143 17.2874 44.4482 17.0644C44.6266 16.8413 45.1174 17.0197 45.5635 17.4658C46.5449 18.4473 48.8647 18.6258 48.5524 17.7336C48.4186 17.4659 48.6416 17.1982 49.0431 17.1982C49.4446 17.1982 49.7569 16.8859 49.7569 16.4844C49.7569 16.1275 49.9353 15.9045 50.1584 16.0383C50.783 16.4398 53.7274 14.3877 53.772 13.5401C53.772 13.0494 54.0842 12.8709 54.8426 12.9155C55.8687 13.0493 56.4486 12.514 56.7163 11.1757C56.984 9.83732 57.4747 8.72203 57.8316 8.72203C58.0546 8.72203 58.2331 8.32053 58.2331 7.82981C58.2331 7.33908 57.9654 6.93758 57.6085 6.93758C57.207 6.93758 57.0732 6.53611 57.1624 5.6885C57.2516 5.01933 57.2516 4.707 57.1178 4.97467C56.8055 5.59923 55.1103 5.24237 55.1103 4.61781C55.1103 4.35014 55.4226 4.26092 55.7795 4.39476C56.1364 4.5732 56.5379 4.48396 56.6717 4.2609C56.8501 3.99323 56.6271 3.81479 56.2702 3.81479C55.8687 3.81479 55.6902 3.54715 55.8241 3.23487C56.0917 2.47648 53.1474 1.18274 51.3183 1.27196C50.6046 1.31657 49.4001 1.62885 48.6417 1.94113Z" fill="#19D7C4"/>
<path fill-rule="evenodd" clip-rule="evenodd" d="M88.5689 14.5219C88.1674 14.7895 88.1674 14.9234 88.6135 15.1018C88.9704 15.2357 88.6581 15.2802 87.8997 15.191C86.2937 15.0572 82.5909 17.377 82.9478 18.3138C83.0816 18.6707 82.814 19.0722 82.3679 19.206C80.6727 19.7414 79.6466 24.2471 80.5834 27.1469C81.0295 28.6637 82.7248 31.9203 83.4832 32.7679C83.5724 32.8571 84.3307 32.9909 85.1784 33.0356C86.249 33.0802 86.6506 32.9464 86.4721 32.5002C86.3383 32.188 86.4721 31.9203 86.7844 31.9203C87.0967 31.9203 86.9628 31.5634 86.4721 31.1173C86.026 30.7158 85.9368 30.5373 86.3383 30.805C86.6952 31.028 87.2751 31.5188 87.5874 31.8757C87.9889 32.411 88.1228 32.411 88.1228 31.9203C88.1228 31.5634 88.435 31.6972 88.9703 32.3218C89.6841 33.1248 89.8626 33.1694 90.0856 32.5894C90.2194 32.1879 90.1749 32.0095 89.9518 32.1433C89.7288 32.2772 89.4165 32.2326 89.2826 32.0095C89.1934 31.8311 89.5057 31.608 90.041 31.608C90.5763 31.5634 91.2455 31.2065 91.5132 30.805C91.7809 30.4481 92.6731 29.9128 93.4315 29.6451C94.2345 29.3774 94.7698 29.0206 94.636 28.9313C94.2791 28.5744 95.439 27.5484 95.9297 27.8161C96.1974 27.9499 96.242 27.9052 96.0635 27.7268C95.9297 27.5484 96.0636 26.8792 96.4205 26.2101C96.822 25.3624 96.8665 24.8717 96.5097 24.4702C96.1528 24.0241 96.242 23.8902 96.8666 23.8902C97.5357 23.8902 97.5804 23.801 97.0896 23.4887C96.7327 23.2211 96.6881 22.998 96.9558 22.8196C97.4465 22.5519 96.822 19.9198 96.1528 19.4291C96.019 19.2953 95.5728 18.4923 95.1267 17.6C94.7252 16.7524 93.9668 15.8156 93.3869 15.5033C91.6916 14.7003 89.1488 14.165 88.5689 14.5219Z" fill="#19D7C4"/>
<path fill-rule="evenodd" clip-rule="evenodd" d="M43.333 18.4923C43.1545 18.7154 43.4668 18.8046 43.9575 18.6708C44.9836 18.4031 45.1174 18.0908 44.2252 18.0908C43.8683 18.0908 43.4668 18.2693 43.333 18.4923Z" fill="#19D7C4"/>
<path fill-rule="evenodd" clip-rule="evenodd" d="M89.996 33.7491C89.5945 34.3736 89.1484 34.5521 88.6577 34.3737C88.0331 34.1506 87.9885 34.1952 88.4792 34.686C88.9253 35.1321 89.193 35.0429 89.996 34.2398C90.5314 33.7045 90.8882 33.1691 90.7544 33.0799C90.6206 32.9461 90.3083 33.2584 89.996 33.7491Z" fill="#19D7C4"/>
<path fill-rule="evenodd" clip-rule="evenodd" d="M84.5987 33.749C84.5541 34.5966 85.937 35.132 86.7846 34.5966C87.4984 34.1505 86.5616 33.526 85.6693 33.8829C85.3571 33.9721 84.9556 33.8829 84.8217 33.5706C84.7325 33.2583 84.5987 33.3475 84.5987 33.749Z" fill="#19D7C4"/>
<path d="M26.782 39.0573C27.1515 39.0573 27.4511 38.8575 27.4511 38.6112C27.4511 38.3648 27.1515 38.165 26.782 38.165C26.4124 38.165 26.1128 38.3648 26.1128 38.6112C26.1128 38.8575 26.4124 39.0573 26.782 39.0573Z" fill="#19D7C4"/>
<path fill-rule="evenodd" clip-rule="evenodd" d="M32.2244 42.4483C31.689 43.0283 31.8675 43.4744 32.9828 44.2328C33.8304 44.7681 34.2765 44.8127 34.9011 44.4558C35.3918 44.1882 35.481 43.9651 35.1687 43.9205C34.8564 43.8759 34.4104 43.8313 34.1427 43.7867C33.9196 43.7867 33.4735 43.3852 33.1612 42.9391C32.8043 42.493 32.4028 42.2699 32.2244 42.4483Z" fill="#19D7C4"/>
<path fill-rule="evenodd" clip-rule="evenodd" d="M60.6866 56.8134C60.4784 57.3785 60.6419 57.7651 61.1773 57.9733C61.668 58.1517 61.8464 58.0625 61.668 57.6164C61.4895 57.1703 61.668 57.0811 62.3372 57.2595C62.9617 57.3934 63.1848 57.3041 63.0509 56.9026C62.7833 56.0996 60.9988 56.0104 60.6866 56.8134Z" fill="#19D7C4"/>
<path fill-rule="evenodd" clip-rule="evenodd" d="M63.8094 57.7501C63.9432 57.9732 63.854 58.2855 63.5863 58.4639C63.051 58.7762 63.4079 59.5792 64.1216 59.5792C64.3447 59.5792 64.4785 59.3115 64.3447 58.9546C64.2109 58.6424 64.3447 58.107 64.6124 57.8393C64.9692 57.4825 64.88 57.3486 64.3001 57.3486C63.8986 57.3486 63.6309 57.5271 63.8094 57.7501Z" fill="#19D7C4"/>
<path fill-rule="evenodd" clip-rule="evenodd" d="M101.416 64.7989C101.729 64.9328 102.13 64.8881 102.264 64.7543C102.443 64.6204 102.175 64.4866 101.684 64.5312C101.193 64.5312 101.06 64.6651 101.416 64.7989Z" fill="#19D7C4"/>
</g>
<defs>
<clipPath id="clip0_12108_706">
<rect width="137" height="66" fill="white"/>
</clipPath>
</defs>
</svg>
