<svg width="52" height="52" viewBox="0 0 52 52" fill="none" xmlns="http://www.w3.org/2000/svg">
<path d="M0 26C0 11.6406 11.6406 0 26 0C40.3594 0 52 11.6406 52 26C52 40.3594 40.3594 52 26 52C11.6406 52 0 40.3594 0 26Z" fill="#A2FF76"/>
<g clip-path="url(#clip0_12452_20732)">
<path d="M25.9973 33.4816C30.1254 33.4816 33.4789 30.1335 33.4789 26C33.4789 21.8718 30.1307 18.5184 25.9973 18.5184C23.843 18.5184 21.9009 19.431 20.5373 20.8849C19.285 22.222 18.5156 24.0208 18.5156 25.9947C18.5156 30.1335 21.8691 33.4816 25.9973 33.4816ZM23.3866 28.9608C23.4556 28.7167 23.5193 28.4674 23.5989 28.2233C23.6891 27.942 23.7634 27.9049 24.0234 28.0429C24.4691 28.2763 24.936 28.4037 25.4295 28.4674C25.7479 28.5045 26.0609 28.4727 26.3528 28.3453C26.9046 28.1065 26.9895 27.4698 26.5226 27.0825C26.3634 26.9498 26.183 26.8543 25.9973 26.7747C25.5144 26.5625 25.0103 26.4033 24.5593 26.1274C23.8217 25.6869 23.3495 25.0767 23.4079 24.18C23.4715 23.1612 24.0446 22.5298 24.9785 22.1902C25.3605 22.0522 25.3658 22.0576 25.3658 21.6543C25.3658 21.5163 25.3658 21.3837 25.3658 21.2457C25.3711 20.9433 25.4242 20.8902 25.7266 20.8796C25.8222 20.8743 25.9124 20.8796 26.0079 20.8796C26.6499 20.8796 26.6499 20.8796 26.6552 21.5216C26.6552 21.978 26.6552 21.978 27.1115 22.0469C27.4564 22.1 27.7907 22.2008 28.1091 22.3441C28.2842 22.4237 28.3532 22.5457 28.3001 22.7314C28.2205 23.0074 28.1462 23.2886 28.056 23.5645C27.9711 23.8245 27.8915 23.8616 27.6422 23.7396C27.1381 23.4955 26.6128 23.3947 26.0609 23.4265C25.9177 23.4318 25.7744 23.4531 25.6364 23.5114C25.1589 23.7184 25.0793 24.249 25.4879 24.578C25.6948 24.7425 25.9283 24.8645 26.1724 24.9653C26.5968 25.1404 27.0213 25.3102 27.4246 25.5331C28.7087 26.2441 29.0536 27.8518 28.1515 28.9502C27.8226 29.3482 27.3981 29.6135 26.9046 29.7514C26.6871 29.8098 26.5915 29.9265 26.6022 30.1494C26.6128 30.3722 26.6022 30.5898 26.6022 30.8127C26.6022 31.009 26.5013 31.1151 26.305 31.1204C26.0662 31.1257 25.8275 31.1257 25.594 31.1204C25.3871 31.1151 25.2862 30.9984 25.2862 30.7967C25.2862 30.6376 25.2809 30.4731 25.2809 30.3139C25.2756 29.9584 25.265 29.9425 24.9254 29.8894C24.485 29.8204 24.0552 29.7196 23.6573 29.5233C23.3283 29.3694 23.2964 29.2898 23.3866 28.9608Z" fill="#0A1519"/>
<path d="M34.0999 34.1078C29.7807 38.4269 22.8456 38.5702 18.3513 34.5482H19.7946V33.0094H16.7595H16.7223H15.6982V34.0494V34.0706V37.1057H17.237V35.6147C19.7097 37.8698 22.8509 39 25.9921 39C29.3244 39 32.6513 37.7318 35.1876 35.1955L35.7342 34.649L34.6464 33.5612L34.0999 34.1078Z" fill="#0A1519"/>
<path d="M34.7575 14.8943V16.3853C32.2848 14.1302 29.1436 13 26.0024 13C22.6701 13 19.3432 14.2682 16.8068 16.8045L16.2656 17.3457L17.3534 18.4335L17.8999 17.8869C22.2191 13.5678 29.1542 13.4245 33.6485 17.4465H32.2052V18.9853H35.2403H35.2775H36.3015V17.9453V17.9241V14.8943H34.7575Z" fill="#0A1519"/>
</g>
<defs>
<clipPath id="clip0_12452_20732">
<rect width="26" height="26" fill="white" transform="translate(13 13)"/>
</clipPath>
</defs>
</svg>
