<svg width="52" height="52" viewBox="0 0 52 52" fill="none" xmlns="http://www.w3.org/2000/svg">
<path d="M0 26C0 11.6406 11.6406 0 26 0C40.3594 0 52 11.6406 52 26C52 40.3594 40.3594 52 26 52C11.6406 52 0 40.3594 0 26Z" fill="#E3EF56"/>
<g clip-path="url(#clip0_12452_20739)">
<path d="M34.7558 16.3096L34.2587 16.8066L30.2018 20.8635L29.8437 21.2216L28.9565 22.1089L25.5891 25.4762L25.4662 25.5991L25.2631 25.396L22.3661 22.499C21.8744 23.1779 21.575 24.001 21.543 24.8883L23.6542 26.9995L24.5415 27.8868L24.782 28.1273C24.9691 28.3144 25.2203 28.4106 25.4662 28.4106C25.5089 28.4106 25.5464 28.4052 25.5891 28.3999C25.7922 28.3732 25.9953 28.2823 26.1503 28.1273L26.3909 27.8868L30.5653 23.7124L31.4526 22.8251L31.8107 22.467L35.8675 18.4101L36.3592 17.9184L37.6848 19.2333C37.8077 19.3562 37.9307 19.4898 38.1017 19.4898C38.1658 19.4898 38.2407 19.4738 38.3209 19.4257C38.5881 19.2814 38.6416 19.0515 38.6576 18.7896C38.7217 17.3625 38.7912 15.9301 38.8554 14.503C38.8767 14.07 38.695 13.8723 38.2781 13.8723C38.2567 13.8723 38.2353 13.8723 38.2086 13.8723C36.7441 13.9417 35.2796 14.0112 33.815 14.0807C33.5852 14.0914 33.3607 14.1021 33.2378 14.3747C33.1095 14.6473 33.2538 14.8023 33.4088 14.9573C33.8525 15.4116 34.2961 15.8659 34.7558 16.3096Z" fill="#012522"/>
<path d="M13.2846 25.396C12.9051 25.7755 12.9051 26.3849 13.2846 26.7644L13.5251 27.0049C13.7122 27.192 13.9634 27.2882 14.2093 27.2882C14.4552 27.2882 14.7064 27.192 14.8935 27.0049L16.7321 25.1662C16.7321 25.1288 16.7321 25.0967 16.7321 25.0593C16.7321 23.6055 17.0689 22.2318 17.6728 21.0078L13.2846 25.396Z" fill="#012522"/>
<path d="M38.5343 35.4072L33.0396 29.9126L32.7403 30.2119L32.3288 29.8003C33.3069 28.4748 33.8895 26.8392 33.8895 25.0647C33.8895 24.1827 33.7452 23.3329 33.4833 22.5418L31.4949 24.5302C31.511 24.7066 31.5217 24.8829 31.5217 25.0647C31.5217 28.1541 29.0149 30.6555 25.9308 30.6555C22.8414 30.6555 20.34 28.1487 20.34 25.0647C20.34 21.9753 22.8468 19.4738 25.9308 19.4738C27.0479 19.4738 28.0902 19.8052 28.9614 20.3664L30.6665 18.6614C29.3409 17.6832 27.7053 17.1006 25.9308 17.1006C21.5319 17.1006 17.9668 20.6657 17.9668 25.0647C17.9668 29.4636 21.5319 33.0287 25.9308 33.0287C27.7107 33.0287 29.3569 32.4461 30.6825 31.4573L31.0941 31.8688L30.7947 32.1681L36.2894 37.6628C36.9094 38.2828 37.9196 38.2828 38.5396 37.6628C39.1543 37.0374 39.1543 36.0272 38.5343 35.4072Z" fill="#012522"/>
</g>
<defs>
<clipPath id="clip0_12452_20739">
<rect width="26" height="26" fill="white" transform="translate(13 13)"/>
</clipPath>
</defs>
</svg>
