<svg width="106" height="150" viewBox="0 0 106 150" fill="none" xmlns="http://www.w3.org/2000/svg">
<g clip-path="url(#clip0_12324_3394)">
<path fill-rule="evenodd" clip-rule="evenodd" d="M63.2992 0.242782C62.9822 0.389867 62.3482 0.536964 61.9045 0.561479C61.4289 0.610507 60.9852 0.831136 60.8584 1.05176C60.7633 1.2969 60.6048 1.46849 60.5414 1.46849C60.4463 1.46849 60.0659 1.51752 59.7172 1.59106C59.2417 1.68912 59.0832 1.86072 59.1783 2.20392C59.2734 2.44906 59.1783 2.6697 58.9881 2.6697C58.798 2.6697 58.6395 2.8413 58.6395 3.03741C58.6395 3.23352 58.4493 3.40512 58.1957 3.40512C57.5617 3.40512 56.9911 4.72889 57.4666 5.12111C57.7518 5.34174 57.7202 5.39078 57.3715 5.31724C57.1179 5.26821 56.9277 5.39079 56.9911 5.53787C57.0228 5.70947 56.896 5.85654 56.7058 5.85654C56.5155 5.85654 56.4521 6.02814 56.5473 6.24876C56.6424 6.44488 56.6108 6.54294 56.4205 6.46939C56.2303 6.39586 56.1035 6.59197 56.1035 6.93517C56.1035 7.27837 55.945 7.57254 55.7548 7.57254C55.5963 7.57254 55.533 7.69508 55.6281 7.81765C55.7548 7.96477 55.6914 8.20992 55.5329 8.38151C55.3745 8.55311 55.0575 9.33757 54.8672 10.1465C54.677 10.9555 54.4552 11.887 54.3601 12.2302C54.1699 12.8676 53.6944 15.4661 53.4092 17.3782C53.3141 17.9911 53.0921 18.751 52.9653 19.0942C52.8385 19.4374 52.7117 20.3199 52.68 21.0554C52.68 21.7908 52.5215 22.8694 52.363 23.4087C52.2045 23.9725 52.0777 25.9582 52.1094 27.8458C52.1411 30.6649 52.2362 31.3758 52.7117 31.9151C53.314 32.6261 54.3283 32.8467 53.9797 32.1848C53.7261 31.67 54.4868 30.6159 55.0258 30.7875C55.4379 30.9101 55.628 30.5914 55.5013 30.0275C55.4379 29.7333 56.1035 29.145 56.5473 29.145C56.7692 29.145 56.7375 29.2431 56.4839 29.3657C56.1352 29.5373 56.1352 29.5863 56.5473 29.7089C57.1496 29.905 57.3715 29.6353 57.4983 28.5322C57.5616 28.0664 57.7518 27.5271 57.9737 27.3555C58.1639 27.1594 58.2908 26.7426 58.2591 26.4239C58.1956 25.9582 58.2908 25.8601 58.798 25.9092C59.3368 25.9582 59.3368 25.9336 58.9565 25.713C58.5444 25.4924 58.5444 25.4189 59.0198 25.1247C59.4319 24.9041 59.527 24.5854 59.4002 23.9726C59.2734 23.4333 59.4002 22.7468 59.7172 22.1585C60.1927 21.325 60.1927 21.178 59.7489 20.6386C59.3051 20.1483 59.3051 20.0748 59.7489 20.0748C60.3195 20.0748 60.3829 19.4374 59.844 19.2658C59.5904 19.1923 59.6538 19.1187 59.9708 19.1187C60.3512 19.0942 60.4463 18.9717 60.3195 18.6775C60.161 18.3833 60.2561 18.3098 60.6048 18.4078C60.9218 18.5059 61.207 18.3588 61.4606 17.9666C61.6509 17.5989 61.6826 17.4027 61.4923 17.5008C61.3021 17.5743 61.2704 17.4763 61.3655 17.2801C61.4606 17.0595 61.6826 16.9614 61.8411 17.035C61.9996 17.1086 62.1264 16.8144 62.1264 16.3731C62.1264 15.6132 62.0947 15.5886 61.6509 16.0545C61.3021 16.3976 61.3338 16.1525 61.8094 14.9758C62.1264 14.1423 62.2848 13.4559 62.1897 13.4559C62.0947 13.4559 62.1581 13.3334 62.3482 13.1863C62.5384 13.0392 62.6335 12.7451 62.5384 12.5734C62.4433 12.3773 62.5384 12.0586 62.7603 11.8625C62.9822 11.6664 63.0456 11.4948 62.8871 11.4948C62.7286 11.4948 62.8554 11.3723 63.1724 11.2252C63.4577 11.1026 63.7113 10.6858 63.7113 10.3427C63.7113 9.82788 63.6479 9.75432 63.2358 10.0239C62.9505 10.2201 62.7603 10.2446 62.7603 10.073C62.7603 9.92591 62.8871 9.75432 63.0773 9.65621C63.2358 9.58273 63.2992 9.36204 63.2041 9.16598C63.0773 8.9453 63.2992 8.77371 63.8064 8.67568C64.6622 8.50409 64.8524 7.76864 64.2502 7.13129C64.0283 6.93518 64.0917 6.83711 64.4403 6.83711C64.6939 6.83711 65.0744 6.66551 65.2963 6.46939C65.645 6.15071 65.6132 6.1262 65.2646 6.22425C64.9476 6.32231 64.789 6.17523 64.7573 5.85654C64.7256 5.53786 64.8842 5.36626 65.2329 5.36626C65.7083 5.36626 65.7083 5.31723 65.2963 5.12111C64.9159 4.925 64.9159 4.87598 65.4548 4.85146C65.8034 4.85146 65.8985 4.77792 65.7083 4.70439C65.3914 4.63084 65.4231 4.50827 65.7717 4.2141C66.1838 3.89542 66.1838 3.79736 65.7717 3.3316C65.2012 2.71874 65.1378 1.93426 65.6449 1.93426C66.1521 1.93426 65.6766 0.684056 65.0427 0.291829C64.377 -0.0758842 64.0283 -0.100417 63.2992 0.242782ZM62.1264 1.68913C62.1264 1.8117 61.9996 1.93426 61.8411 1.93426C61.6509 1.93426 61.4289 1.8117 61.3338 1.68913C61.2387 1.54204 61.3655 1.44398 61.6192 1.44398C61.9045 1.44398 62.1264 1.54204 62.1264 1.68913Z" fill="#FAC515"/>
<path fill-rule="evenodd" clip-rule="evenodd" d="M87.485 12.9164C85.6782 13.4313 83.0471 14.6324 83.0471 14.9266C83.0471 15.0492 82.8569 15.0982 82.635 15.0247C82.3814 14.9511 81.684 15.3433 81.0501 15.9072C80.4161 16.4465 79.7187 16.8877 79.5285 16.8877C79.3383 16.8877 78.7677 17.2554 78.2605 17.6722C77.6899 18.1625 77.4047 18.3095 77.5315 18.0154C77.9118 17.2064 75.8514 18.5547 75.4076 19.4127C75.1858 19.8049 74.7102 20.3688 74.3616 20.6384C73.9812 20.9081 73.8861 21.0551 74.108 20.9571C74.9638 20.5648 74.4249 21.3003 73.474 21.8151C72.0793 22.5505 71.3184 23.1634 71.5403 23.3595C71.6671 23.433 71.572 23.5066 71.3501 23.5066C71.0966 23.5066 71.0014 23.6536 71.1282 23.8988C71.2233 24.0949 71.1916 24.2175 71.0332 24.1439C70.8747 24.0704 70.6845 24.3155 70.5894 24.7078C70.4943 25.1 70.209 25.5657 69.9554 25.7619C69.7018 25.958 69.4165 26.3502 69.2897 26.6444C68.9094 27.5269 68.8143 29.6351 69.1312 29.7822C69.3214 29.8557 69.3531 30.1254 69.258 30.3705C69.1629 30.6402 69.258 30.9099 69.5433 31.0324C69.7968 31.1305 70.0187 31.3266 70.0187 31.4737C69.987 31.9395 70.6528 31.8414 70.843 31.3511C70.9698 31.057 73.1253 29.2429 75.6295 27.3307C78.1337 25.4187 80.1942 23.7272 80.1942 23.5801C80.1942 23.433 80.4161 23.1879 80.6697 23.0163C80.9233 22.8447 81.05 22.6241 80.9549 22.5015C80.8599 22.3789 80.955 22.2808 81.1768 22.2808C81.5572 22.2808 84.3784 20.6139 84.5686 20.2707C84.632 20.1482 84.8222 20.0746 84.949 20.0746C85.2978 20.0746 86.851 18.8979 86.851 18.6282C86.851 18.5302 87.1997 18.1379 87.6117 17.7948C88.0238 17.4516 88.2774 17.0839 88.1506 16.9858C88.0555 16.8877 88.214 16.8877 88.4994 16.9613C88.8797 17.0594 89.0699 16.9613 89.1333 16.5691C89.1967 16.2504 89.4503 16.0298 89.7673 16.0298C90.0526 16.0298 90.5915 15.7846 90.9401 15.5149C91.2888 15.2207 91.7644 14.9266 91.9863 14.8776C92.3032 14.7795 92.2715 14.657 91.8595 14.3628C91.5741 14.1422 91.1937 13.946 91.0036 13.946C90.8134 13.946 90.6549 13.7745 90.6549 13.5783C90.6549 13.3577 90.4647 13.2842 90.1794 13.3577C89.8624 13.4557 89.7039 13.3577 89.7039 12.99C89.7039 12.3771 89.4186 12.3771 87.485 12.9164Z" fill="#FAC515"/>
<path fill-rule="evenodd" clip-rule="evenodd" d="M27.2562 16.8882C27.2562 17.2069 25.0372 17.9668 24.3399 17.8933C23.6424 17.8198 23.6424 18.0158 24.2765 20.5899C24.6568 22.1587 25.3225 23.5071 27.0342 26.2036C28.2705 28.1648 29.697 30.2975 30.2041 30.9839C30.7114 31.6458 31.1551 32.3567 31.1868 32.5528C31.2819 33.0186 33.3107 34.7836 33.7544 34.7836C33.9764 34.7836 34.3251 34.9552 34.547 35.1513C34.7688 35.3474 35.1175 35.519 35.3394 35.519C35.9417 35.519 36.1953 34.7836 35.7832 34.3668C35.4979 34.1217 35.498 33.9501 35.7198 33.7785C35.9734 33.5824 36.1319 33.6069 36.2587 33.7785C36.3855 33.9256 36.7341 34.0482 37.0194 34.0482C37.495 34.0482 37.495 33.9991 37.0828 33.803C36.6708 33.6069 36.6708 33.5579 37.1146 33.5579C37.3999 33.5579 37.9704 33.3373 38.3825 33.043C39.4603 32.3321 41.3939 31.5722 41.6792 31.7929C41.806 31.8909 41.806 31.6948 41.6792 31.3516C41.5524 31.0084 41.2988 30.6897 41.172 30.6652C40.7917 30.5427 40.7917 29.8808 41.172 29.8808C41.3305 29.8808 40.6966 28.7531 39.7773 27.3558C38.8264 25.934 37.9388 24.8799 37.7169 24.9289C37.4633 24.9779 37.3682 24.8308 37.4633 24.5367C37.5584 24.2425 37.2097 23.6541 36.5756 22.9923C35.9734 22.404 35.1175 21.4724 34.6737 20.933C32.7718 18.7023 27.2562 15.687 27.2562 16.8882Z" fill="#FAC515"/>
<path fill-rule="evenodd" clip-rule="evenodd" d="M47.3859 38.1172C43.3285 38.4359 38.2883 39.1468 38.0347 39.441C37.9396 39.539 37.2422 39.6861 36.4498 39.7597C34.3894 39.9803 32.741 40.397 32.2337 40.7892C31.9802 40.9854 31.6949 41.0834 31.5998 41.0098C31.4096 40.8628 28.6518 41.8679 27.0985 42.6033C26.5914 42.873 25.26 43.4368 24.1822 43.8536C23.1044 44.2948 22.1535 44.8095 22.0584 44.9811C21.9633 45.1773 21.7097 45.3244 21.4561 45.3244C21.2342 45.3244 20.727 45.594 20.3466 45.9372C19.9662 46.2559 19.3005 46.5991 18.8568 46.6972C18.3496 46.7952 18.0643 47.0159 18.0643 47.3345C18.0643 47.6042 17.8107 47.8739 17.4303 47.9474C17.0816 48.021 16.8914 48.168 16.9865 48.2906C17.0816 48.4132 16.9548 48.4377 16.7012 48.3642C16.416 48.2906 15.9721 48.5358 15.5284 48.977C15.148 49.3937 14.7042 49.6879 14.5457 49.6144C14.3871 49.5163 14.2604 49.6634 14.2604 49.9086C14.2604 50.1537 13.6264 50.8891 12.834 51.5265C12.0415 52.1883 11.4075 52.8748 11.4075 53.0708C11.4075 53.267 11.2173 53.4876 10.9637 53.5611C10.5516 53.6837 7.9206 56.4293 7.9206 56.748C7.9206 56.797 7.5719 57.3118 7.12812 57.8511C6.68433 58.3905 6.27223 59.1749 6.24054 59.6161C6.20883 60.0574 5.92354 60.5477 5.63824 60.7193C5.32125 60.8909 5.06768 61.3077 5.06768 61.6263C5.06768 61.945 4.94089 62.2882 4.75069 62.3617C4.5922 62.4353 4.4337 62.7785 4.4337 63.0972C4.4337 63.4158 4.3069 63.7345 4.1484 63.8081C3.98991 63.8817 3.76802 64.3229 3.67291 64.7886C3.54612 65.2789 3.26084 65.9654 3.00724 66.3331C2.75365 66.7008 2.53175 67.2646 2.53175 67.5833C2.53175 67.902 2.37326 68.3677 2.21476 68.6129C2.02457 68.8825 1.83438 69.5689 1.73928 70.1328C1.2955 73.5892 1.20036 74.1531 0.915074 74.3983C0.756578 74.5453 0.724911 74.7169 0.788309 74.7905C0.883405 74.864 0.819976 75.673 0.598083 76.6045C0.407889 77.5364 0.185996 78.7371 0.122597 79.2765C-0.0992963 81.2129 -0.00419893 87.4886 0.281093 88.0773C0.471287 88.3962 0.502994 88.7144 0.407896 88.8129C0.312799 88.8864 0.344522 89.1311 0.471317 89.3765C0.598114 89.6212 0.756602 90.2591 0.82 90.7985C0.851698 91.3379 1.137 92.2689 1.42228 92.8576C1.67588 93.4455 1.89777 94.0583 1.89777 94.2546C1.89777 94.4265 2.40495 95.3576 3.03893 96.3629C4.87748 99.3045 5.44806 100.114 5.76505 100.261C5.92354 100.334 6.05034 100.481 6.05034 100.58C5.98695 100.849 6.93792 102.148 7.31831 102.345C7.5719 102.467 7.60361 102.418 7.44511 102.197C7.28662 101.977 7.31828 101.928 7.57188 102.05C7.76207 102.148 7.88887 102.369 7.85717 102.541C7.76208 102.884 11.4709 106.12 11.9781 106.12C12.1365 106.12 12.3901 106.291 12.4852 106.512C12.5803 106.708 12.8022 106.806 12.9925 106.733C13.151 106.659 13.3095 106.757 13.3095 106.953C13.3095 107.395 14.3872 107.909 14.7359 107.639C14.8944 107.542 14.8944 107.59 14.7993 107.762C14.5457 108.081 16.0038 109.061 16.6695 109.061C16.9231 109.061 17.1133 109.184 17.1133 109.331C17.1133 109.625 18.3813 110.508 18.8568 110.532C19.0469 110.532 19.5225 110.753 19.9663 111.023C20.41 111.292 21.0756 111.513 21.4878 111.513C21.9633 111.513 22.1534 111.611 21.9949 111.807C21.8365 112.003 21.995 112.027 22.4387 111.954C22.946 111.831 23.1362 111.905 23.1679 112.199C23.1679 112.542 23.2313 112.518 23.4531 112.126C23.6433 111.783 23.7384 111.733 23.7384 112.027C23.7701 112.518 25.1332 113.425 26.4963 113.866C27.8593 114.308 27.8276 114.308 27.7325 113.596C27.6374 112.983 27.9861 112.763 28.3348 113.205C28.4616 113.327 28.3348 113.498 28.1446 113.572C27.7642 113.67 27.891 113.792 29.6662 114.92C30.0782 115.19 31.4413 115.558 31.79 115.484C31.9168 115.46 32.0119 115.533 32.0119 115.631C32.0119 115.754 32.2338 115.852 32.4873 115.852C32.8361 115.852 32.8678 115.754 32.6458 115.582C32.1387 115.19 32.2654 115.018 33.058 115.042C33.4383 115.067 33.9455 114.994 34.1674 114.847C34.4527 114.699 34.6746 114.699 34.8014 114.871C34.9282 115.018 35.3402 115.19 35.7523 115.288C36.1328 115.386 36.4498 115.582 36.4498 115.705C36.4498 116.023 36.006 115.974 35.5304 115.607C35.1818 115.361 35.1184 115.411 35.2769 115.852C35.3719 116.17 35.3085 116.416 35.1501 116.416C34.9916 116.416 34.8648 116.538 34.8648 116.685C34.8648 116.808 35.0233 116.857 35.1818 116.783C35.372 116.71 35.4988 116.759 35.4988 116.881C35.4988 117.029 35.7206 117.151 35.9742 117.151C36.2279 117.151 36.4498 117.249 36.4498 117.396C36.4498 117.519 36.6716 117.641 36.9569 117.641C37.2422 117.641 37.4007 117.813 37.3373 118.058C37.3056 118.303 37.369 118.646 37.5274 118.842C37.686 119.014 37.7811 119.872 37.7494 120.755C37.7178 121.637 38.003 124.579 38.3834 127.3C38.7321 129.996 39.0807 132.767 39.1441 133.453C39.3026 134.875 39.5246 136.272 39.9683 138.43C40.1268 139.287 40.317 140.538 40.4121 141.248C40.6657 143.749 40.9193 145.17 41.0778 145.392C41.1729 145.514 41.3314 145.98 41.4265 146.396C41.6167 147.426 42.5042 148.382 43.3918 148.48C43.899 148.554 44.0258 148.677 43.899 149.02C43.8039 149.264 43.8673 149.534 44.0258 149.608C44.1842 149.706 44.4062 149.559 44.533 149.289C44.6598 148.97 44.9134 148.873 45.3255 148.946C45.6741 149.02 45.9594 148.946 45.9594 148.798C45.9594 148.652 45.7058 148.505 45.4205 148.48C45.1036 148.48 44.7232 148.431 44.533 148.407C44.3745 148.358 44.0892 148.333 43.899 148.308C43.7405 148.284 43.8673 148.112 44.1842 147.917C44.533 147.72 44.6281 147.548 44.4379 147.548C44.216 147.548 44.0575 147.402 44.0575 147.205C44.0575 147.009 44.3111 146.886 44.6281 146.936C44.9134 146.961 45.1353 147.156 45.1036 147.328C45.0402 147.548 45.262 147.695 45.6107 147.695C45.9911 147.695 46.1497 147.548 46.0546 147.304C45.9594 147.083 46.1497 147.132 46.53 147.475C46.847 147.769 47.6712 148.064 48.3369 148.137C49.5415 148.284 50.2388 148.53 49.4781 148.53C49.2244 148.53 49.1927 148.652 49.4147 148.995C49.795 149.51 49.5732 149.78 48.9391 149.583C48.6855 149.51 48.4954 149.583 48.4954 149.73C48.4954 149.877 48.844 150 49.2561 150C49.7633 150 50.0803 149.829 50.1754 149.461C50.3339 149.02 50.4607 148.995 50.841 149.24C51.0947 149.411 51.5068 149.486 51.7287 149.387C51.9506 149.289 51.8555 149.411 51.5385 149.608C51.1159 149.869 51.1159 150 51.5385 150C51.8555 150 52.4894 149.927 52.9333 149.829L53.7257 149.657L52.9333 149.486C52.4472 149.371 52.5211 149.305 53.1552 149.289C53.8525 149.264 54.2963 149.093 54.5182 148.75C54.9303 148.161 55.1205 148.235 55.3107 149.02C55.4058 149.461 55.3741 149.51 54.9937 149.264C54.7401 149.093 54.5182 149.068 54.5182 149.191C54.5182 149.755 55.9129 149.927 57.4978 149.559C58.639 149.289 59.1145 149.264 59.2096 149.486C59.3682 149.877 59.9071 149.829 59.9071 149.387C59.9071 149.191 60.0655 149.02 60.2557 149.02C60.4459 149.02 60.5093 149.264 60.4142 149.559C60.3191 149.877 60.3191 149.976 60.4142 149.804C60.5093 149.657 60.7946 149.51 61.0166 149.51C61.2384 149.51 61.492 149.387 61.5554 149.24C61.6188 149.093 62.0309 148.946 62.5063 148.946C63.1403 148.897 63.2671 148.823 63.0136 148.578C62.8234 148.407 62.4746 148.308 62.221 148.382C61.9991 148.455 61.809 148.358 61.809 148.161C61.809 147.965 62.0309 147.794 62.2844 147.794C62.538 147.794 62.76 147.671 62.76 147.548C62.76 147.377 62.9502 147.377 63.3939 147.548C63.9011 147.769 63.9962 147.745 63.806 147.402C63.6475 147.058 63.7109 147.058 64.3132 147.328C64.6619 147.524 64.9789 147.745 64.9789 147.843C64.9789 147.965 65.2008 148.039 65.486 148.039C65.803 148.039 65.8664 148.161 65.7079 148.358C65.4543 148.677 65.2959 149.264 65.4544 149.264C65.5178 149.264 65.803 149.093 66.0884 148.873C66.754 148.358 67.0393 148.578 66.5639 149.24C66.3103 149.633 66.3103 149.755 66.6272 149.755C67.388 149.755 67.6733 149.387 67.7684 148.284C67.8318 147.352 68.022 147.058 69.0363 146.396C69.6704 145.955 70.653 145.489 71.1602 145.342C74.4886 144.337 74.7422 144.166 74.5203 143.063C74.5203 142.964 74.4569 142.498 74.3935 142.033C74.3301 141.273 74.2667 141.224 73.9497 141.592C73.4108 142.131 73.4108 141.567 73.918 140.93C74.235 140.538 74.2033 140.366 73.5376 139.827C73.0939 139.483 72.9671 139.214 73.1889 139.214C73.4108 139.214 73.5376 139.067 73.4108 138.846C73.3157 138.65 73.4742 138.307 73.7595 138.111C74.0131 137.89 74.1716 137.645 74.0448 137.571C73.9497 137.498 74.0131 137.277 74.2033 137.105C74.4886 136.861 74.4252 136.738 74.0448 136.615C73.601 136.492 73.601 136.419 74.0448 136.101C74.3935 135.806 74.4252 135.659 74.1398 135.389C73.8546 135.12 73.8863 135.046 74.2033 135.022C74.4569 135.022 74.3619 134.923 74.0131 134.802C73.6644 134.679 73.5376 134.58 73.7278 134.58C74.3935 134.532 74.5203 133.772 73.9497 133.429C73.5059 133.183 73.4742 133.11 73.8229 133.086C74.1715 133.086 74.1399 132.987 73.6961 132.767C73.3158 132.521 73.2523 132.374 73.4742 132.252C73.6961 132.154 73.8546 132.203 73.8546 132.325C73.8546 132.473 73.9497 132.595 74.1082 132.595C74.2349 132.595 74.3302 132.325 74.3302 132.007C74.3302 131.688 74.2349 131.467 74.1082 131.541C73.6961 131.712 73.8229 131.002 74.235 130.683C74.5203 130.462 74.4886 130.389 74.0765 130.389C73.601 130.389 73.5693 130.315 73.918 129.825C74.3935 129.163 74.5203 128.427 74.1082 128.427C73.9497 128.427 73.918 128.33 74.0131 128.183C74.1082 128.06 74.0448 127.741 73.8546 127.471C73.601 127.08 73.6644 126.932 74.0765 126.736C74.4252 126.589 74.4886 126.467 74.235 126.467C73.918 126.467 73.918 126.344 74.1716 125.976C74.4569 125.584 74.4253 125.535 74.0131 125.633C73.6961 125.731 73.5376 125.633 73.5376 125.265C73.5376 124.946 73.7278 124.751 74.1082 124.751C74.6154 124.726 74.6154 124.702 74.1398 124.432C73.5059 124.064 73.4425 122.054 74.0131 122.054C74.235 122.054 74.3935 121.735 74.4252 121.318C74.4252 120.828 74.2666 120.558 73.8229 120.461C73.5059 120.362 73.2207 120.166 73.2207 120.019C73.2207 119.652 73.6961 119.063 73.9814 119.088C74.552 119.161 74.6154 119.088 74.1716 118.867C73.6961 118.622 73.4742 117.396 73.918 117.396C74.0448 117.396 74.1716 117.224 74.1716 117.029C74.1716 116.833 74.0131 116.661 73.7912 116.661C73.601 116.661 73.6644 116.514 73.9814 116.342C74.4252 116.097 74.5203 115.778 74.4252 115.239C74.3618 114.798 74.3619 114.455 74.4886 114.455C74.6154 114.455 75.1226 114.185 75.6297 113.842C76.454 113.302 76.549 113.278 76.7709 113.67C76.8977 113.891 76.9928 113.939 76.9928 113.768C77.0245 113.596 77.183 113.523 77.3415 113.596C77.5317 113.695 77.8804 113.621 78.134 113.474C78.3876 113.302 78.6095 113.253 78.6095 113.376C78.6095 113.498 78.7362 113.425 78.8947 113.229C79.0849 113.033 79.1166 112.787 79.0215 112.665C78.9264 112.542 78.7362 112.592 78.5777 112.763C78.3876 113.008 78.2925 113.008 78.2925 112.812C78.2925 112.37 78.9581 112.15 79.2435 112.518C79.5288 112.861 79.8457 112.739 81.6843 111.439C82.4767 110.851 82.6353 110.606 82.4133 110.263C82.0013 109.674 82.0013 109.552 82.5719 109.552C82.8255 109.552 83.0474 109.429 83.0474 109.307C83.0474 109.135 83.4594 109.111 84.1568 109.208C85.0444 109.331 85.2663 109.282 85.2663 108.963C85.2663 108.742 85.4564 108.571 85.71 108.571C85.9637 108.571 86.5343 108.203 87.0097 107.762C87.4852 107.345 88.8483 106.193 90.0212 105.213C91.194 104.232 92.0815 103.398 91.9865 103.325C91.8914 103.252 91.9864 103.178 92.1766 103.178C92.3668 103.178 92.6205 102.958 92.7156 102.688C92.8107 102.418 93.0959 102.197 93.2861 102.197C93.508 102.197 93.8567 101.977 94.0786 101.683C94.4273 101.29 94.5858 101.241 94.9662 101.462C95.505 101.83 95.5684 101.437 95.0296 100.996C94.6809 100.751 94.7443 100.629 95.2197 100.359C95.5367 100.163 95.9489 100.064 96.0757 100.138C96.2342 100.211 96.5511 99.8682 96.8047 99.378C97.0583 98.9121 97.4071 98.5205 97.5655 98.5205C97.7557 98.5205 97.9776 98.2508 98.0727 97.9076C98.1992 97.5644 98.421 97.2947 98.58 97.2947C98.7704 97.2947 98.8332 97.025 98.7066 96.6818C98.5486 96.2159 98.6428 96.0689 98.9922 96.0689C99.6891 96.0689 100.545 95.3333 100.356 94.9409C100.26 94.7697 100.323 94.5492 100.482 94.475C100.672 94.3773 100.799 94.1568 100.799 93.9364C100.799 93.397 102.161 91.1659 102.511 91.1659C102.637 91.1659 102.7 91.3379 102.574 91.5333C102.289 92.1462 102.828 91.9508 103.208 91.3129C103.525 90.7735 103.493 90.7 102.795 90.553C101.844 90.3818 102.161 89.9402 103.271 89.9402C103.906 89.9402 104.001 89.8667 103.715 89.6462C103.112 89.1803 103.271 88.9106 104.001 89.2045C104.602 89.4742 104.635 89.45 104.285 88.9599C104.064 88.6409 104.032 88.4697 104.223 88.5674C104.413 88.6409 104.635 88.6167 104.761 88.4697C104.857 88.347 104.824 88.2242 104.635 88.2242C104.444 88.2242 104.381 88.0523 104.476 87.8568C104.602 87.6606 104.571 87.2924 104.444 87.0477C104.064 86.4099 104.285 85.6992 104.919 85.3561C105.269 85.1599 105.427 84.8659 105.332 84.547C105.236 84.2773 105.3 84.0568 105.458 84.0568C105.617 84.0568 105.68 83.6402 105.617 83.15L105.458 82.2674L105.078 82.978C104.698 83.6402 104.666 83.5667 104.824 82.2182C104.888 81.4091 104.952 80.453 104.952 80.0856C104.919 79.5955 105.046 79.4485 105.363 79.5462C105.617 79.6197 105.839 79.4727 105.934 79.1053C106.125 78.3447 105.87 76.4326 105.586 76.5553C105.458 76.6288 105.174 76.5803 104.919 76.4326C104.666 76.3106 104.602 76.2121 104.793 76.2121C105.141 76.2121 105.141 74.6189 104.761 73.908C104.602 73.6383 104.666 73.3932 104.919 73.2706C105.205 73.148 105.236 72.8539 105.078 72.388C104.952 71.9958 104.761 71.8242 104.698 71.9714C104.413 72.5597 104.127 72.29 104.096 71.432C104.096 70.8927 104.19 70.6721 104.349 70.8682C104.507 71.0889 104.602 70.9417 104.602 70.5005C104.602 70.1328 104.381 69.7651 104.127 69.6915C103.874 69.5935 103.747 69.4464 103.842 69.3238C103.937 69.2012 103.779 68.9316 103.493 68.7109C103.112 68.3923 103.081 68.2452 103.367 67.9755C103.589 67.7794 103.651 67.5588 103.525 67.4607C103.43 67.3872 103.334 67.4362 103.334 67.5833C103.334 67.7549 103.208 67.8774 103.017 67.8774C102.859 67.8774 102.701 67.7058 102.701 67.5098C102.701 67.3136 102.859 67.142 103.05 67.142C103.24 67.142 103.334 66.8969 103.271 66.5782C103.208 66.284 102.986 66.0634 102.733 66.1124C102.416 66.1614 102.352 65.9899 102.478 65.4751C102.574 65.0583 102.478 64.568 102.257 64.2984C102.035 64.0533 101.718 63.563 101.591 63.2198C101.179 62.1656 100.006 60.278 99.7843 60.278C99.6263 60.278 99.5311 60.131 99.5311 59.9594C99.5311 59.7878 99.2455 59.4691 98.897 59.2239C98.5486 59.0033 98.263 58.6111 98.263 58.366C98.263 58.1208 97.6923 57.4589 97.0266 56.8951C96.3293 56.3313 95.6952 55.6694 95.5685 55.4242C95.3149 54.8359 93.7299 53.5367 93.0008 53.316C92.5254 53.1689 92.4937 53.0954 92.8741 52.9238C93.2862 52.7277 93.2544 52.6786 92.8107 52.6786C92.4936 52.6786 92.24 52.5561 92.24 52.3845C92.24 52.2374 92.0182 51.9432 91.7646 51.7226C89.9261 50.2027 87.7388 48.5112 87.612 48.5112C87.295 48.5112 84.9493 46.5746 84.9493 46.3295C84.9493 46.1823 84.7274 46.1333 84.4738 46.2069C84.2202 46.3049 83.9983 46.2314 83.9983 46.1089C83.9983 45.9617 83.4277 45.594 82.7621 45.2998C82.0964 45.0057 81.3356 44.5154 81.1137 44.1967C80.8917 43.878 80.5114 43.6084 80.2578 43.6084C80.0042 43.6084 79.3386 43.3633 78.7997 43.0445C77.0245 42.015 71.2553 40.0293 70.3677 40.1273C70.2726 40.1273 69.9874 40.0048 69.7338 39.8332C69.4802 39.6616 68.339 39.3674 67.1978 39.1958C66.0567 39.0242 65.0106 38.8036 64.8204 38.7055C64.6619 38.632 63.8694 38.5094 63.077 38.4849C62.2844 38.4604 61.175 38.3133 60.5727 38.1662C59.7486 37.9701 59.4633 37.9946 59.2413 38.2398C59.0194 38.5094 58.956 38.5095 58.956 38.2643C58.956 38.0437 58.4489 37.9456 57.3077 37.9702C56.3885 37.9702 54.645 37.9456 53.4087 37.8966C52.2042 37.8476 49.4781 37.9456 47.3859 38.1172ZM55.5008 43.3633C56.0715 43.6084 56.0715 43.6574 55.6276 44.0006C55.2156 44.3438 55.0571 44.3438 54.6133 44.0496C54.2012 43.8045 54.0744 43.8045 53.9793 44.0252C53.7891 44.4664 53.0284 44.4174 52.8065 43.9516C52.7114 43.7555 52.7431 43.6574 52.9333 43.731C53.1235 43.8045 53.3453 43.7064 53.4404 43.5103C53.6623 43.0691 54.5816 42.9955 55.5008 43.3633ZM45.7375 43.878C45.4839 44.0742 45.2304 44.0742 44.7866 43.878C44.2793 43.6574 44.3428 43.6329 45.167 43.6084C45.8326 43.6084 45.9911 43.6819 45.7375 43.878ZM47.2274 43.7064C47.2274 43.7555 47.0055 43.8536 46.7519 43.9516C46.4984 44.0252 46.2765 43.9761 46.2765 43.8536C46.2765 43.7064 46.4984 43.6084 46.7519 43.6084C47.0055 43.6084 47.2274 43.6574 47.2274 43.7064ZM48.4954 43.9026C48.4954 44.0496 48.4003 44.0987 48.2735 44.0252C48.1784 43.9271 47.8931 43.9761 47.6395 44.1477C47.2908 44.3438 47.2591 44.3193 47.4176 44.0006C47.6395 43.5593 48.4954 43.4613 48.4954 43.9026ZM50.2388 44.0496C50.1437 44.1232 49.8901 44.0496 49.6683 43.878C49.383 43.6329 49.4147 43.6084 49.8584 43.7555C50.1754 43.829 50.3339 43.9761 50.2388 44.0496ZM52.109 43.829C52.2041 43.9516 52.014 44.0987 51.6653 44.1722C51.0313 44.2948 50.8411 44.0987 51.2532 43.78C51.5385 43.5348 51.9188 43.5594 52.109 43.829ZM57.8783 44.4909C57.7198 44.8341 57.5929 44.8341 57.1809 44.5645C56.7371 44.2703 56.7371 44.2212 57.2443 43.927C57.91 43.5594 58.1953 43.8535 57.8783 44.4909ZM64.44 44.4664C64.5668 44.687 64.4083 44.7361 63.9962 44.6625C63.6792 44.5889 63.3939 44.3929 63.3939 44.1967C63.3939 43.8045 64.218 44.0006 64.44 44.4664ZM39.7782 44.3438C39.8733 44.4909 39.6197 44.5889 39.1758 44.5889C38.7638 44.5889 38.003 44.7115 37.5274 44.8341C36.7984 45.0547 36.735 45.0547 37.052 44.7361C37.2739 44.5399 37.8445 44.3193 38.2883 44.2703C38.7637 44.2213 39.2392 44.1477 39.366 44.1232C39.4929 44.1232 39.6831 44.1967 39.7782 44.3438ZM42.3774 44.2458C42.2823 44.3193 41.997 44.3438 41.7752 44.2703C41.5216 44.1967 41.6167 44.1232 41.9653 44.1232C42.314 44.0986 42.5042 44.1722 42.3774 44.2458ZM35.9742 44.5889C36.0694 44.7115 35.7206 44.9812 35.1818 45.2018C34.5795 45.447 34.2308 45.496 34.2308 45.2998C34.2308 45.1528 34.5161 44.9812 34.8648 44.9077C35.2135 44.8341 35.4988 44.687 35.4988 44.5645C35.4988 44.2703 35.7206 44.2948 35.9742 44.5889ZM45.3255 44.4419C45.3255 44.5154 45.1987 44.638 45.0085 44.7115C44.85 44.7851 44.6915 44.7361 44.6915 44.6135C44.6915 44.4664 44.85 44.3438 45.0085 44.3438C45.1987 44.3438 45.3255 44.3929 45.3255 44.4419ZM42.4725 45.1037C42.4725 45.2263 42.3457 45.3244 42.1556 45.3244C41.9971 45.3244 41.8386 45.1528 41.8386 44.9321C41.8386 44.7361 41.9971 44.638 42.1556 44.7115C42.3457 44.7851 42.4725 44.9567 42.4725 45.1037ZM48.0833 45.0792C48.1784 45.3489 48.4637 45.5695 48.7173 45.5695C49.0342 45.5695 49.1293 45.4224 49.0025 45.1283C48.8123 44.7361 48.844 44.7361 49.2561 45.1528C49.6049 45.496 50.112 45.594 51.5385 45.545C52.5845 45.545 53.9476 45.5695 54.5816 45.6431C55.2473 45.7166 55.8812 45.6676 55.9764 45.545C56.0715 45.398 56.3251 45.4224 56.6103 45.594C57.1809 45.9617 61.0482 46.6236 62.3795 46.5746C62.9502 46.5501 63.3939 46.6481 63.3939 46.8198C63.3939 46.9914 63.7743 47.0649 64.3449 46.9914C64.8838 46.9178 65.2959 46.9668 65.2959 47.0894C65.2959 47.1875 65.1057 47.2855 64.9155 47.2855C64.1864 47.2855 65.4226 47.7758 66.1835 47.7758C66.5638 47.7758 66.8808 47.8739 66.8808 48.0209C66.8808 48.1435 67.2295 48.3151 67.6734 48.4132C68.0854 48.4867 68.5926 48.7074 68.7828 48.8789C68.9729 49.0751 69.3534 49.1486 69.607 49.0751C69.8606 49.0015 70.0507 49.0995 70.0507 49.2711C70.0507 49.5163 70.1458 49.5163 70.3043 49.3447C70.4311 49.1977 70.7798 49.0751 71.0968 49.0751C71.4772 49.0751 71.604 49.2221 71.4455 49.5408C71.3187 49.8595 71.5089 50.0556 72.1112 50.2763C72.5549 50.4233 73.4425 50.9382 74.0448 51.3794C74.6788 51.8207 75.4396 52.1883 75.7882 52.1883C76.1053 52.1883 76.3589 52.2619 76.3272 52.36C76.2004 52.6542 77.7219 53.9043 78.1657 53.9043C78.3559 53.9043 78.6411 54.0759 78.7362 54.2966C78.863 54.5172 79.1483 54.6398 79.4337 54.5417C79.6873 54.4682 79.8141 54.4926 79.719 54.6398C79.6239 54.7623 79.9408 55.2036 80.4163 55.5958C80.8919 56.0126 81.8745 56.8461 82.5719 57.4834C83.2693 58.1208 84.2837 59.0033 84.8225 59.4691C85.3614 59.9104 85.7417 60.3026 85.6783 60.3516C85.6149 60.4006 85.932 60.7438 86.344 61.087C86.7878 61.4548 87.0414 61.7489 86.9463 61.7489C86.8512 61.7489 86.9463 61.9205 87.1682 62.1166C87.3901 62.3127 87.6755 62.4108 87.8339 62.3373C87.9924 62.2637 88.1192 62.4353 88.1192 62.7049C88.1192 62.9746 88.2777 63.2688 88.4362 63.3424C88.6264 63.4158 89.0384 63.9552 89.3872 64.519C89.7359 65.0828 90.1479 65.7202 90.3381 65.9163C91.828 67.8039 94.2688 73.2215 94.6809 75.4768C94.9345 76.9477 94.9345 85.0864 94.7126 85.2091C94.5541 85.2583 94.459 85.6015 94.459 85.9447C94.459 87.097 93.4446 90.5288 92.8424 91.4114C92.4937 91.8765 92.24 92.3674 92.24 92.4894C92.24 92.8576 90.877 94.8432 90.6234 94.8432C90.4015 94.8432 89.3555 96.6326 89.1653 97.3682C89.0067 98.128 88.4362 98.7652 87.9607 98.7652C87.7072 98.7652 87.3584 99.0106 87.1365 99.2803C86.8829 99.6477 86.8829 99.7462 87.1365 99.6477C87.3267 99.55 87.4853 99.5985 87.4853 99.7212C87.4853 99.8682 87.2633 99.9909 87.0097 99.9909C86.7561 99.9909 86.5343 100.163 86.5343 100.383C86.5343 100.58 86.4075 100.702 86.2807 100.629C86.1539 100.555 85.4882 100.898 84.8225 101.364C84.1885 101.83 83.5228 102.197 83.396 102.197C83.2692 102.197 82.8572 102.442 82.5084 102.736C81.3673 103.668 79.7507 104.796 78.9264 105.237C78.4827 105.458 78.134 105.777 78.134 105.948C78.134 106.095 77.817 106.267 77.4366 106.316C77.0562 106.364 76.6441 106.61 76.5491 106.855C76.454 107.125 75.8833 107.566 75.2811 107.836C74.6788 108.13 73.918 108.62 73.601 108.939C73.284 109.258 72.5232 109.674 71.9209 109.87C71.3187 110.067 70.3994 110.508 69.9239 110.851C69.4168 111.219 68.3707 111.807 67.5465 112.15C66.754 112.518 65.7713 113.082 65.3909 113.376C65.0106 113.695 64.3449 114.013 63.9011 114.111L63.077 114.258L63.6158 113.498C63.9328 113.082 64.3449 112.739 64.5668 112.739C64.7887 112.739 64.8838 112.567 64.7887 112.37C64.6619 112.174 64.757 112.003 64.9472 112.003C65.1374 112.003 65.2959 111.758 65.2959 111.439C65.2959 111.145 65.6128 110.753 65.9933 110.557C66.5955 110.263 66.6272 110.214 66.1518 109.993C65.7396 109.821 65.6762 109.65 65.9298 109.331C66.0884 109.086 66.1201 108.792 65.9933 108.694C65.8664 108.571 66.0249 108.571 66.342 108.645C66.6272 108.742 66.8808 108.694 66.8808 108.571C66.8808 108.424 67.0393 108.326 67.2295 108.326C67.388 108.326 67.4514 108.424 67.3563 108.571C67.2612 108.694 67.3246 108.816 67.483 108.816C67.9269 108.816 67.9269 108.155 67.5148 107.958C66.9125 107.664 67.1978 107.198 68.1488 106.929C69.0046 106.683 69.0997 106.536 69.0997 105.654C69.0997 105.065 69.2582 104.648 69.4485 104.648C69.7021 104.648 69.6703 104.502 69.3851 104.257C69.0046 103.889 69.0363 103.864 69.6704 104.011C70.0824 104.134 70.3677 104.085 70.3677 103.938C70.3677 103.791 70.2092 103.692 69.9873 103.717C69.7971 103.766 69.5753 103.57 69.5119 103.301C69.4802 103.031 69.5119 102.958 69.607 103.105C69.7021 103.276 69.9239 103.423 70.0824 103.423C70.2726 103.423 70.3043 103.301 70.2092 103.153C70.0824 103.031 70.2409 102.663 70.5896 102.393C70.9383 102.05 71.0018 101.952 70.6847 102.075C70.3043 102.246 70.336 102.148 70.7798 101.633C71.0968 101.266 71.3187 100.824 71.287 100.653C71.1919 99.9909 71.3504 99.7462 71.9527 99.7462C72.3647 99.7462 72.5866 99.5742 72.5866 99.2553C72.5866 98.9856 72.7769 98.7652 72.9988 98.7409C73.1889 98.7409 73.1255 98.6424 72.8403 98.5689C72.333 98.3977 72.3647 98.3242 73.0939 97.7114C73.5376 97.3189 73.9497 96.878 73.9814 96.7311C74.0131 96.5591 74.1398 96.2894 74.2984 96.1182C74.4252 95.9462 74.4252 95.8235 74.2667 95.8485C73.5693 95.9462 73.5693 95.7258 74.3935 94.647C74.869 94.0098 75.3445 93.4705 75.4396 93.4212C75.5663 93.397 75.5663 93.0288 75.5029 92.6371C75.4079 92.1712 75.503 91.9015 75.7565 91.9015C76.2004 91.9015 75.8516 90.8962 75.3128 90.6023C75.0909 90.5038 75.2177 90.3818 75.6614 90.2833C76.3906 90.1364 76.8977 88.9599 76.3272 88.6902C76.1687 88.6167 76.3272 88.4697 76.7075 88.3962C77.0879 88.322 77.3098 88.1508 77.2147 88.028C77.1196 87.8811 77.1196 87.5871 77.2464 87.3417C77.4366 86.9492 77.4683 86.9742 77.9121 87.3909C78.3242 87.7833 78.3559 87.8076 78.1974 87.4152C78.0706 87.1947 78.134 86.9985 78.2925 86.9985C78.451 86.9985 78.451 86.7288 78.2291 86.3614C77.9121 85.8462 77.9438 85.6992 78.3242 85.503C78.6412 85.3561 78.6411 85.2826 78.3876 85.2826C78.1657 85.2826 77.9755 85.0371 78.0072 84.7189C78.0072 84.2038 78.0389 84.2038 78.3242 84.6697C78.5144 84.9886 78.5461 84.6939 78.3876 83.8114C78.2608 83.0765 78.1657 82.1689 78.134 81.8258C78.134 81.3606 78.0072 81.2129 77.6586 81.2864C77.3098 81.3606 77.3098 81.3356 77.5635 81.1886C77.7853 81.0659 77.9121 80.772 77.8487 80.5023C77.7853 80.2326 77.8487 79.7917 77.9755 79.5462C78.2291 78.9576 77.6269 77.9773 76.3906 76.9477C75.8516 76.5068 75.4396 76.0652 75.4396 75.9182C75.4396 75.4278 71.921 74.6924 69.6387 74.7414C69.1314 74.7414 68.4975 74.913 68.2439 75.1092C67.9903 75.3052 67.6416 75.4033 67.483 75.3298C67.2929 75.2562 66.5956 75.4769 65.9298 75.8197C64.4401 76.5803 63.8377 76.6288 63.3939 75.9917C62.9502 75.3298 62.9819 74.9866 63.5524 74.9866C63.806 74.9866 64.0279 74.8885 64.0279 74.7414C64.0279 74.6189 63.806 74.5699 63.5524 74.6433C63.2038 74.7659 63.1404 74.6433 63.3939 74.0305C63.5524 73.5892 63.5524 73.2215 63.3622 73.148C63.2037 73.0499 63.077 73.1235 63.077 73.2706C63.077 73.4422 62.9185 73.4177 62.6332 73.2216C62.3161 73.0009 62.2844 72.8048 62.5063 72.6087C62.6966 72.4371 62.7283 72.1184 62.6332 71.8978C62.5063 71.6036 62.5697 71.5301 62.9185 71.6527C63.2672 71.7507 63.3939 71.6281 63.3939 71.1624C63.3939 70.8192 63.2672 70.623 63.077 70.6966C62.9185 70.7702 62.76 70.623 62.76 70.3779C62.76 70.1083 62.538 69.8141 62.2527 69.7405C61.9991 69.667 61.8407 69.4954 61.9357 69.3728C62.0625 69.2502 61.9674 69.1032 61.7773 69.0542C61.5237 68.9806 61.5871 68.8335 61.9041 68.5639C62.3795 68.2207 62.3478 68.1471 61.7773 67.7304C61.3652 67.4362 61.2701 67.2401 61.5237 67.1175C62.0309 66.8969 61.5554 66.333 60.9848 66.5046C60.6995 66.6027 60.541 66.4556 60.541 66.088C60.5093 65.4261 59.0194 64.0533 57.8466 63.563C56.959 63.2198 54.1695 63.0972 53.7574 63.3914C53.6623 63.4894 53.377 63.5874 53.1552 63.612C52.2675 63.71 49.7634 64.7152 49.7634 64.9848C49.7634 65.1319 49.6683 65.1809 49.5415 65.1074C49.2561 64.8867 47.8614 65.9164 47.8614 66.3331C47.8614 66.5047 47.7029 66.6517 47.5126 66.6517C47.3225 66.6517 47.2274 66.8233 47.3542 67.0195C47.4492 67.2155 47.3859 67.3872 47.2274 67.3872C47.0372 67.3872 46.9421 67.4608 46.9738 67.5588C47.0055 67.6814 46.8153 68.0245 46.53 68.3677C46.2448 68.7109 45.9277 69.2748 45.8326 69.6425C45.7692 69.9857 45.5473 70.5005 45.3889 70.7456C45.2304 70.9908 45.0085 71.8242 44.9134 72.6087C44.8183 73.3686 44.6281 74.1531 44.5013 74.3002C44.3428 74.4718 44.2793 74.913 44.311 75.3053C44.4062 76.2121 43.7405 78.1 43.4552 77.7318C42.9164 77.0455 40.1585 76.1879 38.6687 76.2371C37.8762 76.2614 37.052 76.2121 36.8301 76.1386C36.6399 76.0409 36.4181 76.0652 36.2913 76.1879C36.1962 76.3349 35.9108 76.3841 35.6572 76.2856C34.9599 76.0894 33.5334 76.4326 33.787 76.7273C33.9138 76.8985 33.787 76.9477 33.3749 76.85C32.9312 76.7273 32.6458 76.8742 32.3288 77.3152C32.107 77.6583 31.79 77.928 31.6315 77.928C31.473 77.928 31.4413 77.8061 31.5681 77.6341C31.6949 77.4871 31.2828 77.6833 30.6171 78.075C29.8881 78.5167 29.5077 78.9333 29.6028 79.203C29.6662 79.4235 29.5077 79.6689 29.254 79.7424C28.9053 79.8652 28.842 80.2818 29.0004 81.8992C29.3174 85.2091 29.3491 85.503 29.6979 86.0667C29.888 86.3856 30.3318 87.3909 30.7439 88.347C31.4096 90.0386 32.0752 91.4599 32.741 92.6371C32.9312 92.9803 33.0896 93.3477 33.0896 93.4947C33.1213 93.6174 33.5017 93.7402 33.9772 93.7402C34.6746 93.7152 34.7697 93.8136 34.6746 94.3038C34.5795 94.6962 34.6429 94.8189 34.8965 94.6962C35.1501 94.5977 35.1818 94.6227 35.055 94.8189C34.8965 95.0144 34.6746 95.0394 34.421 94.8674C34.1674 94.6962 34.0406 94.7697 34.0089 95.1129C33.9772 95.3576 34.0723 95.5788 34.2308 95.5788C34.3894 95.5788 34.7697 95.922 35.055 96.3629C35.3403 96.8045 35.784 97.2947 36.0059 97.4909C36.5449 97.8826 36.5765 98.275 36.0694 98.275C35.8791 98.275 35.9742 98.4955 36.2913 98.7652C36.6083 99.0598 37.052 99.2311 37.2105 99.1818C37.4324 99.1083 37.5909 99.5008 37.6226 100.064C37.686 100.604 37.8762 101.143 38.0981 101.266C38.32 101.364 38.3834 101.462 38.2249 101.462C38.0347 101.462 38.1615 101.609 38.5102 101.78C38.8272 101.977 39.0173 102.222 38.9222 102.345C38.6687 102.663 39.3978 103.105 40.0317 103.031C40.317 103.006 40.6657 103.08 40.7608 103.202C40.8559 103.325 40.7608 103.398 40.5072 103.374C40.0634 103.301 40.0317 104.624 40.5072 104.87C40.634 104.943 41.0144 105.433 41.2997 105.923C41.6801 106.536 41.9971 106.782 42.314 106.708C42.631 106.61 42.7262 106.708 42.631 107.052C42.5676 107.32 42.9164 108.032 43.3918 108.62C43.8673 109.208 44.85 110.557 45.6107 111.611C46.3715 112.689 47.164 113.719 47.4176 113.891C47.6712 114.087 47.8614 114.405 47.8614 114.577C47.8614 114.748 48.115 114.945 48.432 115.018C48.7701 115.083 48.7595 115.182 48.4003 115.312C47.798 115.508 41.902 114.185 40.7608 113.572C40.4438 113.4 39.9683 113.327 39.7464 113.4C39.4612 113.474 39.3026 113.376 39.3026 113.106C39.3026 112.886 39.1758 112.763 39.0173 112.836C38.8588 112.935 38.2883 112.714 37.7811 112.37C37.2739 112.027 36.6716 111.758 36.4815 111.758C36.2913 111.758 36.1328 111.66 36.1328 111.513C36.1328 111.39 35.4988 111.047 34.7063 110.777C33.9138 110.483 32.9946 110.067 32.6775 109.845C31.9485 109.307 30.4903 108.62 29.4125 108.302C28.9053 108.155 28.525 107.909 28.525 107.762C28.525 107.59 27.669 107.1 26.5913 106.659C25.5452 106.217 24.5943 105.678 24.4992 105.483C24.404 105.286 24.0554 105.139 23.7067 105.139C23.3897 105.139 23.1678 105.041 23.2629 104.918C23.358 104.796 22.9143 104.404 22.2485 104.011C20.7587 103.153 15.8453 99.378 15.8453 99.0841C15.8453 98.9614 15.4333 98.4712 14.8944 98.0296C14.3872 97.5886 13.9434 97.0742 13.9434 96.9023C13.9434 96.7303 13.8166 96.5591 13.6581 96.5098C13.3094 96.4121 11.7245 94.4265 11.7245 94.1076C11.7245 93.9606 11.3758 93.225 10.932 92.4894C10.4882 91.7545 10.0761 90.7492 9.98108 90.3076C9.91768 89.8424 9.72743 89.278 9.56894 89.0333C9.44214 88.7879 9.25195 88.1508 9.22024 87.6114C9.12515 86.5326 8.93496 86.1894 8.58627 86.3614C8.49117 86.4349 8.36435 86.2629 8.36435 85.9932C8.36435 85.7485 8.52288 85.528 8.71307 85.528C8.87156 85.528 8.83986 85.4296 8.58627 85.3068C8.20588 85.1106 8.17417 84.9152 8.45947 84.2038C8.83985 83.2235 8.68136 82.3409 8.11078 82.3409C7.92059 82.3409 7.98399 82.2182 8.23759 82.0712C8.49118 81.9242 8.58628 81.7773 8.39608 81.7038C8.20588 81.6545 8.14246 81.0909 8.20585 80.4288C8.30095 79.5462 8.39607 79.3992 8.58627 79.7667C8.80816 80.1833 8.83984 80.1591 8.83984 79.5705C8.87153 79.203 8.74476 78.9091 8.61796 78.9091C8.45947 78.9091 8.36437 78.4924 8.42778 77.9773C8.45947 77.3886 8.64967 77.0947 8.90326 77.1439C9.22024 77.1932 9.22024 77.1439 8.90326 76.8742C8.07909 76.0894 8.49117 73.8589 9.37874 74.4473C9.50554 74.5453 9.50554 74.4718 9.37874 74.3002C9.25195 74.1286 9.31535 73.8099 9.53724 73.6138C9.85427 73.3196 9.85417 73.2461 9.47382 73.3196C8.77644 73.4422 9.12514 72.241 9.91758 71.7507C10.5516 71.3585 10.5833 71.3095 10.0761 71.0153C9.56893 70.7211 9.56892 70.6476 10.1078 69.8141C10.4248 69.3483 10.6467 68.6864 10.615 68.3923C10.5833 68.0736 10.7418 67.6814 10.9637 67.5098C11.1856 67.3381 11.2807 67.142 11.1856 67.0439C11.0587 66.9704 11.1221 66.8969 11.3124 66.8969C11.4709 66.8969 11.5977 66.3821 11.5343 65.7202C11.5026 65.0829 11.5977 64.4455 11.7245 64.3229C11.8513 64.1758 12.0732 63.612 12.2 63.0482C12.3267 62.4599 12.5803 62.0431 12.7705 62.0676C12.9925 62.0921 13.151 61.945 13.1827 61.7489C13.2461 61.038 13.6898 60.0329 13.9751 60.0329C14.1336 60.0329 14.2286 59.9594 14.197 59.8368C14.1336 59.7387 14.3554 59.3955 14.6725 59.0523C15.0212 58.6846 15.2114 58.5866 15.2114 58.8072C15.2114 59.1259 15.2747 59.1258 15.4966 58.8317C15.6868 58.6111 15.6868 58.2924 15.4966 58.0473C15.3064 57.7531 15.3699 57.5814 15.6868 57.4834C15.9404 57.4098 16.1624 57.0912 16.1624 56.7725C16.1624 56.4539 16.416 55.9636 16.7329 55.6694C17.0182 55.3997 17.4937 54.9339 17.7473 54.6643C18.0009 54.3701 18.3813 54.1495 18.6032 54.1495C18.825 54.1495 19.0152 54.0514 19.0152 53.9289C19.0152 53.5611 20.6636 52.3109 22.1217 51.5755C22.8509 51.2078 23.4531 50.7911 23.4531 50.6685C23.4531 50.5459 23.6116 50.5214 23.7701 50.5949C23.9603 50.6685 24.1822 50.5704 24.2773 50.3743C24.3724 50.1536 24.6577 49.982 24.9113 49.982C25.4502 49.982 25.4818 49.6879 24.9747 49.2711C24.626 49.026 24.7528 49.026 25.4818 49.2467C26.3061 49.4918 26.3695 49.4673 26.211 49.0015C26.1159 48.7318 26.1476 48.4622 26.3061 48.3886C26.4329 48.3151 26.623 48.4867 26.7181 48.7564C26.94 49.4183 27.574 49.3937 27.574 48.7319C27.574 48.3152 27.7325 48.2416 28.3665 48.3152C28.8103 48.3886 29.254 48.3396 29.3491 48.2416C29.4443 48.119 29.8246 48.0209 30.205 48.0209C30.7439 48.0209 30.8073 47.9719 30.4586 47.8003C30.205 47.6777 29.793 47.6287 29.5077 47.6777C29.2223 47.7513 29.3174 47.6533 29.7296 47.4817C30.3001 47.261 30.6171 47.261 31.0609 47.4817C31.5364 47.7023 31.9168 47.6777 32.741 47.4081C33.3432 47.212 33.9455 47.1384 34.0723 47.2365C34.2308 47.3345 34.2308 47.261 34.104 47.0894C33.9772 46.9178 33.7236 46.8688 33.5334 46.9423C33.3432 47.0404 33.2481 46.9668 33.3432 46.7708C33.4383 46.5746 33.6919 46.4275 33.9455 46.4275C34.1991 46.403 34.8014 46.2559 35.2769 46.0598C35.9742 45.7902 36.323 45.7902 36.7984 46.0108C37.4641 46.3295 39.905 46.3295 39.9683 46.0108C40 45.9127 40.0317 45.7166 40.0634 45.594C40.1585 45.0792 40.6023 45.0057 40.7608 45.4714C40.8876 45.8637 41.1729 45.9617 41.9971 45.9617C42.5676 45.9372 42.9798 45.8637 42.9481 45.7902C42.8847 45.7166 43.5503 45.6186 44.4696 45.594C46.7836 45.5205 47.5127 45.447 47.7346 45.2508C47.8614 45.1528 47.4809 45.0792 46.8787 45.0547C45.9911 45.0547 45.9277 45.0057 46.435 44.8341C47.4493 44.4909 47.9248 44.5645 48.0833 45.0792ZM33.9138 45.2998C33.9138 45.643 33.7553 45.7411 33.2799 45.6431C32.9312 45.5695 32.6458 45.398 32.6458 45.2754C32.6458 45.1528 32.7727 45.1037 32.9312 45.2018C33.0896 45.2754 33.3116 45.2263 33.4383 45.0792C33.7236 44.7115 33.9138 44.7851 33.9138 45.2998ZM61.175 44.9321C61.175 45.0057 61.0483 45.1283 60.858 45.2018C60.6995 45.2754 60.541 45.2263 60.541 45.1037C60.541 44.9567 60.6995 44.8341 60.858 44.8341C61.0483 44.8341 61.175 44.8831 61.175 44.9321ZM39.049 45.6676C39.2709 45.5695 39.3026 45.6186 39.1758 45.7656C38.8271 46.2069 38.3517 46.1089 38.3834 45.6186C38.3834 45.3734 38.4785 45.3244 38.5736 45.5205C38.637 45.6676 38.8905 45.7411 39.049 45.6676ZM59.0511 45.496C58.8292 45.545 58.4489 45.545 58.2587 45.496C58.0368 45.4224 58.1953 45.3734 58.6391 45.3734C59.0828 45.3734 59.2413 45.4224 59.0511 45.496ZM32.3288 45.8147C32.3288 45.9372 32.2021 46.0598 32.0119 46.0598C31.8534 46.0598 31.6949 45.9372 31.6949 45.8147C31.6949 45.6676 31.8534 45.5695 32.0119 45.5695C32.2021 45.5695 32.3288 45.6676 32.3288 45.8147ZM60.6361 45.7411C60.4142 45.7902 60.0338 45.7902 59.8436 45.7411C59.6218 45.6676 59.7803 45.6186 60.224 45.6186C60.6678 45.6186 60.8263 45.6676 60.6361 45.7411ZM62.3478 46.2069C62.2527 46.2805 61.9675 46.305 61.7456 46.2314C61.492 46.1579 61.5871 46.0843 61.9357 46.0843C62.2844 46.0598 62.4746 46.1333 62.3478 46.2069ZM65.8347 46.2069C65.7396 46.2805 65.4543 46.305 65.2325 46.2314C64.9789 46.1579 65.074 46.0843 65.4226 46.0843C65.7713 46.0598 65.9615 46.1333 65.8347 46.2069ZM32.9629 46.6482C32.9629 46.6972 32.741 46.7952 32.4873 46.8933C32.2338 46.9668 32.0119 46.9178 32.0119 46.7952C32.0119 46.6481 32.2338 46.5501 32.4873 46.5501C32.741 46.5501 32.9629 46.5991 32.9629 46.6482ZM27.891 47.6777C27.891 47.7267 27.6691 47.7758 27.4155 47.7758C27.1619 47.7758 26.94 47.6777 26.94 47.5307C26.94 47.4081 27.1619 47.359 27.4155 47.4326C27.6691 47.5307 27.891 47.6287 27.891 47.6777ZM70.0507 48.2906C70.0507 48.4132 69.9239 48.5112 69.7972 48.5112C69.6387 48.5112 69.5119 48.3396 69.5119 48.1435C69.5119 47.9474 69.6387 47.8493 69.7972 47.9229C69.9239 47.9964 70.0507 48.1435 70.0507 48.2906ZM86.8512 60.5232C86.8512 60.6458 86.7878 60.7683 86.7244 60.7683C86.6293 60.7683 86.4709 60.6458 86.3758 60.5232C86.2807 60.3761 86.344 60.278 86.5025 60.278C86.6927 60.278 86.8512 60.3761 86.8512 60.5232ZM54.328 72.9029C54.5816 73.5648 54.8669 74.5698 54.962 75.1092C55.3423 76.972 55.4374 83.9341 55.1205 84.9152C54.9303 85.4538 54.7401 86.1159 54.6767 86.4099C54.5499 87.0227 53.8208 87.9788 53.5038 87.9788C53.3453 87.9788 53.2503 88.1015 53.2503 88.2485C53.2503 88.3962 53.4721 88.4447 53.7891 88.3712C54.1272 88.2735 54.1272 88.3629 53.7891 88.6409C53.1235 89.2295 51.7287 89.3765 52.3309 88.8129C52.6479 88.5182 52.7748 88.5182 52.965 88.7636C53.2819 89.1311 53.3453 88.9106 53.06 88.3712C52.9333 88.1015 52.7431 88.0523 52.4894 88.2C52.2675 88.347 51.9506 88.347 51.6653 88.2242C51.3166 88.0523 51.3166 87.9788 51.6019 87.9788C51.9189 87.9788 51.9505 87.7091 51.7921 86.925C51.6336 86.3614 51.5385 85.5523 51.5385 85.1106C51.5068 84.6939 51.4117 84.4 51.2849 84.4735C50.8727 84.6455 50.9996 84.1061 51.4434 83.7629C52.109 83.2477 52.3309 81.728 51.8238 81.1886C51.3166 80.6985 51.1898 80.2818 51.6019 80.478C51.7287 80.5265 51.8238 79.9871 51.8238 79.2523C51.7921 78.5167 51.8872 77.928 52.014 77.928C52.1407 77.928 52.2358 77.7076 52.2041 77.4379C52.1724 77.1682 52.0456 76.9477 51.9189 76.9477C51.7921 76.9477 51.6653 76.7758 51.6653 76.5803C51.6653 76.3841 51.8555 76.2371 52.0773 76.2614C52.5528 76.3591 52.3943 75.1827 51.8555 74.9376C51.6019 74.7905 51.6019 74.6189 51.9189 74.2511C52.1407 73.957 52.2359 73.5158 52.1408 73.2461C52.014 72.9273 52.0773 72.7803 52.426 72.7803C52.9966 72.7803 53.0918 72.5106 52.6479 72.143C52.4894 72.0204 52.426 71.6036 52.5211 71.2114L52.7114 70.5005L53.2819 71.0888C53.5989 71.4075 54.0744 72.2164 54.328 72.9029ZM105.395 78.8599C105.3 78.9333 105.046 78.8598 104.824 78.6879C104.54 78.4432 104.571 78.4182 105.015 78.5659C105.332 78.6394 105.491 78.7864 105.395 78.8599ZM37.0837 80.7477C37.0837 80.9432 36.9252 81.1152 36.735 81.1152C36.5448 81.1152 36.4814 81.2864 36.5765 81.5076C36.7033 81.7773 36.6082 81.8508 36.1962 81.8015C35.9108 81.7523 35.6889 81.5318 35.7523 81.2864C35.8157 80.9924 35.6889 80.9189 35.2769 81.0174C34.7697 81.1394 34.7697 81.1152 35.3085 80.772C36.1011 80.2818 37.0837 80.2568 37.0837 80.7477ZM38.1932 81.6053C38.2883 81.728 38.2249 81.8508 38.0664 81.8508C37.8762 81.8508 37.7178 81.728 37.7178 81.6053C37.7178 81.4583 37.7811 81.3606 37.8445 81.3606C37.9396 81.3606 38.0981 81.4583 38.1932 81.6053ZM51.6653 81.7038C51.6653 81.7523 51.4434 81.8508 51.1898 81.9485C50.9362 82.022 50.7143 81.9735 50.7143 81.8508C50.7143 81.7038 50.9362 81.6053 51.1898 81.6053C51.4434 81.6053 51.6653 81.6545 51.6653 81.7038ZM68.7193 82.4386C68.7827 82.6599 68.9729 82.7818 69.1314 82.7083C70.1458 82.2182 69.068 88.8864 67.8318 90.6758C67.6734 90.8962 67.61 91.1659 67.7367 91.2394C67.8318 91.3379 67.6733 91.6811 67.388 91.9992C67.1027 92.3424 66.8808 92.8576 66.8808 93.1273C66.8808 93.4212 66.6906 93.9364 66.4371 94.3038C66.2152 94.6712 66.0567 95.1864 66.1201 95.4311C66.1518 95.7008 65.8664 96.2402 65.4226 96.6326C65.0106 97 64.6619 97.4909 64.6619 97.6864C64.6619 97.8826 64.5034 98.0296 64.3132 98.0296C64.0913 98.0296 64.0279 98.2992 64.123 98.7167C64.218 99.0841 64.1863 99.55 63.9962 99.7462C63.8377 99.9417 63.7109 99.9909 63.7109 99.8682C63.6792 99.7212 63.4256 100.016 63.1403 100.481C62.76 101.045 62.6966 101.389 62.9185 101.511C63.1087 101.633 63.1086 101.707 62.8551 101.707C62.6332 101.707 62.4429 101.879 62.4429 102.075C62.4429 102.271 62.3161 102.442 62.1893 102.442C61.6822 102.442 60.8263 103.914 61.0166 104.477C61.175 104.894 61.1433 104.943 60.8897 104.648C60.6044 104.33 60.541 104.33 60.541 104.698C60.541 104.943 60.2874 105.36 60.0021 105.63C59.6852 105.899 59.4316 106.217 59.3999 106.316C59.3999 106.414 59.1462 106.904 58.8609 107.395C58.544 107.909 58.3221 108.522 58.3221 108.767C58.3221 109.037 58.1319 109.38 57.8783 109.527C57.3711 109.87 56.9907 110.777 57.3711 110.777C57.8149 110.777 57.4979 111.562 56.9273 111.905C56.6103 112.077 56.4519 112.322 56.5787 112.469C56.6737 112.616 56.4836 113.057 56.1349 113.449C55.7544 113.842 55.4692 114.283 55.4692 114.43C55.4692 114.822 54.3281 114.748 53.8842 114.332C53.6623 114.136 53.5989 113.964 53.7257 113.964C53.8525 113.964 53.7257 113.695 53.4404 113.352C53.1552 113.033 52.9333 112.592 52.9333 112.42C52.9333 112.223 52.7114 111.93 52.4577 111.758C52.2042 111.586 51.9823 111.243 51.9823 110.998C51.9823 110.728 51.7604 110.532 51.5068 110.532C51.2215 110.532 51.0314 110.311 51.0314 109.919C51.0314 109.478 50.9044 109.355 50.5241 109.478C50.112 109.601 50.112 109.674 50.4607 109.845C50.7777 110.042 50.7777 110.067 50.3973 109.968C50.0803 109.92 49.9535 109.625 50.0169 109.086C50.0803 108.473 49.8585 108.13 49.1293 107.566C48.6222 107.149 48.1467 106.659 48.1467 106.463C48.0833 105.874 48.0199 105.777 47.4176 104.771C47.0689 104.232 46.4983 103.448 46.0863 103.055C45.7058 102.639 45.3254 102.099 45.2621 101.83C45.2304 101.56 45.1036 101.29 45.0085 101.217C44.6598 100.947 44.0575 99.9667 44.0575 99.6727C44.0575 99.5008 43.7722 99.2068 43.4235 99.0106C43.0749 98.8144 42.7896 98.422 42.7896 98.1038C42.7896 97.8091 42.6627 97.5152 42.4725 97.4174C42.314 97.3432 42.2506 97.1227 42.3774 96.9265C42.5042 96.6568 42.4091 96.6083 42.0288 96.7061C41.6484 96.8288 41.5533 96.7061 41.6801 96.0932C41.7752 95.5296 41.6801 95.3333 41.2997 95.3333C41.0144 95.3333 40.8875 95.1864 41.0144 94.9659C41.1095 94.7697 41.0462 94.5977 40.8876 94.5977C40.7291 94.5977 40.5072 94.3773 40.4121 94.1076C40.317 93.8379 39.9367 93.6174 39.6197 93.6174C39.2709 93.6174 38.8589 93.397 38.6687 93.1273C38.4468 92.7841 38.4468 92.6371 38.6687 92.6371C38.8272 92.6371 38.9856 92.7348 38.9856 92.8818C38.9856 93.0045 39.1124 93.1273 39.2709 93.1273C39.588 93.1273 39.4295 92.3674 38.9856 91.5333C38.8272 91.2636 38.5419 90.5288 38.32 89.8667C38.0664 89.2295 37.8128 88.7144 37.6859 88.7144C37.5591 88.7144 37.369 88.347 37.2739 87.8811C37.1471 87.4152 36.8618 86.925 36.6083 86.753C36.3547 86.5818 36.1328 86.1894 36.1328 85.8712C36.1328 85.1848 35.6572 85.1106 35.2135 85.6992C35.0233 85.9447 34.8648 85.9932 34.8648 85.822C34.8648 85.675 35.1501 85.3068 35.4988 85.0371C36.2279 84.4735 36.323 84.2038 35.7206 84.3758C35.4987 84.4492 35.1184 84.253 34.8648 83.9833C34.4844 83.4932 34.4844 83.4682 34.9916 83.7871C35.467 84.1061 35.5304 84.0811 35.4353 83.5417C35.3719 83.2235 35.2135 82.8311 35.0867 82.6599C34.9599 82.5121 34.9916 82.3167 35.1184 82.2424C35.5938 82.022 37.7178 82.1689 37.7178 82.4144C37.7178 82.5371 37.9396 82.5614 38.2249 82.4879C38.6053 82.3902 38.7004 82.4386 38.5419 82.7083C38.4468 82.9046 38.5102 83.0765 38.7004 83.0765C38.8905 83.0765 38.9856 83.2235 38.8905 83.4197C38.7954 83.6159 38.9222 83.8364 39.1758 83.9099C39.4295 83.9833 39.6197 84.1795 39.6197 84.3758C39.6197 84.8167 40.3487 86.0182 40.6657 86.0182C40.7925 86.0182 40.8876 86.2386 40.8876 86.5326C40.8876 86.8023 41.0144 86.9492 41.2046 86.8758C41.3948 86.8023 41.4265 86.9008 41.3314 87.1212C41.1095 87.5379 41.7752 88.9599 42.1556 88.9599C42.2823 88.9599 42.5676 89.6212 42.7579 90.4303C42.9797 91.2394 43.2651 91.9508 43.4235 92.0242C43.6137 92.122 43.7405 92.5879 43.7405 93.1023C43.7405 93.6174 43.8673 94.1076 44.0575 94.2546C44.216 94.3773 44.4379 94.8432 44.5013 95.2841C44.5647 95.7008 44.7549 96.2159 44.9768 96.3871C45.167 96.5833 45.2303 96.7795 45.1353 96.853C45.0402 96.9265 45.1353 97.4909 45.3572 98.0546C45.5473 98.6424 45.7375 99.3046 45.7692 99.5008C45.8009 99.697 45.9911 100.114 46.2131 100.408C46.4349 100.727 46.4983 100.972 46.3716 100.972C45.9911 100.996 47.5443 101.952 47.9565 101.952C48.1467 101.952 48.2101 101.486 48.0833 100.677C47.9248 99.697 47.9882 99.3538 48.4003 99.1333C49.1927 98.6674 50.2388 98.9614 50.6192 99.7705C50.8094 100.163 50.8728 100.433 50.7143 100.359C50.3339 100.187 50.0803 101.217 50.2705 102.197C50.3339 102.663 50.4607 103.766 50.5241 104.648C50.6826 106.463 51.7287 108.571 52.4577 108.571C52.7114 108.571 52.9333 108.694 52.9333 108.841C52.9333 108.963 52.7748 109.012 52.5528 108.914C52.3309 108.816 52.2992 108.841 52.426 109.012C52.7114 109.38 53.6306 109.086 53.4404 108.669C53.3453 108.473 53.4087 108.326 53.5672 108.326C53.694 108.326 53.9159 107.958 54.0427 107.517C54.4232 106.144 55.691 104.992 57.3077 104.527C58.1319 104.305 58.9877 104.109 59.2096 104.109C59.3999 104.085 59.5901 103.938 59.5901 103.766C59.5901 103.595 59.812 103.276 60.0972 103.08C60.3508 102.859 60.4459 102.688 60.2557 102.688C60.0655 102.688 59.9071 102.516 59.9071 102.295C59.9071 102.099 60.0655 102.002 60.2557 102.075C60.4776 102.197 60.5093 101.903 60.3508 101.094C60.1923 100.236 60.224 99.9667 60.5093 100.089C61.0165 100.334 60.953 99.9667 60.3508 99.4765C59.907 99.0841 59.907 99.0349 60.5093 98.8879C60.8896 98.8144 61.175 98.5205 61.175 98.275C61.175 98.0296 61.3335 97.7356 61.492 97.6621C61.6822 97.5886 61.809 97.2947 61.809 97.0492C61.809 96.8045 61.9991 96.5349 62.221 96.4856C62.4112 96.4121 62.3478 96.3386 61.9992 96.3386C61.4286 96.3136 61.4286 96.2894 61.9675 95.8235C62.2844 95.5538 62.3795 95.3333 62.1893 95.3333C61.9358 95.3333 61.9041 95.1621 62.126 94.7447C62.2844 94.4265 62.3161 94.0833 62.221 94.0099C62.0942 93.9364 62.2844 93.8629 62.5697 93.8629C63.1086 93.8629 63.1087 93.8136 62.6332 93.25C62.1893 92.7348 62.1893 92.5386 62.4746 92.0727C62.6966 91.7788 62.8551 91.5091 62.8234 91.4599C62.6014 91.2394 62.8234 90.9205 63.1087 91.0682C63.2988 91.1417 63.2038 90.9455 62.9185 90.5773C62.6014 90.2099 62.5063 89.9402 62.7283 89.9402C63.2037 89.9402 63.172 88.8864 62.6966 88.4939C62.4429 88.2735 62.4112 88.2242 62.6332 88.322C62.8868 88.4205 63.0769 88.1015 63.2037 87.4152C63.6158 84.9152 63.806 84.3023 64.0279 84.3023C64.1547 84.3023 64.3766 84.0076 64.4717 83.6644C64.8204 82.6106 66.1835 81.8258 67.483 81.9242C68.2439 81.9977 68.6559 82.1689 68.7193 82.4386ZM33.5968 85.503C33.5968 85.65 33.47 85.822 33.2799 85.8955C33.1214 85.9689 32.9629 85.8712 32.9629 85.675C32.9629 85.4538 33.1214 85.2826 33.2799 85.2826C33.47 85.2826 33.5968 85.3803 33.5968 85.503ZM34.2308 86.2386C34.2308 86.3614 34.3258 86.6795 34.4527 86.925C34.6112 87.3174 34.5795 87.3174 34.0089 86.8758C33.3749 86.3856 33.3432 86.0182 33.9455 86.0182C34.104 86.0182 34.2308 86.1159 34.2308 86.2386ZM32.3288 87.4886C32.3288 87.6114 32.2021 87.7341 32.0119 87.7341C31.8534 87.7341 31.6949 87.6114 31.6949 87.4886C31.6949 87.3417 31.8534 87.2439 32.0119 87.2439C32.2021 87.2439 32.3288 87.3417 32.3288 87.4886ZM33.5017 90.6023C33.3749 90.6758 33.5334 90.8962 33.8504 91.0924C34.1357 91.2886 34.1991 91.3864 34.0089 91.2886C33.787 91.2152 33.5968 91.2636 33.5968 91.4114C33.5968 91.5583 33.47 91.6076 33.2799 91.5333C32.8361 91.3129 32.8678 90.4303 33.3432 90.4303C33.5334 90.4303 33.5968 90.5038 33.5017 90.6023ZM36.4498 91.1902C36.4498 91.3129 36.1011 91.3864 35.6889 91.3621C34.7697 91.2886 34.8331 91.0432 35.784 90.9947C36.1645 90.9697 36.4498 91.0432 36.4498 91.1902ZM74.8373 91.975C74.4252 92.2939 74.0131 92.0485 74.3302 91.6811C74.4253 91.5333 74.6788 91.4849 74.869 91.5583C75.0592 91.6561 75.0592 91.803 74.8373 91.975ZM36.9252 92.1462C37.0203 92.2689 36.8935 92.3917 36.6399 92.3917C36.3547 92.3917 36.1328 92.2689 36.1328 92.1462C36.1328 91.9992 36.2596 91.9015 36.418 91.9015C36.6082 91.9015 36.8301 91.9992 36.9252 92.1462ZM36.4498 94.0099C36.4498 94.0583 36.2279 94.1076 35.9742 94.1076C35.7206 94.1076 35.4988 94.0099 35.4988 93.8629C35.4988 93.7402 35.7206 93.6909 35.9742 93.7644C36.2279 93.8629 36.4498 93.9606 36.4498 94.0099ZM35.6889 96.2652C35.5621 96.3386 35.3403 96.2652 35.1818 96.0689C34.7063 95.4803 34.8331 95.2598 35.372 95.7008C35.6572 95.922 35.784 96.1667 35.6889 96.2652ZM38.3517 97.2947C38.3517 97.4174 38.1932 97.5394 38.003 97.5394C37.8445 97.5394 37.7812 97.4174 37.8762 97.2947C37.9713 97.1477 38.1298 97.0492 38.2249 97.0492C38.2883 97.0492 38.3517 97.1477 38.3517 97.2947ZM39.049 98.0788C38.8271 98.2508 38.6687 98.275 38.6687 98.128C38.6687 97.7849 39.049 97.4909 39.2709 97.6621C39.3344 97.7356 39.2392 97.9318 39.049 98.0788ZM37.9396 98.6674C37.8445 98.7409 37.5591 98.7652 37.3373 98.6917C37.0837 98.6182 37.1788 98.5447 37.5274 98.5447C37.8762 98.5205 38.0664 98.5939 37.9396 98.6674ZM41.4582 100.016C41.3631 100.211 41.2363 100.089 41.1095 99.7705C40.9827 99.3538 41.0144 99.2553 41.268 99.4515C41.4265 99.5742 41.5216 99.8439 41.4582 100.016ZM42.4725 100.727C42.4725 100.849 42.3457 100.972 42.1556 100.972C41.9971 100.972 41.8386 100.849 41.8386 100.727C41.8386 100.58 41.9971 100.481 42.1556 100.481C42.3457 100.481 42.4725 100.58 42.4725 100.727ZM44.1209 101.266C43.899 101.437 43.7405 101.462 43.7405 101.315C43.7405 100.972 44.1208 100.677 44.3428 100.849C44.4062 100.923 44.311 101.119 44.1209 101.266ZM39.6197 101.633C39.588 102.222 39.5563 102.271 39.2709 101.879C39.1124 101.658 39.049 101.339 39.1441 101.217C39.4612 100.8 39.6197 100.947 39.6197 101.633ZM42.5676 101.585C42.4725 101.805 42.314 101.928 42.2506 101.854C42.1555 101.78 42.1873 101.633 42.314 101.486C42.5993 101.094 42.7896 101.167 42.5676 101.585ZM43.9307 103.595C43.6137 103.84 43.3284 103.472 43.6137 103.153C43.8039 102.884 43.8673 102.884 43.9941 103.153C44.0575 103.325 44.0258 103.521 43.9307 103.595ZM41.9337 105.311C41.8069 105.58 41.8386 105.654 42.0921 105.531C42.3457 105.433 42.4725 105.531 42.4725 105.801C42.4725 106.193 42.4408 106.193 41.9653 105.826C41.6801 105.605 41.5533 105.311 41.6484 105.164C41.997 104.747 42.1555 104.845 41.9337 105.311ZM45.6424 107.345C45.6424 107.468 45.579 107.59 45.5156 107.59C45.4206 107.59 45.2621 107.468 45.167 107.345C45.0719 107.198 45.1353 107.1 45.2937 107.1C45.4839 107.1 45.6424 107.198 45.6424 107.345ZM47.3859 107.86C47.7346 108.277 47.3542 108.375 46.9104 107.958C46.6569 107.738 46.6568 107.59 46.847 107.59C47.0372 107.59 47.2908 107.713 47.3859 107.86ZM44.9768 109.037C45.2303 109.159 45.2621 109.307 45.0719 109.405C44.9134 109.478 44.5964 109.38 44.3745 109.184C43.9307 108.792 44.2793 108.694 44.9768 109.037ZM46.2765 109.895C46.2765 109.944 46.0546 110.042 45.8009 110.14C45.5473 110.214 45.3255 110.164 45.3255 110.042C45.3255 109.895 45.5473 109.797 45.8009 109.797C46.0546 109.797 46.2765 109.845 46.2765 109.895ZM46.2765 110.532C46.2765 110.655 46.118 110.777 45.9277 110.777C45.7692 110.777 45.7058 110.655 45.8009 110.532C45.896 110.385 46.0546 110.287 46.1497 110.287C46.2131 110.287 46.2765 110.385 46.2765 110.532ZM21.361 111.047C21.1708 111.317 20.6002 111.096 20.6002 110.777C20.6002 110.655 20.8221 110.606 21.0757 110.68C21.3293 110.777 21.4561 110.924 21.361 111.047ZM77.7219 113.033C77.5 113.205 77.3415 113.229 77.3415 113.082C77.3415 112.739 77.7219 112.444 77.9438 112.616C78.0072 112.689 77.9121 112.886 77.7219 113.033ZM31.3779 114.577C31.5047 114.504 31.6949 114.602 31.79 114.798C31.9168 115.042 31.79 115.092 31.3462 115.018C31.0291 114.945 30.7439 114.699 30.7756 114.479C30.7756 114.234 30.839 114.209 30.9658 114.405C31.0291 114.552 31.2194 114.651 31.3779 114.577ZM52.9333 114.552C52.9333 114.822 52.3309 114.92 52.1408 114.699C52.0457 114.577 52.1724 114.455 52.426 114.455C52.7114 114.455 52.9333 114.504 52.9333 114.552ZM36.6083 116.416C36.7034 116.538 36.6399 116.661 36.4815 116.661C36.2913 116.661 36.1328 116.538 36.1328 116.416C36.1328 116.268 36.1962 116.17 36.2596 116.17C36.3547 116.17 36.5132 116.268 36.6083 116.416ZM64.5668 120.264C64.6936 120.509 64.9155 120.779 65.074 120.852C65.6128 121.147 65.0106 121.808 64.2181 121.808C63.806 121.808 63.3622 121.98 63.2671 122.201C63.1721 122.397 62.8234 122.544 62.538 122.495C62.221 122.47 61.7773 122.544 61.5237 122.642C60.7629 123.01 59.273 122.986 59.273 122.617C59.273 122.446 59.5584 122.299 59.8753 122.299C60.224 122.299 60.7312 122.103 61.0482 121.858C61.3652 121.637 61.6505 121.465 61.7139 121.514C61.7773 121.564 61.9358 121.564 62.0625 121.49C62.1893 121.441 62.0942 121.441 61.9041 121.465C61.3335 121.588 61.3969 120.951 61.9675 120.583C62.5063 120.24 63.1086 120.461 62.8551 120.951C62.6332 121.441 63.1087 121.417 63.9011 120.927C64.2181 120.73 64.3449 120.608 64.123 120.681C63.9328 120.779 63.6475 120.73 63.5524 120.583C63.4256 120.436 63.4573 120.338 63.6158 120.362C64.2498 120.436 64.4717 120.314 64.0279 120.092C63.7109 119.921 63.6792 119.848 63.9645 119.848C64.1864 119.848 64.4717 120.044 64.5668 120.264ZM45.3255 120.461C45.5473 120.657 45.579 120.828 45.3889 120.828C45.2304 120.828 44.9134 120.657 44.6915 120.461C44.4696 120.264 44.4379 120.092 44.6281 120.092C44.7866 120.092 45.1036 120.264 45.3255 120.461ZM48.7806 121.122C49.0025 121.073 49.3195 121.171 49.4781 121.343C49.8902 121.858 49.8267 122.054 49.2244 122.054C48.7489 122.054 48.7173 122.005 49.1293 121.808C49.383 121.686 49.4781 121.564 49.2878 121.539C49.1293 121.514 48.8441 121.49 48.6539 121.441C48.4954 121.417 48.0833 121.367 47.798 121.367C47.481 121.343 47.2274 121.196 47.2274 121.073C47.2274 120.902 47.4176 120.902 47.798 121.024C48.0833 121.147 48.527 121.196 48.7806 121.122ZM51.8872 121.613C51.7921 121.809 51.697 121.735 51.697 121.465C51.6653 121.196 51.7604 121.048 51.8555 121.147C51.9506 121.22 51.9823 121.441 51.8872 121.613ZM46.435 122.226C46.7519 122.103 46.8787 122.152 46.7202 122.348C46.5617 122.544 46.8153 122.569 47.5761 122.47C48.2418 122.373 48.4954 122.373 48.2418 122.52C47.9248 122.667 48.1467 122.789 49.0342 122.912C49.7 123.034 50.429 123.083 50.6192 123.059C51.2215 122.986 52.2992 123.5 52.2992 123.843C52.2992 124.358 50.9678 124.652 49.5098 124.456C48.7489 124.358 47.8931 124.358 47.6078 124.481C46.4983 124.922 44.6915 123.795 44.6915 122.642C44.6915 122.054 45.3572 121.711 45.6741 122.127C45.8009 122.25 46.118 122.299 46.435 122.226ZM51.3483 122.495C51.3483 122.74 50.2071 122.716 49.8901 122.47C49.7633 122.373 50.0486 122.299 50.4924 122.299C50.9678 122.299 51.3483 122.397 51.3483 122.495ZM64.4717 126.344C65.2008 126.393 65.3593 126.932 65.1374 128.574L64.9472 129.8L62.76 130.266C61.5554 130.511 60.6678 130.83 60.7629 130.952C60.858 131.099 60.8262 131.124 60.6678 131.051C60.5093 130.977 59.3682 131.075 58.1636 131.271C56.9273 131.467 55.0888 131.664 54.0427 131.688C52.9967 131.737 51.9506 131.835 51.7287 131.958C51.5385 132.055 51.2215 132.08 51.063 132.007C50.9045 131.908 49.9536 131.835 48.9708 131.835C47.6395 131.811 47.0055 131.664 46.6568 131.345C46.3716 131.099 46.0546 130.952 45.9277 131.002C45.8009 131.075 45.7375 130.855 45.7692 130.511C45.7692 130.168 45.9911 129.898 46.2131 129.898C46.4033 129.898 46.5935 129.776 46.5935 129.653C46.5935 129.506 46.4033 129.408 46.2131 129.383C45.9277 129.383 45.9277 129.335 46.2448 129.236C46.5934 129.114 46.5934 129.065 46.2448 128.893C45.9277 128.746 46.0863 128.673 46.7519 128.673C47.4176 128.673 47.5761 128.746 47.2591 128.893C46.4984 129.261 47.8614 130.045 49.1927 130.021C49.8584 129.996 50.3022 130.07 50.1754 130.217C49.9218 130.536 51.4117 130.168 51.9823 129.752C52.2992 129.506 52.2992 129.408 52.0456 129.408C51.8238 129.408 51.6653 129.212 51.6653 128.992C51.6653 128.623 51.7287 128.648 52.2358 129.065C52.7114 129.457 52.7431 129.58 52.3943 129.849C51.8238 130.291 51.8872 130.389 52.6162 130.389C52.965 130.389 53.5355 130.168 53.9159 129.874C54.4231 129.482 54.645 129.433 55.0254 129.653C55.2473 129.825 55.7227 129.874 56.0081 129.776C56.5469 129.605 56.5153 129.58 55.9446 129.408L55.3107 129.187H55.9446C56.4836 129.163 56.5153 129.114 56.1032 128.893C55.7227 128.673 55.7227 128.648 56.1983 128.77C57.91 129.212 58.3221 129.212 58.1319 128.844C58.0368 128.648 58.1002 128.403 58.2904 128.305C58.5123 128.231 58.6391 128.354 58.6391 128.648C58.6391 129.236 58.8926 129.286 59.6852 128.795C60.0338 128.623 60.4776 128.526 60.6678 128.574C60.8896 128.648 61.2701 128.526 61.492 128.33C61.7139 128.109 61.9992 128.011 62.1576 128.084C62.5697 128.28 62.5063 127.766 62.0625 127.177C61.7139 126.761 61.7456 126.638 62.2844 126.32C62.6331 126.123 63.1087 126.025 63.3939 126.123C63.6475 126.221 64.1546 126.295 64.4717 126.344ZM61.3018 127.741C61.5554 127.888 61.5237 127.937 61.2701 127.937C61.0799 127.937 60.7946 127.814 60.6995 127.692C60.5727 127.545 60.3191 127.52 60.1289 127.619C59.907 127.717 59.9705 127.594 60.224 127.349C60.5727 127.006 60.6995 126.981 60.8262 127.227C60.8896 127.423 61.1116 127.643 61.3018 127.741ZM59.273 127.594C59.273 127.79 59.1462 127.888 58.956 127.814C58.7976 127.741 58.6391 127.57 58.6391 127.423C58.6391 127.3 58.7976 127.202 58.956 127.202C59.1462 127.202 59.273 127.373 59.273 127.594ZM55.3424 128.354C55.279 128.599 54.962 128.82 54.5816 128.869C54.2329 128.918 53.8525 129.139 53.7891 129.359C53.694 129.605 53.6306 129.53 53.5989 129.139C53.5672 128.697 53.7891 128.427 54.2963 128.232C55.279 127.864 55.4375 127.888 55.3424 128.354ZM50.4607 128.869C50.2388 128.918 50.1437 129.065 50.2705 129.187C50.3656 129.31 50.3656 129.408 50.2705 129.408C50.1754 129.408 49.9535 129.187 49.7951 128.942C49.5098 128.526 49.5415 128.501 50.1437 128.623C50.5558 128.697 50.6826 128.795 50.4607 128.869ZM48.9074 129.163C48.8123 129.433 48.5905 129.653 48.432 129.653C48.2418 129.653 48.1784 129.506 48.2735 129.31C48.3686 129.114 48.3052 128.893 48.0833 128.82C47.8614 128.77 48.0199 128.697 48.4003 128.697C48.9074 128.673 49.0342 128.77 48.9074 129.163ZM63.7109 134.36C63.7109 134.777 63.6158 134.826 63.4256 134.58C63.2671 134.385 63.077 134.36 62.9502 134.507C62.7283 134.777 62.8551 134.875 63.806 135.12C64.2815 135.267 64.345 135.193 64.1864 134.826C64.0913 134.556 64.1547 134.286 64.3449 134.189C64.8521 133.943 64.9155 134.066 65.1691 135.218L65.3593 136.248L64.1546 136.419C63.4573 136.492 62.7917 136.664 62.6014 136.762C62.2844 136.934 61.8407 137.057 59.7486 137.498C59.2413 137.596 57.7198 137.914 56.3884 138.184C53.9476 138.699 51.2532 139.042 49.0025 139.067C47.7663 139.091 47.7346 139.091 47.3542 137.865C47.1323 137.204 47.0689 136.542 47.1957 136.395C47.3542 136.272 47.3859 135.831 47.3225 135.463C47.2591 135.046 47.3225 134.826 47.5126 134.899C47.6712 134.973 47.8931 134.899 47.9882 134.752C48.0833 134.58 48.1467 134.85 48.115 135.341C48.0516 135.831 48.1467 136.321 48.2735 136.419C48.4003 136.517 48.4954 136.468 48.4954 136.321C48.4954 136.149 48.8123 136.027 49.2244 136.027C49.795 136.027 49.8268 135.978 49.4464 135.782C49.1927 135.659 49.1293 135.536 49.2878 135.536C49.4781 135.536 49.4147 135.439 49.161 135.316C48.844 135.169 48.9708 135.022 49.7 134.728L50.6826 134.36L50.5558 135.046C50.4607 135.733 50.9996 135.929 51.5702 135.414C51.697 135.316 51.6336 135.292 51.38 135.414C51.0947 135.536 50.9995 135.512 51.1581 135.341C51.6019 134.802 51.9823 135.046 51.9823 135.855C51.9823 136.297 52.2041 136.885 52.4894 137.155C52.7431 137.4 52.9016 137.498 52.8065 137.327C52.5528 136.934 53.1868 136.664 53.6623 136.958C54.2645 137.327 55.7227 137.522 56.5469 137.351C57.0858 137.253 57.3077 137.032 57.3077 136.591V135.954L56.7054 136.542C56.1666 137.081 55.9446 137.032 56.0715 136.419C56.1032 136.296 55.8495 136.272 55.4692 136.345C55.1205 136.419 54.7718 136.395 54.6767 136.272C54.5816 136.174 54.011 136.125 53.4087 136.174C52.8065 136.198 52.2992 136.149 52.2992 136.002C52.2992 135.88 52.3943 135.806 52.5528 135.806C52.6796 135.831 52.8382 135.831 52.9333 135.806C53.0284 135.782 54.0427 135.733 55.1839 135.684C56.3568 135.635 57.4979 135.512 57.7198 135.389C58.3538 135.095 60.224 135.022 60.224 135.292C60.224 135.439 59.6535 135.61 58.956 135.684C58.2587 135.782 57.7832 135.954 57.8783 136.076C58.0051 136.223 58.5756 136.248 59.2413 136.149C61.3969 135.831 61.809 135.831 61.809 136.052C61.809 136.37 62.5697 136.321 63.0136 135.978C63.5524 135.561 62.538 134.679 61.9041 135.071C61.5871 135.292 61.492 135.242 61.492 134.826C61.492 134.409 61.6188 134.311 62.0942 134.433C62.4112 134.507 62.8551 134.409 63.077 134.189C63.6158 133.698 63.7109 133.723 63.7109 134.36ZM65.1374 140.562C65.1374 141.567 65.0423 142.425 64.9472 142.474C64.5668 142.695 62.4746 143.063 62.6332 142.867C62.7283 142.744 62.5063 142.645 62.1576 142.645C61.809 142.645 61.492 142.842 61.4286 143.063C61.3335 143.43 61.3018 143.43 60.7629 143.038C60.3191 142.67 60.1289 142.645 59.7168 142.915C59.3682 143.136 59.0828 143.136 58.544 142.915C58.1636 142.768 57.4979 142.67 57.0541 142.744C56.6104 142.793 55.9446 142.867 55.5325 142.867C55.0888 142.891 54.8669 142.989 55.0254 143.161C55.1522 143.357 55.0254 143.357 54.5499 143.161C54.2012 142.989 53.8842 142.744 53.8842 142.597C53.8842 142.376 53.9793 142.377 54.2329 142.572C54.7401 142.964 56.5153 142.474 56.2934 142.008C56.1983 141.812 56.2617 141.665 56.4202 141.665C56.6104 141.665 56.7371 141.861 56.7371 142.082C56.7371 142.425 56.8005 142.45 57.0224 142.18C57.2126 141.935 57.4345 141.935 57.9417 142.131C58.8609 142.498 60.5093 142.033 60.3191 141.469C60.1606 140.955 58.956 140.881 58.956 141.371C58.956 141.542 58.8293 141.616 58.6391 141.542C58.4806 141.469 58.3221 141.224 58.3221 141.028C58.3221 140.832 58.4489 140.709 58.5757 140.783C58.7341 140.856 59.2096 140.758 59.6852 140.562C60.4459 140.268 60.541 140.268 60.541 140.586C60.541 140.808 60.6995 140.881 60.9214 140.783C61.175 140.66 61.2067 140.758 61.0482 141.077C60.858 141.445 60.8897 141.494 61.2067 141.224C61.5237 141.003 61.5237 140.856 61.2384 140.636C60.953 140.415 61.2701 140.17 62.6966 139.557C63.6792 139.14 64.6619 138.773 64.8521 138.748C65.074 138.723 65.1691 139.361 65.1374 140.562ZM55.6276 142.155C55.7227 142.278 55.691 142.401 55.5008 142.401C55.3424 142.401 55.0888 142.278 54.9937 142.155C54.8986 142.008 54.9303 141.911 55.1205 141.911C55.2789 141.911 55.5326 142.008 55.6276 142.155ZM52.6162 142.474C53.0918 142.45 52.9333 142.523 52.2041 142.695C51.2532 142.891 50.9045 142.867 50.6192 142.645C50.3339 142.401 50.3339 142.376 50.6509 142.498C50.8411 142.597 51.0314 142.548 51.0314 142.401C51.0314 142.254 51.1898 142.205 51.4434 142.327C51.6336 142.425 52.1725 142.498 52.6162 142.474ZM74.1716 142.744C74.1716 142.817 74.0448 142.94 73.8546 143.014C73.6961 143.087 73.5376 143.038 73.5376 142.915C73.5376 142.768 73.6961 142.645 73.8546 142.645C74.0448 142.645 74.1716 142.695 74.1716 142.744ZM51.38 148.014C51.6019 147.745 51.6653 147.745 51.6653 148.088C51.6653 148.407 51.4117 148.53 50.8728 148.53C49.9853 148.53 49.8584 148.308 50.4924 147.818C50.8094 147.573 50.9044 147.598 50.9995 147.941C51.063 148.284 51.1581 148.284 51.38 148.014ZM60.6361 148.088C61.4286 148.064 61.3018 148.186 60.1606 148.652C59.495 148.897 59.0828 148.946 59.0194 148.774C58.956 148.652 58.7024 148.53 58.4489 148.53C58.1953 148.53 58.0051 148.358 58.0051 148.137C58.0051 147.818 58.1953 147.769 59.0511 147.917C59.5901 148.014 60.3191 148.088 60.6361 148.088ZM67.1978 148.039C67.1978 148.161 67.0393 148.284 66.8491 148.284C66.6906 148.284 66.6273 148.161 66.7223 148.039C66.8174 147.892 66.9759 147.794 67.071 147.794C67.1344 147.794 67.1978 147.892 67.1978 148.039ZM52.2041 148.578C52.109 148.774 52.014 148.701 52.014 148.431C51.9823 148.161 52.0774 148.014 52.1724 148.112C52.2675 148.186 52.2992 148.407 52.2041 148.578ZM57.6882 148.137C57.6882 148.186 57.4661 148.308 57.1809 148.382C56.9273 148.455 56.8005 148.431 56.8956 148.284C57.0858 148.039 57.6882 147.941 57.6882 148.137ZM56.4202 149.117C56.4202 149.191 56.2934 149.314 56.1032 149.387C55.9446 149.461 55.7861 149.411 55.7861 149.289C55.7861 149.142 55.9446 149.02 56.1032 149.02C56.2934 149.02 56.4202 149.068 56.4202 149.117Z" fill="#FAC515"/>
</g>
<defs>
<clipPath id="clip0_12324_3394">
<rect width="106" height="150" fill="white"/>
</clipPath>
</defs>
</svg>
