<svg width="123" height="98" viewBox="0 0 123 98" fill="none" xmlns="http://www.w3.org/2000/svg">
<path d="M72.0011 5.81859L118.193 5.58872e-05C118.674 3.50935 119.232 7.1502 119.865 10.9226C120.331 14.1607 120.824 17.8734 121.346 22.0607C121.86 26.1124 122.247 30.3077 122.506 34.6468C123.388 49.4267 120.642 61.5655 114.269 71.0631C108.023 80.417 97.1776 87.9363 81.7318 93.6208L75.2569 77.4737C79.9623 76.5125 84.0211 74.9775 87.4333 72.8688C90.8374 70.6245 93.6111 68.0775 95.7544 65.2281C97.8976 62.3786 99.4145 59.2943 100.305 55.9753C101.323 52.5126 101.735 49.1541 101.541 45.8998L74.4895 47.5142L72.0011 5.81859ZM-0.000171214 10.1157L46.3948 4.28503C46.8764 7.79433 47.4339 11.4352 48.0673 15.2076C48.5327 18.4457 48.9586 22.1624 49.3451 26.3578C49.8591 30.4095 50.2455 34.6048 50.5045 38.9439C51.3866 53.7238 48.641 65.8626 42.2678 75.3602C36.0222 84.7141 25.1764 92.2334 9.73055 97.9179L3.25569 81.7708C7.96108 80.8096 11.9521 79.2787 15.2287 77.178C18.6328 74.9337 21.4064 72.3868 23.5497 69.5373C25.6849 66.5522 27.1978 63.4002 28.0883 60.0811C28.9789 56.7621 29.327 53.4754 29.1328 50.2211L2.48827 51.8113L-0.000171214 10.1157Z" fill="#19D7C4"/>
</svg>
