<svg width="102" height="105" viewBox="0 0 102 105" fill="none" xmlns="http://www.w3.org/2000/svg">
<rect x="0.274519" y="1.02452" width="8.60765" height="57.5068" rx="4.30383" transform="matrix(-0.5 0.866026 0.866025 0.5 26.9796 52.828)" fill="black" stroke="black" stroke-width="1.5"/>
<rect x="72.1337" y="20.7965" width="8.60765" height="57.5068" rx="4.30383" transform="rotate(60 72.1337 20.7965)" fill="black" stroke="black" stroke-width="1.5"/>
<path d="M17.2207 38.5143C26.317 38.5144 33.6914 45.8887 33.6914 54.985C33.6913 64.0813 26.317 71.4557 17.2207 71.4557C8.12434 71.4557 0.750088 64.0814 0.75 54.985C0.75 45.8886 8.12428 38.5143 17.2207 38.5143Z" fill="black" stroke="black" stroke-width="1.5"/>
<path d="M77.6445 3.1669C86.7409 3.167 94.1152 10.5412 94.1152 19.6376C94.1151 28.7339 86.7408 36.1082 77.6445 36.1083C68.5482 36.1083 61.1739 28.734 61.1738 19.6376C61.1738 10.5412 68.5481 3.1669 77.6445 3.1669Z" fill="black" stroke="black" stroke-width="1.5"/>
<path d="M77.6445 71.1428C86.7409 71.1429 94.1152 78.5171 94.1152 87.6135C94.1151 96.7098 86.7408 104.084 77.6445 104.084C68.5482 104.084 61.1739 96.7098 61.1738 87.6135C61.1738 78.517 68.5481 71.1428 77.6445 71.1428Z" fill="black" stroke="black" stroke-width="1.5"/>
<rect x="72.1337" y="17.2451" width="8.60765" height="57.5068" rx="4.30383" transform="rotate(60 72.1337 17.2451)" fill="white" stroke="black" stroke-width="1.5"/>
<rect x="0.274519" y="1.02452" width="8.60765" height="57.5068" rx="4.30383" transform="matrix(-0.5 0.866026 0.866025 0.5 26.9796 49.5498)" fill="white" stroke="black" stroke-width="1.5"/>
<path d="M19.334 36.0974C28.4303 36.0975 35.8047 43.4718 35.8047 52.5681C35.8046 61.6644 28.4303 69.0388 19.334 69.0388C10.2376 69.0388 2.86337 61.6645 2.86328 52.5681C2.86328 43.4717 10.2376 36.0974 19.334 36.0974Z" fill="white" stroke="black" stroke-width="1.5"/>
<path d="M79.7578 0.75C88.8542 0.750096 96.2285 8.12433 96.2285 17.2207C96.2284 26.317 88.8541 33.6913 79.7578 33.6914C70.6614 33.6914 63.2872 26.3171 63.2871 17.2207C63.2871 8.12427 70.6614 0.75 79.7578 0.75Z" fill="white" stroke="black" stroke-width="1.5"/>
<path d="M79.7568 7.09439C85.3493 7.09439 89.8827 11.6279 89.8828 17.2204C89.8828 22.8129 85.3493 27.3463 79.7568 27.3463C74.1644 27.3463 69.6309 22.8128 69.6309 17.2204C69.6309 11.628 74.1645 7.09447 79.7568 7.09439Z" fill="white" stroke="black" stroke-width="1.5"/>
<path d="M19.335 42.4418C24.9274 42.4418 29.4609 46.9754 29.4609 52.5678C29.4609 58.1603 24.9275 62.6938 19.335 62.6938C13.7425 62.6937 9.20898 58.1603 9.20898 52.5678C9.20907 46.9754 13.7426 42.4419 19.335 42.4418Z" fill="white" stroke="black" stroke-width="1.5"/>
<mask id="path-12-inside-1_12691_8323" fill="white">
<path d="M79.7686 6.38608C85.8033 6.38608 90.6961 11.2781 90.6963 17.3128C90.6963 21.3824 88.4695 24.9293 85.1699 26.8099C87.227 24.8229 88.5087 22.0384 88.5088 18.9525C88.5088 12.9176 83.616 8.02475 77.5811 8.02475C75.6158 8.02482 73.7731 8.54628 72.1797 9.45444C74.1454 7.55577 76.8198 6.38619 79.7686 6.38608Z"/>
</mask>
<path d="M79.7686 6.38608C85.8033 6.38608 90.6961 11.2781 90.6963 17.3128C90.6963 21.3824 88.4695 24.9293 85.1699 26.8099C87.227 24.8229 88.5087 22.0384 88.5088 18.9525C88.5088 12.9176 83.616 8.02475 77.5811 8.02475C75.6158 8.02482 73.7731 8.54628 72.1797 9.45444C74.1454 7.55577 76.8198 6.38619 79.7686 6.38608Z" fill="black"/>
<path d="M79.7686 6.38608V4.88608H79.7685L79.7686 6.38608ZM90.6963 17.3128H92.1963V17.3128L90.6963 17.3128ZM85.1699 26.8099L84.1278 25.731L85.9127 28.1131L85.1699 26.8099ZM88.5088 18.9525L90.0088 18.9525V18.9525H88.5088ZM77.5811 8.02475V6.52475H77.581L77.5811 8.02475ZM72.1797 9.45444L71.1376 8.37555L72.9225 10.7576L72.1797 9.45444ZM79.7686 6.38608V7.88608C84.975 7.88608 89.1961 12.1067 89.1963 17.3129L90.6963 17.3128L92.1963 17.3128C92.196 10.4496 86.6316 4.88608 79.7686 4.88608V6.38608ZM90.6963 17.3128H89.1963C89.1963 20.8208 87.2786 23.8815 84.4272 25.5067L85.1699 26.8099L85.9127 28.1131C89.6604 25.9771 92.1963 21.944 92.1963 17.3128H90.6963ZM85.1699 26.8099L86.2121 27.8888C88.5487 25.6317 90.0087 22.463 90.0088 18.9525L88.5088 18.9525L87.0088 18.9525C87.0088 21.6137 85.9053 24.0141 84.1278 25.731L85.1699 26.8099ZM88.5088 18.9525H90.0088C90.0088 12.0891 84.4444 6.52475 77.5811 6.52475V8.02475V9.52475C82.7875 9.52475 87.0088 13.746 87.0088 18.9525H88.5088ZM77.5811 8.02475L77.581 6.52475C75.347 6.52484 73.2492 7.1183 71.4369 8.15125L72.1797 9.45444L72.9225 10.7576C74.2969 9.97425 75.8847 9.52481 77.5811 9.52475L77.5811 8.02475ZM72.1797 9.45444L73.2218 10.5333C74.9196 8.89336 77.2248 7.88618 79.7686 7.88608L79.7686 6.38608L79.7685 4.88608C76.4148 4.88621 73.3711 6.21818 71.1376 8.37555L72.1797 9.45444Z" fill="black" mask="url(#path-12-inside-1_12691_8323)"/>
<mask id="path-14-inside-2_12691_8323" fill="white">
<path d="M19.3975 41.6263C25.4322 41.6263 30.325 46.5184 30.3252 52.5531C30.3252 56.6224 28.099 60.1695 24.7998 62.0502C26.8565 60.0632 28.1377 57.2784 28.1377 54.1927C28.1377 48.1578 23.2449 43.265 17.21 43.265C15.2448 43.2651 13.402 43.7865 11.8086 44.6947C13.7743 42.796 16.4487 41.6265 19.3975 41.6263Z"/>
</mask>
<path d="M19.3975 41.6263C25.4322 41.6263 30.325 46.5184 30.3252 52.5531C30.3252 56.6224 28.099 60.1695 24.7998 62.0502C26.8565 60.0632 28.1377 57.2784 28.1377 54.1927C28.1377 48.1578 23.2449 43.265 17.21 43.265C15.2448 43.2651 13.402 43.7865 11.8086 44.6947C13.7743 42.796 16.4487 41.6265 19.3975 41.6263Z" fill="black"/>
<path d="M19.3975 41.6263V40.1263H19.3974L19.3975 41.6263ZM30.3252 52.5531H31.8252V52.553L30.3252 52.5531ZM24.7998 62.0502L23.7576 60.9714L25.5427 63.3533L24.7998 62.0502ZM28.1377 54.1927L29.6377 54.1928V54.1927H28.1377ZM17.21 43.265V41.765H17.2099L17.21 43.265ZM11.8086 44.6947L10.7665 43.6158L12.5514 45.9979L11.8086 44.6947ZM19.3975 41.6263V43.1263C24.6039 43.1263 28.825 47.3469 28.8252 52.5532L30.3252 52.5531L31.8252 52.553C31.8249 45.6898 26.2605 40.1263 19.3975 40.1263V41.6263ZM30.3252 52.5531H28.8252C28.8252 56.061 26.9079 59.1218 24.0569 60.747L24.7998 62.0502L25.5427 63.3533C29.29 61.2171 31.8252 57.1838 31.8252 52.5531H30.3252ZM24.7998 62.0502L25.842 63.129C28.1784 60.8718 29.6377 57.7027 29.6377 54.1928L28.1377 54.1927L26.6377 54.1927C26.6377 56.854 25.5346 59.2546 23.7576 60.9714L24.7998 62.0502ZM28.1377 54.1927H29.6377C29.6377 47.3294 24.0733 41.765 17.21 41.765V43.265V44.765C22.4165 44.765 26.6377 48.9863 26.6377 54.1927H28.1377ZM17.21 43.265L17.2099 41.765C14.9759 41.7651 12.8781 42.3586 11.0658 43.3915L11.8086 44.6947L12.5514 45.9979C13.9258 45.2145 15.5136 44.7651 17.21 44.765L17.21 43.265ZM11.8086 44.6947L12.8507 45.7736C14.5485 44.1336 16.8537 43.1264 19.3975 43.1263L19.3975 41.6263L19.3974 40.1263C16.0438 40.1265 13 41.4584 10.7665 43.6158L11.8086 44.6947Z" fill="black" mask="url(#path-14-inside-2_12691_8323)"/>
<path d="M79.7578 68.7258C88.8542 68.7259 96.2285 76.1002 96.2285 85.1965C96.2284 94.2928 88.8541 101.667 79.7578 101.667C70.6614 101.667 63.2872 94.2929 63.2871 85.1965C63.2871 76.1001 70.6614 68.7258 79.7578 68.7258Z" fill="white" stroke="black" stroke-width="1.5"/>
<path d="M79.7568 74.7681C85.3396 74.7681 89.8828 79.3597 89.8828 85.0455C89.8827 90.7311 85.3396 95.3228 79.7568 95.3228C74.1742 95.3227 69.6309 90.7311 69.6309 85.0455C69.6309 79.3598 74.1741 74.7682 79.7568 74.7681Z" fill="white" stroke="black" stroke-width="1.5"/>
<mask id="path-18-inside-3_12691_8323" fill="white">
<path d="M79.7686 74.1347C85.8033 74.1347 90.6961 79.0267 90.6963 85.0615C90.6963 89.1307 88.4701 92.6778 85.1709 94.5585C87.2276 92.5715 88.5088 89.7867 88.5088 86.7011C88.5088 80.6662 83.616 75.7734 77.5811 75.7734C75.6158 75.7735 73.7731 76.2949 72.1797 77.2031C74.1454 75.3044 76.8198 74.1348 79.7686 74.1347Z"/>
</mask>
<path d="M79.7686 74.1347C85.8033 74.1347 90.6961 79.0267 90.6963 85.0615C90.6963 89.1307 88.4701 92.6778 85.1709 94.5585C87.2276 92.5715 88.5088 89.7867 88.5088 86.7011C88.5088 80.6662 83.616 75.7734 77.5811 75.7734C75.6158 75.7735 73.7731 76.2949 72.1797 77.2031C74.1454 75.3044 76.8198 74.1348 79.7686 74.1347Z" fill="black"/>
<path d="M79.7686 74.1347V72.6347H79.7685L79.7686 74.1347ZM90.6963 85.0615H92.1963V85.0614L90.6963 85.0615ZM85.1709 94.5585L84.1287 93.4797L85.9138 95.8617L85.1709 94.5585ZM88.5088 86.7011L90.0088 86.7011V86.7011H88.5088ZM77.5811 75.7734V74.2734H77.581L77.5811 75.7734ZM72.1797 77.2031L71.1376 76.1242L72.9225 78.5063L72.1797 77.2031ZM79.7686 74.1347V75.6347C84.975 75.6347 89.1961 79.8553 89.1963 85.0615L90.6963 85.0615L92.1963 85.0614C92.196 78.1982 86.6316 72.6347 79.7686 72.6347V74.1347ZM90.6963 85.0615H89.1963C89.1963 88.5693 87.279 91.6302 84.428 93.2554L85.1709 94.5585L85.9138 95.8617C89.6611 93.7255 92.1963 89.6922 92.1963 85.0615H90.6963ZM85.1709 94.5585L86.2131 95.6373C88.5495 93.3801 90.0088 90.2111 90.0088 86.7011L88.5088 86.7011L87.0088 86.7011C87.0088 89.3624 85.9057 91.7629 84.1287 93.4797L85.1709 94.5585ZM88.5088 86.7011H90.0088C90.0088 79.8378 84.4444 74.2734 77.5811 74.2734V75.7734V77.2734C82.7875 77.2734 87.0088 81.4946 87.0088 86.7011H88.5088ZM77.5811 75.7734L77.581 74.2734C75.347 74.2735 73.2492 74.8669 71.4369 75.8999L72.1797 77.2031L72.9225 78.5063C74.2969 77.7229 75.8847 77.2734 77.5811 77.2734L77.5811 75.7734ZM72.1797 77.2031L73.2218 78.282C74.9196 76.642 77.2248 75.6348 79.7686 75.6347L79.7686 74.1347L79.7685 72.6347C76.4148 72.6348 73.3711 73.9668 71.1376 76.1242L72.1797 77.2031Z" fill="black" mask="url(#path-18-inside-3_12691_8323)"/>
<path d="M36.5557 83.8315C36.9119 83.8315 37.2186 83.5809 37.29 83.2319L38.7305 76.1938L45.7695 74.7524C46.1185 74.6809 46.3691 74.3743 46.3691 74.0181C46.3691 73.6619 46.1184 73.3552 45.7695 73.2837L38.7305 71.8433L37.29 64.8042C37.2186 64.4553 36.9118 64.2046 36.5557 64.2046C36.1995 64.2046 35.8928 64.4553 35.8213 64.8042L34.3799 71.8433L27.3418 73.2837C26.9928 73.3551 26.7422 73.6619 26.7422 74.0181C26.7422 74.3743 26.9928 74.681 27.3418 74.7524L34.3799 76.1938L35.8213 83.2319L35.8584 83.3579C35.9699 83.6397 36.244 83.8315 36.5557 83.8315Z" fill="white" stroke="black" stroke-width="1.5" stroke-linejoin="round"/>
<path d="M91.6914 37.9101C92.0475 37.9099 92.3544 37.6594 92.4258 37.3105L93.7373 30.8994L100.149 29.5869C100.498 29.5154 100.749 29.2078 100.749 28.8515C100.749 28.4954 100.498 28.1885 100.149 28.1171L93.7373 26.8056L92.4258 20.3935C92.3544 20.0446 92.0475 19.7941 91.6914 19.7939C91.3351 19.7939 91.0275 20.0445 90.9561 20.3935L89.6436 26.8056L83.2324 28.1171C82.8836 28.1885 82.633 28.4954 82.6328 28.8515C82.6328 29.2078 82.8834 29.5154 83.2324 29.5869L89.6436 30.8994L90.9561 37.3105L90.9941 37.4365C91.1057 37.7181 91.3798 37.9101 91.6914 37.9101Z" fill="white" stroke="black" stroke-width="1.5" stroke-linejoin="round"/>
</svg>
