<svg width="151" height="140" viewBox="0 0 151 140" fill="none" xmlns="http://www.w3.org/2000/svg">
<path d="M121.698 84.6642L107.513 72.16C102.927 68.1178 95.9332 68.5582 91.8909 73.1437C87.8486 77.7293 88.289 84.7235 92.8746 88.7658L107.059 101.27C111.645 105.312 118.639 104.872 122.681 100.286C126.724 95.7007 126.283 88.7065 121.698 84.6642Z" fill="black" stroke="black" stroke-width="1.5"/>
<rect x="72.6489" y="118.2" width="30.4096" height="10.0229" rx="5.01144" transform="rotate(-48.603 72.6489 118.2)" fill="black" stroke="black" stroke-width="1.5"/>
<rect x="70.2172" y="116.055" width="30.4096" height="10.0229" rx="5.01144" transform="rotate(-48.603 70.2172 116.055)" fill="white" stroke="black" stroke-width="1.5"/>
<rect x="87.9418" y="95.0516" width="16.523" height="17.1139" rx="8.2615" transform="rotate(-48.603 87.9418 95.0516)" fill="black" stroke="black" stroke-width="1.5"/>
<rect x="85.7231" y="93.0971" width="16.523" height="17.1139" rx="8.2615" transform="rotate(-48.603 85.7231 93.0971)" fill="white" stroke="black" stroke-width="1.5"/>
<path d="M67.2362 18.753L65.7721 32.3573L74.3856 42.0869L63.5889 38.5943L54.5999 46.7039L51.9814 59.8009L49.6555 50.6132L35.4686 57.6535L45.5914 45.473L28.6765 36.0419L47.4068 36.0183L41.1481 28.1025L52.3001 30.5623L50.6171 18.6944L59.9239 30.4655L67.2362 18.753Z" fill="white" stroke="black" stroke-width="1.5"/>
<path d="M119.25 82.5115L105.066 70.0074C100.48 65.9651 93.4859 66.4055 89.4436 70.991C85.4014 75.5766 85.8418 82.5708 90.4273 86.6131L104.612 99.1172C109.197 103.16 116.192 102.719 120.234 98.1336C124.276 93.548 123.836 86.5538 119.25 82.5115Z" fill="white" stroke="black" stroke-width="1.5"/>
<path d="M119.095 88.9546L106.018 77.4273" stroke="black" stroke-width="1.5" stroke-linecap="round"/>
<path d="M116.099 94.5875L103.022 83.0601" stroke="black" stroke-width="1.5" stroke-linecap="round"/>
<path d="M111.091 98.0437L98.0141 86.5163" stroke="black" stroke-width="1.5" stroke-linecap="round"/>
<mask id="path-11-inside-1_12691_8257" fill="white">
<path d="M42.4677 71.3246L46.0837 71.8096C60.4265 73.7315 74.3314 78.1097 87.188 84.7519L87.2448 84.6874C88.927 85.2315 93.1652 82.3264 97.1622 77.7922C101.159 73.258 103.51 68.6888 102.759 67.0883L102.818 67.0209C94.616 55.099 88.5282 41.8531 84.8224 27.8646L83.8877 24.338L42.4677 71.3246Z"/>
</mask>
<path d="M42.4677 71.3246L46.0837 71.8096C60.4265 73.7315 74.3314 78.1097 87.188 84.7519L87.2448 84.6874C88.927 85.2315 93.1652 82.3264 97.1622 77.7922C101.159 73.258 103.51 68.6888 102.759 67.0883L102.818 67.0209C94.616 55.099 88.5282 41.8531 84.8224 27.8646L83.8877 24.338L42.4677 71.3246Z" fill="white"/>
<path d="M42.4677 71.3246L42.2683 72.8113L39.4864 72.4382L41.3425 70.3327L42.4677 71.3246ZM46.0837 71.8096L45.8845 73.2963L45.8843 73.2963L46.0837 71.8096ZM87.188 84.7519L88.3132 85.7438L87.5393 86.6217L86.4995 86.0845L87.188 84.7519ZM87.2448 84.6874L86.1196 83.6955L86.7703 82.9574L87.7065 83.2602L87.2448 84.6874ZM97.1622 77.7922L98.2874 78.7841L98.2874 78.7841L97.1622 77.7922ZM102.759 67.0883L101.401 67.7254L100.983 66.8345L101.634 66.0964L102.759 67.0883ZM102.818 67.0209L104.054 66.1707L104.717 67.1349L103.944 68.0128L102.818 67.0209ZM84.8224 27.8646L86.2723 27.4803L86.2724 27.4805L84.8224 27.8646ZM83.8877 24.338L82.7625 23.3461L84.6185 21.2406L85.3376 23.9537L83.8877 24.338ZM42.4677 71.3246L42.6671 69.838L46.2831 70.3229L46.0837 71.8096L45.8843 73.2963L42.2683 72.8113L42.4677 71.3246ZM46.0837 71.8096L46.2829 70.3229C60.7965 72.2677 74.8668 76.698 87.8765 83.4192L87.188 84.7519L86.4995 86.0845C73.7959 79.5214 60.0566 75.1953 45.8845 73.2963L46.0837 71.8096ZM87.188 84.7519L86.0628 83.7599L86.1196 83.6955L87.2448 84.6874L88.3701 85.6793L88.3132 85.7438L87.188 84.7519ZM87.2448 84.6874L87.7065 83.2602C87.628 83.2348 87.8031 83.3071 88.4055 83.0764C88.9509 82.8675 89.6542 82.4837 90.4816 81.9109C92.1295 80.77 94.0993 78.9984 96.037 76.8003L97.1622 77.7922L98.2874 78.7841C96.2281 81.1202 94.0803 83.0682 92.1893 84.3774C91.2473 85.0296 90.3258 85.5534 89.4785 85.878C88.6882 86.1806 87.7027 86.412 86.7832 86.1146L87.2448 84.6874ZM97.1622 77.7922L96.037 76.8003C97.9747 74.6022 99.4852 72.4257 100.41 70.6477C100.875 69.755 101.167 69.0091 101.306 68.4419C101.46 67.8153 101.366 67.6507 101.401 67.7254L102.759 67.0883L104.117 66.4512C104.527 67.3262 104.421 68.3329 104.22 69.1549C104.005 70.0362 103.601 71.0161 103.072 72.0325C102.01 74.0729 100.347 76.4481 98.2874 78.7841L97.1622 77.7922ZM102.759 67.0883L101.634 66.0964L101.693 66.029L102.818 67.0209L103.944 68.0128L103.884 68.0802L102.759 67.0883ZM102.818 67.0209L101.583 67.8711C93.2826 55.8073 87.1223 42.4037 83.3724 28.2487L84.8224 27.8646L86.2724 27.4805C89.9341 41.3025 95.9494 54.3906 104.054 66.1707L102.818 67.0209ZM84.8224 27.8646L83.3725 28.2489L82.4378 24.7223L83.8877 24.338L85.3376 23.9537L86.2723 27.4803L84.8224 27.8646ZM83.8877 24.338L85.0129 25.3299L43.5929 72.3166L42.4677 71.3246L41.3425 70.3327L82.7625 23.3461L83.8877 24.338Z" fill="black" mask="url(#path-11-inside-1_12691_8257)"/>
<path d="M82.48 23.704C81.5852 22.9152 80.189 22.6144 78.2626 22.931C76.3432 23.2465 74.0153 24.1603 71.4235 25.6283C66.2465 28.5607 60.1646 33.6199 54.4318 40.1232C48.699 46.6265 44.4426 53.2949 42.1828 58.7988C41.0515 61.5542 40.4369 63.9785 40.3647 65.9222C40.2922 67.873 40.7658 69.2206 41.6606 70.0094C42.5553 70.7979 43.9512 71.0982 45.8772 70.7817C47.7965 70.4662 50.1246 69.5524 52.7163 68.0844C57.8933 65.1521 63.9751 60.0928 69.708 53.5895C75.4408 47.0862 79.6972 40.4179 81.957 34.9139C83.0883 32.1584 83.7029 29.7342 83.7751 27.7905C83.8476 25.8398 83.3746 24.4928 82.48 23.704Z" fill="white" stroke="black" stroke-width="1.5"/>
<path d="M78.7741 27.9168C78.2148 27.4239 77.2473 27.2302 75.7539 27.5652C74.2807 27.8958 72.4568 28.7101 70.3954 29.9756C66.2807 32.5017 61.3678 36.7328 56.6552 42.0786C51.9428 47.4244 48.3614 52.8293 46.3713 57.2284C45.3743 59.4324 44.7947 61.3446 44.6515 62.8477C44.5065 64.3712 44.82 65.3069 45.3792 65.7999C45.9384 66.2929 46.906 66.4865 48.3993 66.1515C49.8726 65.8209 51.697 65.006 53.7585 63.7404C57.8733 61.2143 62.7861 56.9832 67.4986 51.6374C72.2111 46.2915 75.7926 40.8867 77.7826 36.4876C78.7795 34.2837 79.3586 32.3721 79.5017 30.869C79.6468 29.3455 79.3333 28.4098 78.7741 27.9168Z" fill="white" stroke="black" stroke-width="1.5"/>
<mask id="path-15-inside-2_12691_8257" fill="white">
<path d="M79.2604 27.3523C75.9552 24.4394 65.5777 30.81 56.0823 41.5815C46.587 52.353 41.5691 63.4469 44.8736 66.3606C46.4604 67.7594 49.6761 67.0161 53.6431 64.6751C55.6194 60.096 59.3427 54.4083 64.2784 48.8092C69.2154 43.2088 74.3921 38.8009 78.6876 36.2662C80.5132 32.0361 80.8474 28.7513 79.2604 27.3523Z"/>
</mask>
<path d="M79.2604 27.3523C75.9552 24.4394 65.5777 30.81 56.0823 41.5815C46.587 52.353 41.5691 63.4469 44.8736 66.3606C46.4604 67.7594 49.6761 67.0161 53.6431 64.6751C55.6194 60.096 59.3427 54.4083 64.2784 48.8092C69.2154 43.2088 74.3921 38.8009 78.6876 36.2662C80.5132 32.0361 80.8474 28.7513 79.2604 27.3523Z" fill="black"/>
<path d="M79.2604 27.3523L80.2522 26.227L80.2523 26.2271L79.2604 27.3523ZM56.0823 41.5815L54.9571 40.5896L54.9571 40.5896L56.0823 41.5815ZM44.8736 66.3606L43.8816 67.4858L43.8815 67.4857L44.8736 66.3606ZM53.6431 64.6751L55.0203 65.2695L54.8266 65.7184L54.4055 65.9669L53.6431 64.6751ZM64.2784 48.8092L63.1532 47.8173L63.1532 47.8173L64.2784 48.8092ZM78.6876 36.2662L80.0649 36.8605L79.8711 37.3095L79.4499 37.558L78.6876 36.2662ZM79.2604 27.3523L78.2686 28.4777C77.9763 28.22 77.3093 27.9812 75.9082 28.2956C74.5474 28.601 72.8034 29.3698 70.7775 30.6136C66.742 33.091 61.8849 37.2675 57.2076 42.5734L56.0823 41.5815L54.9571 40.5896C59.7752 35.124 64.8545 30.7295 69.2079 28.0569C71.3764 26.7257 73.44 25.7749 75.2513 25.3684C77.0222 24.971 78.8919 25.0281 80.2522 26.227L79.2604 27.3523ZM56.0823 41.5815L57.2076 42.5734C52.5303 47.8793 48.9962 53.2217 47.0447 57.5359C46.065 59.7018 45.521 61.5284 45.3888 62.9166C45.2527 64.3461 45.5733 64.9778 45.8656 65.2355L44.8736 66.3606L43.8815 67.4857C42.5215 66.2866 42.2303 64.4389 42.4023 62.6322C42.5783 60.7842 43.2627 58.6178 44.3113 56.2995C46.4166 51.6454 50.1391 46.0552 54.9571 40.5896L56.0823 41.5815ZM44.8736 66.3606L45.8655 65.2354C46.1453 65.482 46.7675 65.7137 48.0678 65.4502C49.3376 65.1929 50.9703 64.5107 52.8808 63.3833L53.6431 64.6751L54.4055 65.9669C52.349 67.1805 50.3903 68.0405 48.6637 68.3904C46.9677 68.7341 45.1886 68.638 43.8816 67.4858L44.8736 66.3606ZM53.6431 64.6751L52.2659 64.0807C54.3217 59.3175 58.1456 53.4979 63.1532 47.8173L64.2784 48.8092L65.4037 49.8011C60.5398 55.3187 56.9172 60.8745 55.0203 65.2695L53.6431 64.6751ZM64.2784 48.8092L63.1532 47.8173C68.162 42.1354 73.457 37.611 77.9254 34.9743L78.6876 36.2662L79.4499 37.558C75.3271 39.9908 70.2687 44.2822 65.4036 49.8011L64.2784 48.8092ZM78.6876 36.2662L77.3104 35.6718C78.1896 33.6347 78.6618 31.9288 78.7578 30.6364C78.8563 29.3127 78.5483 28.7242 78.2685 28.4775L79.2604 27.3523L80.2523 26.2271C81.5595 27.3794 81.8779 29.1328 81.7496 30.8588C81.6189 32.616 81.0112 34.6676 80.0649 36.8605L78.6876 36.2662Z" fill="black" mask="url(#path-15-inside-2_12691_8257)"/>
<mask id="path-17-inside-3_12691_8257" fill="white">
<path d="M73.839 44.7732C73.3134 44.2571 72.7201 43.7905 72.0613 43.3858L60.0288 35.9956L50.2601 47.0771L59.1013 58.0876C59.5522 58.6492 60.0507 59.146 60.5839 59.5808C63.0417 57.4554 65.5815 54.9438 68.0607 52.1315C70.2379 49.6617 72.1789 47.1744 73.839 44.7732Z"/>
</mask>
<path d="M73.839 44.7732C73.3134 44.2571 72.7201 43.7905 72.0613 43.3858L60.0288 35.9956L50.2601 47.0771L59.1013 58.0876C59.5522 58.6492 60.0507 59.146 60.5839 59.5808C63.0417 57.4554 65.5815 54.9438 68.0607 52.1315C70.2379 49.6617 72.1789 47.1744 73.839 44.7732Z" fill="white"/>
<path d="M73.839 44.7732L74.89 43.703L75.7909 44.5876L75.0728 45.6263L73.839 44.7732ZM72.0613 43.3858L72.8463 42.1076L72.8464 42.1077L72.0613 43.3858ZM60.0288 35.9956L58.9036 35.0037L59.7382 34.0569L60.8138 34.7175L60.0288 35.9956ZM50.2601 47.0771L49.0905 48.0163L48.3002 47.0321L49.1349 46.0852L50.2601 47.0771ZM59.1013 58.0876L57.9317 59.0269L57.9317 59.0268L59.1013 58.0876ZM60.5839 59.5808L61.5651 60.7154L60.6123 61.5394L59.636 60.7433L60.5839 59.5808ZM68.0607 52.1315L69.1859 53.1234L69.1859 53.1234L68.0607 52.1315ZM73.839 44.7732L72.788 45.8435C72.3428 45.4063 71.8387 45.0094 71.2762 44.6639L72.0613 43.3858L72.8464 42.1077C73.6015 42.5715 74.2839 43.1079 74.89 43.703L73.839 44.7732ZM72.0613 43.3858L71.2763 44.664L59.2437 37.2738L60.0288 35.9956L60.8138 34.7175L72.8463 42.1076L72.0613 43.3858ZM60.0288 35.9956L61.154 36.9875L51.3854 48.069L50.2601 47.0771L49.1349 46.0852L58.9036 35.0037L60.0288 35.9956ZM50.2601 47.0771L51.4297 46.138L60.2709 57.1485L59.1013 58.0876L57.9317 59.0268L49.0905 48.0163L50.2601 47.0771ZM59.1013 58.0876L60.2708 57.1484C60.654 57.6256 61.0778 58.0481 61.5319 58.4183L60.5839 59.5808L59.636 60.7433C59.0237 60.244 58.4504 59.6727 57.9317 59.0269L59.1013 58.0876ZM60.5839 59.5808L59.6028 58.4462C62.0064 56.3676 64.4984 53.9042 66.9355 51.1396L68.0607 52.1315L69.1859 53.1234C66.6646 55.9835 64.077 58.5432 61.5651 60.7154L60.5839 59.5808ZM68.0607 52.1315L66.9355 51.1396C69.0754 48.712 70.9799 46.271 72.6052 43.9202L73.839 44.7732L75.0728 45.6263C73.3779 48.0778 71.4003 50.6113 69.1859 53.1234L68.0607 52.1315Z" fill="black" mask="url(#path-17-inside-3_12691_8257)"/>
<path d="M56.0839 50.8849C56.7347 50.6173 57.5451 50.1147 58.4387 49.3969C59.3271 48.6834 60.2448 47.8 61.104 46.8276C61.9632 45.8553 62.7287 44.834 63.3305 43.861C63.9358 42.8824 64.3396 42.0106 64.5302 41.3246" stroke="black" stroke-width="1.5" stroke-linecap="round" stroke-linejoin="round"/>
<path d="M59.6445 36.6565C59.597 36.6147 59.4552 36.5341 59.0873 36.5871C58.7231 36.6396 58.2387 36.8128 57.6602 37.1308C56.5094 37.7637 55.1305 38.89 53.8236 40.3725C52.5168 41.855 51.5723 43.3642 51.0888 44.5854C50.8459 45.199 50.7355 45.7008 50.729 46.0687C50.7226 46.4404 50.8203 46.5709 50.8678 46.6127C50.9152 46.6546 51.0569 46.7352 51.425 46.6821C51.7891 46.6296 52.273 46.4571 52.8514 46.1391C54.0023 45.5063 55.381 44.38 56.688 42.8975C57.9948 41.415 58.9393 39.9057 59.4228 38.6846C59.6658 38.0708 59.7768 37.5684 59.7832 37.2006C59.7896 36.8289 59.6919 36.6983 59.6445 36.6565Z" fill="white" stroke="black" stroke-width="1.5"/>
<rect x="85.2834" y="109.645" width="2.63642" height="7.95469" rx="1.31821" transform="rotate(-138.603 85.2834 109.645)" fill="black" stroke="black" stroke-width="1.5"/>
<rect x="84.6233" y="109.061" width="2.93188" height="7.95469" rx="1.46594" transform="rotate(-138.603 84.6233 109.061)" fill="white" stroke="black" stroke-width="1.5"/>
<path d="M64.1575 113.074C63.8384 112.915 63.6743 112.554 63.7654 112.21L65.5611 105.429L60.0303 101.113C59.7494 100.894 59.6617 100.507 59.8201 100.187C59.9786 99.8687 60.3395 99.7051 60.6837 99.7963L67.4653 101.592L71.7806 96.0611C71.9998 95.7802 72.3868 95.6925 72.7059 95.8509C73.0247 96.0094 73.1883 96.3703 73.0971 96.7145L71.3019 103.497L76.8323 107.811C77.113 108.031 77.201 108.417 77.0429 108.736C76.8845 109.055 76.5233 109.219 76.1789 109.128L69.3977 107.333L65.0819 112.863L64.9927 112.959C64.7676 113.162 64.4367 113.212 64.1575 113.074Z" fill="white" stroke="black" stroke-width="1.5" stroke-linejoin="round"/>
<path d="M93.022 43.949C92.7029 43.7906 92.5387 43.4294 92.6299 43.085L94.2657 36.9096L89.2287 32.978C88.9478 32.7589 88.8597 32.3727 89.0181 32.0536C89.1765 31.7345 89.5377 31.5703 89.8821 31.6615L96.0584 33.2978L99.9882 28.2599C100.207 27.979 100.594 27.8913 100.913 28.0497C101.232 28.2081 101.396 28.5689 101.305 28.9133L99.6702 35.0904L104.707 39.0198C104.988 39.239 105.076 39.626 104.917 39.9451C104.759 40.2641 104.398 40.4274 104.054 40.3363L97.8775 38.7022L93.9464 43.7384L93.8571 43.8347C93.632 44.0376 93.3012 44.0875 93.022 43.949Z" fill="white" stroke="black" stroke-width="1.5" stroke-linejoin="round"/>
</svg>
