<svg width="164" height="157" viewBox="0 0 164 157" fill="none" xmlns="http://www.w3.org/2000/svg">
<path d="M92.7932 49.6553L48.6406 49.7615L83.9715 94.2301L125.403 92.0109L92.7932 49.6553ZM84.8389 92.2905L63.0882 64.9139L85.1636 64.8705L106.174 91.1477L84.8389 92.2905ZM86.0675 62.9962L61.6041 63.042L52.5398 51.6324L91.892 51.5389L121.749 90.3195L108.486 91.0301L86.0675 62.9962Z" fill="black"/>
<path d="M97.1142 35.9458L24.2381 35.9912L14.2793 50.9224L70.7143 124.242L140.923 119.603L151.198 104.209L97.1142 35.9458ZM16.5915 50.8393L24.8062 38.522L79.7598 107.851L71.0758 121.626L16.5915 50.8393ZM81.3353 106.819L26.6912 37.8735L96.2109 37.8277L148.161 103.405L81.3353 106.819ZM139.873 117.778L72.9199 122.194L81.4283 108.699L148.207 105.274L139.873 117.778Z" fill="black"/>
<path d="M71.0751 121.626L16.5908 50.8394L24.8055 38.522L79.7574 107.853L71.0751 121.626Z" fill="#19D7C4"/>
<path d="M148.214 105.287L139.879 117.783L72.9297 122.202L81.4382 108.708L148.214 105.287Z" fill="#19D7C4"/>
<path d="M96.21 37.8281L26.6904 37.8739L81.3469 106.829L148.171 103.413L96.21 37.8281ZM83.9713 94.2304L48.6405 49.7617L92.7931 49.6555L125.403 92.0111L83.9713 94.2304Z" fill="#E6E6E6"/>
<path d="M121.733 90.3211L108.471 91.0317L86.0532 62.9978L61.5897 63.0436L52.5254 51.634L91.8776 51.5405L121.733 90.3211Z" fill="#19D7C4"/>
<path d="M131.481 41.3182L130.894 40.8142V40.7438H130.824L106.494 19.8472L81.8682 20.9041L86.0431 70.9443L130.809 41.7591H130.937V41.6815L131.481 41.3182ZM106.144 20.8668L129.35 40.8127L108.762 41.6499L83.7698 21.8332L106.144 20.8668ZM86.8566 68.7615L82.9963 22.4966L107.89 42.2401L86.8566 68.7615ZM88.7725 67.9617L108.846 42.6523L128.84 41.8395L88.7725 67.9617Z" fill="black"/>
<path d="M129.35 40.8127L108.763 41.6499L83.7715 21.8289L106.144 20.8667L129.35 40.8127Z" fill="#19D7C4"/>
<path d="M128.84 41.8398L88.7725 67.962L108.846 42.6526L128.84 41.8398Z" fill="#F0F0F0"/>
<path d="M107.892 42.2401L86.8565 68.7615L82.999 22.4966L107.892 42.2401Z" fill="#F0F0F0"/>
</svg>
