<svg width="81" height="83" viewBox="0 0 81 83" fill="none" xmlns="http://www.w3.org/2000/svg">
<g clip-path="url(#clip0_13092_8799)">
<path d="M80.9403 34.8767L79.984 34.0579V33.9436H79.8697L40.1763 0L0 1.71679L6.81112 83L79.844 35.5927H80.0539V35.4668L80.9403 34.8767ZM39.6048 1.65614L77.4648 34.0556L43.8757 35.4155L3.10232 3.22595L39.6048 1.65614ZM8.13835 79.4545L1.8404 4.3036L42.4529 36.3742L8.13835 79.4545ZM11.264 78.1552L44.0133 37.0436L76.6321 35.7234L11.264 78.1552Z" fill="black"/>
<path d="M77.4646 34.0557L43.8779 35.4156L3.10449 3.21908L39.6046 1.65625L77.4646 34.0557Z" fill="#19D7C4"/>
<path d="M76.6317 35.7231L11.2637 78.155L44.013 37.0434L76.6317 35.7231Z" fill="white"/>
<path d="M42.4572 36.3743L8.13802 79.4546L1.84473 4.30371L42.4572 36.3743Z" fill="white"/>
</g>
<defs>
<clipPath id="clip0_13092_8799">
<rect width="81" height="83" fill="white"/>
</clipPath>
</defs>
</svg>
