<svg width="160" height="24" viewBox="0 0 160 24" fill="none" xmlns="http://www.w3.org/2000/svg">
<g clip-path="url(#clip0_12185_2299)">
<path d="M12 1.5L8.58746 8.415L0.959961 9.5175L6.47996 14.9025L5.17496 22.5L12 18.915L18.825 22.5L17.52 14.9025L23.04 9.525L15.4125 8.415L12 1.5Z" fill="#FAC515"/>
<path d="M46 1.5L42.5875 8.415L34.96 9.5175L40.48 14.9025L39.175 22.5L46 18.915L52.825 22.5L51.52 14.9025L57.04 9.525L49.4125 8.415L46 1.5Z" fill="#FAC515"/>
<path d="M80 1.5L76.5875 8.415L68.96 9.5175L74.48 14.9025L73.175 22.5L80 18.915L86.825 22.5L85.52 14.9025L91.04 9.525L83.4125 8.415L80 1.5Z" fill="#FAC515"/>
<path d="M114 1.5L110.587 8.415L102.96 9.5175L108.48 14.9025L107.175 22.5L114 18.915L120.825 22.5L119.52 14.9025L125.04 9.525L117.412 8.415L114 1.5Z" fill="#FAC515"/>
<path d="M148 1.5L144.587 8.415L136.96 9.5175L142.48 14.9025L141.175 22.5L148 18.915L154.825 22.5L153.52 14.9025L159.04 9.525L151.412 8.415L148 1.5Z" fill="#FAC515"/>
</g>
<defs>
<clipPath id="clip0_12185_2299">
<rect width="160" height="24" fill="white"/>
</clipPath>
</defs>
</svg>
