<svg width="195" height="178" viewBox="0 0 195 178" fill="none" xmlns="http://www.w3.org/2000/svg">
<path fill-rule="evenodd" clip-rule="evenodd" d="M22.6899 14.2717C22.9243 10.8239 23.9752 7.90313 25.9107 5.62167C38.8523 -9.63337 86.4435 9.47372 132.209 48.2986C177.974 87.1234 204.582 130.964 191.641 146.219C189.705 148.5 186.995 150.013 183.632 150.807C183.397 154.254 182.346 157.175 180.411 159.457C178.472 161.742 175.756 163.256 172.385 164.048C172.153 167.503 171.102 170.43 169.163 172.715C156.221 187.97 108.63 168.863 62.8649 130.038C17.0998 91.2132 -9.5089 47.3728 3.43271 32.1178C5.37134 29.8326 8.08747 28.3185 11.4585 27.5262C11.6907 24.0711 12.7419 21.1445 14.6805 18.8594C16.616 16.5779 19.3264 15.065 22.6899 14.2717ZM86.8426 101.774C64.0972 82.4781 46.1877 61.9953 35.5935 44.5403C32.5658 39.5519 30.1586 34.8481 28.4052 30.5205C32.9607 31.5451 37.9939 33.1535 43.4092 35.3276C62.3575 42.935 85.4855 57.2664 108.231 76.5625C130.976 95.8586 148.886 116.341 159.48 133.796C162.508 138.785 164.915 143.489 166.668 147.816C162.113 146.792 157.08 145.183 151.664 143.009C132.716 135.402 109.588 121.07 86.8426 101.774ZM169.375 148.366C161.656 128.05 139.839 100.337 109.731 74.7947C79.6225 49.2524 48.724 32.2442 27.4212 27.94C26.6041 25.6483 25.9864 23.4758 25.5736 21.4375C25.1894 19.5407 24.9884 17.7947 24.9597 16.1973C26.5404 15.9653 28.2958 15.879 30.2299 15.9489C36.8571 16.1882 45.1709 18.2607 54.6569 22.0692C73.6053 29.6766 96.7333 44.008 119.479 63.3041C142.224 82.6001 160.134 103.083 170.728 120.538C176.032 129.276 179.431 137.141 180.748 143.641C181.132 145.538 181.333 147.284 181.362 148.881C179.781 149.113 178.026 149.199 176.091 149.129C174.013 149.054 171.769 148.799 169.375 148.366ZM167.652 150.397C146.35 146.092 115.451 129.084 85.3429 103.542C55.2347 77.9997 33.4177 50.2866 25.6988 29.9703C23.3046 29.5377 21.0604 29.2824 18.9821 29.2073C17.0553 29.1377 15.3058 29.2231 13.7298 29.4531C13.7597 31.0455 13.9607 32.7856 14.3434 34.6752C15.6598 41.1748 19.0596 49.0396 24.3634 57.778C34.9575 75.233 52.867 95.7158 75.6124 115.012C98.3579 134.308 121.486 148.639 140.434 156.247C149.92 160.055 158.234 162.128 164.861 162.367C166.788 162.437 168.538 162.351 170.114 162.121C170.084 160.529 169.883 158.789 169.5 156.899C169.087 154.861 168.469 152.688 167.652 150.397ZM24.8071 27.4681C23.5005 23.5317 22.7675 19.9071 22.6545 16.6708C19.952 17.4027 17.8924 18.6568 16.4483 20.3591C15.001 22.0651 14.0985 24.3079 13.8191 27.1022C17.0268 26.6886 20.7171 26.8217 24.8071 27.4681ZM25.0511 13.8458C25.3327 11.0602 26.2344 8.82362 27.6785 7.12137C30.2574 4.08143 34.7996 2.47064 41.4601 2.71119C48.0873 2.95054 56.4011 5.02301 65.8871 8.83149C84.8355 16.4389 107.964 30.7703 130.709 50.0664C153.454 69.3625 171.364 89.8453 181.958 107.3C187.262 116.039 190.662 123.903 191.978 130.403C193.301 136.935 192.452 141.679 189.873 144.719C188.429 146.421 186.369 147.676 183.667 148.407C182.965 128.314 158.363 93.2519 120.978 61.5363C83.5934 29.8207 44.9898 11.2629 25.0511 13.8458ZM181.27 151.232C180.989 154.018 180.087 156.255 178.643 157.957C177.196 159.663 175.13 160.919 172.418 161.65C172.304 158.418 171.571 154.799 170.266 150.869C174.363 151.516 178.059 151.648 181.27 151.232ZM74.1127 116.78C111.488 148.487 150.081 167.043 170.024 164.472C169.745 167.266 168.842 169.509 167.395 171.215C164.816 174.255 160.274 175.866 153.613 175.625C146.986 175.386 138.672 173.314 129.186 169.505C110.238 161.898 87.1101 147.566 64.3646 128.27C41.6192 108.974 23.7098 88.4914 13.1156 71.0364C7.81185 62.298 4.41199 54.4332 3.09563 47.9336C1.77267 41.4014 2.62157 36.6574 5.2005 33.6175C6.64783 31.9114 8.71349 30.6555 11.4249 29.9243C12.1388 50.0199 36.7375 85.0724 74.1127 116.78Z" fill="#19D7C4"/>
</svg>
