<svg width="48" height="48" viewBox="0 0 48 48" fill="none" xmlns="http://www.w3.org/2000/svg">
<g clip-path="url(#clip0_12705_9279)">
<path d="M48 33C48 32.856 48.054 33.124 48 33V33ZM48 33V45C48 47.072 44.484 48 41 48C37.516 48 34 47.072 34 45V33C34 31 36.906 30.246 40 30.034V29C40 27.346 38.654 26 37 26H25V30.034C28.094 30.246 31 31 31 33V45C31 47.072 27.484 48 24 48C20.516 48 17 47.072 17 45V33C17 31 19.906 30.246 23 30.034V26H11C9.346 26 8 27.346 8 29V30.034C11.094 30.246 14 31 14 33V45C14 47.072 10.484 48 7 48C3.516 48 0 47.072 0 45V33C0 31 2.906 30.246 6 30.034V29C6 26.244 8.244 24 11 24H23V20H17.728C14.82 20 12.374 17.928 12.042 15.182C11.728 12.598 13.22 10.188 15.668 9.326C15.792 9.282 16.002 9.208 16 8.362C15.994 5.73 17.18 2.45 19.85 1.06C22.348 -0.240003 25.01 -0.354003 27.352 0.739997C29.586 1.782 31.238 3.846 31.774 6.262C31.822 6.486 31.99 6.694 32.208 6.806C34.716 8.1 36.196 10.752 35.978 13.556C35.748 16.496 34.178 19.998 28 19.998H25V23.998H37C39.756 23.998 42 26.242 42 28.998V30.032C44.884 30.182 48 31 48 33ZM12.018 41.178C10.682 41.73 8.844 42 7 42C5.156 42 3.334 41.734 2 41.188V45C2.174 45.21 3.906 46 7 46C10.094 46 11.826 45.21 12.026 44.88L12.018 41.178ZM12.004 35.184C10.67 35.732 8.838 36 7 36C5.162 36 3.334 35.734 2 35.188V38.914C2.29 39.26 4.006 40 7 40C10.06 40 11.78 39.23 12.014 38.892L12.004 35.184ZM7 32C4.236 32 2.56 32.63 2.09 33C2.56 33.37 4.236 34 7 34C9.764 34 11.44 33.37 11.91 33C11.44 32.63 9.764 32 7 32ZM29.018 41.178C27.682 41.73 25.844 42 24 42C22.156 42 20.334 41.734 19 41.188V45C19.174 45.21 20.906 46 24 46C27.094 46 28.826 45.21 29.026 44.88L29.018 41.178ZM29.004 35.184C27.67 35.732 25.838 36 24 36C22.162 36 20.334 35.734 19 35.188V38.914C19.29 39.26 21.006 40 24 40C27.06 40 28.78 39.23 29.014 38.892L29.006 35.184H29.004ZM24 32C21.236 32 19.56 32.63 19.09 33C19.56 33.37 21.236 34 24 34C26.764 34 28.44 33.37 28.91 33C28.44 32.63 26.764 32 24 32ZM28 18C33.042 18 33.83 15.376 33.984 13.402C34.14 11.4 33.084 9.508 31.292 8.584C30.55 8.202 30 7.496 29.822 6.698C29.42 4.884 28.182 3.336 26.508 2.556C25.716 2.186 24.872 2.004 24.006 2.004C22.938 2.004 21.84 2.284 20.774 2.838C18.86 3.836 17.994 6.4 18 8.36C18.004 9.864 17.442 10.826 16.332 11.216C14.776 11.764 13.828 13.298 14.028 14.946C14.236 16.66 15.862 18.004 17.728 18.004H28V18ZM36.09 33C36.56 33.37 38.236 34 41 34C43.764 34 45.44 33.37 45.91 33C45.44 32.63 43.764 32 41 32C38.236 32 36.56 32.63 36.09 33ZM36 38.914C36.29 39.26 38.006 40 41 40C44.06 40 45.78 39.23 46.014 38.892L46.006 35.184C44.672 35.732 42.84 36 41.002 36C39.164 36 37.336 35.734 36.002 35.188L36 38.914ZM46.026 44.88L46.018 41.178C44.682 41.73 42.844 42 41 42C39.156 42 37.334 41.734 36 41.188V45C36.174 45.21 37.906 46 41 46C44.094 46 45.826 45.21 46.026 44.88Z" fill="#19D7C4"/>
</g>
<defs>
<clipPath id="clip0_12705_9279">
<rect width="48" height="48" fill="white"/>
</clipPath>
</defs>
</svg>
