<svg width="48" height="48" viewBox="0 0 48 48" fill="none" xmlns="http://www.w3.org/2000/svg">
<g clip-path="url(#clip0_12705_9285)">
<path d="M35 11.784V9.314C40.456 12.92 44.088 19.176 43.99 26.192C43.37 26.108 42.702 26.056 41.996 26.028C41.996 26.018 41.998 26.01 41.998 26C41.998 20.218 39.25 15.08 35 11.784ZM6.002 26.028C6.002 26.028 6.002 26.01 6.002 26C6.002 20.218 8.752 15.08 13.002 11.784V9.314C7.544 12.922 3.912 19.176 4.01 26.192C4.63 26.108 5.298 26.056 6.002 26.028ZM18.872 32H16.774L20.55 20H22.306L26 32H23.908L23.292 30H19.5L18.872 32ZM20.13 28H22.678L21.418 23.91L20.13 28ZM31 3V15C31 17.072 27.484 18 24 18C20.516 18 17 17.072 17 15V3C17 0.928 20.516 0 24 0C27.484 0 31 0.928 31 3ZM19.09 3C19.56 3.37 21.236 4 24 4C26.764 4 28.44 3.37 28.91 3C28.44 2.63 26.764 2 24 2C21.236 2 19.56 2.63 19.09 3ZM19 8.904C19.26 9.246 20.972 10 24 10C27.062 10 28.782 9.228 29.012 8.892L29.004 5.184C27.67 5.732 25.838 5.998 24 5.998C22.162 5.998 20.334 5.732 19 5.186V8.904ZM29.026 14.88L29.018 11.18C27.682 11.732 25.846 12 24 12C22.154 12 20.334 11.734 19 11.188V15C19.174 15.21 20.904 16 24 16C27.096 16 28.826 15.21 29.026 14.88ZM14 33V45C14 47.072 10.484 48 7 48C3.516 48 0 47.072 0 45V33C0 30.928 3.516 30 7 30C10.484 30 14 30.928 14 33ZM2.09 33C2.56 33.37 4.236 34 7 34C9.764 34 11.44 33.37 11.91 33C11.44 32.63 9.764 32 7 32C4.236 32 2.56 32.63 2.09 33ZM2 38.904C2.26 39.246 3.972 40 7 40C10.062 40 11.782 39.228 12.012 38.892L12.004 35.184C10.67 35.732 8.838 35.998 7 35.998C5.162 35.998 3.334 35.732 2 35.186V38.904ZM12.026 44.88L12.018 41.18C10.682 41.732 8.846 42 7 42C5.154 42 3.334 41.734 2 41.188V45C2.174 45.21 3.904 46 7 46C10.096 46 11.826 45.21 12.026 44.88ZM48 33V45C48 47.072 44.484 48 41 48C37.516 48 34 47.072 34 45V33C34 30.928 37.516 30 41 30C44.484 30 48 30.928 48 33ZM36.09 33C36.56 33.37 38.236 34 41 34C43.764 34 45.44 33.37 45.91 33C45.44 32.63 43.764 32 41 32C38.236 32 36.56 32.63 36.09 33ZM36 38.904C36.26 39.246 37.972 40 41 40C44.062 40 45.782 39.228 46.012 38.892L46.004 35.184C44.67 35.732 42.838 35.998 41 35.998C39.162 35.998 37.334 35.732 36 35.186V38.904ZM46.026 44.88L46.018 41.18C44.682 41.732 42.846 42 41 42C39.154 42 37.334 41.734 36 41.188V45C36.174 45.21 37.904 46 41 46C44.096 46 45.826 45.21 46.026 44.88ZM28 32H30V20H28V32ZM18 42.95V45.078C19.896 45.676 21.91 46 24 46C26.09 46 28.104 45.674 30 45.078V42.95C28.12 43.618 26.106 44 24 44C21.894 44 19.88 43.618 18 42.95Z" fill="#19D7C4"/>
</g>
<defs>
<clipPath id="clip0_12705_9285">
<rect width="48" height="48" fill="white"/>
</clipPath>
</defs>
</svg>
