<svg width="48" height="48" viewBox="0 0 48 48" fill="none" xmlns="http://www.w3.org/2000/svg">
<g clip-path="url(#clip0_12705_9283)">
<path d="M41 30C43.206 30 45 28.206 45 26C45 23.794 43.206 22 41 22C38.794 22 37 23.794 37 26C37 28.206 38.794 30 41 30ZM41 24C42.102 24 43 24.896 43 26C43 27.104 42.102 28 41 28C39.898 28 39 27.104 39 26C39 24.896 39.898 24 41 24ZM7 30C9.206 30 11 28.206 11 26C11 23.794 9.206 22 7 22C4.794 22 3 23.794 3 26C3 28.206 4.794 30 7 30ZM7 24C8.102 24 9 24.896 9 26C9 27.104 8.102 28 7 28C5.898 28 5 27.104 5 26C5 24.896 5.898 24 7 24ZM28 34C28 31.794 26.206 30 24 30C21.794 30 20 31.794 20 34C20 36.206 21.794 38 24 38C26.206 38 28 36.206 28 34ZM22 34C22 32.896 22.898 32 24 32C25.102 32 26 32.896 26 34C26 35.104 25.102 36 24 36C22.898 36 22 35.104 22 34ZM38.05 5.98202C37.876 5.45602 38.16 4.89202 38.682 4.71602L42.682 3.38402C43.212 3.20602 43.774 3.49402 43.948 4.01602C44.122 4.54202 43.838 5.10602 43.316 5.28202L39.316 6.61402C38.806 6.78602 38.224 6.51002 38.05 5.98202ZM38.05 14.018C38.224 13.494 38.786 13.208 39.316 13.386L43.316 14.718C43.84 14.894 44.122 15.458 43.948 15.984C43.774 16.512 43.192 16.79 42.682 16.616L38.682 15.284C38.158 15.108 37.876 14.544 38.05 14.018ZM4.05 4.01802C4.224 3.49402 4.788 3.20802 5.316 3.38602L9.316 4.71802C9.84 4.89402 10.122 5.45802 9.948 5.98402C9.774 6.51202 9.192 6.79002 8.682 6.61602L4.682 5.28402C4.158 5.10802 3.876 4.54402 4.05 4.01802ZM4.05 15.982C3.876 15.456 4.16 14.892 4.682 14.716L8.682 13.384C9.208 13.206 9.772 13.494 9.948 14.016C10.122 14.542 9.838 15.106 9.316 15.282L5.316 16.614C4.806 16.786 4.224 16.51 4.05 15.982ZM48 39C48 39.552 47.552 40 47 40C46.448 40 46 39.552 46 39C46 36.242 43.756 34 41 34C38.244 34 36 36.242 36 39C36 39.552 35.552 40 35 40C34.448 40 34 39.552 34 39C34 35.14 37.14 32 41 32C44.86 32 48 35.14 48 39ZM31 47C31 47.552 30.552 48 30 48C29.448 48 29 47.552 29 47C29 44.242 26.756 42 24 42C21.244 42 19 44.242 19 47C19 47.552 18.552 48 18 48C17.448 48 17 47.552 17 47C17 43.14 20.14 40 24 40C27.86 40 31 43.14 31 47ZM14 39C14 39.552 13.552 40 13 40C12.448 40 12 39.552 12 39C12 36.242 9.756 34 7 34C4.244 34 2 36.242 2 39C2 39.552 1.552 40 1 40C0.448 40 0 39.552 0 39C0 35.14 3.14 32 7 32C10.86 32 14 35.14 14 39ZM30.294 2.23002C27.942 0.322019 24.858 -0.401981 21.836 0.228019C17.84 1.07002 14.74 4.36802 14.12 8.43602C13.498 12.508 15.382 16.488 18.916 18.574C19.594 18.974 20 19.636 20 20.346V21C20 22.654 21.346 24 23 24H25C26.654 24 28 22.654 28 21V20.348C28 19.64 28.408 18.974 29.092 18.57C32.166 16.75 34 13.546 34 10C34 6.97202 32.65 4.13802 30.294 2.23002ZM26 21C26 21.55 25.552 22 25 22H23C22.448 22 22 21.55 22 21C22 20.756 22.012 20.232 21.954 20H26.048C25.988 20.23 26 20.758 26 21ZM28.074 16.848C27.562 17.15 27.16 17.556 26.826 18H25.002V11.85C26.336 11.532 27.462 10.624 27.938 9.35202C28.132 8.83402 27.87 8.25802 27.352 8.06402C26.838 7.86402 26.258 8.13202 26.064 8.64802C25.762 9.45602 24.932 10 24 10C23.068 10 22.24 9.45802 21.936 8.64802C21.742 8.13202 21.168 7.86202 20.648 8.06402C20.13 8.25802 19.868 8.83402 20.062 9.35202C20.54 10.626 21.664 11.532 22.998 11.85V18H21.176C20.844 17.556 20.442 17.154 19.932 16.852C17.104 15.184 15.598 11.998 16.096 8.73602C16.584 5.54002 19.114 2.84602 22.248 2.18602C22.826 2.06402 23.408 2.00402 23.982 2.00402C25.822 2.00402 27.6 2.62002 29.036 3.78402C30.92 5.31202 32 7.57802 32 10C32 12.832 30.532 15.392 28.074 16.848Z" fill="#19D7C4"/>
</g>
<defs>
<clipPath id="clip0_12705_9283">
<rect width="48" height="48" fill="white"/>
</clipPath>
</defs>
</svg>
