<svg width="48" height="48" viewBox="0 0 48 48" fill="none" xmlns="http://www.w3.org/2000/svg">
<path d="M28 20C28 22.038 27.384 23.928 26.336 25.508L20 19.172V10.202C24.564 11.128 28 15.162 28 20ZM16 10.202C11.436 11.128 8 15.162 8 20C8 25.522 12.478 30 18 30C20.038 30 21.928 29.384 23.508 28.336L16 20.828V10.202ZM32 14H40V10H32V14ZM32 22H40V18H32V22ZM32 30H40V26H32V30ZM26 38V42H36V46H12V42H22V38H0V8C0 4.692 2.692 2 6 2H42C45.308 2 48 4.692 48 8V38H26ZM4 34H44V8C44 6.898 43.104 6 42 6H6C4.896 6 4 6.898 4 8V34Z" fill="#19D7C4"/>
</svg>
