<svg width="48" height="48" viewBox="0 0 48 48" fill="none" xmlns="http://www.w3.org/2000/svg">
<g clip-path="url(#clip0_12705_9293)">
<path d="M38 40H34V36H38V40ZM20 42C20 44.212 20.746 46.24 21.966 47.896C9.682 46.858 0 36.546 0 24C0 10.766 10.766 0 24 0C37.234 0 47.94 10.712 47.994 23.9C47.38 20.434 45.092 17.488 42.186 15.734C39.736 10.38 34.998 6.284 29.222 4.718C31.094 7.042 33.228 10.332 34.782 14.068C31.852 14.394 29.028 15.838 27.074 18.002H15.944C15.36 19.908 15 21.924 15 24.002C15 26.08 15.362 28.098 15.944 30.002H20V34.002H17.552C18.302 35.526 19.144 36.944 20 38.2V42ZM23.996 4.834C22.37 6.56 19.602 9.84 17.556 14H30.422C28.374 9.82 25.612 6.556 23.996 4.834ZM6.706 14H13.156C14.73 10.25 16.896 7.05 18.776 4.716C13.638 6.11 9.32 9.496 6.706 14ZM11.79 30C11.298 28.09 10.998 26.082 10.998 24C10.998 21.918 11.312 19.912 11.804 18H4.922C4.324 19.896 4 21.91 4 24C4 26.09 4.338 28.104 4.938 30H11.79ZM18.776 43.284C16.896 40.952 14.74 37.746 13.166 34H6.708C9.326 38.496 13.64 41.89 18.776 43.284ZM48 28V42C48 45.308 45.308 48 42 48H30C26.692 48 24 45.308 24 42V28H28V26C28 21.588 31.588 18 36 18C40.412 18 44 21.588 44 26V28H48ZM32 28H40V26C40 23.794 38.206 22 36 22C33.794 22 32 23.794 32 26V28ZM44 32H28V42C28 43.102 28.896 44 30 44H42C43.104 44 44 43.102 44 42V32Z" fill="#19D7C4"/>
</g>
<defs>
<clipPath id="clip0_12705_9293">
<rect width="48" height="48" fill="white"/>
</clipPath>
</defs>
</svg>
