<svg width="65" height="64" viewBox="0 0 65 64" fill="none" xmlns="http://www.w3.org/2000/svg"><g clip-path="url(#clip0_354_726)"><path d="M32.5 64c17.673 0 32-14.327 32-32 0-17.673-14.327-32-32-32C14.827 0 .5 14.327.5 32c0 17.673 14.327 32 32 32z" fill="#F36"/><path d="M23.219 19.719a3.5 3.5 0 100-7 3.5 3.5 0 000 7zm-7.313 3l-1.219 4.468h4c-.802 3.26-2.48 10.12-2.78 11.47-.376 1.687-.438 6.5 4.624 6.5 3.534 0 5.788-2.283 7.045-4.147l-.951 3.803h5.688l2.968-12.017c.422-2 1.415-5.858 5-5.858 4.264 0 2.7 5.049 1.933 7.523l-.089.289c-.575 1.875-1.188 4.063-1.188 5.563 0 1.687.782 4.843 5.157 4.843s6.24-4.333 6.625-6.5L50.5 37.75c-.156 1.156-1.563 3.656-2.875 3.656-1.797 0-.894-3.029.069-6.262.427-1.434.866-2.908 1.087-4.175.559-3.205 0-8.657-5.562-8.657-3.455 0-6.168 3.079-7.459 5.216l1.084-4.81h-8.657L27 27.189h4.031s-2.392 9.749-2.547 10.054c-1.625 3.211-4.082 4.289-5.922 4.164-1.475-.1-1.302-1.875-1.03-2.75l4-15.937h-9.626z" fill="#fff"/></g><defs><clipPath id="clip0_354_726"><path fill="#fff" transform="translate(.5)" d="M0 0h64v64H0z"/></clipPath></defs></svg>