<svg width="64" height="64" viewBox="0 0 64 64" fill="none" xmlns="http://www.w3.org/2000/svg">
<path d="M41.9965 24.0859V18.622C42.7185 18.2846 43.3299 17.749 43.7593 17.0776C44.1888 16.4062 44.4188 15.6267 44.4225 14.8297V14.7042C44.4225 12.3805 42.5387 10.4967 40.2149 10.4967H40.0895C38.9736 10.4967 37.9034 10.94 37.1143 11.729C36.3252 12.5181 35.882 13.5883 35.882 14.7042V14.8297C35.8856 15.6267 36.1156 16.4062 36.5451 17.0776C36.9746 17.749 37.5859 18.2846 38.3079 18.622V24.0859C36.2328 24.4036 34.2784 25.2641 32.6427 26.58L17.6577 14.9087C17.7646 14.5229 17.8203 14.1264 17.8265 13.7282C17.8284 12.7905 17.5521 11.8734 17.0326 11.0927C16.5131 10.3121 15.7738 9.70303 14.9081 9.34263C14.0424 8.98223 13.0893 8.88667 12.1693 9.06802C11.2493 9.24938 10.4038 9.69951 9.73962 10.3615C9.07549 11.0234 8.62259 11.8675 8.43823 12.7869C8.25387 13.7063 8.34632 14.6597 8.70389 15.5266C9.06146 16.3934 9.66807 17.1347 10.447 17.6568C11.226 18.1788 12.1422 18.4581 13.0799 18.4594C13.9003 18.4555 14.7053 18.2365 15.4145 17.8242L30.1702 29.3065C28.8446 31.3091 28.1531 33.6645 28.1857 36.0658C28.2183 38.4671 28.9736 40.8029 30.353 42.7687L25.8651 47.2582C25.5023 47.1422 25.1244 47.0805 24.7435 47.0754C23.9738 47.076 23.2216 47.3047 22.5818 47.7328C21.9421 48.1608 21.4436 48.7688 21.1493 49.48C20.8551 50.1913 20.7782 50.9738 20.9285 51.7286C21.0789 52.4835 21.4496 53.1769 21.9938 53.7212C22.5381 54.2654 23.2315 54.6362 23.9864 54.7865C24.7412 54.9368 25.5238 54.86 26.235 54.5657C26.9462 54.2714 27.5543 53.7729 27.9823 53.1332C28.4103 52.4934 28.639 51.7412 28.6396 50.9715C28.6346 50.5906 28.573 50.2126 28.4569 49.8499L32.8967 45.4085C34.3445 46.5231 36.0283 47.2915 37.819 47.6549C39.6096 48.0183 41.4597 47.967 43.2275 47.5049C44.9953 47.0429 46.6338 46.1823 48.0177 44.9891C49.4015 43.796 50.4938 42.3019 51.211 40.6213C51.9282 38.9408 52.2512 37.1184 52.1553 35.2938C52.0594 33.4691 51.5471 31.6906 50.6577 30.0945C49.7682 28.4985 48.5253 27.1271 47.024 26.0856C45.5227 25.0441 43.803 24.3601 41.9965 24.0859M40.1561 42.0561C39.3355 42.0787 38.5188 41.9366 37.7541 41.6381C36.9894 41.3397 36.2923 40.8911 35.704 40.3187C35.1156 39.7463 34.6479 39.0618 34.3286 38.3056C34.0093 37.5494 33.8447 36.7369 33.8447 35.916C33.8447 35.0952 34.0093 34.2826 34.3286 33.5265C34.6479 32.7703 35.1156 32.0858 35.704 31.5134C36.2923 30.941 36.9894 30.4923 37.7541 30.1939C38.5188 29.8955 39.3355 29.7534 40.1561 29.7759C41.7464 29.8316 43.2531 30.5023 44.3587 31.6468C45.4644 32.7913 46.0827 34.3202 46.0835 35.9115C46.0843 37.5028 45.4675 39.0323 44.363 40.1779C43.2585 41.3235 41.7526 41.9957 40.1623 42.053" fill="#FE5C35"/>
</svg>
