<svg width="48" height="48" viewBox="0 0 48 48" fill="none" xmlns="http://www.w3.org/2000/svg">
<path d="M24.4287 20.1821V28.3148H35.9613C35.4549 30.9303 33.9352 33.1449 31.656 34.634L38.6106 39.9222C42.6626 36.2569 45.0003 30.8732 45.0003 24.4778C45.0003 22.9887 44.8639 21.5568 44.6106 20.1824L24.4287 20.1821Z" fill="#4285F4"/>
<path d="M12.4195 27.9971L10.8509 29.1737L5.29883 33.4118C8.82483 40.2654 16.0517 45 24.4283 45C30.2139 45 35.0646 43.1291 38.6102 39.9219L31.6556 34.6337C29.7465 35.8937 27.3113 36.6574 24.4283 36.6574C18.8568 36.6574 14.1232 32.9729 12.4282 28.0092L12.4195 27.9971Z" fill="#34A853"/>
<path d="M5.29856 14.5884C3.83758 17.4137 3 20.6019 3 24C3 27.3981 3.83758 30.5864 5.29856 33.4117C5.29856 33.4307 12.4286 27.9899 12.4286 27.9899C12.0001 26.7299 11.7467 25.3936 11.7467 23.9998C11.7467 22.606 12.0001 21.2697 12.4286 20.0097L5.29856 14.5884Z" fill="#FBBC05"/>
<path d="M24.4287 11.3618C27.5847 11.3618 30.3899 12.4308 32.6301 14.4927L38.7665 8.47914C35.0457 5.08103 30.2146 3 24.4287 3C16.0521 3 8.82483 7.71543 5.29883 14.5882L12.4287 20.01C14.1234 15.0463 18.8573 11.3618 24.4287 11.3618Z" fill="#EA4335"/>
</svg>
