<svg width="71" height="71" viewBox="0 0 71 71" fill="none" xmlns="http://www.w3.org/2000/svg"><path d="M.5 25.833c0-8.867 0-13.3 1.726-16.688a15.833 15.833 0 016.92-6.92C12.531.5 16.965.5 25.832.5h19.334c8.867 0 13.3 0 16.688 1.726a15.834 15.834 0 016.92 6.92c1.725 3.386 1.725 7.82 1.725 16.687v19.334c0 8.867 0 13.3-1.726 16.688a15.834 15.834 0 01-6.92 6.92C58.469 70.5 54.035 70.5 45.168 70.5H25.833c-8.867 0-13.3 0-16.688-1.726a15.834 15.834 0 01-6.92-6.92C.5 58.469.5 54.035.5 45.168V25.833z" fill="#242424"/><path d="M20.167 36.5C10.417 43.676 8.5 54.166 8.5 62.916c.444-2.61 2.483-8.733 7.083-12.333 6.834-5.348 19.334-3.586 33-12.666 13.667-9.081 15-20.917 13.25-30-1.216 8.764-5.365 12.584-11.083 16-12.417 7.416-20.167 4.916-30.583 12.583z" fill="url(#paint0_linear_6967_12839)"/><path d="M20.167 36.5C10.417 43.676 8.5 54.166 8.5 62.916c.444-2.61 2.483-8.733 7.083-12.333 6.834-5.348 19.334-3.586 33-12.666 13.667-9.081 15-20.917 13.25-30-1.216 8.764-5.365 12.584-11.083 16-12.417 7.416-20.167 4.916-30.583 12.583z" fill="url(#paint1_linear_6967_12839)"/><path d="M8.616 59.33c.535-7.906 3.102-16.612 11.55-22.83 5.43-3.997 10.136-5.23 15.156-6.547 2.93-.768 5.966-1.564 9.317-2.953-1.223 1.167-7.03 3.892-11.411 5.713-4.37 1.816-8.976 3.73-12.812 6.287-7.695 5.13-10.824 14.056-11.8 20.33z" fill="url(#paint2_linear_6967_12839)"/><path d="M8.616 59.33c.535-7.906 3.102-16.612 11.55-22.83 5.43-3.997 10.136-5.23 15.156-6.547 2.93-.768 5.966-1.564 9.317-2.953-1.223 1.167-7.03 3.892-11.411 5.713-4.37 1.816-8.976 3.73-12.812 6.287-7.695 5.13-10.824 14.056-11.8 20.33z" fill="url(#paint3_linear_6967_12839)"/><path d="M56.044 31.427a17.321 17.321 0 01-3.21 2.49c-5.334 3.2-11.003 4.232-16.519 5.236-4.395.8-8.694 1.583-12.648 3.43C14.75 46.75 9.25 55.416 8.5 62.916v-.003c0-.572.008-1.152.026-1.738.046-.93.142-1.96.301-3.058 1.177-6.168 4.379-14.308 11.59-19.116 3.052-2.035 6.593-3.663 10.115-5.159 3.096-1.016 5.887-1.649 8.546-2.252 4.186-.949 8.045-1.824 12.255-4.005 8.836-4.579 11.15-13.987 10.528-19.521 1.321 7.012.787 15.637-5.817 23.364z" fill="url(#paint4_linear_6967_12839)"/><path d="M56.044 31.427a17.318 17.318 0 01-3.21 2.49c-5.334 3.2-11.003 4.231-16.52 5.236-4.395.8-8.693 1.582-12.648 3.43-5.127 2.396-9.125 6.28-11.74 10.575 2.307-3.241 5.822-6.862 10.157-8.242 4.23-1.346 8.266-1.485 12.458-1.63 1.202-.04 2.417-.083 3.652-.153 3.33-1.213 6.82-2.845 10.39-5.217 3.077-2.044 5.529-4.228 7.46-6.489z" fill="url(#paint5_linear_6967_12839)"/><path d="M56.044 31.427a17.318 17.318 0 01-3.21 2.49c-5.334 3.2-11.003 4.231-16.52 5.236-4.395.8-8.693 1.582-12.648 3.43-5.127 2.396-9.125 6.28-11.74 10.575 2.307-3.241 5.822-6.862 10.157-8.242 4.23-1.346 8.266-1.485 12.458-1.63 1.202-.04 2.417-.083 3.652-.153 3.33-1.213 6.82-2.845 10.39-5.217 3.077-2.044 5.529-4.228 7.46-6.489z" fill="url(#paint6_linear_6967_12839)"/><path d="M61.862 8.063l-.028-.147c-1.216 8.765-5.366 12.585-11.084 16A46.814 46.814 0 0144.64 27c-1.223 1.168-7.03 3.893-11.411 5.713h-.001c-.892.371-1.793.746-2.696 1.13 3.097-1.018 5.888-1.65 8.547-2.253 4.185-.95 8.044-1.824 12.255-4.006 8.835-4.578 11.15-13.986 10.528-19.52z" fill="url(#paint7_linear_6967_12839)"/><path d="M61.862 8.063l-.028-.147c-1.216 8.765-5.366 12.585-11.084 16A46.814 46.814 0 0144.64 27c-1.223 1.168-7.03 3.893-11.411 5.713h-.001c-.892.371-1.793.746-2.696 1.13 3.097-1.018 5.888-1.65 8.547-2.253 4.185-.95 8.044-1.824 12.255-4.006 8.835-4.578 11.15-13.986 10.528-19.52z" fill="url(#paint8_linear_6967_12839)"/><defs><linearGradient id="paint0_linear_6967_12839" x1="39" y1="41" x2="10.167" y2="61.666" gradientUnits="userSpaceOnUse"><stop stop-color="#FE5004"/><stop offset=".603" stop-color="#FFB915"/><stop offset="1" stop-color="#FFFC41"/></linearGradient><linearGradient id="paint1_linear_6967_12839" x1="27.583" y1="42.75" x2="27.75" y2="45.75" gradientUnits="userSpaceOnUse"><stop stop-color="#FD3E00"/><stop offset="1" stop-color="#FD4400" stop-opacity="0"/></linearGradient><linearGradient id="paint2_linear_6967_12839" x1="44.666" y1="25.5" x2="4" y2="61.667" gradientUnits="userSpaceOnUse"><stop stop-color="#005FC6"/><stop offset=".28" stop-color="#23A4DF"/><stop offset=".465" stop-color="#3AC2B7"/><stop offset=".641" stop-color="#60EC7A"/><stop offset=".819" stop-color="#CFFDBD"/><stop offset="1" stop-color="#D0FCB6"/></linearGradient><linearGradient id="paint3_linear_6967_12839" x1="36.416" y1="32.417" x2="32.916" y2="29.25" gradientUnits="userSpaceOnUse"><stop stop-color="#0061CB"/><stop offset="1" stop-color="#067EEA" stop-opacity="0"/></linearGradient><linearGradient id="paint4_linear_6967_12839" x1="62" y1="8" x2="8.5" y2="62.834" gradientUnits="userSpaceOnUse"><stop stop-color="#8E55F1"/><stop offset=".141" stop-color="#8B48DF"/><stop offset=".275" stop-color="#E04DD9"/><stop offset=".492" stop-color="#F496C8"/><stop offset=".633" stop-color="#FAD2BA"/><stop offset=".857" stop-color="#FEF7E5"/><stop offset="1" stop-color="#FFF5BF"/></linearGradient><linearGradient id="paint5_linear_6967_12839" x1="56.75" y1="30.916" x2="13.083" y2="50.666" gradientUnits="userSpaceOnUse"><stop stop-color="#F41A73"/><stop offset=".4" stop-color="#FC50A3"/><stop offset=".585" stop-color="#FE9485"/><stop offset=".703" stop-color="#FFAF88"/><stop offset="1" stop-color="#FFC385"/></linearGradient><linearGradient id="paint6_linear_6967_12839" x1="41" y1="37" x2="41.083" y2="41" gradientUnits="userSpaceOnUse"><stop stop-color="#9B0008"/><stop offset="1" stop-color="#EA115A" stop-opacity="0"/></linearGradient><linearGradient id="paint7_linear_6967_12839" x1="62" y1="12.5" x2="22.584" y2="38.25" gradientUnits="userSpaceOnUse"><stop stop-color="#231283"/><stop offset=".363" stop-color="#7053C6"/><stop offset=".466" stop-color="#7272DB"/><stop offset=".634" stop-color="#399EE9"/><stop offset="1" stop-color="#00CFFF"/></linearGradient><linearGradient id="paint8_linear_6967_12839" x1="52.167" y1="25.5" x2="53.917" y2="27.75" gradientUnits="userSpaceOnUse"><stop stop-color="#3F259D" stop-opacity="0"/><stop offset="1" stop-color="#412DAA"/></linearGradient></defs></svg>