<svg width="56" height="56" viewBox="0 0 56 56" fill="none" xmlns="http://www.w3.org/2000/svg">
<path d="M33.1714 33.1834C29.8471 34.4344 26.1219 34.4367 22.7974 33.1842C21.5449 29.8634 21.5446 26.1389 22.7955 22.8176C26.1191 21.5645 29.848 21.5643 33.1716 22.8174C34.4237 26.1377 34.4232 29.8631 33.1714 33.1834ZM52.1594 23.9169H37.849L47.9674 13.8043C46.3794 11.5751 44.4189 9.61681 42.1883 8.02978L32.0692 18.1423V3.84124C29.3685 3.38721 26.5988 3.3879 23.8981 3.84124V18.1423L13.779 8.02978C11.5489 9.61574 9.58785 11.5767 7.99975 13.8043L18.1196 23.9169H3.80945C3.45622 26.6968 3.34145 29.3093 3.80945 32.0834H18.1198L7.99995 42.196C9.59188 44.4285 11.545 46.3804 13.779 47.9713L23.8981 37.858V52.1598C26.5991 52.6121 29.368 52.6124 32.069 52.1598V37.858L42.1891 47.9713C44.4207 46.3827 46.3777 44.426 47.9674 42.196L37.8475 32.0834H52.1594C52.6135 29.3868 52.6135 26.6135 52.1594 23.9169Z" fill="#6941C6"/>
</svg>
