<svg width="64" height="64" viewBox="0 0 64 64" fill="none" xmlns="http://www.w3.org/2000/svg">
<g clip-path="url(#clip0_12490_20153)">
<path d="M43.7898 25.6466L39.9271 37.8209C39.9271 36.8885 37.2632 16.6958 37.2632 16.6958C31.1361 16.6958 27.8861 21.038 26.1812 25.6466L21.466 37.8475C21.466 36.9684 20.8 25.7532 20.8 25.7532C20.5726 23.3253 19.4626 21.0652 17.6805 19.4008C15.8983 17.7365 13.5676 16.7835 11.1299 16.7224L16.1381 47.3045C22.5316 47.3045 25.9947 42.9623 27.7795 38.3536L31.7754 27.9643C31.7754 28.3905 34.4394 47.3045 34.4394 47.3045C37.0537 47.3011 39.5991 46.4653 41.7066 44.9183C43.8141 43.3712 45.3742 41.1932 46.1607 38.7L55.2181 16.6958C48.8247 16.6958 45.4681 21.038 43.7632 25.6466H43.7898Z" fill="#4353FF"/>
</g>
<defs>
<clipPath id="clip0_12490_20153">
<rect width="64" height="64" fill="white"/>
</clipPath>
</defs>
</svg>
