<svg width="71" height="61" viewBox="0 0 71 61" fill="none" xmlns="http://www.w3.org/2000/svg"><path fill-rule="evenodd" clip-rule="evenodd" d="M15.773 2.475L35.5.5l19.727 1.975L70.5 21.895 35.5 60.5.5 21.895l15.273-19.42z" fill="#FDB300"/><path d="M14.677 21.895L35.5 60.5.5 21.895h14.177zm41.646 0L35.5 60.5l35-38.605" fill="#EA6C00"/><path fill-rule="evenodd" clip-rule="evenodd" d="M14.677 21.895h41.646L35.5 60.5" fill="#FDAD00"/><path d="M35.5.5L15.773 2.475l-1.096 19.42L35.5.5zm0 0l19.727 1.975 1.097 19.42" fill="#FDD231"/><path d="M70.5 21.895L55.227 2.475l1.096 19.42H70.5zm-70 0l15.273-19.42-1.096 19.42" fill="#FDAD00"/><path fill-rule="evenodd" clip-rule="evenodd" d="M35.5.5L14.677 21.895h41.646" fill="#FEEEB7"/></svg>