<svg width="65" height="67" viewBox="0 0 65 67" fill="none" xmlns="http://www.w3.org/2000/svg"><path d="M20.62 27.447v-.508c0-1.288 1.031-2.355 2.36-2.444l9.678-.646 13.385 19.71V26.26l-3.446-.46v-.24c0-1.303 1.055-2.377 2.4-2.446l8.807-.451v1.267c0 .595-.442 1.104-1.049 1.206l-2.119.359v28.014l-2.66.915c-2.221.764-4.695-.054-5.967-1.974L29.015 32.843v18.714l4 .766-.056.37c-.175 1.163-1.178 2.041-2.392 2.095l-9.947.443c-.131-1.25.805-2.367 2.097-2.503l1.309-.138V27.638l-3.406-.192z" fill="url(#paint0_linear_6967_10272)"/><path fill-rule="evenodd" clip-rule="evenodd" d="M44.187.917L4.31 3.639C1.92 3.802.069 5.723.069 8.037v38.787c0 2.175.748 4.288 2.127 6.006l8.598 10.712c1.39 1.731 3.579 2.685 5.842 2.546l44.26-2.725c2.27-.14 4.035-1.958 4.035-4.155V15.11c0-1.359-.686-2.632-1.839-3.412l-14.01-9.473A7.799 7.799 0 0044.186.917zm-37.9 7.725c-.555-.41-.292-1.266.405-1.316l37.764-2.708a5.196 5.196 0 013.371.934l7.577 5.368c.288.204.153.644-.203.663L15.21 13.758a5.191 5.191 0 01-3.368-1.002L6.286 8.642zm7.047 11.934c0-1.299 1.05-2.372 2.392-2.445l42.282-2.303c1.308-.07 2.409.935 2.409 2.201v38.184c0 1.297-1.046 2.369-2.386 2.445l-42.014 2.39c-1.455.083-2.683-1.035-2.683-2.445V20.576z" fill="url(#paint1_linear_6967_10272)"/><defs><linearGradient id="paint0_linear_6967_10272" x1=".067" y1="66.101" x2="65.269" y2="1.238" gradientUnits="userSpaceOnUse"><stop stop-color="#0017E4"/><stop offset="1" stop-color="#3793FF"/></linearGradient><linearGradient id="paint1_linear_6967_10272" x1=".067" y1="66.101" x2="65.269" y2="1.238" gradientUnits="userSpaceOnUse"><stop stop-color="#0017E4"/><stop offset="1" stop-color="#3793FF"/></linearGradient></defs></svg>