<svg width="65" height="64" viewBox="0 0 65 64" fill="none" xmlns="http://www.w3.org/2000/svg"><g filter="url(#filter0_dd_7100_15084)" fill-rule="evenodd" clip-rule="evenodd"><path d="M32.667 32a9 9 0 1118 0 9 9 0 01-18 0z" fill="#00B6FF"/><path d="M14.667 50a9 9 0 019-9h9v9a9 9 0 11-18 0z" fill="#24CB71"/><path d="M32.667 5v18h9a9 9 0 100-18h-9z" fill="#FF7237"/><path d="M14.667 14a9 9 0 009 9h9V5h-9a9 9 0 00-9 9z" fill="#FF3737"/><path d="M14.667 32a9 9 0 009 9h9V23h-9a9 9 0 00-9 9z" fill="#874FFF"/></g><defs><filter id="filter0_dd_7100_15084" x="-2.333" y="-2" width="70" height="70" filterUnits="userSpaceOnUse" color-interpolation-filters="sRGB"><feFlood flood-opacity="0" result="BackgroundImageFix"/><feColorMatrix in="SourceAlpha" values="0 0 0 0 0 0 0 0 0 0 0 0 0 0 0 0 0 0 127 0" result="hardAlpha"/><feMorphology radius="1" in="SourceAlpha" result="effect1_dropShadow_7100_15084"/><feOffset dy="1"/><feGaussianBlur stdDeviation="1"/><feComposite in2="hardAlpha" operator="out"/><feColorMatrix values="0 0 0 0 0.0392157 0 0 0 0 0.0496732 0 0 0 0 0.0705882 0 0 0 0.1 0"/><feBlend in2="BackgroundImageFix" result="effect1_dropShadow_7100_15084"/><feColorMatrix in="SourceAlpha" values="0 0 0 0 0 0 0 0 0 0 0 0 0 0 0 0 0 0 127 0" result="hardAlpha"/><feOffset dy="1"/><feGaussianBlur stdDeviation="1.5"/><feComposite in2="hardAlpha" operator="out"/><feColorMatrix values="0 0 0 0 0.0392157 0 0 0 0 0.0496732 0 0 0 0 0.0705882 0 0 0 0.1 0"/><feBlend in2="effect1_dropShadow_7100_15084" result="effect2_dropShadow_7100_15084"/><feBlend in="SourceGraphic" in2="effect2_dropShadow_7100_15084" result="shape"/></filter></defs></svg>