<svg width="160" height="49" viewBox="0 0 160 49" fill="none" xmlns="http://www.w3.org/2000/svg">
<path d="M20 4.5C31.0457 4.5 40 13.4543 40 24.5C40 35.5457 31.0457 44.5 20 44.5C8.95431 44.5 0 35.5457 0 24.5C0 13.4543 8.95431 4.5 20 4.5ZM20.001 39.0537C18.1757 39.9112 16.3655 40.4931 14.6475 40.7822C16.3317 41.3356 18.1306 41.6367 20 41.6367C21.8691 41.6367 23.6676 41.3354 25.3516 40.7822C23.6343 40.493 21.8253 39.9107 20.001 39.0537ZM7.32227 27.8457C7.1622 28.3141 7.02424 28.7752 6.91113 29.2275C6.02339 32.7785 6.6752 35.2162 7.98047 36.5215C9.28576 37.8267 11.7235 38.4776 15.2744 37.5898C15.7265 37.4768 16.1872 37.3387 16.6553 37.1787C14.8881 36.0241 13.1507 34.6213 11.5156 32.9863C9.88039 31.3511 8.477 29.6131 7.32227 27.8457ZM32.6787 27.8457C31.524 29.6129 30.1214 31.3503 28.4863 32.9854C26.8509 34.6208 25.1133 36.0239 23.3457 37.1787C23.8142 37.3388 24.2751 37.4777 24.7275 37.5908C28.2785 38.4786 30.7162 37.8268 32.0215 36.5215C33.3267 35.2162 33.9776 32.7784 33.0898 29.2275C32.9767 28.7751 32.8388 28.3141 32.6787 27.8457ZM20.001 13.3115C17.8587 14.4839 15.6778 16.0966 13.6377 18.1367C11.5972 20.1772 9.984 22.3584 8.81152 24.501C9.98394 26.6432 11.5966 28.8242 13.6367 30.8643C15.677 32.9046 17.8585 34.517 20.001 35.6895C22.1434 34.517 24.3249 32.9046 26.3652 30.8643C28.4052 28.8243 30.0171 26.6431 31.1895 24.501C30.017 22.3585 28.4046 20.177 26.3643 18.1367C24.3242 16.0966 22.1432 14.4839 20.001 13.3115ZM3.7168 19.1455C3.16312 20.8302 2.86328 22.6301 2.86328 24.5C2.86328 26.3704 3.16385 28.1704 3.71777 29.8555C4.00677 28.1372 4.58881 26.3265 5.44629 24.501C4.58852 22.675 4.00584 20.8641 3.7168 19.1455ZM36.2832 19.1494C35.9939 20.8669 35.4119 22.6764 34.5547 24.501C35.4117 26.3255 35.993 28.1352 36.2822 29.8525C36.8356 28.1683 37.1367 26.3694 37.1367 24.5C37.1367 22.6314 36.8361 20.8331 36.2832 19.1494ZM32.0225 12.4795C30.7172 11.1742 28.2795 10.5234 24.7285 11.4111C24.2755 11.5244 23.8137 11.6619 23.3447 11.8223C25.1123 12.9771 26.8499 14.3802 28.4854 16.0156C30.1209 17.6512 31.5248 19.3885 32.6797 21.1562C32.8399 20.6875 32.9776 20.2261 33.0908 19.7734C33.9785 16.2225 33.3277 13.7848 32.0225 12.4795ZM15.2734 11.4111C11.7225 10.5234 9.28478 11.1743 7.97949 12.4795C6.67422 13.7848 6.02339 16.2225 6.91113 19.7734C7.02422 20.2257 7.16125 20.687 7.32129 21.1553C8.47602 19.3878 9.88033 17.651 11.5156 16.0156C13.1508 14.3805 14.888 12.976 16.6553 11.8213C16.187 11.6613 15.7257 11.5242 15.2734 11.4111ZM20 7.36328C18.1301 7.36328 16.3302 7.66312 14.6455 8.2168C16.3638 8.50581 18.1744 9.08873 20 9.94629C21.8255 9.08866 23.6363 8.50698 25.3545 8.21777C23.6697 7.66403 21.87 7.36328 20 7.36328Z" fill="#19D7C4"/>
<path d="M54.725 19.8655C54.725 23.7805 65.525 20.4595 65.525 27.9655C65.525 31.7455 62.393 33.9325 58.1 33.9325C53.753 33.9325 50.648 31.9345 50 27.7495H54.563C54.914 29.5585 56.183 30.5575 58.127 30.5575C60.071 30.5575 61.097 29.7745 61.097 28.5055C61.097 24.4015 50.27 27.5335 50.27 20.2705C50.27 17.1925 52.835 14.7085 57.344 14.7085C61.151 14.7085 64.445 16.5175 65.012 20.7565H60.395C60.017 18.9475 58.964 18.0835 57.182 18.0835C55.67 18.0835 54.725 18.7855 54.725 19.8655Z" fill="black"/>
<path d="M71.2465 39.4675H67.1155V18.9745H71.2465V20.4865C72.1375 19.2175 73.3795 18.5155 74.8915 18.5155C78.6445 18.5155 80.9935 21.4585 80.9935 26.2105C80.9935 31.1515 78.5905 33.9325 74.8915 33.9325C73.3525 33.9325 72.1105 33.2845 71.2465 32.0425V39.4675ZM74.0275 21.8635C72.1915 21.8635 71.2465 23.4025 71.2465 26.2105C71.2465 29.0185 72.2185 30.5845 74.0275 30.5845C75.8095 30.5845 76.7545 29.0455 76.7545 26.2105C76.7545 23.4025 75.7825 21.8635 74.0275 21.8635Z" fill="black"/>
<path d="M82.6331 33.5005V14.0605H86.7641V20.8915C87.7091 19.2715 89.1941 18.5155 90.9761 18.5155C93.7571 18.5155 95.8361 20.2165 95.8361 23.8075V33.5005H91.7051V24.6445C91.7051 22.8085 90.9761 21.8635 89.4641 21.8635C87.8171 21.8635 86.7641 23.2945 86.7641 25.1575V33.5005H82.6331Z" fill="black"/>
<path d="M111.787 28.7215C111.031 32.0695 108.331 33.9325 104.767 33.9325C100.258 33.9325 97.477 31.0165 97.477 26.2375C97.477 21.2965 100.285 18.5155 104.605 18.5155C108.952 18.5155 111.679 21.4045 111.679 26.1565V27.0745H101.689C101.905 29.3965 102.985 30.6385 104.767 30.6385C106.117 30.6385 107.035 30.0445 107.467 28.7215H111.787ZM104.605 21.8095C103.066 21.8095 102.094 22.8085 101.77 24.6985H107.413C107.089 22.8085 106.117 21.8095 104.605 21.8095Z" fill="black"/>
<path d="M113.405 33.5005V18.9745H117.536V20.9995C118.454 19.2715 119.858 18.5155 121.343 18.5155C121.937 18.5155 122.477 18.6775 122.774 18.9745V22.4575C122.288 22.3495 121.775 22.2955 121.127 22.2955C118.643 22.2955 117.536 23.6995 117.536 25.9945V33.5005H113.405Z" fill="black"/>
<path d="M132.796 27.3175V18.9745H136.927V33.5005H132.796V31.5565C131.851 33.1765 130.42 33.9325 128.665 33.9325C125.911 33.9325 123.886 32.2585 123.886 28.6405V18.9745H128.017V27.8035C128.017 29.6665 128.719 30.5845 130.177 30.5845C131.77 30.5845 132.796 29.1805 132.796 27.3175Z" fill="black"/>
<path d="M139.193 33.5005V14.0605H143.324V33.5005H139.193Z" fill="black"/>
<path d="M159.25 28.7215C158.494 32.0695 155.794 33.9325 152.23 33.9325C147.721 33.9325 144.94 31.0165 144.94 26.2375C144.94 21.2965 147.748 18.5155 152.068 18.5155C156.415 18.5155 159.142 21.4045 159.142 26.1565V27.0745H149.152C149.368 29.3965 150.448 30.6385 152.23 30.6385C153.58 30.6385 154.498 30.0445 154.93 28.7215H159.25ZM152.068 21.8095C150.529 21.8095 149.557 22.8085 149.233 24.6985H154.876C154.552 22.8085 153.58 21.8095 152.068 21.8095Z" fill="black"/>
</svg>
