<svg width="188" height="49" viewBox="0 0 188 49" fill="none" xmlns="http://www.w3.org/2000/svg">
<path d="M24.9706 7.53309C21.8464 4.40889 16.781 4.40889 13.6569 7.53309L2.34315 18.8468C-0.781049 21.971 -0.781049 27.0363 2.34315 30.1605L13.6569 41.4742C16.781 44.5984 21.8464 44.5984 24.9706 41.4742L30.3688 36.0759C25.8749 34.3422 22.6868 29.9815 22.6868 24.8762C22.6868 19.5675 26.134 15.0639 30.9122 13.4819C30.8187 13.3837 30.7238 13.2864 30.6274 13.1899L24.9706 7.53309Z" fill="#19D7C4"/>
<path d="M30.3691 36.0798C31.7089 36.5966 33.1646 36.8799 34.6865 36.8799C41.3139 36.8799 46.6865 31.5073 46.6865 24.8799C46.6865 18.2525 41.3139 12.8799 34.6865 12.8799C33.368 12.8799 32.0992 13.0925 30.9125 13.4854C36.8748 19.7535 36.78 29.669 30.6279 35.821L30.3691 36.0798Z" fill="#19D7C4"/>
<path d="M69.607 33.5L68.149 29.342H60.616L59.131 33.5H55L62.29 14.114H66.772L74.008 33.5H69.607ZM64.423 18.596L61.777 26.075H67.015L64.423 18.596Z" fill="black"/>
<path d="M78.7457 33.5H74.9657V14.114H78.7457V33.5Z" fill="black"/>
<path d="M95.4222 26.291C95.4222 30.557 92.9112 33.77 89.0232 33.77C87.3222 33.77 85.8642 33.041 84.7842 31.637V38.711H81.0312V19.082H84.4872V21.188C85.5942 19.649 87.1872 18.812 89.0232 18.812C92.9112 18.812 95.4222 22.052 95.4222 26.291ZM91.5612 26.291C91.5612 23.591 90.0222 22.133 88.1862 22.133C86.3502 22.133 84.8112 23.564 84.8112 26.291C84.8112 29.018 86.3502 30.422 88.1862 30.422C90.0222 30.422 91.5612 29.045 91.5612 26.291Z" fill="black"/>
<path d="M100.5 25.643V33.5H96.7471V14.114H100.5V20.972C101.499 19.649 102.741 18.812 104.631 18.812C107.52 18.812 109.518 20.702 109.518 24.185V33.5H105.792V25.454C105.792 23.321 104.955 22.133 103.254 22.133C101.769 22.133 100.5 23.321 100.5 25.643Z" fill="black"/>
<path d="M120.258 33.5V31.718C119.313 33.068 117.882 33.77 115.911 33.77C112.914 33.77 110.916 32.015 110.916 29.315C110.916 26.507 113.184 24.995 117.396 24.995C118.206 24.995 118.908 25.049 119.799 25.157V24.293C119.799 22.673 118.881 21.728 117.315 21.728C115.695 21.728 114.723 22.673 114.588 24.293H111.213C111.429 20.972 113.832 18.812 117.315 18.812C121.095 18.812 123.309 20.891 123.309 24.428V33.5H120.258ZM114.453 29.207C114.453 30.422 115.317 31.178 116.721 31.178C118.638 31.178 119.799 30.125 119.799 28.451V27.425C118.908 27.29 118.287 27.236 117.639 27.236C115.506 27.236 114.453 27.911 114.453 29.207Z" fill="black"/>
<path d="M139.157 33.5L135.539 19.946L131.921 33.5H127.763L122.795 14.114H126.791L129.923 27.263L133.487 14.114H137.672L141.128 27.317L144.287 14.114H148.31L143.315 33.5H139.157Z" fill="black"/>
<path d="M156.726 33.5V31.718C155.781 33.068 154.35 33.77 152.379 33.77C149.382 33.77 147.384 32.015 147.384 29.315C147.384 26.507 149.652 24.995 153.864 24.995C154.674 24.995 155.376 25.049 156.267 25.157V24.293C156.267 22.673 155.349 21.728 153.783 21.728C152.163 21.728 151.191 22.673 151.056 24.293H147.681C147.897 20.972 150.3 18.812 153.783 18.812C157.563 18.812 159.777 20.891 159.777 24.428V33.5H156.726ZM150.921 29.207C150.921 30.422 151.785 31.178 153.189 31.178C155.106 31.178 156.267 30.125 156.267 28.451V27.425C155.376 27.29 154.755 27.236 154.107 27.236C151.974 27.236 150.921 27.911 150.921 29.207Z" fill="black"/>
<path d="M174.417 19.082L169.125 33.5H165.021L159.702 19.082H163.752L167.181 29.234L170.637 19.082H174.417Z" fill="black"/>
<path d="M180.747 33.743C176.427 33.743 173.538 30.746 173.538 26.237C173.538 21.944 176.535 18.812 180.693 18.812C185.256 18.812 188.28 22.511 187.605 27.209H177.372C177.615 29.558 178.749 30.854 180.666 30.854C182.313 30.854 183.42 30.044 183.852 28.613H187.578C186.768 31.88 184.257 33.743 180.747 33.743ZM180.612 21.566C178.857 21.566 177.75 22.7 177.426 24.833H183.636C183.528 22.835 182.394 21.566 180.612 21.566Z" fill="black"/>
</svg>
