<svg width="170" height="49" viewBox="0 0 170 49" fill="none" xmlns="http://www.w3.org/2000/svg">
<path d="M0 8H28.8C31.3202 8 32.5804 8 33.543 8.49047C34.3897 8.9219 35.0781 9.61031 35.5095 10.457C36 11.4196 36 12.6798 36 15.2V17H7.2C4.67976 17 3.41965 17 2.45704 16.5095C1.61031 16.0781 0.921901 15.3897 0.490471 14.543C0 13.5804 0 12.3202 0 9.8V8Z" fill="#19D7C4"/>
<path d="M0 29H28.8C31.3202 29 32.5804 29 33.543 28.5095C34.3897 28.0781 35.0781 27.3897 35.5095 26.543C36 25.5804 36 24.3202 36 21.8V20H7.2C4.67976 20 3.41965 20 2.45704 20.4905C1.61031 20.9219 0.921901 21.6103 0.490471 22.457C0 23.4196 0 24.6798 0 27.2V29Z" fill="#19D7C4"/>
<path d="M14 32H28.8C31.3202 32 32.5804 32 33.543 32.4905C34.3897 32.9219 35.0781 33.6103 35.5095 34.457C36 35.4196 36 36.6798 36 39.2V41H21.2C18.6798 41 17.4196 41 16.457 40.5095C15.6103 40.0781 14.9219 39.3897 14.4905 38.543C14 37.5804 14 36.3202 14 33.8V32Z" fill="#19D7C4"/>
<path d="M46 33.4994V13.8164H55.828C57.106 13.8164 58.258 13.9964 59.284 14.3564C60.31 14.6984 61.129 15.2834 61.741 16.1114C62.353 16.9214 62.659 18.0464 62.659 19.4864C62.659 20.7824 62.326 21.8444 61.66 22.6724C61.012 23.4824 60.13 23.9864 59.014 24.1844V24.4004C61.264 24.5984 62.389 25.8854 62.389 28.2614V33.4994H57.907V28.9094C57.907 27.9554 57.682 27.2984 57.232 26.9384C56.8 26.5604 56.179 26.3714 55.369 26.3714H50.428V33.4994H46ZM54.856 17.5424H50.428V22.8884H54.937C55.945 22.8884 56.692 22.6994 57.178 22.3214C57.664 21.9254 57.907 21.3854 57.907 20.7014V19.8374C57.907 19.0094 57.637 18.4244 57.097 18.0824C56.557 17.7224 55.81 17.5424 54.856 17.5424Z" fill="black"/>
<path d="M68.6851 33.7694C67.3531 33.7694 66.2731 33.4184 65.4451 32.7164C64.6171 31.9964 64.2031 31.0424 64.2031 29.8544V29.8004C64.2031 28.4144 64.6441 27.3434 65.5261 26.5874C66.4081 25.8314 67.5961 25.3634 69.0901 25.1834L73.1401 24.6434V24.0764C73.1401 22.7084 72.3121 22.0244 70.6561 22.0244C69.8641 22.0244 69.2341 22.1774 68.7661 22.4834C68.3161 22.7894 68.0911 23.2304 68.0911 23.8064H64.3381C64.3381 22.2044 64.9231 20.9624 66.0931 20.0804C67.2631 19.1804 68.9101 18.7304 71.0341 18.7304C72.9781 18.7304 74.4991 19.1444 75.5971 19.9724C76.7131 20.8004 77.2711 22.1144 77.2711 23.9144V30.5834H79.1611V33.4994H74.1931L73.8691 31.2584H73.5721C73.2121 32.0504 72.6091 32.6714 71.7631 33.1214C70.9351 33.5534 69.9091 33.7694 68.6851 33.7694ZM70.4671 30.7994C71.1871 30.7994 71.7901 30.6284 72.2761 30.2864C72.7801 29.9264 73.0681 29.4674 73.1401 28.9094V26.9654L70.4131 27.3704C69.8011 27.4424 69.3061 27.6044 68.9281 27.8564C68.5501 28.0904 68.3611 28.4504 68.3611 28.9364V29.2874C68.3611 29.7374 68.5411 30.1064 68.9011 30.3944C69.2791 30.6644 69.8011 30.7994 70.4671 30.7994Z" fill="black"/>
<path d="M81.0348 33.4994V19.0004H85.1928V33.4994H81.0348ZM81.0348 17.1644V13.8164H85.1928V17.1644H81.0348Z" fill="black"/>
<path d="M88.4313 33.4994V13.8164H92.5893V33.4994H88.4313Z" fill="black"/>
<path d="M101.147 33.7694C99.0769 33.7694 97.4929 33.3194 96.3949 32.4194C95.3149 31.5194 94.7839 30.3494 94.8019 28.9094H98.7709C98.8069 29.6294 99.0499 30.1424 99.4999 30.4484C99.9679 30.7544 100.562 30.9074 101.282 30.9074C102.002 30.9074 102.515 30.7724 102.821 30.5024C103.145 30.2144 103.307 29.8724 103.307 29.4764C103.307 28.8464 103.082 28.4324 102.632 28.2344C102.182 28.0184 101.48 27.8384 100.526 27.6944C99.6619 27.5684 98.8159 27.3704 97.9879 27.1004C97.1599 26.8304 96.4759 26.4074 95.9359 25.8314C95.4139 25.2374 95.1529 24.4274 95.1529 23.4014C95.1529 22.3934 95.4049 21.5474 95.9089 20.8634C96.4309 20.1614 97.1419 19.6304 98.0419 19.2704C98.9419 18.9104 99.9769 18.7304 101.147 18.7304C102.929 18.7304 104.369 19.1264 105.467 19.9184C106.583 20.7104 107.159 21.8264 107.195 23.2664L103.28 23.2394C103.28 22.6814 103.082 22.2584 102.686 21.9704C102.308 21.6644 101.795 21.5114 101.147 21.5114C100.517 21.5114 100.04 21.6374 99.7159 21.8894C99.3919 22.1414 99.2299 22.4744 99.2299 22.8884C99.2299 23.4644 99.4909 23.8424 100.013 24.0224C100.553 24.2024 101.228 24.3554 102.038 24.4814C102.722 24.5714 103.388 24.6974 104.036 24.8594C104.684 25.0034 105.269 25.2374 105.791 25.5614C106.331 25.8854 106.754 26.3354 107.06 26.9114C107.366 27.4694 107.519 28.2074 107.519 29.1254C107.519 30.5474 106.961 31.6814 105.845 32.5274C104.747 33.3554 103.181 33.7694 101.147 33.7694Z" fill="black"/>
<path d="M109.922 38.0084V19.0004H113.864L114.08 21.1334H114.269C114.629 20.3774 115.187 19.7924 115.943 19.3784C116.717 18.9464 117.581 18.7304 118.535 18.7304C120.479 18.7304 121.892 19.3874 122.774 20.7014C123.656 22.0154 124.097 23.7704 124.097 25.9664V26.5874C124.097 29.0894 123.593 30.9164 122.585 32.0684C121.595 33.2024 120.245 33.7694 118.535 33.7694C117.599 33.7694 116.744 33.5624 115.97 33.1484C115.196 32.7164 114.629 32.1224 114.269 31.3664H114.08V38.0084H109.922ZM116.861 30.3944C117.761 30.3944 118.454 30.1424 118.94 29.6384C119.426 29.1344 119.669 28.4234 119.669 27.5054V25.0214C119.669 24.1034 119.426 23.3924 118.94 22.8884C118.454 22.3664 117.761 22.1054 116.861 22.1054C116.015 22.1054 115.34 22.3664 114.836 22.8884C114.35 23.4104 114.107 24.1394 114.107 25.0754V27.4514C114.107 28.3874 114.35 29.1164 114.836 29.6384C115.34 30.1424 116.015 30.3944 116.861 30.3944Z" fill="black"/>
<path d="M132.599 33.7694C130.997 33.7694 129.656 33.4634 128.576 32.8514C127.514 32.2214 126.722 31.3484 126.2 30.2324C125.678 29.0984 125.417 27.7844 125.417 26.2904V26.0474C125.417 24.4814 125.705 23.1584 126.281 22.0784C126.857 20.9804 127.658 20.1524 128.684 19.5944C129.728 19.0184 130.925 18.7304 132.275 18.7304C133.751 18.7304 135.002 19.0094 136.028 19.5674C137.072 20.1254 137.864 20.9084 138.404 21.9164C138.944 22.9244 139.214 24.1034 139.214 25.4534V27.2894H129.629V28.0454C129.629 28.8194 129.89 29.4404 130.412 29.9084C130.952 30.3764 131.636 30.6104 132.464 30.6104C133.202 30.6104 133.805 30.4484 134.273 30.1244C134.759 29.8004 135.047 29.3684 135.137 28.8284H139.052C138.998 29.8184 138.692 30.6824 138.134 31.4204C137.576 32.1584 136.82 32.7344 135.866 33.1484C134.912 33.5624 133.823 33.7694 132.599 33.7694ZM129.629 24.5894V24.7244H135.137V24.5894C135.137 23.6174 134.885 22.9154 134.381 22.4834C133.877 22.0334 133.22 21.8084 132.41 21.8084C131.546 21.8084 130.862 22.0514 130.358 22.5374C129.872 23.0054 129.629 23.6894 129.629 24.5894Z" fill="black"/>
<path d="M147.721 33.7694C146.119 33.7694 144.778 33.4634 143.698 32.8514C142.636 32.2214 141.844 31.3484 141.322 30.2324C140.8 29.0984 140.539 27.7844 140.539 26.2904V26.0474C140.539 24.4814 140.827 23.1584 141.403 22.0784C141.979 20.9804 142.78 20.1524 143.806 19.5944C144.85 19.0184 146.047 18.7304 147.397 18.7304C148.873 18.7304 150.124 19.0094 151.15 19.5674C152.194 20.1254 152.986 20.9084 153.526 21.9164C154.066 22.9244 154.336 24.1034 154.336 25.4534V27.2894H144.751V28.0454C144.751 28.8194 145.012 29.4404 145.534 29.9084C146.074 30.3764 146.758 30.6104 147.586 30.6104C148.324 30.6104 148.927 30.4484 149.395 30.1244C149.881 29.8004 150.169 29.3684 150.259 28.8284H154.174C154.12 29.8184 153.814 30.6824 153.256 31.4204C152.698 32.1584 151.942 32.7344 150.988 33.1484C150.034 33.5624 148.945 33.7694 147.721 33.7694ZM144.751 24.5894V24.7244H150.259V24.5894C150.259 23.6174 150.007 22.9154 149.503 22.4834C148.999 22.0334 148.342 21.8084 147.532 21.8084C146.668 21.8084 145.984 22.0514 145.48 22.5374C144.994 23.0054 144.751 23.6894 144.751 24.5894Z" fill="black"/>
<path d="M161.223 33.7694C159.279 33.7694 157.866 33.1124 156.984 31.7984C156.102 30.4844 155.661 28.7294 155.661 26.5334V25.9394C155.661 23.4194 156.156 21.5924 157.146 20.4584C158.154 19.3064 159.504 18.7304 161.196 18.7304C162.15 18.7304 163.005 18.9464 163.761 19.3784C164.535 19.7924 165.102 20.3774 165.462 21.1334H165.651V13.8164H169.809V33.4994H165.867L165.651 31.3664H165.462C165.102 32.1224 164.544 32.7164 163.788 33.1484C163.032 33.5624 162.177 33.7694 161.223 33.7694ZM162.87 30.3944C163.716 30.3944 164.391 30.1334 164.895 29.6114C165.399 29.0894 165.651 28.3604 165.651 27.4244V25.0484C165.651 24.1304 165.399 23.4104 164.895 22.8884C164.391 22.3664 163.716 22.1054 162.87 22.1054C161.988 22.1054 161.304 22.3574 160.818 22.8614C160.332 23.3654 160.089 24.0764 160.089 24.9944V27.5054C160.089 28.4054 160.332 29.1164 160.818 29.6384C161.304 30.1424 161.988 30.3944 162.87 30.3944Z" fill="black"/>
</svg>
