<svg width="199" height="20" viewBox="0 0 199 20" fill="none" xmlns="http://www.w3.org/2000/svg">
<g clip-path="url(#clip0_12941_491)">
<path d="M1.40914 19.4465C0.94553 19.4465 0.743318 19.0027 0.965258 18.5958L14.3951 1.20433C14.7157 0.791272 15.1756 0.449732 15.6405 0.449732H31.3957C32.0208 0.449732 32.2465 0.95896 31.7656 1.58039L18.8364 18.322C18.3592 18.9459 17.6811 19.4465 17.0559 19.4465H1.40914ZM21.5773 19.4465C21.1125 19.4465 20.9152 19.0027 21.1335 18.5958L34.5608 1.20433C34.8814 0.791272 35.3438 0.449732 35.8062 0.449732H42.9982C43.6209 0.449732 43.8478 0.95896 43.3669 1.58039L30.4377 18.322C29.9531 18.9459 29.2811 19.4465 28.6585 19.4465H21.5773ZM33.8531 19.4465C33.3845 19.4465 33.186 19.0027 33.4092 18.5958L46.8366 1.20433C47.1522 0.791272 47.6158 0.449732 48.0819 0.449732H53.4442C54.0681 0.449732 54.295 0.95896 53.8141 1.58039L40.8836 18.322C40.4065 18.9459 39.7283 19.4465 39.1118 19.4465H33.8531ZM48.5924 19.4465C49.2162 19.4465 49.8895 18.9459 50.3642 18.322L63.2983 1.58039C63.778 0.95896 63.5511 0.449732 62.9284 0.449732H59.2541C58.7929 0.449732 58.3293 0.791272 58.0149 1.20433L44.5802 18.5958C44.3632 19.0027 44.5678 19.4465 45.0302 19.4465H48.5924ZM57.6154 19.4465C58.2319 19.4465 58.9101 18.9459 59.3885 18.322L72.3214 1.58039C72.7986 0.95896 72.5717 0.449732 71.9478 0.449732H69.3659C68.9023 0.449732 68.4412 0.791272 68.1267 1.20433L54.692 18.5958C54.475 19.0027 54.6797 19.4465 55.1359 19.4465H57.6154ZM70.2943 19.4465H64.0801C63.6164 19.4465 63.4142 19.0027 63.6325 18.5958L77.0648 1.20433C77.3792 0.791272 77.8403 0.449732 78.3076 0.449732H107.184C107.961 0.449732 108.442 1.09459 108.442 1.87138V18.3183C108.441 18.617 108.322 18.9033 108.111 19.1146C107.9 19.3259 107.614 19.4452 107.315 19.4465H102.506C102.208 19.4449 101.922 19.3255 101.71 19.1143C101.499 18.9031 101.38 18.6171 101.378 18.3183V15.9313C101.378 15.2617 101.316 14.9966 100.644 14.9966H75.3632C74.8947 14.9966 74.5667 15.332 74.235 15.734L74.161 15.8326L72.2363 18.3257C71.7505 18.9509 71.0798 19.4515 70.4571 19.4515H70.2931L70.2943 19.4465ZM82.7624 5.24733C82.4542 5.24733 82.1668 5.47667 81.951 5.75286L78.9858 9.58995C78.7725 9.86737 78.9118 10.0942 79.2287 10.0942H100.644C101.321 10.0942 101.374 9.83285 101.378 9.16333V6.50005C101.378 5.58887 101.403 5.24733 100.644 5.24733H82.7624ZM136.97 13.6897C136.442 14.0201 136.068 14.3518 135.452 14.3518H130.674C130.058 14.3518 129.682 14.0201 129.156 13.6897L119.956 7.86745C119.432 7.53701 118.998 7.76881 118.998 8.39147V18.3183C118.998 18.6176 118.879 18.9045 118.667 19.1161C118.456 19.3277 118.169 19.4465 117.869 19.4465H113.057C112.758 19.4459 112.471 19.3268 112.26 19.1154C112.049 18.9039 111.929 18.6174 111.929 18.3183V1.57916C111.929 0.95896 112.438 0.450965 113.057 0.450965H118.211C118.827 0.450965 119.197 0.720991 119.724 1.05513L132.275 9.18306C132.795 9.51597 133.314 9.51597 133.836 9.18306L146.386 1.06007C146.911 0.72469 147.284 0.455897 147.904 0.455897H153.054C153.671 0.455897 154.176 0.963892 154.176 1.58409V18.3233C154.176 18.9459 153.671 19.4515 153.054 19.4515H148.246C147.946 19.4515 147.658 19.3328 147.446 19.1214C147.233 18.91 147.113 18.6231 147.111 18.3233V8.39641C147.111 7.77374 146.685 7.54194 146.159 7.87238L137.001 13.6736L136.976 13.686L136.97 13.6897ZM197.59 9.05729C197.589 8.75881 197.469 8.47304 197.258 8.26221C197.047 8.05137 196.76 7.93254 196.462 7.93157H177.921C177.623 7.93318 177.337 8.05222 177.126 8.26292C176.915 8.47361 176.795 8.75901 176.793 9.05729V10.6442C176.793 11.2656 177.305 11.8007 177.921 11.8007H189.578C190.359 11.8007 190.32 12.1423 190.32 13.0522V13.2458C190.32 14.1496 190.357 14.3481 189.588 14.3481H165.855C165.708 14.3478 165.561 14.3183 165.425 14.2614C165.289 14.2045 165.165 14.1213 165.061 14.0165C164.957 13.9117 164.874 13.7874 164.818 13.6507C164.762 13.514 164.734 13.3676 164.734 13.2199V6.35703C164.734 5.7393 165.233 5.23007 165.855 5.23007H196.462C197.082 5.23007 197.59 4.72454 197.59 4.10557V1.57546C197.589 1.27674 197.469 0.990722 197.258 0.779495C197.047 0.568268 196.761 0.448885 196.462 0.447266H158.798C158.499 0.44889 158.213 0.568352 158.002 0.779649C157.792 0.990945 157.673 1.27697 157.672 1.57546V18.3159C157.672 18.9385 158.177 19.4441 158.798 19.4441H196.462C197.082 19.4441 197.59 18.9385 197.59 18.3159V8.86495" fill="#012522"/>
</g>
<defs>
<clipPath id="clip0_12941_491">
<rect width="198" height="20" fill="white" transform="translate(0.5)"/>
</clipPath>
</defs>
</svg>
