<svg width="164" height="30" viewBox="0 0 164 30" fill="none" xmlns="http://www.w3.org/2000/svg">
<g clip-path="url(#clip0_12941_486)">
<path d="M2.65265 10.4113L0.913086 28.9227H10.3313L11.3905 17.6821H20.2091L19.1475 28.9227H28.564L31.2399 0.561035H21.8212L20.895 10.4118H12.3889V10.4113H2.65265Z" fill="#012522"/>
<path d="M12.1884 9.22915L13.0057 0.560059H3.587L2.76855 9.22915H12.1884Z" fill="#012522"/>
<path d="M33.2484 7.29216L31.3047 28.9223H39.782L41.7241 7.29216H33.2484ZM41.9361 6.08167L42.4568 0.560059H33.98L33.4594 6.08167H41.9361ZM54.033 12.1589C54.7201 12.1589 55.3812 12.3563 55.86 12.7551C56.3818 13.1093 56.718 13.6272 56.6982 14.3057H64.405C64.6876 9.02101 59.0267 7.78853 54.2293 7.78853C49.7794 7.78853 43.6154 9.14003 43.1229 14.3458C42.7901 17.8813 45.2218 19.7873 51.5895 20.8184C55.4675 21.453 56.1618 21.8128 56.0507 23.003C55.9373 24.196 54.1453 24.5954 53.0324 24.5954C52.0035 24.5954 51.2144 24.3562 50.8213 23.9986C50.2256 23.483 49.9396 22.8851 49.9656 22.1727H41.8735C41.4996 27.493 47.0505 29.4395 52.2743 29.4395C57.6696 29.4395 63.7231 27.894 64.2601 22.1727C64.5788 18.7934 62.2441 17.2456 59.4971 16.4114C56.7524 15.5359 53.5604 15.3791 52.1998 14.8173C51.7458 14.625 51.2573 14.3463 51.3148 13.7496C51.4406 12.3981 52.8338 12.1589 54.033 12.1589ZM73.2902 16.2901C73.8869 14.0632 75.4573 12.8329 77.9809 12.8329C80.1678 12.8329 81.5638 14.3847 81.3811 16.2901H73.2902ZM77.6881 7.78909C70.6661 7.78909 65.4959 12.6744 64.933 18.6733C64.2855 25.5475 69.2701 29.4395 76.3722 29.4395C81.4262 29.4395 86.2884 27.3734 88.4217 22.9235H80.4994C79.7205 23.9168 78.1783 24.3923 76.8071 24.3923C74.1537 24.3923 72.8558 22.7272 72.8626 20.3829H89.129C89.8883 12.358 86.5067 7.78909 77.6881 7.78909ZM107.227 7.78909C103.847 7.78909 101.475 8.86025 99.6962 10.9275H99.611L99.8553 8.30691H91.6803L89.736 28.9223H98.2138L99.2404 18.0393C99.5496 14.7395 101.538 14.0632 102.995 14.0632C105.477 14.0632 105.619 15.7328 105.398 18.1171L104.376 28.9223H112.853L114.184 14.7824C114.631 10.0527 111.204 7.78909 107.227 7.78909ZM126.892 12.1589C127.574 12.1589 128.242 12.3563 128.719 12.7551C129.241 13.1093 129.578 13.6272 129.555 14.3057H137.264C137.546 9.02101 131.879 7.78853 127.088 7.78853C122.638 7.78853 116.471 9.14003 115.981 14.3458C115.649 17.8813 118.08 19.7873 124.447 20.8184C128.327 21.453 129.02 21.8128 128.908 23.003C128.794 24.196 127.003 24.5954 125.89 24.5954C124.862 24.5954 124.072 24.3562 123.676 23.9986C123.084 23.483 122.797 22.8851 122.822 22.1727H114.73C114.358 27.493 119.912 29.4395 125.132 29.4395C130.528 29.4395 136.58 27.894 137.12 22.1727C137.436 18.7934 135.101 17.2456 132.355 16.4114C129.611 15.5359 126.416 15.3791 125.058 14.8173C124.603 14.625 124.114 14.3463 124.171 13.7496C124.297 12.3981 125.691 12.1589 126.892 12.1589ZM146.149 16.2901C146.741 14.0632 148.317 12.8329 150.84 12.8329C153.024 12.8329 154.42 14.3847 154.238 16.2901H146.149ZM150.546 7.78909C143.525 7.78909 138.356 12.6744 137.793 18.6733C137.144 25.5475 142.127 29.4395 149.234 29.4395C154.286 29.4395 159.146 27.3734 161.276 22.9235H153.36C152.578 23.9168 151.039 24.3923 149.668 24.3923C147.012 24.3923 145.713 22.7272 145.723 20.3829H161.986C162.743 12.358 159.367 7.78909 150.546 7.78909Z" fill="#012522"/>
</g>
<defs>
<clipPath id="clip0_12941_486">
<rect width="163" height="30" fill="white" transform="translate(0.5)"/>
</clipPath>
</defs>
</svg>
