<svg width="148" height="40" viewBox="0 0 148 40" fill="none" xmlns="http://www.w3.org/2000/svg">
<path d="M57.0198 11.7441V38.3661H50.6417V27.4063H40.7199V38.3661H34.3418V11.7441H40.7199V22.173H50.6417V11.7441H57.0198Z" fill="#19D7C4"/>
<path d="M63.3406 15.0053C62.2215 15.0053 61.3016 14.6766 60.5807 14.0193C59.8843 13.3366 59.5361 12.5023 59.5361 11.5163C59.5361 10.5051 59.8843 9.67074 60.5807 9.01339C61.3016 8.3308 62.2215 7.9895 63.3406 7.9895C64.4347 7.9895 65.3302 8.3308 66.0261 9.01339C66.7474 9.67074 67.1079 10.5051 67.1079 11.5163C67.1079 12.5023 66.7474 13.3366 66.0261 14.0193C65.3302 14.6766 64.4347 15.0053 63.3406 15.0053ZM66.5111 17.2048V38.3658H60.1329V17.2048H66.5111Z" fill="#19D7C4"/>
<path d="M81.2423 32.8673V38.366H77.9973C75.6846 38.366 73.8819 37.7971 72.5892 36.6597C71.296 35.4965 70.6496 33.6133 70.6496 31.0091V22.59H68.1133V17.2049H70.6496V12.0474H77.0278V17.2049H81.205V22.59H77.0278V31.0848C77.0278 31.7171 77.1768 32.1718 77.475 32.45C77.7737 32.7282 78.2709 32.8673 78.9673 32.8673H81.2423Z" fill="#19D7C4"/>
<path d="M102.922 27.444C102.922 28.0508 102.884 28.683 102.81 29.3402H88.375C88.4746 30.655 88.885 31.6661 89.6059 32.3742C90.3518 33.0567 91.2596 33.3983 92.3286 33.3983C93.9204 33.3983 95.0268 32.7152 95.6486 31.35H102.437C102.089 32.7406 101.454 33.9921 100.534 35.1045C99.6395 36.2169 98.5081 37.0894 97.1404 37.7212C95.7727 38.3534 94.2436 38.6695 92.5527 38.6695C90.5137 38.6695 88.6982 38.2268 87.1069 37.3422C85.5155 36.4572 84.2723 35.1933 83.3769 33.5499C82.4819 31.9065 82.0342 29.9848 82.0342 27.7855C82.0342 25.5857 82.4696 23.6644 83.3396 22.0211C84.2351 20.3778 85.4782 19.1136 87.0696 18.2288C88.6609 17.3439 90.4887 16.9015 92.5527 16.9015C94.5668 16.9015 96.3572 17.3313 97.9236 18.1909C99.4904 19.0505 100.709 20.2766 101.579 21.8694C102.474 23.4622 102.922 25.3204 102.922 27.444ZM96.3945 25.7377C96.3945 24.6252 96.0213 23.7403 95.2754 23.0829C94.5295 22.4256 93.5968 22.0969 92.4782 22.0969C91.4086 22.0969 90.5014 22.413 89.755 23.045C89.0341 23.6771 88.5864 24.5746 88.4123 25.7377H96.3945Z" fill="#19D7C4"/>
<path d="M103.526 27.7855C103.526 25.5857 103.961 23.6644 104.832 22.0211C105.727 20.3778 106.958 19.1136 108.525 18.2288C110.116 17.3439 111.931 16.9015 113.97 16.9015C116.581 16.9015 118.757 17.5967 120.497 18.9872C122.263 20.3778 123.419 22.3371 123.966 24.8653H117.178C116.606 23.2473 115.499 22.4382 113.858 22.4382C112.689 22.4382 111.757 22.906 111.061 23.8414C110.364 24.7516 110.016 26.0663 110.016 27.7855C110.016 29.5047 110.364 30.832 111.061 31.7674C111.757 32.6773 112.689 33.1325 113.858 33.1325C115.499 33.1325 116.606 32.3238 117.178 30.7053H123.966C123.419 33.1834 122.263 35.1299 120.497 36.5455C118.732 37.9615 116.556 38.6695 113.97 38.6695C111.931 38.6695 110.116 38.2268 108.525 37.3422C106.958 36.4572 105.727 35.1933 104.832 33.5499C103.961 31.9065 103.526 29.9848 103.526 27.7855Z" fill="#19D7C4"/>
<path d="M138.678 16.9772C141.066 16.9772 142.98 17.7863 144.422 19.4043C145.865 20.9971 146.586 23.1966 146.586 26.0029V38.3658H140.245V26.875C140.245 25.4594 139.884 24.3596 139.163 23.5759C138.442 22.7921 137.472 22.4003 136.254 22.4003C135.036 22.4003 134.066 22.7921 133.345 23.5759C132.623 24.3596 132.263 25.4594 132.263 26.875V38.3658H125.885V10.3027H132.263V20.049C132.909 19.1136 133.792 18.3677 134.911 17.8116C136.03 17.2553 137.286 16.9772 138.678 16.9772Z" fill="#19D7C4"/>
<path d="M1.31738 24.4503V1.43042H8.86602V13.2637C10.1835 12.7466 11.6152 12.4631 13.1121 12.4631C19.6262 12.4631 24.9067 17.8322 24.9067 24.4552V38.3659H17.3582V24.4552C17.3582 22.071 15.4571 20.1381 13.1121 20.1381C10.7681 20.1381 8.86767 22.0692 8.86602 24.4521V24.4552V38.3659H1.31738V24.4552V24.4503Z" fill="#19D7C4"/>
<path d="M17.3594 9.10535V1.43042H24.9078V9.10535H17.3594Z" fill="#19D7C4"/>
</svg>
