<svg width="174" height="49" viewBox="0 0 174 49" fill="none" xmlns="http://www.w3.org/2000/svg">
<path fill-rule="evenodd" clip-rule="evenodd" d="M40 24.5C40 35.5457 31.0457 44.5 20 44.5C10.192 44.5 2.03295 37.44 0.327625 28.1246C0.322485 28.0966 0.317401 28.0685 0.312378 28.0403C0.107119 26.8912 0 25.7081 0 24.5C0 23.5355 0.0682793 22.5869 0.200267 21.6588C1.44779 12.8868 8.38683 5.94779 17.1588 4.70027C17.1735 4.69817 17.1882 4.6961 17.203 4.69403C18.117 4.56613 19.0508 4.5 20 4.5C21.2377 4.5 22.4491 4.61243 23.6246 4.82763C32.94 6.53295 40 14.692 40 24.5ZM35 24.5C35 32.7843 28.2843 39.5 20 39.5C13.7572 39.5 8.40507 35.6863 6.1464 30.2615C7.07421 30.4184 8.02757 30.5 9 30.5C18.3888 30.5 26 22.8888 26 13.5C26 12.5276 25.9184 11.5742 25.7615 10.6464C31.1863 12.9051 35 18.2572 35 24.5ZM20.3183 9.50331C20.7598 10.7535 21 12.0987 21 13.5C21 20.1274 15.6274 25.5 9 25.5C7.5987 25.5 6.25349 25.2598 5.00331 24.8183C5.00111 24.7125 5 24.6064 5 24.5C5 16.2157 11.7157 9.5 20 9.5C20.1064 9.5 20.2125 9.50111 20.3183 9.50331Z" fill="#19D7C4"/>
<path d="M50 33.4999V12.4999H63.71V15.5899H53.84V21.3499H62.81V24.3499H53.84V30.4099H63.71V33.4999H50Z" fill="black"/>
<path d="M72.7437 33.8599C71.2237 33.8599 69.8837 33.5299 68.7237 32.8699C67.5637 32.2099 66.6437 31.2899 65.9637 30.1099C65.3037 28.9299 64.9738 27.5799 64.9738 26.0599C64.9738 24.5399 65.3037 23.1899 65.9637 22.0099C66.6437 20.8299 67.5637 19.9099 68.7237 19.2499C69.8837 18.5899 71.2237 18.2599 72.7437 18.2599C74.6437 18.2599 76.2438 18.7599 77.5438 19.7599C78.8438 20.7399 79.6738 22.0999 80.0338 23.8399H75.9837C75.7837 23.1199 75.3838 22.5599 74.7838 22.1599C74.2038 21.7399 73.5138 21.5299 72.7138 21.5299C71.6538 21.5299 70.7538 21.9299 70.0138 22.7299C69.2738 23.5299 68.9037 24.6399 68.9037 26.0599C68.9037 27.4799 69.2738 28.5899 70.0138 29.3899C70.7538 30.1899 71.6538 30.5899 72.7138 30.5899C73.5138 30.5899 74.2038 30.3899 74.7838 29.9899C75.3838 29.5899 75.7837 29.0199 75.9837 28.2799H80.0338C79.6738 29.9599 78.8438 31.3099 77.5438 32.3299C76.2438 33.3499 74.6437 33.8599 72.7437 33.8599Z" fill="black"/>
<path d="M81.642 33.4999V11.8999H85.482V33.4999H81.642Z" fill="black"/>
<path d="M89.6757 16.3099C88.9757 16.3099 88.3957 16.0999 87.9357 15.6799C87.4957 15.2599 87.2757 14.7299 87.2757 14.0899C87.2757 13.4499 87.4957 12.9299 87.9357 12.5299C88.3957 12.1099 88.9757 11.8999 89.6757 11.8999C90.3757 11.8999 90.9457 12.1099 91.3857 12.5299C91.8457 12.9299 92.0757 13.4499 92.0757 14.0899C92.0757 14.7299 91.8457 15.2599 91.3857 15.6799C90.9457 16.0999 90.3757 16.3099 89.6757 16.3099ZM87.7557 33.4999V18.6199H91.5957V33.4999H87.7557Z" fill="black"/>
<path d="M93.8037 40.0999V18.6199H97.2238L97.6437 20.7499C98.1237 20.0899 98.7537 19.5099 99.5337 19.0099C100.334 18.5099 101.364 18.2599 102.624 18.2599C104.024 18.2599 105.274 18.5999 106.374 19.2799C107.474 19.9599 108.344 20.8899 108.984 22.0699C109.624 23.2499 109.944 24.5899 109.944 26.0899C109.944 27.5899 109.624 28.9299 108.984 30.1099C108.344 31.2699 107.474 32.1899 106.374 32.8699C105.274 33.5299 104.024 33.8599 102.624 33.8599C101.504 33.8599 100.524 33.6499 99.6838 33.2299C98.8438 32.8099 98.1637 32.2199 97.6437 31.4599V40.0999H93.8037ZM101.814 30.4999C103.034 30.4999 104.044 30.0899 104.844 29.2699C105.644 28.4499 106.044 27.3899 106.044 26.0899C106.044 24.7899 105.644 23.7199 104.844 22.8799C104.044 22.0399 103.034 21.6199 101.814 21.6199C100.574 21.6199 99.5537 22.0399 98.7537 22.8799C97.9738 23.6999 97.5837 24.7599 97.5837 26.0599C97.5837 27.3599 97.9738 28.4299 98.7537 29.2699C99.5537 30.0899 100.574 30.4999 101.814 30.4999Z" fill="black"/>
<path d="M117.724 33.8599C116.404 33.8599 115.244 33.6499 114.244 33.2299C113.244 32.7899 112.444 32.1899 111.844 31.4299C111.244 30.6699 110.884 29.7899 110.764 28.7899H114.634C114.754 29.3699 115.074 29.8699 115.594 30.2899C116.134 30.6899 116.824 30.8899 117.664 30.8899C118.504 30.8899 119.114 30.7199 119.494 30.3799C119.894 30.0399 120.094 29.6499 120.094 29.2099C120.094 28.5699 119.814 28.1399 119.254 27.9199C118.694 27.6799 117.914 27.4499 116.914 27.2299C116.274 27.0899 115.624 26.9199 114.964 26.7199C114.304 26.5199 113.694 26.2699 113.134 25.9699C112.594 25.6499 112.154 25.2499 111.814 24.7699C111.474 24.2699 111.304 23.6599 111.304 22.9399C111.304 21.6199 111.824 20.5099 112.864 19.6099C113.924 18.7099 115.404 18.2599 117.304 18.2599C119.064 18.2599 120.464 18.6699 121.504 19.4899C122.564 20.3099 123.194 21.4399 123.394 22.8799H119.764C119.544 21.7799 118.714 21.2299 117.274 21.2299C116.554 21.2299 115.994 21.3699 115.594 21.6499C115.214 21.9299 115.024 22.2799 115.024 22.6999C115.024 23.1399 115.314 23.4899 115.894 23.7499C116.474 24.0099 117.244 24.2499 118.204 24.4699C119.244 24.7099 120.194 24.9799 121.054 25.2799C121.934 25.5599 122.634 25.9899 123.154 26.5699C123.674 27.1299 123.934 27.9399 123.934 28.9999C123.954 29.9199 123.714 30.7499 123.214 31.4899C122.714 32.2299 121.994 32.8099 121.054 33.2299C120.114 33.6499 119.004 33.8599 117.724 33.8599Z" fill="black"/>
<path d="M132.766 33.8599C131.266 33.8599 129.936 33.5399 128.776 32.8999C127.616 32.2599 126.706 31.3599 126.046 30.1999C125.386 29.0399 125.056 27.6999 125.056 26.1799C125.056 24.6399 125.376 23.2699 126.016 22.0699C126.676 20.8699 127.576 19.9399 128.716 19.2799C129.876 18.5999 131.236 18.2599 132.796 18.2599C134.256 18.2599 135.546 18.5799 136.666 19.2199C137.786 19.8599 138.656 20.7399 139.276 21.8599C139.916 22.9599 140.236 24.1899 140.236 25.5499C140.236 25.7699 140.226 25.9999 140.206 26.2399C140.206 26.4799 140.196 26.7299 140.176 26.9899H128.866C128.946 28.1499 129.346 29.0599 130.066 29.7199C130.806 30.3799 131.696 30.7099 132.736 30.7099C133.516 30.7099 134.166 30.5399 134.686 30.1999C135.226 29.8399 135.626 29.3799 135.886 28.8199H139.786C139.506 29.7599 139.036 30.6199 138.376 31.3999C137.736 32.1599 136.936 32.7599 135.976 33.1999C135.036 33.6399 133.966 33.8599 132.766 33.8599ZM132.796 21.3799C131.856 21.3799 131.026 21.6499 130.306 22.1899C129.586 22.7099 129.126 23.5099 128.926 24.5899H136.336C136.276 23.6099 135.916 22.8299 135.256 22.2499C134.596 21.6699 133.776 21.3799 132.796 21.3799Z" fill="black"/>
<path d="M141.065 33.4999L143.105 21.8299H141.065L141.635 18.6199H143.675L143.975 16.8799C144.295 15.0799 144.975 13.7999 146.015 13.0399C147.075 12.2799 148.395 11.8999 149.975 11.8999H151.595L150.995 15.1699H149.975C149.315 15.1699 148.815 15.2999 148.475 15.5599C148.155 15.8199 147.935 16.2599 147.815 16.8799L147.515 18.6199H150.725L150.155 21.8299H146.945L144.905 33.4999H141.065Z" fill="black"/>
<path d="M154.965 33.8599C153.405 33.8599 152.205 33.4399 151.365 32.5999C150.525 31.7399 150.105 30.5099 150.105 28.9099C150.105 28.3499 150.165 27.7199 150.285 27.0199L151.785 18.6199H155.595L154.185 26.6599C154.145 26.8999 154.115 27.1299 154.095 27.3499C154.075 27.5499 154.065 27.7399 154.065 27.9199C154.065 29.7199 154.945 30.6199 156.705 30.6199C157.785 30.6199 158.735 30.2499 159.555 29.5099C160.375 28.7499 160.905 27.7199 161.145 26.4199L162.495 18.6199H166.335L163.725 33.4999H160.335L160.455 31.0399C159.835 31.8999 159.055 32.5899 158.115 33.1099C157.175 33.6099 156.125 33.8599 154.965 33.8599Z" fill="black"/>
<path d="M165.867 33.4999L169.707 11.8999H173.547L169.707 33.4999H165.867Z" fill="black"/>
</svg>
