<svg width="189" height="48" viewBox="0 0 189 48" fill="none" xmlns="http://www.w3.org/2000/svg">
<g clip-path="url(#clip0_12941_479)">
<path d="M8.67486 37.8469L10.8212 30.6452H19.3215L21.3344 37.8469H29.2076L21.3789 10.3796C20.9318 8.76739 19.9467 8.00677 18.2474 8.00677H7.11105V10.6022H8.04972C9.2129 10.6022 9.83997 11.0512 9.83997 11.9434C9.83997 12.5259 9.70449 13.0175 9.25741 14.3607L1.42676 37.8469H8.67486ZM18.2474 25.768H11.9399L15.294 14.8059L18.2474 25.768ZM38.2789 37.8469V10.2886C38.2789 8.85835 37.4311 8.00677 36.0415 8.00677H29.1534V10.6022H29.6005C30.7637 10.6022 31.2553 11.0937 31.2553 12.2569V37.8449H38.2789V37.8469ZM50.2106 37.8469V10.2886C50.2106 8.85835 49.3591 8.00677 47.9772 8.00677H41.0852V10.6022H41.5323C42.6954 10.6022 43.187 11.0937 43.187 12.2569V37.8449H50.2106V37.8469ZM62.3243 37.8469V17.7573C62.3243 16.329 61.4747 15.4794 60.0889 15.4794H53.2879V18.0283H53.6924C54.8556 18.0283 55.3472 18.5644 55.3472 19.7276V37.8449H62.3243V37.8469ZM62.4579 10.7357C62.4579 8.72287 60.9831 7.51518 58.4322 7.51518C55.9259 7.51518 54.4066 8.72287 54.4066 10.7357C54.4066 12.7485 55.9259 13.9581 58.4322 13.9581C60.9831 13.9581 62.4579 12.7485 62.4579 10.7357ZM68.2622 21.874C70.5885 20.7572 73.1394 20.1321 75.1522 20.1321C77.0296 20.1321 77.7011 20.8037 77.7011 22.7681V23.2616C74.8387 23.7068 73.9445 23.8887 72.3343 24.2468C71.4322 24.4553 70.5492 24.7389 69.6944 25.0945C66.8764 26.2131 65.5332 28.406 65.5332 31.7581C65.5332 36.0063 67.368 38.0675 71.1711 38.0675C72.5568 38.0675 73.811 37.8023 74.9277 37.3533C75.9128 36.9082 76.4935 36.5482 77.9257 35.4295V35.7431C77.9257 37.1308 78.6418 37.8449 80.0275 37.8449H86.424V35.4295H86.1124C84.9028 35.4295 84.4557 34.8934 84.4557 33.4593V22.8146C84.4557 17.1322 82.4874 15.1639 76.805 15.1639C74.9742 15.1639 73.1858 15.3865 71.4382 15.789C69.6944 16.1916 68.7983 16.5497 66.6964 17.5812L68.2622 21.874ZM77.7011 27.1112V31.4503C76.538 32.6561 75.1077 33.3741 73.8981 33.3741C72.6478 33.3741 72.2007 32.7471 72.2007 31.0904C72.2007 29.4336 72.5568 28.675 73.811 28.1834C74.7496 27.7808 75.9573 27.4247 77.7011 27.1112ZM96.6139 37.8469V22.7275C97.7771 21.4307 98.9848 20.8482 100.371 20.8482C101.847 20.8482 102.203 21.4307 102.203 23.67V37.8488H109.181V22.6404C109.181 19.1063 108.914 17.9896 107.793 16.78C106.854 15.7503 105.424 15.2104 103.587 15.2104C100.862 15.2104 98.9364 16.0619 96.341 18.4773V17.5832C96.341 16.1935 95.6288 15.4794 94.1927 15.4794H87.5737V18.0283H87.9762C89.1413 18.0283 89.6329 18.5644 89.6329 19.7276V37.8449H96.6139V37.8469ZM129.889 33.1477H120.135L129.442 20.0876V15.4794H114.859C113.2 15.4794 112.444 16.2381 112.444 17.8948V21.963H115.039V21.5624C115.039 20.5347 115.575 20.0411 116.692 20.0411H121.705L112.31 33.2387V37.8469H129.893V33.1477H129.889ZM188.302 23.9777C188.302 10.2441 178.056 0 164.318 0C150.587 0 140.296 10.2441 140.296 23.9777C140.296 37.7559 150.587 48 164.318 48C178.056 48 188.302 37.7559 188.302 23.9777ZM183.558 23.9777C183.558 35.296 175.414 43.5292 164.318 43.5292C153.18 43.5292 145.084 35.296 145.084 23.9777C145.084 12.7059 153.182 4.47466 164.318 4.47466C175.414 4.47466 183.558 12.7059 183.558 23.9777ZM158.102 36.6372V14.9413H154.208C152.284 14.9413 151.522 15.7019 151.522 17.6257V36.6353H158.102V36.6372ZM170.535 36.6372H177.069V17.6257C177.069 15.7019 176.353 14.9413 174.383 14.9413H170.535V36.6372ZM167.585 36.6372V11.4537C167.585 9.43897 166.914 8.76739 164.899 8.76739H159.041V11.5408H159.399L160.026 11.5834C160.25 11.5834 160.471 11.7189 160.653 11.8989C160.922 12.2105 161.009 12.524 161.009 13.1956V36.6372H167.585Z" fill="#012522"/>
</g>
<defs>
<clipPath id="clip0_12941_479">
<rect width="188" height="48" fill="white" transform="translate(0.5)"/>
</clipPath>
</defs>
</svg>
