<svg width="192" height="49" viewBox="0 0 192 49" fill="none" xmlns="http://www.w3.org/2000/svg">
<path d="M0 24.5C0 31.1274 5.37258 36.5 12 36.5V24.5C12 31.1274 17.3726 36.5 24 36.5V24.5C24 31.1274 29.3726 36.5 36 36.5C42.6274 36.5 48 31.1274 48 24.5C48 17.8726 42.6274 12.5 36 12.5C29.3726 12.5 24 17.8726 24 24.5V12.5C17.3726 12.5 12 17.8726 12 24.5V12.5C5.37258 12.5 0 17.8726 0 24.5Z" fill="#19D7C4"/>
<path d="M58 33.5001V15.1401H62.32V29.9901H70.393V33.5001H58Z" fill="black"/>
<path d="M71.9299 17.5161V14.0601H76.0609V17.5161H71.9299ZM71.9299 33.5001V18.9741H76.0609V33.5001H71.9299Z" fill="black"/>
<path d="M83.6441 33.5271C79.9721 33.5271 77.6771 30.6651 77.6771 26.0481C77.6771 21.2151 80.0261 18.5151 83.6441 18.5151C85.2641 18.5151 86.5331 19.1361 87.4241 20.3241V18.9741H91.5551V33.9861C91.5551 37.8741 88.8011 39.8991 84.9941 39.8991C81.2951 39.8991 78.6221 38.2791 78.1091 34.7421H82.2401C82.4021 36.0381 83.5091 36.7401 84.9401 36.7401C86.4251 36.7401 87.4241 36.0651 87.4241 34.0401V31.6101C86.5061 32.8791 85.2101 33.5271 83.6441 33.5271ZM84.6431 30.1791C86.4791 30.1791 87.4241 28.7211 87.4241 26.0211C87.4241 23.3481 86.4521 21.8631 84.6431 21.8631C82.8611 21.8631 81.9161 23.3211 81.9161 26.0481C81.9161 28.6941 82.8611 30.1791 84.6431 30.1791Z" fill="black"/>
<path d="M93.8157 33.5001V14.0601H97.9467V20.8911C98.8917 19.2711 100.377 18.5151 102.159 18.5151C104.94 18.5151 107.019 20.2161 107.019 23.8071V33.5001H102.888V24.6441C102.888 22.8081 102.159 21.8631 100.647 21.8631C98.9997 21.8631 97.9467 23.2941 97.9467 25.1571V33.5001H93.8157Z" fill="black"/>
<path d="M109.821 28.7751V22.1061H108.039V18.9741H109.821V15.5991H113.952V18.9741H116.922V22.1061H113.952V28.2621C113.952 29.6661 114.33 30.4491 116.112 30.4491H116.895V33.5541C116.436 33.7701 115.518 33.9321 114.411 33.9321C111.306 33.9321 109.821 32.1501 109.821 28.7751Z" fill="black"/>
<path d="M121.824 22.9971C121.824 25.8591 130.815 23.3481 130.815 29.0991C130.815 31.9611 128.169 33.9321 124.389 33.9321C120.717 33.9321 118.071 32.3121 117.531 28.7211H121.662C121.851 30.0711 122.958 30.8001 124.497 30.8001C125.955 30.8001 126.684 30.2331 126.684 29.3421C126.684 26.5341 117.882 29.0451 117.882 23.2131C117.882 20.7831 119.853 18.5151 123.741 18.5151C127.224 18.5151 129.87 20.1081 130.275 23.7801H126.171C125.928 22.2951 125.064 21.6741 123.606 21.6741C122.526 21.6741 121.824 22.2141 121.824 22.9971Z" fill="black"/>
<path d="M136.484 39.4671H132.353V18.9741H136.484V20.4861C137.375 19.2171 138.617 18.5151 140.129 18.5151C143.882 18.5151 146.231 21.4581 146.231 26.2101C146.231 31.1511 143.828 33.9321 140.129 33.9321C138.59 33.9321 137.348 33.2841 136.484 32.0421V39.4671ZM139.265 21.8631C137.429 21.8631 136.484 23.4021 136.484 26.2101C136.484 29.0181 137.456 30.5841 139.265 30.5841C141.047 30.5841 141.992 29.0451 141.992 26.2101C141.992 23.4021 141.02 21.8631 139.265 21.8631Z" fill="black"/>
<path d="M161.56 28.7211C160.804 32.0691 158.104 33.9321 154.54 33.9321C150.031 33.9321 147.25 31.0161 147.25 26.2371C147.25 21.2961 150.058 18.5151 154.378 18.5151C158.725 18.5151 161.452 21.4041 161.452 26.1561V27.0741H151.462C151.678 29.3961 152.758 30.6381 154.54 30.6381C155.89 30.6381 156.808 30.0441 157.24 28.7211H161.56ZM154.378 21.8091C152.839 21.8091 151.867 22.8081 151.543 24.6981H157.186C156.862 22.8081 155.89 21.8091 154.378 21.8091Z" fill="black"/>
<path d="M176.866 28.7211C176.11 32.0691 173.41 33.9321 169.846 33.9321C165.337 33.9321 162.556 31.0161 162.556 26.2371C162.556 21.2961 165.364 18.5151 169.684 18.5151C174.031 18.5151 176.758 21.4041 176.758 26.1561V27.0741H166.768C166.984 29.3961 168.064 30.6381 169.846 30.6381C171.196 30.6381 172.114 30.0441 172.546 28.7211H176.866ZM169.684 21.8091C168.145 21.8091 167.173 22.8081 166.849 24.6981H172.492C172.168 22.8081 171.196 21.8091 169.684 21.8091Z" fill="black"/>
<path d="M183.938 33.9321C180.212 33.9321 177.863 31.0161 177.863 26.2371C177.863 21.2961 180.266 18.5151 183.938 18.5151C185.477 18.5151 186.719 19.1631 187.61 20.4051V14.0601H191.741V33.5001H187.61V31.9611C186.719 33.2301 185.45 33.9321 183.938 33.9321ZM184.829 30.5841C186.665 30.5841 187.61 29.0721 187.61 26.2371C187.61 23.4291 186.638 21.8631 184.829 21.8631C183.047 21.8631 182.102 23.4021 182.102 26.2371C182.102 29.0451 183.074 30.5841 184.829 30.5841Z" fill="black"/>
</svg>
