<svg width="134" height="30" viewBox="0 0 134 30" fill="none" xmlns="http://www.w3.org/2000/svg">
<g clip-path="url(#clip0_12941_483)">
<path fill-rule="evenodd" clip-rule="evenodd" d="M18.1851 0.643509H11.6288V13.1824C8.19707 13.7742 4.79779 14.5411 1.44434 15.4801H11.6288V29.2295H18.1851V15.4801H31.4576V29.2295H38.0139V15.4801H44.4968C44.5587 17.64 45.108 19.7579 46.1036 21.6757C47.0991 23.5935 48.5152 25.2615 50.246 26.555C53.1301 28.7816 56.6669 29.9969 60.3105 30.0132C64.4615 30.0107 68.4576 28.4368 71.4954 25.6079C72.9592 24.2595 74.1245 22.6196 74.9165 20.7938C75.7085 18.968 76.1097 16.9967 76.0941 15.0066C76.1084 13.0171 75.7066 11.0467 74.9147 9.22159C74.1228 7.39651 72.9581 5.7571 71.4954 4.40852C68.4492 1.58105 64.4467 0.00976563 60.2905 0.00976562C56.1342 0.00976562 52.1317 1.58105 49.0855 4.40852C46.8074 6.5069 45.2759 9.29112 44.7235 12.3387C42.5003 12.0786 40.266 11.8818 38.0206 11.7484V0.643509H31.4576V11.535H31.1242C26.8012 11.5315 22.4814 11.7697 18.1851 12.2487V0.643509ZM51.133 13.2758C54.4679 13.8694 57.696 14.6097 60.7873 15.4801H51.003C51.2131 20.5724 54.8114 24.5541 60.3105 24.5541C65.8096 24.5541 69.5913 20.3189 69.5913 15.0066C69.5913 9.6942 65.7395 5.40229 60.3105 5.40229C55.4183 5.40229 51.8634 8.81047 51.133 13.2758ZM101.175 29.2362H108.382L110.576 23.1568H122.732L125.279 29.2362H132.913L119.947 0.643509H113.404L101.175 29.2362ZM121.164 18.3414H112.46L115.829 9.23733C116.209 7.93487 116.516 6.61223 116.749 5.27557C116.967 6.57206 117.259 7.85479 117.626 9.11727L121.164 18.3414ZM86.9256 29.2362H93.8554V16.2004L104.774 0.643509H97.7004L90.3638 12.7489L83.0739 0.643509H75.9541L86.9256 16.2004V29.2362Z" fill="#012522"/>
</g>
<defs>
<clipPath id="clip0_12941_483">
<rect width="133" height="30" fill="white" transform="translate(0.5)"/>
</clipPath>
</defs>
</svg>
