<svg width="196" height="46" viewBox="0 0 196 46" fill="none" xmlns="http://www.w3.org/2000/svg">
<g clip-path="url(#clip0_12941_481)">
<path d="M42.8745 0.139233C38.0935 0.0964514 33.578 2.51262 33.578 2.51262C33.578 2.51262 29.0289 5.26781 27.3672 9.39617C27.2813 9.79714 18.269 27.2763 18.269 27.2763C6.84517 23.9729 1.3221 30.6664 1.49618 33.2499C4.25608 40.1735 17.752 35.2482 19.0995 33.6452C19.8454 33.2451 20.3261 33.7243 20.3261 33.7243C20.3261 33.7243 23.6312 35.9248 24.0048 36.098C24.378 36.2712 26.2598 36.0189 26.2598 36.0189C27.7233 35.9077 30.3345 33.0398 30.6508 33.0124C31.1388 33.0138 31.7274 36.1895 33.7364 36.1375C36.147 36.6034 38.7603 33.8828 38.7603 33.8828C39.1043 33.3959 39.235 33.7638 39.235 33.7638C39.1795 36.748 41.6031 36.2216 42.3204 36.1375C44.702 35.1683 50.5355 29.421 49.8763 31.1137C49.6471 31.5722 47.8588 34.911 47.8588 34.911C47.6584 35.8006 48.294 35.7419 48.294 35.7419L52.4869 35.7023C53.2039 35.2736 56.8726 27.3733 56.443 28.4633C57.7651 26.0704 60.7549 25.2195 60.7549 25.2195C61.042 25.1339 60.913 25.5358 60.913 25.5358L56.0078 35.2671C55.9222 35.5247 56.4032 35.7814 56.4032 35.7814L60.6755 35.7023C61.2497 35.6469 64.8292 28.3048 64.8292 28.3048C65.8035 26.4419 69.26 25.3776 69.26 25.3776C69.8908 25.2643 69.4577 25.8919 69.4577 25.8919L66.0953 32.9333C65.5843 36.1302 68.2704 36.3175 69.4182 36.1771C70.5659 36.0083 72.4324 35.3618 76.1034 32.6167C76.8499 32.0455 77.0134 32.6202 77.0134 32.7356C77.0449 36.6669 81.3648 36.2166 81.3648 36.2166C82.6562 36.5359 87.8984 36.4122 92.2829 27.6719C90.6799 33.6075 93.9481 35.2238 94.0632 35.4256C94.1783 35.6262 95.9353 36.2399 96.5948 36.098C103.282 36.6908 106.089 26.2875 106.089 26.2875C107.594 25.1587 107.976 24.8347 108.582 24.5072C110.074 24.6541 110.475 24.6963 111.192 24.7843C111.766 24.987 111.246 25.5225 111.074 25.6939C104.248 31.0131 107.244 35.1149 107.474 35.0299C110.461 39.0842 116.662 32.0168 117.838 31.9047C119.335 37.8783 123.887 35.2778 124.089 35.3067C123.687 36.4822 122.52 39.389 121.517 41.28C119.424 44.2305 116.137 40.9241 116.137 40.9241L115.306 40.8846C114.905 41.3998 115.148 41.9922 115.148 41.9922C116.01 43.3722 117.113 45.2818 120.528 45.7503C123.972 45.9034 125.948 42.1108 125.948 42.1108C125.948 42.1108 130.775 33.2033 131.09 32.142C132.553 30.826 135.091 28.9259 136.985 27.5533C138.218 27.2987 133.898 34.343 133.583 35.3462C133.497 35.9204 133.701 35.9398 133.701 35.9398C133.701 35.9398 136.986 36.103 137.618 36.0189C138.249 35.9345 141.315 28.6509 142.404 27.2766C143.35 25.7007 146.399 24.2304 146.399 24.2304C147.059 24.0888 146.835 24.8633 146.835 24.8633L142.8 33.0126C141.826 36.424 144.567 36.4417 145.055 36.4146C146.374 36.3314 151.305 33.4871 151.305 33.4871C151.993 32.9722 151.977 33.8037 151.977 33.8037C151.92 34.8942 153.098 36.6807 154.074 36.4538C157.575 36.779 162.87 30.9629 163.014 31.5091C163.043 31.6241 161.036 35.5837 161.036 35.5837C161.122 35.8994 161.471 36.0585 161.471 36.0585C161.471 36.0585 164.861 36.0956 165.665 36.098C166.468 36.1004 170.123 27.3665 170.926 26.8806C172.56 25.1923 174.349 25.0321 174.407 25.061C175.01 25.0345 170.996 31.445 170.768 32.7353C169.881 36.4352 172.508 36.3748 172.508 36.3748C174.603 36.6967 179.74 33.0525 179.826 33.3682C180.428 32.7678 180.499 33.4871 180.499 33.4871V33.7638C180.846 36.7498 182.596 36.4143 182.596 36.4143C184.605 36.9365 192.446 30.3619 192.446 30.3619L191.259 29.0566L186.354 32.6167C185.952 32.817 185.721 32.3795 185.721 32.3795L191.219 21.7777C191.477 21.5204 191.101 21.2239 191.101 21.2239H186.156C185.812 21.5956 185.602 21.8568 185.602 21.8568L181.132 30.5599L176.227 32.9728C175.711 33.1144 175.831 32.5774 175.831 32.5774C175.831 32.5774 179.918 24.5574 180.262 23.4391C180.491 22.9234 180.38 22.0943 180.38 22.0943C179.029 18.962 173.571 23.0169 172.825 23.0438C172.796 23.0724 173.498 21.6195 173.498 21.6195C173.698 21.1894 173.3 21.1843 173.3 21.1843L168.711 21.1448C168.711 21.1448 168.724 20.8188 168.552 21.1053C168.38 21.3918 165.428 26.9204 165.428 26.9204L158.03 32.4981C157.399 32.6117 157.555 32.1818 157.555 32.1818L162.975 21.6986L163.014 21.2634L157.793 21.1448L153.481 29.452C153.251 29.7098 148.734 32.2609 148.734 32.2609C148.045 32.4603 148.022 31.8652 148.022 31.8652L152.017 24.1118C152.922 21.087 149.618 20.1977 147.982 20.7887C146.877 21.187 145.846 21.5405 145.846 21.5405C145.846 21.5405 145.519 21.6254 145.806 21.2239C146.293 20.5364 151.344 10.543 151.344 10.543C151.46 10.2559 151.186 10.0683 151.186 10.0683L146.598 10.0288C146.224 10.1993 146.162 10.464 146.162 10.464L139.635 22.8458L134.255 26.8809C133.911 27.1096 133.899 26.7225 133.899 26.7225L136.589 21.6195V21.105L131.763 21.0654L130.971 21.6983C130.426 20.5488 127.656 20.5624 127.57 20.5907C121.773 20.4019 118.511 28.6211 118.511 28.6211C115.285 31.4173 113.795 32.2874 112.735 32.4582C111.854 32.5078 111.588 31.7855 111.588 31.7855C110.36 28.023 118.075 24.4674 118.075 24.4674C118.334 24.3243 119.446 20.9867 119.302 20.9864C119.158 20.9861 109.815 20.9754 109.729 20.9468C109.212 20.7447 106.716 23.0933 105.971 23.6368C103.785 17.2312 95.3172 22.076 94.1423 24.9421C93.6378 25.0767 93.4114 24.9828 93.1533 24.9816C93.2382 22.8012 92.9488 21.4416 91.5709 20.7488C90.8244 20.3452 87.7736 20.7488 87.7736 20.7488L92.9556 10.4241C93.2135 10.109 92.7181 9.79124 92.7181 9.79124H88.0504C87.8494 9.90572 87.6152 10.1866 87.6152 10.1866C87.6152 10.1866 78.7952 27.2695 78.2791 28.1862C77.7634 29.1029 71.3168 32.5376 71.3168 32.5376C71.3735 31.9068 75.5257 24.6869 75.6685 23.281C75.8376 19.6371 71.673 20.7887 71.673 20.7887C71.673 20.7887 69.3146 22.3542 67.1634 23.4391C66.701 19.4486 63.2073 20.8282 63.2073 20.8282L59.2516 23.3996L59.9635 21.5405L60.122 20.8282L55.3746 20.7096C54.8302 21.11 53.8716 23.281 53.8716 23.281L52.3683 26.05L45.604 31.1532C44.9443 31.5241 45.2874 30.639 45.2874 30.639C45.2874 30.639 49.8545 21.6812 49.9551 21.6192C50.3281 21.3906 50.0345 20.8285 50.0345 20.8285L45.4455 20.7887C45.4455 20.7887 44.6684 22.109 44.4964 22.2524C42.313 19.175 35.1081 20.424 31.2441 29.5313C30.7502 30.14 30.3681 30.5661 30.097 30.6785C25.5665 35.9747 22.9762 30.718 22.9762 30.718L31.086 15.2506C31.086 15.2506 34.7756 6.99563 37.0988 4.64879C42.9789 0.676521 44.6545 4.41157 44.6545 4.41157C45.1626 5.58883 46.7119 9.83874 38.7207 11.8882C37.6724 11.9917 38.0085 12.4812 38.0085 12.4812C40.3344 14.4681 43.1908 14.2616 43.1908 14.2616C46.0035 14.8145 53.6253 10.6203 50.8651 3.8973C48.7112 1.08251 45.743 0.164903 42.8745 0.139233ZM163.568 10.6224C159.378 10.7826 159.133 16.4054 163.41 16.9911C167.571 17.1179 168.361 10.8083 163.568 10.6221V10.6224ZM192.09 10.6224C187.556 10.6383 187.893 17.0365 192.169 16.9911C196.445 16.6591 196.079 10.7767 192.09 10.6221V10.6224ZM42.3997 22.6083C43.7407 22.6389 43.5062 24.2458 43.2701 24.5467C43.4138 25.0348 40.936 29.2145 40.936 29.2145C38.069 32.7937 36.7032 32.1417 36.7032 32.1417C36.7032 32.1417 35.7207 32.0053 36.466 30.0849C37.2685 28.7382 38.827 25.2342 40.4612 23.2013C41.3219 22.759 41.9524 22.5979 42.3997 22.6083ZM87.3777 23.0036C88.7842 23.1801 88.0899 24.4674 88.0899 24.4674L84.2129 32.1021C82.9802 33.6202 81.8395 33.0911 81.8395 33.0911C81.2081 32.6297 82.2747 30.8759 82.2747 30.8759L85.9142 23.7554C86.6306 23.011 87.3777 23.0036 87.3777 23.0036ZM127.728 23.0435C128.825 22.8487 129.271 23.7554 129.271 23.7554C129.271 23.7554 129.335 23.9012 129.191 24.7049C128.877 25.9382 125.473 31.8254 125.473 31.8254C124.04 33.2564 122.783 32.9725 122.783 32.9725C122.066 32.7695 122.348 31.7067 122.348 31.7067C122.348 31.7067 125.104 26.0545 126.422 23.6763C126.939 23.2975 127.362 23.1081 127.728 23.0435ZM101.342 23.083C101.948 22.9806 102.524 23.2305 102.41 24.5069C101.694 26.0258 98.8693 31.6058 98.296 32.3789C98.1815 33.0392 95.2968 34.115 96.0409 31.7067C96.0409 31.7067 100.087 24.139 100.116 23.795C100.13 23.6226 100.736 23.1851 101.342 23.083ZM10.2385 29.2941C12.6037 29.2375 14.7481 30.0058 14.7481 30.0058C14.7481 30.0058 14.1949 31.8498 8.97249 32.6958C6.50467 32.5462 5.21529 32.5571 5.21441 31.6675C6.41851 29.8757 8.3989 29.3378 10.2385 29.2938V29.2941Z" fill="#012522"/>
</g>
<defs>
<clipPath id="clip0_12941_481">
<rect width="195" height="46" fill="white" transform="translate(0.5)"/>
</clipPath>
</defs>
</svg>
