<svg width="160" height="40" viewBox="0 0 160 40" fill="none" xmlns="http://www.w3.org/2000/svg">
<path fill-rule="evenodd" clip-rule="evenodd" d="M39.9807 18.3363C40.7643 22.0735 40.4015 25.5493 39.1355 28.4478L39.2026 28.4466C38.1175 31.4172 34.5071 37.6321 26.0074 39.4142C25.687 39.4815 25.364 39.5355 25.0391 39.5761C24.2282 39.6954 23.3867 39.7571 22.5187 39.7571C12.4523 39.7571 2.55525 31.471 0.412095 21.2493C-0.608337 16.3807 0.314359 11.9511 2.64843 8.64675C3.73305 6.5595 9.42122 1.49793 14.0119 0.514357C14.1362 0.487853 14.2554 0.466732 14.3706 0.451409C15.584 0.156129 16.8777 0 18.2402 0C28.124 0 37.8579 8.20942 39.9807 18.3363ZM36.5206 17.479C38.1871 25.4296 33.2452 31.874 25.4822 31.874C17.7197 31.874 10.0756 25.4296 8.40865 17.4795C6.74217 9.52928 11.6845 3.08449 19.447 3.08449C27.2096 3.08449 34.8537 9.52886 36.5206 17.479ZM25.0089 27.4187C30.7546 27.4187 34.4363 22.7622 33.232 17.0177C32.0281 11.2736 26.3938 6.61707 20.648 6.61707C14.9023 6.61707 11.2206 11.2736 12.4245 17.0177C13.6288 22.7622 19.2632 27.4187 25.0089 27.4187ZM30.1272 16.5866C30.8826 20.1904 28.5104 23.1113 24.8283 23.1113C21.1467 23.1113 17.5495 20.1904 16.7941 16.5866C16.0387 12.9836 18.4109 10.0619 22.093 10.0619C25.7746 10.0619 29.3718 12.9832 30.1272 16.5866ZM26.7512 16.5866C27.1239 18.3653 25.9531 19.8069 24.1359 19.8069C22.3187 19.8069 20.5437 18.3653 20.1705 16.587C19.7978 14.8083 20.9686 13.3667 22.7858 13.3667C24.603 13.3667 26.3784 14.8079 26.7512 16.5866Z" fill="#012522"/>
<path d="M66.6146 28.9899C66.6146 29.0998 66.6582 29.2051 66.7359 29.2828C66.8136 29.3604 66.9189 29.4041 67.0287 29.4041H70.177C70.2868 29.4041 70.3922 29.3604 70.4698 29.2828C70.5475 29.2051 70.5911 29.0998 70.5911 28.9899V13.8698H67.0287C66.9189 13.8698 66.8136 13.9135 66.7359 13.9911C66.6582 14.0688 66.6146 14.1741 66.6146 14.284V28.9899ZM66.743 11.4099C67.1244 11.8103 67.7058 12.0104 68.4877 12.0104C69.2696 12.0104 69.842 11.8103 70.2043 11.4099C70.5667 10.9903 70.7477 10.4752 70.7477 9.86513C70.7477 9.2166 70.5667 8.6923 70.2043 8.29141C69.842 7.89094 69.2696 7.69092 68.4877 7.69092C67.7058 7.69092 67.1244 7.89094 66.743 8.29141C66.3806 8.6923 66.1992 9.2166 66.1992 9.86513C66.1992 10.4752 66.3806 10.9903 66.743 11.4099Z" fill="#012522"/>
<path fill-rule="evenodd" clip-rule="evenodd" d="M60.3478 22.1375C59.1269 22.7099 57.6393 22.9956 55.8851 22.9956H52.738V28.9898C52.738 29.0997 52.6944 29.205 52.6167 29.2827C52.5391 29.3603 52.4337 29.404 52.3239 29.404H49.0899C48.9801 29.404 48.8747 29.3603 48.7971 29.2827C48.7194 29.205 48.6758 29.0997 48.6758 28.9898V8.79158C48.6758 8.68174 48.7194 8.57641 48.7971 8.49874C48.8747 8.42108 48.9801 8.37744 49.0899 8.37744H52.3239C52.3686 8.37744 52.4117 8.38448 52.4519 8.39732C52.4925 8.38448 52.5355 8.37744 52.5803 8.37744H55.8851C57.6393 8.37744 59.1269 8.6632 60.3478 9.23553C61.5873 9.80787 62.5315 10.6279 63.1797 11.6955C63.8282 12.7449 64.1525 13.994 64.1525 15.4434V15.9011C64.1525 17.3505 63.8282 18.6095 63.1797 19.6771C62.5315 20.7262 61.5873 21.5461 60.3478 22.1375ZM58.2879 12.3826C57.735 12.0583 57.0484 11.8959 56.2284 11.8959H52.738V19.4771H56.2284C57.0484 19.4771 57.735 19.3148 58.2879 18.9905C58.8602 18.6667 59.2893 18.2181 59.5754 17.6462C59.8807 17.0739 60.0331 16.4162 60.0331 15.672C60.0331 14.9283 59.8807 14.2706 59.5754 13.6983C59.2893 13.1263 58.8602 12.6878 58.2879 12.3826Z" fill="#012522"/>
<path d="M74.1573 29.4033C74.0475 29.4033 73.9421 29.3596 73.8645 29.282C73.7868 29.2043 73.7432 29.099 73.7432 28.9891V14.2831C73.7432 14.1733 73.7868 14.068 73.8645 13.9903C73.9421 13.9126 74.0475 13.869 74.1573 13.869H76.476C76.5859 13.869 76.6912 13.9126 76.7689 13.9903C76.8466 14.068 76.8902 14.1733 76.8902 14.2831V17.6973C76.9821 17.2989 77.0964 16.9286 77.2335 16.587C77.653 15.5189 78.2726 14.718 79.093 14.1838C79.932 13.6499 80.9715 13.3828 82.211 13.3828H82.3825C84.2328 13.3828 85.6343 13.9833 86.588 15.1851C87.5414 16.3675 88.0184 18.1412 88.0184 20.506V28.9891C88.0184 29.099 87.9748 29.2043 87.8971 29.282C87.8195 29.3596 87.7141 29.4033 87.6043 29.4033H84.456C84.3462 29.4033 84.2409 29.3596 84.1632 29.282C84.0855 29.2043 84.0419 29.099 84.0419 28.9891V20.1631C84.0419 19.2093 83.7653 18.4369 83.2124 17.8455C82.6782 17.2546 81.9344 16.9589 80.981 16.9589C80.0082 16.9589 79.2168 17.2641 78.6064 17.8741C78.0154 18.4655 77.7197 19.2664 77.7197 20.2774V28.9891C77.7197 29.099 77.6761 29.2043 77.5984 29.282C77.5207 29.3596 77.4154 29.4033 77.3056 29.4033H74.1573Z" fill="#012522"/>
<path fill-rule="evenodd" clip-rule="evenodd" d="M102.851 22.1375C101.63 22.7099 100.143 22.9956 98.388 22.9956H95.2414V28.9898C95.2414 29.0997 95.1977 29.205 95.1201 29.2827C95.0424 29.3603 94.9371 29.404 94.8273 29.404H91.5928C91.483 29.404 91.3777 29.3603 91.3 29.2827C91.2223 29.205 91.1787 29.0997 91.1787 28.9898V8.79158C91.1787 8.68174 91.2223 8.57641 91.3 8.49874C91.3777 8.42108 91.483 8.37744 91.5928 8.37744H94.8273C94.8716 8.37744 94.9146 8.38449 94.9552 8.39732C94.9966 8.38401 95.0397 8.3773 95.0832 8.37744H98.388C100.143 8.37744 101.63 8.6632 102.851 9.23554C104.09 9.80787 105.034 10.6279 105.683 11.6955C106.332 12.7449 106.655 13.994 106.655 15.4434V15.9011C106.655 17.3505 106.332 18.6095 105.683 19.6772C105.034 20.7262 104.09 21.5462 102.851 22.1375ZM100.791 12.3826C100.238 12.0583 99.5513 11.8959 98.7313 11.8959H95.2414V19.4771H98.7313C99.5513 19.4771 100.238 19.3148 100.791 18.9905C101.363 18.6667 101.792 18.2182 102.078 17.6462C102.384 17.0739 102.536 16.4162 102.536 15.672C102.536 14.9283 102.384 14.2706 102.078 13.6983C101.792 13.1263 101.363 12.6878 100.791 12.3826ZM115.506 29.9473C114.133 29.9473 112.922 29.7282 111.873 29.2893C110.825 28.8507 109.937 28.2597 109.213 27.5159C108.5 26.7716 107.937 25.8976 107.554 24.9412C107.192 23.991 107.008 22.9824 107.01 21.9657V21.3652C107.01 20.2971 107.201 19.2862 107.582 18.3329C107.974 17.3739 108.547 16.4997 109.27 15.7582C110.014 14.9953 110.91 14.404 111.959 13.9844C113.008 13.5455 114.191 13.3264 115.506 13.3264C116.822 13.3264 118.005 13.5459 119.054 13.9844C120.103 14.404 120.989 14.9949 121.714 15.7582C122.45 16.4896 123.025 17.3665 123.402 18.3329C123.784 19.2862 123.974 20.2971 123.974 21.3652V21.9657C123.974 22.9956 123.784 23.9875 123.402 24.9412C123.04 25.8946 122.496 26.7527 121.771 27.5159C121.047 28.2597 120.16 28.8507 119.111 29.2893C118.062 29.7282 116.861 29.9473 115.506 29.9473ZM115.506 26.5431C116.479 26.5431 117.299 26.3331 117.967 25.9136C118.625 25.4852 119.151 24.8806 119.483 24.1685C119.826 23.4247 119.998 22.5856 119.998 21.6513C119.998 20.6976 119.817 19.8581 119.454 19.1334C119.111 18.39 118.596 17.8082 117.91 17.3886C117.242 16.9497 116.441 16.7306 115.506 16.7306C114.572 16.7306 113.762 16.9501 113.075 17.389C112.407 17.8082 111.893 18.39 111.53 19.1338C111.168 19.8585 110.986 20.6976 110.986 21.6513C110.986 22.5856 111.158 23.4247 111.501 24.1685C111.85 24.8783 112.384 25.4811 113.046 25.9136C113.714 26.3331 114.534 26.5431 115.506 26.5431Z" fill="#012522"/>
<path d="M126.769 28.9899C126.769 29.0998 126.813 29.2051 126.89 29.2828C126.968 29.3604 127.073 29.4041 127.183 29.4041H130.331C130.441 29.4041 130.546 29.3604 130.624 29.2828C130.702 29.2051 130.745 29.0998 130.745 28.9899V13.8698H127.183C127.073 13.8698 126.968 13.9135 126.89 13.9911C126.813 14.0688 126.769 14.1741 126.769 14.284V28.9899ZM126.897 11.4099C127.278 11.8103 127.86 12.0104 128.642 12.0104C129.424 12.0104 129.996 11.8103 130.358 11.4099C130.721 10.9903 130.902 10.4752 130.902 9.86513C130.902 9.2166 130.721 8.6923 130.358 8.29141C129.996 7.89094 129.424 7.69092 128.642 7.69092C127.86 7.69092 127.278 7.89094 126.897 8.29141C126.534 8.6923 126.354 9.2166 126.354 9.86513C126.354 10.4752 126.534 10.9903 126.897 11.4099ZM134.312 29.4041C134.202 29.4041 134.097 29.3604 134.019 29.2828C133.941 29.2051 133.898 29.0998 133.898 28.9899V14.284C133.898 14.1741 133.941 14.0688 134.019 13.9911C134.097 13.9135 134.202 13.8698 134.312 13.8698H136.63C136.74 13.8698 136.845 13.9135 136.923 13.9911C137.001 14.0688 137.044 14.1741 137.044 14.284V17.6981C137.13 17.3198 137.245 16.9486 137.388 16.5878C137.807 15.5198 138.427 14.7188 139.247 14.1846C140.086 13.6508 141.126 13.3836 142.366 13.3836H142.537C144.387 13.3836 145.789 13.9841 146.742 15.186C147.696 16.3683 148.173 18.1421 148.173 20.5068V28.9899C148.173 29.0998 148.129 29.2051 148.051 29.2828C147.974 29.3604 147.868 29.4041 147.759 29.4041H144.611C144.501 29.4041 144.396 29.3604 144.318 29.2828C144.24 29.2051 144.197 29.0998 144.197 28.9899V20.1639C144.197 19.2101 143.92 18.4378 143.367 17.8464C142.833 17.2554 142.089 16.9597 141.135 16.9597C140.163 16.9597 139.371 17.2649 138.761 17.8749C138.17 18.4663 137.874 19.2673 137.874 20.2782V28.9899C137.874 29.0998 137.83 29.2051 137.753 29.2828C137.675 29.3604 137.57 29.4041 137.46 29.4041H134.312ZM154.222 29.0608C155.156 29.4231 156.339 29.6041 157.769 29.6041H159.586C159.696 29.6041 159.801 29.5605 159.879 29.4828C159.957 29.4051 160 29.2998 160 29.19V26.614C160 26.5042 159.957 26.3989 159.879 26.3212C159.801 26.2435 159.696 26.1999 159.586 26.1999H157.569C156.806 26.1999 156.214 25.9995 155.795 25.599C155.394 25.1795 155.194 24.5885 155.194 23.8257L155.208 16.7882H159.586C159.696 16.7882 159.801 16.7446 159.879 16.667C159.957 16.5893 160 16.4839 160 16.3741V14.284C160 14.1741 159.957 14.0688 159.879 13.9911C159.801 13.9135 159.696 13.8698 159.586 13.8698H155.214L155.222 9.90779C155.222 9.85333 155.212 9.79939 155.191 9.74905C155.17 9.69871 155.14 9.65296 155.101 9.61442C155.063 9.57587 155.017 9.54529 154.967 9.52443C154.916 9.50357 154.862 9.49282 154.808 9.49282H151.917C151.808 9.49282 151.702 9.53634 151.625 9.61383C151.547 9.69132 151.503 9.79644 151.503 9.90613L151.495 13.8694H149.429C149.319 13.8694 149.214 13.913 149.136 13.9907C149.059 14.0684 149.015 14.1737 149.015 14.2836V16.3737C149.015 16.4835 149.059 16.5889 149.136 16.6665C149.214 16.7442 149.319 16.7878 149.429 16.7878H151.489L151.475 23.5677C151.475 25.0743 151.704 26.2757 152.162 27.1723C152.62 28.0494 153.306 28.6793 154.222 29.0608Z" fill="#012522"/>
</svg>
