<svg width="160" height="43" viewBox="0 0 160 43" fill="none" xmlns="http://www.w3.org/2000/svg">
<path d="M61.6427 12.625V41.2437H54.7475V29.4619H44.0212V41.2437H37.126V12.625H44.0212V23.8361H54.7475V12.625H61.6427Z" fill="#012522"/>
<path d="M68.4772 16.1309C67.2674 16.1309 66.2729 15.7775 65.4936 15.0709C64.7407 14.337 64.3643 13.4401 64.3643 12.3802C64.3643 11.2931 64.7407 10.3962 65.4936 9.68955C66.2729 8.95576 67.2674 8.58887 68.4772 8.58887C69.66 8.58887 70.6282 8.95576 71.3805 9.68955C72.1603 10.3962 72.55 11.2931 72.55 12.3802C72.55 13.4401 72.1603 14.337 71.3805 15.0709C70.6282 15.7775 69.66 16.1309 68.4772 16.1309ZM71.9048 18.4953V41.2434H65.0094V18.4953H71.9048Z" fill="#012522"/>
<path d="M87.8293 35.3326V41.2437H84.3211C81.8209 41.2437 79.8721 40.6321 78.4746 39.4094C77.0765 38.1589 76.3777 36.1345 76.3777 33.335V24.2845H73.6357V18.4955H76.3777V12.9512H83.273V18.4955H87.7889V24.2845H83.273V33.4164C83.273 34.0961 83.4341 34.5849 83.7565 34.884C84.0794 35.183 84.6169 35.3326 85.3698 35.3326H87.8293Z" fill="#012522"/>
<path d="M111.267 29.5021C111.267 30.1544 111.226 30.8341 111.146 31.5405H95.5405C95.6481 32.954 96.0918 34.0409 96.8712 34.8021C97.6775 35.5358 98.6589 35.903 99.8146 35.903C101.535 35.903 102.732 35.1687 103.404 33.7011H110.743C110.366 35.196 109.68 36.5413 108.685 37.7372C107.718 38.933 106.495 39.8709 105.017 40.5501C103.538 41.2297 101.885 41.5695 100.057 41.5695C97.8526 41.5695 95.8899 41.0936 94.1695 40.1427C92.4491 39.1913 91.1051 37.8326 90.1371 36.066C89.1695 34.2993 88.6855 32.2335 88.6855 29.8692C88.6855 27.5045 89.1562 25.4391 90.0968 23.6725C91.0649 21.906 92.4088 20.547 94.1292 19.5958C95.8495 18.6445 97.8255 18.1689 100.057 18.1689C102.234 18.1689 104.17 18.631 105.863 19.5551C107.557 20.4791 108.875 21.7972 109.815 23.5094C110.783 25.2217 111.267 27.2193 111.267 29.5021ZM104.21 27.6679C104.21 26.4719 103.807 25.5207 103 24.8139C102.194 24.1074 101.186 23.754 99.9764 23.754C98.82 23.754 97.8393 24.0938 97.0324 24.7732C96.253 25.4527 95.769 26.4175 95.5808 27.6679H104.21Z" fill="#012522"/>
<path d="M111.92 29.8692C111.92 27.5045 112.39 25.4391 113.332 23.6725C114.299 21.906 115.63 20.547 117.324 19.5958C119.044 18.6445 121.006 18.1689 123.211 18.1689C126.033 18.1689 128.386 18.9163 130.267 20.4111C132.176 21.906 133.426 24.0122 134.017 26.73H126.679C126.06 24.9907 124.864 24.1209 123.09 24.1209C121.826 24.1209 120.818 24.6238 120.066 25.6293C119.312 26.6078 118.936 28.0211 118.936 29.8692C118.936 31.7174 119.312 33.1442 120.066 34.1498C120.818 35.1279 121.826 35.6173 123.09 35.6173C124.864 35.6173 126.06 34.7479 126.679 33.008H134.017C133.426 35.672 132.176 37.7645 130.267 39.2862C128.359 40.8084 126.006 41.5695 123.211 41.5695C121.006 41.5695 119.044 41.0936 117.324 40.1427C115.63 39.1913 114.299 37.8326 113.332 36.066C112.39 34.2993 111.92 32.2335 111.92 29.8692Z" fill="#012522"/>
<path d="M149.922 18.2503C152.504 18.2503 154.573 19.1201 156.132 20.8594C157.692 22.5717 158.471 24.9361 158.471 27.9529V41.243H151.616V28.8904C151.616 27.3686 151.226 26.1864 150.446 25.3439C149.667 24.5013 148.618 24.0801 147.302 24.0801C145.985 24.0801 144.936 24.5013 144.157 25.3439C143.376 26.1864 142.987 27.3686 142.987 28.8904V41.243H136.092V11.0752H142.987V21.5525C143.685 20.5469 144.64 19.7451 145.85 19.1473C147.059 18.5492 148.417 18.2503 149.922 18.2503Z" fill="#012522"/>
<path d="M1.4248 26.284V1.5376H9.5855V14.2584C11.0098 13.7025 12.5576 13.3977 14.1759 13.3977C21.2181 13.3977 26.9268 19.1695 26.9268 26.2892V41.2432H18.7662V26.2892C18.7662 23.7262 16.711 21.6484 14.1759 21.6484C11.6418 21.6484 9.58728 23.7243 9.5855 26.2859V26.2892V41.2432H1.4248V26.2892V26.284Z" fill="#012522"/>
<path d="M18.7666 9.78815V1.5376H26.927V9.78815H18.7666Z" fill="#012522"/>
</svg>
