<svg width="160" height="50" viewBox="0 0 160 50" fill="none" xmlns="http://www.w3.org/2000/svg">
<path d="M39.8165 41.9277C40.0229 46.074 36.1215 49.6378 31.1025 49.8876C26.0829 50.138 21.8466 46.9794 21.6401 42.8331C21.4336 38.6861 25.3351 35.1223 30.3547 34.8725C35.3737 34.6228 39.61 37.7814 39.8165 41.9277ZM21.9728 33.5918C22.0844 35.8366 20.937 37.7179 19.4093 37.7939C17.8816 37.8707 16.5528 36.1128 16.4405 33.8673C16.3289 31.6233 17.4763 29.742 19.004 29.6659C20.5317 29.5892 21.8605 31.3464 21.9728 33.5918ZM28.8606 28.7228C28.9722 30.9669 27.8247 32.8482 26.297 32.9242C24.7694 33.001 23.4398 31.2431 23.3282 28.9977C23.2166 26.7529 24.3641 24.8716 25.8917 24.7956C27.4194 24.7195 28.749 26.4781 28.8606 28.7228ZM35.9743 28.3678C36.0859 30.6125 34.9384 32.4938 33.4108 32.5699C31.8831 32.6466 30.5542 30.8881 30.4426 28.6433C30.331 26.3986 31.4785 24.5172 33.0062 24.4412C34.5338 24.3652 35.8627 26.1223 35.9743 28.3678ZM43.312 32.5294C43.4236 34.7742 42.2761 36.6555 40.7484 36.7315C39.2208 36.8083 37.8919 35.0504 37.7803 32.805C37.6687 30.5602 38.8162 28.6796 40.3438 28.6035C41.8715 28.5268 43.2003 30.284 43.312 32.5294ZM16.1049 22.7545C13.7437 26.1684 8.4785 26.619 4.34544 23.7604C0.211687 20.9018 -1.22459 15.8165 1.13666 12.402C3.4986 8.9874 8.7638 8.53748 12.8969 11.3954C17.0299 14.2547 18.4662 19.3399 16.1049 22.7545ZM7.02896 5.27568C5.75033 7.12422 3.69461 7.91664 2.43621 7.04748C1.17851 6.17692 1.19455 3.97333 2.47318 2.12479C3.75182 0.276247 5.80753 -0.516879 7.06593 0.352981C8.32364 1.22354 8.30759 3.42714 7.02896 5.27568ZM15.4562 5.60702C14.1783 7.45556 12.1219 8.24868 10.8642 7.37882C9.60576 6.50896 9.6225 4.30537 10.9011 2.45683C12.1791 0.608287 14.2355 -0.184841 15.4932 0.685019C16.7516 1.55488 16.7348 3.75848 15.4562 5.60702ZM21.315 9.65846C20.0364 11.507 17.9807 12.3001 16.7223 11.4303C15.4646 10.5597 15.4806 8.35611 16.7593 6.50757C18.0379 4.65903 20.0936 3.8659 21.352 4.73576C22.6097 5.60632 22.5937 7.80992 21.315 9.65846ZM24.6005 17.4279C23.3219 19.2764 21.2662 20.0696 20.0078 19.1997C18.7494 18.3292 18.7661 16.1256 20.0448 14.277C21.3227 12.4285 23.3791 11.6353 24.6368 12.5052C25.8952 13.3758 25.8792 15.5794 24.6005 17.4279ZM57.003 39.9034C55.0226 38.9268 53.405 37.6579 52.1501 36.0961C50.8945 34.5063 49.9604 32.805 49.3466 30.9913C48.7606 29.1511 48.4676 27.3661 48.4676 25.6368V24.716C48.4676 22.8194 48.7746 20.9506 49.3884 19.1097C49.992 17.2591 50.9433 15.5407 52.1912 14.0468C53.4747 12.5408 55.0784 11.3417 57.003 10.4495C58.9555 9.52871 61.256 9.06832 63.9061 9.06832C66.6677 9.06832 69.1078 9.58451 71.2277 10.6169C73.3476 11.6486 75.035 13.0849 76.2906 14.9257C77.5734 16.7394 78.3268 18.8726 78.5493 21.3273H71.6462C71.4516 20.0996 71.0045 19.0539 70.3076 18.1889C69.61 17.324 68.7039 16.655 67.5885 16.1807C66.5003 15.7063 65.2726 15.4698 63.9061 15.4698C62.5396 15.4698 61.3265 15.707 60.2662 16.1814C59.2317 16.6365 58.3157 17.3234 57.589 18.1889C57.2881 18.5616 57.0193 18.959 56.7854 19.3769L56.7135 19.5066C56.489 19.9218 56.2937 20.3521 56.129 20.7943C56.069 20.9548 56.0118 21.1187 55.9574 21.2854C55.5939 22.4573 55.4126 23.768 55.4126 25.2183C55.4126 26.6413 55.5939 27.9513 55.9574 29.1511C55.9999 29.2788 56.0446 29.405 56.0906 29.5299L56.1624 29.7148C56.5189 30.6291 57.0139 31.4831 57.6301 32.2469C58.3835 33.1119 59.3043 33.7808 60.3918 34.2552C61.48 34.7016 62.7209 34.9249 64.1153 34.9249C66.2352 34.9249 68.0203 34.4087 69.4712 33.3763C70.9494 32.3439 71.8415 30.9222 72.1485 29.1093H79.0104C78.7691 31.3129 77.9933 33.4242 76.7503 35.2597C75.524 37.0999 73.8359 38.578 71.6881 39.6941C69.5682 40.7823 67.0437 41.3264 64.1153 41.3264C61.3544 41.3264 58.9834 40.852 57.003 39.9034ZM81.3863 40.5312V9.9891H88.1226V40.5312H81.3863ZM94.144 38.6903C95.5663 40.3916 97.6025 41.242 100.253 41.242H100.546C102.275 41.242 104.093 41.2838 105.264 40.5305C106.071 40.0129 107.185 39.2818 107.992 38.3764V40.5312H113.306V17.6037H106.612V31.0757C106.612 32.3585 106.236 33.3763 105.482 34.1296C104.729 34.883 103.753 35.2597 102.554 35.2597C101.382 35.2597 100.448 34.8969 99.7503 34.1715C99.0534 33.446 98.7047 32.4701 98.7047 31.2424V17.6037H92.0102V30.9083C92.0102 34.3668 92.7217 36.961 94.144 38.6903Z" fill="#012522"/>
<path d="M30.3545 34.8726C35.3734 34.6228 39.6098 37.7811 39.8164 41.9272C40.0229 46.0735 36.1214 49.6374 31.1025 49.8872C26.0829 50.1376 21.8461 46.9788 21.6396 42.8325C21.4335 38.6857 25.335 35.1223 30.3545 34.8726ZM19.0039 29.6655C20.5314 29.5889 21.8602 31.3461 21.9727 33.5913C22.0843 35.836 20.9368 37.7173 19.4092 37.7935C17.8815 37.8702 16.5527 36.1122 16.4404 33.8667C16.329 31.6228 17.4763 29.7416 19.0039 29.6655ZM40.3438 28.603C41.8712 28.5264 43.1998 30.2837 43.3115 32.5288C43.4231 34.7736 42.2757 36.6549 40.748 36.731C39.2205 36.8076 37.892 35.0504 37.7803 32.8052C37.6687 30.5604 38.8161 28.6791 40.3438 28.603ZM25.8916 24.7954C27.4191 24.7195 28.7486 26.4777 28.8604 28.7222C28.972 30.9662 27.8245 32.8482 26.2969 32.9243C24.7692 33.001 23.4398 31.243 23.3281 28.9976C23.2165 26.7528 24.3639 24.8714 25.8916 24.7954ZM33.0059 24.4409C34.5335 24.3649 35.862 26.1222 35.9736 28.3677C36.0852 30.6124 34.9378 32.4938 33.4102 32.5698C31.8827 32.6462 30.554 30.8876 30.4424 28.6431C30.3308 26.3984 31.4783 24.517 33.0059 24.4409ZM1.13672 12.4019C3.49866 8.98742 8.76349 8.53727 12.8965 11.395C17.0295 14.2543 18.4657 19.3398 16.1045 22.7544C13.7432 26.1681 8.47772 26.6188 4.34473 23.7603C0.211204 20.9016 -1.22447 15.8163 1.13672 12.4019ZM20.0449 14.2769C21.3229 12.4284 23.3791 11.6355 24.6367 12.5054C25.8948 13.376 25.8788 15.5789 24.6006 17.4272C23.322 19.2757 21.2662 20.0693 20.0078 19.1997C18.7494 18.3291 18.7663 16.1254 20.0449 14.2769ZM16.7588 6.50732C18.0374 4.6588 20.0932 3.866 21.3516 4.73584C22.6093 5.6064 22.5931 7.81015 21.3145 9.65869C20.0358 11.5069 17.98 12.3 16.7217 11.4302C15.4642 10.5595 15.4803 8.35575 16.7588 6.50732ZM10.9014 2.45654C12.1793 0.608209 14.2355 -0.184756 15.4932 0.685059C16.7513 1.55504 16.7346 3.75851 15.4561 5.60693C14.1782 7.45539 12.122 8.24814 10.8643 7.37842C9.60586 6.50856 9.62274 4.30508 10.9014 2.45654ZM2.47266 2.12451C3.75126 0.276011 5.80702 -0.516744 7.06543 0.353027C8.32313 1.22358 8.30695 3.42734 7.02832 5.27588C5.74967 7.1241 3.69385 7.91645 2.43555 7.04736C1.17813 6.17669 1.19417 3.9729 2.47266 2.12451Z" fill="#012522"/>
<path fill-rule="evenodd" clip-rule="evenodd" d="M127.575 41.326C125.622 41.326 123.892 40.9912 122.386 40.3215C120.908 39.6526 119.667 38.7604 118.662 37.6443C117.695 36.5153 116.931 35.2271 116.403 33.837C115.905 32.4402 115.651 30.9684 115.65 29.4856V28.6492C115.65 27.1146 115.901 25.6504 116.403 24.256C116.918 22.8598 117.684 21.5695 118.662 20.4487C119.639 19.3326 120.852 18.4544 122.302 17.8126C123.78 17.1429 125.455 16.8081 127.323 16.8081C129.777 16.8081 131.842 17.3662 133.515 18.4823C135.217 19.5705 136.514 21.0067 137.406 22.7918C138.299 24.5497 138.745 26.4735 138.745 28.5655V30.8249H121.999C122.094 31.5043 122.252 32.1321 122.47 32.7076C122.86 33.7121 123.474 34.4927 124.311 35.0501C125.148 35.6081 126.235 35.8871 127.575 35.8871C128.801 35.8871 129.805 35.65 130.587 35.1756C130.93 34.9716 131.244 34.7222 131.521 34.4341C131.81 34.1272 132.028 33.7889 132.176 33.4185H138.327C138.007 34.9223 137.332 36.328 136.36 37.5187C135.384 38.7185 134.157 39.6526 132.679 40.3222C131.2 40.9919 129.498 41.326 127.575 41.326ZM122.083 26.8397C122.071 26.8988 122.06 26.9581 122.051 27.0176H132.388C132.302 26.4158 132.147 25.826 131.925 25.2598C131.535 24.2839 130.949 23.5452 130.168 23.0429C129.415 22.5128 128.467 22.2477 127.323 22.2477C127.109 22.2477 126.901 22.2568 126.698 22.2742C126.503 22.2914 126.308 22.3179 126.115 22.3537C125.455 22.4758 124.867 22.706 124.353 23.0429C123.543 23.5731 122.929 24.3543 122.512 25.386C122.421 25.6057 122.341 25.8299 122.273 26.0578C122.2 26.3068 122.136 26.5677 122.083 26.8397Z" fill="#012522"/>
<path d="M142.134 39.2337C143.975 40.5731 146.527 41.2427 149.791 41.2427C151.855 41.2427 153.654 40.9498 155.188 40.3638C156.722 39.7499 157.907 38.885 158.744 37.7696C159.581 36.6256 159.999 35.2869 159.999 33.753C159.999 31.6331 159.218 29.9457 157.656 28.6908C156.094 27.4352 153.905 26.6546 151.088 26.3477L149.289 26.1803C148.089 26.0408 147.225 25.8036 146.695 25.4688C146.492 25.3448 146.316 25.1802 146.18 24.9853C145.993 24.7126 145.9 24.3854 145.9 24.0046C145.9 23.3349 146.207 22.8055 146.82 22.4148C147.434 22.0242 148.257 21.8289 149.289 21.8289C150.599 21.8289 151.59 22.094 152.259 22.6241C152.928 23.1263 153.319 23.7541 153.43 24.5075H159.372C159.289 22.0521 158.339 20.1833 156.527 18.9005C154.714 17.5891 152.329 16.9341 149.373 16.9341C147.531 16.9341 145.886 17.2131 144.435 17.7712C143.012 18.3292 141.897 19.1516 141.088 20.2391C140.28 21.3273 139.875 22.6799 139.875 24.2975C139.875 26.2507 140.558 27.8537 141.925 29.1093C143.32 30.3642 145.397 31.1316 148.159 31.4106L149.959 31.578C151.465 31.7447 152.51 32.0377 153.096 32.4569C153.682 32.8469 153.975 33.3763 153.975 34.046C153.975 34.7993 153.584 35.3853 152.803 35.8031C152.05 36.1938 151.088 36.3891 149.916 36.3891C148.382 36.3891 147.225 36.1101 146.443 35.552C145.69 34.9661 145.258 34.3104 145.147 33.5856H139.205C139.317 36.0131 140.293 37.8951 142.134 39.2337Z" fill="#012522"/>
</svg>
