<svg width="160" height="44" viewBox="0 0 160 44" fill="none" xmlns="http://www.w3.org/2000/svg">
<path d="M19.8738 43.953H5.61474L19.9142 22.3423H34.2136L19.8738 43.953ZM14.663 0.0449219H29.2855L14.663 22.3423H0L14.663 0.0449219ZM63.3375 18.8684C63.3375 20.2014 63.0144 21.4536 62.3681 22.5847C61.7622 23.7561 60.7523 24.6851 59.4193 25.3718C58.0863 26.0989 56.4302 26.4221 54.3701 26.4221H50.2095V35.955H45.2411V11.1936H54.3701C56.2686 11.1936 57.9248 11.5168 59.2578 12.2034C60.5908 12.8497 61.6006 13.7788 62.2873 14.9502C62.974 16.0813 63.3375 17.3739 63.3375 18.8684ZM54.1681 22.4231C55.5415 22.4231 56.5514 22.0999 57.2381 21.494C57.8844 20.8477 58.2479 19.9591 58.2479 18.828C58.2479 16.4044 56.9149 15.1926 54.2085 15.1926H50.2499V22.3827H54.1681V22.4231ZM70.4065 19.3532C71.0528 18.3029 71.8606 17.495 72.9109 16.8891C73.9611 16.2832 75.1325 16.0005 76.4655 16.0005V21.2113H75.1325C73.5572 21.2113 72.3858 21.5748 71.5779 22.3019C70.8104 23.029 70.4065 24.3216 70.4065 26.1393V35.955H65.438V16.2832H70.4065V19.3532ZM87.0891 36.2781C85.1906 36.2781 83.4941 35.8742 81.9591 35.0259C80.4645 34.1777 79.2527 32.9659 78.3641 31.4309C77.5158 29.8959 77.0714 28.1186 77.0714 26.0989C77.0714 24.0792 77.5158 22.3019 78.4044 20.7669C79.2931 19.232 80.5049 18.0605 82.0803 17.2123C83.6153 16.364 85.3522 15.9197 87.2103 15.9197C89.1088 15.9197 90.8054 16.364 92.3403 17.2123C93.8753 18.0605 95.0871 19.232 95.9758 20.7669C96.8644 22.3019 97.3088 24.0792 97.3088 26.0989C97.3088 28.1186 96.8644 29.8959 95.9354 31.4309C95.0467 32.9659 93.7945 34.1777 92.2595 35.0259C90.7246 35.8742 89.028 36.2781 87.0891 36.2781ZM87.0891 31.956C87.9778 31.956 88.826 31.754 89.5935 31.3097C90.4014 30.8654 91.0477 30.1787 91.4921 29.3304C91.9768 28.4417 92.2191 27.3915 92.2191 26.1393C92.2191 24.2812 91.7344 22.827 90.7246 21.8576C89.7551 20.8477 88.5433 20.3226 87.1295 20.3226C85.7157 20.3226 84.5039 20.8477 83.5345 21.8576C82.6054 22.8674 82.1207 24.2812 82.1207 26.1393C82.1207 27.9974 82.565 29.4516 83.4941 30.4614C84.5039 31.4309 85.6753 31.956 87.0891 31.956ZM104.539 32.0368H109.871V35.9954H99.5708V8.12368H104.539V32.0368ZM113.749 13.9404C112.86 13.9404 112.133 13.6576 111.568 13.1325C111.002 12.567 110.72 11.8803 110.72 11.032C110.72 10.1838 111.002 9.53746 111.568 8.97195C112.174 8.40643 112.901 8.12368 113.749 8.12368C114.638 8.12368 115.365 8.40643 115.93 8.97195C116.536 9.49707 116.819 10.1838 116.819 11.032C116.819 11.8803 116.536 12.567 115.93 13.1325C115.324 13.698 114.638 13.9404 113.749 13.9404ZM116.213 16.2832V35.955H111.204V16.2832H116.213ZM130.593 16.0005C132.936 16.0005 134.835 16.7276 136.289 18.2221C137.743 19.6763 138.47 21.7364 138.47 24.4024V35.955H133.502V25.0891C133.502 23.5137 133.098 22.3423 132.33 21.494C131.563 20.6458 130.472 20.2014 129.139 20.2014C127.766 20.2014 126.675 20.6458 125.867 21.494C125.1 22.3423 124.696 23.5137 124.696 25.0891V35.955H119.687V16.2832H124.655V18.7472C125.302 17.899 126.15 17.2527 127.16 16.7679C128.21 16.2428 129.341 16.0005 130.593 16.0005ZM160 25.695C160 26.4221 159.96 27.028 159.838 27.5935H145.458C145.579 29.0073 146.064 30.1383 146.953 30.9462C147.841 31.754 148.892 32.158 150.184 32.158C152.042 32.158 153.335 31.3501 154.143 29.7747H159.515C158.95 31.6733 157.859 33.2486 156.243 34.4604C154.628 35.6722 152.648 36.2781 150.305 36.2781C148.407 36.2781 146.71 35.8742 145.175 35.0259C143.681 34.1777 142.509 32.9659 141.661 31.4309C140.853 29.8959 140.409 28.1186 140.409 26.0989C140.409 24.0792 140.813 22.2615 141.661 20.7265C142.509 19.1916 143.641 18.0202 145.135 17.1719C146.63 16.3236 148.326 15.9197 150.265 15.9197C152.123 15.9197 153.82 16.3236 155.274 17.1315C156.769 17.9394 157.9 19.0704 158.707 20.565C159.596 22.0999 160 23.7965 160 25.695ZM154.87 24.2812C154.83 22.9886 154.385 21.9787 153.497 21.2113C152.608 20.4438 151.517 20.0398 150.184 20.0398C148.972 20.0398 147.922 20.4034 147.074 21.1709C146.266 21.898 145.741 22.9482 145.539 24.2408H154.87V24.2812Z" fill="#012522"/>
<path d="M14.6607 0.0449219H29.3375L14.6607 22.346H0L14.6607 0.0449219Z" fill="#012522"/>
<path d="M20.1127 21.6535H34.7894L20.1127 43.9546H5.45195L20.1127 21.6535Z" fill="#012522"/>
</svg>
