<svg width="160" height="36" viewBox="0 0 160 36" fill="none" xmlns="http://www.w3.org/2000/svg">
<g clip-path="url(#clip0_12431_3780)">
<path fill-rule="evenodd" clip-rule="evenodd" d="M21.2751 0.772211H13.3878V15.8189C9.25933 16.529 5.16997 17.4493 1.13574 18.5761H13.3878V35.0754H21.2751V18.5761H37.242V35.0754H45.1293V18.5761H52.9282C53.0027 21.168 53.6635 23.7095 54.8612 26.0108C56.0588 28.3122 57.7624 30.3138 59.8446 31.866C63.3142 34.5379 67.569 35.9963 71.9522 36.0158C76.9459 36.0128 81.7533 34.1242 85.4077 30.7295C87.1687 29.1114 88.5706 27.1435 89.5234 24.9526C90.4761 22.7616 90.9588 20.396 90.94 18.0079C90.9572 15.6205 90.4739 13.256 89.5212 11.0659C88.5685 8.87581 87.1674 6.90852 85.4077 5.29022C81.7431 1.89726 76.9281 0.0117188 71.9282 0.0117188C66.9281 0.0117188 62.1131 1.89726 58.4485 5.29022C55.7079 7.80828 53.8655 11.1493 53.201 14.8064C50.5264 14.4943 47.8385 14.2582 45.1373 14.0981V0.772211H37.242V13.842H36.8409C31.6403 13.8378 26.4435 14.1236 21.2751 14.6984V0.772211ZM60.9116 15.931C64.9235 16.6433 68.807 17.5316 72.5258 18.5761H60.7552C61.008 24.6869 65.3368 29.4649 71.9522 29.4649C78.5677 29.4649 83.1171 24.3827 83.1171 18.0079C83.1171 11.633 78.4834 6.48275 71.9522 6.48275C66.0669 6.48275 61.7903 10.5726 60.9116 15.931ZM121.112 35.0834H129.783L132.422 27.7882H147.046L150.11 35.0834H159.293L143.695 0.772211H135.824L121.112 35.0834ZM145.159 22.0097H134.688L138.741 11.0848C139.198 9.52184 139.568 7.93468 139.848 6.33068C140.11 7.88647 140.462 9.42575 140.903 10.9407L145.159 22.0097ZM103.97 35.0834H112.307V19.4405L125.442 0.772211H116.933L108.107 15.2987L99.3368 0.772211H90.7716L103.97 19.4405V35.0834Z" fill="#012522"/>
</g>
<defs>
<clipPath id="clip0_12431_3780">
<rect width="160" height="36" fill="white"/>
</clipPath>
</defs>
</svg>
