<svg width="121" height="72" viewBox="0 0 121 72" fill="none" xmlns="http://www.w3.org/2000/svg">
<path d="M64.5786 4.0713C48.2056 3.03465 36.6493 17.005 49.4526 31.5251L49.5573 30.2589C52.4726 32.9227 54.4001 34.2224 61.331 34.2305L60.9549 33.5138C64.0828 33.0798 65.0272 32.6943 65.9374 31.8705C59.6233 33.2533 57.7876 32.5488 54.7567 31.0812C61.1973 31.6045 64.3827 31.2134 68.6338 28.2155C69.9864 26.2525 70.2208 25.3981 70.1642 24.0969C65.7728 31.7857 50.7977 33.1263 49.6507 19.2979C50.1705 14.6922 52.7726 12.7494 54.2363 12.3266L52.6564 15.9392L56.4521 12.3272C58.7565 10.7943 59.8841 10.3129 61.2548 10.9276C62.7361 10.0748 63.6931 10.2498 65.5974 11.5826L67.3779 12.3377C68.6438 11.4917 69.4188 12.1736 70.8134 13.6089L68.8704 9.90573L69.6521 9.05051L66.2709 7.29667L67.7297 6.85243L66.6263 6.50831L66.802 5.96362C64.9391 5.59584 63.3073 5.5347 63.3664 4.69236L64.5786 4.0713Z" fill="#6D23CB"/>
<path d="M38.8274 50.5433H34.843C34.7294 49.8899 34.5199 49.3111 34.2145 48.8068C33.9091 48.2955 33.5291 47.8622 33.0746 47.5071C32.62 47.152 32.1016 46.8857 31.5192 46.7081C30.9439 46.5234 30.3224 46.4311 29.6548 46.4311C28.4688 46.4311 27.4176 46.7294 26.5014 47.326C25.5852 47.9155 24.8679 48.782 24.3494 49.9254C23.831 51.0618 23.5717 52.4503 23.5717 54.0909C23.5717 55.7599 23.831 57.1662 24.3494 58.3097C24.875 59.446 25.5923 60.3054 26.5014 60.8878C27.4176 61.4631 28.4652 61.7507 29.6442 61.7507C30.2976 61.7507 30.9084 61.6655 31.4766 61.495C32.0518 61.3175 32.5668 61.0582 33.0213 60.7173C33.483 60.3764 33.87 59.9574 34.1825 59.4602C34.5021 58.9631 34.7223 58.3949 34.843 57.7557L38.8274 57.777C38.6783 58.8139 38.3551 59.7869 37.858 60.696C37.3679 61.6051 36.7251 62.4077 35.9297 63.1037C35.1342 63.7926 34.2038 64.3324 33.1385 64.723C32.0732 65.1065 30.8906 65.2983 29.5909 65.2983C27.6733 65.2983 25.9616 64.8544 24.456 63.9666C22.9503 63.0788 21.7642 61.7969 20.8977 60.1207C20.0313 58.4446 19.598 56.4347 19.598 54.0909C19.598 51.7401 20.0348 49.7301 20.9084 48.0611C21.782 46.3849 22.9716 45.103 24.4773 44.2152C25.983 43.3274 27.6875 42.8835 29.5909 42.8835C30.8054 42.8835 31.9347 43.054 32.9787 43.3949C34.0227 43.7358 34.9531 44.2365 35.7699 44.897C36.5866 45.5504 37.2578 46.353 37.7834 47.3047C38.3161 48.2493 38.6641 49.3288 38.8274 50.5433ZM49.4142 65.3196C47.8162 65.3196 46.4313 64.968 45.2594 64.2649C44.0875 63.5618 43.1784 62.5781 42.5321 61.3139C41.8929 60.0497 41.5733 58.5724 41.5733 56.8821C41.5733 55.1918 41.8929 53.7109 42.5321 52.4396C43.1784 51.1683 44.0875 50.1811 45.2594 49.478C46.4313 48.7749 47.8162 48.4233 49.4142 48.4233C51.0123 48.4233 52.3972 48.7749 53.5691 49.478C54.7409 50.1811 55.6465 51.1683 56.2857 52.4396C56.932 53.7109 57.2551 55.1918 57.2551 56.8821C57.2551 58.5724 56.932 60.0497 56.2857 61.3139C55.6465 62.5781 54.7409 63.5618 53.5691 64.2649C52.3972 64.968 51.0123 65.3196 49.4142 65.3196ZM49.4355 62.2301C50.302 62.2301 51.0265 61.9922 51.6088 61.5163C52.1912 61.0334 52.6245 60.3871 52.9086 59.5774C53.1998 58.7678 53.3453 57.8658 53.3453 56.8714C53.3453 55.87 53.1998 54.9645 52.9086 54.1548C52.6245 53.3381 52.1912 52.6882 51.6088 52.2053C51.0265 51.7223 50.302 51.4808 49.4355 51.4808C48.5478 51.4808 47.8091 51.7223 47.2196 52.2053C46.6373 52.6882 46.2005 53.3381 45.9093 54.1548C45.6252 54.9645 45.4831 55.87 45.4831 56.8714C45.4831 57.8658 45.6252 58.7678 45.9093 59.5774C46.2005 60.3871 46.6373 61.0334 47.2196 61.5163C47.8091 61.9922 48.5478 62.2301 49.4355 62.2301ZM60.5284 65V48.6364H64.2678V51.3636H64.4382C64.7365 50.419 65.2479 49.6911 65.9723 49.1797C66.7038 48.6612 67.5384 48.402 68.4759 48.402C68.6889 48.402 68.9268 48.4126 69.1896 48.4339C69.4595 48.4482 69.6832 48.473 69.8608 48.5085V52.0561C69.6974 51.9993 69.4382 51.9496 69.0831 51.907C68.7351 51.8572 68.3977 51.8324 68.071 51.8324C67.3679 51.8324 66.7358 51.9851 66.1747 52.2905C65.6207 52.5888 65.1839 53.0043 64.8643 53.5369C64.5447 54.0696 64.3849 54.6839 64.3849 55.38V65H60.5284ZM81.473 48.6364V51.6193H72.0661V48.6364H81.473ZM74.3885 44.7159H78.245V60.0781C78.245 60.5966 78.3232 60.9943 78.4794 61.2713C78.6428 61.5412 78.8558 61.7259 79.1186 61.8253C79.3814 61.9247 79.6726 61.9744 79.9922 61.9744C80.2337 61.9744 80.4538 61.9567 80.6527 61.9212C80.8587 61.8857 81.0149 61.8537 81.1214 61.8253L81.7713 64.8402C81.5653 64.9112 81.2706 64.9893 80.8871 65.0746C80.5107 65.1598 80.049 65.2095 79.5021 65.2237C78.5362 65.2521 77.6662 65.1065 76.892 64.7869C76.1179 64.4602 75.5036 63.956 75.049 63.2741C74.6016 62.5923 74.3814 61.7401 74.3885 60.7173V44.7159ZM84.6983 65V48.6364H88.5549V65H84.6983ZM86.6373 46.3139C86.0265 46.3139 85.5009 46.1115 85.0605 45.7067C84.6202 45.2947 84.4 44.8011 84.4 44.2259C84.4 43.6435 84.6202 43.1499 85.0605 42.745C85.5009 42.3331 86.0265 42.1271 86.6373 42.1271C87.2551 42.1271 87.7807 42.3331 88.214 42.745C88.6543 43.1499 88.8745 43.6435 88.8745 44.2259C88.8745 44.8011 88.6543 45.2947 88.214 45.7067C87.7807 46.1115 87.2551 46.3139 86.6373 46.3139ZM97.2294 65.3303C96.1925 65.3303 95.2585 65.1456 94.4276 64.7763C93.6037 64.3999 92.9503 63.8459 92.4673 63.1143C91.9915 62.3828 91.7536 61.4808 91.7536 60.4084C91.7536 59.4851 91.924 58.7216 92.2649 58.1179C92.6058 57.5142 93.071 57.0312 93.6605 56.669C94.25 56.3068 94.9141 56.0334 95.6527 55.8487C96.3984 55.657 97.169 55.5185 97.9645 55.4332C98.9233 55.3338 99.701 55.245 100.298 55.1669C100.894 55.0817 101.327 54.9538 101.597 54.7834C101.874 54.6058 102.013 54.3324 102.013 53.9631V53.8991C102.013 53.0966 101.775 52.4751 101.299 52.0348C100.823 51.5945 100.138 51.3743 99.2429 51.3743C98.2983 51.3743 97.549 51.5803 96.995 51.9922C96.4482 52.4041 96.0788 52.8906 95.8871 53.4517L92.2862 52.9403C92.5703 51.946 93.0391 51.1151 93.6925 50.4474C94.3459 49.7727 95.1449 49.2685 96.0895 48.9347C97.0341 48.5938 98.0781 48.4233 99.2216 48.4233C100.01 48.4233 100.795 48.5156 101.576 48.7003C102.357 48.8849 103.071 49.1903 103.717 49.6165C104.364 50.0355 104.882 50.6072 105.273 51.3317C105.67 52.0561 105.869 52.9616 105.869 54.0483V65H102.162V62.7521H102.034C101.8 63.2067 101.469 63.6328 101.043 64.0305C100.624 64.4212 100.095 64.7372 99.456 64.9787C98.8239 65.2131 98.0817 65.3303 97.2294 65.3303ZM98.2308 62.4964C99.005 62.4964 99.6761 62.3437 100.244 62.0384C100.813 61.7259 101.249 61.3139 101.555 60.8026C101.867 60.2912 102.023 59.7337 102.023 59.13V57.2017C101.903 57.3011 101.697 57.3935 101.406 57.4787C101.121 57.5639 100.802 57.6385 100.447 57.7024C100.092 57.7663 99.7401 57.8232 99.392 57.8729C99.044 57.9226 98.7422 57.9652 98.4865 58.0007C97.9112 58.0788 97.3963 58.2067 96.9418 58.3842C96.4872 58.5618 96.1286 58.8104 95.8658 59.13C95.603 59.4425 95.4716 59.8473 95.4716 60.3445C95.4716 61.0547 95.7308 61.5909 96.2493 61.9531C96.7678 62.3153 97.4283 62.4964 98.2308 62.4964Z" fill="#6D23CB"/>
</svg>
