<svg width="116" height="39" viewBox="0 0 116 39" fill="none" xmlns="http://www.w3.org/2000/svg">
<path d="M25.5786 4.0713C9.20557 3.03465 -2.35072 17.005 10.4526 31.5251L10.5573 30.2589C13.4726 32.9227 15.4001 34.2224 22.331 34.2305L21.9549 33.5138C25.0828 33.0798 26.0272 32.6943 26.9374 31.8705C20.6233 33.2533 18.7876 32.5488 15.7567 31.0812C22.1973 31.6045 25.3827 31.2134 29.6338 28.2155C30.9864 26.2525 31.2208 25.3981 31.1642 24.0969C26.7728 31.7857 11.7977 33.1263 10.6507 19.2979C11.1705 14.6922 13.7726 12.7494 15.2363 12.3266L13.6564 15.9392L17.4521 12.3272C19.7565 10.7943 20.8841 10.3129 22.2548 10.9276C23.7361 10.0748 24.6931 10.2498 26.5974 11.5826L28.3779 12.3377C29.6438 11.4917 30.4188 12.1736 31.8134 13.6089L29.8704 9.90573L30.6521 9.05051L27.2709 7.29667L28.7297 6.85243L27.6263 6.50831L27.802 5.96362C25.9391 5.59584 24.3073 5.5347 24.3664 4.69236L25.5786 4.0713Z" fill="#6D23CB"/>
<path d="M43.4432 30.4183C41.5 30.4183 39.8042 29.973 38.3558 29.0824C36.9074 28.1918 35.7829 26.9458 34.9822 25.3445C34.1816 23.7431 33.7812 21.8719 33.7812 19.7308C33.7812 17.5807 34.1816 15.7005 34.9822 14.0902C35.7829 12.4799 36.9074 11.2294 38.3558 10.3388C39.8042 9.44815 41.5 9.00284 43.4432 9.00284C45.3864 9.00284 47.0821 9.44815 48.5305 10.3388C49.9789 11.2294 51.1035 12.4799 51.9041 14.0902C52.7048 15.7005 53.1051 17.5807 53.1051 19.7308C53.1051 21.8719 52.7048 23.7431 51.9041 25.3445C51.1035 26.9458 49.9789 28.1918 48.5305 29.0824C47.0821 29.973 45.3864 30.4183 43.4432 30.4183ZM43.4567 27.0312C44.7161 27.0312 45.7597 26.6984 46.5874 26.0327C47.415 25.367 48.0268 24.4808 48.4226 23.3743C48.8274 22.2678 49.0298 21.0488 49.0298 19.7173C49.0298 18.3949 48.8274 17.1804 48.4226 16.0739C48.0268 14.9583 47.415 14.0632 46.5874 13.3885C45.7597 12.7138 44.7161 12.3764 43.4567 12.3764C42.1882 12.3764 41.1357 12.7138 40.299 13.3885C39.4714 14.0632 38.8551 14.9583 38.4503 16.0739C38.0545 17.1804 37.8565 18.3949 37.8565 19.7173C37.8565 21.0488 38.0545 22.2678 38.4503 23.3743C38.8551 24.4808 39.4714 25.367 40.299 26.0327C41.1357 26.6984 42.1882 27.0312 43.4567 27.0312ZM57.6088 30V9.27273H61.5087V12.5653H61.7246C62.1025 11.4498 62.7682 10.5727 63.7218 9.93395C64.6844 9.28622 65.7729 8.96236 66.9874 8.96236C67.2393 8.96236 67.5362 8.97135 67.878 8.98935C68.2289 9.00734 68.5033 9.02983 68.7012 9.05682V12.9162C68.5392 12.8712 68.2514 12.8217 67.8375 12.7678C67.4237 12.7048 67.0099 12.6733 66.5961 12.6733C65.6425 12.6733 64.7923 12.8757 64.0456 13.2805C63.3079 13.6764 62.7232 14.2296 62.2914 14.9403C61.8596 15.642 61.6436 16.4427 61.6436 17.3423V30H57.6088ZM83.0929 9.27273V12.5114H71.7711V9.27273H83.0929ZM74.8074 4.30682H78.8422V23.9141C78.8422 24.6967 78.9591 25.286 79.193 25.6818C79.4269 26.0687 79.7283 26.334 80.0971 26.478C80.475 26.6129 80.8843 26.6804 81.3251 26.6804C81.649 26.6804 81.9324 26.6579 82.1752 26.6129C82.4181 26.5679 82.6071 26.532 82.742 26.505L83.4707 29.8381C83.2368 29.928 82.9039 30.018 82.4721 30.108C82.0403 30.2069 81.5005 30.2609 80.8528 30.2699C79.7913 30.2879 78.8017 30.099 77.8841 29.7031C76.9664 29.3073 76.2243 28.6955 75.6575 27.8679C75.0907 27.0402 74.8074 26.0012 74.8074 24.7507V4.30682ZM87.5561 30V9.27273H91.5909V30H87.5561ZM89.5938 6.07457C88.892 6.07457 88.2893 5.84067 87.7855 5.37287C87.2907 4.89607 87.0433 4.32931 87.0433 3.67258C87.0433 3.00686 87.2907 2.4401 87.7855 1.9723C88.2893 1.4955 88.892 1.2571 89.5938 1.2571C90.2955 1.2571 90.8937 1.4955 91.3885 1.9723C91.8923 2.4401 92.1442 3.00686 92.1442 3.67258C92.1442 4.32931 91.8923 4.89607 91.3885 5.37287C90.8937 5.84067 90.2955 6.07457 89.5938 6.07457ZM103.051 30.4588C101.738 30.4588 100.55 30.2159 99.4885 29.7301C98.4269 29.2353 97.5858 28.5201 96.965 27.5845C96.3533 26.6489 96.0474 25.5019 96.0474 24.1435C96.0474 22.974 96.2723 22.0114 96.7221 21.2557C97.1719 20.5 97.7792 19.9018 98.5439 19.4609C99.3085 19.0201 100.163 18.6873 101.108 18.4624C102.052 18.2375 103.015 18.0665 103.996 17.9496C105.237 17.8056 106.245 17.6887 107.018 17.5987C107.792 17.4998 108.354 17.3423 108.705 17.1264C109.056 16.9105 109.231 16.5597 109.231 16.0739V15.9794C109.231 14.8009 108.898 13.8878 108.233 13.2401C107.576 12.5923 106.595 12.2685 105.291 12.2685C103.933 12.2685 102.862 12.5698 102.079 13.1726C101.306 13.7663 100.77 14.4276 100.474 15.1562L96.6816 14.2926C97.1315 13.0331 97.7882 12.0166 98.6518 11.2429C99.5244 10.4602 100.528 9.89346 101.661 9.54261C102.795 9.18276 103.987 9.00284 105.237 9.00284C106.065 9.00284 106.942 9.1018 107.868 9.29972C108.804 9.48864 109.677 9.83949 110.486 10.3523C111.305 10.8651 111.975 11.5982 112.497 12.5518C113.019 13.4964 113.28 14.7244 113.28 16.2358V30H109.339V27.1662H109.177C108.916 27.688 108.525 28.2008 108.003 28.7045C107.482 29.2083 106.811 29.6267 105.993 29.9595C105.174 30.2924 104.193 30.4588 103.051 30.4588ZM103.928 27.2202C105.044 27.2202 105.997 26.9998 106.789 26.5589C107.59 26.1181 108.197 25.5424 108.611 24.8317C109.033 24.112 109.245 23.3428 109.245 22.5241V19.8523C109.101 19.9962 108.822 20.1312 108.408 20.2571C108.003 20.3741 107.54 20.4775 107.018 20.5675C106.497 20.6484 105.988 20.7249 105.493 20.7969C104.999 20.8598 104.585 20.9138 104.252 20.9588C103.469 21.0578 102.754 21.2242 102.106 21.4581C101.468 21.692 100.955 22.0294 100.568 22.4702C100.19 22.902 100.001 23.4777 100.001 24.1974C100.001 25.196 100.37 25.9517 101.108 26.4645C101.845 26.9683 102.786 27.2202 103.928 27.2202Z" fill="#6D23CB"/>
</svg>
