<svg width="80" height="80" viewBox="0 0 80 80" fill="none" xmlns="http://www.w3.org/2000/svg">
<path d="M72 0H8C3.58172 0 0 3.58172 0 8V72C0 76.4183 3.58172 80 8 80H72C76.4183 80 80 76.4183 80 72V8C80 3.58172 76.4183 0 72 0Z" fill="#6D23CB"/>
<path d="M49.2808 18.7271C26.6973 17.2972 10.7576 36.5666 28.4174 56.5944L28.5617 54.848C32.5828 58.5222 35.2416 60.3148 44.8014 60.326L44.2827 59.3374C48.597 58.7388 49.8995 58.207 51.155 57.0708C42.4459 58.9781 39.914 58.0064 35.7334 55.9821C44.617 56.7039 49.0106 56.1645 54.8742 52.0294C56.7399 49.3218 57.0631 48.1433 56.985 46.3485C50.928 56.9539 30.2727 58.803 28.6906 39.7293C29.4076 33.3766 32.9966 30.6969 35.0155 30.1137L32.8364 35.0965L38.0718 30.1146C41.2503 28.0002 42.8057 27.3362 44.6962 28.1841C46.7395 27.0078 48.0594 27.2491 50.6861 29.0875L53.1419 30.129C54.888 28.9621 55.957 29.9027 57.8806 31.8824L55.2005 26.7746L56.2788 25.595L51.6151 23.1759L53.6272 22.5631L52.1053 22.0885L52.3475 21.3372C49.7781 20.8299 47.5273 20.7456 47.6088 19.5837L49.2808 18.7271Z" fill="white"/>
</svg>
